<?xml version="1.0" encoding="UTF-8" standalone="no"?>
<!DOCTYPE svg PUBLIC "-//W3C//DTD SVG 1.1//EN"
 "http://www.w3.org/Graphics/SVG/1.1/DTD/svg11.dtd">
<!-- Generated by graphviz version 2.40.1 (20161225.0304)
 -->
<!-- Title: G Pages: 1 -->
<svg width="2863pt" height="2418pt"
 viewBox="0.00 0.00 2863.20 2418.20" xmlns="http://www.w3.org/2000/svg" xmlns:xlink="http://www.w3.org/1999/xlink">
<g id="graph0" class="graph" transform="scale(1 1) rotate(0) translate(21.6 2396.6)">
<title>G</title>
<polygon fill="#111111" stroke="transparent" points="-21.6,21.6 -21.6,-2396.6 2841.6,-2396.6 2841.6,21.6 -21.6,21.6"/>
<!-- build/js/bundle.js -->
<g id="node1" class="node">
<title>build/js/bundle.js</title>
<path fill="none" stroke="#cfffac" d="M502.8333,-23C502.8333,-23 394.1667,-23 394.1667,-23 390.3333,-23 386.5,-19.1667 386.5,-15.3333 386.5,-15.3333 386.5,-7.6667 386.5,-7.6667 386.5,-3.8333 390.3333,0 394.1667,0 394.1667,0 502.8333,0 502.8333,0 506.6667,0 510.5,-3.8333 510.5,-7.6667 510.5,-7.6667 510.5,-15.3333 510.5,-15.3333 510.5,-19.1667 506.6667,-23 502.8333,-23"/>
<text text-anchor="middle" x="448.5" y="-7.8" font-family="Arial" font-size="14.00" fill="#cfffac">build/js/bundle.js</text>
</g>
<!-- daughter/code/components/libwebsockets/minimal&#45;examples/http&#45;server/minimal&#45;http&#45;server&#45;eventlib&#45;demos/mount&#45;origin/lws&#45;common.js -->
<g id="node2" class="node">
<title>daughter/code/components/libwebsockets/minimal&#45;examples/http&#45;server/minimal&#45;http&#45;server&#45;eventlib&#45;demos/mount&#45;origin/lws&#45;common.js</title>
<path fill="none" stroke="#cfffac" d="M889.3333,-64C889.3333,-64 7.6667,-64 7.6667,-64 3.8333,-64 0,-60.1667 0,-56.3333 0,-56.3333 0,-48.6667 0,-48.6667 0,-44.8333 3.8333,-41 7.6667,-41 7.6667,-41 889.3333,-41 889.3333,-41 893.1667,-41 897,-44.8333 897,-48.6667 897,-48.6667 897,-56.3333 897,-56.3333 897,-60.1667 893.1667,-64 889.3333,-64"/>
<text text-anchor="middle" x="448.5" y="-48.8" font-family="Arial" font-size="14.00" fill="#cfffac">daughter/code/components/libwebsockets/minimal&#45;examples/http&#45;server/minimal&#45;http&#45;server&#45;eventlib&#45;demos/mount&#45;origin/lws&#45;common.js</text>
</g>
<!-- daughter/code/components/libwebsockets/plugins/generic&#45;sessions/assets/lwsgs.js -->
<g id="node3" class="node">
<title>daughter/code/components/libwebsockets/plugins/generic&#45;sessions/assets/lwsgs.js</title>
<path fill="none" stroke="#cfffac" d="M718.3333,-105C718.3333,-105 178.6667,-105 178.6667,-105 174.8333,-105 171,-101.1667 171,-97.3333 171,-97.3333 171,-89.6667 171,-89.6667 171,-85.8333 174.8333,-82 178.6667,-82 178.6667,-82 718.3333,-82 718.3333,-82 722.1667,-82 726,-85.8333 726,-89.6667 726,-89.6667 726,-97.3333 726,-97.3333 726,-101.1667 722.1667,-105 718.3333,-105"/>
<text text-anchor="middle" x="448.5" y="-89.8" font-family="Arial" font-size="14.00" fill="#cfffac">daughter/code/components/libwebsockets/plugins/generic&#45;sessions/assets/lwsgs.js</text>
</g>
<!-- daughter/code/components/libwebsockets/plugins/generic&#45;sessions/assets/md5.min.js -->
<g id="node4" class="node">
<title>daughter/code/components/libwebsockets/plugins/generic&#45;sessions/assets/md5.min.js</title>
<path fill="none" stroke="#cfffac" d="M727.8333,-146C727.8333,-146 169.1667,-146 169.1667,-146 165.3333,-146 161.5,-142.1667 161.5,-138.3333 161.5,-138.3333 161.5,-130.6667 161.5,-130.6667 161.5,-126.8333 165.3333,-123 169.1667,-123 169.1667,-123 727.8333,-123 727.8333,-123 731.6667,-123 735.5,-126.8333 735.5,-130.6667 735.5,-130.6667 735.5,-138.3333 735.5,-138.3333 735.5,-142.1667 731.6667,-146 727.8333,-146"/>
<text text-anchor="middle" x="448.5" y="-130.8" font-family="Arial" font-size="14.00" fill="#cfffac">daughter/code/components/libwebsockets/plugins/generic&#45;sessions/assets/md5.min.js</text>
</g>
<!-- daughter/code/components/libwebsockets/plugins/generic&#45;table/assets/lwsgt.js -->
<g id="node5" class="node">
<title>daughter/code/components/libwebsockets/plugins/generic&#45;table/assets/lwsgt.js</title>
<path fill="none" stroke="#cfffac" d="M703.3333,-187C703.3333,-187 193.6667,-187 193.6667,-187 189.8333,-187 186,-183.1667 186,-179.3333 186,-179.3333 186,-171.6667 186,-171.6667 186,-167.8333 189.8333,-164 193.6667,-164 193.6667,-164 703.3333,-164 703.3333,-164 707.1667,-164 711,-167.8333 711,-171.6667 711,-171.6667 711,-179.3333 711,-179.3333 711,-183.1667 707.1667,-187 703.3333,-187"/>
<text text-anchor="middle" x="448.5" y="-171.8" font-family="Arial" font-size="14.00" fill="#cfffac">daughter/code/components/libwebsockets/plugins/generic&#45;table/assets/lwsgt.js</text>
</g>
<!-- daughter/code/components/libwebsockets/test&#45;apps/lws&#45;common.js -->
<g id="node6" class="node">
<title>daughter/code/components/libwebsockets/test&#45;apps/lws&#45;common.js</title>
<path fill="none" stroke="#cfffac" d="M667.3333,-228C667.3333,-228 229.6667,-228 229.6667,-228 225.8333,-228 222,-224.1667 222,-220.3333 222,-220.3333 222,-212.6667 222,-212.6667 222,-208.8333 225.8333,-205 229.6667,-205 229.6667,-205 667.3333,-205 667.3333,-205 671.1667,-205 675,-208.8333 675,-212.6667 675,-212.6667 675,-220.3333 675,-220.3333 675,-224.1667 671.1667,-228 667.3333,-228"/>
<text text-anchor="middle" x="448.5" y="-212.8" font-family="Arial" font-size="14.00" fill="#cfffac">daughter/code/components/libwebsockets/test&#45;apps/lws&#45;common.js</text>
</g>
<!-- daughter/code/romfs&#45;files/station/lws&#45;common.js -->
<g id="node7" class="node">
<title>daughter/code/romfs&#45;files/station/lws&#45;common.js</title>
<path fill="none" stroke="#cfffac" d="M603.8333,-269C603.8333,-269 293.1667,-269 293.1667,-269 289.3333,-269 285.5,-265.1667 285.5,-261.3333 285.5,-261.3333 285.5,-253.6667 285.5,-253.6667 285.5,-249.8333 289.3333,-246 293.1667,-246 293.1667,-246 603.8333,-246 603.8333,-246 607.6667,-246 611.5,-249.8333 611.5,-253.6667 611.5,-253.6667 611.5,-261.3333 611.5,-261.3333 611.5,-265.1667 607.6667,-269 603.8333,-269"/>
<text text-anchor="middle" x="448.5" y="-253.8" font-family="Arial" font-size="14.00" fill="#cfffac">daughter/code/romfs&#45;files/station/lws&#45;common.js</text>
</g>
<!-- daughter/code/server/database.js -->
<g id="node8" class="node">
<title>daughter/code/server/database.js</title>
<path fill="none" stroke="#cfffac" d="M1158.3333,-310C1158.3333,-310 940.6667,-310 940.6667,-310 936.8333,-310 933,-306.1667 933,-302.3333 933,-302.3333 933,-294.6667 933,-294.6667 933,-290.8333 936.8333,-287 940.6667,-287 940.6667,-287 1158.3333,-287 1158.3333,-287 1162.1667,-287 1166,-290.8333 1166,-294.6667 1166,-294.6667 1166,-302.3333 1166,-302.3333 1166,-306.1667 1162.1667,-310 1158.3333,-310"/>
<text text-anchor="middle" x="1049.5" y="-294.8" font-family="Arial" font-size="14.00" fill="#cfffac">daughter/code/server/database.js</text>
</g>
<!-- daughter/code/server/socket.js -->
<g id="node9" class="node">
<title>daughter/code/server/socket.js</title>
<path fill="none" stroke="#c6c5fe" d="M548.3333,-310C548.3333,-310 348.6667,-310 348.6667,-310 344.8333,-310 341,-306.1667 341,-302.3333 341,-302.3333 341,-294.6667 341,-294.6667 341,-290.8333 344.8333,-287 348.6667,-287 348.6667,-287 548.3333,-287 548.3333,-287 552.1667,-287 556,-290.8333 556,-294.6667 556,-294.6667 556,-302.3333 556,-302.3333 556,-306.1667 552.1667,-310 548.3333,-310"/>
<text text-anchor="middle" x="448.5" y="-294.8" font-family="Arial" font-size="14.00" fill="#c6c5fe">daughter/code/server/socket.js</text>
</g>
<!-- daughter/code/server/socket.js&#45;&gt;daughter/code/server/database.js -->
<g id="edge1" class="edge">
<title>daughter/code/server/socket.js&#45;&gt;daughter/code/server/database.js</title>
<path fill="none" stroke="#757575" d="M556.2936,-298.5C659.15,-298.5 814.1061,-298.5 922.8141,-298.5"/>
<polygon fill="#757575" stroke="#757575" points="922.857,-302.0001 932.857,-298.5 922.857,-295.0001 922.857,-302.0001"/>
</g>
<!-- scripts/serialscript.js -->
<g id="node10" class="node">
<title>scripts/serialscript.js</title>
<path fill="none" stroke="#cfffac" d="M513.8333,-380C513.8333,-380 383.1667,-380 383.1667,-380 379.3333,-380 375.5,-376.1667 375.5,-372.3333 375.5,-372.3333 375.5,-364.6667 375.5,-364.6667 375.5,-360.8333 379.3333,-357 383.1667,-357 383.1667,-357 513.8333,-357 513.8333,-357 517.6667,-357 521.5,-360.8333 521.5,-364.6667 521.5,-364.6667 521.5,-372.3333 521.5,-372.3333 521.5,-376.1667 517.6667,-380 513.8333,-380"/>
<text text-anchor="middle" x="448.5" y="-364.8" font-family="Arial" font-size="14.00" fill="#cfffac">scripts/serialscript.js</text>
</g>
<!-- scripts/serialscript_esp.js -->
<g id="node11" class="node">
<title>scripts/serialscript_esp.js</title>
<path fill="none" stroke="#cfffac" d="M529.8333,-439C529.8333,-439 367.1667,-439 367.1667,-439 363.3333,-439 359.5,-435.1667 359.5,-431.3333 359.5,-431.3333 359.5,-423.6667 359.5,-423.6667 359.5,-419.8333 363.3333,-416 367.1667,-416 367.1667,-416 529.8333,-416 529.8333,-416 533.6667,-416 537.5,-419.8333 537.5,-423.6667 537.5,-423.6667 537.5,-431.3333 537.5,-431.3333 537.5,-435.1667 533.6667,-439 529.8333,-439"/>
<text text-anchor="middle" x="448.5" y="-423.8" font-family="Arial" font-size="14.00" fill="#cfffac">scripts/serialscript_esp.js</text>
</g>
<!-- src/database.js -->
<g id="node12" class="node">
<title>src/database.js</title>
<path fill="none" stroke="#cfffac" d="M1675.8333,-387C1675.8333,-387 1576.1667,-387 1576.1667,-387 1572.3333,-387 1568.5,-383.1667 1568.5,-379.3333 1568.5,-379.3333 1568.5,-371.6667 1568.5,-371.6667 1568.5,-367.8333 1572.3333,-364 1576.1667,-364 1576.1667,-364 1675.8333,-364 1675.8333,-364 1679.6667,-364 1683.5,-367.8333 1683.5,-371.6667 1683.5,-371.6667 1683.5,-379.3333 1683.5,-379.3333 1683.5,-383.1667 1679.6667,-387 1675.8333,-387"/>
<text text-anchor="middle" x="1626" y="-371.8" font-family="Arial" font-size="14.00" fill="#cfffac">src/database.js</text>
</g>
<!-- src/daughter&#45;card.js -->
<g id="node13" class="node">
<title>src/daughter&#45;card.js</title>
<path fill="none" stroke="#cfffac" d="M1690.8333,-551C1690.8333,-551 1561.1667,-551 1561.1667,-551 1557.3333,-551 1553.5,-547.1667 1553.5,-543.3333 1553.5,-543.3333 1553.5,-535.6667 1553.5,-535.6667 1553.5,-531.8333 1557.3333,-528 1561.1667,-528 1561.1667,-528 1690.8333,-528 1690.8333,-528 1694.6667,-528 1698.5,-531.8333 1698.5,-535.6667 1698.5,-535.6667 1698.5,-543.3333 1698.5,-543.3333 1698.5,-547.1667 1694.6667,-551 1690.8333,-551"/>
<text text-anchor="middle" x="1626" y="-535.8" font-family="Arial" font-size="14.00" fill="#cfffac">src/daughter&#45;card.js</text>
</g>
<!-- src/game&#45;machine.js -->
<g id="node14" class="node">
<title>src/game&#45;machine.js</title>
<path fill="none" stroke="#c6c5fe" d="M1117.3333,-489C1117.3333,-489 981.6667,-489 981.6667,-489 977.8333,-489 974,-485.1667 974,-481.3333 974,-481.3333 974,-473.6667 974,-473.6667 974,-469.8333 977.8333,-466 981.6667,-466 981.6667,-466 1117.3333,-466 1117.3333,-466 1121.1667,-466 1125,-469.8333 1125,-473.6667 1125,-473.6667 1125,-481.3333 1125,-481.3333 1125,-485.1667 1121.1667,-489 1117.3333,-489"/>
<text text-anchor="middle" x="1049.5" y="-473.8" font-family="Arial" font-size="14.00" fill="#c6c5fe">src/game&#45;machine.js</text>
</g>
<!-- src/game&#45;machine.js&#45;&gt;src/database.js -->
<g id="edge2" class="edge">
<title>src/game&#45;machine.js&#45;&gt;src/database.js</title>
<path fill="none" stroke="#757575" d="M1065.413,-465.9658C1092.0981,-447.3598 1148.2432,-411.3123 1202,-396.5 1324.0466,-362.8709 1473.1982,-364.9157 1558.1366,-369.9021"/>
<polygon fill="#757575" stroke="#757575" points="1557.9735,-373.3986 1568.1705,-370.5226 1558.4056,-366.412 1557.9735,-373.3986"/>
</g>
<!-- src/gui&#45;api.js -->
<g id="node15" class="node">
<title>src/gui&#45;api.js</title>
<path fill="none" stroke="#cfffac" d="M1373.3333,-510C1373.3333,-510 1290.6667,-510 1290.6667,-510 1286.8333,-510 1283,-506.1667 1283,-502.3333 1283,-502.3333 1283,-494.6667 1283,-494.6667 1283,-490.8333 1286.8333,-487 1290.6667,-487 1290.6667,-487 1373.3333,-487 1373.3333,-487 1377.1667,-487 1381,-490.8333 1381,-494.6667 1381,-494.6667 1381,-502.3333 1381,-502.3333 1381,-506.1667 1377.1667,-510 1373.3333,-510"/>
<text text-anchor="middle" x="1332" y="-494.8" font-family="Arial" font-size="14.00" fill="#cfffac">src/gui&#45;api.js</text>
</g>
<!-- src/game&#45;machine.js&#45;&gt;src/gui&#45;api.js -->
<g id="edge3" class="edge">
<title>src/game&#45;machine.js&#45;&gt;src/gui&#45;api.js</title>
<path fill="none" stroke="#757575" d="M1125.2048,-483.1276C1171.5048,-486.5694 1229.8776,-490.9086 1272.7891,-494.0985"/>
<polygon fill="#757575" stroke="#757575" points="1272.5653,-497.5914 1282.7973,-494.8425 1273.0843,-490.6107 1272.5653,-497.5914"/>
</g>
<!-- src/services/bill&#45;acceptor&#45;service.js -->
<g id="node16" class="node">
<title>src/services/bill&#45;acceptor&#45;service.js</title>
<path fill="none" stroke="#c6c5fe" d="M1444.8333,-428C1444.8333,-428 1219.1667,-428 1219.1667,-428 1215.3333,-428 1211.5,-424.1667 1211.5,-420.3333 1211.5,-420.3333 1211.5,-412.6667 1211.5,-412.6667 1211.5,-408.8333 1215.3333,-405 1219.1667,-405 1219.1667,-405 1444.8333,-405 1444.8333,-405 1448.6667,-405 1452.5,-408.8333 1452.5,-412.6667 1452.5,-412.6667 1452.5,-420.3333 1452.5,-420.3333 1452.5,-424.1667 1448.6667,-428 1444.8333,-428"/>
<text text-anchor="middle" x="1332" y="-412.8" font-family="Arial" font-size="14.00" fill="#c6c5fe">src/services/bill&#45;acceptor&#45;service.js</text>
</g>
<!-- src/game&#45;machine.js&#45;&gt;src/services/bill&#45;acceptor&#45;service.js -->
<g id="edge4" class="edge">
<title>src/game&#45;machine.js&#45;&gt;src/services/bill&#45;acceptor&#45;service.js</title>
<path fill="none" stroke="#757575" d="M1089.3843,-465.9116C1120.006,-457.2894 1163.4376,-445.6522 1202,-437.5 1215.2292,-434.7033 1229.2846,-432.0779 1243.0783,-429.6941"/>
<polygon fill="#757575" stroke="#757575" points="1243.7861,-433.1241 1253.0604,-428.0019 1242.6161,-426.2226 1243.7861,-433.1241"/>
</g>
<!-- src/services/contact&#45;sensor&#45;service.js -->
<g id="node17" class="node">
<title>src/services/contact&#45;sensor&#45;service.js</title>
<path fill="none" stroke="#c6c5fe" d="M1453.8333,-469C1453.8333,-469 1210.1667,-469 1210.1667,-469 1206.3333,-469 1202.5,-465.1667 1202.5,-461.3333 1202.5,-461.3333 1202.5,-453.6667 1202.5,-453.6667 1202.5,-449.8333 1206.3333,-446 1210.1667,-446 1210.1667,-446 1453.8333,-446 1453.8333,-446 1457.6667,-446 1461.5,-449.8333 1461.5,-453.6667 1461.5,-453.6667 1461.5,-461.3333 1461.5,-461.3333 1461.5,-465.1667 1457.6667,-469 1453.8333,-469"/>
<text text-anchor="middle" x="1332" y="-453.8" font-family="Arial" font-size="14.00" fill="#c6c5fe">src/services/contact&#45;sensor&#45;service.js</text>
</g>
<!-- src/game&#45;machine.js&#45;&gt;src/services/contact&#45;sensor&#45;service.js -->
<g id="edge5" class="edge">
<title>src/game&#45;machine.js&#45;&gt;src/services/contact&#45;sensor&#45;service.js</title>
<path fill="none" stroke="#757575" d="M1125.2048,-472.1404C1145.9195,-470.6738 1169.0508,-469.0362 1192.1329,-467.4021"/>
<polygon fill="#757575" stroke="#757575" points="1192.641,-470.875 1202.3689,-466.6774 1192.1466,-463.8925 1192.641,-470.875"/>
</g>
<!-- src/services/game&#45;machine&#45;service.js -->
<g id="node18" class="node">
<title>src/services/game&#45;machine&#45;service.js</title>
<path fill="none" stroke="#c6c5fe" d="M1454.3333,-551C1454.3333,-551 1209.6667,-551 1209.6667,-551 1205.8333,-551 1202,-547.1667 1202,-543.3333 1202,-543.3333 1202,-535.6667 1202,-535.6667 1202,-531.8333 1205.8333,-528 1209.6667,-528 1209.6667,-528 1454.3333,-528 1454.3333,-528 1458.1667,-528 1462,-531.8333 1462,-535.6667 1462,-535.6667 1462,-543.3333 1462,-543.3333 1462,-547.1667 1458.1667,-551 1454.3333,-551"/>
<text text-anchor="middle" x="1332" y="-535.8" font-family="Arial" font-size="14.00" fill="#c6c5fe">src/services/game&#45;machine&#45;service.js</text>
</g>
<!-- src/game&#45;machine.js&#45;&gt;src/services/game&#45;machine&#45;service.js -->
<g id="edge6" class="edge">
<title>src/game&#45;machine.js&#45;&gt;src/services/game&#45;machine&#45;service.js</title>
<path fill="none" stroke="#757575" d="M1086.8035,-489.0796C1117.496,-498.2904 1162.2559,-510.9998 1202,-519.5 1213.4267,-521.9439 1225.4795,-524.2098 1237.4515,-526.2714"/>
<polygon fill="#757575" stroke="#757575" points="1237.032,-529.7498 1247.4735,-527.9544 1238.1913,-522.8465 1237.032,-529.7498"/>
</g>
<!-- src/views/gui.js -->
<g id="node19" class="node">
<title>src/views/gui.js</title>
<path fill="none" stroke="#c6c5fe" d="M1381.3333,-633C1381.3333,-633 1282.6667,-633 1282.6667,-633 1278.8333,-633 1275,-629.1667 1275,-625.3333 1275,-625.3333 1275,-617.6667 1275,-617.6667 1275,-613.8333 1278.8333,-610 1282.6667,-610 1282.6667,-610 1381.3333,-610 1381.3333,-610 1385.1667,-610 1389,-613.8333 1389,-617.6667 1389,-617.6667 1389,-625.3333 1389,-625.3333 1389,-629.1667 1385.1667,-633 1381.3333,-633"/>
<text text-anchor="middle" x="1332" y="-617.8" font-family="Arial" font-size="14.00" fill="#c6c5fe">src/views/gui.js</text>
</g>
<!-- src/game&#45;machine.js&#45;&gt;src/views/gui.js -->
<g id="edge7" class="edge">
<title>src/game&#45;machine.js&#45;&gt;src/views/gui.js</title>
<path fill="none" stroke="#757575" d="M1070.0124,-489.1719C1099.1009,-505.6068 1154.1288,-536.2686 1202,-560.5 1233.6968,-576.5442 1270.3864,-593.6275 1296.6893,-605.6218"/>
<polygon fill="#757575" stroke="#757575" points="1295.3294,-608.8482 1305.8814,-609.7991 1298.2255,-602.4754 1295.3294,-608.8482"/>
</g>
<!-- src/services/bill&#45;acceptor&#45;service.js&#45;&gt;src/database.js -->
<g id="edge14" class="edge">
<title>src/services/bill&#45;acceptor&#45;service.js&#45;&gt;src/database.js</title>
<path fill="none" stroke="#757575" d="M1414.6778,-404.9701C1459.9613,-398.6551 1515.3887,-390.9254 1558.1151,-384.9669"/>
<polygon fill="#757575" stroke="#757575" points="1558.7137,-388.4174 1568.1344,-383.5697 1557.7468,-381.4845 1558.7137,-388.4174"/>
</g>
<!-- src/services/bill&#45;acceptor&#45;service.js&#45;&gt;src/daughter&#45;card.js -->
<g id="edge15" class="edge">
<title>src/services/bill&#45;acceptor&#45;service.js&#45;&gt;src/daughter&#45;card.js</title>
<path fill="none" stroke="#757575" d="M1446.8662,-428.0845C1452.2123,-430.7463 1457.2992,-433.862 1462,-437.5 1493.4766,-461.8602 1466.4606,-495.2211 1498,-519.5 1510.9883,-529.4984 1526.9545,-535.425 1543.1506,-538.7879"/>
<polygon fill="#757575" stroke="#757575" points="1542.7848,-542.2772 1553.2401,-540.5639 1543.9983,-535.3832 1542.7848,-542.2772"/>
</g>
<!-- src/services/api/bill&#45;acceptor&#45;api.js -->
<g id="node69" class="node">
<title>src/services/api/bill&#45;acceptor&#45;api.js</title>
<path fill="none" stroke="#c6c5fe" d="M1736.8333,-428C1736.8333,-428 1515.1667,-428 1515.1667,-428 1511.3333,-428 1507.5,-424.1667 1507.5,-420.3333 1507.5,-420.3333 1507.5,-412.6667 1507.5,-412.6667 1507.5,-408.8333 1511.3333,-405 1515.1667,-405 1515.1667,-405 1736.8333,-405 1736.8333,-405 1740.6667,-405 1744.5,-408.8333 1744.5,-412.6667 1744.5,-412.6667 1744.5,-420.3333 1744.5,-420.3333 1744.5,-424.1667 1740.6667,-428 1736.8333,-428"/>
<text text-anchor="middle" x="1626" y="-412.8" font-family="Arial" font-size="14.00" fill="#c6c5fe">src/services/api/bill&#45;acceptor&#45;api.js</text>
</g>
<!-- src/services/bill&#45;acceptor&#45;service.js&#45;&gt;src/services/api/bill&#45;acceptor&#45;api.js -->
<g id="edge16" class="edge">
<title>src/services/bill&#45;acceptor&#45;service.js&#45;&gt;src/services/api/bill&#45;acceptor&#45;api.js</title>
<path fill="none" stroke="#757575" d="M1452.8538,-416.5C1467.3948,-416.5 1482.2885,-416.5 1496.9408,-416.5"/>
<polygon fill="#757575" stroke="#757575" points="1497.0389,-420.0001 1507.0389,-416.5 1497.0389,-413.0001 1497.0389,-420.0001"/>
</g>
<!-- src/services/service.js -->
<g id="node73" class="node">
<title>src/services/service.js</title>
<path fill="none" stroke="#c6c5fe" d="M1697.3333,-510C1697.3333,-510 1554.6667,-510 1554.6667,-510 1550.8333,-510 1547,-506.1667 1547,-502.3333 1547,-502.3333 1547,-494.6667 1547,-494.6667 1547,-490.8333 1550.8333,-487 1554.6667,-487 1554.6667,-487 1697.3333,-487 1697.3333,-487 1701.1667,-487 1705,-490.8333 1705,-494.6667 1705,-494.6667 1705,-502.3333 1705,-502.3333 1705,-506.1667 1701.1667,-510 1697.3333,-510"/>
<text text-anchor="middle" x="1626" y="-494.8" font-family="Arial" font-size="14.00" fill="#c6c5fe">src/services/service.js</text>
</g>
<!-- src/services/bill&#45;acceptor&#45;service.js&#45;&gt;src/services/service.js -->
<g id="edge17" class="edge">
<title>src/services/bill&#45;acceptor&#45;service.js&#45;&gt;src/services/service.js</title>
<path fill="none" stroke="#757575" d="M1440.7159,-428.1151C1448.1238,-430.6971 1455.298,-433.7933 1462,-437.5 1483.2204,-449.2364 1476.7494,-466.8184 1498,-478.5 1509.8954,-485.039 1523.296,-489.6064 1536.8311,-492.7684"/>
<polygon fill="#757575" stroke="#757575" points="1536.1861,-496.2092 1546.6909,-494.8306 1537.6192,-489.3575 1536.1861,-496.2092"/>
</g>
<!-- src/services/contact&#45;sensor&#45;service.js&#45;&gt;src/database.js -->
<g id="edge18" class="edge">
<title>src/services/contact&#45;sensor&#45;service.js&#45;&gt;src/database.js</title>
<path fill="none" stroke="#757575" d="M1443.0175,-445.9589C1449.6084,-443.5888 1455.9929,-440.793 1462,-437.5 1483.2643,-425.8433 1476.794,-408.2625 1498,-396.5 1516.1943,-386.408 1537.9278,-380.8652 1558.2762,-377.9025"/>
<polygon fill="#757575" stroke="#757575" points="1558.9673,-381.3429 1568.4474,-376.6122 1558.0864,-374.3986 1558.9673,-381.3429"/>
</g>
<!-- src/services/contact&#45;sensor&#45;service.js&#45;&gt;src/daughter&#45;card.js -->
<g id="edge19" class="edge">
<title>src/services/contact&#45;sensor&#45;service.js&#45;&gt;src/daughter&#45;card.js</title>
<path fill="none" stroke="#757575" d="M1440.7159,-469.1151C1448.1238,-471.6971 1455.298,-474.7933 1462,-478.5 1483.2204,-490.2364 1476.7494,-507.8184 1498,-519.5 1511.7432,-527.0548 1527.4956,-531.9778 1543.1433,-535.1424"/>
<polygon fill="#757575" stroke="#757575" points="1542.9282,-538.6595 1553.3887,-536.978 1544.1627,-531.7692 1542.9282,-538.6595"/>
</g>
<!-- src/services/api/contact&#45;sensor&#45;api.js -->
<g id="node71" class="node">
<title>src/services/api/contact&#45;sensor&#45;api.js</title>
<path fill="none" stroke="#c6c5fe" d="M1745.8333,-469C1745.8333,-469 1506.1667,-469 1506.1667,-469 1502.3333,-469 1498.5,-465.1667 1498.5,-461.3333 1498.5,-461.3333 1498.5,-453.6667 1498.5,-453.6667 1498.5,-449.8333 1502.3333,-446 1506.1667,-446 1506.1667,-446 1745.8333,-446 1745.8333,-446 1749.6667,-446 1753.5,-449.8333 1753.5,-453.6667 1753.5,-453.6667 1753.5,-461.3333 1753.5,-461.3333 1753.5,-465.1667 1749.6667,-469 1745.8333,-469"/>
<text text-anchor="middle" x="1626" y="-453.8" font-family="Arial" font-size="14.00" fill="#c6c5fe">src/services/api/contact&#45;sensor&#45;api.js</text>
</g>
<!-- src/services/contact&#45;sensor&#45;service.js&#45;&gt;src/services/api/contact&#45;sensor&#45;api.js -->
<g id="edge20" class="edge">
<title>src/services/contact&#45;sensor&#45;service.js&#45;&gt;src/services/api/contact&#45;sensor&#45;api.js</title>
<path fill="none" stroke="#757575" d="M1461.8085,-457.5C1470.5429,-457.5 1479.3594,-457.5 1488.1323,-457.5"/>
<polygon fill="#757575" stroke="#757575" points="1488.4035,-461.0001 1498.4034,-457.5 1488.4034,-454.0001 1488.4035,-461.0001"/>
</g>
<!-- src/services/contact&#45;sensor&#45;service.js&#45;&gt;src/services/service.js -->
<g id="edge21" class="edge">
<title>src/services/contact&#45;sensor&#45;service.js&#45;&gt;src/services/service.js</title>
<path fill="none" stroke="#757575" d="M1414.6778,-469.0299C1452.7192,-474.335 1497.9194,-480.6384 1536.7346,-486.0514"/>
<polygon fill="#757575" stroke="#757575" points="1536.5902,-489.5651 1546.9778,-487.4799 1537.5571,-482.6322 1536.5902,-489.5651"/>
</g>
<!-- src/services/game&#45;machine&#45;service.js&#45;&gt;src/daughter&#45;card.js -->
<g id="edge22" class="edge">
<title>src/services/game&#45;machine&#45;service.js&#45;&gt;src/daughter&#45;card.js</title>
<path fill="none" stroke="#757575" d="M1462.2366,-539.5C1489.6404,-539.5 1517.8315,-539.5 1542.9336,-539.5"/>
<polygon fill="#757575" stroke="#757575" points="1543.123,-543.0001 1553.123,-539.5 1543.123,-536.0001 1543.123,-543.0001"/>
</g>
<!-- src/services/api/game&#45;machine&#45;api.js -->
<g id="node72" class="node">
<title>src/services/api/game&#45;machine&#45;api.js</title>
<path fill="none" stroke="#c6c5fe" d="M1746.3333,-592C1746.3333,-592 1505.6667,-592 1505.6667,-592 1501.8333,-592 1498,-588.1667 1498,-584.3333 1498,-584.3333 1498,-576.6667 1498,-576.6667 1498,-572.8333 1501.8333,-569 1505.6667,-569 1505.6667,-569 1746.3333,-569 1746.3333,-569 1750.1667,-569 1754,-572.8333 1754,-576.6667 1754,-576.6667 1754,-584.3333 1754,-584.3333 1754,-588.1667 1750.1667,-592 1746.3333,-592"/>
<text text-anchor="middle" x="1626" y="-576.8" font-family="Arial" font-size="14.00" fill="#c6c5fe">src/services/api/game&#45;machine&#45;api.js</text>
</g>
<!-- src/services/game&#45;machine&#45;service.js&#45;&gt;src/services/api/game&#45;machine&#45;api.js -->
<g id="edge23" class="edge">
<title>src/services/game&#45;machine&#45;service.js&#45;&gt;src/services/api/game&#45;machine&#45;api.js</title>
<path fill="none" stroke="#757575" d="M1414.6778,-551.0299C1451.6278,-556.1828 1495.3319,-562.2776 1533.3785,-567.5834"/>
<polygon fill="#757575" stroke="#757575" points="1533.0463,-571.0709 1543.4339,-568.9857 1534.0132,-564.1379 1533.0463,-571.0709"/>
</g>
<!-- src/services/game&#45;machine&#45;service.js&#45;&gt;src/services/service.js -->
<g id="edge24" class="edge">
<title>src/services/game&#45;machine&#45;service.js&#45;&gt;src/services/service.js</title>
<path fill="none" stroke="#757575" d="M1414.6778,-527.9701C1452.7192,-522.665 1497.9194,-516.3616 1536.7346,-510.9486"/>
<polygon fill="#757575" stroke="#757575" points="1537.5571,-514.3678 1546.9778,-509.5201 1536.5902,-507.4349 1537.5571,-514.3678"/>
</g>
<!-- src/views/components/App.js -->
<g id="node75" class="node">
<title>src/views/components/App.js</title>
<path fill="none" stroke="#c6c5fe" d="M1720.8333,-633C1720.8333,-633 1531.1667,-633 1531.1667,-633 1527.3333,-633 1523.5,-629.1667 1523.5,-625.3333 1523.5,-625.3333 1523.5,-617.6667 1523.5,-617.6667 1523.5,-613.8333 1527.3333,-610 1531.1667,-610 1531.1667,-610 1720.8333,-610 1720.8333,-610 1724.6667,-610 1728.5,-613.8333 1728.5,-617.6667 1728.5,-617.6667 1728.5,-625.3333 1728.5,-625.3333 1728.5,-629.1667 1724.6667,-633 1720.8333,-633"/>
<text text-anchor="middle" x="1626" y="-617.8" font-family="Arial" font-size="14.00" fill="#c6c5fe">src/views/components/App.js</text>
</g>
<!-- src/views/gui.js&#45;&gt;src/views/components/App.js -->
<g id="edge42" class="edge">
<title>src/views/gui.js&#45;&gt;src/views/components/App.js</title>
<path fill="none" stroke="#757575" d="M1389.0348,-621.5C1424.2818,-621.5 1470.7415,-621.5 1513.178,-621.5"/>
<polygon fill="#757575" stroke="#757575" points="1513.2989,-625.0001 1523.2989,-621.5 1513.2988,-618.0001 1513.2989,-625.0001"/>
</g>
<!-- src/views/styles/main.css -->
<g id="node88" class="node">
<title>src/views/styles/main.css</title>
<path fill="none" stroke="#cfffac" d="M1707.8333,-674C1707.8333,-674 1544.1667,-674 1544.1667,-674 1540.3333,-674 1536.5,-670.1667 1536.5,-666.3333 1536.5,-666.3333 1536.5,-658.6667 1536.5,-658.6667 1536.5,-654.8333 1540.3333,-651 1544.1667,-651 1544.1667,-651 1707.8333,-651 1707.8333,-651 1711.6667,-651 1715.5,-654.8333 1715.5,-658.6667 1715.5,-658.6667 1715.5,-666.3333 1715.5,-666.3333 1715.5,-670.1667 1711.6667,-674 1707.8333,-674"/>
<text text-anchor="middle" x="1626" y="-658.8" font-family="Arial" font-size="14.00" fill="#cfffac">src/views/styles/main.css</text>
</g>
<!-- src/views/gui.js&#45;&gt;src/views/styles/main.css -->
<g id="edge43" class="edge">
<title>src/views/gui.js&#45;&gt;src/views/styles/main.css</title>
<path fill="none" stroke="#757575" d="M1389.0348,-629.4538C1429.9577,-635.1608 1485.9951,-642.9755 1533.3023,-649.5728"/>
<polygon fill="#757575" stroke="#757575" points="1532.8684,-653.0461 1543.256,-650.9609 1533.8353,-646.1131 1532.8684,-653.0461"/>
</g>
<!-- src/index.js -->
<g id="node20" class="node">
<title>src/index.js</title>
<path fill="none" stroke="#c6c5fe" d="M485.3333,-489C485.3333,-489 411.6667,-489 411.6667,-489 407.8333,-489 404,-485.1667 404,-481.3333 404,-481.3333 404,-473.6667 404,-473.6667 404,-469.8333 407.8333,-466 411.6667,-466 411.6667,-466 485.3333,-466 485.3333,-466 489.1667,-466 493,-469.8333 493,-473.6667 493,-473.6667 493,-481.3333 493,-481.3333 493,-485.1667 489.1667,-489 485.3333,-489"/>
<text text-anchor="middle" x="448.5" y="-473.8" font-family="Arial" font-size="14.00" fill="#c6c5fe">src/index.js</text>
</g>
<!-- src/index.js&#45;&gt;src/database.js -->
<g id="edge8" class="edge">
<title>src/index.js&#45;&gt;src/database.js</title>
<path fill="none" stroke="#757575" d="M493.0962,-477.6611C574.1196,-477.2804 750.6477,-473.3484 897,-448.5 1035.7358,-424.9448 1062.5762,-382.5647 1202,-363.5 1316.4902,-347.8447 1346.5215,-359.2808 1462,-363.5 1493.6452,-364.6562 1528.6566,-367.0633 1558.1761,-369.4203"/>
<polygon fill="#757575" stroke="#757575" points="1558.1231,-372.9275 1568.3739,-370.2498 1558.6906,-365.9505 1558.1231,-372.9275"/>
</g>
<!-- src/index.js&#45;&gt;src/daughter&#45;card.js -->
<g id="edge9" class="edge">
<title>src/index.js&#45;&gt;src/daughter&#45;card.js</title>
<path fill="none" stroke="#757575" d="M493.2538,-477.3248C574.1639,-477.5123 750.0263,-480.2309 897,-498.5 1034.2715,-515.5631 1064.3669,-546.6527 1202,-560.5 1316.9751,-572.0677 1346.6786,-567.8534 1462,-560.5 1488.4275,-558.8149 1517.1056,-555.6171 1542.9802,-552.2158"/>
<polygon fill="#757575" stroke="#757575" points="1543.679,-555.6535 1553.1242,-550.8536 1542.7473,-548.7157 1543.679,-555.6535"/>
</g>
<!-- src/index.js&#45;&gt;src/game&#45;machine.js -->
<g id="edge10" class="edge">
<title>src/index.js&#45;&gt;src/game&#45;machine.js</title>
<path fill="none" stroke="#757575" d="M493.1817,-477.5C592.7046,-477.5 834.037,-477.5 963.7103,-477.5"/>
<polygon fill="#757575" stroke="#757575" points="963.9948,-481.0001 973.9947,-477.5 963.9947,-474.0001 963.9948,-481.0001"/>
</g>
<!-- src/lib/2048&#45;master/js/animframe_polyfill.js -->
<g id="node21" class="node">
<title>src/lib/2048&#45;master/js/animframe_polyfill.js</title>
<path fill="none" stroke="#cfffac" d="M584.8333,-530C584.8333,-530 312.1667,-530 312.1667,-530 308.3333,-530 304.5,-526.1667 304.5,-522.3333 304.5,-522.3333 304.5,-514.6667 304.5,-514.6667 304.5,-510.8333 308.3333,-507 312.1667,-507 312.1667,-507 584.8333,-507 584.8333,-507 588.6667,-507 592.5,-510.8333 592.5,-514.6667 592.5,-514.6667 592.5,-522.3333 592.5,-522.3333 592.5,-526.1667 588.6667,-530 584.8333,-530"/>
<text text-anchor="middle" x="448.5" y="-514.8" font-family="Arial" font-size="14.00" fill="#cfffac">src/lib/2048&#45;master/js/animframe_polyfill.js</text>
</g>
<!-- src/lib/2048&#45;master/js/application.js -->
<g id="node22" class="node">
<title>src/lib/2048&#45;master/js/application.js</title>
<path fill="none" stroke="#cfffac" d="M561.8333,-571C561.8333,-571 335.1667,-571 335.1667,-571 331.3333,-571 327.5,-567.1667 327.5,-563.3333 327.5,-563.3333 327.5,-555.6667 327.5,-555.6667 327.5,-551.8333 331.3333,-548 335.1667,-548 335.1667,-548 561.8333,-548 561.8333,-548 565.6667,-548 569.5,-551.8333 569.5,-555.6667 569.5,-555.6667 569.5,-563.3333 569.5,-563.3333 569.5,-567.1667 565.6667,-571 561.8333,-571"/>
<text text-anchor="middle" x="448.5" y="-555.8" font-family="Arial" font-size="14.00" fill="#cfffac">src/lib/2048&#45;master/js/application.js</text>
</g>
<!-- src/lib/2048&#45;master/js/bind_polyfill.js -->
<g id="node23" class="node">
<title>src/lib/2048&#45;master/js/bind_polyfill.js</title>
<path fill="none" stroke="#cfffac" d="M564.8333,-612C564.8333,-612 332.1667,-612 332.1667,-612 328.3333,-612 324.5,-608.1667 324.5,-604.3333 324.5,-604.3333 324.5,-596.6667 324.5,-596.6667 324.5,-592.8333 328.3333,-589 332.1667,-589 332.1667,-589 564.8333,-589 564.8333,-589 568.6667,-589 572.5,-592.8333 572.5,-596.6667 572.5,-596.6667 572.5,-604.3333 572.5,-604.3333 572.5,-608.1667 568.6667,-612 564.8333,-612"/>
<text text-anchor="middle" x="448.5" y="-596.8" font-family="Arial" font-size="14.00" fill="#cfffac">src/lib/2048&#45;master/js/bind_polyfill.js</text>
</g>
<!-- src/lib/2048&#45;master/js/classlist_polyfill.js -->
<g id="node24" class="node">
<title>src/lib/2048&#45;master/js/classlist_polyfill.js</title>
<path fill="none" stroke="#cfffac" d="M576.3333,-653C576.3333,-653 320.6667,-653 320.6667,-653 316.8333,-653 313,-649.1667 313,-645.3333 313,-645.3333 313,-637.6667 313,-637.6667 313,-633.8333 316.8333,-630 320.6667,-630 320.6667,-630 576.3333,-630 576.3333,-630 580.1667,-630 584,-633.8333 584,-637.6667 584,-637.6667 584,-645.3333 584,-645.3333 584,-649.1667 580.1667,-653 576.3333,-653"/>
<text text-anchor="middle" x="448.5" y="-637.8" font-family="Arial" font-size="14.00" fill="#cfffac">src/lib/2048&#45;master/js/classlist_polyfill.js</text>
</g>
<!-- src/lib/2048&#45;master/js/game_manager.js -->
<g id="node25" class="node">
<title>src/lib/2048&#45;master/js/game_manager.js</title>
<path fill="none" stroke="#cfffac" d="M577.8333,-694C577.8333,-694 319.1667,-694 319.1667,-694 315.3333,-694 311.5,-690.1667 311.5,-686.3333 311.5,-686.3333 311.5,-678.6667 311.5,-678.6667 311.5,-674.8333 315.3333,-671 319.1667,-671 319.1667,-671 577.8333,-671 577.8333,-671 581.6667,-671 585.5,-674.8333 585.5,-678.6667 585.5,-678.6667 585.5,-686.3333 585.5,-686.3333 585.5,-690.1667 581.6667,-694 577.8333,-694"/>
<text text-anchor="middle" x="448.5" y="-678.8" font-family="Arial" font-size="14.00" fill="#cfffac">src/lib/2048&#45;master/js/game_manager.js</text>
</g>
<!-- src/lib/2048&#45;master/js/grid.js -->
<g id="node26" class="node">
<title>src/lib/2048&#45;master/js/grid.js</title>
<path fill="none" stroke="#cfffac" d="M538.8333,-735C538.8333,-735 358.1667,-735 358.1667,-735 354.3333,-735 350.5,-731.1667 350.5,-727.3333 350.5,-727.3333 350.5,-719.6667 350.5,-719.6667 350.5,-715.8333 354.3333,-712 358.1667,-712 358.1667,-712 538.8333,-712 538.8333,-712 542.6667,-712 546.5,-715.8333 546.5,-719.6667 546.5,-719.6667 546.5,-727.3333 546.5,-727.3333 546.5,-731.1667 542.6667,-735 538.8333,-735"/>
<text text-anchor="middle" x="448.5" y="-719.8" font-family="Arial" font-size="14.00" fill="#cfffac">src/lib/2048&#45;master/js/grid.js</text>
</g>
<!-- src/lib/2048&#45;master/js/html_actuator.js -->
<g id="node27" class="node">
<title>src/lib/2048&#45;master/js/html_actuator.js</title>
<path fill="none" stroke="#cfffac" d="M570.3333,-776C570.3333,-776 326.6667,-776 326.6667,-776 322.8333,-776 319,-772.1667 319,-768.3333 319,-768.3333 319,-760.6667 319,-760.6667 319,-756.8333 322.8333,-753 326.6667,-753 326.6667,-753 570.3333,-753 570.3333,-753 574.1667,-753 578,-756.8333 578,-760.6667 578,-760.6667 578,-768.3333 578,-768.3333 578,-772.1667 574.1667,-776 570.3333,-776"/>
<text text-anchor="middle" x="448.5" y="-760.8" font-family="Arial" font-size="14.00" fill="#cfffac">src/lib/2048&#45;master/js/html_actuator.js</text>
</g>
<!-- src/lib/2048&#45;master/js/keyboard_input_manager.js -->
<g id="node28" class="node">
<title>src/lib/2048&#45;master/js/keyboard_input_manager.js</title>
<path fill="none" stroke="#cfffac" d="M609.8333,-817C609.8333,-817 287.1667,-817 287.1667,-817 283.3333,-817 279.5,-813.1667 279.5,-809.3333 279.5,-809.3333 279.5,-801.6667 279.5,-801.6667 279.5,-797.8333 283.3333,-794 287.1667,-794 287.1667,-794 609.8333,-794 609.8333,-794 613.6667,-794 617.5,-797.8333 617.5,-801.6667 617.5,-801.6667 617.5,-809.3333 617.5,-809.3333 617.5,-813.1667 613.6667,-817 609.8333,-817"/>
<text text-anchor="middle" x="448.5" y="-801.8" font-family="Arial" font-size="14.00" fill="#cfffac">src/lib/2048&#45;master/js/keyboard_input_manager.js</text>
</g>
<!-- src/lib/2048&#45;master/js/local_storage_manager.js -->
<g id="node29" class="node">
<title>src/lib/2048&#45;master/js/local_storage_manager.js</title>
<path fill="none" stroke="#cfffac" d="M602.8333,-858C602.8333,-858 294.1667,-858 294.1667,-858 290.3333,-858 286.5,-854.1667 286.5,-850.3333 286.5,-850.3333 286.5,-842.6667 286.5,-842.6667 286.5,-838.8333 290.3333,-835 294.1667,-835 294.1667,-835 602.8333,-835 602.8333,-835 606.6667,-835 610.5,-838.8333 610.5,-842.6667 610.5,-842.6667 610.5,-850.3333 610.5,-850.3333 610.5,-854.1667 606.6667,-858 602.8333,-858"/>
<text text-anchor="middle" x="448.5" y="-842.8" font-family="Arial" font-size="14.00" fill="#cfffac">src/lib/2048&#45;master/js/local_storage_manager.js</text>
</g>
<!-- src/lib/2048&#45;master/js/tile.js -->
<g id="node30" class="node">
<title>src/lib/2048&#45;master/js/tile.js</title>
<path fill="none" stroke="#cfffac" d="M535.8333,-899C535.8333,-899 361.1667,-899 361.1667,-899 357.3333,-899 353.5,-895.1667 353.5,-891.3333 353.5,-891.3333 353.5,-883.6667 353.5,-883.6667 353.5,-879.8333 357.3333,-876 361.1667,-876 361.1667,-876 535.8333,-876 535.8333,-876 539.6667,-876 543.5,-879.8333 543.5,-883.6667 543.5,-883.6667 543.5,-891.3333 543.5,-891.3333 543.5,-895.1667 539.6667,-899 535.8333,-899"/>
<text text-anchor="middle" x="448.5" y="-883.8" font-family="Arial" font-size="14.00" fill="#cfffac">src/lib/2048&#45;master/js/tile.js</text>
</g>
<!-- src/lib/html5&#45;hearts&#45;master/js/Ai.js -->
<g id="node31" class="node">
<title>src/lib/html5&#45;hearts&#45;master/js/Ai.js</title>
<path fill="none" stroke="#cfffac" d="M556.8333,-940C556.8333,-940 340.1667,-940 340.1667,-940 336.3333,-940 332.5,-936.1667 332.5,-932.3333 332.5,-932.3333 332.5,-924.6667 332.5,-924.6667 332.5,-920.8333 336.3333,-917 340.1667,-917 340.1667,-917 556.8333,-917 556.8333,-917 560.6667,-917 564.5,-920.8333 564.5,-924.6667 564.5,-924.6667 564.5,-932.3333 564.5,-932.3333 564.5,-936.1667 560.6667,-940 556.8333,-940"/>
<text text-anchor="middle" x="448.5" y="-924.8" font-family="Arial" font-size="14.00" fill="#cfffac">src/lib/html5&#45;hearts&#45;master/js/Ai.js</text>
</g>
<!-- src/lib/html5&#45;hearts&#45;master/js/AsyncBrain.js -->
<g id="node32" class="node">
<title>src/lib/html5&#45;hearts&#45;master/js/AsyncBrain.js</title>
<path fill="none" stroke="#cfffac" d="M587.3333,-981C587.3333,-981 309.6667,-981 309.6667,-981 305.8333,-981 302,-977.1667 302,-973.3333 302,-973.3333 302,-965.6667 302,-965.6667 302,-961.8333 305.8333,-958 309.6667,-958 309.6667,-958 587.3333,-958 587.3333,-958 591.1667,-958 595,-961.8333 595,-965.6667 595,-965.6667 595,-973.3333 595,-973.3333 595,-977.1667 591.1667,-981 587.3333,-981"/>
<text text-anchor="middle" x="448.5" y="-965.8" font-family="Arial" font-size="14.00" fill="#cfffac">src/lib/html5&#45;hearts&#45;master/js/AsyncBrain.js</text>
</g>
<!-- src/lib/html5&#45;hearts&#45;master/js/Brain.js -->
<g id="node33" class="node">
<title>src/lib/html5&#45;hearts&#45;master/js/Brain.js</title>
<path fill="none" stroke="#cfffac" d="M567.3333,-1022C567.3333,-1022 329.6667,-1022 329.6667,-1022 325.8333,-1022 322,-1018.1667 322,-1014.3333 322,-1014.3333 322,-1006.6667 322,-1006.6667 322,-1002.8333 325.8333,-999 329.6667,-999 329.6667,-999 567.3333,-999 567.3333,-999 571.1667,-999 575,-1002.8333 575,-1006.6667 575,-1006.6667 575,-1014.3333 575,-1014.3333 575,-1018.1667 571.1667,-1022 567.3333,-1022"/>
<text text-anchor="middle" x="448.5" y="-1006.8" font-family="Arial" font-size="14.00" fill="#cfffac">src/lib/html5&#45;hearts&#45;master/js/Brain.js</text>
</g>
<!-- src/lib/html5&#45;hearts&#45;master/js/BrainWorker.js -->
<g id="node34" class="node">
<title>src/lib/html5&#45;hearts&#45;master/js/BrainWorker.js</title>
<path fill="none" stroke="#cfffac" d="M590.3333,-1063C590.3333,-1063 306.6667,-1063 306.6667,-1063 302.8333,-1063 299,-1059.1667 299,-1055.3333 299,-1055.3333 299,-1047.6667 299,-1047.6667 299,-1043.8333 302.8333,-1040 306.6667,-1040 306.6667,-1040 590.3333,-1040 590.3333,-1040 594.1667,-1040 598,-1043.8333 598,-1047.6667 598,-1047.6667 598,-1055.3333 598,-1055.3333 598,-1059.1667 594.1667,-1063 590.3333,-1063"/>
<text text-anchor="middle" x="448.5" y="-1047.8" font-family="Arial" font-size="14.00" fill="#cfffac">src/lib/html5&#45;hearts&#45;master/js/BrainWorker.js</text>
</g>
<!-- src/lib/html5&#45;hearts&#45;master/js/Card.js -->
<g id="node35" class="node">
<title>src/lib/html5&#45;hearts&#45;master/js/Card.js</title>
<path fill="none" stroke="#cfffac" d="M566.3333,-1104C566.3333,-1104 330.6667,-1104 330.6667,-1104 326.8333,-1104 323,-1100.1667 323,-1096.3333 323,-1096.3333 323,-1088.6667 323,-1088.6667 323,-1084.8333 326.8333,-1081 330.6667,-1081 330.6667,-1081 566.3333,-1081 566.3333,-1081 570.1667,-1081 574,-1084.8333 574,-1088.6667 574,-1088.6667 574,-1096.3333 574,-1096.3333 574,-1100.1667 570.1667,-1104 566.3333,-1104"/>
<text text-anchor="middle" x="448.5" y="-1088.8" font-family="Arial" font-size="14.00" fill="#cfffac">src/lib/html5&#45;hearts&#45;master/js/Card.js</text>
</g>
<!-- src/lib/html5&#45;hearts&#45;master/js/Human.js -->
<g id="node36" class="node">
<title>src/lib/html5&#45;hearts&#45;master/js/Human.js</title>
<path fill="none" stroke="#cfffac" d="M573.8333,-1145C573.8333,-1145 323.1667,-1145 323.1667,-1145 319.3333,-1145 315.5,-1141.1667 315.5,-1137.3333 315.5,-1137.3333 315.5,-1129.6667 315.5,-1129.6667 315.5,-1125.8333 319.3333,-1122 323.1667,-1122 323.1667,-1122 573.8333,-1122 573.8333,-1122 577.6667,-1122 581.5,-1125.8333 581.5,-1129.6667 581.5,-1129.6667 581.5,-1137.3333 581.5,-1137.3333 581.5,-1141.1667 577.6667,-1145 573.8333,-1145"/>
<text text-anchor="middle" x="448.5" y="-1129.8" font-family="Arial" font-size="14.00" fill="#cfffac">src/lib/html5&#45;hearts&#45;master/js/Human.js</text>
</g>
<!-- src/lib/html5&#45;hearts&#45;master/js/McBrain.js -->
<g id="node37" class="node">
<title>src/lib/html5&#45;hearts&#45;master/js/McBrain.js</title>
<path fill="none" stroke="#cfffac" d="M576.8333,-1186C576.8333,-1186 320.1667,-1186 320.1667,-1186 316.3333,-1186 312.5,-1182.1667 312.5,-1178.3333 312.5,-1178.3333 312.5,-1170.6667 312.5,-1170.6667 312.5,-1166.8333 316.3333,-1163 320.1667,-1163 320.1667,-1163 576.8333,-1163 576.8333,-1163 580.6667,-1163 584.5,-1166.8333 584.5,-1170.6667 584.5,-1170.6667 584.5,-1178.3333 584.5,-1178.3333 584.5,-1182.1667 580.6667,-1186 576.8333,-1186"/>
<text text-anchor="middle" x="448.5" y="-1170.8" font-family="Arial" font-size="14.00" fill="#cfffac">src/lib/html5&#45;hearts&#45;master/js/McBrain.js</text>
</g>
<!-- src/lib/html5&#45;hearts&#45;master/js/Player.js -->
<g id="node38" class="node">
<title>src/lib/html5&#45;hearts&#45;master/js/Player.js</title>
<path fill="none" stroke="#cfffac" d="M570.8333,-1227C570.8333,-1227 326.1667,-1227 326.1667,-1227 322.3333,-1227 318.5,-1223.1667 318.5,-1219.3333 318.5,-1219.3333 318.5,-1211.6667 318.5,-1211.6667 318.5,-1207.8333 322.3333,-1204 326.1667,-1204 326.1667,-1204 570.8333,-1204 570.8333,-1204 574.6667,-1204 578.5,-1207.8333 578.5,-1211.6667 578.5,-1211.6667 578.5,-1219.3333 578.5,-1219.3333 578.5,-1223.1667 574.6667,-1227 570.8333,-1227"/>
<text text-anchor="middle" x="448.5" y="-1211.8" font-family="Arial" font-size="14.00" fill="#cfffac">src/lib/html5&#45;hearts&#45;master/js/Player.js</text>
</g>
<!-- src/lib/html5&#45;hearts&#45;master/js/PomDPBrain.js -->
<g id="node39" class="node">
<title>src/lib/html5&#45;hearts&#45;master/js/PomDPBrain.js</title>
<path fill="none" stroke="#cfffac" d="M592.3333,-1268C592.3333,-1268 304.6667,-1268 304.6667,-1268 300.8333,-1268 297,-1264.1667 297,-1260.3333 297,-1260.3333 297,-1252.6667 297,-1252.6667 297,-1248.8333 300.8333,-1245 304.6667,-1245 304.6667,-1245 592.3333,-1245 592.3333,-1245 596.1667,-1245 600,-1248.8333 600,-1252.6667 600,-1252.6667 600,-1260.3333 600,-1260.3333 600,-1264.1667 596.1667,-1268 592.3333,-1268"/>
<text text-anchor="middle" x="448.5" y="-1252.8" font-family="Arial" font-size="14.00" fill="#cfffac">src/lib/html5&#45;hearts&#45;master/js/PomDPBrain.js</text>
</g>
<!-- src/lib/html5&#45;hearts&#45;master/js/PomDPSimulator.js -->
<g id="node40" class="node">
<title>src/lib/html5&#45;hearts&#45;master/js/PomDPSimulator.js</title>
<path fill="none" stroke="#cfffac" d="M605.3333,-1309C605.3333,-1309 291.6667,-1309 291.6667,-1309 287.8333,-1309 284,-1305.1667 284,-1301.3333 284,-1301.3333 284,-1293.6667 284,-1293.6667 284,-1289.8333 287.8333,-1286 291.6667,-1286 291.6667,-1286 605.3333,-1286 605.3333,-1286 609.1667,-1286 613,-1289.8333 613,-1293.6667 613,-1293.6667 613,-1301.3333 613,-1301.3333 613,-1305.1667 609.1667,-1309 605.3333,-1309"/>
<text text-anchor="middle" x="448.5" y="-1293.8" font-family="Arial" font-size="14.00" fill="#cfffac">src/lib/html5&#45;hearts&#45;master/js/PomDPSimulator.js</text>
</g>
<!-- src/lib/html5&#45;hearts&#45;master/js/RandomBrain.js -->
<g id="node41" class="node">
<title>src/lib/html5&#45;hearts&#45;master/js/RandomBrain.js</title>
<path fill="none" stroke="#cfffac" d="M594.8333,-1350C594.8333,-1350 302.1667,-1350 302.1667,-1350 298.3333,-1350 294.5,-1346.1667 294.5,-1342.3333 294.5,-1342.3333 294.5,-1334.6667 294.5,-1334.6667 294.5,-1330.8333 298.3333,-1327 302.1667,-1327 302.1667,-1327 594.8333,-1327 594.8333,-1327 598.6667,-1327 602.5,-1330.8333 602.5,-1334.6667 602.5,-1334.6667 602.5,-1342.3333 602.5,-1342.3333 602.5,-1346.1667 598.6667,-1350 594.8333,-1350"/>
<text text-anchor="middle" x="448.5" y="-1334.8" font-family="Arial" font-size="14.00" fill="#cfffac">src/lib/html5&#45;hearts&#45;master/js/RandomBrain.js</text>
</g>
<!-- src/lib/html5&#45;hearts&#45;master/js/Row.js -->
<g id="node42" class="node">
<title>src/lib/html5&#45;hearts&#45;master/js/Row.js</title>
<path fill="none" stroke="#cfffac" d="M564.8333,-1391C564.8333,-1391 332.1667,-1391 332.1667,-1391 328.3333,-1391 324.5,-1387.1667 324.5,-1383.3333 324.5,-1383.3333 324.5,-1375.6667 324.5,-1375.6667 324.5,-1371.8333 328.3333,-1368 332.1667,-1368 332.1667,-1368 564.8333,-1368 564.8333,-1368 568.6667,-1368 572.5,-1371.8333 572.5,-1375.6667 572.5,-1375.6667 572.5,-1383.3333 572.5,-1383.3333 572.5,-1387.1667 568.6667,-1391 564.8333,-1391"/>
<text text-anchor="middle" x="448.5" y="-1375.8" font-family="Arial" font-size="14.00" fill="#cfffac">src/lib/html5&#45;hearts&#45;master/js/Row.js</text>
</g>
<!-- src/lib/html5&#45;hearts&#45;master/js/SimpleBrain.js -->
<g id="node43" class="node">
<title>src/lib/html5&#45;hearts&#45;master/js/SimpleBrain.js</title>
<path fill="none" stroke="#cfffac" d="M589.3333,-1432C589.3333,-1432 307.6667,-1432 307.6667,-1432 303.8333,-1432 300,-1428.1667 300,-1424.3333 300,-1424.3333 300,-1416.6667 300,-1416.6667 300,-1412.8333 303.8333,-1409 307.6667,-1409 307.6667,-1409 589.3333,-1409 589.3333,-1409 593.1667,-1409 597,-1412.8333 597,-1416.6667 597,-1416.6667 597,-1424.3333 597,-1424.3333 597,-1428.1667 593.1667,-1432 589.3333,-1432"/>
<text text-anchor="middle" x="448.5" y="-1416.8" font-family="Arial" font-size="14.00" fill="#cfffac">src/lib/html5&#45;hearts&#45;master/js/SimpleBrain.js</text>
</g>
<!-- src/lib/html5&#45;hearts&#45;master/js/Simulator.js -->
<g id="node44" class="node">
<title>src/lib/html5&#45;hearts&#45;master/js/Simulator.js</title>
<path fill="none" stroke="#cfffac" d="M580.3333,-1473C580.3333,-1473 316.6667,-1473 316.6667,-1473 312.8333,-1473 309,-1469.1667 309,-1465.3333 309,-1465.3333 309,-1457.6667 309,-1457.6667 309,-1453.8333 312.8333,-1450 316.6667,-1450 316.6667,-1450 580.3333,-1450 580.3333,-1450 584.1667,-1450 588,-1453.8333 588,-1457.6667 588,-1457.6667 588,-1465.3333 588,-1465.3333 588,-1469.1667 584.1667,-1473 580.3333,-1473"/>
<text text-anchor="middle" x="448.5" y="-1457.8" font-family="Arial" font-size="14.00" fill="#cfffac">src/lib/html5&#45;hearts&#45;master/js/Simulator.js</text>
</g>
<!-- src/lib/html5&#45;hearts&#45;master/js/Waste.js -->
<g id="node45" class="node">
<title>src/lib/html5&#45;hearts&#45;master/js/Waste.js</title>
<path fill="none" stroke="#cfffac" d="M570.8333,-1514C570.8333,-1514 326.1667,-1514 326.1667,-1514 322.3333,-1514 318.5,-1510.1667 318.5,-1506.3333 318.5,-1506.3333 318.5,-1498.6667 318.5,-1498.6667 318.5,-1494.8333 322.3333,-1491 326.1667,-1491 326.1667,-1491 570.8333,-1491 570.8333,-1491 574.6667,-1491 578.5,-1494.8333 578.5,-1498.6667 578.5,-1498.6667 578.5,-1506.3333 578.5,-1506.3333 578.5,-1510.1667 574.6667,-1514 570.8333,-1514"/>
<text text-anchor="middle" x="448.5" y="-1498.8" font-family="Arial" font-size="14.00" fill="#cfffac">src/lib/html5&#45;hearts&#45;master/js/Waste.js</text>
</g>
<!-- src/lib/html5&#45;hearts&#45;master/js/board.js -->
<g id="node46" class="node">
<title>src/lib/html5&#45;hearts&#45;master/js/board.js</title>
<path fill="none" stroke="#cfffac" d="M569.3333,-1555C569.3333,-1555 327.6667,-1555 327.6667,-1555 323.8333,-1555 320,-1551.1667 320,-1547.3333 320,-1547.3333 320,-1539.6667 320,-1539.6667 320,-1535.8333 323.8333,-1532 327.6667,-1532 327.6667,-1532 569.3333,-1532 569.3333,-1532 573.1667,-1532 577,-1535.8333 577,-1539.6667 577,-1539.6667 577,-1547.3333 577,-1547.3333 577,-1551.1667 573.1667,-1555 569.3333,-1555"/>
<text text-anchor="middle" x="448.5" y="-1539.8" font-family="Arial" font-size="14.00" fill="#cfffac">src/lib/html5&#45;hearts&#45;master/js/board.js</text>
</g>
<!-- src/lib/html5&#45;hearts&#45;master/js/config.js -->
<g id="node47" class="node">
<title>src/lib/html5&#45;hearts&#45;master/js/config.js</title>
<path fill="none" stroke="#cfffac" d="M569.8333,-1596C569.8333,-1596 327.1667,-1596 327.1667,-1596 323.3333,-1596 319.5,-1592.1667 319.5,-1588.3333 319.5,-1588.3333 319.5,-1580.6667 319.5,-1580.6667 319.5,-1576.8333 323.3333,-1573 327.1667,-1573 327.1667,-1573 569.8333,-1573 569.8333,-1573 573.6667,-1573 577.5,-1576.8333 577.5,-1580.6667 577.5,-1580.6667 577.5,-1588.3333 577.5,-1588.3333 577.5,-1592.1667 573.6667,-1596 569.8333,-1596"/>
<text text-anchor="middle" x="448.5" y="-1580.8" font-family="Arial" font-size="14.00" fill="#cfffac">src/lib/html5&#45;hearts&#45;master/js/config.js</text>
</g>
<!-- src/lib/html5&#45;hearts&#45;master/js/domBinding.js -->
<g id="node48" class="node">
<title>src/lib/html5&#45;hearts&#45;master/js/domBinding.js</title>
<path fill="none" stroke="#cfffac" d="M588.8333,-1637C588.8333,-1637 308.1667,-1637 308.1667,-1637 304.3333,-1637 300.5,-1633.1667 300.5,-1629.3333 300.5,-1629.3333 300.5,-1621.6667 300.5,-1621.6667 300.5,-1617.8333 304.3333,-1614 308.1667,-1614 308.1667,-1614 588.8333,-1614 588.8333,-1614 592.6667,-1614 596.5,-1617.8333 596.5,-1621.6667 596.5,-1621.6667 596.5,-1629.3333 596.5,-1629.3333 596.5,-1633.1667 592.6667,-1637 588.8333,-1637"/>
<text text-anchor="middle" x="448.5" y="-1621.8" font-family="Arial" font-size="14.00" fill="#cfffac">src/lib/html5&#45;hearts&#45;master/js/domBinding.js</text>
</g>
<!-- src/lib/html5&#45;hearts&#45;master/js/game.js -->
<g id="node49" class="node">
<title>src/lib/html5&#45;hearts&#45;master/js/game.js</title>
<path fill="none" stroke="#cfffac" d="M568.8333,-1678C568.8333,-1678 328.1667,-1678 328.1667,-1678 324.3333,-1678 320.5,-1674.1667 320.5,-1670.3333 320.5,-1670.3333 320.5,-1662.6667 320.5,-1662.6667 320.5,-1658.8333 324.3333,-1655 328.1667,-1655 328.1667,-1655 568.8333,-1655 568.8333,-1655 572.6667,-1655 576.5,-1658.8333 576.5,-1662.6667 576.5,-1662.6667 576.5,-1670.3333 576.5,-1670.3333 576.5,-1674.1667 572.6667,-1678 568.8333,-1678"/>
<text text-anchor="middle" x="448.5" y="-1662.8" font-family="Arial" font-size="14.00" fill="#cfffac">src/lib/html5&#45;hearts&#45;master/js/game.js</text>
</g>
<!-- src/lib/html5&#45;hearts&#45;master/js/game_old.js -->
<g id="node50" class="node">
<title>src/lib/html5&#45;hearts&#45;master/js/game_old.js</title>
<path fill="none" stroke="#cfffac" d="M582.8333,-1719C582.8333,-1719 314.1667,-1719 314.1667,-1719 310.3333,-1719 306.5,-1715.1667 306.5,-1711.3333 306.5,-1711.3333 306.5,-1703.6667 306.5,-1703.6667 306.5,-1699.8333 310.3333,-1696 314.1667,-1696 314.1667,-1696 582.8333,-1696 582.8333,-1696 586.6667,-1696 590.5,-1699.8333 590.5,-1703.6667 590.5,-1703.6667 590.5,-1711.3333 590.5,-1711.3333 590.5,-1715.1667 586.6667,-1719 582.8333,-1719"/>
<text text-anchor="middle" x="448.5" y="-1703.8" font-family="Arial" font-size="14.00" fill="#cfffac">src/lib/html5&#45;hearts&#45;master/js/game_old.js</text>
</g>
<!-- src/lib/html5&#45;hearts&#45;master/js/layout.js -->
<g id="node51" class="node">
<title>src/lib/html5&#45;hearts&#45;master/js/layout.js</title>
<path fill="none" stroke="#cfffac" d="M569.8333,-1760C569.8333,-1760 327.1667,-1760 327.1667,-1760 323.3333,-1760 319.5,-1756.1667 319.5,-1752.3333 319.5,-1752.3333 319.5,-1744.6667 319.5,-1744.6667 319.5,-1740.8333 323.3333,-1737 327.1667,-1737 327.1667,-1737 569.8333,-1737 569.8333,-1737 573.6667,-1737 577.5,-1740.8333 577.5,-1744.6667 577.5,-1744.6667 577.5,-1752.3333 577.5,-1752.3333 577.5,-1756.1667 573.6667,-1760 569.8333,-1760"/>
<text text-anchor="middle" x="448.5" y="-1744.8" font-family="Arial" font-size="14.00" fill="#cfffac">src/lib/html5&#45;hearts&#45;master/js/layout.js</text>
</g>
<!-- src/lib/html5&#45;hearts&#45;master/js/lib/jquery&#45;2.0.3.min.js -->
<g id="node52" class="node">
<title>src/lib/html5&#45;hearts&#45;master/js/lib/jquery&#45;2.0.3.min.js</title>
<path fill="none" stroke="#cfffac" d="M611.3333,-1801C611.3333,-1801 285.6667,-1801 285.6667,-1801 281.8333,-1801 278,-1797.1667 278,-1793.3333 278,-1793.3333 278,-1785.6667 278,-1785.6667 278,-1781.8333 281.8333,-1778 285.6667,-1778 285.6667,-1778 611.3333,-1778 611.3333,-1778 615.1667,-1778 619,-1781.8333 619,-1785.6667 619,-1785.6667 619,-1793.3333 619,-1793.3333 619,-1797.1667 615.1667,-1801 611.3333,-1801"/>
<text text-anchor="middle" x="448.5" y="-1785.8" font-family="Arial" font-size="14.00" fill="#cfffac">src/lib/html5&#45;hearts&#45;master/js/lib/jquery&#45;2.0.3.min.js</text>
</g>
<!-- src/lib/html5&#45;hearts&#45;master/js/lib/require.js -->
<g id="node53" class="node">
<title>src/lib/html5&#45;hearts&#45;master/js/lib/require.js</title>
<path fill="none" stroke="#cfffac" d="M581.8333,-1842C581.8333,-1842 315.1667,-1842 315.1667,-1842 311.3333,-1842 307.5,-1838.1667 307.5,-1834.3333 307.5,-1834.3333 307.5,-1826.6667 307.5,-1826.6667 307.5,-1822.8333 311.3333,-1819 315.1667,-1819 315.1667,-1819 581.8333,-1819 581.8333,-1819 585.6667,-1819 589.5,-1822.8333 589.5,-1826.6667 589.5,-1826.6667 589.5,-1834.3333 589.5,-1834.3333 589.5,-1838.1667 585.6667,-1842 581.8333,-1842"/>
<text text-anchor="middle" x="448.5" y="-1826.8" font-family="Arial" font-size="14.00" fill="#cfffac">src/lib/html5&#45;hearts&#45;master/js/lib/require.js</text>
</g>
<!-- src/lib/html5&#45;hearts&#45;master/js/main.js -->
<g id="node54" class="node">
<title>src/lib/html5&#45;hearts&#45;master/js/main.js</title>
<path fill="none" stroke="#cfffac" d="M566.3333,-1883C566.3333,-1883 330.6667,-1883 330.6667,-1883 326.8333,-1883 323,-1879.1667 323,-1875.3333 323,-1875.3333 323,-1867.6667 323,-1867.6667 323,-1863.8333 326.8333,-1860 330.6667,-1860 330.6667,-1860 566.3333,-1860 566.3333,-1860 570.1667,-1860 574,-1863.8333 574,-1867.6667 574,-1867.6667 574,-1875.3333 574,-1875.3333 574,-1879.1667 570.1667,-1883 566.3333,-1883"/>
<text text-anchor="middle" x="448.5" y="-1867.8" font-family="Arial" font-size="14.00" fill="#cfffac">src/lib/html5&#45;hearts&#45;master/js/main.js</text>
</g>
<!-- src/lib/html5&#45;hearts&#45;master/js/prematureOptimization.js -->
<g id="node55" class="node">
<title>src/lib/html5&#45;hearts&#45;master/js/prematureOptimization.js</title>
<path fill="none" stroke="#cfffac" d="M623.3333,-1924C623.3333,-1924 273.6667,-1924 273.6667,-1924 269.8333,-1924 266,-1920.1667 266,-1916.3333 266,-1916.3333 266,-1908.6667 266,-1908.6667 266,-1904.8333 269.8333,-1901 273.6667,-1901 273.6667,-1901 623.3333,-1901 623.3333,-1901 627.1667,-1901 631,-1904.8333 631,-1908.6667 631,-1908.6667 631,-1916.3333 631,-1916.3333 631,-1920.1667 627.1667,-1924 623.3333,-1924"/>
<text text-anchor="middle" x="448.5" y="-1908.8" font-family="Arial" font-size="14.00" fill="#cfffac">src/lib/html5&#45;hearts&#45;master/js/prematureOptimization.js</text>
</g>
<!-- src/lib/html5&#45;hearts&#45;master/js/rules.js -->
<g id="node56" class="node">
<title>src/lib/html5&#45;hearts&#45;master/js/rules.js</title>
<path fill="none" stroke="#cfffac" d="M566.3333,-1965C566.3333,-1965 330.6667,-1965 330.6667,-1965 326.8333,-1965 323,-1961.1667 323,-1957.3333 323,-1957.3333 323,-1949.6667 323,-1949.6667 323,-1945.8333 326.8333,-1942 330.6667,-1942 330.6667,-1942 566.3333,-1942 566.3333,-1942 570.1667,-1942 574,-1945.8333 574,-1949.6667 574,-1949.6667 574,-1957.3333 574,-1957.3333 574,-1961.1667 570.1667,-1965 566.3333,-1965"/>
<text text-anchor="middle" x="448.5" y="-1949.8" font-family="Arial" font-size="14.00" fill="#cfffac">src/lib/html5&#45;hearts&#45;master/js/rules.js</text>
</g>
<!-- src/lib/html5&#45;hearts&#45;master/js/test.js -->
<g id="node57" class="node">
<title>src/lib/html5&#45;hearts&#45;master/js/test.js</title>
<path fill="none" stroke="#cfffac" d="M561.8333,-2006C561.8333,-2006 335.1667,-2006 335.1667,-2006 331.3333,-2006 327.5,-2002.1667 327.5,-1998.3333 327.5,-1998.3333 327.5,-1990.6667 327.5,-1990.6667 327.5,-1986.8333 331.3333,-1983 335.1667,-1983 335.1667,-1983 561.8333,-1983 561.8333,-1983 565.6667,-1983 569.5,-1986.8333 569.5,-1990.6667 569.5,-1990.6667 569.5,-1998.3333 569.5,-1998.3333 569.5,-2002.1667 565.6667,-2006 561.8333,-2006"/>
<text text-anchor="middle" x="448.5" y="-1990.8" font-family="Arial" font-size="14.00" fill="#cfffac">src/lib/html5&#45;hearts&#45;master/js/test.js</text>
</g>
<!-- src/lib/html5&#45;hearts&#45;master/js/ui.js -->
<g id="node58" class="node">
<title>src/lib/html5&#45;hearts&#45;master/js/ui.js</title>
<path fill="none" stroke="#cfffac" d="M555.8333,-2047C555.8333,-2047 341.1667,-2047 341.1667,-2047 337.3333,-2047 333.5,-2043.1667 333.5,-2039.3333 333.5,-2039.3333 333.5,-2031.6667 333.5,-2031.6667 333.5,-2027.8333 337.3333,-2024 341.1667,-2024 341.1667,-2024 555.8333,-2024 555.8333,-2024 559.6667,-2024 563.5,-2027.8333 563.5,-2031.6667 563.5,-2031.6667 563.5,-2039.3333 563.5,-2039.3333 563.5,-2043.1667 559.6667,-2047 555.8333,-2047"/>
<text text-anchor="middle" x="448.5" y="-2031.8" font-family="Arial" font-size="14.00" fill="#cfffac">src/lib/html5&#45;hearts&#45;master/js/ui.js</text>
</g>
<!-- src/lib/html5&#45;hearts&#45;master/js/util.js -->
<g id="node59" class="node">
<title>src/lib/html5&#45;hearts&#45;master/js/util.js</title>
<path fill="none" stroke="#cfffac" d="M559.3333,-2088C559.3333,-2088 337.6667,-2088 337.6667,-2088 333.8333,-2088 330,-2084.1667 330,-2080.3333 330,-2080.3333 330,-2072.6667 330,-2072.6667 330,-2068.8333 333.8333,-2065 337.6667,-2065 337.6667,-2065 559.3333,-2065 559.3333,-2065 563.1667,-2065 567,-2068.8333 567,-2072.6667 567,-2072.6667 567,-2080.3333 567,-2080.3333 567,-2084.1667 563.1667,-2088 559.3333,-2088"/>
<text text-anchor="middle" x="448.5" y="-2072.8" font-family="Arial" font-size="14.00" fill="#cfffac">src/lib/html5&#45;hearts&#45;master/js/util.js</text>
</g>
<!-- src/lib/jsmpeg&#45;ffmpeg&#45;source.js -->
<g id="node60" class="node">
<title>src/lib/jsmpeg&#45;ffmpeg&#45;source.js</title>
<path fill="none" stroke="#cfffac" d="M2367.3333,-428C2367.3333,-428 2165.6667,-428 2165.6667,-428 2161.8333,-428 2158,-424.1667 2158,-420.3333 2158,-420.3333 2158,-412.6667 2158,-412.6667 2158,-408.8333 2161.8333,-405 2165.6667,-405 2165.6667,-405 2367.3333,-405 2367.3333,-405 2371.1667,-405 2375,-408.8333 2375,-412.6667 2375,-412.6667 2375,-420.3333 2375,-420.3333 2375,-424.1667 2371.1667,-428 2367.3333,-428"/>
<text text-anchor="middle" x="2266.5" y="-412.8" font-family="Arial" font-size="14.00" fill="#cfffac">src/lib/jsmpeg&#45;ffmpeg&#45;source.js</text>
</g>
<!-- src/lib/jsmpeg/jsmpeg.min.js -->
<g id="node61" class="node">
<title>src/lib/jsmpeg/jsmpeg.min.js</title>
<path fill="none" stroke="#cfffac" d="M2357.3333,-387C2357.3333,-387 2175.6667,-387 2175.6667,-387 2171.8333,-387 2168,-383.1667 2168,-379.3333 2168,-379.3333 2168,-371.6667 2168,-371.6667 2168,-367.8333 2171.8333,-364 2175.6667,-364 2175.6667,-364 2357.3333,-364 2357.3333,-364 2361.1667,-364 2365,-367.8333 2365,-371.6667 2365,-371.6667 2365,-379.3333 2365,-379.3333 2365,-383.1667 2361.1667,-387 2357.3333,-387"/>
<text text-anchor="middle" x="2266.5" y="-371.8" font-family="Arial" font-size="14.00" fill="#cfffac">src/lib/jsmpeg/jsmpeg.min.js</text>
</g>
<!-- src/lib/pacman&#45;canvas/js/jquery&#45;1.10.2.min.js -->
<g id="node62" class="node">
<title>src/lib/pacman&#45;canvas/js/jquery&#45;1.10.2.min.js</title>
<path fill="none" stroke="#cfffac" d="M593.8333,-2129C593.8333,-2129 303.1667,-2129 303.1667,-2129 299.3333,-2129 295.5,-2125.1667 295.5,-2121.3333 295.5,-2121.3333 295.5,-2113.6667 295.5,-2113.6667 295.5,-2109.8333 299.3333,-2106 303.1667,-2106 303.1667,-2106 593.8333,-2106 593.8333,-2106 597.6667,-2106 601.5,-2109.8333 601.5,-2113.6667 601.5,-2113.6667 601.5,-2121.3333 601.5,-2121.3333 601.5,-2125.1667 597.6667,-2129 593.8333,-2129"/>
<text text-anchor="middle" x="448.5" y="-2113.8" font-family="Arial" font-size="14.00" fill="#cfffac">src/lib/pacman&#45;canvas/js/jquery&#45;1.10.2.min.js</text>
</g>
<!-- src/lib/pacman&#45;canvas/js/jquery.hammer.min.js -->
<g id="node63" class="node">
<title>src/lib/pacman&#45;canvas/js/jquery.hammer.min.js</title>
<path fill="none" stroke="#cfffac" d="M599.3333,-2170C599.3333,-2170 297.6667,-2170 297.6667,-2170 293.8333,-2170 290,-2166.1667 290,-2162.3333 290,-2162.3333 290,-2154.6667 290,-2154.6667 290,-2150.8333 293.8333,-2147 297.6667,-2147 297.6667,-2147 599.3333,-2147 599.3333,-2147 603.1667,-2147 607,-2150.8333 607,-2154.6667 607,-2154.6667 607,-2162.3333 607,-2162.3333 607,-2166.1667 603.1667,-2170 599.3333,-2170"/>
<text text-anchor="middle" x="448.5" y="-2154.8" font-family="Arial" font-size="14.00" fill="#cfffac">src/lib/pacman&#45;canvas/js/jquery.hammer.min.js</text>
</g>
<!-- src/lib/pacman&#45;canvas/js/pacman/ghost.js -->
<g id="node64" class="node">
<title>src/lib/pacman&#45;canvas/js/pacman/ghost.js</title>
<path fill="none" stroke="#cfffac" d="M584.3333,-2211C584.3333,-2211 312.6667,-2211 312.6667,-2211 308.8333,-2211 305,-2207.1667 305,-2203.3333 305,-2203.3333 305,-2195.6667 305,-2195.6667 305,-2191.8333 308.8333,-2188 312.6667,-2188 312.6667,-2188 584.3333,-2188 584.3333,-2188 588.1667,-2188 592,-2191.8333 592,-2195.6667 592,-2195.6667 592,-2203.3333 592,-2203.3333 592,-2207.1667 588.1667,-2211 584.3333,-2211"/>
<text text-anchor="middle" x="448.5" y="-2195.8" font-family="Arial" font-size="14.00" fill="#cfffac">src/lib/pacman&#45;canvas/js/pacman/ghost.js</text>
</g>
<!-- src/lib/pacman&#45;canvas/js/pacman/pacman.js -->
<g id="node65" class="node">
<title>src/lib/pacman&#45;canvas/js/pacman/pacman.js</title>
<path fill="none" stroke="#cfffac" d="M592.3333,-2252C592.3333,-2252 304.6667,-2252 304.6667,-2252 300.8333,-2252 297,-2248.1667 297,-2244.3333 297,-2244.3333 297,-2236.6667 297,-2236.6667 297,-2232.8333 300.8333,-2229 304.6667,-2229 304.6667,-2229 592.3333,-2229 592.3333,-2229 596.1667,-2229 600,-2232.8333 600,-2236.6667 600,-2236.6667 600,-2244.3333 600,-2244.3333 600,-2248.1667 596.1667,-2252 592.3333,-2252"/>
<text text-anchor="middle" x="448.5" y="-2236.8" font-family="Arial" font-size="14.00" fill="#cfffac">src/lib/pacman&#45;canvas/js/pacman/pacman.js</text>
</g>
<!-- src/lib/pacman&#45;canvas/js/virtualjoystick.js -->
<g id="node66" class="node">
<title>src/lib/pacman&#45;canvas/js/virtualjoystick.js</title>
<path fill="none" stroke="#cfffac" d="M581.3333,-2293C581.3333,-2293 315.6667,-2293 315.6667,-2293 311.8333,-2293 308,-2289.1667 308,-2285.3333 308,-2285.3333 308,-2277.6667 308,-2277.6667 308,-2273.8333 311.8333,-2270 315.6667,-2270 315.6667,-2270 581.3333,-2270 581.3333,-2270 585.1667,-2270 589,-2273.8333 589,-2277.6667 589,-2277.6667 589,-2285.3333 589,-2285.3333 589,-2289.1667 585.1667,-2293 581.3333,-2293"/>
<text text-anchor="middle" x="448.5" y="-2277.8" font-family="Arial" font-size="14.00" fill="#cfffac">src/lib/pacman&#45;canvas/js/virtualjoystick.js</text>
</g>
<!-- src/lib/pacman&#45;canvas/pacman&#45;canvas.js -->
<g id="node67" class="node">
<title>src/lib/pacman&#45;canvas/pacman&#45;canvas.js</title>
<path fill="none" stroke="#cfffac" d="M582.8333,-2334C582.8333,-2334 314.1667,-2334 314.1667,-2334 310.3333,-2334 306.5,-2330.1667 306.5,-2326.3333 306.5,-2326.3333 306.5,-2318.6667 306.5,-2318.6667 306.5,-2314.8333 310.3333,-2311 314.1667,-2311 314.1667,-2311 582.8333,-2311 582.8333,-2311 586.6667,-2311 590.5,-2314.8333 590.5,-2318.6667 590.5,-2318.6667 590.5,-2326.3333 590.5,-2326.3333 590.5,-2330.1667 586.6667,-2334 582.8333,-2334"/>
<text text-anchor="middle" x="448.5" y="-2318.8" font-family="Arial" font-size="14.00" fill="#cfffac">src/lib/pacman&#45;canvas/pacman&#45;canvas.js</text>
</g>
<!-- src/microtouch&#45;emulator.js -->
<g id="node68" class="node">
<title>src/microtouch&#45;emulator.js</title>
<path fill="none" stroke="#cfffac" d="M2351.3333,-551C2351.3333,-551 2181.6667,-551 2181.6667,-551 2177.8333,-551 2174,-547.1667 2174,-543.3333 2174,-543.3333 2174,-535.6667 2174,-535.6667 2174,-531.8333 2177.8333,-528 2181.6667,-528 2181.6667,-528 2351.3333,-528 2351.3333,-528 2355.1667,-528 2359,-531.8333 2359,-535.6667 2359,-535.6667 2359,-543.3333 2359,-543.3333 2359,-547.1667 2355.1667,-551 2351.3333,-551"/>
<text text-anchor="middle" x="2266.5" y="-535.8" font-family="Arial" font-size="14.00" fill="#cfffac">src/microtouch&#45;emulator.js</text>
</g>
<!-- src/services/api/service&#45;api.js -->
<g id="node70" class="node">
<title>src/services/api/service&#45;api.js</title>
<path fill="none" stroke="#cfffac" d="M2021.3333,-469C2021.3333,-469 1830.6667,-469 1830.6667,-469 1826.8333,-469 1823,-465.1667 1823,-461.3333 1823,-461.3333 1823,-453.6667 1823,-453.6667 1823,-449.8333 1826.8333,-446 1830.6667,-446 1830.6667,-446 2021.3333,-446 2021.3333,-446 2025.1667,-446 2029,-449.8333 2029,-453.6667 2029,-453.6667 2029,-461.3333 2029,-461.3333 2029,-465.1667 2025.1667,-469 2021.3333,-469"/>
<text text-anchor="middle" x="1926" y="-453.8" font-family="Arial" font-size="14.00" fill="#cfffac">src/services/api/service&#45;api.js</text>
</g>
<!-- src/services/api/bill&#45;acceptor&#45;api.js&#45;&gt;src/services/api/service&#45;api.js -->
<g id="edge11" class="edge">
<title>src/services/api/bill&#45;acceptor&#45;api.js&#45;&gt;src/services/api/service&#45;api.js</title>
<path fill="none" stroke="#757575" d="M1710.3651,-428.0299C1748.0692,-433.1828 1792.6652,-439.2776 1831.4883,-444.5834"/>
<polygon fill="#757575" stroke="#757575" points="1831.367,-448.0993 1841.7489,-445.9857 1832.3149,-441.1638 1831.367,-448.0993"/>
</g>
<!-- src/services/api/contact&#45;sensor&#45;api.js&#45;&gt;src/services/api/service&#45;api.js -->
<g id="edge12" class="edge">
<title>src/services/api/contact&#45;sensor&#45;api.js&#45;&gt;src/services/api/service&#45;api.js</title>
<path fill="none" stroke="#757575" d="M1753.662,-457.5C1773.3537,-457.5 1793.5708,-457.5 1812.9146,-457.5"/>
<polygon fill="#757575" stroke="#757575" points="1812.9432,-461.0001 1822.9431,-457.5 1812.9431,-454.0001 1812.9432,-461.0001"/>
</g>
<!-- src/services/api/game&#45;machine&#45;api.js&#45;&gt;src/services/api/service&#45;api.js -->
<g id="edge13" class="edge">
<title>src/services/api/game&#45;machine&#45;api.js&#45;&gt;src/services/api/service&#45;api.js</title>
<path fill="none" stroke="#757575" d="M1740.5982,-568.9529C1745.3137,-566.5249 1749.8117,-563.7242 1754,-560.5 1785.5394,-536.2211 1758.4389,-502.7506 1790,-478.5 1797.0886,-473.0533 1805.0105,-468.7502 1813.3707,-465.3728"/>
<polygon fill="#757575" stroke="#757575" points="1814.7355,-468.6019 1822.9747,-461.9412 1812.3801,-462.01 1814.7355,-468.6019"/>
</g>
<!-- src/services/service.js&#45;&gt;src/services/api/service&#45;api.js -->
<g id="edge25" class="edge">
<title>src/services/service.js&#45;&gt;src/services/api/service&#45;api.js</title>
<path fill="none" stroke="#757575" d="M1705.2139,-487.6741C1744.0242,-482.37 1791.0376,-475.9449 1831.6905,-470.389"/>
<polygon fill="#757575" stroke="#757575" points="1832.1744,-473.8555 1841.6084,-469.0335 1831.2265,-466.9199 1832.1744,-473.8555"/>
</g>
<!-- src/views/components/App.css -->
<g id="node74" class="node">
<title>src/views/components/App.css</title>
<path fill="none" stroke="#cfffac" d="M2026.8333,-674C2026.8333,-674 1825.1667,-674 1825.1667,-674 1821.3333,-674 1817.5,-670.1667 1817.5,-666.3333 1817.5,-666.3333 1817.5,-658.6667 1817.5,-658.6667 1817.5,-654.8333 1821.3333,-651 1825.1667,-651 1825.1667,-651 2026.8333,-651 2026.8333,-651 2030.6667,-651 2034.5,-654.8333 2034.5,-658.6667 2034.5,-658.6667 2034.5,-666.3333 2034.5,-666.3333 2034.5,-670.1667 2030.6667,-674 2026.8333,-674"/>
<text text-anchor="middle" x="1926" y="-658.8" font-family="Arial" font-size="14.00" fill="#cfffac">src/views/components/App.css</text>
</g>
<!-- src/views/components/App.js&#45;&gt;src/views/components/App.css -->
<g id="edge26" class="edge">
<title>src/views/components/App.js&#45;&gt;src/views/components/App.css</title>
<path fill="none" stroke="#757575" d="M1710.3651,-633.0299C1748.0692,-638.1828 1792.6652,-644.2776 1831.4883,-649.5834"/>
<polygon fill="#757575" stroke="#757575" points="1831.367,-653.0993 1841.7489,-650.9857 1832.3149,-646.1638 1831.367,-653.0993"/>
</g>
<!-- src/views/components/ArcadeGames.js -->
<g id="node76" class="node">
<title>src/views/components/ArcadeGames.js</title>
<path fill="none" stroke="#c6c5fe" d="M2054.3333,-633C2054.3333,-633 1797.6667,-633 1797.6667,-633 1793.8333,-633 1790,-629.1667 1790,-625.3333 1790,-625.3333 1790,-617.6667 1790,-617.6667 1790,-613.8333 1793.8333,-610 1797.6667,-610 1797.6667,-610 2054.3333,-610 2054.3333,-610 2058.1667,-610 2062,-613.8333 2062,-617.6667 2062,-617.6667 2062,-625.3333 2062,-625.3333 2062,-629.1667 2058.1667,-633 2054.3333,-633"/>
<text text-anchor="middle" x="1926" y="-617.8" font-family="Arial" font-size="14.00" fill="#c6c5fe">src/views/components/ArcadeGames.js</text>
</g>
<!-- src/views/components/App.js&#45;&gt;src/views/components/ArcadeGames.js -->
<g id="edge27" class="edge">
<title>src/views/components/App.js&#45;&gt;src/views/components/ArcadeGames.js</title>
<path fill="none" stroke="#757575" d="M1728.8233,-621.5C1745.2708,-621.5 1762.5609,-621.5 1779.7844,-621.5"/>
<polygon fill="#757575" stroke="#757575" points="1779.9108,-625.0001 1789.9108,-621.5 1779.9108,-618.0001 1779.9108,-625.0001"/>
</g>
<!-- src/views/components/GameBoard.js -->
<g id="node77" class="node">
<title>src/views/components/GameBoard.js</title>
<path fill="none" stroke="#c6c5fe" d="M2046.8333,-510C2046.8333,-510 1805.1667,-510 1805.1667,-510 1801.3333,-510 1797.5,-506.1667 1797.5,-502.3333 1797.5,-502.3333 1797.5,-494.6667 1797.5,-494.6667 1797.5,-490.8333 1801.3333,-487 1805.1667,-487 1805.1667,-487 2046.8333,-487 2046.8333,-487 2050.6667,-487 2054.5,-490.8333 2054.5,-494.6667 2054.5,-494.6667 2054.5,-502.3333 2054.5,-502.3333 2054.5,-506.1667 2050.6667,-510 2046.8333,-510"/>
<text text-anchor="middle" x="1926" y="-494.8" font-family="Arial" font-size="14.00" fill="#c6c5fe">src/views/components/GameBoard.js</text>
</g>
<!-- src/views/components/App.js&#45;&gt;src/views/components/GameBoard.js -->
<g id="edge28" class="edge">
<title>src/views/components/App.js&#45;&gt;src/views/components/GameBoard.js</title>
<path fill="none" stroke="#757575" d="M1724.8109,-609.9989C1734.8063,-607.6693 1744.6944,-604.8682 1754,-601.5 1811.4377,-580.7104 1870.9586,-540.0179 1902.7121,-516.4819"/>
<polygon fill="#757575" stroke="#757575" points="1905.0115,-519.1322 1910.9071,-510.3292 1900.8087,-513.5343 1905.0115,-519.1322"/>
</g>
<!-- src/views/components/ArcadeGames.css -->
<g id="node78" class="node">
<title>src/views/components/ArcadeGames.css</title>
<path fill="none" stroke="#cfffac" d="M2400.8333,-633C2400.8333,-633 2132.1667,-633 2132.1667,-633 2128.3333,-633 2124.5,-629.1667 2124.5,-625.3333 2124.5,-625.3333 2124.5,-617.6667 2124.5,-617.6667 2124.5,-613.8333 2128.3333,-610 2132.1667,-610 2132.1667,-610 2400.8333,-610 2400.8333,-610 2404.6667,-610 2408.5,-613.8333 2408.5,-617.6667 2408.5,-617.6667 2408.5,-625.3333 2408.5,-625.3333 2408.5,-629.1667 2404.6667,-633 2400.8333,-633"/>
<text text-anchor="middle" x="2266.5" y="-617.8" font-family="Arial" font-size="14.00" fill="#cfffac">src/views/components/ArcadeGames.css</text>
</g>
<!-- src/views/components/ArcadeGames.js&#45;&gt;src/views/components/ArcadeGames.css -->
<g id="edge29" class="edge">
<title>src/views/components/ArcadeGames.js&#45;&gt;src/views/components/ArcadeGames.css</title>
<path fill="none" stroke="#757575" d="M2062.0426,-621.5C2079.1533,-621.5 2096.7449,-621.5 2114.0869,-621.5"/>
<polygon fill="#757575" stroke="#757575" points="2114.2633,-625.0001 2124.2632,-621.5 2114.2632,-618.0001 2114.2633,-625.0001"/>
</g>
<!-- src/views/components/Game2048.js -->
<g id="node79" class="node">
<title>src/views/components/Game2048.js</title>
<path fill="none" stroke="#c6c5fe" d="M2384.3333,-592C2384.3333,-592 2148.6667,-592 2148.6667,-592 2144.8333,-592 2141,-588.1667 2141,-584.3333 2141,-584.3333 2141,-576.6667 2141,-576.6667 2141,-572.8333 2144.8333,-569 2148.6667,-569 2148.6667,-569 2384.3333,-569 2384.3333,-569 2388.1667,-569 2392,-572.8333 2392,-576.6667 2392,-576.6667 2392,-584.3333 2392,-584.3333 2392,-588.1667 2388.1667,-592 2384.3333,-592"/>
<text text-anchor="middle" x="2266.5" y="-576.8" font-family="Arial" font-size="14.00" fill="#c6c5fe">src/views/components/Game2048.js</text>
</g>
<!-- src/views/components/ArcadeGames.js&#45;&gt;src/views/components/Game2048.js -->
<g id="edge30" class="edge">
<title>src/views/components/ArcadeGames.js&#45;&gt;src/views/components/Game2048.js</title>
<path fill="none" stroke="#757575" d="M2021.7544,-609.9701C2065.0949,-604.7514 2116.4586,-598.5667 2160.9136,-593.2138"/>
<polygon fill="#757575" stroke="#757575" points="2161.3651,-596.6848 2170.875,-592.0143 2160.5282,-589.735 2161.3651,-596.6848"/>
</g>
<!-- src/views/components/Hearts.js -->
<g id="node80" class="node">
<title>src/views/components/Hearts.js</title>
<path fill="none" stroke="#c6c5fe" d="M2369.3333,-715C2369.3333,-715 2163.6667,-715 2163.6667,-715 2159.8333,-715 2156,-711.1667 2156,-707.3333 2156,-707.3333 2156,-699.6667 2156,-699.6667 2156,-695.8333 2159.8333,-692 2163.6667,-692 2163.6667,-692 2369.3333,-692 2369.3333,-692 2373.1667,-692 2377,-695.8333 2377,-699.6667 2377,-699.6667 2377,-707.3333 2377,-707.3333 2377,-711.1667 2373.1667,-715 2369.3333,-715"/>
<text text-anchor="middle" x="2266.5" y="-699.8" font-family="Arial" font-size="14.00" fill="#c6c5fe">src/views/components/Hearts.js</text>
</g>
<!-- src/views/components/ArcadeGames.js&#45;&gt;src/views/components/Hearts.js -->
<g id="edge31" class="edge">
<title>src/views/components/ArcadeGames.js&#45;&gt;src/views/components/Hearts.js</title>
<path fill="none" stroke="#757575" d="M2040.4143,-633.0317C2047.9213,-635.6412 2055.1924,-638.7657 2062,-642.5 2083.2611,-654.1626 2076.5377,-672.2119 2098,-683.5 2112.7117,-691.2376 2129.1241,-696.5359 2145.7728,-700.0943"/>
<polygon fill="#757575" stroke="#757575" points="2145.1088,-703.5307 2155.5916,-701.9937 2146.4383,-696.6581 2145.1088,-703.5307"/>
</g>
<!-- src/views/components/Pacman.js -->
<g id="node81" class="node">
<title>src/views/components/Pacman.js</title>
<path fill="none" stroke="#c6c5fe" d="M2375.3333,-674C2375.3333,-674 2157.6667,-674 2157.6667,-674 2153.8333,-674 2150,-670.1667 2150,-666.3333 2150,-666.3333 2150,-658.6667 2150,-658.6667 2150,-654.8333 2153.8333,-651 2157.6667,-651 2157.6667,-651 2375.3333,-651 2375.3333,-651 2379.1667,-651 2383,-654.8333 2383,-658.6667 2383,-658.6667 2383,-666.3333 2383,-666.3333 2383,-670.1667 2379.1667,-674 2375.3333,-674"/>
<text text-anchor="middle" x="2266.5" y="-658.8" font-family="Arial" font-size="14.00" fill="#c6c5fe">src/views/components/Pacman.js</text>
</g>
<!-- src/views/components/ArcadeGames.js&#45;&gt;src/views/components/Pacman.js -->
<g id="edge32" class="edge">
<title>src/views/components/ArcadeGames.js&#45;&gt;src/views/components/Pacman.js</title>
<path fill="none" stroke="#757575" d="M2019.7239,-633.0008C2045.1223,-636.1017 2072.6129,-639.4436 2098,-642.5 2117.641,-644.8646 2138.5724,-647.365 2158.7657,-649.767"/>
<polygon fill="#757575" stroke="#757575" points="2158.5844,-653.27 2168.9277,-650.975 2159.4107,-646.319 2158.5844,-653.27"/>
</g>
<!-- src/views/components/GameBoard.js&#45;&gt;src/lib/jsmpeg&#45;ffmpeg&#45;source.js -->
<g id="edge35" class="edge">
<title>src/views/components/GameBoard.js&#45;&gt;src/lib/jsmpeg&#45;ffmpeg&#45;source.js</title>
<path fill="none" stroke="#757575" d="M2043.1625,-486.8876C2049.6948,-484.5236 2056.025,-481.7496 2062,-478.5 2083.3029,-466.9139 2076.5708,-448.8508 2098,-437.5 2113.2438,-429.4255 2130.3226,-423.9451 2147.6009,-420.2947"/>
<polygon fill="#757575" stroke="#757575" points="2148.6183,-423.6638 2157.7849,-418.3512 2147.306,-416.7879 2148.6183,-423.6638"/>
</g>
<!-- src/views/components/GameBoard.js&#45;&gt;src/lib/jsmpeg/jsmpeg.min.js -->
<g id="edge36" class="edge">
<title>src/views/components/GameBoard.js&#45;&gt;src/lib/jsmpeg/jsmpeg.min.js</title>
<path fill="none" stroke="#757575" d="M2048.6954,-486.8984C2053.3637,-484.4683 2057.8253,-481.6839 2062,-478.5 2093.6481,-454.363 2066.088,-420.2871 2098,-396.5 2115.2418,-383.648 2136.3391,-376.4153 2157.6947,-372.6429"/>
<polygon fill="#757575" stroke="#757575" points="2158.4845,-376.0632 2167.8462,-371.1024 2157.4342,-369.1424 2158.4845,-376.0632"/>
</g>
<!-- src/views/components/GameBoard.js&#45;&gt;src/microtouch&#45;emulator.js -->
<g id="edge37" class="edge">
<title>src/views/components/GameBoard.js&#45;&gt;src/microtouch&#45;emulator.js</title>
<path fill="none" stroke="#757575" d="M2019.7239,-510.0008C2045.1223,-513.1017 2072.6129,-516.4436 2098,-519.5 2119.2091,-522.0534 2141.9228,-524.765 2163.587,-527.3403"/>
<polygon fill="#757575" stroke="#757575" points="2163.4477,-530.8483 2173.7908,-528.5525 2164.2735,-523.8972 2163.4477,-530.8483"/>
</g>
<!-- src/views/components/ClickCoordinateReporter.js -->
<g id="node83" class="node">
<title>src/views/components/ClickCoordinateReporter.js</title>
<path fill="none" stroke="#c6c5fe" d="M2427.3333,-510C2427.3333,-510 2105.6667,-510 2105.6667,-510 2101.8333,-510 2098,-506.1667 2098,-502.3333 2098,-502.3333 2098,-494.6667 2098,-494.6667 2098,-490.8333 2101.8333,-487 2105.6667,-487 2105.6667,-487 2427.3333,-487 2427.3333,-487 2431.1667,-487 2435,-490.8333 2435,-494.6667 2435,-494.6667 2435,-502.3333 2435,-502.3333 2435,-506.1667 2431.1667,-510 2427.3333,-510"/>
<text text-anchor="middle" x="2266.5" y="-494.8" font-family="Arial" font-size="14.00" fill="#c6c5fe">src/views/components/ClickCoordinateReporter.js</text>
</g>
<!-- src/views/components/GameBoard.js&#45;&gt;src/views/components/ClickCoordinateReporter.js -->
<g id="edge38" class="edge">
<title>src/views/components/GameBoard.js&#45;&gt;src/views/components/ClickCoordinateReporter.js</title>
<path fill="none" stroke="#757575" d="M2054.7285,-498.5C2065.5426,-498.5 2076.5947,-498.5 2087.6955,-498.5"/>
<polygon fill="#757575" stroke="#757575" points="2087.8983,-502.0001 2097.8983,-498.5 2087.8983,-495.0001 2087.8983,-502.0001"/>
</g>
<!-- src/views/components/GameBoard.css -->
<g id="node85" class="node">
<title>src/views/components/GameBoard.css</title>
<path fill="none" stroke="#cfffac" d="M2393.3333,-469C2393.3333,-469 2139.6667,-469 2139.6667,-469 2135.8333,-469 2132,-465.1667 2132,-461.3333 2132,-461.3333 2132,-453.6667 2132,-453.6667 2132,-449.8333 2135.8333,-446 2139.6667,-446 2139.6667,-446 2393.3333,-446 2393.3333,-446 2397.1667,-446 2401,-449.8333 2401,-453.6667 2401,-453.6667 2401,-461.3333 2401,-461.3333 2401,-465.1667 2397.1667,-469 2393.3333,-469"/>
<text text-anchor="middle" x="2266.5" y="-453.8" font-family="Arial" font-size="14.00" fill="#cfffac">src/views/components/GameBoard.css</text>
</g>
<!-- src/views/components/GameBoard.js&#45;&gt;src/views/components/GameBoard.css -->
<g id="edge39" class="edge">
<title>src/views/components/GameBoard.js&#45;&gt;src/views/components/GameBoard.css</title>
<path fill="none" stroke="#757575" d="M2021.7544,-486.9701C2065.0949,-481.7514 2116.4586,-475.5667 2160.9136,-470.2138"/>
<polygon fill="#757575" stroke="#757575" points="2161.3651,-473.6848 2170.875,-469.0143 2160.5282,-466.735 2161.3651,-473.6848"/>
</g>
<!-- src/views/components/Game2048.css -->
<g id="node84" class="node">
<title>src/views/components/Game2048.css</title>
<path fill="none" stroke="#cfffac" d="M2769.3333,-592C2769.3333,-592 2521.6667,-592 2521.6667,-592 2517.8333,-592 2514,-588.1667 2514,-584.3333 2514,-584.3333 2514,-576.6667 2514,-576.6667 2514,-572.8333 2517.8333,-569 2521.6667,-569 2521.6667,-569 2769.3333,-569 2769.3333,-569 2773.1667,-569 2777,-572.8333 2777,-576.6667 2777,-576.6667 2777,-584.3333 2777,-584.3333 2777,-588.1667 2773.1667,-592 2769.3333,-592"/>
<text text-anchor="middle" x="2645.5" y="-576.8" font-family="Arial" font-size="14.00" fill="#cfffac">src/views/components/Game2048.css</text>
</g>
<!-- src/views/components/Game2048.js&#45;&gt;src/views/components/Game2048.css -->
<g id="edge34" class="edge">
<title>src/views/components/Game2048.js&#45;&gt;src/views/components/Game2048.css</title>
<path fill="none" stroke="#757575" d="M2392.1751,-580.5C2427.923,-580.5 2467.1018,-580.5 2503.7349,-580.5"/>
<polygon fill="#757575" stroke="#757575" points="2503.9949,-584.0001 2513.9949,-580.5 2503.9948,-577.0001 2503.9949,-584.0001"/>
</g>
<!-- src/views/components/Hearts.css -->
<g id="node86" class="node">
<title>src/views/components/Hearts.css</title>
<path fill="none" stroke="#cfffac" d="M2754.3333,-715C2754.3333,-715 2536.6667,-715 2536.6667,-715 2532.8333,-715 2529,-711.1667 2529,-707.3333 2529,-707.3333 2529,-699.6667 2529,-699.6667 2529,-695.8333 2532.8333,-692 2536.6667,-692 2536.6667,-692 2754.3333,-692 2754.3333,-692 2758.1667,-692 2762,-695.8333 2762,-699.6667 2762,-699.6667 2762,-707.3333 2762,-707.3333 2762,-711.1667 2758.1667,-715 2754.3333,-715"/>
<text text-anchor="middle" x="2645.5" y="-699.8" font-family="Arial" font-size="14.00" fill="#cfffac">src/views/components/Hearts.css</text>
</g>
<!-- src/views/components/Hearts.js&#45;&gt;src/views/components/Hearts.css -->
<g id="edge40" class="edge">
<title>src/views/components/Hearts.js&#45;&gt;src/views/components/Hearts.css</title>
<path fill="none" stroke="#757575" d="M2377.1413,-703.5C2421.5162,-703.5 2472.9128,-703.5 2518.778,-703.5"/>
<polygon fill="#757575" stroke="#757575" points="2518.7799,-707.0001 2528.7798,-703.5 2518.7798,-700.0001 2518.7799,-707.0001"/>
</g>
<!-- src/views/components/Pacman.css -->
<g id="node87" class="node">
<title>src/views/components/Pacman.css</title>
<path fill="none" stroke="#cfffac" d="M2760.3333,-674C2760.3333,-674 2530.6667,-674 2530.6667,-674 2526.8333,-674 2523,-670.1667 2523,-666.3333 2523,-666.3333 2523,-658.6667 2523,-658.6667 2523,-654.8333 2526.8333,-651 2530.6667,-651 2530.6667,-651 2760.3333,-651 2760.3333,-651 2764.1667,-651 2768,-654.8333 2768,-658.6667 2768,-658.6667 2768,-666.3333 2768,-666.3333 2768,-670.1667 2764.1667,-674 2760.3333,-674"/>
<text text-anchor="middle" x="2645.5" y="-658.8" font-family="Arial" font-size="14.00" fill="#cfffac">src/views/components/Pacman.css</text>
</g>
<!-- src/views/components/Pacman.js&#45;&gt;src/views/components/Pacman.css -->
<g id="edge41" class="edge">
<title>src/views/components/Pacman.js&#45;&gt;src/views/components/Pacman.css</title>
<path fill="none" stroke="#757575" d="M2383.0465,-662.5C2424.0316,-662.5 2470.39,-662.5 2512.618,-662.5"/>
<polygon fill="#757575" stroke="#757575" points="2512.6896,-666.0001 2522.6896,-662.5 2512.6896,-659.0001 2512.6896,-666.0001"/>
</g>
<!-- src/views/components/ClickCoordinateReporter.css -->
<g id="node82" class="node">
<title>src/views/components/ClickCoordinateReporter.css</title>
<path fill="none" stroke="#cfffac" d="M2812.3333,-510C2812.3333,-510 2478.6667,-510 2478.6667,-510 2474.8333,-510 2471,-506.1667 2471,-502.3333 2471,-502.3333 2471,-494.6667 2471,-494.6667 2471,-490.8333 2474.8333,-487 2478.6667,-487 2478.6667,-487 2812.3333,-487 2812.3333,-487 2816.1667,-487 2820,-490.8333 2820,-494.6667 2820,-494.6667 2820,-502.3333 2820,-502.3333 2820,-506.1667 2816.1667,-510 2812.3333,-510"/>
<text text-anchor="middle" x="2645.5" y="-494.8" font-family="Arial" font-size="14.00" fill="#cfffac">src/views/components/ClickCoordinateReporter.css</text>
</g>
<!-- src/views/components/ClickCoordinateReporter.js&#45;&gt;src/views/components/ClickCoordinateReporter.css -->
<g id="edge33" class="edge">
<title>src/views/components/ClickCoordinateReporter.js&#45;&gt;src/views/components/ClickCoordinateReporter.css</title>
<path fill="none" stroke="#757575" d="M2435.2181,-498.5C2443.7374,-498.5 2452.3133,-498.5 2460.8759,-498.5"/>
<polygon fill="#757575" stroke="#757575" points="2460.9175,-502.0001 2470.9175,-498.5 2460.9174,-495.0001 2460.9175,-502.0001"/>
</g>
<!-- webpack.config.js -->
<g id="node89" class="node">
<title>webpack.config.js</title>
<path fill="none" stroke="#cfffac" d="M506.8333,-2375C506.8333,-2375 390.1667,-2375 390.1667,-2375 386.3333,-2375 382.5,-2371.1667 382.5,-2367.3333 382.5,-2367.3333 382.5,-2359.6667 382.5,-2359.6667 382.5,-2355.8333 386.3333,-2352 390.1667,-2352 390.1667,-2352 506.8333,-2352 506.8333,-2352 510.6667,-2352 514.5,-2355.8333 514.5,-2359.6667 514.5,-2359.6667 514.5,-2367.3333 514.5,-2367.3333 514.5,-2371.1667 510.6667,-2375 506.8333,-2375"/>
<text text-anchor="middle" x="448.5" y="-2359.8" font-family="Arial" font-size="14.00" fill="#cfffac">webpack.config.js</text>
</g>
</g>
</svg>
