G04 #@! TF.GenerationSoftware,KiCad,Pcbnew,5.1.7-a382d34a8~88~ubuntu20.04.1*
G04 #@! TF.CreationDate,2020-12-13T14:38:39-06:00*
G04 #@! TF.ProjectId,open-dash-daughterboard,6f70656e-2d64-4617-9368-2d6461756768,rev?*
G04 #@! TF.SameCoordinates,Original*
G04 #@! TF.FileFunction,Copper,L4,Bot*
G04 #@! TF.FilePolarity,Positive*
%FSLAX46Y46*%
G04 Gerber Fmt 4.6, Leading zero omitted, Abs format (unit mm)*
G04 Created by KiCad (PCBNEW 5.1.7-a382d34a8~88~ubuntu20.04.1) date 2020-12-13 14:38:39*
%MOMM*%
%LPD*%
G01*
G04 APERTURE LIST*
G04 #@! TA.AperFunction,ComponentPad*
%ADD10O,1.700000X1.700000*%
G04 #@! TD*
G04 #@! TA.AperFunction,ComponentPad*
%ADD11R,1.700000X1.700000*%
G04 #@! TD*
G04 #@! TA.AperFunction,ComponentPad*
%ADD12R,2.400000X2.400000*%
G04 #@! TD*
G04 #@! TA.AperFunction,ComponentPad*
%ADD13C,2.400000*%
G04 #@! TD*
G04 #@! TA.AperFunction,ComponentPad*
%ADD14R,1.600000X1.600000*%
G04 #@! TD*
G04 #@! TA.AperFunction,ComponentPad*
%ADD15C,1.600000*%
G04 #@! TD*
G04 #@! TA.AperFunction,ComponentPad*
%ADD16O,3.300000X2.700000*%
G04 #@! TD*
G04 #@! TA.AperFunction,ComponentPad*
%ADD17C,1.300000*%
G04 #@! TD*
G04 #@! TA.AperFunction,ComponentPad*
%ADD18O,2.500000X1.800000*%
G04 #@! TD*
G04 #@! TA.AperFunction,ComponentPad*
%ADD19O,1.800000X2.500000*%
G04 #@! TD*
G04 #@! TA.AperFunction,ComponentPad*
%ADD20O,1.700000X2.900000*%
G04 #@! TD*
G04 #@! TA.AperFunction,ComponentPad*
%ADD21O,1.000000X1.300000*%
G04 #@! TD*
G04 #@! TA.AperFunction,ComponentPad*
%ADD22C,1.524000*%
G04 #@! TD*
G04 #@! TA.AperFunction,ComponentPad*
%ADD23O,2.700000X3.300000*%
G04 #@! TD*
G04 #@! TA.AperFunction,WasherPad*
%ADD24C,5.000000*%
G04 #@! TD*
G04 #@! TA.AperFunction,ViaPad*
%ADD25C,0.600000*%
G04 #@! TD*
G04 #@! TA.AperFunction,ViaPad*
%ADD26C,1.000000*%
G04 #@! TD*
G04 #@! TA.AperFunction,ViaPad*
%ADD27C,2.000000*%
G04 #@! TD*
G04 #@! TA.AperFunction,ViaPad*
%ADD28C,1.500000*%
G04 #@! TD*
G04 #@! TA.AperFunction,ViaPad*
%ADD29C,0.800000*%
G04 #@! TD*
G04 #@! TA.AperFunction,ViaPad*
%ADD30C,2.500000*%
G04 #@! TD*
G04 #@! TA.AperFunction,ViaPad*
%ADD31C,0.500000*%
G04 #@! TD*
G04 #@! TA.AperFunction,Conductor*
%ADD32C,0.500000*%
G04 #@! TD*
G04 #@! TA.AperFunction,Conductor*
%ADD33C,1.000000*%
G04 #@! TD*
G04 #@! TA.AperFunction,Conductor*
%ADD34C,0.250000*%
G04 #@! TD*
G04 #@! TA.AperFunction,Conductor*
%ADD35C,0.400000*%
G04 #@! TD*
G04 APERTURE END LIST*
D10*
X185240000Y-51060000D03*
X185240000Y-53600000D03*
X182700000Y-51060000D03*
D11*
X182700000Y-53600000D03*
D12*
X198100000Y-129850000D03*
D13*
X198100000Y-134850000D03*
D14*
X101550000Y-125250000D03*
D15*
X101550000Y-128750000D03*
G04 #@! TA.AperFunction,ComponentPad*
G36*
G01*
X203748401Y-70260600D02*
X206548399Y-70260600D01*
G75*
G02*
X206798400Y-70510601I0J-250001D01*
G01*
X206798400Y-72710599D01*
G75*
G02*
X206548399Y-72960600I-250001J0D01*
G01*
X203748401Y-72960600D01*
G75*
G02*
X203498400Y-72710599I0J250001D01*
G01*
X203498400Y-70510601D01*
G75*
G02*
X203748401Y-70260600I250001J0D01*
G01*
G37*
G04 #@! TD.AperFunction*
D16*
X205148400Y-75810600D03*
X205148400Y-80010600D03*
X205148400Y-84210600D03*
X205148400Y-88410600D03*
X205148400Y-92610600D03*
X205148400Y-96810600D03*
X205148400Y-101010600D03*
X205148400Y-105210600D03*
X205148400Y-109410600D03*
X205148400Y-113610600D03*
X205148400Y-117810600D03*
X199648400Y-71610600D03*
X199648400Y-75810600D03*
X199648400Y-80010600D03*
X199648400Y-84210600D03*
X199648400Y-88410600D03*
X199648400Y-92610600D03*
X199648400Y-96810600D03*
X199648400Y-101010600D03*
X199648400Y-105210600D03*
X199648400Y-109410600D03*
X199648400Y-113610600D03*
X199648400Y-117810600D03*
G04 #@! TA.AperFunction,ComponentPad*
G36*
G01*
X183150000Y-136150000D02*
X181650000Y-136150000D01*
G75*
G02*
X180900000Y-135400000I0J750000D01*
G01*
X180900000Y-132400000D01*
G75*
G02*
X181650000Y-131650000I750000J0D01*
G01*
X183150000Y-131650000D01*
G75*
G02*
X183900000Y-132400000I0J-750000D01*
G01*
X183900000Y-135400000D01*
G75*
G02*
X183150000Y-136150000I-750000J0D01*
G01*
G37*
G04 #@! TD.AperFunction*
G04 #@! TA.AperFunction,ComponentPad*
G36*
G01*
X179200000Y-138400000D02*
X176200000Y-138400000D01*
G75*
G02*
X175450000Y-137650000I0J750000D01*
G01*
X175450000Y-136150000D01*
G75*
G02*
X176200000Y-135400000I750000J0D01*
G01*
X179200000Y-135400000D01*
G75*
G02*
X179950000Y-136150000I0J-750000D01*
G01*
X179950000Y-137650000D01*
G75*
G02*
X179200000Y-138400000I-750000J0D01*
G01*
G37*
G04 #@! TD.AperFunction*
G04 #@! TA.AperFunction,ComponentPad*
G36*
G01*
X179200000Y-132400000D02*
X176200000Y-132400000D01*
G75*
G02*
X175450000Y-131650000I0J750000D01*
G01*
X175450000Y-130150000D01*
G75*
G02*
X176200000Y-129400000I750000J0D01*
G01*
X179200000Y-129400000D01*
G75*
G02*
X179950000Y-130150000I0J-750000D01*
G01*
X179950000Y-131650000D01*
G75*
G02*
X179200000Y-132400000I-750000J0D01*
G01*
G37*
G04 #@! TD.AperFunction*
G04 #@! TA.AperFunction,ComponentPad*
G36*
G01*
X138000000Y-57200000D02*
X141000000Y-57200000D01*
G75*
G02*
X141750000Y-57950000I0J-750000D01*
G01*
X141750000Y-59450000D01*
G75*
G02*
X141000000Y-60200000I-750000J0D01*
G01*
X138000000Y-60200000D01*
G75*
G02*
X137250000Y-59450000I0J750000D01*
G01*
X137250000Y-57950000D01*
G75*
G02*
X138000000Y-57200000I750000J0D01*
G01*
G37*
G04 #@! TD.AperFunction*
G04 #@! TA.AperFunction,ComponentPad*
G36*
G01*
X138000000Y-51200000D02*
X141000000Y-51200000D01*
G75*
G02*
X141750000Y-51950000I0J-750000D01*
G01*
X141750000Y-53450000D01*
G75*
G02*
X141000000Y-54200000I-750000J0D01*
G01*
X138000000Y-54200000D01*
G75*
G02*
X137250000Y-53450000I0J750000D01*
G01*
X137250000Y-51950000D01*
G75*
G02*
X138000000Y-51200000I750000J0D01*
G01*
G37*
G04 #@! TD.AperFunction*
G04 #@! TA.AperFunction,ComponentPad*
G36*
G01*
X134050000Y-53450000D02*
X135550000Y-53450000D01*
G75*
G02*
X136300000Y-54200000I0J-750000D01*
G01*
X136300000Y-57200000D01*
G75*
G02*
X135550000Y-57950000I-750000J0D01*
G01*
X134050000Y-57950000D01*
G75*
G02*
X133300000Y-57200000I0J750000D01*
G01*
X133300000Y-54200000D01*
G75*
G02*
X134050000Y-53450000I750000J0D01*
G01*
G37*
G04 #@! TD.AperFunction*
G04 #@! TA.AperFunction,ComponentPad*
G36*
G01*
X149276000Y-53578000D02*
X150776000Y-53578000D01*
G75*
G02*
X151526000Y-54328000I0J-750000D01*
G01*
X151526000Y-57328000D01*
G75*
G02*
X150776000Y-58078000I-750000J0D01*
G01*
X149276000Y-58078000D01*
G75*
G02*
X148526000Y-57328000I0J750000D01*
G01*
X148526000Y-54328000D01*
G75*
G02*
X149276000Y-53578000I750000J0D01*
G01*
G37*
G04 #@! TD.AperFunction*
G04 #@! TA.AperFunction,ComponentPad*
G36*
G01*
X153226000Y-51328000D02*
X156226000Y-51328000D01*
G75*
G02*
X156976000Y-52078000I0J-750000D01*
G01*
X156976000Y-53578000D01*
G75*
G02*
X156226000Y-54328000I-750000J0D01*
G01*
X153226000Y-54328000D01*
G75*
G02*
X152476000Y-53578000I0J750000D01*
G01*
X152476000Y-52078000D01*
G75*
G02*
X153226000Y-51328000I750000J0D01*
G01*
G37*
G04 #@! TD.AperFunction*
G04 #@! TA.AperFunction,ComponentPad*
G36*
G01*
X153226000Y-57328000D02*
X156226000Y-57328000D01*
G75*
G02*
X156976000Y-58078000I0J-750000D01*
G01*
X156976000Y-59578000D01*
G75*
G02*
X156226000Y-60328000I-750000J0D01*
G01*
X153226000Y-60328000D01*
G75*
G02*
X152476000Y-59578000I0J750000D01*
G01*
X152476000Y-58078000D01*
G75*
G02*
X153226000Y-57328000I750000J0D01*
G01*
G37*
G04 #@! TD.AperFunction*
D17*
X114553800Y-46740100D03*
X104546200Y-46740100D03*
X104546200Y-49750000D03*
X114553800Y-49750000D03*
D18*
X109550000Y-49750000D03*
D17*
X109550000Y-54753800D03*
D19*
X114553800Y-54753800D03*
X104546200Y-54753800D03*
X107048100Y-54753800D03*
X112051900Y-54753800D03*
D11*
X112920000Y-60850000D03*
D10*
X115460000Y-60850000D03*
X118000000Y-60850000D03*
X120540000Y-60850000D03*
X123080000Y-60850000D03*
D19*
X127251900Y-54753800D03*
X122248100Y-54753800D03*
X119746200Y-54753800D03*
X129753800Y-54753800D03*
D17*
X124750000Y-54753800D03*
D18*
X124750000Y-49750000D03*
D17*
X129753800Y-49750000D03*
X119746200Y-49750000D03*
X119746200Y-46740100D03*
X129753800Y-46740100D03*
D20*
X196732400Y-46445400D03*
X189442600Y-46445400D03*
D21*
X193100200Y-51500000D03*
X192287400Y-50280800D03*
X193913000Y-50306200D03*
X194700400Y-51500000D03*
X191500000Y-51500000D03*
D22*
X91979500Y-114955600D03*
X91979500Y-112961700D03*
X91979500Y-104960700D03*
X91979500Y-118956100D03*
X91979500Y-108961200D03*
X91979500Y-116962200D03*
X91979500Y-106954600D03*
X91979500Y-110955100D03*
X91979500Y-98953600D03*
X91979500Y-120962700D03*
X91979500Y-100960200D03*
X91979500Y-102954100D03*
X95980000Y-103957400D03*
X95980000Y-101963500D03*
X95980000Y-97963000D03*
X95980000Y-99956900D03*
X95980000Y-105964000D03*
X95980000Y-111958400D03*
X95980000Y-109964500D03*
X95980000Y-107957900D03*
X95980000Y-113965000D03*
X95980000Y-115958900D03*
X95980000Y-117965500D03*
X95980000Y-119959400D03*
X95980000Y-121966000D03*
G04 #@! TA.AperFunction,ComponentPad*
G36*
G01*
X164850000Y-139800001D02*
X164850000Y-142599999D01*
G75*
G02*
X164599999Y-142850000I-250001J0D01*
G01*
X162400001Y-142850000D01*
G75*
G02*
X162150000Y-142599999I0J250001D01*
G01*
X162150000Y-139800001D01*
G75*
G02*
X162400001Y-139550000I250001J0D01*
G01*
X164599999Y-139550000D01*
G75*
G02*
X164850000Y-139800001I0J-250001D01*
G01*
G37*
G04 #@! TD.AperFunction*
D23*
X159300000Y-141200000D03*
X155100000Y-141200000D03*
X150900000Y-141200000D03*
X146700000Y-141200000D03*
X142500000Y-141200000D03*
X138300000Y-141200000D03*
X134100000Y-141200000D03*
X129900000Y-141200000D03*
X125700000Y-141200000D03*
X121500000Y-141200000D03*
X117300000Y-141200000D03*
X163500000Y-135700000D03*
X159300000Y-135700000D03*
X155100000Y-135700000D03*
X150900000Y-135700000D03*
X146700000Y-135700000D03*
X142500000Y-135700000D03*
X138300000Y-135700000D03*
X134100000Y-135700000D03*
X129900000Y-135700000D03*
X125700000Y-135700000D03*
X121500000Y-135700000D03*
X117300000Y-135700000D03*
G04 #@! TA.AperFunction,ComponentPad*
G36*
G01*
X189900001Y-70350000D02*
X192699999Y-70350000D01*
G75*
G02*
X192950000Y-70600001I0J-250001D01*
G01*
X192950000Y-72799999D01*
G75*
G02*
X192699999Y-73050000I-250001J0D01*
G01*
X189900001Y-73050000D01*
G75*
G02*
X189650000Y-72799999I0J250001D01*
G01*
X189650000Y-70600001D01*
G75*
G02*
X189900001Y-70350000I250001J0D01*
G01*
G37*
G04 #@! TD.AperFunction*
D16*
X191300000Y-75900000D03*
X191300000Y-80100000D03*
X191300000Y-84300000D03*
X191300000Y-88500000D03*
X191300000Y-92700000D03*
X191300000Y-96900000D03*
X191300000Y-101100000D03*
X191300000Y-105300000D03*
X191300000Y-109500000D03*
X191300000Y-113700000D03*
X191300000Y-117900000D03*
X185800000Y-71700000D03*
X185800000Y-75900000D03*
X185800000Y-80100000D03*
X185800000Y-84300000D03*
X185800000Y-88500000D03*
X185800000Y-92700000D03*
X185800000Y-96900000D03*
X185800000Y-101100000D03*
X185800000Y-105300000D03*
X185800000Y-109500000D03*
X185800000Y-113700000D03*
X185800000Y-117900000D03*
D24*
X92100500Y-140799500D03*
X204487900Y-140786800D03*
X204538700Y-48775300D03*
X92113200Y-48788000D03*
D25*
X165400000Y-106850000D03*
X165350000Y-91650000D03*
X174350000Y-91650000D03*
X175750000Y-77100000D03*
X166500000Y-77100000D03*
D26*
X150050000Y-126650000D03*
D27*
X146650000Y-126600000D03*
X188450000Y-132250000D03*
D25*
X184950000Y-130800000D03*
D26*
X161800000Y-65700000D03*
X91900000Y-134700000D03*
X141200010Y-127900000D03*
X160751062Y-64158608D03*
D25*
X126100000Y-118725000D03*
X175250000Y-106800010D03*
D28*
X177500000Y-49300000D03*
D26*
X128000000Y-123174990D03*
D28*
X185950000Y-140800000D03*
X158500000Y-124800000D03*
X158550000Y-119850000D03*
X164050000Y-119800000D03*
X164050000Y-124850000D03*
X120700000Y-86550000D03*
X117200000Y-83100000D03*
X117150000Y-90200000D03*
X111650000Y-79050000D03*
X134450000Y-86200000D03*
X139500000Y-86200000D03*
X139500000Y-91700000D03*
X134500000Y-91700000D03*
D29*
X165750000Y-70400000D03*
X165750000Y-73000000D03*
X174450000Y-70400000D03*
X174450000Y-72950000D03*
X173300000Y-85150000D03*
X174250000Y-102800000D03*
X174250000Y-100200000D03*
X164850000Y-100200000D03*
X164850000Y-102800000D03*
X172100000Y-117600000D03*
X171950000Y-125950000D03*
X145250000Y-127900000D03*
X149950000Y-131000000D03*
X166650000Y-111300000D03*
X176950000Y-111050000D03*
X132250000Y-102800000D03*
X144050000Y-102900000D03*
X176400000Y-96300000D03*
D26*
X194700000Y-65100000D03*
X204900000Y-57500000D03*
D30*
X177750000Y-63200000D03*
D28*
X175350000Y-48900000D03*
D26*
X162300000Y-53250000D03*
X188450000Y-129450000D03*
X124400000Y-119000000D03*
X128700000Y-114450000D03*
D28*
X142400000Y-108100000D03*
D26*
X93400000Y-85600000D03*
X98200000Y-85750000D03*
X98350000Y-73550000D03*
X93600000Y-73550000D03*
X94000000Y-62550000D03*
X98700000Y-62500000D03*
X90150000Y-134700000D03*
X93250000Y-128700000D03*
X108400000Y-133700000D03*
X105000000Y-139950000D03*
X103300000Y-143000000D03*
X90700000Y-92400000D03*
X135200000Y-60700000D03*
X143650000Y-61100000D03*
D25*
X192200000Y-58900000D03*
X192850000Y-61550000D03*
X157450000Y-67250000D03*
D29*
X174644094Y-78664411D03*
D25*
X167400000Y-81350000D03*
X164000000Y-78600000D03*
D29*
X163789226Y-108479544D03*
X174265623Y-108275020D03*
D28*
X134215999Y-121332999D03*
X150925600Y-70285400D03*
D29*
X178750000Y-52200000D03*
D28*
X112575010Y-99574218D03*
D25*
X144300000Y-77200000D03*
X151900000Y-81300000D03*
X152000000Y-82600000D03*
D31*
X149336104Y-88792498D03*
D26*
X119700000Y-122400000D03*
D25*
X98500000Y-132800000D03*
D26*
X99450000Y-136900000D03*
D25*
X101410154Y-132810154D03*
D26*
X126400000Y-113725000D03*
D25*
X143675000Y-115325000D03*
D29*
X177551654Y-81574990D03*
D25*
X128300000Y-98000000D03*
D26*
X106000000Y-113474990D03*
D29*
X163605014Y-93242271D03*
X166354545Y-96525054D03*
D28*
X136400000Y-72350000D03*
D25*
X148400032Y-109800000D03*
D29*
X173612212Y-93225010D03*
X164300000Y-84824935D03*
X164359701Y-88825010D03*
X173775460Y-88900780D03*
D30*
X157350000Y-74724990D03*
D28*
X105092573Y-79405426D03*
D26*
X96300000Y-91100000D03*
D28*
X124550000Y-79375010D03*
X150524990Y-124346361D03*
X111283918Y-130380778D03*
D30*
X127896147Y-121227745D03*
X135189123Y-126447912D03*
D28*
X143324990Y-109701760D03*
D30*
X165171793Y-62645874D03*
D26*
X118715000Y-109275000D03*
X121275000Y-109100000D03*
D28*
X205250000Y-59525000D03*
D25*
X93300000Y-77750000D03*
X148850000Y-62650000D03*
X158100000Y-70250000D03*
X155000000Y-84100000D03*
X149350000Y-84150000D03*
X147150000Y-80450000D03*
X148350000Y-87550000D03*
D26*
X156850000Y-90050000D03*
D25*
X156750000Y-80450000D03*
D26*
X111600000Y-80600000D03*
X136350000Y-101450000D03*
D25*
X93300000Y-54350000D03*
X93500000Y-65550000D03*
D28*
X116250000Y-114250000D03*
D25*
X158400000Y-66430000D03*
D28*
X136100000Y-107500000D03*
D25*
X122600000Y-116300000D03*
X154224980Y-79544520D03*
D28*
X152475010Y-115250000D03*
D25*
X151337847Y-109421745D03*
X148400000Y-96500000D03*
X152100000Y-94500000D03*
D26*
X140465399Y-97574990D03*
X104842573Y-81144952D03*
D30*
X131613701Y-107386299D03*
D26*
X152235273Y-99973624D03*
D28*
X157401144Y-99472271D03*
D29*
X158078012Y-60767113D03*
D28*
X160530195Y-100690090D03*
X145655214Y-80744276D03*
X145800000Y-77124990D03*
D31*
X102300000Y-85000000D03*
X102654983Y-81913436D03*
X103354876Y-81926333D03*
X99800000Y-89400000D03*
X101700000Y-84400000D03*
X101955036Y-81922949D03*
X104066002Y-81964232D03*
X100100000Y-88300000D03*
X193050000Y-60000000D03*
X194050000Y-58800000D03*
D29*
X157800000Y-131500000D03*
D28*
X198900000Y-55900000D03*
D31*
X156306594Y-94006594D03*
X177800000Y-93675010D03*
D25*
X154700000Y-93900000D03*
X182626456Y-90210354D03*
D31*
X155500000Y-94000000D03*
X179300000Y-93100000D03*
D25*
X154400000Y-89100000D03*
X154300000Y-89900000D03*
X157466158Y-87755907D03*
D31*
X195224990Y-98575010D03*
X195400000Y-100000000D03*
X157206594Y-93919782D03*
X170173731Y-95025021D03*
D29*
X170400000Y-106200000D03*
X180000000Y-106100000D03*
D25*
X125200000Y-110400000D03*
X125200000Y-108400000D03*
X127300000Y-99800000D03*
D31*
X119000000Y-113800000D03*
X122600000Y-113500000D03*
X177100000Y-59200000D03*
X102900000Y-62200000D03*
X101400000Y-64200000D03*
D25*
X127866452Y-101971432D03*
D31*
X107475201Y-114024799D03*
X112010489Y-114756018D03*
D25*
X153600000Y-62300000D03*
D31*
X201700000Y-124300000D03*
X203945185Y-124218405D03*
X202348380Y-106387733D03*
D25*
X147200000Y-79600000D03*
X171300000Y-77100000D03*
X173400000Y-79000000D03*
D31*
X142500000Y-98500000D03*
X144200000Y-106000000D03*
X144100000Y-116600000D03*
X143400000Y-129500000D03*
D25*
X166700000Y-126800000D03*
X169100000Y-126800000D03*
D31*
X195800000Y-102800000D03*
X182700000Y-102800000D03*
X182700000Y-107900000D03*
X165500000Y-115300000D03*
X163700000Y-116000000D03*
X153900000Y-120700000D03*
X201856594Y-98356594D03*
X160900000Y-117600000D03*
D25*
X119700000Y-101800000D03*
X144800000Y-100000000D03*
X147900000Y-100000000D03*
X183400000Y-94900000D03*
X128567987Y-103425010D03*
D31*
X153300000Y-102000000D03*
D25*
X108000000Y-102600000D03*
X112300000Y-101500000D03*
X116000000Y-102500000D03*
X123200000Y-104400000D03*
X107900000Y-101800000D03*
X117100000Y-102700000D03*
X126300000Y-104000000D03*
X113800000Y-100874990D03*
D31*
X120700000Y-93300000D03*
D25*
X148500000Y-99300000D03*
X179400000Y-105000000D03*
X155600010Y-102820860D03*
D31*
X116600000Y-92900000D03*
X118400000Y-92800000D03*
X121500000Y-91500000D03*
X148700000Y-98300000D03*
X156233713Y-102419690D03*
D25*
X125425032Y-85625803D03*
X122024979Y-85500000D03*
X128500000Y-83500000D03*
X189000000Y-60500000D03*
X128500000Y-82500000D03*
X191500000Y-61500000D03*
X157449959Y-86232148D03*
X156662406Y-86091508D03*
D31*
X108000000Y-109100011D03*
X107120780Y-113388969D03*
X158700000Y-57700000D03*
X155100000Y-56000000D03*
X112172492Y-114075010D03*
D25*
X112000000Y-62500000D03*
X184500000Y-57000000D03*
X182976279Y-58618711D03*
D31*
X115800000Y-99100000D03*
X121000000Y-100800000D03*
X130700000Y-102800000D03*
X136300000Y-112900000D03*
X146700000Y-114500000D03*
X115786945Y-92273890D03*
X165100000Y-56900000D03*
X139500000Y-63000000D03*
X124700000Y-82300000D03*
D25*
X151407877Y-61492123D03*
D31*
X134200000Y-80100000D03*
X141400000Y-65500000D03*
X107500000Y-107400000D03*
X110500000Y-97300000D03*
X125100000Y-88000000D03*
X121624968Y-88000000D03*
X111820050Y-92924990D03*
X107424990Y-109687008D03*
D25*
X111700000Y-86600000D03*
X100925010Y-87423327D03*
D31*
X96900000Y-94500000D03*
D25*
X162375443Y-83737806D03*
X159344729Y-84104231D03*
X158632657Y-84468885D03*
X162750285Y-84444567D03*
X165261943Y-85413583D03*
X157961984Y-85500439D03*
X157367787Y-97399080D03*
X161493432Y-97187913D03*
X168700000Y-97200000D03*
X156891949Y-95891949D03*
X157100000Y-94800000D03*
X169855011Y-95703943D03*
X167400000Y-97000000D03*
X156995304Y-96691073D03*
X169000000Y-113200000D03*
X171000000Y-113300000D03*
X125100000Y-92000000D03*
X110423050Y-113439928D03*
X164200000Y-122700000D03*
X172000000Y-120400000D03*
X172000000Y-122300000D03*
X163100000Y-122900000D03*
X125000000Y-91000000D03*
X109591889Y-113274990D03*
D31*
X141800000Y-100700000D03*
X138400000Y-112100000D03*
X141800000Y-98400000D03*
X136900000Y-98200000D03*
X137500000Y-100600000D03*
X137800000Y-113000000D03*
X148400000Y-125900000D03*
D25*
X112400000Y-110300000D03*
X112600000Y-108600000D03*
X111308051Y-102908051D03*
X109608029Y-102458051D03*
D31*
X105415000Y-94385000D03*
X102185600Y-94529804D03*
D25*
X123500000Y-98500000D03*
X126500000Y-99874968D03*
X144801841Y-95381533D03*
D31*
X148101886Y-94223573D03*
X147800000Y-92600000D03*
X130200000Y-99400000D03*
X113000000Y-102100000D03*
X109500000Y-104300000D03*
X116143406Y-103456594D03*
X144274001Y-94265938D03*
D25*
X111200000Y-108500000D03*
X174400000Y-105000000D03*
X155500000Y-105000000D03*
X153400000Y-105000000D03*
D32*
X121100000Y-109275000D02*
X121275000Y-109100000D01*
X118715000Y-109275000D02*
X121100000Y-109275000D01*
D33*
X142500000Y-135700000D02*
X142500000Y-136700000D01*
X144550010Y-138750010D02*
X144550010Y-142925010D01*
X142500000Y-136700000D02*
X144550010Y-138750010D01*
X192211992Y-143550010D02*
X207498410Y-128263592D01*
X145175010Y-143550010D02*
X192211992Y-143550010D01*
X207498410Y-128263592D02*
X207498410Y-115073410D01*
X144550010Y-142925010D02*
X145175010Y-143550010D01*
X206035600Y-113610600D02*
X205148400Y-113610600D01*
X207498410Y-115073410D02*
X206035600Y-113610600D01*
X207498410Y-111260590D02*
X205148400Y-113610600D01*
X207498410Y-61773410D02*
X207498410Y-111260590D01*
X205250000Y-59525000D02*
X207498410Y-61773410D01*
X191300000Y-113700000D02*
X191300000Y-109500000D01*
X205148400Y-113610600D02*
X203346654Y-113610600D01*
X203346654Y-113610600D02*
X201296644Y-115660610D01*
X201296644Y-115660610D02*
X193260610Y-115660610D01*
X193260610Y-115660610D02*
X191300000Y-113700000D01*
X205148400Y-109410600D02*
X203460600Y-109410600D01*
X198499259Y-107260610D02*
X194100000Y-102861351D01*
X201310610Y-107260610D02*
X198499259Y-107260610D01*
X203460600Y-109410600D02*
X201310610Y-107260610D01*
X194100000Y-99700000D02*
X191300000Y-96900000D01*
X194100000Y-102861351D02*
X194100000Y-99700000D01*
X163500000Y-135700000D02*
X163500000Y-133050000D01*
X163500000Y-133050000D02*
X152475010Y-122025010D01*
X152475010Y-122025010D02*
X152475010Y-115250000D01*
X191300000Y-96900000D02*
X189179604Y-99020396D01*
X157853019Y-99020396D02*
X157401144Y-99472271D01*
X189179604Y-99020396D02*
X157853019Y-99020396D01*
X160120285Y-101100000D02*
X160530195Y-100690090D01*
X162000000Y-117300000D02*
X154499998Y-109799998D01*
X162000000Y-129000000D02*
X162000000Y-117300000D01*
X165999999Y-132999999D02*
X162000000Y-129000000D01*
X155700000Y-101100000D02*
X160120285Y-101100000D01*
X165999999Y-138700001D02*
X165999999Y-132999999D01*
X163500000Y-141200000D02*
X165999999Y-138700001D01*
X154499998Y-102300002D02*
X155700000Y-101100000D01*
X154499998Y-109799998D02*
X154499998Y-102300002D01*
X145655214Y-77269776D02*
X145800000Y-77124990D01*
X145655214Y-80744276D02*
X145655214Y-77269776D01*
D34*
X102654983Y-84645017D02*
X102654983Y-81913436D01*
X102300000Y-85000000D02*
X102654983Y-84645017D01*
X99524990Y-86638599D02*
X99524990Y-88195184D01*
X100113600Y-86049989D02*
X99524990Y-86638599D01*
X102650011Y-86049989D02*
X100113600Y-86049989D01*
X103354876Y-85345124D02*
X102650011Y-86049989D01*
X103354876Y-81926333D02*
X103354876Y-85345124D01*
X99524990Y-89124990D02*
X99800000Y-89400000D01*
X99524990Y-88195184D02*
X99524990Y-89124990D01*
X101955036Y-84144964D02*
X101955036Y-81922949D01*
X101700000Y-84400000D02*
X101955036Y-84144964D01*
X103929944Y-82100290D02*
X104066002Y-81964232D01*
X103929944Y-85470056D02*
X103929944Y-82100290D01*
X102900000Y-86500000D02*
X103929944Y-85470056D01*
X100300000Y-86500000D02*
X102900000Y-86500000D01*
X100100000Y-86700000D02*
X100300000Y-86500000D01*
X100100000Y-88300000D02*
X100100000Y-86700000D01*
X185240000Y-51060000D02*
X189440000Y-51060000D01*
X189440000Y-51060000D02*
X191500000Y-49000000D01*
X192606800Y-49000000D02*
X193913000Y-50306200D01*
X191500000Y-49000000D02*
X192606800Y-49000000D01*
X191000200Y-53600000D02*
X193100200Y-51500000D01*
X185240000Y-53600000D02*
X191000200Y-53600000D01*
X193050000Y-59800000D02*
X194050000Y-58800000D01*
X193050000Y-60000000D02*
X193050000Y-59800000D01*
D35*
X155100000Y-141200000D02*
X155100000Y-139300000D01*
X157549990Y-131750010D02*
X157800000Y-131500000D01*
X157549990Y-136850010D02*
X157549990Y-131750010D01*
X155100000Y-139300000D02*
X157549990Y-136850010D01*
D33*
X198900000Y-55699600D02*
X194700400Y-51500000D01*
X198900000Y-55900000D02*
X198900000Y-55699600D01*
D34*
X157013166Y-93300022D02*
X157400022Y-93300022D01*
X177024999Y-94450011D02*
X177800000Y-93675010D01*
X158550011Y-94450011D02*
X177024999Y-94450011D01*
X157400022Y-93300022D02*
X158550011Y-94450011D01*
X156306594Y-94006594D02*
X157013166Y-93300022D01*
X154700000Y-93900000D02*
X156200000Y-92400000D01*
X172200000Y-93500000D02*
X173200000Y-92500000D01*
X156200000Y-92400000D02*
X158100000Y-92400000D01*
X162000000Y-93500000D02*
X163000000Y-92500000D01*
X158100000Y-92400000D02*
X159200000Y-93500000D01*
X159200000Y-93500000D02*
X162000000Y-93500000D01*
X164900000Y-93500000D02*
X172200000Y-93500000D01*
X163000000Y-92500000D02*
X163900000Y-92500000D01*
X163900000Y-92500000D02*
X164900000Y-93500000D01*
X173200000Y-92500000D02*
X180336810Y-92500000D01*
X180336810Y-92500000D02*
X182626456Y-90210354D01*
X177436410Y-93100000D02*
X179300000Y-93100000D01*
X176536410Y-94000000D02*
X177436410Y-93100000D01*
X159000000Y-94000000D02*
X176536410Y-94000000D01*
X157850011Y-92850011D02*
X159000000Y-94000000D01*
X155500000Y-94000000D02*
X156649989Y-92850011D01*
X156649989Y-92850011D02*
X157850011Y-92850011D01*
X197937800Y-90900000D02*
X199648400Y-92610600D01*
X184836411Y-90900000D02*
X197937800Y-90900000D01*
X183450009Y-89513598D02*
X184836411Y-90900000D01*
X181686400Y-87549989D02*
X183450009Y-89313599D01*
X159113600Y-87549989D02*
X181686400Y-87549989D01*
X183450009Y-89313599D02*
X183450009Y-89513598D01*
X158013600Y-88649989D02*
X159113600Y-87549989D01*
X154850011Y-88649989D02*
X158013600Y-88649989D01*
X154400000Y-89100000D02*
X154850011Y-88649989D01*
X184900000Y-94900000D02*
X197737800Y-94900000D01*
X183500000Y-93500000D02*
X184900000Y-94900000D01*
X183000000Y-89699999D02*
X183500000Y-90199999D01*
X181400000Y-88000000D02*
X182999999Y-89599999D01*
X159300000Y-88000000D02*
X181400000Y-88000000D01*
X183500000Y-90199999D02*
X183500000Y-93500000D01*
X158200000Y-89100000D02*
X159300000Y-88000000D01*
X182999999Y-89599999D02*
X183000000Y-89699999D01*
X155300000Y-89100000D02*
X158200000Y-89100000D01*
X197737800Y-94900000D02*
X199648400Y-96810600D01*
X154500000Y-89900000D02*
X155300000Y-89100000D01*
X154300000Y-89900000D02*
X154500000Y-89900000D01*
X199648400Y-99751600D02*
X199648400Y-101010600D01*
X201800000Y-97600000D02*
X199648400Y-99751600D01*
X201800000Y-91600000D02*
X201800000Y-97600000D01*
X200600000Y-90400000D02*
X201800000Y-91600000D01*
X181872800Y-87099978D02*
X183900020Y-89127199D01*
X158546351Y-87099978D02*
X181872800Y-87099978D01*
X183900020Y-89327198D02*
X184972822Y-90400000D01*
X183900020Y-89127199D02*
X183900020Y-89327198D01*
X157890422Y-87755907D02*
X158546351Y-87099978D01*
X184972822Y-90400000D02*
X200600000Y-90400000D01*
X157466158Y-87755907D02*
X157890422Y-87755907D01*
X195224990Y-99824990D02*
X195400000Y-100000000D01*
X195224990Y-98575010D02*
X195224990Y-99824990D01*
X170048732Y-94900022D02*
X170173731Y-95025021D01*
X157206594Y-93919782D02*
X158186834Y-94900022D01*
X158186834Y-94900022D02*
X170048732Y-94900022D01*
D35*
X170400000Y-106200000D02*
X170500000Y-106100000D01*
X170500000Y-106100000D02*
X180000000Y-106100000D01*
D34*
X125200000Y-110400000D02*
X125200000Y-108400000D01*
X122300000Y-113800000D02*
X122600000Y-113500000D01*
X119000000Y-113800000D02*
X122300000Y-113800000D01*
X101400000Y-63700000D02*
X101400000Y-64200000D01*
X102900000Y-62200000D02*
X101400000Y-63700000D01*
X127300000Y-99800000D02*
X127300000Y-101404980D01*
X127300000Y-101404980D02*
X127866452Y-101971432D01*
X111566485Y-115200022D02*
X112010489Y-114756018D01*
X108827200Y-115200022D02*
X111566485Y-115200022D01*
X107651978Y-114024799D02*
X108827200Y-115200022D01*
X107475201Y-114024799D02*
X107651978Y-114024799D01*
X161800000Y-59200000D02*
X177100000Y-59200000D01*
X158700000Y-62300000D02*
X161800000Y-59200000D01*
X153600000Y-62300000D02*
X158700000Y-62300000D01*
X203863590Y-124300000D02*
X203945185Y-124218405D01*
X201700000Y-124300000D02*
X203863590Y-124300000D01*
X203248400Y-92610600D02*
X202450011Y-93408989D01*
X202450011Y-105932549D02*
X202348380Y-106034180D01*
X205148400Y-92610600D02*
X203248400Y-92610600D01*
X202450011Y-93408989D02*
X202450011Y-105932549D01*
X202348380Y-106034180D02*
X202348380Y-106387733D01*
X142500000Y-98500000D02*
X142500000Y-100600000D01*
X142500000Y-100600000D02*
X142500000Y-100700000D01*
X142500000Y-100700000D02*
X143000000Y-101200000D01*
X143000000Y-101200000D02*
X143000000Y-103000000D01*
X144200000Y-104200000D02*
X144200000Y-106000000D01*
X143000000Y-103000000D02*
X144200000Y-104200000D01*
X143400000Y-117300000D02*
X143400000Y-129500000D01*
X144100000Y-116600000D02*
X143400000Y-117300000D01*
X167200000Y-76400000D02*
X167900000Y-77100000D01*
X165800000Y-76400000D02*
X167200000Y-76400000D01*
X155400000Y-77000000D02*
X165200000Y-77000000D01*
X167900000Y-77100000D02*
X171300000Y-77100000D01*
X165200000Y-77000000D02*
X165800000Y-76400000D01*
X152800000Y-79600000D02*
X155400000Y-77000000D01*
X147200000Y-79600000D02*
X152800000Y-79600000D01*
X195000000Y-82000000D02*
X203159000Y-82000000D01*
X194800000Y-82200000D02*
X195000000Y-82000000D01*
X203159000Y-82000000D02*
X205148400Y-80010600D01*
X184400000Y-82200000D02*
X194800000Y-82200000D01*
X182000000Y-79800000D02*
X184400000Y-82200000D01*
X174200000Y-79800000D02*
X182000000Y-79800000D01*
X173400000Y-79000000D02*
X174200000Y-79800000D01*
X166700000Y-126800000D02*
X169100000Y-126800000D01*
X182700000Y-102800000D02*
X182700000Y-107900000D01*
X164400000Y-115300000D02*
X163700000Y-116000000D01*
X165500000Y-115300000D02*
X164400000Y-115300000D01*
X160800000Y-118900000D02*
X160800000Y-120300000D01*
X160800000Y-120300000D02*
X159800000Y-121300000D01*
X154500000Y-121300000D02*
X153900000Y-120700000D01*
X159800000Y-121300000D02*
X154500000Y-121300000D01*
X195800000Y-102800000D02*
X201000000Y-102800000D01*
X201000000Y-102800000D02*
X201856594Y-101943406D01*
X201856594Y-101943406D02*
X201856594Y-98356594D01*
X160800000Y-117700000D02*
X160900000Y-117600000D01*
X160800000Y-118900000D02*
X160800000Y-117700000D01*
X144800000Y-100000000D02*
X147900000Y-100000000D01*
X128288599Y-103425010D02*
X128567987Y-103425010D01*
X121142660Y-103242660D02*
X128106249Y-103242660D01*
X119700000Y-101800000D02*
X121142660Y-103242660D01*
X128106249Y-103242660D02*
X128288599Y-103425010D01*
X180232492Y-98067508D02*
X157195405Y-98067508D01*
X183400000Y-94900000D02*
X180232492Y-98067508D01*
X157195405Y-98067508D02*
X153701109Y-101561804D01*
X153701109Y-101598891D02*
X153701109Y-101561804D01*
X153300000Y-102000000D02*
X153701109Y-101598891D01*
X108000000Y-102600000D02*
X108500000Y-102100000D01*
X108500000Y-102100000D02*
X108700000Y-101900000D01*
X108700000Y-101900000D02*
X109100000Y-101500000D01*
X109100000Y-101500000D02*
X112300000Y-101500000D01*
X117900000Y-104400000D02*
X123200000Y-104400000D01*
X116000000Y-102500000D02*
X117900000Y-104400000D01*
X107900000Y-101800000D02*
X108825010Y-100874990D01*
X108825010Y-100874990D02*
X113800000Y-100874990D01*
X117100000Y-102700000D02*
X118174998Y-103774998D01*
X118174998Y-103774998D02*
X126074998Y-103774998D01*
X126074998Y-103774998D02*
X126300000Y-104000000D01*
X179400000Y-105000000D02*
X178450011Y-104050011D01*
X156829161Y-104050011D02*
X155600010Y-102820860D01*
X178450011Y-104050011D02*
X156829161Y-104050011D01*
X141300000Y-95500000D02*
X145100000Y-99300000D01*
X129700000Y-89900000D02*
X135300000Y-95500000D01*
X145100000Y-99300000D02*
X148500000Y-99300000D01*
X124900000Y-89900000D02*
X129700000Y-89900000D01*
X135300000Y-95500000D02*
X141300000Y-95500000D01*
X121500000Y-93300000D02*
X124900000Y-89900000D01*
X120700000Y-93300000D02*
X121500000Y-93300000D01*
X118300000Y-92900000D02*
X118400000Y-92800000D01*
X116600000Y-92900000D02*
X118300000Y-92900000D01*
X145000000Y-98300000D02*
X144943005Y-98243005D01*
X148700000Y-98300000D02*
X145000000Y-98300000D01*
X177351487Y-102051487D02*
X156601916Y-102051487D01*
X183300000Y-109500000D02*
X182100000Y-108300000D01*
X182100000Y-106800000D02*
X177351487Y-102051487D01*
X185800000Y-109500000D02*
X183300000Y-109500000D01*
X156601916Y-102051487D02*
X156233713Y-102419690D01*
X182100000Y-108300000D02*
X182100000Y-106800000D01*
X141700000Y-95000000D02*
X144943005Y-98243005D01*
X135500000Y-95000000D02*
X141700000Y-95000000D01*
X129600000Y-89100000D02*
X135500000Y-95000000D01*
X123900000Y-89100000D02*
X129600000Y-89100000D01*
X121500000Y-91500000D02*
X123900000Y-89100000D01*
X125425032Y-85625803D02*
X122150782Y-85625803D01*
X122150782Y-85625803D02*
X122024979Y-85500000D01*
X128500000Y-83500000D02*
X133500022Y-78499978D01*
X139500000Y-64500000D02*
X158000000Y-64500000D01*
X133500022Y-78499978D02*
X133500022Y-70499978D01*
X133500022Y-70499978D02*
X139500000Y-64500000D01*
X158000000Y-64500000D02*
X162000000Y-60500000D01*
X162000000Y-60500000D02*
X189000000Y-60500000D01*
X161988592Y-59874998D02*
X189874998Y-59874998D01*
X128500000Y-82500000D02*
X128636411Y-82500000D01*
X128636411Y-82500000D02*
X133050011Y-78086400D01*
X133050011Y-78086400D02*
X133050011Y-69949989D01*
X133050011Y-69949989D02*
X139000000Y-64000000D01*
X139000000Y-64000000D02*
X157863590Y-64000000D01*
X157863590Y-64000000D02*
X161988592Y-59874998D01*
X189874998Y-59874998D02*
X191500000Y-61500000D01*
X191300000Y-88500000D02*
X191300000Y-86900000D01*
X182795631Y-86649989D02*
X182245598Y-86099956D01*
X157497380Y-86184727D02*
X157449959Y-86232148D01*
X191049989Y-86649989D02*
X182795631Y-86649989D01*
X158700770Y-86184727D02*
X157497380Y-86184727D01*
X158785541Y-86099956D02*
X158700770Y-86184727D01*
X182245598Y-86099956D02*
X158785541Y-86099956D01*
X191300000Y-86900000D02*
X191049989Y-86649989D01*
X159030997Y-86549967D02*
X158946226Y-86634738D01*
X158946226Y-86634738D02*
X158300933Y-86634738D01*
X158300933Y-86634738D02*
X158064073Y-86871598D01*
X157018232Y-86871598D02*
X156662406Y-86515772D01*
X158064073Y-86871598D02*
X157018232Y-86871598D01*
X182059199Y-86549967D02*
X159030997Y-86549967D01*
X184009233Y-88500000D02*
X182059199Y-86549967D01*
X185800000Y-88500000D02*
X184009233Y-88500000D01*
X156662406Y-86515772D02*
X156662406Y-86091508D01*
X113900000Y-114200000D02*
X113900000Y-117900000D01*
X108000000Y-113100000D02*
X109200000Y-114300000D01*
X109200000Y-114300000D02*
X111000000Y-114300000D01*
X144800000Y-134500000D02*
X144800000Y-137100000D01*
X111000000Y-114300000D02*
X111800000Y-113500000D01*
X111800000Y-113500000D02*
X113200000Y-113500000D01*
X144800000Y-137100000D02*
X145800000Y-138100000D01*
X125375093Y-124124907D02*
X130638719Y-124124909D01*
X145800000Y-138100000D02*
X152700000Y-138100000D01*
X108000000Y-109100011D02*
X108000000Y-113100000D01*
X142600000Y-132300000D02*
X144800000Y-134500000D01*
X152700000Y-138100000D02*
X155100000Y-135700000D01*
X113900000Y-117900000D02*
X120124907Y-124124907D01*
X113200000Y-113500000D02*
X113900000Y-114200000D01*
X120124907Y-124124907D02*
X125375093Y-124124907D01*
X130638719Y-124124909D02*
X138813810Y-132300000D01*
X138813810Y-132300000D02*
X142600000Y-132300000D01*
X157000000Y-56000000D02*
X155100000Y-56000000D01*
X158700000Y-57700000D02*
X157000000Y-56000000D01*
X107652558Y-113388969D02*
X109013600Y-114750011D01*
X109013600Y-114750011D02*
X111186400Y-114750011D01*
X111186400Y-114750011D02*
X111861401Y-114075010D01*
X111861401Y-114075010D02*
X112172492Y-114075010D01*
X107120780Y-113388969D02*
X107652558Y-113388969D01*
D33*
X129900000Y-135700000D02*
X129900000Y-134788283D01*
X129900000Y-134788283D02*
X126061685Y-130949968D01*
X126061685Y-130949968D02*
X117297874Y-130949968D01*
X108372989Y-122025083D02*
X106000165Y-122025082D01*
X102373805Y-121275075D02*
X97057630Y-115958900D01*
X105250157Y-121275075D02*
X102373805Y-121275075D01*
X97057630Y-115958900D02*
X95980000Y-115958900D01*
X106000165Y-122025082D02*
X105250157Y-121275075D01*
X117297874Y-130949968D02*
X108372989Y-122025083D01*
X136249990Y-139050010D02*
X136249990Y-134544132D01*
X118789057Y-127349940D02*
X109864170Y-118425053D01*
X104425042Y-117675042D02*
X100999978Y-114249978D01*
X134830891Y-133125033D02*
X134080891Y-133125033D01*
X136249990Y-134544132D02*
X134830891Y-133125033D01*
X128305798Y-127349940D02*
X118789057Y-127349940D01*
X100999978Y-114249978D02*
X100999978Y-107899748D01*
X97057630Y-103957400D02*
X95980000Y-103957400D01*
X134100000Y-141200000D02*
X136249990Y-139050010D01*
X106741337Y-117675042D02*
X104425042Y-117675042D01*
X107491348Y-118425052D02*
X106741337Y-117675042D01*
X109864170Y-118425053D02*
X107491348Y-118425052D01*
X100999978Y-107899748D02*
X97057630Y-103957400D01*
X134080891Y-133125033D02*
X128305798Y-127349940D01*
X107378868Y-124425103D02*
X105006043Y-124425102D01*
X116303755Y-133349990D02*
X107378868Y-124425103D01*
X125700000Y-135700000D02*
X123349990Y-133349990D01*
X100773327Y-123675097D02*
X97057630Y-119959400D01*
X123349990Y-133349990D02*
X116303755Y-133349990D01*
X105006043Y-124425102D02*
X104256037Y-123675097D01*
X97057630Y-119959400D02*
X95980000Y-119959400D01*
X104256037Y-123675097D02*
X100773327Y-123675097D01*
X103400000Y-112876002D02*
X103400000Y-106299270D01*
X108485469Y-116025031D02*
X107735457Y-115275020D01*
X110858291Y-116025031D02*
X108485469Y-116025031D01*
X138300000Y-141200000D02*
X140350010Y-139149990D01*
X140350010Y-134550010D02*
X138925011Y-133125011D01*
X138472080Y-133125011D02*
X130296987Y-124949918D01*
X138925011Y-133125011D02*
X138472080Y-133125011D01*
X130296987Y-124949918D02*
X119783177Y-124949918D01*
X107735457Y-115275020D02*
X105799018Y-115275020D01*
X105799018Y-115275020D02*
X103400000Y-112876002D01*
X140350010Y-139149990D02*
X140350010Y-134550010D01*
X97057630Y-99956900D02*
X95980000Y-99956900D01*
X103400000Y-106299270D02*
X97057630Y-99956900D01*
X119783177Y-124949918D02*
X110858291Y-116025031D01*
X119286117Y-126149929D02*
X128986117Y-126149929D01*
X135327951Y-131925022D02*
X138300000Y-134897071D01*
X138300000Y-134897071D02*
X138300000Y-135700000D01*
X102199989Y-113373062D02*
X105301958Y-116475031D01*
X107238397Y-116475031D02*
X107988409Y-117225042D01*
X95980000Y-101963500D02*
X97057630Y-101963500D01*
X97057630Y-101963500D02*
X102199989Y-107105859D01*
X128986117Y-126149929D02*
X134761210Y-131925022D01*
X107988409Y-117225042D02*
X110361231Y-117225042D01*
X134761210Y-131925022D02*
X135327951Y-131925022D01*
X105301958Y-116475031D02*
X107238397Y-116475031D01*
X102199989Y-107105859D02*
X102199989Y-113373062D01*
X110361231Y-117225042D02*
X119286117Y-126149929D01*
X97057630Y-117965500D02*
X95980000Y-117965500D01*
X107875929Y-123225093D02*
X105503104Y-123225092D01*
X116800815Y-132149979D02*
X107875929Y-123225093D01*
X125385227Y-132149979D02*
X116800815Y-132149979D01*
X104753097Y-122475086D02*
X101567216Y-122475086D01*
X127750010Y-139149990D02*
X127750010Y-134514762D01*
X101567216Y-122475086D02*
X97057630Y-117965500D01*
X105503104Y-123225092D02*
X104753097Y-122475086D01*
X127750010Y-134514762D02*
X125385227Y-132149979D01*
X125700000Y-141200000D02*
X127750010Y-139149990D01*
X103925053Y-118875053D02*
X99799967Y-114749967D01*
X127808733Y-128549946D02*
X118291992Y-128549946D01*
X99799967Y-108706337D02*
X97057630Y-105964000D01*
X134100000Y-135700000D02*
X134100000Y-134841213D01*
X106244277Y-118875053D02*
X103925053Y-118875053D01*
X99799967Y-114749967D02*
X99799967Y-108706337D01*
X106994287Y-119625062D02*
X106244277Y-118875053D01*
X109367108Y-119625062D02*
X106994287Y-119625062D01*
X118291992Y-128549946D02*
X109367108Y-119625062D01*
X134100000Y-134841213D02*
X127808733Y-128549946D01*
X97057630Y-105964000D02*
X95980000Y-105964000D01*
X131950010Y-139149990D02*
X131950010Y-134400010D01*
X129900000Y-141200000D02*
X131950010Y-139149990D01*
X105747217Y-120075064D02*
X103167694Y-120075064D01*
X108870048Y-120825073D02*
X106497226Y-120825072D01*
X127299957Y-129749957D02*
X117794932Y-129749957D01*
X103167694Y-120075064D02*
X97057630Y-113965000D01*
X131950010Y-134400010D02*
X127299957Y-129749957D01*
X117794932Y-129749957D02*
X108870048Y-120825073D01*
X97057630Y-113965000D02*
X95980000Y-113965000D01*
X106497226Y-120825072D02*
X105747217Y-120075064D01*
D35*
X104546200Y-54753800D02*
X108492400Y-58700000D01*
X108492400Y-58700000D02*
X114500000Y-58700000D01*
X115460000Y-59660000D02*
X115460000Y-60850000D01*
X114500000Y-58700000D02*
X115460000Y-59660000D01*
X116646200Y-54753800D02*
X114553800Y-54753800D01*
X118800000Y-52600000D02*
X116646200Y-54753800D01*
X123100000Y-52600000D02*
X118800000Y-52600000D01*
X123700000Y-53200000D02*
X123100000Y-52600000D01*
X123700000Y-55900000D02*
X123700000Y-53200000D01*
X120540000Y-59060000D02*
X123700000Y-55900000D01*
X120540000Y-60850000D02*
X120540000Y-59060000D01*
X118000000Y-60850000D02*
X116350000Y-62500000D01*
X116350000Y-62500000D02*
X112000000Y-62500000D01*
X119746200Y-59103800D02*
X118000000Y-60850000D01*
X119746200Y-54753800D02*
X119746200Y-59103800D01*
X123080000Y-60850000D02*
X125750000Y-60850000D01*
X129753800Y-56846200D02*
X129753800Y-54753800D01*
X125750000Y-60850000D02*
X129753800Y-56846200D01*
D34*
X184500000Y-57000000D02*
X182976279Y-58523721D01*
X182976279Y-58523721D02*
X182976279Y-58618711D01*
X121000000Y-100800000D02*
X124000000Y-100800000D01*
X124000000Y-100800000D02*
X125900000Y-102700000D01*
X125900000Y-102700000D02*
X128200000Y-102700000D01*
X128300000Y-102800000D02*
X130700000Y-102800000D01*
X128200000Y-102700000D02*
X128300000Y-102800000D01*
X137900000Y-114500000D02*
X146700000Y-114500000D01*
X136300000Y-112900000D02*
X137900000Y-114500000D01*
X115800000Y-99100000D02*
X115524999Y-98824999D01*
X115524999Y-98824999D02*
X115524999Y-92535836D01*
X115524999Y-92535836D02*
X115786945Y-92273890D01*
X139500000Y-63000000D02*
X139200000Y-63000000D01*
X139200000Y-63000000D02*
X132600000Y-69600000D01*
X132600000Y-69600000D02*
X132600000Y-77900000D01*
X132600000Y-77900000D02*
X129400000Y-81100000D01*
X125900000Y-81100000D02*
X124700000Y-82300000D01*
X129400000Y-81100000D02*
X125900000Y-81100000D01*
X163200000Y-56900000D02*
X158607877Y-61492123D01*
X165100000Y-56900000D02*
X163200000Y-56900000D01*
X158607877Y-61492123D02*
X151407877Y-61492123D01*
X134200000Y-80100000D02*
X134200000Y-71400000D01*
X134200000Y-71400000D02*
X134200000Y-70500000D01*
X139200000Y-65500000D02*
X141400000Y-65500000D01*
X134200000Y-70500000D02*
X139200000Y-65500000D01*
X125100000Y-88000000D02*
X121624968Y-88000000D01*
X110500000Y-97300000D02*
X110500000Y-94245040D01*
X110500000Y-94245040D02*
X111820050Y-92924990D01*
X107500000Y-107400000D02*
X107250001Y-107649999D01*
X107250001Y-109512019D02*
X107424990Y-109687008D01*
X107250001Y-107649999D02*
X107250001Y-109512019D01*
X111700000Y-86600000D02*
X110876673Y-87423327D01*
X110876673Y-87423327D02*
X100925010Y-87423327D01*
X95980000Y-95420000D02*
X96900000Y-94500000D01*
X95980000Y-97963000D02*
X95980000Y-95420000D01*
X162375443Y-83737806D02*
X159711154Y-83737806D01*
X159711154Y-83737806D02*
X159344729Y-84104231D01*
X158932656Y-84768884D02*
X158632657Y-84468885D01*
X162425968Y-84768884D02*
X158932656Y-84768884D01*
X162750285Y-84444567D02*
X162425968Y-84768884D01*
X158021271Y-85559726D02*
X157961984Y-85500439D01*
X165261943Y-85413583D02*
X165115800Y-85559726D01*
X165115800Y-85559726D02*
X158021271Y-85559726D01*
X157367787Y-97399080D02*
X161282265Y-97399080D01*
X161282265Y-97399080D02*
X161493432Y-97187913D01*
X167300044Y-95800044D02*
X156983854Y-95800044D01*
X168700000Y-97200000D02*
X167300044Y-95800044D01*
X156983854Y-95800044D02*
X156891949Y-95891949D01*
X169501101Y-95350033D02*
X169855011Y-95703943D01*
X157100000Y-94800000D02*
X157650033Y-95350033D01*
X157650033Y-95350033D02*
X169501101Y-95350033D01*
X165147563Y-96391074D02*
X157295303Y-96391074D01*
X167400000Y-97000000D02*
X167100001Y-97299999D01*
X157295303Y-96391074D02*
X156995304Y-96691073D01*
X167100001Y-97299999D02*
X166056488Y-97299999D01*
X166056488Y-97299999D02*
X165147563Y-96391074D01*
X170900000Y-113200000D02*
X171000000Y-113300000D01*
X169000000Y-113200000D02*
X170900000Y-113200000D01*
X125100000Y-92000000D02*
X110423050Y-106676950D01*
X110423050Y-106676950D02*
X110423050Y-113439928D01*
X169300000Y-122700000D02*
X169800000Y-122200000D01*
X164200000Y-122700000D02*
X169300000Y-122700000D01*
X169800000Y-122200000D02*
X171000000Y-121000000D01*
X171600000Y-120400000D02*
X172000000Y-120400000D01*
X171000000Y-121000000D02*
X171600000Y-120400000D01*
X172000000Y-122300000D02*
X170900000Y-123400000D01*
X163600000Y-123400000D02*
X163100000Y-122900000D01*
X170900000Y-123400000D02*
X163600000Y-123400000D01*
X109591889Y-106408111D02*
X109591889Y-113274990D01*
X125000000Y-91000000D02*
X109591889Y-106408111D01*
X135849999Y-111850001D02*
X135600000Y-112100000D01*
X138400000Y-112100000D02*
X138150001Y-111850001D01*
X138150001Y-111850001D02*
X135849999Y-111850001D01*
X135600000Y-124600000D02*
X146700000Y-135700000D01*
X135600000Y-112100000D02*
X135600000Y-124600000D01*
X141800000Y-98400000D02*
X141800000Y-100700000D01*
X136900000Y-100000000D02*
X137500000Y-100600000D01*
X136900000Y-98200000D02*
X136900000Y-100000000D01*
X137800000Y-113000000D02*
X146400000Y-113000000D01*
X148400000Y-115000000D02*
X148400000Y-125900000D01*
X146400000Y-113000000D02*
X148400000Y-115000000D01*
X112400000Y-108800000D02*
X112600000Y-108600000D01*
X112400000Y-110300000D02*
X112400000Y-108800000D01*
X110058029Y-102908051D02*
X109608029Y-102458051D01*
X111308051Y-102908051D02*
X110058029Y-102908051D01*
X102330404Y-94385000D02*
X102185600Y-94529804D01*
X105415000Y-94385000D02*
X102330404Y-94385000D01*
X123500000Y-98500000D02*
X124874968Y-99874968D01*
X124874968Y-99874968D02*
X126500000Y-99874968D01*
X144801841Y-95381533D02*
X146943926Y-95381533D01*
X146943926Y-95381533D02*
X148101886Y-94223573D01*
X110800000Y-104300000D02*
X109500000Y-104300000D01*
X113000000Y-102100000D02*
X110800000Y-104300000D01*
X117711814Y-105025002D02*
X116143406Y-103456594D01*
X131275002Y-103076002D02*
X129826002Y-104525002D01*
X126700002Y-104525002D02*
X126200002Y-105025002D01*
X129826002Y-104525002D02*
X126700002Y-104525002D01*
X130200000Y-99400000D02*
X131275002Y-100475002D01*
X126200002Y-105025002D02*
X117711814Y-105025002D01*
X131275002Y-100475002D02*
X131275002Y-103076002D01*
X147800000Y-92600000D02*
X145939939Y-92600000D01*
X145939939Y-92600000D02*
X144274001Y-94265938D01*
D32*
X174400000Y-105000000D02*
X155500000Y-105000000D01*
X114099987Y-105600013D02*
X111200000Y-108500000D01*
X126438179Y-105600013D02*
X114099987Y-105600013D01*
X126938179Y-105100013D02*
X126438179Y-105600013D01*
X142164009Y-105100013D02*
X126938179Y-105100013D01*
X143963998Y-106900002D02*
X142164009Y-105100013D01*
X146636004Y-105000000D02*
X144736002Y-106900002D01*
X144736002Y-106900002D02*
X143963998Y-106900002D01*
X153400000Y-105000000D02*
X146636004Y-105000000D01*
D33*
X182700000Y-51060000D02*
X184360000Y-49400000D01*
X184360000Y-49400000D02*
X189800000Y-49400000D01*
X189800000Y-49400000D02*
X191100000Y-48100000D01*
X191100000Y-48100000D02*
X194300000Y-48100000D01*
X194300000Y-48100000D02*
X195400000Y-49200000D01*
X195400000Y-50800400D02*
X194700400Y-51500000D01*
X195400000Y-49200000D02*
X195400000Y-50800400D01*
M02*
