M48
; DRILL file {KiCad 5.1.7-a382d34a8~88~ubuntu20.04.1} date Sun Dec 13 14:33:17 2020
; FORMAT={-:-/ absolute / inch / decimal}
; #@! TF.CreationDate,2020-12-13T14:33:17-06:00
; #@! TF.GenerationSoftware,Kicad,Pcbnew,5.1.7-a382d34a8~88~ubuntu20.04.1
; #@! TF.FileFunction,Plated,1,4,PTH
FMAT,2
INCH
T1C0.0138
T2C0.0157
T3C0.0236
T4C0.0276
T5C0.0300
T6C0.0315
T7C0.0354
T8C0.0394
T9C0.0472
T10C0.0492
T11C0.0551
T12C0.0591
%
G90
G05
T1
X3.815Y-3.7205
X3.9291Y-3.5197
X3.9409Y-3.4764
X3.9921Y-2.5276
X4.0039Y-3.3228
X4.014Y-3.2253
X4.0231Y-3.7216
X4.0276Y-3.3465
X4.0415Y-3.2249
X4.0512Y-2.4488
X4.0691Y-3.2254
X4.0971Y-3.2269
X4.1502Y-3.7159
X4.2174Y-4.4641
X4.2293Y-4.3184
X4.2313Y-4.4892
X4.2323Y-4.2283
X4.252Y-4.2953
X4.311Y-4.1063
X4.3504Y-3.8307
X4.4024Y-3.6585
X4.4099Y-4.518
X4.4162Y-4.4911
X4.4488Y-4.0197
X4.5585Y-3.6328
X4.5591Y-3.9016
X4.5726Y-4.0731
X4.5906Y-3.6575
X4.6614Y-3.6535
X4.685Y-4.4803
X4.752Y-3.6732
X4.7638Y-3.9685
X4.7835Y-3.6024
X4.7884Y-3.4646
X4.8268Y-4.4685
X4.9094Y-3.2402
X4.9252Y-3.4646
X5.126Y-3.9134
X5.1457Y-4.0472
X5.2835Y-3.1535
X5.3661Y-4.4449
X5.3898Y-3.8661
X5.4134Y-3.9606
X5.4252Y-4.4488
X5.4488Y-4.4134
X5.4921Y-2.4803
X5.5669Y-2.5787
X5.5827Y-3.874
X5.5827Y-3.9646
X5.6102Y-3.878
X5.6457Y-5.0984
X5.6732Y-4.5906
X5.6772Y-4.1732
X5.6801Y-3.7113
X5.7756Y-4.5079
X5.8189Y-3.6457
X5.8308Y-3.7096
X5.8425Y-4.9567
X5.8543Y-3.8701
X5.8794Y-3.4958
X6.0354Y-4.0157
X6.0591Y-4.752
X6.1063Y-2.2047
X6.122Y-3.7008
X6.1509Y-4.0323
X6.1538Y-3.701
X6.1892Y-3.6976
X6.248Y-2.2717
X6.3346Y-4.6299
X6.4449Y-4.5669
X6.5Y-2.2402
X6.5157Y-4.5394
X6.6998Y-3.7411
X6.9724Y-2.3307
X7.0Y-3.688
X7.0591Y-3.6654
X7.1929Y-4.0472
X7.1929Y-4.248
X7.6004Y-2.3622
X7.6398Y-2.315
X7.686Y-3.8809
X7.6929Y-3.937
X7.7087Y-4.0472
X7.9409Y-4.8937
X7.9471Y-3.8723
X7.9665Y-4.1885
X8.0293Y-4.8905
T2
X3.6732Y-2.1398
X3.6732Y-3.061
X3.6811Y-2.5807
X3.878Y-5.2283
X3.9734Y-3.4419
X3.9925Y-5.2287
X4.248Y-4.0079
X4.252Y-4.0394
X4.3146Y-4.4596
X4.3153Y-4.0338
X4.3474Y-4.4661
X4.378Y-4.2717
X4.3822Y-4.0515
X4.3976Y-3.4094
X4.4094Y-2.4606
X4.4213Y-3.9961
X4.4252Y-4.3425
X4.4331Y-4.2756
X4.4803Y-3.9715
X4.5669Y-4.0354
X4.6102Y-4.0433
X4.7126Y-4.0079
X4.8041Y-3.3661
X4.8268Y-4.5787
X4.8504Y-4.1102
X4.8622Y-3.878
X4.9213Y-3.5827
X4.9252Y-3.622
X4.9291Y-4.2677
X4.9291Y-4.3465
X4.938Y-3.3711
X4.9646Y-4.6742
X4.9724Y-4.0945
X4.9803Y-3.9321
X5.0118Y-3.9291
X5.0341Y-4.0146
X5.0512Y-3.8583
X5.0591Y-3.248
X5.0591Y-3.2874
X5.0617Y-4.0719
X5.6565Y-4.5404
X5.6811Y-3.0394
X5.7008Y-3.937
X5.7009Y-3.7552
X5.7933Y-3.1673
X5.7953Y-3.1339
X5.8228Y-3.937
X5.8406Y-3.4469
X5.8425Y-3.7992
X5.8425Y-4.3228
X5.8465Y-3.9094
X5.8602Y-2.4665
X5.8799Y-3.313
X5.9582Y-4.3079
X5.9609Y-2.4209
X5.9803Y-3.2008
X5.9843Y-3.252
X5.9882Y-3.7205
X6.0394Y-4.1339
X6.0472Y-2.4528
X6.0718Y-3.1317
X6.0748Y-3.5394
X6.0787Y-3.5079
X6.0906Y-3.6969
X6.1024Y-3.311
X6.122Y-4.1339
X6.126Y-4.0481
X6.1678Y-3.3894
X6.1713Y-3.1673
X6.1768Y-3.7753
X6.1809Y-3.8067
X6.185Y-3.7323
X6.1956Y-3.8346
X6.1988Y-3.395
X6.1988Y-2.6476
X6.1995Y-3.455
X6.219Y-3.3662
X6.2244Y-2.7657
X6.2362Y-2.6154
X6.2454Y-3.3255
X6.2734Y-3.3112
X6.358Y-3.8263
X6.3927Y-3.2968
X6.4075Y-3.3246
X6.4213Y-4.8386
X6.4567Y-3.0945
X6.4646Y-4.8307
X6.5064Y-3.3627
X6.5098Y-3.6083
X6.5118Y-4.2067
X6.5551Y-3.0354
X6.563Y-4.9921
X6.5906Y-3.2028
X6.5906Y-3.8189
X6.6417Y-3.8268
X6.6535Y-4.4567
X6.6575Y-4.9921
X6.6872Y-3.7679
X6.7323Y-4.4606
X6.7441Y-3.0354
X6.7717Y-4.7402
X6.7717Y-4.815
X6.8268Y-3.1102
X6.8642Y-3.6083
X6.8661Y-4.1339
X6.8996Y-4.2047
X6.9193Y-3.0354
X7.063Y-4.1339
X7.19Y-3.5516
X7.2038Y-2.3078
X7.2205Y-3.7362
X7.2638Y-2.2441
X7.2815Y-5.1496
X7.4409Y-2.3819
X7.5394Y-2.4213
X7.5669Y-2.3189
X7.5925Y-2.4232
T3
X5.2067Y-4.0472
X5.6713Y-4.0512
X5.7185Y-5.0354
X5.9035Y-5.1575
X6.2126Y-5.1772
X6.2235Y-2.3924
X6.4411Y-3.671
X6.4484Y-4.2708
X6.4685Y-3.3396
X6.4709Y-3.497
X6.4902Y-3.9449
X6.4902Y-4.0472
X6.5256Y-2.7717
X6.5256Y-2.874
X6.5494Y-3.8002
X6.561Y-4.3819
X6.7087Y-4.1811
X6.7697Y-4.9587
X6.7756Y-4.6299
X6.8228Y-3.3524
X6.8351Y-3.6703
X6.8416Y-3.5
X6.8602Y-3.9449
X6.8602Y-4.0472
X6.8609Y-4.2628
X6.8681Y-2.7717
X6.8681Y-2.872
X6.8758Y-3.097
X6.9449Y-3.7913
X6.9665Y-4.372
X6.9902Y-3.2116
X7.0374Y-2.0551
X7.0866Y-4.1772
T4
X3.5492Y-5.3031
X3.5709Y-3.6378
X3.6181Y-5.3031
X3.6713Y-5.0669
X3.6772Y-3.3701
X3.685Y-2.8957
X3.7008Y-2.4626
X3.7913Y-3.5866
X3.8661Y-3.376
X3.872Y-2.8957
X3.8858Y-2.4606
X3.9154Y-5.3898
X4.0669Y-5.6299
X4.1277Y-3.1947
X4.1339Y-5.5098
X4.1732Y-4.4675
X4.2677Y-5.2638
X4.3937Y-3.1732
X4.6738Y-4.3022
X4.7126Y-4.8189
X4.7746Y-4.2953
X4.8976Y-4.685
X4.9764Y-4.4774
X5.0394Y-4.8494
X5.0669Y-4.5059
X5.3228Y-2.3898
X5.3681Y-3.9941
X5.5301Y-3.8415
X5.5591Y-5.0354
X5.6555Y-2.4055
X5.9075Y-4.9862
X5.9935Y-3.936
X6.1752Y-3.5453
X6.3288Y-2.5259
X6.3701Y-2.5866
X6.3898Y-2.0965
X7.4193Y-5.0965
X7.6654Y-2.563
X8.0669Y-2.2638
X7.5394Y-2.0276
X7.5704Y-1.9796
X7.6024Y-2.0276
X7.6344Y-1.9806
X7.6654Y-2.0276
T5
X3.6212Y-3.8958
X3.6212Y-3.9748
X3.6212Y-4.0533
X3.6212Y-4.1323
X3.6212Y-4.2108
X3.6212Y-4.2898
X3.6212Y-4.3683
X3.6212Y-4.4473
X3.6212Y-4.5258
X3.6212Y-4.6048
X3.6212Y-4.6833
X3.6212Y-4.7623
X3.7787Y-3.8568
X3.7787Y-3.9353
X3.7787Y-4.0143
X3.7787Y-4.0928
X3.7787Y-4.1718
X3.7787Y-4.2503
X3.7787Y-4.3293
X3.7787Y-4.4078
X3.7787Y-4.4868
X3.7787Y-4.5653
X3.7787Y-4.6443
X3.7787Y-4.7228
X3.7787Y-4.8018
T6
X3.998Y-4.9311
X3.998Y-5.0689
T8
X4.1375Y-3.1262
X4.3813Y-5.1331
X4.3957Y-3.1122
X4.4321Y-3.9202
X4.5768Y-4.498
X4.6122Y-3.5512
X4.6142Y-3.2717
X4.752Y-3.4075
X4.9035Y-3.125
X5.2841Y-4.7769
X5.2933Y-3.3937
X5.2953Y-3.6102
X5.3583Y-4.2323
X5.3701Y-2.8484
X5.4921Y-3.3937
X5.4921Y-3.6102
X5.6063Y-4.2559
X5.6427Y-4.319
X5.7345Y-3.1789
X5.7402Y-3.0364
X5.9262Y-4.8955
X5.942Y-2.7671
X6.003Y-4.5374
X6.1969Y-3.9162
X6.2402Y-4.9134
X6.2421Y-4.7185
X6.3201Y-3.9642
X6.4587Y-4.7165
X6.4587Y-4.9154
X6.9035Y-1.9252
X6.9882Y-1.9409
X7.3209Y-5.5433
X7.8307Y-2.2008
X8.0807Y-2.3435
X7.1929Y-2.0102
X7.1929Y-2.1102
X7.2929Y-2.0102
X7.2929Y-2.1102
X4.4457Y-2.3957
X4.5457Y-2.3957
X4.6457Y-2.3957
X4.7457Y-2.3957
X4.8457Y-2.3957
T9
X7.7992Y-5.1122
X7.7992Y-5.3091
X4.7144Y-1.8402
X4.7144Y-1.9587
X4.9114Y-2.1557
X5.1084Y-1.8402
X5.1084Y-1.9587
X4.116Y-1.8402
X4.116Y-1.9587
X4.313Y-2.1557
X4.51Y-1.8402
X4.51Y-1.9587
T10
X5.0353Y-4.7727
X5.1816Y-4.2278
X5.3224Y-4.9783
X5.7736Y-4.9843
X6.1949Y-2.9419
X6.5028Y-2.4664
X6.998Y-2.4882
X7.4193Y-5.2067
T11
X7.8602Y-2.8193
X7.8602Y-2.9847
X7.8602Y-3.15
X7.8602Y-3.3154
X7.8602Y-3.4807
X7.8602Y-3.6461
X7.8602Y-3.8114
X7.8602Y-3.9768
X7.8602Y-4.1421
X7.8602Y-4.3075
X7.8602Y-4.4729
X7.8602Y-4.6382
X8.0767Y-2.8193
X8.0767Y-2.9847
X8.0767Y-3.15
X8.0767Y-3.3154
X8.0767Y-3.4807
X8.0767Y-3.6461
X8.0767Y-3.8114
X8.0767Y-3.9768
X8.0767Y-4.1421
X8.0767Y-4.3075
X8.0767Y-4.4729
X8.0767Y-4.6382
X7.315Y-2.8228
X7.315Y-2.9882
X7.315Y-3.1535
X7.315Y-3.3189
X7.315Y-3.4843
X7.315Y-3.6496
X7.315Y-3.815
X7.315Y-3.9803
X7.315Y-4.1457
X7.315Y-4.311
X7.315Y-4.4764
X7.315Y-4.6417
X7.5315Y-2.8228
X7.5315Y-2.9882
X7.5315Y-3.1535
X7.5315Y-3.3189
X7.5315Y-3.4843
X7.5315Y-3.6496
X7.5315Y-3.815
X7.5315Y-3.9803
X7.5315Y-4.1457
X7.5315Y-4.311
X7.5315Y-4.4764
X7.5315Y-4.6417
X4.6181Y-5.3425
X4.6181Y-5.5591
X4.7835Y-5.3425
X4.7835Y-5.5591
X4.9488Y-5.3425
X4.9488Y-5.5591
X5.1142Y-5.3425
X5.1142Y-5.5591
X5.2795Y-5.3425
X5.2795Y-5.5591
X5.4449Y-5.3425
X5.4449Y-5.5591
X5.6102Y-5.3425
X5.6102Y-5.5591
X5.7756Y-5.3425
X5.7756Y-5.5591
X5.9409Y-5.3425
X5.9409Y-5.5591
X6.1063Y-5.3425
X6.1063Y-5.5591
X6.2717Y-5.3425
X6.2717Y-5.5591
X6.437Y-5.3425
X6.437Y-5.5591
T4
G00X7.4584Y-1.8049
M15
G01X7.4584Y-1.8522
M16
G05
G00X7.7454Y-1.8049
M15
G01X7.7454Y-1.8522
M16
G05
T7
G00X4.7144Y-2.1419
M15
G01X4.7144Y-2.1694
M16
G05
G00X4.8129Y-2.1419
M15
G01X4.8129Y-2.1694
M16
G05
G00X4.8976Y-1.9587
M15
G01X4.9252Y-1.9587
M16
G05
G00X5.0099Y-2.1419
M15
G01X5.0099Y-2.1694
M16
G05
G00X5.1084Y-2.1419
M15
G01X5.1084Y-2.1694
M16
G05
G00X4.116Y-2.1419
M15
G01X4.116Y-2.1694
M16
G05
G00X4.2145Y-2.1419
M15
G01X4.2145Y-2.1694
M16
G05
G00X4.2992Y-1.9587
M15
G01X4.3268Y-1.9587
M16
G05
G00X4.4115Y-2.1419
M15
G01X4.4115Y-2.1694
M16
G05
G00X4.51Y-2.1419
M15
G01X4.51Y-2.1694
M16
G05
T12
G00X5.9065Y-2.1586
M15
G01X5.9065Y-2.2373
M16
G05
G00X6.1309Y-2.0798
M15
G01X6.0522Y-2.0798
M16
G05
G00X6.1309Y-2.3161
M15
G01X6.0522Y-2.3161
M16
G05
G00X5.3071Y-2.1535
M15
G01X5.3071Y-2.2323
M16
G05
G00X5.5315Y-2.0748
M15
G01X5.4528Y-2.0748
M16
G05
G00X5.5315Y-2.311
M15
G01X5.4528Y-2.311
M16
G05
G00X6.9567Y-5.1535
M15
G01X7.0354Y-5.1535
M16
G05
G00X6.9567Y-5.3898
M15
G01X7.0354Y-5.3898
M16
G05
G00X7.1811Y-5.311
M15
G01X7.1811Y-5.2323
M16
G05
T0
M30
