G04 #@! TF.GenerationSoftware,KiCad,Pcbnew,5.1.7-a382d34a8~88~ubuntu20.04.1*
G04 #@! TF.CreationDate,2020-12-13T14:38:39-06:00*
G04 #@! TF.ProjectId,open-dash-daughterboard,6f70656e-2d64-4617-9368-2d6461756768,rev?*
G04 #@! TF.SameCoordinates,Original*
G04 #@! TF.FileFunction,Soldermask,Bot*
G04 #@! TF.FilePolarity,Negative*
%FSLAX46Y46*%
G04 Gerber Fmt 4.6, Leading zero omitted, Abs format (unit mm)*
G04 Created by KiCad (PCBNEW 5.1.7-a382d34a8~88~ubuntu20.04.1) date 2020-12-13 14:38:39*
%MOMM*%
%LPD*%
G01*
G04 APERTURE LIST*
%ADD10O,2.100000X2.100000*%
%ADD11C,2.800000*%
%ADD12C,2.000000*%
%ADD13O,3.700000X3.100000*%
%ADD14C,3.400000*%
%ADD15C,1.700000*%
%ADD16O,2.900000X2.200000*%
%ADD17O,2.200000X2.900000*%
%ADD18O,2.100000X3.300000*%
%ADD19O,1.400000X1.700000*%
%ADD20C,1.924000*%
%ADD21O,3.100000X3.700000*%
%ADD22C,5.400000*%
%ADD23C,1.000000*%
%ADD24C,1.400000*%
%ADD25C,2.400000*%
%ADD26C,1.900000*%
%ADD27C,1.200000*%
%ADD28C,2.900000*%
%ADD29C,0.900000*%
G04 APERTURE END LIST*
D10*
X185240000Y-51060000D03*
X185240000Y-53600000D03*
X182700000Y-51060000D03*
G36*
G01*
X183550000Y-54650000D02*
X181850000Y-54650000D01*
G75*
G02*
X181650000Y-54450000I0J200000D01*
G01*
X181650000Y-52750000D01*
G75*
G02*
X181850000Y-52550000I200000J0D01*
G01*
X183550000Y-52550000D01*
G75*
G02*
X183750000Y-52750000I0J-200000D01*
G01*
X183750000Y-54450000D01*
G75*
G02*
X183550000Y-54650000I-200000J0D01*
G01*
G37*
G36*
G01*
X196900000Y-128450000D02*
X199300000Y-128450000D01*
G75*
G02*
X199500000Y-128650000I0J-200000D01*
G01*
X199500000Y-131050000D01*
G75*
G02*
X199300000Y-131250000I-200000J0D01*
G01*
X196900000Y-131250000D01*
G75*
G02*
X196700000Y-131050000I0J200000D01*
G01*
X196700000Y-128650000D01*
G75*
G02*
X196900000Y-128450000I200000J0D01*
G01*
G37*
D11*
X198100000Y-134850000D03*
G36*
G01*
X100750000Y-124250000D02*
X102350000Y-124250000D01*
G75*
G02*
X102550000Y-124450000I0J-200000D01*
G01*
X102550000Y-126050000D01*
G75*
G02*
X102350000Y-126250000I-200000J0D01*
G01*
X100750000Y-126250000D01*
G75*
G02*
X100550000Y-126050000I0J200000D01*
G01*
X100550000Y-124450000D01*
G75*
G02*
X100750000Y-124250000I200000J0D01*
G01*
G37*
D12*
X101550000Y-128750000D03*
G36*
G01*
X203585438Y-70060600D02*
X206711362Y-70060600D01*
G75*
G02*
X206998400Y-70347638I0J-287038D01*
G01*
X206998400Y-72873562D01*
G75*
G02*
X206711362Y-73160600I-287038J0D01*
G01*
X203585438Y-73160600D01*
G75*
G02*
X203298400Y-72873562I0J287038D01*
G01*
X203298400Y-70347638D01*
G75*
G02*
X203585438Y-70060600I287038J0D01*
G01*
G37*
D13*
X205148400Y-75810600D03*
X205148400Y-80010600D03*
X205148400Y-84210600D03*
X205148400Y-88410600D03*
X205148400Y-92610600D03*
X205148400Y-96810600D03*
X205148400Y-101010600D03*
X205148400Y-105210600D03*
X205148400Y-109410600D03*
X205148400Y-113610600D03*
X205148400Y-117810600D03*
X199648400Y-71610600D03*
X199648400Y-75810600D03*
X199648400Y-80010600D03*
X199648400Y-84210600D03*
X199648400Y-88410600D03*
X199648400Y-92610600D03*
X199648400Y-96810600D03*
X199648400Y-101010600D03*
X199648400Y-105210600D03*
X199648400Y-109410600D03*
X199648400Y-113610600D03*
X199648400Y-117810600D03*
D14*
X200108400Y-66910600D03*
X200108400Y-122510600D03*
G36*
G01*
X183250000Y-136350000D02*
X181550000Y-136350000D01*
G75*
G02*
X180700000Y-135500000I0J850000D01*
G01*
X180700000Y-132300000D01*
G75*
G02*
X181550000Y-131450000I850000J0D01*
G01*
X183250000Y-131450000D01*
G75*
G02*
X184100000Y-132300000I0J-850000D01*
G01*
X184100000Y-135500000D01*
G75*
G02*
X183250000Y-136350000I-850000J0D01*
G01*
G37*
G36*
G01*
X179300000Y-138600000D02*
X176100000Y-138600000D01*
G75*
G02*
X175250000Y-137750000I0J850000D01*
G01*
X175250000Y-136050000D01*
G75*
G02*
X176100000Y-135200000I850000J0D01*
G01*
X179300000Y-135200000D01*
G75*
G02*
X180150000Y-136050000I0J-850000D01*
G01*
X180150000Y-137750000D01*
G75*
G02*
X179300000Y-138600000I-850000J0D01*
G01*
G37*
G36*
G01*
X179300000Y-132600000D02*
X176100000Y-132600000D01*
G75*
G02*
X175250000Y-131750000I0J850000D01*
G01*
X175250000Y-130050000D01*
G75*
G02*
X176100000Y-129200000I850000J0D01*
G01*
X179300000Y-129200000D01*
G75*
G02*
X180150000Y-130050000I0J-850000D01*
G01*
X180150000Y-131750000D01*
G75*
G02*
X179300000Y-132600000I-850000J0D01*
G01*
G37*
G36*
G01*
X137900000Y-57000000D02*
X141100000Y-57000000D01*
G75*
G02*
X141950000Y-57850000I0J-850000D01*
G01*
X141950000Y-59550000D01*
G75*
G02*
X141100000Y-60400000I-850000J0D01*
G01*
X137900000Y-60400000D01*
G75*
G02*
X137050000Y-59550000I0J850000D01*
G01*
X137050000Y-57850000D01*
G75*
G02*
X137900000Y-57000000I850000J0D01*
G01*
G37*
G36*
G01*
X137900000Y-51000000D02*
X141100000Y-51000000D01*
G75*
G02*
X141950000Y-51850000I0J-850000D01*
G01*
X141950000Y-53550000D01*
G75*
G02*
X141100000Y-54400000I-850000J0D01*
G01*
X137900000Y-54400000D01*
G75*
G02*
X137050000Y-53550000I0J850000D01*
G01*
X137050000Y-51850000D01*
G75*
G02*
X137900000Y-51000000I850000J0D01*
G01*
G37*
G36*
G01*
X133950000Y-53250000D02*
X135650000Y-53250000D01*
G75*
G02*
X136500000Y-54100000I0J-850000D01*
G01*
X136500000Y-57300000D01*
G75*
G02*
X135650000Y-58150000I-850000J0D01*
G01*
X133950000Y-58150000D01*
G75*
G02*
X133100000Y-57300000I0J850000D01*
G01*
X133100000Y-54100000D01*
G75*
G02*
X133950000Y-53250000I850000J0D01*
G01*
G37*
G36*
G01*
X149176000Y-53378000D02*
X150876000Y-53378000D01*
G75*
G02*
X151726000Y-54228000I0J-850000D01*
G01*
X151726000Y-57428000D01*
G75*
G02*
X150876000Y-58278000I-850000J0D01*
G01*
X149176000Y-58278000D01*
G75*
G02*
X148326000Y-57428000I0J850000D01*
G01*
X148326000Y-54228000D01*
G75*
G02*
X149176000Y-53378000I850000J0D01*
G01*
G37*
G36*
G01*
X153126000Y-51128000D02*
X156326000Y-51128000D01*
G75*
G02*
X157176000Y-51978000I0J-850000D01*
G01*
X157176000Y-53678000D01*
G75*
G02*
X156326000Y-54528000I-850000J0D01*
G01*
X153126000Y-54528000D01*
G75*
G02*
X152276000Y-53678000I0J850000D01*
G01*
X152276000Y-51978000D01*
G75*
G02*
X153126000Y-51128000I850000J0D01*
G01*
G37*
G36*
G01*
X153126000Y-57128000D02*
X156326000Y-57128000D01*
G75*
G02*
X157176000Y-57978000I0J-850000D01*
G01*
X157176000Y-59678000D01*
G75*
G02*
X156326000Y-60528000I-850000J0D01*
G01*
X153126000Y-60528000D01*
G75*
G02*
X152276000Y-59678000I0J850000D01*
G01*
X152276000Y-57978000D01*
G75*
G02*
X153126000Y-57128000I850000J0D01*
G01*
G37*
D15*
X114553800Y-46740100D03*
X104546200Y-46740100D03*
X104546200Y-49750000D03*
X114553800Y-49750000D03*
D16*
X109550000Y-49750000D03*
D15*
X109550000Y-54753800D03*
D17*
X114553800Y-54753800D03*
X104546200Y-54753800D03*
X107048100Y-54753800D03*
X112051900Y-54753800D03*
G36*
G01*
X113770000Y-61900000D02*
X112070000Y-61900000D01*
G75*
G02*
X111870000Y-61700000I0J200000D01*
G01*
X111870000Y-60000000D01*
G75*
G02*
X112070000Y-59800000I200000J0D01*
G01*
X113770000Y-59800000D01*
G75*
G02*
X113970000Y-60000000I0J-200000D01*
G01*
X113970000Y-61700000D01*
G75*
G02*
X113770000Y-61900000I-200000J0D01*
G01*
G37*
D10*
X115460000Y-60850000D03*
X118000000Y-60850000D03*
X120540000Y-60850000D03*
X123080000Y-60850000D03*
D17*
X127251900Y-54753800D03*
X122248100Y-54753800D03*
X119746200Y-54753800D03*
X129753800Y-54753800D03*
D15*
X124750000Y-54753800D03*
D16*
X124750000Y-49750000D03*
D15*
X129753800Y-49750000D03*
X119746200Y-49750000D03*
X119746200Y-46740100D03*
X129753800Y-46740100D03*
D18*
X196732400Y-46445400D03*
X189442600Y-46445400D03*
D19*
X193100200Y-51500000D03*
X192287400Y-50280800D03*
X193913000Y-50306200D03*
X194700400Y-51500000D03*
X191500000Y-51500000D03*
D20*
X91979500Y-114955600D03*
X91979500Y-112961700D03*
X91979500Y-104960700D03*
X91979500Y-118956100D03*
X91979500Y-108961200D03*
X91979500Y-116962200D03*
X91979500Y-106954600D03*
X91979500Y-110955100D03*
X91979500Y-98953600D03*
X91979500Y-120962700D03*
X91979500Y-100960200D03*
X91979500Y-102954100D03*
X95980000Y-103957400D03*
X95980000Y-101963500D03*
X95980000Y-97963000D03*
X95980000Y-99956900D03*
X95980000Y-105964000D03*
X95980000Y-111958400D03*
X95980000Y-109964500D03*
X95980000Y-107957900D03*
X95980000Y-113965000D03*
X95980000Y-115958900D03*
X95980000Y-117965500D03*
X95980000Y-119959400D03*
X95980000Y-121966000D03*
G36*
G01*
X165050000Y-139637038D02*
X165050000Y-142762962D01*
G75*
G02*
X164762962Y-143050000I-287038J0D01*
G01*
X162237038Y-143050000D01*
G75*
G02*
X161950000Y-142762962I0J287038D01*
G01*
X161950000Y-139637038D01*
G75*
G02*
X162237038Y-139350000I287038J0D01*
G01*
X164762962Y-139350000D01*
G75*
G02*
X165050000Y-139637038I0J-287038D01*
G01*
G37*
D21*
X159300000Y-141200000D03*
X155100000Y-141200000D03*
X150900000Y-141200000D03*
X146700000Y-141200000D03*
X142500000Y-141200000D03*
X138300000Y-141200000D03*
X134100000Y-141200000D03*
X129900000Y-141200000D03*
X125700000Y-141200000D03*
X121500000Y-141200000D03*
X117300000Y-141200000D03*
X163500000Y-135700000D03*
X159300000Y-135700000D03*
X155100000Y-135700000D03*
X150900000Y-135700000D03*
X146700000Y-135700000D03*
X142500000Y-135700000D03*
X138300000Y-135700000D03*
X134100000Y-135700000D03*
X129900000Y-135700000D03*
X125700000Y-135700000D03*
X121500000Y-135700000D03*
X117300000Y-135700000D03*
D14*
X168200000Y-136160000D03*
X112600000Y-136160000D03*
G36*
G01*
X189737038Y-70150000D02*
X192862962Y-70150000D01*
G75*
G02*
X193150000Y-70437038I0J-287038D01*
G01*
X193150000Y-72962962D01*
G75*
G02*
X192862962Y-73250000I-287038J0D01*
G01*
X189737038Y-73250000D01*
G75*
G02*
X189450000Y-72962962I0J287038D01*
G01*
X189450000Y-70437038D01*
G75*
G02*
X189737038Y-70150000I287038J0D01*
G01*
G37*
D13*
X191300000Y-75900000D03*
X191300000Y-80100000D03*
X191300000Y-84300000D03*
X191300000Y-88500000D03*
X191300000Y-92700000D03*
X191300000Y-96900000D03*
X191300000Y-101100000D03*
X191300000Y-105300000D03*
X191300000Y-109500000D03*
X191300000Y-113700000D03*
X191300000Y-117900000D03*
X185800000Y-71700000D03*
X185800000Y-75900000D03*
X185800000Y-80100000D03*
X185800000Y-84300000D03*
X185800000Y-88500000D03*
X185800000Y-92700000D03*
X185800000Y-96900000D03*
X185800000Y-101100000D03*
X185800000Y-105300000D03*
X185800000Y-109500000D03*
X185800000Y-113700000D03*
X185800000Y-117900000D03*
D14*
X186260000Y-67000000D03*
X186260000Y-122600000D03*
D22*
X92100500Y-140799500D03*
X204487900Y-140786800D03*
X204538700Y-48775300D03*
X92113200Y-48788000D03*
D23*
X165400000Y-106850000D03*
X165350000Y-91650000D03*
X174350000Y-91650000D03*
X175750000Y-77100000D03*
X166500000Y-77100000D03*
D24*
X150050000Y-126650000D03*
D25*
X146650000Y-126600000D03*
X188450000Y-132250000D03*
D23*
X184950000Y-130800000D03*
D24*
X161800000Y-65700000D03*
X91900000Y-134700000D03*
X141200010Y-127900000D03*
X160751062Y-64158608D03*
D23*
X126100000Y-118725000D03*
X175250000Y-106800010D03*
D26*
X177500000Y-49300000D03*
D24*
X128000000Y-123174990D03*
D26*
X185950000Y-140800000D03*
X158500000Y-124800000D03*
X158550000Y-119850000D03*
X164050000Y-119800000D03*
X164050000Y-124850000D03*
X120700000Y-86550000D03*
X117200000Y-83100000D03*
X117150000Y-90200000D03*
X111650000Y-79050000D03*
X134450000Y-86200000D03*
X139500000Y-86200000D03*
X139500000Y-91700000D03*
X134500000Y-91700000D03*
D27*
X165750000Y-70400000D03*
X165750000Y-73000000D03*
X174450000Y-70400000D03*
X174450000Y-72950000D03*
X173300000Y-85150000D03*
X174250000Y-102800000D03*
X174250000Y-100200000D03*
X164850000Y-100200000D03*
X164850000Y-102800000D03*
X172100000Y-117600000D03*
X171950000Y-125950000D03*
X145250000Y-127900000D03*
X149950000Y-131000000D03*
X166650000Y-111300000D03*
X176950000Y-111050000D03*
X132250000Y-102800000D03*
X144050000Y-102900000D03*
X176400000Y-96300000D03*
D24*
X194700000Y-65100000D03*
X204900000Y-57500000D03*
D28*
X177750000Y-63200000D03*
D26*
X175350000Y-48900000D03*
D24*
X162300000Y-53250000D03*
X188450000Y-129450000D03*
X124400000Y-119000000D03*
X128700000Y-114450000D03*
D26*
X142400000Y-108100000D03*
D24*
X93400000Y-85600000D03*
X98200000Y-85750000D03*
X98350000Y-73550000D03*
X93600000Y-73550000D03*
X94000000Y-62550000D03*
X98700000Y-62500000D03*
X90150000Y-134700000D03*
X93250000Y-128700000D03*
X108400000Y-133700000D03*
X105000000Y-139950000D03*
X103300000Y-143000000D03*
X90700000Y-92400000D03*
X135200000Y-60700000D03*
X143650000Y-61100000D03*
D23*
X192200000Y-58900000D03*
X192850000Y-61550000D03*
X157450000Y-67250000D03*
D27*
X174644094Y-78664411D03*
D23*
X167400000Y-81350000D03*
X164000000Y-78600000D03*
D27*
X163789226Y-108479544D03*
X174265623Y-108275020D03*
D26*
X134215999Y-121332999D03*
X150925600Y-70285400D03*
D27*
X178750000Y-52200000D03*
D26*
X112575010Y-99574218D03*
D23*
X144300000Y-77200000D03*
X151900000Y-81300000D03*
X152000000Y-82600000D03*
D29*
X149336104Y-88792498D03*
D24*
X119700000Y-122400000D03*
D23*
X98500000Y-132800000D03*
D24*
X99450000Y-136900000D03*
D23*
X101410154Y-132810154D03*
D24*
X126400000Y-113725000D03*
D23*
X143675000Y-115325000D03*
D27*
X177551654Y-81574990D03*
D23*
X128300000Y-98000000D03*
D24*
X106000000Y-113474990D03*
D27*
X163605014Y-93242271D03*
X166354545Y-96525054D03*
D26*
X136400000Y-72350000D03*
D23*
X148400032Y-109800000D03*
D27*
X173612212Y-93225010D03*
X164300000Y-84824935D03*
X164359701Y-88825010D03*
X173775460Y-88900780D03*
D28*
X157350000Y-74724990D03*
D26*
X105092573Y-79405426D03*
D24*
X96300000Y-91100000D03*
D26*
X124550000Y-79375010D03*
X150524990Y-124346361D03*
X111283918Y-130380778D03*
D28*
X127896147Y-121227745D03*
X135189123Y-126447912D03*
D26*
X143324990Y-109701760D03*
D28*
X165171793Y-62645874D03*
D24*
X118715000Y-109275000D03*
X121275000Y-109100000D03*
D26*
X205250000Y-59525000D03*
D23*
X93300000Y-77750000D03*
X148850000Y-62650000D03*
X158100000Y-70250000D03*
X155000000Y-84100000D03*
X149350000Y-84150000D03*
X147150000Y-80450000D03*
X148350000Y-87550000D03*
D24*
X156850000Y-90050000D03*
D23*
X156750000Y-80450000D03*
D24*
X111600000Y-80600000D03*
X136350000Y-101450000D03*
D23*
X93300000Y-54350000D03*
X93500000Y-65550000D03*
D26*
X116250000Y-114250000D03*
D23*
X158400000Y-66430000D03*
D26*
X136100000Y-107500000D03*
D23*
X122600000Y-116300000D03*
X154224980Y-79544520D03*
D26*
X152475010Y-115250000D03*
D23*
X151337847Y-109421745D03*
X148400000Y-96500000D03*
X152100000Y-94500000D03*
D24*
X140465399Y-97574990D03*
X104842573Y-81144952D03*
D28*
X131613701Y-107386299D03*
D24*
X152235273Y-99973624D03*
D26*
X157401144Y-99472271D03*
D27*
X158078012Y-60767113D03*
D26*
X160530195Y-100690090D03*
X145655214Y-80744276D03*
X145800000Y-77124990D03*
D29*
X102300000Y-85000000D03*
X102654983Y-81913436D03*
X103354876Y-81926333D03*
X99800000Y-89400000D03*
X101700000Y-84400000D03*
X101955036Y-81922949D03*
X104066002Y-81964232D03*
X100100000Y-88300000D03*
X193050000Y-60000000D03*
X194050000Y-58800000D03*
D27*
X157800000Y-131500000D03*
D26*
X198900000Y-55900000D03*
D29*
X156306594Y-94006594D03*
X177800000Y-93675010D03*
D23*
X154700000Y-93900000D03*
X182626456Y-90210354D03*
D29*
X155500000Y-94000000D03*
X179300000Y-93100000D03*
D23*
X154400000Y-89100000D03*
X154300000Y-89900000D03*
X157466158Y-87755907D03*
D29*
X195224990Y-98575010D03*
X195400000Y-100000000D03*
X157206594Y-93919782D03*
X170173731Y-95025021D03*
D27*
X170400000Y-106200000D03*
X180000000Y-106100000D03*
D23*
X125200000Y-110400000D03*
X125200000Y-108400000D03*
X127300000Y-99800000D03*
D29*
X119000000Y-113800000D03*
X122600000Y-113500000D03*
X177100000Y-59200000D03*
X102900000Y-62200000D03*
X101400000Y-64200000D03*
D23*
X127866452Y-101971432D03*
D29*
X107475201Y-114024799D03*
X112010489Y-114756018D03*
D23*
X153600000Y-62300000D03*
D29*
X201700000Y-124300000D03*
X203945185Y-124218405D03*
X202348380Y-106387733D03*
D23*
X147200000Y-79600000D03*
X171300000Y-77100000D03*
X173400000Y-79000000D03*
D29*
X142500000Y-98500000D03*
X144200000Y-106000000D03*
X144100000Y-116600000D03*
X143400000Y-129500000D03*
D23*
X166700000Y-126800000D03*
X169100000Y-126800000D03*
D29*
X195800000Y-102800000D03*
X182700000Y-102800000D03*
X182700000Y-107900000D03*
X165500000Y-115300000D03*
X163700000Y-116000000D03*
X153900000Y-120700000D03*
X201856594Y-98356594D03*
X160900000Y-117600000D03*
D23*
X119700000Y-101800000D03*
X144800000Y-100000000D03*
X147900000Y-100000000D03*
X183400000Y-94900000D03*
X128567987Y-103425010D03*
D29*
X153300000Y-102000000D03*
D23*
X108000000Y-102600000D03*
X112300000Y-101500000D03*
X116000000Y-102500000D03*
X123200000Y-104400000D03*
X107900000Y-101800000D03*
X117100000Y-102700000D03*
X126300000Y-104000000D03*
X113800000Y-100874990D03*
D29*
X120700000Y-93300000D03*
D23*
X148500000Y-99300000D03*
X179400000Y-105000000D03*
X155600010Y-102820860D03*
D29*
X116600000Y-92900000D03*
X118400000Y-92800000D03*
X121500000Y-91500000D03*
X148700000Y-98300000D03*
X156233713Y-102419690D03*
D23*
X125425032Y-85625803D03*
X122024979Y-85500000D03*
X128500000Y-83500000D03*
X189000000Y-60500000D03*
X128500000Y-82500000D03*
X191500000Y-61500000D03*
X157449959Y-86232148D03*
X156662406Y-86091508D03*
D29*
X108000000Y-109100011D03*
X107120780Y-113388969D03*
X158700000Y-57700000D03*
X155100000Y-56000000D03*
X112172492Y-114075010D03*
D23*
X112000000Y-62500000D03*
X184500000Y-57000000D03*
X182976279Y-58618711D03*
D29*
X115800000Y-99100000D03*
X121000000Y-100800000D03*
X130700000Y-102800000D03*
X136300000Y-112900000D03*
X146700000Y-114500000D03*
X115786945Y-92273890D03*
X165100000Y-56900000D03*
X139500000Y-63000000D03*
X124700000Y-82300000D03*
D23*
X151407877Y-61492123D03*
D29*
X134200000Y-80100000D03*
X141400000Y-65500000D03*
X107500000Y-107400000D03*
X110500000Y-97300000D03*
X125100000Y-88000000D03*
X121624968Y-88000000D03*
X111820050Y-92924990D03*
X107424990Y-109687008D03*
D23*
X111700000Y-86600000D03*
X100925010Y-87423327D03*
D29*
X96900000Y-94500000D03*
D23*
X162375443Y-83737806D03*
X159344729Y-84104231D03*
X158632657Y-84468885D03*
X162750285Y-84444567D03*
X165261943Y-85413583D03*
X157961984Y-85500439D03*
X157367787Y-97399080D03*
X161493432Y-97187913D03*
X168700000Y-97200000D03*
X156891949Y-95891949D03*
X157100000Y-94800000D03*
X169855011Y-95703943D03*
X167400000Y-97000000D03*
X156995304Y-96691073D03*
X169000000Y-113200000D03*
X171000000Y-113300000D03*
X125100000Y-92000000D03*
X110423050Y-113439928D03*
X164200000Y-122700000D03*
X172000000Y-120400000D03*
X172000000Y-122300000D03*
X163100000Y-122900000D03*
X125000000Y-91000000D03*
X109591889Y-113274990D03*
D29*
X141800000Y-100700000D03*
X138400000Y-112100000D03*
X141800000Y-98400000D03*
X136900000Y-98200000D03*
X137500000Y-100600000D03*
X137800000Y-113000000D03*
X148400000Y-125900000D03*
D23*
X112400000Y-110300000D03*
X112600000Y-108600000D03*
X111308051Y-102908051D03*
X109608029Y-102458051D03*
D29*
X105415000Y-94385000D03*
X102185600Y-94529804D03*
D23*
X123500000Y-98500000D03*
X126500000Y-99874968D03*
X144801841Y-95381533D03*
D29*
X148101886Y-94223573D03*
X147800000Y-92600000D03*
X130200000Y-99400000D03*
X113000000Y-102100000D03*
X109500000Y-104300000D03*
X116143406Y-103456594D03*
X144274001Y-94265938D03*
D23*
X111200000Y-108500000D03*
X174400000Y-105000000D03*
X155500000Y-105000000D03*
X153400000Y-105000000D03*
M02*
