G04 #@! TF.GenerationSoftware,KiCad,Pcbnew,5.1.7-a382d34a88~90~ubuntu20.04.1*
G04 #@! TF.CreationDate,2022-01-04T17:50:44-06:00*
G04 #@! TF.ProjectId,open-dash-daughterboard,6f70656e-2d64-4617-9368-2d6461756768,rev?*
G04 #@! TF.SameCoordinates,Original*
G04 #@! TF.FileFunction,Paste,Top*
G04 #@! TF.FilePolarity,Positive*
%FSLAX46Y46*%
G04 Gerber Fmt 4.6, Leading zero omitted, Abs format (unit mm)*
G04 Created by KiCad (PCBNEW 5.1.7-a382d34a88~90~ubuntu20.04.1) date 2022-01-04 17:50:44*
%MOMM*%
%LPD*%
G01*
G04 APERTURE LIST*
%ADD10R,0.800000X0.900000*%
%ADD11R,1.270000X0.325000*%
%ADD12R,0.900000X0.800000*%
%ADD13R,2.100000X1.800000*%
%ADD14R,0.900000X1.200000*%
%ADD15R,0.600000X0.450000*%
%ADD16R,0.300000X1.400000*%
%ADD17R,1.400000X0.300000*%
%ADD18R,1.500000X2.000000*%
%ADD19R,3.800000X2.000000*%
%ADD20R,1.780000X2.000000*%
%ADD21R,2.000000X1.780000*%
%ADD22R,2.000000X0.900000*%
%ADD23R,0.900000X2.000000*%
%ADD24R,5.000000X5.000000*%
%ADD25R,1.000000X3.150000*%
%ADD26R,3.150000X1.000000*%
%ADD27R,1.550000X1.300000*%
%ADD28R,1.100000X4.600000*%
%ADD29R,5.250000X4.550000*%
%ADD30R,4.600000X1.100000*%
%ADD31R,4.550000X5.250000*%
%ADD32R,2.300000X3.500000*%
G04 APERTURE END LIST*
G36*
G01*
X204640000Y-59825000D02*
X204960000Y-59825000D01*
G75*
G02*
X205120000Y-59985000I0J-160000D01*
G01*
X205120000Y-60380000D01*
G75*
G02*
X204960000Y-60540000I-160000J0D01*
G01*
X204640000Y-60540000D01*
G75*
G02*
X204480000Y-60380000I0J160000D01*
G01*
X204480000Y-59985000D01*
G75*
G02*
X204640000Y-59825000I160000J0D01*
G01*
G37*
G36*
G01*
X204640000Y-58630000D02*
X204960000Y-58630000D01*
G75*
G02*
X205120000Y-58790000I0J-160000D01*
G01*
X205120000Y-59185000D01*
G75*
G02*
X204960000Y-59345000I-160000J0D01*
G01*
X204640000Y-59345000D01*
G75*
G02*
X204480000Y-59185000I0J160000D01*
G01*
X204480000Y-58790000D01*
G75*
G02*
X204640000Y-58630000I160000J0D01*
G01*
G37*
G36*
G01*
X140860000Y-107487500D02*
X140540000Y-107487500D01*
G75*
G02*
X140380000Y-107327500I0J160000D01*
G01*
X140380000Y-106932500D01*
G75*
G02*
X140540000Y-106772500I160000J0D01*
G01*
X140860000Y-106772500D01*
G75*
G02*
X141020000Y-106932500I0J-160000D01*
G01*
X141020000Y-107327500D01*
G75*
G02*
X140860000Y-107487500I-160000J0D01*
G01*
G37*
G36*
G01*
X140860000Y-108682500D02*
X140540000Y-108682500D01*
G75*
G02*
X140380000Y-108522500I0J160000D01*
G01*
X140380000Y-108127500D01*
G75*
G02*
X140540000Y-107967500I160000J0D01*
G01*
X140860000Y-107967500D01*
G75*
G02*
X141020000Y-108127500I0J-160000D01*
G01*
X141020000Y-108522500D01*
G75*
G02*
X140860000Y-108682500I-160000J0D01*
G01*
G37*
D10*
X143150000Y-106500000D03*
X144100000Y-108500000D03*
X142200000Y-108500000D03*
G36*
G01*
X124700000Y-77825000D02*
X124700000Y-77515000D01*
G75*
G02*
X124855000Y-77360000I155000J0D01*
G01*
X125280000Y-77360000D01*
G75*
G02*
X125435000Y-77515000I0J-155000D01*
G01*
X125435000Y-77825000D01*
G75*
G02*
X125280000Y-77980000I-155000J0D01*
G01*
X124855000Y-77980000D01*
G75*
G02*
X124700000Y-77825000I0J155000D01*
G01*
G37*
G36*
G01*
X123565000Y-77825000D02*
X123565000Y-77515000D01*
G75*
G02*
X123720000Y-77360000I155000J0D01*
G01*
X124145000Y-77360000D01*
G75*
G02*
X124300000Y-77515000I0J-155000D01*
G01*
X124300000Y-77825000D01*
G75*
G02*
X124145000Y-77980000I-155000J0D01*
G01*
X123720000Y-77980000D01*
G75*
G02*
X123565000Y-77825000I0J155000D01*
G01*
G37*
D11*
X197590500Y-56115000D03*
X197590500Y-55465000D03*
X197590500Y-54815000D03*
X197590500Y-54165000D03*
X197590500Y-53515000D03*
X197590500Y-52865000D03*
X197590500Y-52215000D03*
X197590500Y-51565000D03*
X197590500Y-50915000D03*
X197590500Y-50265000D03*
X204829500Y-50265000D03*
X204829500Y-50915000D03*
X204829500Y-51565000D03*
X204829500Y-52215000D03*
X204829500Y-52865000D03*
X204829500Y-53515000D03*
X204829500Y-54165000D03*
X204829500Y-54815000D03*
X204829500Y-55465000D03*
X204829500Y-56115000D03*
G36*
G01*
X183075001Y-68085001D02*
X183075001Y-67785001D01*
G75*
G02*
X183225001Y-67635001I150000J0D01*
G01*
X184875001Y-67635001D01*
G75*
G02*
X185025001Y-67785001I0J-150000D01*
G01*
X185025001Y-68085001D01*
G75*
G02*
X184875001Y-68235001I-150000J0D01*
G01*
X183225001Y-68235001D01*
G75*
G02*
X183075001Y-68085001I0J150000D01*
G01*
G37*
G36*
G01*
X183075001Y-69355001D02*
X183075001Y-69055001D01*
G75*
G02*
X183225001Y-68905001I150000J0D01*
G01*
X184875001Y-68905001D01*
G75*
G02*
X185025001Y-69055001I0J-150000D01*
G01*
X185025001Y-69355001D01*
G75*
G02*
X184875001Y-69505001I-150000J0D01*
G01*
X183225001Y-69505001D01*
G75*
G02*
X183075001Y-69355001I0J150000D01*
G01*
G37*
G36*
G01*
X183075001Y-70625001D02*
X183075001Y-70325001D01*
G75*
G02*
X183225001Y-70175001I150000J0D01*
G01*
X184875001Y-70175001D01*
G75*
G02*
X185025001Y-70325001I0J-150000D01*
G01*
X185025001Y-70625001D01*
G75*
G02*
X184875001Y-70775001I-150000J0D01*
G01*
X183225001Y-70775001D01*
G75*
G02*
X183075001Y-70625001I0J150000D01*
G01*
G37*
G36*
G01*
X183075001Y-71895001D02*
X183075001Y-71595001D01*
G75*
G02*
X183225001Y-71445001I150000J0D01*
G01*
X184875001Y-71445001D01*
G75*
G02*
X185025001Y-71595001I0J-150000D01*
G01*
X185025001Y-71895001D01*
G75*
G02*
X184875001Y-72045001I-150000J0D01*
G01*
X183225001Y-72045001D01*
G75*
G02*
X183075001Y-71895001I0J150000D01*
G01*
G37*
G36*
G01*
X178125001Y-71895001D02*
X178125001Y-71595001D01*
G75*
G02*
X178275001Y-71445001I150000J0D01*
G01*
X179925001Y-71445001D01*
G75*
G02*
X180075001Y-71595001I0J-150000D01*
G01*
X180075001Y-71895001D01*
G75*
G02*
X179925001Y-72045001I-150000J0D01*
G01*
X178275001Y-72045001D01*
G75*
G02*
X178125001Y-71895001I0J150000D01*
G01*
G37*
G36*
G01*
X178125001Y-70625001D02*
X178125001Y-70325001D01*
G75*
G02*
X178275001Y-70175001I150000J0D01*
G01*
X179925001Y-70175001D01*
G75*
G02*
X180075001Y-70325001I0J-150000D01*
G01*
X180075001Y-70625001D01*
G75*
G02*
X179925001Y-70775001I-150000J0D01*
G01*
X178275001Y-70775001D01*
G75*
G02*
X178125001Y-70625001I0J150000D01*
G01*
G37*
G36*
G01*
X178125001Y-69355001D02*
X178125001Y-69055001D01*
G75*
G02*
X178275001Y-68905001I150000J0D01*
G01*
X179925001Y-68905001D01*
G75*
G02*
X180075001Y-69055001I0J-150000D01*
G01*
X180075001Y-69355001D01*
G75*
G02*
X179925001Y-69505001I-150000J0D01*
G01*
X178275001Y-69505001D01*
G75*
G02*
X178125001Y-69355001I0J150000D01*
G01*
G37*
G36*
G01*
X178125001Y-68085001D02*
X178125001Y-67785001D01*
G75*
G02*
X178275001Y-67635001I150000J0D01*
G01*
X179925001Y-67635001D01*
G75*
G02*
X180075001Y-67785001I0J-150000D01*
G01*
X180075001Y-68085001D01*
G75*
G02*
X179925001Y-68235001I-150000J0D01*
G01*
X178275001Y-68235001D01*
G75*
G02*
X178125001Y-68085001I0J150000D01*
G01*
G37*
G36*
G01*
X172370000Y-58355000D02*
X172370000Y-58055000D01*
G75*
G02*
X172520000Y-57905000I150000J0D01*
G01*
X174170000Y-57905000D01*
G75*
G02*
X174320000Y-58055000I0J-150000D01*
G01*
X174320000Y-58355000D01*
G75*
G02*
X174170000Y-58505000I-150000J0D01*
G01*
X172520000Y-58505000D01*
G75*
G02*
X172370000Y-58355000I0J150000D01*
G01*
G37*
G36*
G01*
X172370000Y-59625000D02*
X172370000Y-59325000D01*
G75*
G02*
X172520000Y-59175000I150000J0D01*
G01*
X174170000Y-59175000D01*
G75*
G02*
X174320000Y-59325000I0J-150000D01*
G01*
X174320000Y-59625000D01*
G75*
G02*
X174170000Y-59775000I-150000J0D01*
G01*
X172520000Y-59775000D01*
G75*
G02*
X172370000Y-59625000I0J150000D01*
G01*
G37*
G36*
G01*
X172370000Y-60895000D02*
X172370000Y-60595000D01*
G75*
G02*
X172520000Y-60445000I150000J0D01*
G01*
X174170000Y-60445000D01*
G75*
G02*
X174320000Y-60595000I0J-150000D01*
G01*
X174320000Y-60895000D01*
G75*
G02*
X174170000Y-61045000I-150000J0D01*
G01*
X172520000Y-61045000D01*
G75*
G02*
X172370000Y-60895000I0J150000D01*
G01*
G37*
G36*
G01*
X172370000Y-62165000D02*
X172370000Y-61865000D01*
G75*
G02*
X172520000Y-61715000I150000J0D01*
G01*
X174170000Y-61715000D01*
G75*
G02*
X174320000Y-61865000I0J-150000D01*
G01*
X174320000Y-62165000D01*
G75*
G02*
X174170000Y-62315000I-150000J0D01*
G01*
X172520000Y-62315000D01*
G75*
G02*
X172370000Y-62165000I0J150000D01*
G01*
G37*
G36*
G01*
X167420000Y-62165000D02*
X167420000Y-61865000D01*
G75*
G02*
X167570000Y-61715000I150000J0D01*
G01*
X169220000Y-61715000D01*
G75*
G02*
X169370000Y-61865000I0J-150000D01*
G01*
X169370000Y-62165000D01*
G75*
G02*
X169220000Y-62315000I-150000J0D01*
G01*
X167570000Y-62315000D01*
G75*
G02*
X167420000Y-62165000I0J150000D01*
G01*
G37*
G36*
G01*
X167420000Y-60895000D02*
X167420000Y-60595000D01*
G75*
G02*
X167570000Y-60445000I150000J0D01*
G01*
X169220000Y-60445000D01*
G75*
G02*
X169370000Y-60595000I0J-150000D01*
G01*
X169370000Y-60895000D01*
G75*
G02*
X169220000Y-61045000I-150000J0D01*
G01*
X167570000Y-61045000D01*
G75*
G02*
X167420000Y-60895000I0J150000D01*
G01*
G37*
G36*
G01*
X167420000Y-59625000D02*
X167420000Y-59325000D01*
G75*
G02*
X167570000Y-59175000I150000J0D01*
G01*
X169220000Y-59175000D01*
G75*
G02*
X169370000Y-59325000I0J-150000D01*
G01*
X169370000Y-59625000D01*
G75*
G02*
X169220000Y-59775000I-150000J0D01*
G01*
X167570000Y-59775000D01*
G75*
G02*
X167420000Y-59625000I0J150000D01*
G01*
G37*
G36*
G01*
X167420000Y-58355000D02*
X167420000Y-58055000D01*
G75*
G02*
X167570000Y-57905000I150000J0D01*
G01*
X169220000Y-57905000D01*
G75*
G02*
X169370000Y-58055000I0J-150000D01*
G01*
X169370000Y-58355000D01*
G75*
G02*
X169220000Y-58505000I-150000J0D01*
G01*
X167570000Y-58505000D01*
G75*
G02*
X167420000Y-58355000I0J150000D01*
G01*
G37*
G36*
G01*
X117490000Y-119612500D02*
X117810000Y-119612500D01*
G75*
G02*
X117970000Y-119772500I0J-160000D01*
G01*
X117970000Y-120167500D01*
G75*
G02*
X117810000Y-120327500I-160000J0D01*
G01*
X117490000Y-120327500D01*
G75*
G02*
X117330000Y-120167500I0J160000D01*
G01*
X117330000Y-119772500D01*
G75*
G02*
X117490000Y-119612500I160000J0D01*
G01*
G37*
G36*
G01*
X117490000Y-118417500D02*
X117810000Y-118417500D01*
G75*
G02*
X117970000Y-118577500I0J-160000D01*
G01*
X117970000Y-118972500D01*
G75*
G02*
X117810000Y-119132500I-160000J0D01*
G01*
X117490000Y-119132500D01*
G75*
G02*
X117330000Y-118972500I0J160000D01*
G01*
X117330000Y-118577500D01*
G75*
G02*
X117490000Y-118417500I160000J0D01*
G01*
G37*
G36*
G01*
X207110000Y-59800000D02*
X207430000Y-59800000D01*
G75*
G02*
X207590000Y-59960000I0J-160000D01*
G01*
X207590000Y-60355000D01*
G75*
G02*
X207430000Y-60515000I-160000J0D01*
G01*
X207110000Y-60515000D01*
G75*
G02*
X206950000Y-60355000I0J160000D01*
G01*
X206950000Y-59960000D01*
G75*
G02*
X207110000Y-59800000I160000J0D01*
G01*
G37*
G36*
G01*
X207110000Y-58605000D02*
X207430000Y-58605000D01*
G75*
G02*
X207590000Y-58765000I0J-160000D01*
G01*
X207590000Y-59160000D01*
G75*
G02*
X207430000Y-59320000I-160000J0D01*
G01*
X207110000Y-59320000D01*
G75*
G02*
X206950000Y-59160000I0J160000D01*
G01*
X206950000Y-58765000D01*
G75*
G02*
X207110000Y-58605000I160000J0D01*
G01*
G37*
G36*
G01*
X187315000Y-94285000D02*
X187315000Y-93965000D01*
G75*
G02*
X187475000Y-93805000I160000J0D01*
G01*
X187870000Y-93805000D01*
G75*
G02*
X188030000Y-93965000I0J-160000D01*
G01*
X188030000Y-94285000D01*
G75*
G02*
X187870000Y-94445000I-160000J0D01*
G01*
X187475000Y-94445000D01*
G75*
G02*
X187315000Y-94285000I0J160000D01*
G01*
G37*
G36*
G01*
X186120000Y-94285000D02*
X186120000Y-93965000D01*
G75*
G02*
X186280000Y-93805000I160000J0D01*
G01*
X186675000Y-93805000D01*
G75*
G02*
X186835000Y-93965000I0J-160000D01*
G01*
X186835000Y-94285000D01*
G75*
G02*
X186675000Y-94445000I-160000J0D01*
G01*
X186280000Y-94445000D01*
G75*
G02*
X186120000Y-94285000I0J160000D01*
G01*
G37*
G36*
G01*
X187040000Y-99035000D02*
X187040000Y-98715000D01*
G75*
G02*
X187200000Y-98555000I160000J0D01*
G01*
X187595000Y-98555000D01*
G75*
G02*
X187755000Y-98715000I0J-160000D01*
G01*
X187755000Y-99035000D01*
G75*
G02*
X187595000Y-99195000I-160000J0D01*
G01*
X187200000Y-99195000D01*
G75*
G02*
X187040000Y-99035000I0J160000D01*
G01*
G37*
G36*
G01*
X185845000Y-99035000D02*
X185845000Y-98715000D01*
G75*
G02*
X186005000Y-98555000I160000J0D01*
G01*
X186400000Y-98555000D01*
G75*
G02*
X186560000Y-98715000I0J-160000D01*
G01*
X186560000Y-99035000D01*
G75*
G02*
X186400000Y-99195000I-160000J0D01*
G01*
X186005000Y-99195000D01*
G75*
G02*
X185845000Y-99035000I0J160000D01*
G01*
G37*
G36*
G01*
X183737500Y-94210000D02*
X183737500Y-93890000D01*
G75*
G02*
X183897500Y-93730000I160000J0D01*
G01*
X184292500Y-93730000D01*
G75*
G02*
X184452500Y-93890000I0J-160000D01*
G01*
X184452500Y-94210000D01*
G75*
G02*
X184292500Y-94370000I-160000J0D01*
G01*
X183897500Y-94370000D01*
G75*
G02*
X183737500Y-94210000I0J160000D01*
G01*
G37*
G36*
G01*
X182542500Y-94210000D02*
X182542500Y-93890000D01*
G75*
G02*
X182702500Y-93730000I160000J0D01*
G01*
X183097500Y-93730000D01*
G75*
G02*
X183257500Y-93890000I0J-160000D01*
G01*
X183257500Y-94210000D01*
G75*
G02*
X183097500Y-94370000I-160000J0D01*
G01*
X182702500Y-94370000D01*
G75*
G02*
X182542500Y-94210000I0J160000D01*
G01*
G37*
G36*
G01*
X183485000Y-98740000D02*
X183485000Y-99060000D01*
G75*
G02*
X183325000Y-99220000I-160000J0D01*
G01*
X182930000Y-99220000D01*
G75*
G02*
X182770000Y-99060000I0J160000D01*
G01*
X182770000Y-98740000D01*
G75*
G02*
X182930000Y-98580000I160000J0D01*
G01*
X183325000Y-98580000D01*
G75*
G02*
X183485000Y-98740000I0J-160000D01*
G01*
G37*
G36*
G01*
X184680000Y-98740000D02*
X184680000Y-99060000D01*
G75*
G02*
X184520000Y-99220000I-160000J0D01*
G01*
X184125000Y-99220000D01*
G75*
G02*
X183965000Y-99060000I0J160000D01*
G01*
X183965000Y-98740000D01*
G75*
G02*
X184125000Y-98580000I160000J0D01*
G01*
X184520000Y-98580000D01*
G75*
G02*
X184680000Y-98740000I0J-160000D01*
G01*
G37*
G36*
G01*
X173780000Y-107830000D02*
X173780000Y-108150000D01*
G75*
G02*
X173620000Y-108310000I-160000J0D01*
G01*
X173225000Y-108310000D01*
G75*
G02*
X173065000Y-108150000I0J160000D01*
G01*
X173065000Y-107830000D01*
G75*
G02*
X173225000Y-107670000I160000J0D01*
G01*
X173620000Y-107670000D01*
G75*
G02*
X173780000Y-107830000I0J-160000D01*
G01*
G37*
G36*
G01*
X174975000Y-107830000D02*
X174975000Y-108150000D01*
G75*
G02*
X174815000Y-108310000I-160000J0D01*
G01*
X174420000Y-108310000D01*
G75*
G02*
X174260000Y-108150000I0J160000D01*
G01*
X174260000Y-107830000D01*
G75*
G02*
X174420000Y-107670000I160000J0D01*
G01*
X174815000Y-107670000D01*
G75*
G02*
X174975000Y-107830000I0J-160000D01*
G01*
G37*
G36*
G01*
X174112500Y-112640000D02*
X174112500Y-112960000D01*
G75*
G02*
X173952500Y-113120000I-160000J0D01*
G01*
X173557500Y-113120000D01*
G75*
G02*
X173397500Y-112960000I0J160000D01*
G01*
X173397500Y-112640000D01*
G75*
G02*
X173557500Y-112480000I160000J0D01*
G01*
X173952500Y-112480000D01*
G75*
G02*
X174112500Y-112640000I0J-160000D01*
G01*
G37*
G36*
G01*
X175307500Y-112640000D02*
X175307500Y-112960000D01*
G75*
G02*
X175147500Y-113120000I-160000J0D01*
G01*
X174752500Y-113120000D01*
G75*
G02*
X174592500Y-112960000I0J160000D01*
G01*
X174592500Y-112640000D01*
G75*
G02*
X174752500Y-112480000I160000J0D01*
G01*
X175147500Y-112480000D01*
G75*
G02*
X175307500Y-112640000I0J-160000D01*
G01*
G37*
G36*
G01*
X177560000Y-108225000D02*
X177560000Y-107905000D01*
G75*
G02*
X177720000Y-107745000I160000J0D01*
G01*
X178115000Y-107745000D01*
G75*
G02*
X178275000Y-107905000I0J-160000D01*
G01*
X178275000Y-108225000D01*
G75*
G02*
X178115000Y-108385000I-160000J0D01*
G01*
X177720000Y-108385000D01*
G75*
G02*
X177560000Y-108225000I0J160000D01*
G01*
G37*
G36*
G01*
X176365000Y-108225000D02*
X176365000Y-107905000D01*
G75*
G02*
X176525000Y-107745000I160000J0D01*
G01*
X176920000Y-107745000D01*
G75*
G02*
X177080000Y-107905000I0J-160000D01*
G01*
X177080000Y-108225000D01*
G75*
G02*
X176920000Y-108385000I-160000J0D01*
G01*
X176525000Y-108385000D01*
G75*
G02*
X176365000Y-108225000I0J160000D01*
G01*
G37*
G36*
G01*
X177815000Y-112960000D02*
X177815000Y-112640000D01*
G75*
G02*
X177975000Y-112480000I160000J0D01*
G01*
X178370000Y-112480000D01*
G75*
G02*
X178530000Y-112640000I0J-160000D01*
G01*
X178530000Y-112960000D01*
G75*
G02*
X178370000Y-113120000I-160000J0D01*
G01*
X177975000Y-113120000D01*
G75*
G02*
X177815000Y-112960000I0J160000D01*
G01*
G37*
G36*
G01*
X176620000Y-112960000D02*
X176620000Y-112640000D01*
G75*
G02*
X176780000Y-112480000I160000J0D01*
G01*
X177175000Y-112480000D01*
G75*
G02*
X177335000Y-112640000I0J-160000D01*
G01*
X177335000Y-112960000D01*
G75*
G02*
X177175000Y-113120000I-160000J0D01*
G01*
X176780000Y-113120000D01*
G75*
G02*
X176620000Y-112960000I0J160000D01*
G01*
G37*
G36*
G01*
X183157500Y-107640000D02*
X183157500Y-107960000D01*
G75*
G02*
X182997500Y-108120000I-160000J0D01*
G01*
X182602500Y-108120000D01*
G75*
G02*
X182442500Y-107960000I0J160000D01*
G01*
X182442500Y-107640000D01*
G75*
G02*
X182602500Y-107480000I160000J0D01*
G01*
X182997500Y-107480000D01*
G75*
G02*
X183157500Y-107640000I0J-160000D01*
G01*
G37*
G36*
G01*
X184352500Y-107640000D02*
X184352500Y-107960000D01*
G75*
G02*
X184192500Y-108120000I-160000J0D01*
G01*
X183797500Y-108120000D01*
G75*
G02*
X183637500Y-107960000I0J160000D01*
G01*
X183637500Y-107640000D01*
G75*
G02*
X183797500Y-107480000I160000J0D01*
G01*
X184192500Y-107480000D01*
G75*
G02*
X184352500Y-107640000I0J-160000D01*
G01*
G37*
G36*
G01*
X183537500Y-112885000D02*
X183537500Y-112565000D01*
G75*
G02*
X183697500Y-112405000I160000J0D01*
G01*
X184092500Y-112405000D01*
G75*
G02*
X184252500Y-112565000I0J-160000D01*
G01*
X184252500Y-112885000D01*
G75*
G02*
X184092500Y-113045000I-160000J0D01*
G01*
X183697500Y-113045000D01*
G75*
G02*
X183537500Y-112885000I0J160000D01*
G01*
G37*
G36*
G01*
X182342500Y-112885000D02*
X182342500Y-112565000D01*
G75*
G02*
X182502500Y-112405000I160000J0D01*
G01*
X182897500Y-112405000D01*
G75*
G02*
X183057500Y-112565000I0J-160000D01*
G01*
X183057500Y-112885000D01*
G75*
G02*
X182897500Y-113045000I-160000J0D01*
G01*
X182502500Y-113045000D01*
G75*
G02*
X182342500Y-112885000I0J160000D01*
G01*
G37*
G36*
G01*
X187565000Y-107985000D02*
X187565000Y-107665000D01*
G75*
G02*
X187725000Y-107505000I160000J0D01*
G01*
X188120000Y-107505000D01*
G75*
G02*
X188280000Y-107665000I0J-160000D01*
G01*
X188280000Y-107985000D01*
G75*
G02*
X188120000Y-108145000I-160000J0D01*
G01*
X187725000Y-108145000D01*
G75*
G02*
X187565000Y-107985000I0J160000D01*
G01*
G37*
G36*
G01*
X186370000Y-107985000D02*
X186370000Y-107665000D01*
G75*
G02*
X186530000Y-107505000I160000J0D01*
G01*
X186925000Y-107505000D01*
G75*
G02*
X187085000Y-107665000I0J-160000D01*
G01*
X187085000Y-107985000D01*
G75*
G02*
X186925000Y-108145000I-160000J0D01*
G01*
X186530000Y-108145000D01*
G75*
G02*
X186370000Y-107985000I0J160000D01*
G01*
G37*
G36*
G01*
X186960000Y-112615000D02*
X186960000Y-112935000D01*
G75*
G02*
X186800000Y-113095000I-160000J0D01*
G01*
X186405000Y-113095000D01*
G75*
G02*
X186245000Y-112935000I0J160000D01*
G01*
X186245000Y-112615000D01*
G75*
G02*
X186405000Y-112455000I160000J0D01*
G01*
X186800000Y-112455000D01*
G75*
G02*
X186960000Y-112615000I0J-160000D01*
G01*
G37*
G36*
G01*
X188155000Y-112615000D02*
X188155000Y-112935000D01*
G75*
G02*
X187995000Y-113095000I-160000J0D01*
G01*
X187600000Y-113095000D01*
G75*
G02*
X187440000Y-112935000I0J160000D01*
G01*
X187440000Y-112615000D01*
G75*
G02*
X187600000Y-112455000I160000J0D01*
G01*
X187995000Y-112455000D01*
G75*
G02*
X188155000Y-112615000I0J-160000D01*
G01*
G37*
G36*
G01*
X173707500Y-121090000D02*
X173707500Y-121410000D01*
G75*
G02*
X173547500Y-121570000I-160000J0D01*
G01*
X173152500Y-121570000D01*
G75*
G02*
X172992500Y-121410000I0J160000D01*
G01*
X172992500Y-121090000D01*
G75*
G02*
X173152500Y-120930000I160000J0D01*
G01*
X173547500Y-120930000D01*
G75*
G02*
X173707500Y-121090000I0J-160000D01*
G01*
G37*
G36*
G01*
X174902500Y-121090000D02*
X174902500Y-121410000D01*
G75*
G02*
X174742500Y-121570000I-160000J0D01*
G01*
X174347500Y-121570000D01*
G75*
G02*
X174187500Y-121410000I0J160000D01*
G01*
X174187500Y-121090000D01*
G75*
G02*
X174347500Y-120930000I160000J0D01*
G01*
X174742500Y-120930000D01*
G75*
G02*
X174902500Y-121090000I0J-160000D01*
G01*
G37*
G36*
G01*
X174387500Y-126235000D02*
X174387500Y-125915000D01*
G75*
G02*
X174547500Y-125755000I160000J0D01*
G01*
X174942500Y-125755000D01*
G75*
G02*
X175102500Y-125915000I0J-160000D01*
G01*
X175102500Y-126235000D01*
G75*
G02*
X174942500Y-126395000I-160000J0D01*
G01*
X174547500Y-126395000D01*
G75*
G02*
X174387500Y-126235000I0J160000D01*
G01*
G37*
G36*
G01*
X173192500Y-126235000D02*
X173192500Y-125915000D01*
G75*
G02*
X173352500Y-125755000I160000J0D01*
G01*
X173747500Y-125755000D01*
G75*
G02*
X173907500Y-125915000I0J-160000D01*
G01*
X173907500Y-126235000D01*
G75*
G02*
X173747500Y-126395000I-160000J0D01*
G01*
X173352500Y-126395000D01*
G75*
G02*
X173192500Y-126235000I0J160000D01*
G01*
G37*
G36*
G01*
X177862500Y-121435000D02*
X177862500Y-121115000D01*
G75*
G02*
X178022500Y-120955000I160000J0D01*
G01*
X178417500Y-120955000D01*
G75*
G02*
X178577500Y-121115000I0J-160000D01*
G01*
X178577500Y-121435000D01*
G75*
G02*
X178417500Y-121595000I-160000J0D01*
G01*
X178022500Y-121595000D01*
G75*
G02*
X177862500Y-121435000I0J160000D01*
G01*
G37*
G36*
G01*
X176667500Y-121435000D02*
X176667500Y-121115000D01*
G75*
G02*
X176827500Y-120955000I160000J0D01*
G01*
X177222500Y-120955000D01*
G75*
G02*
X177382500Y-121115000I0J-160000D01*
G01*
X177382500Y-121435000D01*
G75*
G02*
X177222500Y-121595000I-160000J0D01*
G01*
X176827500Y-121595000D01*
G75*
G02*
X176667500Y-121435000I0J160000D01*
G01*
G37*
G36*
G01*
X176962500Y-125965000D02*
X176962500Y-126285000D01*
G75*
G02*
X176802500Y-126445000I-160000J0D01*
G01*
X176407500Y-126445000D01*
G75*
G02*
X176247500Y-126285000I0J160000D01*
G01*
X176247500Y-125965000D01*
G75*
G02*
X176407500Y-125805000I160000J0D01*
G01*
X176802500Y-125805000D01*
G75*
G02*
X176962500Y-125965000I0J-160000D01*
G01*
G37*
G36*
G01*
X178157500Y-125965000D02*
X178157500Y-126285000D01*
G75*
G02*
X177997500Y-126445000I-160000J0D01*
G01*
X177602500Y-126445000D01*
G75*
G02*
X177442500Y-126285000I0J160000D01*
G01*
X177442500Y-125965000D01*
G75*
G02*
X177602500Y-125805000I160000J0D01*
G01*
X177997500Y-125805000D01*
G75*
G02*
X178157500Y-125965000I0J-160000D01*
G01*
G37*
G36*
G01*
X184042500Y-121510000D02*
X184042500Y-121190000D01*
G75*
G02*
X184202500Y-121030000I160000J0D01*
G01*
X184597500Y-121030000D01*
G75*
G02*
X184757500Y-121190000I0J-160000D01*
G01*
X184757500Y-121510000D01*
G75*
G02*
X184597500Y-121670000I-160000J0D01*
G01*
X184202500Y-121670000D01*
G75*
G02*
X184042500Y-121510000I0J160000D01*
G01*
G37*
G36*
G01*
X182847500Y-121510000D02*
X182847500Y-121190000D01*
G75*
G02*
X183007500Y-121030000I160000J0D01*
G01*
X183402500Y-121030000D01*
G75*
G02*
X183562500Y-121190000I0J-160000D01*
G01*
X183562500Y-121510000D01*
G75*
G02*
X183402500Y-121670000I-160000J0D01*
G01*
X183007500Y-121670000D01*
G75*
G02*
X182847500Y-121510000I0J160000D01*
G01*
G37*
G36*
G01*
X183537500Y-125940000D02*
X183537500Y-126260000D01*
G75*
G02*
X183377500Y-126420000I-160000J0D01*
G01*
X182982500Y-126420000D01*
G75*
G02*
X182822500Y-126260000I0J160000D01*
G01*
X182822500Y-125940000D01*
G75*
G02*
X182982500Y-125780000I160000J0D01*
G01*
X183377500Y-125780000D01*
G75*
G02*
X183537500Y-125940000I0J-160000D01*
G01*
G37*
G36*
G01*
X184732500Y-125940000D02*
X184732500Y-126260000D01*
G75*
G02*
X184572500Y-126420000I-160000J0D01*
G01*
X184177500Y-126420000D01*
G75*
G02*
X184017500Y-126260000I0J160000D01*
G01*
X184017500Y-125940000D01*
G75*
G02*
X184177500Y-125780000I160000J0D01*
G01*
X184572500Y-125780000D01*
G75*
G02*
X184732500Y-125940000I0J-160000D01*
G01*
G37*
G36*
G01*
X186635000Y-121165000D02*
X186635000Y-121485000D01*
G75*
G02*
X186475000Y-121645000I-160000J0D01*
G01*
X186080000Y-121645000D01*
G75*
G02*
X185920000Y-121485000I0J160000D01*
G01*
X185920000Y-121165000D01*
G75*
G02*
X186080000Y-121005000I160000J0D01*
G01*
X186475000Y-121005000D01*
G75*
G02*
X186635000Y-121165000I0J-160000D01*
G01*
G37*
G36*
G01*
X187830000Y-121165000D02*
X187830000Y-121485000D01*
G75*
G02*
X187670000Y-121645000I-160000J0D01*
G01*
X187275000Y-121645000D01*
G75*
G02*
X187115000Y-121485000I0J160000D01*
G01*
X187115000Y-121165000D01*
G75*
G02*
X187275000Y-121005000I160000J0D01*
G01*
X187670000Y-121005000D01*
G75*
G02*
X187830000Y-121165000I0J-160000D01*
G01*
G37*
G36*
G01*
X187237500Y-126285000D02*
X187237500Y-125965000D01*
G75*
G02*
X187397500Y-125805000I160000J0D01*
G01*
X187792500Y-125805000D01*
G75*
G02*
X187952500Y-125965000I0J-160000D01*
G01*
X187952500Y-126285000D01*
G75*
G02*
X187792500Y-126445000I-160000J0D01*
G01*
X187397500Y-126445000D01*
G75*
G02*
X187237500Y-126285000I0J160000D01*
G01*
G37*
G36*
G01*
X186042500Y-126285000D02*
X186042500Y-125965000D01*
G75*
G02*
X186202500Y-125805000I160000J0D01*
G01*
X186597500Y-125805000D01*
G75*
G02*
X186757500Y-125965000I0J-160000D01*
G01*
X186757500Y-126285000D01*
G75*
G02*
X186597500Y-126445000I-160000J0D01*
G01*
X186202500Y-126445000D01*
G75*
G02*
X186042500Y-126285000I0J160000D01*
G01*
G37*
G36*
G01*
X165637500Y-107865000D02*
X165637500Y-108185000D01*
G75*
G02*
X165477500Y-108345000I-160000J0D01*
G01*
X165082500Y-108345000D01*
G75*
G02*
X164922500Y-108185000I0J160000D01*
G01*
X164922500Y-107865000D01*
G75*
G02*
X165082500Y-107705000I160000J0D01*
G01*
X165477500Y-107705000D01*
G75*
G02*
X165637500Y-107865000I0J-160000D01*
G01*
G37*
G36*
G01*
X166832500Y-107865000D02*
X166832500Y-108185000D01*
G75*
G02*
X166672500Y-108345000I-160000J0D01*
G01*
X166277500Y-108345000D01*
G75*
G02*
X166117500Y-108185000I0J160000D01*
G01*
X166117500Y-107865000D01*
G75*
G02*
X166277500Y-107705000I160000J0D01*
G01*
X166672500Y-107705000D01*
G75*
G02*
X166832500Y-107865000I0J-160000D01*
G01*
G37*
G36*
G01*
X162290000Y-109535000D02*
X162290000Y-109215000D01*
G75*
G02*
X162450000Y-109055000I160000J0D01*
G01*
X162845000Y-109055000D01*
G75*
G02*
X163005000Y-109215000I0J-160000D01*
G01*
X163005000Y-109535000D01*
G75*
G02*
X162845000Y-109695000I-160000J0D01*
G01*
X162450000Y-109695000D01*
G75*
G02*
X162290000Y-109535000I0J160000D01*
G01*
G37*
G36*
G01*
X161095000Y-109535000D02*
X161095000Y-109215000D01*
G75*
G02*
X161255000Y-109055000I160000J0D01*
G01*
X161650000Y-109055000D01*
G75*
G02*
X161810000Y-109215000I0J-160000D01*
G01*
X161810000Y-109535000D01*
G75*
G02*
X161650000Y-109695000I-160000J0D01*
G01*
X161255000Y-109695000D01*
G75*
G02*
X161095000Y-109535000I0J160000D01*
G01*
G37*
G36*
G01*
X161860000Y-107940000D02*
X161860000Y-108260000D01*
G75*
G02*
X161700000Y-108420000I-160000J0D01*
G01*
X161305000Y-108420000D01*
G75*
G02*
X161145000Y-108260000I0J160000D01*
G01*
X161145000Y-107940000D01*
G75*
G02*
X161305000Y-107780000I160000J0D01*
G01*
X161700000Y-107780000D01*
G75*
G02*
X161860000Y-107940000I0J-160000D01*
G01*
G37*
G36*
G01*
X163055000Y-107940000D02*
X163055000Y-108260000D01*
G75*
G02*
X162895000Y-108420000I-160000J0D01*
G01*
X162500000Y-108420000D01*
G75*
G02*
X162340000Y-108260000I0J160000D01*
G01*
X162340000Y-107940000D01*
G75*
G02*
X162500000Y-107780000I160000J0D01*
G01*
X162895000Y-107780000D01*
G75*
G02*
X163055000Y-107940000I0J-160000D01*
G01*
G37*
G36*
G01*
X205890000Y-59810000D02*
X206210000Y-59810000D01*
G75*
G02*
X206370000Y-59970000I0J-160000D01*
G01*
X206370000Y-60365000D01*
G75*
G02*
X206210000Y-60525000I-160000J0D01*
G01*
X205890000Y-60525000D01*
G75*
G02*
X205730000Y-60365000I0J160000D01*
G01*
X205730000Y-59970000D01*
G75*
G02*
X205890000Y-59810000I160000J0D01*
G01*
G37*
G36*
G01*
X205890000Y-58615000D02*
X206210000Y-58615000D01*
G75*
G02*
X206370000Y-58775000I0J-160000D01*
G01*
X206370000Y-59170000D01*
G75*
G02*
X206210000Y-59330000I-160000J0D01*
G01*
X205890000Y-59330000D01*
G75*
G02*
X205730000Y-59170000I0J160000D01*
G01*
X205730000Y-58775000D01*
G75*
G02*
X205890000Y-58615000I160000J0D01*
G01*
G37*
G36*
G01*
X203100000Y-59880000D02*
X202780000Y-59880000D01*
G75*
G02*
X202620000Y-59720000I0J160000D01*
G01*
X202620000Y-59325000D01*
G75*
G02*
X202780000Y-59165000I160000J0D01*
G01*
X203100000Y-59165000D01*
G75*
G02*
X203260000Y-59325000I0J-160000D01*
G01*
X203260000Y-59720000D01*
G75*
G02*
X203100000Y-59880000I-160000J0D01*
G01*
G37*
G36*
G01*
X203100000Y-61075000D02*
X202780000Y-61075000D01*
G75*
G02*
X202620000Y-60915000I0J160000D01*
G01*
X202620000Y-60520000D01*
G75*
G02*
X202780000Y-60360000I160000J0D01*
G01*
X203100000Y-60360000D01*
G75*
G02*
X203260000Y-60520000I0J-160000D01*
G01*
X203260000Y-60915000D01*
G75*
G02*
X203100000Y-61075000I-160000J0D01*
G01*
G37*
G36*
G01*
X197810000Y-59850000D02*
X197490000Y-59850000D01*
G75*
G02*
X197330000Y-59690000I0J160000D01*
G01*
X197330000Y-59295000D01*
G75*
G02*
X197490000Y-59135000I160000J0D01*
G01*
X197810000Y-59135000D01*
G75*
G02*
X197970000Y-59295000I0J-160000D01*
G01*
X197970000Y-59690000D01*
G75*
G02*
X197810000Y-59850000I-160000J0D01*
G01*
G37*
G36*
G01*
X197810000Y-61045000D02*
X197490000Y-61045000D01*
G75*
G02*
X197330000Y-60885000I0J160000D01*
G01*
X197330000Y-60490000D01*
G75*
G02*
X197490000Y-60330000I160000J0D01*
G01*
X197810000Y-60330000D01*
G75*
G02*
X197970000Y-60490000I0J-160000D01*
G01*
X197970000Y-60885000D01*
G75*
G02*
X197810000Y-61045000I-160000J0D01*
G01*
G37*
G36*
G01*
X186040000Y-71140000D02*
X185720000Y-71140000D01*
G75*
G02*
X185560000Y-70980000I0J160000D01*
G01*
X185560000Y-70585000D01*
G75*
G02*
X185720000Y-70425000I160000J0D01*
G01*
X186040000Y-70425000D01*
G75*
G02*
X186200000Y-70585000I0J-160000D01*
G01*
X186200000Y-70980000D01*
G75*
G02*
X186040000Y-71140000I-160000J0D01*
G01*
G37*
G36*
G01*
X186040000Y-72335000D02*
X185720000Y-72335000D01*
G75*
G02*
X185560000Y-72175000I0J160000D01*
G01*
X185560000Y-71780000D01*
G75*
G02*
X185720000Y-71620000I160000J0D01*
G01*
X186040000Y-71620000D01*
G75*
G02*
X186200000Y-71780000I0J-160000D01*
G01*
X186200000Y-72175000D01*
G75*
G02*
X186040000Y-72335000I-160000J0D01*
G01*
G37*
G36*
G01*
X185780000Y-68732500D02*
X186100000Y-68732500D01*
G75*
G02*
X186260000Y-68892500I0J-160000D01*
G01*
X186260000Y-69287500D01*
G75*
G02*
X186100000Y-69447500I-160000J0D01*
G01*
X185780000Y-69447500D01*
G75*
G02*
X185620000Y-69287500I0J160000D01*
G01*
X185620000Y-68892500D01*
G75*
G02*
X185780000Y-68732500I160000J0D01*
G01*
G37*
G36*
G01*
X185780000Y-67537500D02*
X186100000Y-67537500D01*
G75*
G02*
X186260000Y-67697500I0J-160000D01*
G01*
X186260000Y-68092500D01*
G75*
G02*
X186100000Y-68252500I-160000J0D01*
G01*
X185780000Y-68252500D01*
G75*
G02*
X185620000Y-68092500I0J160000D01*
G01*
X185620000Y-67697500D01*
G75*
G02*
X185780000Y-67537500I160000J0D01*
G01*
G37*
G36*
G01*
X183952500Y-66680000D02*
X183952500Y-66360000D01*
G75*
G02*
X184112500Y-66200000I160000J0D01*
G01*
X184507500Y-66200000D01*
G75*
G02*
X184667500Y-66360000I0J-160000D01*
G01*
X184667500Y-66680000D01*
G75*
G02*
X184507500Y-66840000I-160000J0D01*
G01*
X184112500Y-66840000D01*
G75*
G02*
X183952500Y-66680000I0J160000D01*
G01*
G37*
G36*
G01*
X182757500Y-66680000D02*
X182757500Y-66360000D01*
G75*
G02*
X182917500Y-66200000I160000J0D01*
G01*
X183312500Y-66200000D01*
G75*
G02*
X183472500Y-66360000I0J-160000D01*
G01*
X183472500Y-66680000D01*
G75*
G02*
X183312500Y-66840000I-160000J0D01*
G01*
X182917500Y-66840000D01*
G75*
G02*
X182757500Y-66680000I0J160000D01*
G01*
G37*
G36*
G01*
X175830000Y-71632500D02*
X176150000Y-71632500D01*
G75*
G02*
X176310000Y-71792500I0J-160000D01*
G01*
X176310000Y-72187500D01*
G75*
G02*
X176150000Y-72347500I-160000J0D01*
G01*
X175830000Y-72347500D01*
G75*
G02*
X175670000Y-72187500I0J160000D01*
G01*
X175670000Y-71792500D01*
G75*
G02*
X175830000Y-71632500I160000J0D01*
G01*
G37*
G36*
G01*
X175830000Y-70437500D02*
X176150000Y-70437500D01*
G75*
G02*
X176310000Y-70597500I0J-160000D01*
G01*
X176310000Y-70992500D01*
G75*
G02*
X176150000Y-71152500I-160000J0D01*
G01*
X175830000Y-71152500D01*
G75*
G02*
X175670000Y-70992500I0J160000D01*
G01*
X175670000Y-70597500D01*
G75*
G02*
X175830000Y-70437500I160000J0D01*
G01*
G37*
G36*
G01*
X176980000Y-71667500D02*
X177300000Y-71667500D01*
G75*
G02*
X177460000Y-71827500I0J-160000D01*
G01*
X177460000Y-72222500D01*
G75*
G02*
X177300000Y-72382500I-160000J0D01*
G01*
X176980000Y-72382500D01*
G75*
G02*
X176820000Y-72222500I0J160000D01*
G01*
X176820000Y-71827500D01*
G75*
G02*
X176980000Y-71667500I160000J0D01*
G01*
G37*
G36*
G01*
X176980000Y-70472500D02*
X177300000Y-70472500D01*
G75*
G02*
X177460000Y-70632500I0J-160000D01*
G01*
X177460000Y-71027500D01*
G75*
G02*
X177300000Y-71187500I-160000J0D01*
G01*
X176980000Y-71187500D01*
G75*
G02*
X176820000Y-71027500I0J160000D01*
G01*
X176820000Y-70632500D01*
G75*
G02*
X176980000Y-70472500I160000J0D01*
G01*
G37*
G36*
G01*
X174257500Y-84360000D02*
X174257500Y-84040000D01*
G75*
G02*
X174417500Y-83880000I160000J0D01*
G01*
X174812500Y-83880000D01*
G75*
G02*
X174972500Y-84040000I0J-160000D01*
G01*
X174972500Y-84360000D01*
G75*
G02*
X174812500Y-84520000I-160000J0D01*
G01*
X174417500Y-84520000D01*
G75*
G02*
X174257500Y-84360000I0J160000D01*
G01*
G37*
G36*
G01*
X173062500Y-84360000D02*
X173062500Y-84040000D01*
G75*
G02*
X173222500Y-83880000I160000J0D01*
G01*
X173617500Y-83880000D01*
G75*
G02*
X173777500Y-84040000I0J-160000D01*
G01*
X173777500Y-84360000D01*
G75*
G02*
X173617500Y-84520000I-160000J0D01*
G01*
X173222500Y-84520000D01*
G75*
G02*
X173062500Y-84360000I0J160000D01*
G01*
G37*
G36*
G01*
X170890000Y-84070000D02*
X170890000Y-84390000D01*
G75*
G02*
X170730000Y-84550000I-160000J0D01*
G01*
X170335000Y-84550000D01*
G75*
G02*
X170175000Y-84390000I0J160000D01*
G01*
X170175000Y-84070000D01*
G75*
G02*
X170335000Y-83910000I160000J0D01*
G01*
X170730000Y-83910000D01*
G75*
G02*
X170890000Y-84070000I0J-160000D01*
G01*
G37*
G36*
G01*
X172085000Y-84070000D02*
X172085000Y-84390000D01*
G75*
G02*
X171925000Y-84550000I-160000J0D01*
G01*
X171530000Y-84550000D01*
G75*
G02*
X171370000Y-84390000I0J160000D01*
G01*
X171370000Y-84070000D01*
G75*
G02*
X171530000Y-83910000I160000J0D01*
G01*
X171925000Y-83910000D01*
G75*
G02*
X172085000Y-84070000I0J-160000D01*
G01*
G37*
G36*
G01*
X176060000Y-97520000D02*
X176060000Y-97840000D01*
G75*
G02*
X175900000Y-98000000I-160000J0D01*
G01*
X175505000Y-98000000D01*
G75*
G02*
X175345000Y-97840000I0J160000D01*
G01*
X175345000Y-97520000D01*
G75*
G02*
X175505000Y-97360000I160000J0D01*
G01*
X175900000Y-97360000D01*
G75*
G02*
X176060000Y-97520000I0J-160000D01*
G01*
G37*
G36*
G01*
X177255000Y-97520000D02*
X177255000Y-97840000D01*
G75*
G02*
X177095000Y-98000000I-160000J0D01*
G01*
X176700000Y-98000000D01*
G75*
G02*
X176540000Y-97840000I0J160000D01*
G01*
X176540000Y-97520000D01*
G75*
G02*
X176700000Y-97360000I160000J0D01*
G01*
X177095000Y-97360000D01*
G75*
G02*
X177255000Y-97520000I0J-160000D01*
G01*
G37*
G36*
G01*
X170810000Y-97550000D02*
X170810000Y-97870000D01*
G75*
G02*
X170650000Y-98030000I-160000J0D01*
G01*
X170255000Y-98030000D01*
G75*
G02*
X170095000Y-97870000I0J160000D01*
G01*
X170095000Y-97550000D01*
G75*
G02*
X170255000Y-97390000I160000J0D01*
G01*
X170650000Y-97390000D01*
G75*
G02*
X170810000Y-97550000I0J-160000D01*
G01*
G37*
G36*
G01*
X172005000Y-97550000D02*
X172005000Y-97870000D01*
G75*
G02*
X171845000Y-98030000I-160000J0D01*
G01*
X171450000Y-98030000D01*
G75*
G02*
X171290000Y-97870000I0J160000D01*
G01*
X171290000Y-97550000D01*
G75*
G02*
X171450000Y-97390000I160000J0D01*
G01*
X171845000Y-97390000D01*
G75*
G02*
X172005000Y-97550000I0J-160000D01*
G01*
G37*
G36*
G01*
X189385000Y-59315000D02*
X189385000Y-59635000D01*
G75*
G02*
X189225000Y-59795000I-160000J0D01*
G01*
X188830000Y-59795000D01*
G75*
G02*
X188670000Y-59635000I0J160000D01*
G01*
X188670000Y-59315000D01*
G75*
G02*
X188830000Y-59155000I160000J0D01*
G01*
X189225000Y-59155000D01*
G75*
G02*
X189385000Y-59315000I0J-160000D01*
G01*
G37*
G36*
G01*
X190580000Y-59315000D02*
X190580000Y-59635000D01*
G75*
G02*
X190420000Y-59795000I-160000J0D01*
G01*
X190025000Y-59795000D01*
G75*
G02*
X189865000Y-59635000I0J160000D01*
G01*
X189865000Y-59315000D01*
G75*
G02*
X190025000Y-59155000I160000J0D01*
G01*
X190420000Y-59155000D01*
G75*
G02*
X190580000Y-59315000I0J-160000D01*
G01*
G37*
G36*
G01*
X190090000Y-57862500D02*
X190410000Y-57862500D01*
G75*
G02*
X190570000Y-58022500I0J-160000D01*
G01*
X190570000Y-58417500D01*
G75*
G02*
X190410000Y-58577500I-160000J0D01*
G01*
X190090000Y-58577500D01*
G75*
G02*
X189930000Y-58417500I0J160000D01*
G01*
X189930000Y-58022500D01*
G75*
G02*
X190090000Y-57862500I160000J0D01*
G01*
G37*
G36*
G01*
X190090000Y-56667500D02*
X190410000Y-56667500D01*
G75*
G02*
X190570000Y-56827500I0J-160000D01*
G01*
X190570000Y-57222500D01*
G75*
G02*
X190410000Y-57382500I-160000J0D01*
G01*
X190090000Y-57382500D01*
G75*
G02*
X189930000Y-57222500I0J160000D01*
G01*
X189930000Y-56827500D01*
G75*
G02*
X190090000Y-56667500I160000J0D01*
G01*
G37*
G36*
G01*
X177365000Y-57815000D02*
X177685000Y-57815000D01*
G75*
G02*
X177845000Y-57975000I0J-160000D01*
G01*
X177845000Y-58370000D01*
G75*
G02*
X177685000Y-58530000I-160000J0D01*
G01*
X177365000Y-58530000D01*
G75*
G02*
X177205000Y-58370000I0J160000D01*
G01*
X177205000Y-57975000D01*
G75*
G02*
X177365000Y-57815000I160000J0D01*
G01*
G37*
G36*
G01*
X177365000Y-56620000D02*
X177685000Y-56620000D01*
G75*
G02*
X177845000Y-56780000I0J-160000D01*
G01*
X177845000Y-57175000D01*
G75*
G02*
X177685000Y-57335000I-160000J0D01*
G01*
X177365000Y-57335000D01*
G75*
G02*
X177205000Y-57175000I0J160000D01*
G01*
X177205000Y-56780000D01*
G75*
G02*
X177365000Y-56620000I160000J0D01*
G01*
G37*
G36*
G01*
X188140000Y-83100000D02*
X188140000Y-82780000D01*
G75*
G02*
X188300000Y-82620000I160000J0D01*
G01*
X188695000Y-82620000D01*
G75*
G02*
X188855000Y-82780000I0J-160000D01*
G01*
X188855000Y-83100000D01*
G75*
G02*
X188695000Y-83260000I-160000J0D01*
G01*
X188300000Y-83260000D01*
G75*
G02*
X188140000Y-83100000I0J160000D01*
G01*
G37*
G36*
G01*
X186945000Y-83100000D02*
X186945000Y-82780000D01*
G75*
G02*
X187105000Y-82620000I160000J0D01*
G01*
X187500000Y-82620000D01*
G75*
G02*
X187660000Y-82780000I0J-160000D01*
G01*
X187660000Y-83100000D01*
G75*
G02*
X187500000Y-83260000I-160000J0D01*
G01*
X187105000Y-83260000D01*
G75*
G02*
X186945000Y-83100000I0J160000D01*
G01*
G37*
D12*
X199614999Y-59599999D03*
X201614999Y-58649999D03*
X201614999Y-60549999D03*
D10*
X187300000Y-90725000D03*
X188250000Y-92725000D03*
X186350000Y-92725000D03*
X187300000Y-87125000D03*
X188250000Y-89125000D03*
X186350000Y-89125000D03*
X183500000Y-90725000D03*
X184450000Y-92725000D03*
X182550000Y-92725000D03*
X183525000Y-87175000D03*
X184475000Y-89175000D03*
X182575000Y-89175000D03*
X173770000Y-104540000D03*
X174720000Y-106540000D03*
X172820000Y-106540000D03*
X173810000Y-100815000D03*
X174760000Y-102815000D03*
X172860000Y-102815000D03*
X177670000Y-104515000D03*
X178620000Y-106515000D03*
X176720000Y-106515000D03*
X177560000Y-100815000D03*
X178510000Y-102815000D03*
X176610000Y-102815000D03*
X183325000Y-104375000D03*
X184275000Y-106375000D03*
X182375000Y-106375000D03*
X183275000Y-100580000D03*
X184225000Y-102580000D03*
X182325000Y-102580000D03*
X187235000Y-104380000D03*
X188185000Y-106380000D03*
X186285000Y-106380000D03*
X187180000Y-100620000D03*
X188130000Y-102620000D03*
X186230000Y-102620000D03*
X173980000Y-117850000D03*
X174930000Y-119850000D03*
X173030000Y-119850000D03*
X173945000Y-114300000D03*
X174895000Y-116300000D03*
X172995000Y-116300000D03*
X177715000Y-117890000D03*
X178665000Y-119890000D03*
X176765000Y-119890000D03*
X177680000Y-114330000D03*
X178630000Y-116330000D03*
X176730000Y-116330000D03*
X187200000Y-95500000D03*
X188150000Y-97500000D03*
X186250000Y-97500000D03*
X183400000Y-95525000D03*
X184350000Y-97525000D03*
X182450000Y-97525000D03*
X183475000Y-117925000D03*
X184425000Y-119925000D03*
X182525000Y-119925000D03*
X174020000Y-109425000D03*
X174970000Y-111425000D03*
X173070000Y-111425000D03*
X177825000Y-109400000D03*
X178775000Y-111400000D03*
X176875000Y-111400000D03*
X183440000Y-114315000D03*
X184390000Y-116315000D03*
X182490000Y-116315000D03*
X183275000Y-109245000D03*
X184225000Y-111245000D03*
X182325000Y-111245000D03*
X187175000Y-109280000D03*
X188125000Y-111280000D03*
X186225000Y-111280000D03*
X187250000Y-117925000D03*
X188200000Y-119925000D03*
X186300000Y-119925000D03*
X173880000Y-122630000D03*
X174830000Y-124630000D03*
X172930000Y-124630000D03*
X177605001Y-122674999D03*
X178555001Y-124674999D03*
X176655001Y-124674999D03*
X187285000Y-114290000D03*
X188235000Y-116290000D03*
X186335000Y-116290000D03*
X183450000Y-122695000D03*
X184400000Y-124695000D03*
X182500000Y-124695000D03*
X187325000Y-122690000D03*
X188275000Y-124690000D03*
X186375000Y-124690000D03*
X165850000Y-104675000D03*
X166800000Y-106675000D03*
X164900000Y-106675000D03*
X162204999Y-112805001D03*
X161254999Y-110805001D03*
X163154999Y-110805001D03*
X162050000Y-104700000D03*
X163000000Y-106700000D03*
X161100000Y-106700000D03*
D12*
X194174999Y-59714999D03*
X196174999Y-58764999D03*
X196174999Y-60664999D03*
D13*
X207970000Y-51040000D03*
X210870000Y-51040000D03*
X210870000Y-53340000D03*
X207970000Y-53340000D03*
D10*
X180560000Y-64230000D03*
X181510000Y-66230000D03*
X179610000Y-66230000D03*
D14*
X179560000Y-83600000D03*
X176260000Y-83600000D03*
D15*
X177560000Y-81360000D03*
X179660000Y-81360000D03*
D14*
X185000000Y-84760000D03*
X188300000Y-84760000D03*
G36*
G01*
X193827500Y-55342500D02*
X193827500Y-55817500D01*
G75*
G02*
X193590000Y-56055000I-237500J0D01*
G01*
X192990000Y-56055000D01*
G75*
G02*
X192752500Y-55817500I0J237500D01*
G01*
X192752500Y-55342500D01*
G75*
G02*
X192990000Y-55105000I237500J0D01*
G01*
X193590000Y-55105000D01*
G75*
G02*
X193827500Y-55342500I0J-237500D01*
G01*
G37*
G36*
G01*
X195552500Y-55342500D02*
X195552500Y-55817500D01*
G75*
G02*
X195315000Y-56055000I-237500J0D01*
G01*
X194715000Y-56055000D01*
G75*
G02*
X194477500Y-55817500I0J237500D01*
G01*
X194477500Y-55342500D01*
G75*
G02*
X194715000Y-55105000I237500J0D01*
G01*
X195315000Y-55105000D01*
G75*
G02*
X195552500Y-55342500I0J-237500D01*
G01*
G37*
G36*
G01*
X210932500Y-49095000D02*
X210932500Y-49405000D01*
G75*
G02*
X210777500Y-49560000I-155000J0D01*
G01*
X210352500Y-49560000D01*
G75*
G02*
X210197500Y-49405000I0J155000D01*
G01*
X210197500Y-49095000D01*
G75*
G02*
X210352500Y-48940000I155000J0D01*
G01*
X210777500Y-48940000D01*
G75*
G02*
X210932500Y-49095000I0J-155000D01*
G01*
G37*
G36*
G01*
X212067500Y-49095000D02*
X212067500Y-49405000D01*
G75*
G02*
X211912500Y-49560000I-155000J0D01*
G01*
X211487500Y-49560000D01*
G75*
G02*
X211332500Y-49405000I0J155000D01*
G01*
X211332500Y-49095000D01*
G75*
G02*
X211487500Y-48940000I155000J0D01*
G01*
X211912500Y-48940000D01*
G75*
G02*
X212067500Y-49095000I0J-155000D01*
G01*
G37*
G36*
G01*
X207927500Y-55345000D02*
X207927500Y-55035000D01*
G75*
G02*
X208082500Y-54880000I155000J0D01*
G01*
X208507500Y-54880000D01*
G75*
G02*
X208662500Y-55035000I0J-155000D01*
G01*
X208662500Y-55345000D01*
G75*
G02*
X208507500Y-55500000I-155000J0D01*
G01*
X208082500Y-55500000D01*
G75*
G02*
X207927500Y-55345000I0J155000D01*
G01*
G37*
G36*
G01*
X206792500Y-55345000D02*
X206792500Y-55035000D01*
G75*
G02*
X206947500Y-54880000I155000J0D01*
G01*
X207372500Y-54880000D01*
G75*
G02*
X207527500Y-55035000I0J-155000D01*
G01*
X207527500Y-55345000D01*
G75*
G02*
X207372500Y-55500000I-155000J0D01*
G01*
X206947500Y-55500000D01*
G75*
G02*
X206792500Y-55345000I0J155000D01*
G01*
G37*
G36*
G01*
X207920000Y-56445000D02*
X207920000Y-56135000D01*
G75*
G02*
X208075000Y-55980000I155000J0D01*
G01*
X208500000Y-55980000D01*
G75*
G02*
X208655000Y-56135000I0J-155000D01*
G01*
X208655000Y-56445000D01*
G75*
G02*
X208500000Y-56600000I-155000J0D01*
G01*
X208075000Y-56600000D01*
G75*
G02*
X207920000Y-56445000I0J155000D01*
G01*
G37*
G36*
G01*
X206785000Y-56445000D02*
X206785000Y-56135000D01*
G75*
G02*
X206940000Y-55980000I155000J0D01*
G01*
X207365000Y-55980000D01*
G75*
G02*
X207520000Y-56135000I0J-155000D01*
G01*
X207520000Y-56445000D01*
G75*
G02*
X207365000Y-56600000I-155000J0D01*
G01*
X206940000Y-56600000D01*
G75*
G02*
X206785000Y-56445000I0J155000D01*
G01*
G37*
G36*
G01*
X188472500Y-70782500D02*
X187997500Y-70782500D01*
G75*
G02*
X187760000Y-70545000I0J237500D01*
G01*
X187760000Y-69945000D01*
G75*
G02*
X187997500Y-69707500I237500J0D01*
G01*
X188472500Y-69707500D01*
G75*
G02*
X188710000Y-69945000I0J-237500D01*
G01*
X188710000Y-70545000D01*
G75*
G02*
X188472500Y-70782500I-237500J0D01*
G01*
G37*
G36*
G01*
X188472500Y-72507500D02*
X187997500Y-72507500D01*
G75*
G02*
X187760000Y-72270000I0J237500D01*
G01*
X187760000Y-71670000D01*
G75*
G02*
X187997500Y-71432500I237500J0D01*
G01*
X188472500Y-71432500D01*
G75*
G02*
X188710000Y-71670000I0J-237500D01*
G01*
X188710000Y-72270000D01*
G75*
G02*
X188472500Y-72507500I-237500J0D01*
G01*
G37*
G36*
G01*
X188067500Y-67892500D02*
X188542500Y-67892500D01*
G75*
G02*
X188780000Y-68130000I0J-237500D01*
G01*
X188780000Y-68730000D01*
G75*
G02*
X188542500Y-68967500I-237500J0D01*
G01*
X188067500Y-68967500D01*
G75*
G02*
X187830000Y-68730000I0J237500D01*
G01*
X187830000Y-68130000D01*
G75*
G02*
X188067500Y-67892500I237500J0D01*
G01*
G37*
G36*
G01*
X188067500Y-66167500D02*
X188542500Y-66167500D01*
G75*
G02*
X188780000Y-66405000I0J-237500D01*
G01*
X188780000Y-67005000D01*
G75*
G02*
X188542500Y-67242500I-237500J0D01*
G01*
X188067500Y-67242500D01*
G75*
G02*
X187830000Y-67005000I0J237500D01*
G01*
X187830000Y-66405000D01*
G75*
G02*
X188067500Y-66167500I237500J0D01*
G01*
G37*
G36*
G01*
X177077500Y-68107500D02*
X176602500Y-68107500D01*
G75*
G02*
X176365000Y-67870000I0J237500D01*
G01*
X176365000Y-67270000D01*
G75*
G02*
X176602500Y-67032500I237500J0D01*
G01*
X177077500Y-67032500D01*
G75*
G02*
X177315000Y-67270000I0J-237500D01*
G01*
X177315000Y-67870000D01*
G75*
G02*
X177077500Y-68107500I-237500J0D01*
G01*
G37*
G36*
G01*
X177077500Y-69832500D02*
X176602500Y-69832500D01*
G75*
G02*
X176365000Y-69595000I0J237500D01*
G01*
X176365000Y-68995000D01*
G75*
G02*
X176602500Y-68757500I237500J0D01*
G01*
X177077500Y-68757500D01*
G75*
G02*
X177315000Y-68995000I0J-237500D01*
G01*
X177315000Y-69595000D01*
G75*
G02*
X177077500Y-69832500I-237500J0D01*
G01*
G37*
G36*
G01*
X110290000Y-112290000D02*
X110290000Y-110290000D01*
G75*
G02*
X110540000Y-110040000I250000J0D01*
G01*
X114040000Y-110040000D01*
G75*
G02*
X114290000Y-110290000I0J-250000D01*
G01*
X114290000Y-112290000D01*
G75*
G02*
X114040000Y-112540000I-250000J0D01*
G01*
X110540000Y-112540000D01*
G75*
G02*
X110290000Y-112290000I0J250000D01*
G01*
G37*
G36*
G01*
X102290000Y-112290000D02*
X102290000Y-110290000D01*
G75*
G02*
X102540000Y-110040000I250000J0D01*
G01*
X106040000Y-110040000D01*
G75*
G02*
X106290000Y-110290000I0J-250000D01*
G01*
X106290000Y-112290000D01*
G75*
G02*
X106040000Y-112540000I-250000J0D01*
G01*
X102540000Y-112540000D01*
G75*
G02*
X102290000Y-112290000I0J250000D01*
G01*
G37*
G36*
G01*
X110340000Y-100450000D02*
X110340000Y-98450000D01*
G75*
G02*
X110590000Y-98200000I250000J0D01*
G01*
X114090000Y-98200000D01*
G75*
G02*
X114340000Y-98450000I0J-250000D01*
G01*
X114340000Y-100450000D01*
G75*
G02*
X114090000Y-100700000I-250000J0D01*
G01*
X110590000Y-100700000D01*
G75*
G02*
X110340000Y-100450000I0J250000D01*
G01*
G37*
G36*
G01*
X102340000Y-100450000D02*
X102340000Y-98450000D01*
G75*
G02*
X102590000Y-98200000I250000J0D01*
G01*
X106090000Y-98200000D01*
G75*
G02*
X106340000Y-98450000I0J-250000D01*
G01*
X106340000Y-100450000D01*
G75*
G02*
X106090000Y-100700000I-250000J0D01*
G01*
X102590000Y-100700000D01*
G75*
G02*
X102340000Y-100450000I0J250000D01*
G01*
G37*
G36*
G01*
X137210000Y-104615000D02*
X137210000Y-104935000D01*
G75*
G02*
X137050000Y-105095000I-160000J0D01*
G01*
X136655000Y-105095000D01*
G75*
G02*
X136495000Y-104935000I0J160000D01*
G01*
X136495000Y-104615000D01*
G75*
G02*
X136655000Y-104455000I160000J0D01*
G01*
X137050000Y-104455000D01*
G75*
G02*
X137210000Y-104615000I0J-160000D01*
G01*
G37*
G36*
G01*
X138405000Y-104615000D02*
X138405000Y-104935000D01*
G75*
G02*
X138245000Y-105095000I-160000J0D01*
G01*
X137850000Y-105095000D01*
G75*
G02*
X137690000Y-104935000I0J160000D01*
G01*
X137690000Y-104615000D01*
G75*
G02*
X137850000Y-104455000I160000J0D01*
G01*
X138245000Y-104455000D01*
G75*
G02*
X138405000Y-104615000I0J-160000D01*
G01*
G37*
G36*
G01*
X94335000Y-92390000D02*
X94335000Y-92710000D01*
G75*
G02*
X94175000Y-92870000I-160000J0D01*
G01*
X93780000Y-92870000D01*
G75*
G02*
X93620000Y-92710000I0J160000D01*
G01*
X93620000Y-92390000D01*
G75*
G02*
X93780000Y-92230000I160000J0D01*
G01*
X94175000Y-92230000D01*
G75*
G02*
X94335000Y-92390000I0J-160000D01*
G01*
G37*
G36*
G01*
X95530000Y-92390000D02*
X95530000Y-92710000D01*
G75*
G02*
X95370000Y-92870000I-160000J0D01*
G01*
X94975000Y-92870000D01*
G75*
G02*
X94815000Y-92710000I0J160000D01*
G01*
X94815000Y-92390000D01*
G75*
G02*
X94975000Y-92230000I160000J0D01*
G01*
X95370000Y-92230000D01*
G75*
G02*
X95530000Y-92390000I0J-160000D01*
G01*
G37*
G36*
G01*
X91385000Y-92340000D02*
X91385000Y-92660000D01*
G75*
G02*
X91225000Y-92820000I-160000J0D01*
G01*
X90830000Y-92820000D01*
G75*
G02*
X90670000Y-92660000I0J160000D01*
G01*
X90670000Y-92340000D01*
G75*
G02*
X90830000Y-92180000I160000J0D01*
G01*
X91225000Y-92180000D01*
G75*
G02*
X91385000Y-92340000I0J-160000D01*
G01*
G37*
G36*
G01*
X92580000Y-92340000D02*
X92580000Y-92660000D01*
G75*
G02*
X92420000Y-92820000I-160000J0D01*
G01*
X92025000Y-92820000D01*
G75*
G02*
X91865000Y-92660000I0J160000D01*
G01*
X91865000Y-92340000D01*
G75*
G02*
X92025000Y-92180000I160000J0D01*
G01*
X92420000Y-92180000D01*
G75*
G02*
X92580000Y-92340000I0J-160000D01*
G01*
G37*
G36*
G01*
X140885000Y-111635000D02*
X140565000Y-111635000D01*
G75*
G02*
X140405000Y-111475000I0J160000D01*
G01*
X140405000Y-111080000D01*
G75*
G02*
X140565000Y-110920000I160000J0D01*
G01*
X140885000Y-110920000D01*
G75*
G02*
X141045000Y-111080000I0J-160000D01*
G01*
X141045000Y-111475000D01*
G75*
G02*
X140885000Y-111635000I-160000J0D01*
G01*
G37*
G36*
G01*
X140885000Y-112830000D02*
X140565000Y-112830000D01*
G75*
G02*
X140405000Y-112670000I0J160000D01*
G01*
X140405000Y-112275000D01*
G75*
G02*
X140565000Y-112115000I160000J0D01*
G01*
X140885000Y-112115000D01*
G75*
G02*
X141045000Y-112275000I0J-160000D01*
G01*
X141045000Y-112670000D01*
G75*
G02*
X140885000Y-112830000I-160000J0D01*
G01*
G37*
G36*
G01*
X102590000Y-92835000D02*
X102590000Y-92515000D01*
G75*
G02*
X102750000Y-92355000I160000J0D01*
G01*
X103145000Y-92355000D01*
G75*
G02*
X103305000Y-92515000I0J-160000D01*
G01*
X103305000Y-92835000D01*
G75*
G02*
X103145000Y-92995000I-160000J0D01*
G01*
X102750000Y-92995000D01*
G75*
G02*
X102590000Y-92835000I0J160000D01*
G01*
G37*
G36*
G01*
X101395000Y-92835000D02*
X101395000Y-92515000D01*
G75*
G02*
X101555000Y-92355000I160000J0D01*
G01*
X101950000Y-92355000D01*
G75*
G02*
X102110000Y-92515000I0J-160000D01*
G01*
X102110000Y-92835000D01*
G75*
G02*
X101950000Y-92995000I-160000J0D01*
G01*
X101555000Y-92995000D01*
G75*
G02*
X101395000Y-92835000I0J160000D01*
G01*
G37*
G36*
G01*
X98715000Y-92810000D02*
X98715000Y-92490000D01*
G75*
G02*
X98875000Y-92330000I160000J0D01*
G01*
X99270000Y-92330000D01*
G75*
G02*
X99430000Y-92490000I0J-160000D01*
G01*
X99430000Y-92810000D01*
G75*
G02*
X99270000Y-92970000I-160000J0D01*
G01*
X98875000Y-92970000D01*
G75*
G02*
X98715000Y-92810000I0J160000D01*
G01*
G37*
G36*
G01*
X97520000Y-92810000D02*
X97520000Y-92490000D01*
G75*
G02*
X97680000Y-92330000I160000J0D01*
G01*
X98075000Y-92330000D01*
G75*
G02*
X98235000Y-92490000I0J-160000D01*
G01*
X98235000Y-92810000D01*
G75*
G02*
X98075000Y-92970000I-160000J0D01*
G01*
X97680000Y-92970000D01*
G75*
G02*
X97520000Y-92810000I0J160000D01*
G01*
G37*
G36*
G01*
X163060000Y-126240000D02*
X163060000Y-126560000D01*
G75*
G02*
X162900000Y-126720000I-160000J0D01*
G01*
X162505000Y-126720000D01*
G75*
G02*
X162345000Y-126560000I0J160000D01*
G01*
X162345000Y-126240000D01*
G75*
G02*
X162505000Y-126080000I160000J0D01*
G01*
X162900000Y-126080000D01*
G75*
G02*
X163060000Y-126240000I0J-160000D01*
G01*
G37*
G36*
G01*
X164255000Y-126240000D02*
X164255000Y-126560000D01*
G75*
G02*
X164095000Y-126720000I-160000J0D01*
G01*
X163700000Y-126720000D01*
G75*
G02*
X163540000Y-126560000I0J160000D01*
G01*
X163540000Y-126240000D01*
G75*
G02*
X163700000Y-126080000I160000J0D01*
G01*
X164095000Y-126080000D01*
G75*
G02*
X164255000Y-126240000I0J-160000D01*
G01*
G37*
G36*
G01*
X167215000Y-133300000D02*
X167215000Y-132980000D01*
G75*
G02*
X167375000Y-132820000I160000J0D01*
G01*
X167770000Y-132820000D01*
G75*
G02*
X167930000Y-132980000I0J-160000D01*
G01*
X167930000Y-133300000D01*
G75*
G02*
X167770000Y-133460000I-160000J0D01*
G01*
X167375000Y-133460000D01*
G75*
G02*
X167215000Y-133300000I0J160000D01*
G01*
G37*
G36*
G01*
X168410000Y-133300000D02*
X168410000Y-132980000D01*
G75*
G02*
X168570000Y-132820000I160000J0D01*
G01*
X168965000Y-132820000D01*
G75*
G02*
X169125000Y-132980000I0J-160000D01*
G01*
X169125000Y-133300000D01*
G75*
G02*
X168965000Y-133460000I-160000J0D01*
G01*
X168570000Y-133460000D01*
G75*
G02*
X168410000Y-133300000I0J160000D01*
G01*
G37*
G36*
G01*
X167185000Y-134600000D02*
X167185000Y-134280000D01*
G75*
G02*
X167345000Y-134120000I160000J0D01*
G01*
X167740000Y-134120000D01*
G75*
G02*
X167900000Y-134280000I0J-160000D01*
G01*
X167900000Y-134600000D01*
G75*
G02*
X167740000Y-134760000I-160000J0D01*
G01*
X167345000Y-134760000D01*
G75*
G02*
X167185000Y-134600000I0J160000D01*
G01*
G37*
G36*
G01*
X168380000Y-134600000D02*
X168380000Y-134280000D01*
G75*
G02*
X168540000Y-134120000I160000J0D01*
G01*
X168935000Y-134120000D01*
G75*
G02*
X169095000Y-134280000I0J-160000D01*
G01*
X169095000Y-134600000D01*
G75*
G02*
X168935000Y-134760000I-160000J0D01*
G01*
X168540000Y-134760000D01*
G75*
G02*
X168380000Y-134600000I0J160000D01*
G01*
G37*
G36*
G01*
X158420000Y-134025000D02*
X158100000Y-134025000D01*
G75*
G02*
X157940000Y-133865000I0J160000D01*
G01*
X157940000Y-133470000D01*
G75*
G02*
X158100000Y-133310000I160000J0D01*
G01*
X158420000Y-133310000D01*
G75*
G02*
X158580000Y-133470000I0J-160000D01*
G01*
X158580000Y-133865000D01*
G75*
G02*
X158420000Y-134025000I-160000J0D01*
G01*
G37*
G36*
G01*
X158420000Y-132830000D02*
X158100000Y-132830000D01*
G75*
G02*
X157940000Y-132670000I0J160000D01*
G01*
X157940000Y-132275000D01*
G75*
G02*
X158100000Y-132115000I160000J0D01*
G01*
X158420000Y-132115000D01*
G75*
G02*
X158580000Y-132275000I0J-160000D01*
G01*
X158580000Y-132670000D01*
G75*
G02*
X158420000Y-132830000I-160000J0D01*
G01*
G37*
G36*
G01*
X159670000Y-134025000D02*
X159350000Y-134025000D01*
G75*
G02*
X159190000Y-133865000I0J160000D01*
G01*
X159190000Y-133470000D01*
G75*
G02*
X159350000Y-133310000I160000J0D01*
G01*
X159670000Y-133310000D01*
G75*
G02*
X159830000Y-133470000I0J-160000D01*
G01*
X159830000Y-133865000D01*
G75*
G02*
X159670000Y-134025000I-160000J0D01*
G01*
G37*
G36*
G01*
X159670000Y-132830000D02*
X159350000Y-132830000D01*
G75*
G02*
X159190000Y-132670000I0J160000D01*
G01*
X159190000Y-132275000D01*
G75*
G02*
X159350000Y-132115000I160000J0D01*
G01*
X159670000Y-132115000D01*
G75*
G02*
X159830000Y-132275000I0J-160000D01*
G01*
X159830000Y-132670000D01*
G75*
G02*
X159670000Y-132830000I-160000J0D01*
G01*
G37*
G36*
G01*
X167350000Y-118350000D02*
X167350000Y-118670000D01*
G75*
G02*
X167190000Y-118830000I-160000J0D01*
G01*
X166795000Y-118830000D01*
G75*
G02*
X166635000Y-118670000I0J160000D01*
G01*
X166635000Y-118350000D01*
G75*
G02*
X166795000Y-118190000I160000J0D01*
G01*
X167190000Y-118190000D01*
G75*
G02*
X167350000Y-118350000I0J-160000D01*
G01*
G37*
G36*
G01*
X168545000Y-118350000D02*
X168545000Y-118670000D01*
G75*
G02*
X168385000Y-118830000I-160000J0D01*
G01*
X167990000Y-118830000D01*
G75*
G02*
X167830000Y-118670000I0J160000D01*
G01*
X167830000Y-118350000D01*
G75*
G02*
X167990000Y-118190000I160000J0D01*
G01*
X168385000Y-118190000D01*
G75*
G02*
X168545000Y-118350000I0J-160000D01*
G01*
G37*
G36*
G01*
X167380000Y-117110000D02*
X167380000Y-117430000D01*
G75*
G02*
X167220000Y-117590000I-160000J0D01*
G01*
X166825000Y-117590000D01*
G75*
G02*
X166665000Y-117430000I0J160000D01*
G01*
X166665000Y-117110000D01*
G75*
G02*
X166825000Y-116950000I160000J0D01*
G01*
X167220000Y-116950000D01*
G75*
G02*
X167380000Y-117110000I0J-160000D01*
G01*
G37*
G36*
G01*
X168575000Y-117110000D02*
X168575000Y-117430000D01*
G75*
G02*
X168415000Y-117590000I-160000J0D01*
G01*
X168020000Y-117590000D01*
G75*
G02*
X167860000Y-117430000I0J160000D01*
G01*
X167860000Y-117110000D01*
G75*
G02*
X168020000Y-116950000I160000J0D01*
G01*
X168415000Y-116950000D01*
G75*
G02*
X168575000Y-117110000I0J-160000D01*
G01*
G37*
G36*
G01*
X167530000Y-127620000D02*
X167850000Y-127620000D01*
G75*
G02*
X168010000Y-127780000I0J-160000D01*
G01*
X168010000Y-128175000D01*
G75*
G02*
X167850000Y-128335000I-160000J0D01*
G01*
X167530000Y-128335000D01*
G75*
G02*
X167370000Y-128175000I0J160000D01*
G01*
X167370000Y-127780000D01*
G75*
G02*
X167530000Y-127620000I160000J0D01*
G01*
G37*
G36*
G01*
X167530000Y-126425000D02*
X167850000Y-126425000D01*
G75*
G02*
X168010000Y-126585000I0J-160000D01*
G01*
X168010000Y-126980000D01*
G75*
G02*
X167850000Y-127140000I-160000J0D01*
G01*
X167530000Y-127140000D01*
G75*
G02*
X167370000Y-126980000I0J160000D01*
G01*
X167370000Y-126585000D01*
G75*
G02*
X167530000Y-126425000I160000J0D01*
G01*
G37*
G36*
G01*
X166340000Y-127640000D02*
X166660000Y-127640000D01*
G75*
G02*
X166820000Y-127800000I0J-160000D01*
G01*
X166820000Y-128195000D01*
G75*
G02*
X166660000Y-128355000I-160000J0D01*
G01*
X166340000Y-128355000D01*
G75*
G02*
X166180000Y-128195000I0J160000D01*
G01*
X166180000Y-127800000D01*
G75*
G02*
X166340000Y-127640000I160000J0D01*
G01*
G37*
G36*
G01*
X166340000Y-126445000D02*
X166660000Y-126445000D01*
G75*
G02*
X166820000Y-126605000I0J-160000D01*
G01*
X166820000Y-127000000D01*
G75*
G02*
X166660000Y-127160000I-160000J0D01*
G01*
X166340000Y-127160000D01*
G75*
G02*
X166180000Y-127000000I0J160000D01*
G01*
X166180000Y-126605000D01*
G75*
G02*
X166340000Y-126445000I160000J0D01*
G01*
G37*
D16*
X161610000Y-120230000D03*
X162110000Y-120230000D03*
X162610000Y-120230000D03*
X163110000Y-120230000D03*
X163610000Y-120230000D03*
X163610000Y-124630000D03*
X163110000Y-124630000D03*
X162610000Y-124630000D03*
X162110000Y-124630000D03*
X161610000Y-124630000D03*
X165900000Y-120300000D03*
X166400000Y-120300000D03*
X166900000Y-120300000D03*
X167400000Y-120300000D03*
X167900000Y-120300000D03*
X167900000Y-124700000D03*
X167400000Y-124700000D03*
X166900000Y-124700000D03*
X166400000Y-124700000D03*
X165900000Y-124700000D03*
D17*
X161220000Y-132140000D03*
X161220000Y-132640000D03*
X161220000Y-133140000D03*
X161220000Y-133640000D03*
X161220000Y-134140000D03*
X165620000Y-134140000D03*
X165620000Y-133640000D03*
X165620000Y-133140000D03*
X165620000Y-132640000D03*
X165620000Y-132140000D03*
G36*
G01*
X162040000Y-118255000D02*
X162040000Y-118565000D01*
G75*
G02*
X161885000Y-118720000I-155000J0D01*
G01*
X161460000Y-118720000D01*
G75*
G02*
X161305000Y-118565000I0J155000D01*
G01*
X161305000Y-118255000D01*
G75*
G02*
X161460000Y-118100000I155000J0D01*
G01*
X161885000Y-118100000D01*
G75*
G02*
X162040000Y-118255000I0J-155000D01*
G01*
G37*
G36*
G01*
X163175000Y-118255000D02*
X163175000Y-118565000D01*
G75*
G02*
X163020000Y-118720000I-155000J0D01*
G01*
X162595000Y-118720000D01*
G75*
G02*
X162440000Y-118565000I0J155000D01*
G01*
X162440000Y-118255000D01*
G75*
G02*
X162595000Y-118100000I155000J0D01*
G01*
X163020000Y-118100000D01*
G75*
G02*
X163175000Y-118255000I0J-155000D01*
G01*
G37*
G36*
G01*
X164657500Y-118325000D02*
X164657500Y-118635000D01*
G75*
G02*
X164502500Y-118790000I-155000J0D01*
G01*
X164077500Y-118790000D01*
G75*
G02*
X163922500Y-118635000I0J155000D01*
G01*
X163922500Y-118325000D01*
G75*
G02*
X164077500Y-118170000I155000J0D01*
G01*
X164502500Y-118170000D01*
G75*
G02*
X164657500Y-118325000I0J-155000D01*
G01*
G37*
G36*
G01*
X165792500Y-118325000D02*
X165792500Y-118635000D01*
G75*
G02*
X165637500Y-118790000I-155000J0D01*
G01*
X165212500Y-118790000D01*
G75*
G02*
X165057500Y-118635000I0J155000D01*
G01*
X165057500Y-118325000D01*
G75*
G02*
X165212500Y-118170000I155000J0D01*
G01*
X165637500Y-118170000D01*
G75*
G02*
X165792500Y-118325000I0J-155000D01*
G01*
G37*
G36*
G01*
X159545000Y-118460000D02*
X159855000Y-118460000D01*
G75*
G02*
X160010000Y-118615000I0J-155000D01*
G01*
X160010000Y-119040000D01*
G75*
G02*
X159855000Y-119195000I-155000J0D01*
G01*
X159545000Y-119195000D01*
G75*
G02*
X159390000Y-119040000I0J155000D01*
G01*
X159390000Y-118615000D01*
G75*
G02*
X159545000Y-118460000I155000J0D01*
G01*
G37*
G36*
G01*
X159545000Y-117325000D02*
X159855000Y-117325000D01*
G75*
G02*
X160010000Y-117480000I0J-155000D01*
G01*
X160010000Y-117905000D01*
G75*
G02*
X159855000Y-118060000I-155000J0D01*
G01*
X159545000Y-118060000D01*
G75*
G02*
X159390000Y-117905000I0J155000D01*
G01*
X159390000Y-117480000D01*
G75*
G02*
X159545000Y-117325000I155000J0D01*
G01*
G37*
G36*
G01*
X167225000Y-131985000D02*
X167225000Y-131675000D01*
G75*
G02*
X167380000Y-131520000I155000J0D01*
G01*
X167805000Y-131520000D01*
G75*
G02*
X167960000Y-131675000I0J-155000D01*
G01*
X167960000Y-131985000D01*
G75*
G02*
X167805000Y-132140000I-155000J0D01*
G01*
X167380000Y-132140000D01*
G75*
G02*
X167225000Y-131985000I0J155000D01*
G01*
G37*
G36*
G01*
X168360000Y-131985000D02*
X168360000Y-131675000D01*
G75*
G02*
X168515000Y-131520000I155000J0D01*
G01*
X168940000Y-131520000D01*
G75*
G02*
X169095000Y-131675000I0J-155000D01*
G01*
X169095000Y-131985000D01*
G75*
G02*
X168940000Y-132140000I-155000J0D01*
G01*
X168515000Y-132140000D01*
G75*
G02*
X168360000Y-131985000I0J155000D01*
G01*
G37*
D18*
X133670000Y-124340000D03*
X138270000Y-124340000D03*
X135970000Y-124340000D03*
D19*
X135970000Y-118040000D03*
D20*
X171120000Y-86205000D03*
X178740000Y-95735000D03*
X173660000Y-86205000D03*
X176200000Y-95735000D03*
X176200000Y-86205000D03*
X173660000Y-95735000D03*
X178740000Y-86205000D03*
X171120000Y-95735000D03*
D21*
X141295000Y-100650000D03*
X150825000Y-93030000D03*
X141295000Y-98110000D03*
X150825000Y-95570000D03*
X141295000Y-95570000D03*
X150825000Y-98110000D03*
X141295000Y-93030000D03*
X150825000Y-100650000D03*
G36*
G01*
X165875000Y-96495000D02*
X165205000Y-96495000D01*
G75*
G02*
X165055000Y-96345000I0J150000D01*
G01*
X165055000Y-96045000D01*
G75*
G02*
X165205000Y-95895000I150000J0D01*
G01*
X165875000Y-95895000D01*
G75*
G02*
X166025000Y-96045000I0J-150000D01*
G01*
X166025000Y-96345000D01*
G75*
G02*
X165875000Y-96495000I-150000J0D01*
G01*
G37*
G36*
G01*
X164675000Y-96495000D02*
X164005000Y-96495000D01*
G75*
G02*
X163855000Y-96345000I0J150000D01*
G01*
X163855000Y-96045000D01*
G75*
G02*
X164005000Y-95895000I150000J0D01*
G01*
X164675000Y-95895000D01*
G75*
G02*
X164825000Y-96045000I0J-150000D01*
G01*
X164825000Y-96345000D01*
G75*
G02*
X164675000Y-96495000I-150000J0D01*
G01*
G37*
G36*
G01*
X165875000Y-97245000D02*
X165205000Y-97245000D01*
G75*
G02*
X165055000Y-97095000I0J150000D01*
G01*
X165055000Y-96795000D01*
G75*
G02*
X165205000Y-96645000I150000J0D01*
G01*
X165875000Y-96645000D01*
G75*
G02*
X166025000Y-96795000I0J-150000D01*
G01*
X166025000Y-97095000D01*
G75*
G02*
X165875000Y-97245000I-150000J0D01*
G01*
G37*
G36*
G01*
X164675000Y-97245000D02*
X164005000Y-97245000D01*
G75*
G02*
X163855000Y-97095000I0J150000D01*
G01*
X163855000Y-96795000D01*
G75*
G02*
X164005000Y-96645000I150000J0D01*
G01*
X164675000Y-96645000D01*
G75*
G02*
X164825000Y-96795000I0J-150000D01*
G01*
X164825000Y-97095000D01*
G75*
G02*
X164675000Y-97245000I-150000J0D01*
G01*
G37*
G36*
G01*
X164040000Y-95520000D02*
X163840000Y-95520000D01*
G75*
G02*
X163740000Y-95420000I0J100000D01*
G01*
X163740000Y-94820000D01*
G75*
G02*
X163840000Y-94720000I100000J0D01*
G01*
X164040000Y-94720000D01*
G75*
G02*
X164140000Y-94820000I0J-100000D01*
G01*
X164140000Y-95420000D01*
G75*
G02*
X164040000Y-95520000I-100000J0D01*
G01*
G37*
G36*
G01*
X165040000Y-95520000D02*
X164840000Y-95520000D01*
G75*
G02*
X164740000Y-95420000I0J100000D01*
G01*
X164740000Y-94820000D01*
G75*
G02*
X164840000Y-94720000I100000J0D01*
G01*
X165040000Y-94720000D01*
G75*
G02*
X165140000Y-94820000I0J-100000D01*
G01*
X165140000Y-95420000D01*
G75*
G02*
X165040000Y-95520000I-100000J0D01*
G01*
G37*
G36*
G01*
X166040000Y-95520000D02*
X165840000Y-95520000D01*
G75*
G02*
X165740000Y-95420000I0J100000D01*
G01*
X165740000Y-94820000D01*
G75*
G02*
X165840000Y-94720000I100000J0D01*
G01*
X166040000Y-94720000D01*
G75*
G02*
X166140000Y-94820000I0J-100000D01*
G01*
X166140000Y-95420000D01*
G75*
G02*
X166040000Y-95520000I-100000J0D01*
G01*
G37*
G36*
G01*
X166040000Y-98420000D02*
X165840000Y-98420000D01*
G75*
G02*
X165740000Y-98320000I0J100000D01*
G01*
X165740000Y-97720000D01*
G75*
G02*
X165840000Y-97620000I100000J0D01*
G01*
X166040000Y-97620000D01*
G75*
G02*
X166140000Y-97720000I0J-100000D01*
G01*
X166140000Y-98320000D01*
G75*
G02*
X166040000Y-98420000I-100000J0D01*
G01*
G37*
G36*
G01*
X165040000Y-98420000D02*
X164840000Y-98420000D01*
G75*
G02*
X164740000Y-98320000I0J100000D01*
G01*
X164740000Y-97720000D01*
G75*
G02*
X164840000Y-97620000I100000J0D01*
G01*
X165040000Y-97620000D01*
G75*
G02*
X165140000Y-97720000I0J-100000D01*
G01*
X165140000Y-98320000D01*
G75*
G02*
X165040000Y-98420000I-100000J0D01*
G01*
G37*
G36*
G01*
X164040000Y-98420000D02*
X163840000Y-98420000D01*
G75*
G02*
X163740000Y-98320000I0J100000D01*
G01*
X163740000Y-97720000D01*
G75*
G02*
X163840000Y-97620000I100000J0D01*
G01*
X164040000Y-97620000D01*
G75*
G02*
X164140000Y-97720000I0J-100000D01*
G01*
X164140000Y-98320000D01*
G75*
G02*
X164040000Y-98420000I-100000J0D01*
G01*
G37*
G36*
G01*
X175145000Y-61890000D02*
X175455000Y-61890000D01*
G75*
G02*
X175610000Y-62045000I0J-155000D01*
G01*
X175610000Y-62470000D01*
G75*
G02*
X175455000Y-62625000I-155000J0D01*
G01*
X175145000Y-62625000D01*
G75*
G02*
X174990000Y-62470000I0J155000D01*
G01*
X174990000Y-62045000D01*
G75*
G02*
X175145000Y-61890000I155000J0D01*
G01*
G37*
G36*
G01*
X175145000Y-60755000D02*
X175455000Y-60755000D01*
G75*
G02*
X175610000Y-60910000I0J-155000D01*
G01*
X175610000Y-61335000D01*
G75*
G02*
X175455000Y-61490000I-155000J0D01*
G01*
X175145000Y-61490000D01*
G75*
G02*
X174990000Y-61335000I0J155000D01*
G01*
X174990000Y-60910000D01*
G75*
G02*
X175145000Y-60755000I155000J0D01*
G01*
G37*
D22*
X159100000Y-71425000D03*
X159100000Y-72695000D03*
X159100000Y-73965000D03*
X159100000Y-75235000D03*
X159100000Y-76505000D03*
X159100000Y-77775000D03*
X159100000Y-79045000D03*
X159100000Y-80315000D03*
X159100000Y-81585000D03*
X159100000Y-82855000D03*
X159100000Y-84125000D03*
X159100000Y-85395000D03*
X159100000Y-86665000D03*
X159100000Y-87935000D03*
D23*
X156315000Y-88935000D03*
X155045000Y-88935000D03*
X153775000Y-88935000D03*
X152505000Y-88935000D03*
X151235000Y-88935000D03*
X149965000Y-88935000D03*
X148695000Y-88935000D03*
X147425000Y-88935000D03*
X146155000Y-88935000D03*
X144885000Y-88935000D03*
D22*
X142100000Y-87935000D03*
X142100000Y-86665000D03*
X142100000Y-85395000D03*
X142100000Y-84125000D03*
X142100000Y-82855000D03*
X142100000Y-81585000D03*
X142100000Y-80315000D03*
X142100000Y-79045000D03*
X142100000Y-77775000D03*
X142100000Y-76505000D03*
X142100000Y-75235000D03*
X142100000Y-73965000D03*
X142100000Y-72695000D03*
X142100000Y-71425000D03*
D24*
X149600000Y-78925000D03*
D25*
X160310000Y-95215000D03*
X160310000Y-100265000D03*
X157770000Y-95215000D03*
X157770000Y-100265000D03*
D26*
X127475000Y-89360000D03*
X132525000Y-89360000D03*
X127475000Y-91900000D03*
X132525000Y-91900000D03*
X127475000Y-94440000D03*
X132525000Y-94440000D03*
X127475000Y-96980000D03*
X132525000Y-96980000D03*
X127475000Y-99520000D03*
X132525000Y-99520000D03*
X127475000Y-102060000D03*
X132525000Y-102060000D03*
G36*
G01*
X102120000Y-122330000D02*
X102120000Y-124330000D01*
G75*
G02*
X101870000Y-124580000I-250000J0D01*
G01*
X98370000Y-124580000D01*
G75*
G02*
X98120000Y-124330000I0J250000D01*
G01*
X98120000Y-122330000D01*
G75*
G02*
X98370000Y-122080000I250000J0D01*
G01*
X101870000Y-122080000D01*
G75*
G02*
X102120000Y-122330000I0J-250000D01*
G01*
G37*
G36*
G01*
X110120000Y-122330000D02*
X110120000Y-124330000D01*
G75*
G02*
X109870000Y-124580000I-250000J0D01*
G01*
X106370000Y-124580000D01*
G75*
G02*
X106120000Y-124330000I0J250000D01*
G01*
X106120000Y-122330000D01*
G75*
G02*
X106370000Y-122080000I250000J0D01*
G01*
X109870000Y-122080000D01*
G75*
G02*
X110120000Y-122330000I0J-250000D01*
G01*
G37*
G36*
G01*
X156485000Y-105055000D02*
X156485000Y-104755000D01*
G75*
G02*
X156635000Y-104605000I150000J0D01*
G01*
X158385000Y-104605000D01*
G75*
G02*
X158535000Y-104755000I0J-150000D01*
G01*
X158535000Y-105055000D01*
G75*
G02*
X158385000Y-105205000I-150000J0D01*
G01*
X156635000Y-105205000D01*
G75*
G02*
X156485000Y-105055000I0J150000D01*
G01*
G37*
G36*
G01*
X156485000Y-106325000D02*
X156485000Y-106025000D01*
G75*
G02*
X156635000Y-105875000I150000J0D01*
G01*
X158385000Y-105875000D01*
G75*
G02*
X158535000Y-106025000I0J-150000D01*
G01*
X158535000Y-106325000D01*
G75*
G02*
X158385000Y-106475000I-150000J0D01*
G01*
X156635000Y-106475000D01*
G75*
G02*
X156485000Y-106325000I0J150000D01*
G01*
G37*
G36*
G01*
X156485000Y-107595000D02*
X156485000Y-107295000D01*
G75*
G02*
X156635000Y-107145000I150000J0D01*
G01*
X158385000Y-107145000D01*
G75*
G02*
X158535000Y-107295000I0J-150000D01*
G01*
X158535000Y-107595000D01*
G75*
G02*
X158385000Y-107745000I-150000J0D01*
G01*
X156635000Y-107745000D01*
G75*
G02*
X156485000Y-107595000I0J150000D01*
G01*
G37*
G36*
G01*
X156485000Y-108865000D02*
X156485000Y-108565000D01*
G75*
G02*
X156635000Y-108415000I150000J0D01*
G01*
X158385000Y-108415000D01*
G75*
G02*
X158535000Y-108565000I0J-150000D01*
G01*
X158535000Y-108865000D01*
G75*
G02*
X158385000Y-109015000I-150000J0D01*
G01*
X156635000Y-109015000D01*
G75*
G02*
X156485000Y-108865000I0J150000D01*
G01*
G37*
G36*
G01*
X156485000Y-110135000D02*
X156485000Y-109835000D01*
G75*
G02*
X156635000Y-109685000I150000J0D01*
G01*
X158385000Y-109685000D01*
G75*
G02*
X158535000Y-109835000I0J-150000D01*
G01*
X158535000Y-110135000D01*
G75*
G02*
X158385000Y-110285000I-150000J0D01*
G01*
X156635000Y-110285000D01*
G75*
G02*
X156485000Y-110135000I0J150000D01*
G01*
G37*
G36*
G01*
X156485000Y-111405000D02*
X156485000Y-111105000D01*
G75*
G02*
X156635000Y-110955000I150000J0D01*
G01*
X158385000Y-110955000D01*
G75*
G02*
X158535000Y-111105000I0J-150000D01*
G01*
X158535000Y-111405000D01*
G75*
G02*
X158385000Y-111555000I-150000J0D01*
G01*
X156635000Y-111555000D01*
G75*
G02*
X156485000Y-111405000I0J150000D01*
G01*
G37*
G36*
G01*
X156485000Y-112675000D02*
X156485000Y-112375000D01*
G75*
G02*
X156635000Y-112225000I150000J0D01*
G01*
X158385000Y-112225000D01*
G75*
G02*
X158535000Y-112375000I0J-150000D01*
G01*
X158535000Y-112675000D01*
G75*
G02*
X158385000Y-112825000I-150000J0D01*
G01*
X156635000Y-112825000D01*
G75*
G02*
X156485000Y-112675000I0J150000D01*
G01*
G37*
G36*
G01*
X156485000Y-113945000D02*
X156485000Y-113645000D01*
G75*
G02*
X156635000Y-113495000I150000J0D01*
G01*
X158385000Y-113495000D01*
G75*
G02*
X158535000Y-113645000I0J-150000D01*
G01*
X158535000Y-113945000D01*
G75*
G02*
X158385000Y-114095000I-150000J0D01*
G01*
X156635000Y-114095000D01*
G75*
G02*
X156485000Y-113945000I0J150000D01*
G01*
G37*
G36*
G01*
X156485000Y-115215000D02*
X156485000Y-114915000D01*
G75*
G02*
X156635000Y-114765000I150000J0D01*
G01*
X158385000Y-114765000D01*
G75*
G02*
X158535000Y-114915000I0J-150000D01*
G01*
X158535000Y-115215000D01*
G75*
G02*
X158385000Y-115365000I-150000J0D01*
G01*
X156635000Y-115365000D01*
G75*
G02*
X156485000Y-115215000I0J150000D01*
G01*
G37*
G36*
G01*
X156485000Y-116485000D02*
X156485000Y-116185000D01*
G75*
G02*
X156635000Y-116035000I150000J0D01*
G01*
X158385000Y-116035000D01*
G75*
G02*
X158535000Y-116185000I0J-150000D01*
G01*
X158535000Y-116485000D01*
G75*
G02*
X158385000Y-116635000I-150000J0D01*
G01*
X156635000Y-116635000D01*
G75*
G02*
X156485000Y-116485000I0J150000D01*
G01*
G37*
G36*
G01*
X156485000Y-117755000D02*
X156485000Y-117455000D01*
G75*
G02*
X156635000Y-117305000I150000J0D01*
G01*
X158385000Y-117305000D01*
G75*
G02*
X158535000Y-117455000I0J-150000D01*
G01*
X158535000Y-117755000D01*
G75*
G02*
X158385000Y-117905000I-150000J0D01*
G01*
X156635000Y-117905000D01*
G75*
G02*
X156485000Y-117755000I0J150000D01*
G01*
G37*
G36*
G01*
X156485000Y-119025000D02*
X156485000Y-118725000D01*
G75*
G02*
X156635000Y-118575000I150000J0D01*
G01*
X158385000Y-118575000D01*
G75*
G02*
X158535000Y-118725000I0J-150000D01*
G01*
X158535000Y-119025000D01*
G75*
G02*
X158385000Y-119175000I-150000J0D01*
G01*
X156635000Y-119175000D01*
G75*
G02*
X156485000Y-119025000I0J150000D01*
G01*
G37*
G36*
G01*
X156485000Y-120295000D02*
X156485000Y-119995000D01*
G75*
G02*
X156635000Y-119845000I150000J0D01*
G01*
X158385000Y-119845000D01*
G75*
G02*
X158535000Y-119995000I0J-150000D01*
G01*
X158535000Y-120295000D01*
G75*
G02*
X158385000Y-120445000I-150000J0D01*
G01*
X156635000Y-120445000D01*
G75*
G02*
X156485000Y-120295000I0J150000D01*
G01*
G37*
G36*
G01*
X156485000Y-121565000D02*
X156485000Y-121265000D01*
G75*
G02*
X156635000Y-121115000I150000J0D01*
G01*
X158385000Y-121115000D01*
G75*
G02*
X158535000Y-121265000I0J-150000D01*
G01*
X158535000Y-121565000D01*
G75*
G02*
X158385000Y-121715000I-150000J0D01*
G01*
X156635000Y-121715000D01*
G75*
G02*
X156485000Y-121565000I0J150000D01*
G01*
G37*
G36*
G01*
X147185000Y-121565000D02*
X147185000Y-121265000D01*
G75*
G02*
X147335000Y-121115000I150000J0D01*
G01*
X149085000Y-121115000D01*
G75*
G02*
X149235000Y-121265000I0J-150000D01*
G01*
X149235000Y-121565000D01*
G75*
G02*
X149085000Y-121715000I-150000J0D01*
G01*
X147335000Y-121715000D01*
G75*
G02*
X147185000Y-121565000I0J150000D01*
G01*
G37*
G36*
G01*
X147185000Y-120295000D02*
X147185000Y-119995000D01*
G75*
G02*
X147335000Y-119845000I150000J0D01*
G01*
X149085000Y-119845000D01*
G75*
G02*
X149235000Y-119995000I0J-150000D01*
G01*
X149235000Y-120295000D01*
G75*
G02*
X149085000Y-120445000I-150000J0D01*
G01*
X147335000Y-120445000D01*
G75*
G02*
X147185000Y-120295000I0J150000D01*
G01*
G37*
G36*
G01*
X147185000Y-119025000D02*
X147185000Y-118725000D01*
G75*
G02*
X147335000Y-118575000I150000J0D01*
G01*
X149085000Y-118575000D01*
G75*
G02*
X149235000Y-118725000I0J-150000D01*
G01*
X149235000Y-119025000D01*
G75*
G02*
X149085000Y-119175000I-150000J0D01*
G01*
X147335000Y-119175000D01*
G75*
G02*
X147185000Y-119025000I0J150000D01*
G01*
G37*
G36*
G01*
X147185000Y-117755000D02*
X147185000Y-117455000D01*
G75*
G02*
X147335000Y-117305000I150000J0D01*
G01*
X149085000Y-117305000D01*
G75*
G02*
X149235000Y-117455000I0J-150000D01*
G01*
X149235000Y-117755000D01*
G75*
G02*
X149085000Y-117905000I-150000J0D01*
G01*
X147335000Y-117905000D01*
G75*
G02*
X147185000Y-117755000I0J150000D01*
G01*
G37*
G36*
G01*
X147185000Y-116485000D02*
X147185000Y-116185000D01*
G75*
G02*
X147335000Y-116035000I150000J0D01*
G01*
X149085000Y-116035000D01*
G75*
G02*
X149235000Y-116185000I0J-150000D01*
G01*
X149235000Y-116485000D01*
G75*
G02*
X149085000Y-116635000I-150000J0D01*
G01*
X147335000Y-116635000D01*
G75*
G02*
X147185000Y-116485000I0J150000D01*
G01*
G37*
G36*
G01*
X147185000Y-115215000D02*
X147185000Y-114915000D01*
G75*
G02*
X147335000Y-114765000I150000J0D01*
G01*
X149085000Y-114765000D01*
G75*
G02*
X149235000Y-114915000I0J-150000D01*
G01*
X149235000Y-115215000D01*
G75*
G02*
X149085000Y-115365000I-150000J0D01*
G01*
X147335000Y-115365000D01*
G75*
G02*
X147185000Y-115215000I0J150000D01*
G01*
G37*
G36*
G01*
X147185000Y-113945000D02*
X147185000Y-113645000D01*
G75*
G02*
X147335000Y-113495000I150000J0D01*
G01*
X149085000Y-113495000D01*
G75*
G02*
X149235000Y-113645000I0J-150000D01*
G01*
X149235000Y-113945000D01*
G75*
G02*
X149085000Y-114095000I-150000J0D01*
G01*
X147335000Y-114095000D01*
G75*
G02*
X147185000Y-113945000I0J150000D01*
G01*
G37*
G36*
G01*
X147185000Y-112675000D02*
X147185000Y-112375000D01*
G75*
G02*
X147335000Y-112225000I150000J0D01*
G01*
X149085000Y-112225000D01*
G75*
G02*
X149235000Y-112375000I0J-150000D01*
G01*
X149235000Y-112675000D01*
G75*
G02*
X149085000Y-112825000I-150000J0D01*
G01*
X147335000Y-112825000D01*
G75*
G02*
X147185000Y-112675000I0J150000D01*
G01*
G37*
G36*
G01*
X147185000Y-111405000D02*
X147185000Y-111105000D01*
G75*
G02*
X147335000Y-110955000I150000J0D01*
G01*
X149085000Y-110955000D01*
G75*
G02*
X149235000Y-111105000I0J-150000D01*
G01*
X149235000Y-111405000D01*
G75*
G02*
X149085000Y-111555000I-150000J0D01*
G01*
X147335000Y-111555000D01*
G75*
G02*
X147185000Y-111405000I0J150000D01*
G01*
G37*
G36*
G01*
X147185000Y-110135000D02*
X147185000Y-109835000D01*
G75*
G02*
X147335000Y-109685000I150000J0D01*
G01*
X149085000Y-109685000D01*
G75*
G02*
X149235000Y-109835000I0J-150000D01*
G01*
X149235000Y-110135000D01*
G75*
G02*
X149085000Y-110285000I-150000J0D01*
G01*
X147335000Y-110285000D01*
G75*
G02*
X147185000Y-110135000I0J150000D01*
G01*
G37*
G36*
G01*
X147185000Y-108865000D02*
X147185000Y-108565000D01*
G75*
G02*
X147335000Y-108415000I150000J0D01*
G01*
X149085000Y-108415000D01*
G75*
G02*
X149235000Y-108565000I0J-150000D01*
G01*
X149235000Y-108865000D01*
G75*
G02*
X149085000Y-109015000I-150000J0D01*
G01*
X147335000Y-109015000D01*
G75*
G02*
X147185000Y-108865000I0J150000D01*
G01*
G37*
G36*
G01*
X147185000Y-107595000D02*
X147185000Y-107295000D01*
G75*
G02*
X147335000Y-107145000I150000J0D01*
G01*
X149085000Y-107145000D01*
G75*
G02*
X149235000Y-107295000I0J-150000D01*
G01*
X149235000Y-107595000D01*
G75*
G02*
X149085000Y-107745000I-150000J0D01*
G01*
X147335000Y-107745000D01*
G75*
G02*
X147185000Y-107595000I0J150000D01*
G01*
G37*
G36*
G01*
X147185000Y-106325000D02*
X147185000Y-106025000D01*
G75*
G02*
X147335000Y-105875000I150000J0D01*
G01*
X149085000Y-105875000D01*
G75*
G02*
X149235000Y-106025000I0J-150000D01*
G01*
X149235000Y-106325000D01*
G75*
G02*
X149085000Y-106475000I-150000J0D01*
G01*
X147335000Y-106475000D01*
G75*
G02*
X147185000Y-106325000I0J150000D01*
G01*
G37*
G36*
G01*
X147185000Y-105055000D02*
X147185000Y-104755000D01*
G75*
G02*
X147335000Y-104605000I150000J0D01*
G01*
X149085000Y-104605000D01*
G75*
G02*
X149235000Y-104755000I0J-150000D01*
G01*
X149235000Y-105055000D01*
G75*
G02*
X149085000Y-105205000I-150000J0D01*
G01*
X147335000Y-105205000D01*
G75*
G02*
X147185000Y-105055000I0J150000D01*
G01*
G37*
G36*
G01*
X146790000Y-125627500D02*
X147110000Y-125627500D01*
G75*
G02*
X147270000Y-125787500I0J-160000D01*
G01*
X147270000Y-126182500D01*
G75*
G02*
X147110000Y-126342500I-160000J0D01*
G01*
X146790000Y-126342500D01*
G75*
G02*
X146630000Y-126182500I0J160000D01*
G01*
X146630000Y-125787500D01*
G75*
G02*
X146790000Y-125627500I160000J0D01*
G01*
G37*
G36*
G01*
X146790000Y-124432500D02*
X147110000Y-124432500D01*
G75*
G02*
X147270000Y-124592500I0J-160000D01*
G01*
X147270000Y-124987500D01*
G75*
G02*
X147110000Y-125147500I-160000J0D01*
G01*
X146790000Y-125147500D01*
G75*
G02*
X146630000Y-124987500I0J160000D01*
G01*
X146630000Y-124592500D01*
G75*
G02*
X146790000Y-124432500I160000J0D01*
G01*
G37*
G36*
G01*
X152030000Y-125177500D02*
X151710000Y-125177500D01*
G75*
G02*
X151550000Y-125017500I0J160000D01*
G01*
X151550000Y-124622500D01*
G75*
G02*
X151710000Y-124462500I160000J0D01*
G01*
X152030000Y-124462500D01*
G75*
G02*
X152190000Y-124622500I0J-160000D01*
G01*
X152190000Y-125017500D01*
G75*
G02*
X152030000Y-125177500I-160000J0D01*
G01*
G37*
G36*
G01*
X152030000Y-126372500D02*
X151710000Y-126372500D01*
G75*
G02*
X151550000Y-126212500I0J160000D01*
G01*
X151550000Y-125817500D01*
G75*
G02*
X151710000Y-125657500I160000J0D01*
G01*
X152030000Y-125657500D01*
G75*
G02*
X152190000Y-125817500I0J-160000D01*
G01*
X152190000Y-126212500D01*
G75*
G02*
X152030000Y-126372500I-160000J0D01*
G01*
G37*
G36*
G01*
X143070000Y-113605000D02*
X143070000Y-113925000D01*
G75*
G02*
X142910000Y-114085000I-160000J0D01*
G01*
X142515000Y-114085000D01*
G75*
G02*
X142355000Y-113925000I0J160000D01*
G01*
X142355000Y-113605000D01*
G75*
G02*
X142515000Y-113445000I160000J0D01*
G01*
X142910000Y-113445000D01*
G75*
G02*
X143070000Y-113605000I0J-160000D01*
G01*
G37*
G36*
G01*
X144265000Y-113605000D02*
X144265000Y-113925000D01*
G75*
G02*
X144105000Y-114085000I-160000J0D01*
G01*
X143710000Y-114085000D01*
G75*
G02*
X143550000Y-113925000I0J160000D01*
G01*
X143550000Y-113605000D01*
G75*
G02*
X143710000Y-113445000I160000J0D01*
G01*
X144105000Y-113445000D01*
G75*
G02*
X144265000Y-113605000I0J-160000D01*
G01*
G37*
G36*
G01*
X153090000Y-125710000D02*
X153410000Y-125710000D01*
G75*
G02*
X153570000Y-125870000I0J-160000D01*
G01*
X153570000Y-126265000D01*
G75*
G02*
X153410000Y-126425000I-160000J0D01*
G01*
X153090000Y-126425000D01*
G75*
G02*
X152930000Y-126265000I0J160000D01*
G01*
X152930000Y-125870000D01*
G75*
G02*
X153090000Y-125710000I160000J0D01*
G01*
G37*
G36*
G01*
X153090000Y-124515000D02*
X153410000Y-124515000D01*
G75*
G02*
X153570000Y-124675000I0J-160000D01*
G01*
X153570000Y-125070000D01*
G75*
G02*
X153410000Y-125230000I-160000J0D01*
G01*
X153090000Y-125230000D01*
G75*
G02*
X152930000Y-125070000I0J160000D01*
G01*
X152930000Y-124675000D01*
G75*
G02*
X153090000Y-124515000I160000J0D01*
G01*
G37*
G36*
G01*
X157910000Y-125600000D02*
X158230000Y-125600000D01*
G75*
G02*
X158390000Y-125760000I0J-160000D01*
G01*
X158390000Y-126155000D01*
G75*
G02*
X158230000Y-126315000I-160000J0D01*
G01*
X157910000Y-126315000D01*
G75*
G02*
X157750000Y-126155000I0J160000D01*
G01*
X157750000Y-125760000D01*
G75*
G02*
X157910000Y-125600000I160000J0D01*
G01*
G37*
G36*
G01*
X157910000Y-124405000D02*
X158230000Y-124405000D01*
G75*
G02*
X158390000Y-124565000I0J-160000D01*
G01*
X158390000Y-124960000D01*
G75*
G02*
X158230000Y-125120000I-160000J0D01*
G01*
X157910000Y-125120000D01*
G75*
G02*
X157750000Y-124960000I0J160000D01*
G01*
X157750000Y-124565000D01*
G75*
G02*
X157910000Y-124405000I160000J0D01*
G01*
G37*
G36*
G01*
X164660000Y-93780000D02*
X164660000Y-93460000D01*
G75*
G02*
X164820000Y-93300000I160000J0D01*
G01*
X165215000Y-93300000D01*
G75*
G02*
X165375000Y-93460000I0J-160000D01*
G01*
X165375000Y-93780000D01*
G75*
G02*
X165215000Y-93940000I-160000J0D01*
G01*
X164820000Y-93940000D01*
G75*
G02*
X164660000Y-93780000I0J160000D01*
G01*
G37*
G36*
G01*
X163465000Y-93780000D02*
X163465000Y-93460000D01*
G75*
G02*
X163625000Y-93300000I160000J0D01*
G01*
X164020000Y-93300000D01*
G75*
G02*
X164180000Y-93460000I0J-160000D01*
G01*
X164180000Y-93780000D01*
G75*
G02*
X164020000Y-93940000I-160000J0D01*
G01*
X163625000Y-93940000D01*
G75*
G02*
X163465000Y-93780000I0J160000D01*
G01*
G37*
G36*
G01*
X164442500Y-99210000D02*
X164442500Y-99530000D01*
G75*
G02*
X164282500Y-99690000I-160000J0D01*
G01*
X163887500Y-99690000D01*
G75*
G02*
X163727500Y-99530000I0J160000D01*
G01*
X163727500Y-99210000D01*
G75*
G02*
X163887500Y-99050000I160000J0D01*
G01*
X164282500Y-99050000D01*
G75*
G02*
X164442500Y-99210000I0J-160000D01*
G01*
G37*
G36*
G01*
X165637500Y-99210000D02*
X165637500Y-99530000D01*
G75*
G02*
X165477500Y-99690000I-160000J0D01*
G01*
X165082500Y-99690000D01*
G75*
G02*
X164922500Y-99530000I0J160000D01*
G01*
X164922500Y-99210000D01*
G75*
G02*
X165082500Y-99050000I160000J0D01*
G01*
X165477500Y-99050000D01*
G75*
G02*
X165637500Y-99210000I0J-160000D01*
G01*
G37*
G36*
G01*
X157162500Y-91315000D02*
X157162500Y-90995000D01*
G75*
G02*
X157322500Y-90835000I160000J0D01*
G01*
X157717500Y-90835000D01*
G75*
G02*
X157877500Y-90995000I0J-160000D01*
G01*
X157877500Y-91315000D01*
G75*
G02*
X157717500Y-91475000I-160000J0D01*
G01*
X157322500Y-91475000D01*
G75*
G02*
X157162500Y-91315000I0J160000D01*
G01*
G37*
G36*
G01*
X155967500Y-91315000D02*
X155967500Y-90995000D01*
G75*
G02*
X156127500Y-90835000I160000J0D01*
G01*
X156522500Y-90835000D01*
G75*
G02*
X156682500Y-90995000I0J-160000D01*
G01*
X156682500Y-91315000D01*
G75*
G02*
X156522500Y-91475000I-160000J0D01*
G01*
X156127500Y-91475000D01*
G75*
G02*
X155967500Y-91315000I0J160000D01*
G01*
G37*
G36*
G01*
X97260000Y-97220000D02*
X97260000Y-97540000D01*
G75*
G02*
X97100000Y-97700000I-160000J0D01*
G01*
X96705000Y-97700000D01*
G75*
G02*
X96545000Y-97540000I0J160000D01*
G01*
X96545000Y-97220000D01*
G75*
G02*
X96705000Y-97060000I160000J0D01*
G01*
X97100000Y-97060000D01*
G75*
G02*
X97260000Y-97220000I0J-160000D01*
G01*
G37*
G36*
G01*
X98455000Y-97220000D02*
X98455000Y-97540000D01*
G75*
G02*
X98295000Y-97700000I-160000J0D01*
G01*
X97900000Y-97700000D01*
G75*
G02*
X97740000Y-97540000I0J160000D01*
G01*
X97740000Y-97220000D01*
G75*
G02*
X97900000Y-97060000I160000J0D01*
G01*
X98295000Y-97060000D01*
G75*
G02*
X98455000Y-97220000I0J-160000D01*
G01*
G37*
G36*
G01*
X97740000Y-96340000D02*
X97740000Y-96020000D01*
G75*
G02*
X97900000Y-95860000I160000J0D01*
G01*
X98295000Y-95860000D01*
G75*
G02*
X98455000Y-96020000I0J-160000D01*
G01*
X98455000Y-96340000D01*
G75*
G02*
X98295000Y-96500000I-160000J0D01*
G01*
X97900000Y-96500000D01*
G75*
G02*
X97740000Y-96340000I0J160000D01*
G01*
G37*
G36*
G01*
X96545000Y-96340000D02*
X96545000Y-96020000D01*
G75*
G02*
X96705000Y-95860000I160000J0D01*
G01*
X97100000Y-95860000D01*
G75*
G02*
X97260000Y-96020000I0J-160000D01*
G01*
X97260000Y-96340000D01*
G75*
G02*
X97100000Y-96500000I-160000J0D01*
G01*
X96705000Y-96500000D01*
G75*
G02*
X96545000Y-96340000I0J160000D01*
G01*
G37*
G36*
G01*
X92307500Y-127310000D02*
X92307500Y-127630000D01*
G75*
G02*
X92147500Y-127790000I-160000J0D01*
G01*
X91752500Y-127790000D01*
G75*
G02*
X91592500Y-127630000I0J160000D01*
G01*
X91592500Y-127310000D01*
G75*
G02*
X91752500Y-127150000I160000J0D01*
G01*
X92147500Y-127150000D01*
G75*
G02*
X92307500Y-127310000I0J-160000D01*
G01*
G37*
G36*
G01*
X93502500Y-127310000D02*
X93502500Y-127630000D01*
G75*
G02*
X93342500Y-127790000I-160000J0D01*
G01*
X92947500Y-127790000D01*
G75*
G02*
X92787500Y-127630000I0J160000D01*
G01*
X92787500Y-127310000D01*
G75*
G02*
X92947500Y-127150000I160000J0D01*
G01*
X93342500Y-127150000D01*
G75*
G02*
X93502500Y-127310000I0J-160000D01*
G01*
G37*
G36*
G01*
X193332500Y-52695000D02*
X193807500Y-52695000D01*
G75*
G02*
X194045000Y-52932500I0J-237500D01*
G01*
X194045000Y-53432500D01*
G75*
G02*
X193807500Y-53670000I-237500J0D01*
G01*
X193332500Y-53670000D01*
G75*
G02*
X193095000Y-53432500I0J237500D01*
G01*
X193095000Y-52932500D01*
G75*
G02*
X193332500Y-52695000I237500J0D01*
G01*
G37*
G36*
G01*
X193332500Y-50870000D02*
X193807500Y-50870000D01*
G75*
G02*
X194045000Y-51107500I0J-237500D01*
G01*
X194045000Y-51607500D01*
G75*
G02*
X193807500Y-51845000I-237500J0D01*
G01*
X193332500Y-51845000D01*
G75*
G02*
X193095000Y-51607500I0J237500D01*
G01*
X193095000Y-51107500D01*
G75*
G02*
X193332500Y-50870000I237500J0D01*
G01*
G37*
G36*
G01*
X138680000Y-97190000D02*
X139000000Y-97190000D01*
G75*
G02*
X139160000Y-97350000I0J-160000D01*
G01*
X139160000Y-97745000D01*
G75*
G02*
X139000000Y-97905000I-160000J0D01*
G01*
X138680000Y-97905000D01*
G75*
G02*
X138520000Y-97745000I0J160000D01*
G01*
X138520000Y-97350000D01*
G75*
G02*
X138680000Y-97190000I160000J0D01*
G01*
G37*
G36*
G01*
X138680000Y-95995000D02*
X139000000Y-95995000D01*
G75*
G02*
X139160000Y-96155000I0J-160000D01*
G01*
X139160000Y-96550000D01*
G75*
G02*
X139000000Y-96710000I-160000J0D01*
G01*
X138680000Y-96710000D01*
G75*
G02*
X138520000Y-96550000I0J160000D01*
G01*
X138520000Y-96155000D01*
G75*
G02*
X138680000Y-95995000I160000J0D01*
G01*
G37*
G36*
G01*
X139000000Y-99407500D02*
X138680000Y-99407500D01*
G75*
G02*
X138520000Y-99247500I0J160000D01*
G01*
X138520000Y-98852500D01*
G75*
G02*
X138680000Y-98692500I160000J0D01*
G01*
X139000000Y-98692500D01*
G75*
G02*
X139160000Y-98852500I0J-160000D01*
G01*
X139160000Y-99247500D01*
G75*
G02*
X139000000Y-99407500I-160000J0D01*
G01*
G37*
G36*
G01*
X139000000Y-100602500D02*
X138680000Y-100602500D01*
G75*
G02*
X138520000Y-100442500I0J160000D01*
G01*
X138520000Y-100047500D01*
G75*
G02*
X138680000Y-99887500I160000J0D01*
G01*
X139000000Y-99887500D01*
G75*
G02*
X139160000Y-100047500I0J-160000D01*
G01*
X139160000Y-100442500D01*
G75*
G02*
X139000000Y-100602500I-160000J0D01*
G01*
G37*
G36*
G01*
X207215000Y-128492500D02*
X207215000Y-128967500D01*
G75*
G02*
X206977500Y-129205000I-237500J0D01*
G01*
X206477500Y-129205000D01*
G75*
G02*
X206240000Y-128967500I0J237500D01*
G01*
X206240000Y-128492500D01*
G75*
G02*
X206477500Y-128255000I237500J0D01*
G01*
X206977500Y-128255000D01*
G75*
G02*
X207215000Y-128492500I0J-237500D01*
G01*
G37*
G36*
G01*
X209040000Y-128492500D02*
X209040000Y-128967500D01*
G75*
G02*
X208802500Y-129205000I-237500J0D01*
G01*
X208302500Y-129205000D01*
G75*
G02*
X208065000Y-128967500I0J237500D01*
G01*
X208065000Y-128492500D01*
G75*
G02*
X208302500Y-128255000I237500J0D01*
G01*
X208802500Y-128255000D01*
G75*
G02*
X209040000Y-128492500I0J-237500D01*
G01*
G37*
G36*
G01*
X137730000Y-103650000D02*
X137730000Y-103330000D01*
G75*
G02*
X137890000Y-103170000I160000J0D01*
G01*
X138285000Y-103170000D01*
G75*
G02*
X138445000Y-103330000I0J-160000D01*
G01*
X138445000Y-103650000D01*
G75*
G02*
X138285000Y-103810000I-160000J0D01*
G01*
X137890000Y-103810000D01*
G75*
G02*
X137730000Y-103650000I0J160000D01*
G01*
G37*
G36*
G01*
X136535000Y-103650000D02*
X136535000Y-103330000D01*
G75*
G02*
X136695000Y-103170000I160000J0D01*
G01*
X137090000Y-103170000D01*
G75*
G02*
X137250000Y-103330000I0J-160000D01*
G01*
X137250000Y-103650000D01*
G75*
G02*
X137090000Y-103810000I-160000J0D01*
G01*
X136695000Y-103810000D01*
G75*
G02*
X136535000Y-103650000I0J160000D01*
G01*
G37*
G36*
G01*
X153352500Y-96025000D02*
X153827500Y-96025000D01*
G75*
G02*
X154065000Y-96262500I0J-237500D01*
G01*
X154065000Y-96762500D01*
G75*
G02*
X153827500Y-97000000I-237500J0D01*
G01*
X153352500Y-97000000D01*
G75*
G02*
X153115000Y-96762500I0J237500D01*
G01*
X153115000Y-96262500D01*
G75*
G02*
X153352500Y-96025000I237500J0D01*
G01*
G37*
G36*
G01*
X153352500Y-94200000D02*
X153827500Y-94200000D01*
G75*
G02*
X154065000Y-94437500I0J-237500D01*
G01*
X154065000Y-94937500D01*
G75*
G02*
X153827500Y-95175000I-237500J0D01*
G01*
X153352500Y-95175000D01*
G75*
G02*
X153115000Y-94937500I0J237500D01*
G01*
X153115000Y-94437500D01*
G75*
G02*
X153352500Y-94200000I237500J0D01*
G01*
G37*
G36*
G01*
X153352500Y-99712500D02*
X153827500Y-99712500D01*
G75*
G02*
X154065000Y-99950000I0J-237500D01*
G01*
X154065000Y-100450000D01*
G75*
G02*
X153827500Y-100687500I-237500J0D01*
G01*
X153352500Y-100687500D01*
G75*
G02*
X153115000Y-100450000I0J237500D01*
G01*
X153115000Y-99950000D01*
G75*
G02*
X153352500Y-99712500I237500J0D01*
G01*
G37*
G36*
G01*
X153352500Y-97887500D02*
X153827500Y-97887500D01*
G75*
G02*
X154065000Y-98125000I0J-237500D01*
G01*
X154065000Y-98625000D01*
G75*
G02*
X153827500Y-98862500I-237500J0D01*
G01*
X153352500Y-98862500D01*
G75*
G02*
X153115000Y-98625000I0J237500D01*
G01*
X153115000Y-98125000D01*
G75*
G02*
X153352500Y-97887500I237500J0D01*
G01*
G37*
D12*
X148395000Y-126010000D03*
X150395000Y-125060000D03*
X150395000Y-126960000D03*
D10*
X143160000Y-110240000D03*
X144110000Y-112240000D03*
X142210000Y-112240000D03*
D12*
X154705000Y-125945000D03*
X156705000Y-124995000D03*
X156705000Y-126895000D03*
G36*
G01*
X191432500Y-52620000D02*
X191907500Y-52620000D01*
G75*
G02*
X192145000Y-52857500I0J-237500D01*
G01*
X192145000Y-53432500D01*
G75*
G02*
X191907500Y-53670000I-237500J0D01*
G01*
X191432500Y-53670000D01*
G75*
G02*
X191195000Y-53432500I0J237500D01*
G01*
X191195000Y-52857500D01*
G75*
G02*
X191432500Y-52620000I237500J0D01*
G01*
G37*
G36*
G01*
X191432500Y-50870000D02*
X191907500Y-50870000D01*
G75*
G02*
X192145000Y-51107500I0J-237500D01*
G01*
X192145000Y-51682500D01*
G75*
G02*
X191907500Y-51920000I-237500J0D01*
G01*
X191432500Y-51920000D01*
G75*
G02*
X191195000Y-51682500I0J237500D01*
G01*
X191195000Y-51107500D01*
G75*
G02*
X191432500Y-50870000I237500J0D01*
G01*
G37*
G36*
G01*
X207265000Y-130292500D02*
X207265000Y-130767500D01*
G75*
G02*
X207027500Y-131005000I-237500J0D01*
G01*
X206452500Y-131005000D01*
G75*
G02*
X206215000Y-130767500I0J237500D01*
G01*
X206215000Y-130292500D01*
G75*
G02*
X206452500Y-130055000I237500J0D01*
G01*
X207027500Y-130055000D01*
G75*
G02*
X207265000Y-130292500I0J-237500D01*
G01*
G37*
G36*
G01*
X209015000Y-130292500D02*
X209015000Y-130767500D01*
G75*
G02*
X208777500Y-131005000I-237500J0D01*
G01*
X208202500Y-131005000D01*
G75*
G02*
X207965000Y-130767500I0J237500D01*
G01*
X207965000Y-130292500D01*
G75*
G02*
X208202500Y-130055000I237500J0D01*
G01*
X208777500Y-130055000D01*
G75*
G02*
X209015000Y-130292500I0J-237500D01*
G01*
G37*
G36*
G01*
X167295000Y-96430000D02*
X167605000Y-96430000D01*
G75*
G02*
X167760000Y-96585000I0J-155000D01*
G01*
X167760000Y-97010000D01*
G75*
G02*
X167605000Y-97165000I-155000J0D01*
G01*
X167295000Y-97165000D01*
G75*
G02*
X167140000Y-97010000I0J155000D01*
G01*
X167140000Y-96585000D01*
G75*
G02*
X167295000Y-96430000I155000J0D01*
G01*
G37*
G36*
G01*
X167295000Y-95295000D02*
X167605000Y-95295000D01*
G75*
G02*
X167760000Y-95450000I0J-155000D01*
G01*
X167760000Y-95875000D01*
G75*
G02*
X167605000Y-96030000I-155000J0D01*
G01*
X167295000Y-96030000D01*
G75*
G02*
X167140000Y-95875000I0J155000D01*
G01*
X167140000Y-95450000D01*
G75*
G02*
X167295000Y-95295000I155000J0D01*
G01*
G37*
G36*
G01*
X140155000Y-71772500D02*
X139845000Y-71772500D01*
G75*
G02*
X139690000Y-71617500I0J155000D01*
G01*
X139690000Y-71192500D01*
G75*
G02*
X139845000Y-71037500I155000J0D01*
G01*
X140155000Y-71037500D01*
G75*
G02*
X140310000Y-71192500I0J-155000D01*
G01*
X140310000Y-71617500D01*
G75*
G02*
X140155000Y-71772500I-155000J0D01*
G01*
G37*
G36*
G01*
X140155000Y-72907500D02*
X139845000Y-72907500D01*
G75*
G02*
X139690000Y-72752500I0J155000D01*
G01*
X139690000Y-72327500D01*
G75*
G02*
X139845000Y-72172500I155000J0D01*
G01*
X140155000Y-72172500D01*
G75*
G02*
X140310000Y-72327500I0J-155000D01*
G01*
X140310000Y-72752500D01*
G75*
G02*
X140155000Y-72907500I-155000J0D01*
G01*
G37*
G36*
G01*
X138775000Y-72280000D02*
X137825000Y-72280000D01*
G75*
G02*
X137575000Y-72030000I0J250000D01*
G01*
X137575000Y-71355000D01*
G75*
G02*
X137825000Y-71105000I250000J0D01*
G01*
X138775000Y-71105000D01*
G75*
G02*
X139025000Y-71355000I0J-250000D01*
G01*
X139025000Y-72030000D01*
G75*
G02*
X138775000Y-72280000I-250000J0D01*
G01*
G37*
G36*
G01*
X138775000Y-74355000D02*
X137825000Y-74355000D01*
G75*
G02*
X137575000Y-74105000I0J250000D01*
G01*
X137575000Y-73430000D01*
G75*
G02*
X137825000Y-73180000I250000J0D01*
G01*
X138775000Y-73180000D01*
G75*
G02*
X139025000Y-73430000I0J-250000D01*
G01*
X139025000Y-74105000D01*
G75*
G02*
X138775000Y-74355000I-250000J0D01*
G01*
G37*
G36*
G01*
X101125000Y-111890000D02*
X101435000Y-111890000D01*
G75*
G02*
X101590000Y-112045000I0J-155000D01*
G01*
X101590000Y-112470000D01*
G75*
G02*
X101435000Y-112625000I-155000J0D01*
G01*
X101125000Y-112625000D01*
G75*
G02*
X100970000Y-112470000I0J155000D01*
G01*
X100970000Y-112045000D01*
G75*
G02*
X101125000Y-111890000I155000J0D01*
G01*
G37*
G36*
G01*
X101125000Y-110755000D02*
X101435000Y-110755000D01*
G75*
G02*
X101590000Y-110910000I0J-155000D01*
G01*
X101590000Y-111335000D01*
G75*
G02*
X101435000Y-111490000I-155000J0D01*
G01*
X101125000Y-111490000D01*
G75*
G02*
X100970000Y-111335000I0J155000D01*
G01*
X100970000Y-110910000D01*
G75*
G02*
X101125000Y-110755000I155000J0D01*
G01*
G37*
G36*
G01*
X100165000Y-111450000D02*
X99855000Y-111450000D01*
G75*
G02*
X99700000Y-111295000I0J155000D01*
G01*
X99700000Y-110870000D01*
G75*
G02*
X99855000Y-110715000I155000J0D01*
G01*
X100165000Y-110715000D01*
G75*
G02*
X100320000Y-110870000I0J-155000D01*
G01*
X100320000Y-111295000D01*
G75*
G02*
X100165000Y-111450000I-155000J0D01*
G01*
G37*
G36*
G01*
X100165000Y-112585000D02*
X99855000Y-112585000D01*
G75*
G02*
X99700000Y-112430000I0J155000D01*
G01*
X99700000Y-112005000D01*
G75*
G02*
X99855000Y-111850000I155000J0D01*
G01*
X100165000Y-111850000D01*
G75*
G02*
X100320000Y-112005000I0J-155000D01*
G01*
X100320000Y-112430000D01*
G75*
G02*
X100165000Y-112585000I-155000J0D01*
G01*
G37*
G36*
G01*
X91227500Y-96137500D02*
X90752500Y-96137500D01*
G75*
G02*
X90515000Y-95900000I0J237500D01*
G01*
X90515000Y-95300000D01*
G75*
G02*
X90752500Y-95062500I237500J0D01*
G01*
X91227500Y-95062500D01*
G75*
G02*
X91465000Y-95300000I0J-237500D01*
G01*
X91465000Y-95900000D01*
G75*
G02*
X91227500Y-96137500I-237500J0D01*
G01*
G37*
G36*
G01*
X91227500Y-97862500D02*
X90752500Y-97862500D01*
G75*
G02*
X90515000Y-97625000I0J237500D01*
G01*
X90515000Y-97025000D01*
G75*
G02*
X90752500Y-96787500I237500J0D01*
G01*
X91227500Y-96787500D01*
G75*
G02*
X91465000Y-97025000I0J-237500D01*
G01*
X91465000Y-97625000D01*
G75*
G02*
X91227500Y-97862500I-237500J0D01*
G01*
G37*
G36*
G01*
X92280000Y-129725000D02*
X92280000Y-128775000D01*
G75*
G02*
X92530000Y-128525000I250000J0D01*
G01*
X93205000Y-128525000D01*
G75*
G02*
X93455000Y-128775000I0J-250000D01*
G01*
X93455000Y-129725000D01*
G75*
G02*
X93205000Y-129975000I-250000J0D01*
G01*
X92530000Y-129975000D01*
G75*
G02*
X92280000Y-129725000I0J250000D01*
G01*
G37*
G36*
G01*
X90205000Y-129725000D02*
X90205000Y-128775000D01*
G75*
G02*
X90455000Y-128525000I250000J0D01*
G01*
X91130000Y-128525000D01*
G75*
G02*
X91380000Y-128775000I0J-250000D01*
G01*
X91380000Y-129725000D01*
G75*
G02*
X91130000Y-129975000I-250000J0D01*
G01*
X90455000Y-129975000D01*
G75*
G02*
X90205000Y-129725000I0J250000D01*
G01*
G37*
G36*
G01*
X102130000Y-93775000D02*
X102130000Y-94085000D01*
G75*
G02*
X101975000Y-94240000I-155000J0D01*
G01*
X101550000Y-94240000D01*
G75*
G02*
X101395000Y-94085000I0J155000D01*
G01*
X101395000Y-93775000D01*
G75*
G02*
X101550000Y-93620000I155000J0D01*
G01*
X101975000Y-93620000D01*
G75*
G02*
X102130000Y-93775000I0J-155000D01*
G01*
G37*
G36*
G01*
X103265000Y-93775000D02*
X103265000Y-94085000D01*
G75*
G02*
X103110000Y-94240000I-155000J0D01*
G01*
X102685000Y-94240000D01*
G75*
G02*
X102530000Y-94085000I0J155000D01*
G01*
X102530000Y-93775000D01*
G75*
G02*
X102685000Y-93620000I155000J0D01*
G01*
X103110000Y-93620000D01*
G75*
G02*
X103265000Y-93775000I0J-155000D01*
G01*
G37*
G36*
G01*
X98232500Y-93785000D02*
X98232500Y-94095000D01*
G75*
G02*
X98077500Y-94250000I-155000J0D01*
G01*
X97652500Y-94250000D01*
G75*
G02*
X97497500Y-94095000I0J155000D01*
G01*
X97497500Y-93785000D01*
G75*
G02*
X97652500Y-93630000I155000J0D01*
G01*
X98077500Y-93630000D01*
G75*
G02*
X98232500Y-93785000I0J-155000D01*
G01*
G37*
G36*
G01*
X99367500Y-93785000D02*
X99367500Y-94095000D01*
G75*
G02*
X99212500Y-94250000I-155000J0D01*
G01*
X98787500Y-94250000D01*
G75*
G02*
X98632500Y-94095000I0J155000D01*
G01*
X98632500Y-93785000D01*
G75*
G02*
X98787500Y-93630000I155000J0D01*
G01*
X99212500Y-93630000D01*
G75*
G02*
X99367500Y-93785000I0J-155000D01*
G01*
G37*
G36*
G01*
X94372500Y-93815000D02*
X94372500Y-94125000D01*
G75*
G02*
X94217500Y-94280000I-155000J0D01*
G01*
X93792500Y-94280000D01*
G75*
G02*
X93637500Y-94125000I0J155000D01*
G01*
X93637500Y-93815000D01*
G75*
G02*
X93792500Y-93660000I155000J0D01*
G01*
X94217500Y-93660000D01*
G75*
G02*
X94372500Y-93815000I0J-155000D01*
G01*
G37*
G36*
G01*
X95507500Y-93815000D02*
X95507500Y-94125000D01*
G75*
G02*
X95352500Y-94280000I-155000J0D01*
G01*
X94927500Y-94280000D01*
G75*
G02*
X94772500Y-94125000I0J155000D01*
G01*
X94772500Y-93815000D01*
G75*
G02*
X94927500Y-93660000I155000J0D01*
G01*
X95352500Y-93660000D01*
G75*
G02*
X95507500Y-93815000I0J-155000D01*
G01*
G37*
G36*
G01*
X91825000Y-93830000D02*
X91825000Y-93520000D01*
G75*
G02*
X91980000Y-93365000I155000J0D01*
G01*
X92405000Y-93365000D01*
G75*
G02*
X92560000Y-93520000I0J-155000D01*
G01*
X92560000Y-93830000D01*
G75*
G02*
X92405000Y-93985000I-155000J0D01*
G01*
X91980000Y-93985000D01*
G75*
G02*
X91825000Y-93830000I0J155000D01*
G01*
G37*
G36*
G01*
X90690000Y-93830000D02*
X90690000Y-93520000D01*
G75*
G02*
X90845000Y-93365000I155000J0D01*
G01*
X91270000Y-93365000D01*
G75*
G02*
X91425000Y-93520000I0J-155000D01*
G01*
X91425000Y-93830000D01*
G75*
G02*
X91270000Y-93985000I-155000J0D01*
G01*
X90845000Y-93985000D01*
G75*
G02*
X90690000Y-93830000I0J155000D01*
G01*
G37*
G36*
G01*
X92380000Y-126135000D02*
X92380000Y-126445000D01*
G75*
G02*
X92225000Y-126600000I-155000J0D01*
G01*
X91800000Y-126600000D01*
G75*
G02*
X91645000Y-126445000I0J155000D01*
G01*
X91645000Y-126135000D01*
G75*
G02*
X91800000Y-125980000I155000J0D01*
G01*
X92225000Y-125980000D01*
G75*
G02*
X92380000Y-126135000I0J-155000D01*
G01*
G37*
G36*
G01*
X93515000Y-126135000D02*
X93515000Y-126445000D01*
G75*
G02*
X93360000Y-126600000I-155000J0D01*
G01*
X92935000Y-126600000D01*
G75*
G02*
X92780000Y-126445000I0J155000D01*
G01*
X92780000Y-126135000D01*
G75*
G02*
X92935000Y-125980000I155000J0D01*
G01*
X93360000Y-125980000D01*
G75*
G02*
X93515000Y-126135000I0J-155000D01*
G01*
G37*
G36*
G01*
X95220000Y-96325000D02*
X95220000Y-96015000D01*
G75*
G02*
X95375000Y-95860000I155000J0D01*
G01*
X95800000Y-95860000D01*
G75*
G02*
X95955000Y-96015000I0J-155000D01*
G01*
X95955000Y-96325000D01*
G75*
G02*
X95800000Y-96480000I-155000J0D01*
G01*
X95375000Y-96480000D01*
G75*
G02*
X95220000Y-96325000I0J155000D01*
G01*
G37*
G36*
G01*
X94085000Y-96325000D02*
X94085000Y-96015000D01*
G75*
G02*
X94240000Y-95860000I155000J0D01*
G01*
X94665000Y-95860000D01*
G75*
G02*
X94820000Y-96015000I0J-155000D01*
G01*
X94820000Y-96325000D01*
G75*
G02*
X94665000Y-96480000I-155000J0D01*
G01*
X94240000Y-96480000D01*
G75*
G02*
X94085000Y-96325000I0J155000D01*
G01*
G37*
G36*
G01*
X182175000Y-60254999D02*
X182175000Y-62105001D01*
G75*
G02*
X181925001Y-62355000I-249999J0D01*
G01*
X180174999Y-62355000D01*
G75*
G02*
X179925000Y-62105001I0J249999D01*
G01*
X179925000Y-60254999D01*
G75*
G02*
X180174999Y-60005000I249999J0D01*
G01*
X181925001Y-60005000D01*
G75*
G02*
X182175000Y-60254999I0J-249999D01*
G01*
G37*
G36*
G01*
X187275000Y-60254999D02*
X187275000Y-62105001D01*
G75*
G02*
X187025001Y-62355000I-249999J0D01*
G01*
X185274999Y-62355000D01*
G75*
G02*
X185025000Y-62105001I0J249999D01*
G01*
X185025000Y-60254999D01*
G75*
G02*
X185274999Y-60005000I249999J0D01*
G01*
X187025001Y-60005000D01*
G75*
G02*
X187275000Y-60254999I0J-249999D01*
G01*
G37*
G36*
G01*
X177525000Y-61567500D02*
X178475000Y-61567500D01*
G75*
G02*
X178725000Y-61817500I0J-250000D01*
G01*
X178725000Y-62492500D01*
G75*
G02*
X178475000Y-62742500I-250000J0D01*
G01*
X177525000Y-62742500D01*
G75*
G02*
X177275000Y-62492500I0J250000D01*
G01*
X177275000Y-61817500D01*
G75*
G02*
X177525000Y-61567500I250000J0D01*
G01*
G37*
G36*
G01*
X177525000Y-59492500D02*
X178475000Y-59492500D01*
G75*
G02*
X178725000Y-59742500I0J-250000D01*
G01*
X178725000Y-60417500D01*
G75*
G02*
X178475000Y-60667500I-250000J0D01*
G01*
X177525000Y-60667500D01*
G75*
G02*
X177275000Y-60417500I0J250000D01*
G01*
X177275000Y-59742500D01*
G75*
G02*
X177525000Y-59492500I250000J0D01*
G01*
G37*
D27*
X132330000Y-75530000D03*
X132330000Y-71030000D03*
X124370000Y-71030000D03*
X124370000Y-75530000D03*
X132480000Y-66080000D03*
X132480000Y-61580000D03*
X124520000Y-61580000D03*
X124520000Y-66080000D03*
X132480000Y-84030000D03*
X132480000Y-79530000D03*
X124520000Y-79530000D03*
X124520000Y-84030000D03*
D28*
X180500000Y-56155000D03*
X182200000Y-56155000D03*
X183900000Y-56155000D03*
X185600000Y-56155000D03*
X187300000Y-56155000D03*
D29*
X186675000Y-44580000D03*
X181125000Y-49430000D03*
X181125000Y-44580000D03*
X186675000Y-49430000D03*
D30*
X146145000Y-53800000D03*
X146145000Y-52100000D03*
X146145000Y-50400000D03*
X146145000Y-48700000D03*
X146145000Y-47000000D03*
D31*
X134570000Y-47625000D03*
X139420000Y-53175000D03*
X134570000Y-53175000D03*
X139420000Y-47625000D03*
D28*
X120610000Y-120950000D03*
X122310000Y-120950000D03*
X124010000Y-120950000D03*
X125710000Y-120950000D03*
X127410000Y-120950000D03*
D29*
X126785000Y-109375000D03*
X121235000Y-114225000D03*
X121235000Y-109375000D03*
X126785000Y-114225000D03*
G36*
G01*
X134440000Y-62122500D02*
X134760000Y-62122500D01*
G75*
G02*
X134920000Y-62282500I0J-160000D01*
G01*
X134920000Y-62677500D01*
G75*
G02*
X134760000Y-62837500I-160000J0D01*
G01*
X134440000Y-62837500D01*
G75*
G02*
X134280000Y-62677500I0J160000D01*
G01*
X134280000Y-62282500D01*
G75*
G02*
X134440000Y-62122500I160000J0D01*
G01*
G37*
G36*
G01*
X134440000Y-60927500D02*
X134760000Y-60927500D01*
G75*
G02*
X134920000Y-61087500I0J-160000D01*
G01*
X134920000Y-61482500D01*
G75*
G02*
X134760000Y-61642500I-160000J0D01*
G01*
X134440000Y-61642500D01*
G75*
G02*
X134280000Y-61482500I0J160000D01*
G01*
X134280000Y-61087500D01*
G75*
G02*
X134440000Y-60927500I160000J0D01*
G01*
G37*
G36*
G01*
X134040000Y-71620000D02*
X134360000Y-71620000D01*
G75*
G02*
X134520000Y-71780000I0J-160000D01*
G01*
X134520000Y-72175000D01*
G75*
G02*
X134360000Y-72335000I-160000J0D01*
G01*
X134040000Y-72335000D01*
G75*
G02*
X133880000Y-72175000I0J160000D01*
G01*
X133880000Y-71780000D01*
G75*
G02*
X134040000Y-71620000I160000J0D01*
G01*
G37*
G36*
G01*
X134040000Y-70425000D02*
X134360000Y-70425000D01*
G75*
G02*
X134520000Y-70585000I0J-160000D01*
G01*
X134520000Y-70980000D01*
G75*
G02*
X134360000Y-71140000I-160000J0D01*
G01*
X134040000Y-71140000D01*
G75*
G02*
X133880000Y-70980000I0J160000D01*
G01*
X133880000Y-70585000D01*
G75*
G02*
X134040000Y-70425000I160000J0D01*
G01*
G37*
G36*
G01*
X134240000Y-80220000D02*
X134560000Y-80220000D01*
G75*
G02*
X134720000Y-80380000I0J-160000D01*
G01*
X134720000Y-80775000D01*
G75*
G02*
X134560000Y-80935000I-160000J0D01*
G01*
X134240000Y-80935000D01*
G75*
G02*
X134080000Y-80775000I0J160000D01*
G01*
X134080000Y-80380000D01*
G75*
G02*
X134240000Y-80220000I160000J0D01*
G01*
G37*
G36*
G01*
X134240000Y-79025000D02*
X134560000Y-79025000D01*
G75*
G02*
X134720000Y-79185000I0J-160000D01*
G01*
X134720000Y-79580000D01*
G75*
G02*
X134560000Y-79740000I-160000J0D01*
G01*
X134240000Y-79740000D01*
G75*
G02*
X134080000Y-79580000I0J160000D01*
G01*
X134080000Y-79185000D01*
G75*
G02*
X134240000Y-79025000I160000J0D01*
G01*
G37*
G36*
G01*
X151495000Y-43837500D02*
X151495000Y-43362500D01*
G75*
G02*
X151732500Y-43125000I237500J0D01*
G01*
X152232500Y-43125000D01*
G75*
G02*
X152470000Y-43362500I0J-237500D01*
G01*
X152470000Y-43837500D01*
G75*
G02*
X152232500Y-44075000I-237500J0D01*
G01*
X151732500Y-44075000D01*
G75*
G02*
X151495000Y-43837500I0J237500D01*
G01*
G37*
G36*
G01*
X149670000Y-43837500D02*
X149670000Y-43362500D01*
G75*
G02*
X149907500Y-43125000I237500J0D01*
G01*
X150407500Y-43125000D01*
G75*
G02*
X150645000Y-43362500I0J-237500D01*
G01*
X150645000Y-43837500D01*
G75*
G02*
X150407500Y-44075000I-237500J0D01*
G01*
X149907500Y-44075000D01*
G75*
G02*
X149670000Y-43837500I0J237500D01*
G01*
G37*
G36*
G01*
X127972500Y-126212500D02*
X127972500Y-126687500D01*
G75*
G02*
X127735000Y-126925000I-237500J0D01*
G01*
X127235000Y-126925000D01*
G75*
G02*
X126997500Y-126687500I0J237500D01*
G01*
X126997500Y-126212500D01*
G75*
G02*
X127235000Y-125975000I237500J0D01*
G01*
X127735000Y-125975000D01*
G75*
G02*
X127972500Y-126212500I0J-237500D01*
G01*
G37*
G36*
G01*
X129797500Y-126212500D02*
X129797500Y-126687500D01*
G75*
G02*
X129560000Y-126925000I-237500J0D01*
G01*
X129060000Y-126925000D01*
G75*
G02*
X128822500Y-126687500I0J237500D01*
G01*
X128822500Y-126212500D01*
G75*
G02*
X129060000Y-125975000I237500J0D01*
G01*
X129560000Y-125975000D01*
G75*
G02*
X129797500Y-126212500I0J-237500D01*
G01*
G37*
G36*
G01*
X144727500Y-43340000D02*
X144727500Y-43660000D01*
G75*
G02*
X144567500Y-43820000I-160000J0D01*
G01*
X144172500Y-43820000D01*
G75*
G02*
X144012500Y-43660000I0J160000D01*
G01*
X144012500Y-43340000D01*
G75*
G02*
X144172500Y-43180000I160000J0D01*
G01*
X144567500Y-43180000D01*
G75*
G02*
X144727500Y-43340000I0J-160000D01*
G01*
G37*
G36*
G01*
X145922500Y-43340000D02*
X145922500Y-43660000D01*
G75*
G02*
X145762500Y-43820000I-160000J0D01*
G01*
X145367500Y-43820000D01*
G75*
G02*
X145207500Y-43660000I0J160000D01*
G01*
X145207500Y-43340000D01*
G75*
G02*
X145367500Y-43180000I160000J0D01*
G01*
X145762500Y-43180000D01*
G75*
G02*
X145922500Y-43340000I0J-160000D01*
G01*
G37*
G36*
G01*
X147232500Y-43340000D02*
X147232500Y-43660000D01*
G75*
G02*
X147072500Y-43820000I-160000J0D01*
G01*
X146677500Y-43820000D01*
G75*
G02*
X146517500Y-43660000I0J160000D01*
G01*
X146517500Y-43340000D01*
G75*
G02*
X146677500Y-43180000I160000J0D01*
G01*
X147072500Y-43180000D01*
G75*
G02*
X147232500Y-43340000I0J-160000D01*
G01*
G37*
G36*
G01*
X148427500Y-43340000D02*
X148427500Y-43660000D01*
G75*
G02*
X148267500Y-43820000I-160000J0D01*
G01*
X147872500Y-43820000D01*
G75*
G02*
X147712500Y-43660000I0J160000D01*
G01*
X147712500Y-43340000D01*
G75*
G02*
X147872500Y-43180000I160000J0D01*
G01*
X148267500Y-43180000D01*
G75*
G02*
X148427500Y-43340000I0J-160000D01*
G01*
G37*
G36*
G01*
X131047500Y-118337500D02*
X130572500Y-118337500D01*
G75*
G02*
X130335000Y-118100000I0J237500D01*
G01*
X130335000Y-117600000D01*
G75*
G02*
X130572500Y-117362500I237500J0D01*
G01*
X131047500Y-117362500D01*
G75*
G02*
X131285000Y-117600000I0J-237500D01*
G01*
X131285000Y-118100000D01*
G75*
G02*
X131047500Y-118337500I-237500J0D01*
G01*
G37*
G36*
G01*
X131047500Y-120162500D02*
X130572500Y-120162500D01*
G75*
G02*
X130335000Y-119925000I0J237500D01*
G01*
X130335000Y-119425000D01*
G75*
G02*
X130572500Y-119187500I237500J0D01*
G01*
X131047500Y-119187500D01*
G75*
G02*
X131285000Y-119425000I0J-237500D01*
G01*
X131285000Y-119925000D01*
G75*
G02*
X131047500Y-120162500I-237500J0D01*
G01*
G37*
G36*
G01*
X130870000Y-121907500D02*
X130550000Y-121907500D01*
G75*
G02*
X130390000Y-121747500I0J160000D01*
G01*
X130390000Y-121352500D01*
G75*
G02*
X130550000Y-121192500I160000J0D01*
G01*
X130870000Y-121192500D01*
G75*
G02*
X131030000Y-121352500I0J-160000D01*
G01*
X131030000Y-121747500D01*
G75*
G02*
X130870000Y-121907500I-160000J0D01*
G01*
G37*
G36*
G01*
X130870000Y-123102500D02*
X130550000Y-123102500D01*
G75*
G02*
X130390000Y-122942500I0J160000D01*
G01*
X130390000Y-122547500D01*
G75*
G02*
X130550000Y-122387500I160000J0D01*
G01*
X130870000Y-122387500D01*
G75*
G02*
X131030000Y-122547500I0J-160000D01*
G01*
X131030000Y-122942500D01*
G75*
G02*
X130870000Y-123102500I-160000J0D01*
G01*
G37*
G36*
G01*
X147607500Y-56960000D02*
X147607500Y-56640000D01*
G75*
G02*
X147767500Y-56480000I160000J0D01*
G01*
X148162500Y-56480000D01*
G75*
G02*
X148322500Y-56640000I0J-160000D01*
G01*
X148322500Y-56960000D01*
G75*
G02*
X148162500Y-57120000I-160000J0D01*
G01*
X147767500Y-57120000D01*
G75*
G02*
X147607500Y-56960000I0J160000D01*
G01*
G37*
G36*
G01*
X146412500Y-56960000D02*
X146412500Y-56640000D01*
G75*
G02*
X146572500Y-56480000I160000J0D01*
G01*
X146967500Y-56480000D01*
G75*
G02*
X147127500Y-56640000I0J-160000D01*
G01*
X147127500Y-56960000D01*
G75*
G02*
X146967500Y-57120000I-160000J0D01*
G01*
X146572500Y-57120000D01*
G75*
G02*
X146412500Y-56960000I0J160000D01*
G01*
G37*
G36*
G01*
X138045000Y-115287500D02*
X138045000Y-114812500D01*
G75*
G02*
X138282500Y-114575000I237500J0D01*
G01*
X138782500Y-114575000D01*
G75*
G02*
X139020000Y-114812500I0J-237500D01*
G01*
X139020000Y-115287500D01*
G75*
G02*
X138782500Y-115525000I-237500J0D01*
G01*
X138282500Y-115525000D01*
G75*
G02*
X138045000Y-115287500I0J237500D01*
G01*
G37*
G36*
G01*
X136220000Y-115287500D02*
X136220000Y-114812500D01*
G75*
G02*
X136457500Y-114575000I237500J0D01*
G01*
X136957500Y-114575000D01*
G75*
G02*
X137195000Y-114812500I0J-237500D01*
G01*
X137195000Y-115287500D01*
G75*
G02*
X136957500Y-115525000I-237500J0D01*
G01*
X136457500Y-115525000D01*
G75*
G02*
X136220000Y-115287500I0J237500D01*
G01*
G37*
G36*
G01*
X134362500Y-65530000D02*
X134837500Y-65530000D01*
G75*
G02*
X135075000Y-65767500I0J-237500D01*
G01*
X135075000Y-66342500D01*
G75*
G02*
X134837500Y-66580000I-237500J0D01*
G01*
X134362500Y-66580000D01*
G75*
G02*
X134125000Y-66342500I0J237500D01*
G01*
X134125000Y-65767500D01*
G75*
G02*
X134362500Y-65530000I237500J0D01*
G01*
G37*
G36*
G01*
X134362500Y-63780000D02*
X134837500Y-63780000D01*
G75*
G02*
X135075000Y-64017500I0J-237500D01*
G01*
X135075000Y-64592500D01*
G75*
G02*
X134837500Y-64830000I-237500J0D01*
G01*
X134362500Y-64830000D01*
G75*
G02*
X134125000Y-64592500I0J237500D01*
G01*
X134125000Y-64017500D01*
G75*
G02*
X134362500Y-63780000I237500J0D01*
G01*
G37*
G36*
G01*
X134162500Y-75030000D02*
X134637500Y-75030000D01*
G75*
G02*
X134875000Y-75267500I0J-237500D01*
G01*
X134875000Y-75842500D01*
G75*
G02*
X134637500Y-76080000I-237500J0D01*
G01*
X134162500Y-76080000D01*
G75*
G02*
X133925000Y-75842500I0J237500D01*
G01*
X133925000Y-75267500D01*
G75*
G02*
X134162500Y-75030000I237500J0D01*
G01*
G37*
G36*
G01*
X134162500Y-73280000D02*
X134637500Y-73280000D01*
G75*
G02*
X134875000Y-73517500I0J-237500D01*
G01*
X134875000Y-74092500D01*
G75*
G02*
X134637500Y-74330000I-237500J0D01*
G01*
X134162500Y-74330000D01*
G75*
G02*
X133925000Y-74092500I0J237500D01*
G01*
X133925000Y-73517500D01*
G75*
G02*
X134162500Y-73280000I237500J0D01*
G01*
G37*
G36*
G01*
X134262500Y-83305000D02*
X134737500Y-83305000D01*
G75*
G02*
X134975000Y-83542500I0J-237500D01*
G01*
X134975000Y-84117500D01*
G75*
G02*
X134737500Y-84355000I-237500J0D01*
G01*
X134262500Y-84355000D01*
G75*
G02*
X134025000Y-84117500I0J237500D01*
G01*
X134025000Y-83542500D01*
G75*
G02*
X134262500Y-83305000I237500J0D01*
G01*
G37*
G36*
G01*
X134262500Y-81555000D02*
X134737500Y-81555000D01*
G75*
G02*
X134975000Y-81792500I0J-237500D01*
G01*
X134975000Y-82367500D01*
G75*
G02*
X134737500Y-82605000I-237500J0D01*
G01*
X134262500Y-82605000D01*
G75*
G02*
X134025000Y-82367500I0J237500D01*
G01*
X134025000Y-81792500D01*
G75*
G02*
X134262500Y-81555000I237500J0D01*
G01*
G37*
G36*
G01*
X150695000Y-45362500D02*
X150695000Y-45837500D01*
G75*
G02*
X150457500Y-46075000I-237500J0D01*
G01*
X149882500Y-46075000D01*
G75*
G02*
X149645000Y-45837500I0J237500D01*
G01*
X149645000Y-45362500D01*
G75*
G02*
X149882500Y-45125000I237500J0D01*
G01*
X150457500Y-45125000D01*
G75*
G02*
X150695000Y-45362500I0J-237500D01*
G01*
G37*
G36*
G01*
X152445000Y-45362500D02*
X152445000Y-45837500D01*
G75*
G02*
X152207500Y-46075000I-237500J0D01*
G01*
X151632500Y-46075000D01*
G75*
G02*
X151395000Y-45837500I0J237500D01*
G01*
X151395000Y-45362500D01*
G75*
G02*
X151632500Y-45125000I237500J0D01*
G01*
X152207500Y-45125000D01*
G75*
G02*
X152445000Y-45362500I0J-237500D01*
G01*
G37*
G36*
G01*
X128060000Y-124412500D02*
X128060000Y-124887500D01*
G75*
G02*
X127822500Y-125125000I-237500J0D01*
G01*
X127247500Y-125125000D01*
G75*
G02*
X127010000Y-124887500I0J237500D01*
G01*
X127010000Y-124412500D01*
G75*
G02*
X127247500Y-124175000I237500J0D01*
G01*
X127822500Y-124175000D01*
G75*
G02*
X128060000Y-124412500I0J-237500D01*
G01*
G37*
G36*
G01*
X129810000Y-124412500D02*
X129810000Y-124887500D01*
G75*
G02*
X129572500Y-125125000I-237500J0D01*
G01*
X128997500Y-125125000D01*
G75*
G02*
X128760000Y-124887500I0J237500D01*
G01*
X128760000Y-124412500D01*
G75*
G02*
X128997500Y-124175000I237500J0D01*
G01*
X129572500Y-124175000D01*
G75*
G02*
X129810000Y-124412500I0J-237500D01*
G01*
G37*
G36*
G01*
X133670000Y-114812500D02*
X133670000Y-115287500D01*
G75*
G02*
X133432500Y-115525000I-237500J0D01*
G01*
X132857500Y-115525000D01*
G75*
G02*
X132620000Y-115287500I0J237500D01*
G01*
X132620000Y-114812500D01*
G75*
G02*
X132857500Y-114575000I237500J0D01*
G01*
X133432500Y-114575000D01*
G75*
G02*
X133670000Y-114812500I0J-237500D01*
G01*
G37*
G36*
G01*
X135420000Y-114812500D02*
X135420000Y-115287500D01*
G75*
G02*
X135182500Y-115525000I-237500J0D01*
G01*
X134607500Y-115525000D01*
G75*
G02*
X134370000Y-115287500I0J237500D01*
G01*
X134370000Y-114812500D01*
G75*
G02*
X134607500Y-114575000I237500J0D01*
G01*
X135182500Y-114575000D01*
G75*
G02*
X135420000Y-114812500I0J-237500D01*
G01*
G37*
D32*
X114640000Y-120620000D03*
X114640000Y-126020000D03*
G36*
G01*
X116965000Y-115330000D02*
X116015000Y-115330000D01*
G75*
G02*
X115765000Y-115080000I0J250000D01*
G01*
X115765000Y-114405000D01*
G75*
G02*
X116015000Y-114155000I250000J0D01*
G01*
X116965000Y-114155000D01*
G75*
G02*
X117215000Y-114405000I0J-250000D01*
G01*
X117215000Y-115080000D01*
G75*
G02*
X116965000Y-115330000I-250000J0D01*
G01*
G37*
G36*
G01*
X116965000Y-117405000D02*
X116015000Y-117405000D01*
G75*
G02*
X115765000Y-117155000I0J250000D01*
G01*
X115765000Y-116480000D01*
G75*
G02*
X116015000Y-116230000I250000J0D01*
G01*
X116965000Y-116230000D01*
G75*
G02*
X117215000Y-116480000I0J-250000D01*
G01*
X117215000Y-117155000D01*
G75*
G02*
X116965000Y-117405000I-250000J0D01*
G01*
G37*
G36*
G01*
X150144999Y-52225000D02*
X151995001Y-52225000D01*
G75*
G02*
X152245000Y-52474999I0J-249999D01*
G01*
X152245000Y-54225001D01*
G75*
G02*
X151995001Y-54475000I-249999J0D01*
G01*
X150144999Y-54475000D01*
G75*
G02*
X149895000Y-54225001I0J249999D01*
G01*
X149895000Y-52474999D01*
G75*
G02*
X150144999Y-52225000I249999J0D01*
G01*
G37*
G36*
G01*
X150144999Y-47125000D02*
X151995001Y-47125000D01*
G75*
G02*
X152245000Y-47374999I0J-249999D01*
G01*
X152245000Y-49125001D01*
G75*
G02*
X151995001Y-49375000I-249999J0D01*
G01*
X150144999Y-49375000D01*
G75*
G02*
X149895000Y-49125001I0J249999D01*
G01*
X149895000Y-47374999D01*
G75*
G02*
X150144999Y-47125000I249999J0D01*
G01*
G37*
G36*
G01*
X120885000Y-124824999D02*
X120885000Y-126675001D01*
G75*
G02*
X120635001Y-126925000I-249999J0D01*
G01*
X118884999Y-126925000D01*
G75*
G02*
X118635000Y-126675001I0J249999D01*
G01*
X118635000Y-124824999D01*
G75*
G02*
X118884999Y-124575000I249999J0D01*
G01*
X120635001Y-124575000D01*
G75*
G02*
X120885000Y-124824999I0J-249999D01*
G01*
G37*
G36*
G01*
X125985000Y-124824999D02*
X125985000Y-126675001D01*
G75*
G02*
X125735001Y-126925000I-249999J0D01*
G01*
X123984999Y-126925000D01*
G75*
G02*
X123735000Y-126675001I0J249999D01*
G01*
X123735000Y-124824999D01*
G75*
G02*
X123984999Y-124575000I249999J0D01*
G01*
X125735001Y-124575000D01*
G75*
G02*
X125985000Y-124824999I0J-249999D01*
G01*
G37*
G36*
G01*
X151420000Y-56775000D02*
X151420000Y-55825000D01*
G75*
G02*
X151670000Y-55575000I250000J0D01*
G01*
X152345000Y-55575000D01*
G75*
G02*
X152595000Y-55825000I0J-250000D01*
G01*
X152595000Y-56775000D01*
G75*
G02*
X152345000Y-57025000I-250000J0D01*
G01*
X151670000Y-57025000D01*
G75*
G02*
X151420000Y-56775000I0J250000D01*
G01*
G37*
G36*
G01*
X149345000Y-56775000D02*
X149345000Y-55825000D01*
G75*
G02*
X149595000Y-55575000I250000J0D01*
G01*
X150270000Y-55575000D01*
G75*
G02*
X150520000Y-55825000I0J-250000D01*
G01*
X150520000Y-56775000D01*
G75*
G02*
X150270000Y-57025000I-250000J0D01*
G01*
X149595000Y-57025000D01*
G75*
G02*
X149345000Y-56775000I0J250000D01*
G01*
G37*
G36*
G01*
X140625000Y-118300000D02*
X141575000Y-118300000D01*
G75*
G02*
X141825000Y-118550000I0J-250000D01*
G01*
X141825000Y-119225000D01*
G75*
G02*
X141575000Y-119475000I-250000J0D01*
G01*
X140625000Y-119475000D01*
G75*
G02*
X140375000Y-119225000I0J250000D01*
G01*
X140375000Y-118550000D01*
G75*
G02*
X140625000Y-118300000I250000J0D01*
G01*
G37*
G36*
G01*
X140625000Y-116225000D02*
X141575000Y-116225000D01*
G75*
G02*
X141825000Y-116475000I0J-250000D01*
G01*
X141825000Y-117150000D01*
G75*
G02*
X141575000Y-117400000I-250000J0D01*
G01*
X140625000Y-117400000D01*
G75*
G02*
X140375000Y-117150000I0J250000D01*
G01*
X140375000Y-116475000D01*
G75*
G02*
X140625000Y-116225000I250000J0D01*
G01*
G37*
G36*
G01*
X141575000Y-122100000D02*
X140625000Y-122100000D01*
G75*
G02*
X140375000Y-121850000I0J250000D01*
G01*
X140375000Y-121175000D01*
G75*
G02*
X140625000Y-120925000I250000J0D01*
G01*
X141575000Y-120925000D01*
G75*
G02*
X141825000Y-121175000I0J-250000D01*
G01*
X141825000Y-121850000D01*
G75*
G02*
X141575000Y-122100000I-250000J0D01*
G01*
G37*
G36*
G01*
X141575000Y-124175000D02*
X140625000Y-124175000D01*
G75*
G02*
X140375000Y-123925000I0J250000D01*
G01*
X140375000Y-123250000D01*
G75*
G02*
X140625000Y-123000000I250000J0D01*
G01*
X141575000Y-123000000D01*
G75*
G02*
X141825000Y-123250000I0J-250000D01*
G01*
X141825000Y-123925000D01*
G75*
G02*
X141575000Y-124175000I-250000J0D01*
G01*
G37*
G36*
G01*
X186800000Y-136230000D02*
X188800000Y-136230000D01*
G75*
G02*
X189050000Y-136480000I0J-250000D01*
G01*
X189050000Y-139980000D01*
G75*
G02*
X188800000Y-140230000I-250000J0D01*
G01*
X186800000Y-140230000D01*
G75*
G02*
X186550000Y-139980000I0J250000D01*
G01*
X186550000Y-136480000D01*
G75*
G02*
X186800000Y-136230000I250000J0D01*
G01*
G37*
G36*
G01*
X186800000Y-128230000D02*
X188800000Y-128230000D01*
G75*
G02*
X189050000Y-128480000I0J-250000D01*
G01*
X189050000Y-131980000D01*
G75*
G02*
X188800000Y-132230000I-250000J0D01*
G01*
X186800000Y-132230000D01*
G75*
G02*
X186550000Y-131980000I0J250000D01*
G01*
X186550000Y-128480000D01*
G75*
G02*
X186800000Y-128230000I250000J0D01*
G01*
G37*
G36*
G01*
X174500000Y-136250000D02*
X176500000Y-136250000D01*
G75*
G02*
X176750000Y-136500000I0J-250000D01*
G01*
X176750000Y-140000000D01*
G75*
G02*
X176500000Y-140250000I-250000J0D01*
G01*
X174500000Y-140250000D01*
G75*
G02*
X174250000Y-140000000I0J250000D01*
G01*
X174250000Y-136500000D01*
G75*
G02*
X174500000Y-136250000I250000J0D01*
G01*
G37*
G36*
G01*
X174500000Y-128250000D02*
X176500000Y-128250000D01*
G75*
G02*
X176750000Y-128500000I0J-250000D01*
G01*
X176750000Y-132000000D01*
G75*
G02*
X176500000Y-132250000I-250000J0D01*
G01*
X174500000Y-132250000D01*
G75*
G02*
X174250000Y-132000000I0J250000D01*
G01*
X174250000Y-128500000D01*
G75*
G02*
X174500000Y-128250000I250000J0D01*
G01*
G37*
M02*
