G04 #@! TF.GenerationSoftware,KiCad,Pcbnew,5.1.7-a382d34a88~90~ubuntu20.04.1*
G04 #@! TF.CreationDate,2022-01-24T09:39:31-06:00*
G04 #@! TF.ProjectId,open-dash-daughterboard,6f70656e-2d64-4617-9368-2d6461756768,rev?*
G04 #@! TF.SameCoordinates,Original*
G04 #@! TF.FileFunction,Paste,Top*
G04 #@! TF.FilePolarity,Positive*
%FSLAX46Y46*%
G04 Gerber Fmt 4.6, Leading zero omitted, Abs format (unit mm)*
G04 Created by KiCad (PCBNEW 5.1.7-a382d34a88~90~ubuntu20.04.1) date 2022-01-24 09:39:31*
%MOMM*%
%LPD*%
G01*
G04 APERTURE LIST*
%ADD10R,3.150000X1.000000*%
%ADD11R,2.000000X1.500000*%
%ADD12R,2.000000X3.800000*%
%ADD13R,0.900000X1.200000*%
%ADD14R,0.600000X0.450000*%
%ADD15R,0.800000X0.900000*%
%ADD16R,1.270000X0.325000*%
%ADD17R,0.900000X0.800000*%
%ADD18R,2.100000X1.800000*%
%ADD19R,0.300000X1.400000*%
%ADD20R,1.400000X0.300000*%
%ADD21R,1.780000X2.000000*%
%ADD22R,2.000000X1.780000*%
%ADD23R,2.000000X0.900000*%
%ADD24R,0.900000X2.000000*%
%ADD25R,5.000000X5.000000*%
%ADD26R,1.000000X3.150000*%
%ADD27R,1.550000X1.300000*%
%ADD28R,1.100000X4.600000*%
%ADD29R,5.250000X4.550000*%
%ADD30R,4.600000X1.100000*%
%ADD31R,4.550000X5.250000*%
%ADD32R,2.300000X3.500000*%
%ADD33R,1.000000X0.250000*%
G04 APERTURE END LIST*
G36*
G01*
X178197500Y-68067500D02*
X177722500Y-68067500D01*
G75*
G02*
X177485000Y-67830000I0J237500D01*
G01*
X177485000Y-67230000D01*
G75*
G02*
X177722500Y-66992500I237500J0D01*
G01*
X178197500Y-66992500D01*
G75*
G02*
X178435000Y-67230000I0J-237500D01*
G01*
X178435000Y-67830000D01*
G75*
G02*
X178197500Y-68067500I-237500J0D01*
G01*
G37*
G36*
G01*
X178197500Y-69792500D02*
X177722500Y-69792500D01*
G75*
G02*
X177485000Y-69555000I0J237500D01*
G01*
X177485000Y-68955000D01*
G75*
G02*
X177722500Y-68717500I237500J0D01*
G01*
X178197500Y-68717500D01*
G75*
G02*
X178435000Y-68955000I0J-237500D01*
G01*
X178435000Y-69555000D01*
G75*
G02*
X178197500Y-69792500I-237500J0D01*
G01*
G37*
D10*
X173410000Y-67810000D03*
X168360000Y-67810000D03*
X173410000Y-65270000D03*
X168360000Y-65270000D03*
G36*
G01*
X100902500Y-93635000D02*
X100902500Y-93945000D01*
G75*
G02*
X100747500Y-94100000I-155000J0D01*
G01*
X100322500Y-94100000D01*
G75*
G02*
X100167500Y-93945000I0J155000D01*
G01*
X100167500Y-93635000D01*
G75*
G02*
X100322500Y-93480000I155000J0D01*
G01*
X100747500Y-93480000D01*
G75*
G02*
X100902500Y-93635000I0J-155000D01*
G01*
G37*
G36*
G01*
X102037500Y-93635000D02*
X102037500Y-93945000D01*
G75*
G02*
X101882500Y-94100000I-155000J0D01*
G01*
X101457500Y-94100000D01*
G75*
G02*
X101302500Y-93945000I0J155000D01*
G01*
X101302500Y-93635000D01*
G75*
G02*
X101457500Y-93480000I155000J0D01*
G01*
X101882500Y-93480000D01*
G75*
G02*
X102037500Y-93635000I0J-155000D01*
G01*
G37*
G36*
G01*
X100865000Y-92210000D02*
X100865000Y-92530000D01*
G75*
G02*
X100705000Y-92690000I-160000J0D01*
G01*
X100310000Y-92690000D01*
G75*
G02*
X100150000Y-92530000I0J160000D01*
G01*
X100150000Y-92210000D01*
G75*
G02*
X100310000Y-92050000I160000J0D01*
G01*
X100705000Y-92050000D01*
G75*
G02*
X100865000Y-92210000I0J-160000D01*
G01*
G37*
G36*
G01*
X102060000Y-92210000D02*
X102060000Y-92530000D01*
G75*
G02*
X101900000Y-92690000I-160000J0D01*
G01*
X101505000Y-92690000D01*
G75*
G02*
X101345000Y-92530000I0J160000D01*
G01*
X101345000Y-92210000D01*
G75*
G02*
X101505000Y-92050000I160000J0D01*
G01*
X101900000Y-92050000D01*
G75*
G02*
X102060000Y-92210000I0J-160000D01*
G01*
G37*
D11*
X135110000Y-118640000D03*
X135110000Y-114040000D03*
X135110000Y-116340000D03*
D12*
X128810000Y-116340000D03*
D13*
X179900000Y-83600000D03*
X176600000Y-83600000D03*
D14*
X177650000Y-81325000D03*
X179750000Y-81325000D03*
D13*
X185000000Y-84760000D03*
X188300000Y-84760000D03*
G36*
G01*
X204640000Y-59825000D02*
X204960000Y-59825000D01*
G75*
G02*
X205120000Y-59985000I0J-160000D01*
G01*
X205120000Y-60380000D01*
G75*
G02*
X204960000Y-60540000I-160000J0D01*
G01*
X204640000Y-60540000D01*
G75*
G02*
X204480000Y-60380000I0J160000D01*
G01*
X204480000Y-59985000D01*
G75*
G02*
X204640000Y-59825000I160000J0D01*
G01*
G37*
G36*
G01*
X204640000Y-58630000D02*
X204960000Y-58630000D01*
G75*
G02*
X205120000Y-58790000I0J-160000D01*
G01*
X205120000Y-59185000D01*
G75*
G02*
X204960000Y-59345000I-160000J0D01*
G01*
X204640000Y-59345000D01*
G75*
G02*
X204480000Y-59185000I0J160000D01*
G01*
X204480000Y-58790000D01*
G75*
G02*
X204640000Y-58630000I160000J0D01*
G01*
G37*
G36*
G01*
X142120000Y-106167500D02*
X141800000Y-106167500D01*
G75*
G02*
X141640000Y-106007500I0J160000D01*
G01*
X141640000Y-105612500D01*
G75*
G02*
X141800000Y-105452500I160000J0D01*
G01*
X142120000Y-105452500D01*
G75*
G02*
X142280000Y-105612500I0J-160000D01*
G01*
X142280000Y-106007500D01*
G75*
G02*
X142120000Y-106167500I-160000J0D01*
G01*
G37*
G36*
G01*
X142120000Y-107362500D02*
X141800000Y-107362500D01*
G75*
G02*
X141640000Y-107202500I0J160000D01*
G01*
X141640000Y-106807500D01*
G75*
G02*
X141800000Y-106647500I160000J0D01*
G01*
X142120000Y-106647500D01*
G75*
G02*
X142280000Y-106807500I0J-160000D01*
G01*
X142280000Y-107202500D01*
G75*
G02*
X142120000Y-107362500I-160000J0D01*
G01*
G37*
D15*
X144410000Y-105180000D03*
X145360000Y-107180000D03*
X143460000Y-107180000D03*
G36*
G01*
X125010000Y-65520000D02*
X125010000Y-65210000D01*
G75*
G02*
X125165000Y-65055000I155000J0D01*
G01*
X125590000Y-65055000D01*
G75*
G02*
X125745000Y-65210000I0J-155000D01*
G01*
X125745000Y-65520000D01*
G75*
G02*
X125590000Y-65675000I-155000J0D01*
G01*
X125165000Y-65675000D01*
G75*
G02*
X125010000Y-65520000I0J155000D01*
G01*
G37*
G36*
G01*
X123875000Y-65520000D02*
X123875000Y-65210000D01*
G75*
G02*
X124030000Y-65055000I155000J0D01*
G01*
X124455000Y-65055000D01*
G75*
G02*
X124610000Y-65210000I0J-155000D01*
G01*
X124610000Y-65520000D01*
G75*
G02*
X124455000Y-65675000I-155000J0D01*
G01*
X124030000Y-65675000D01*
G75*
G02*
X123875000Y-65520000I0J155000D01*
G01*
G37*
D16*
X197590500Y-56115000D03*
X197590500Y-55465000D03*
X197590500Y-54815000D03*
X197590500Y-54165000D03*
X197590500Y-53515000D03*
X197590500Y-52865000D03*
X197590500Y-52215000D03*
X197590500Y-51565000D03*
X197590500Y-50915000D03*
X197590500Y-50265000D03*
X204829500Y-50265000D03*
X204829500Y-50915000D03*
X204829500Y-51565000D03*
X204829500Y-52215000D03*
X204829500Y-52865000D03*
X204829500Y-53515000D03*
X204829500Y-54165000D03*
X204829500Y-54815000D03*
X204829500Y-55465000D03*
X204829500Y-56115000D03*
G36*
G01*
X184195001Y-68045001D02*
X184195001Y-67745001D01*
G75*
G02*
X184345001Y-67595001I150000J0D01*
G01*
X185995001Y-67595001D01*
G75*
G02*
X186145001Y-67745001I0J-150000D01*
G01*
X186145001Y-68045001D01*
G75*
G02*
X185995001Y-68195001I-150000J0D01*
G01*
X184345001Y-68195001D01*
G75*
G02*
X184195001Y-68045001I0J150000D01*
G01*
G37*
G36*
G01*
X184195001Y-69315001D02*
X184195001Y-69015001D01*
G75*
G02*
X184345001Y-68865001I150000J0D01*
G01*
X185995001Y-68865001D01*
G75*
G02*
X186145001Y-69015001I0J-150000D01*
G01*
X186145001Y-69315001D01*
G75*
G02*
X185995001Y-69465001I-150000J0D01*
G01*
X184345001Y-69465001D01*
G75*
G02*
X184195001Y-69315001I0J150000D01*
G01*
G37*
G36*
G01*
X184195001Y-70585001D02*
X184195001Y-70285001D01*
G75*
G02*
X184345001Y-70135001I150000J0D01*
G01*
X185995001Y-70135001D01*
G75*
G02*
X186145001Y-70285001I0J-150000D01*
G01*
X186145001Y-70585001D01*
G75*
G02*
X185995001Y-70735001I-150000J0D01*
G01*
X184345001Y-70735001D01*
G75*
G02*
X184195001Y-70585001I0J150000D01*
G01*
G37*
G36*
G01*
X184195001Y-71855001D02*
X184195001Y-71555001D01*
G75*
G02*
X184345001Y-71405001I150000J0D01*
G01*
X185995001Y-71405001D01*
G75*
G02*
X186145001Y-71555001I0J-150000D01*
G01*
X186145001Y-71855001D01*
G75*
G02*
X185995001Y-72005001I-150000J0D01*
G01*
X184345001Y-72005001D01*
G75*
G02*
X184195001Y-71855001I0J150000D01*
G01*
G37*
G36*
G01*
X179245001Y-71855001D02*
X179245001Y-71555001D01*
G75*
G02*
X179395001Y-71405001I150000J0D01*
G01*
X181045001Y-71405001D01*
G75*
G02*
X181195001Y-71555001I0J-150000D01*
G01*
X181195001Y-71855001D01*
G75*
G02*
X181045001Y-72005001I-150000J0D01*
G01*
X179395001Y-72005001D01*
G75*
G02*
X179245001Y-71855001I0J150000D01*
G01*
G37*
G36*
G01*
X179245001Y-70585001D02*
X179245001Y-70285001D01*
G75*
G02*
X179395001Y-70135001I150000J0D01*
G01*
X181045001Y-70135001D01*
G75*
G02*
X181195001Y-70285001I0J-150000D01*
G01*
X181195001Y-70585001D01*
G75*
G02*
X181045001Y-70735001I-150000J0D01*
G01*
X179395001Y-70735001D01*
G75*
G02*
X179245001Y-70585001I0J150000D01*
G01*
G37*
G36*
G01*
X179245001Y-69315001D02*
X179245001Y-69015001D01*
G75*
G02*
X179395001Y-68865001I150000J0D01*
G01*
X181045001Y-68865001D01*
G75*
G02*
X181195001Y-69015001I0J-150000D01*
G01*
X181195001Y-69315001D01*
G75*
G02*
X181045001Y-69465001I-150000J0D01*
G01*
X179395001Y-69465001D01*
G75*
G02*
X179245001Y-69315001I0J150000D01*
G01*
G37*
G36*
G01*
X179245001Y-68045001D02*
X179245001Y-67745001D01*
G75*
G02*
X179395001Y-67595001I150000J0D01*
G01*
X181045001Y-67595001D01*
G75*
G02*
X181195001Y-67745001I0J-150000D01*
G01*
X181195001Y-68045001D01*
G75*
G02*
X181045001Y-68195001I-150000J0D01*
G01*
X179395001Y-68195001D01*
G75*
G02*
X179245001Y-68045001I0J150000D01*
G01*
G37*
G36*
G01*
X172370000Y-58355000D02*
X172370000Y-58055000D01*
G75*
G02*
X172520000Y-57905000I150000J0D01*
G01*
X174170000Y-57905000D01*
G75*
G02*
X174320000Y-58055000I0J-150000D01*
G01*
X174320000Y-58355000D01*
G75*
G02*
X174170000Y-58505000I-150000J0D01*
G01*
X172520000Y-58505000D01*
G75*
G02*
X172370000Y-58355000I0J150000D01*
G01*
G37*
G36*
G01*
X172370000Y-59625000D02*
X172370000Y-59325000D01*
G75*
G02*
X172520000Y-59175000I150000J0D01*
G01*
X174170000Y-59175000D01*
G75*
G02*
X174320000Y-59325000I0J-150000D01*
G01*
X174320000Y-59625000D01*
G75*
G02*
X174170000Y-59775000I-150000J0D01*
G01*
X172520000Y-59775000D01*
G75*
G02*
X172370000Y-59625000I0J150000D01*
G01*
G37*
G36*
G01*
X172370000Y-60895000D02*
X172370000Y-60595000D01*
G75*
G02*
X172520000Y-60445000I150000J0D01*
G01*
X174170000Y-60445000D01*
G75*
G02*
X174320000Y-60595000I0J-150000D01*
G01*
X174320000Y-60895000D01*
G75*
G02*
X174170000Y-61045000I-150000J0D01*
G01*
X172520000Y-61045000D01*
G75*
G02*
X172370000Y-60895000I0J150000D01*
G01*
G37*
G36*
G01*
X172370000Y-62165000D02*
X172370000Y-61865000D01*
G75*
G02*
X172520000Y-61715000I150000J0D01*
G01*
X174170000Y-61715000D01*
G75*
G02*
X174320000Y-61865000I0J-150000D01*
G01*
X174320000Y-62165000D01*
G75*
G02*
X174170000Y-62315000I-150000J0D01*
G01*
X172520000Y-62315000D01*
G75*
G02*
X172370000Y-62165000I0J150000D01*
G01*
G37*
G36*
G01*
X167420000Y-62165000D02*
X167420000Y-61865000D01*
G75*
G02*
X167570000Y-61715000I150000J0D01*
G01*
X169220000Y-61715000D01*
G75*
G02*
X169370000Y-61865000I0J-150000D01*
G01*
X169370000Y-62165000D01*
G75*
G02*
X169220000Y-62315000I-150000J0D01*
G01*
X167570000Y-62315000D01*
G75*
G02*
X167420000Y-62165000I0J150000D01*
G01*
G37*
G36*
G01*
X167420000Y-60895000D02*
X167420000Y-60595000D01*
G75*
G02*
X167570000Y-60445000I150000J0D01*
G01*
X169220000Y-60445000D01*
G75*
G02*
X169370000Y-60595000I0J-150000D01*
G01*
X169370000Y-60895000D01*
G75*
G02*
X169220000Y-61045000I-150000J0D01*
G01*
X167570000Y-61045000D01*
G75*
G02*
X167420000Y-60895000I0J150000D01*
G01*
G37*
G36*
G01*
X167420000Y-59625000D02*
X167420000Y-59325000D01*
G75*
G02*
X167570000Y-59175000I150000J0D01*
G01*
X169220000Y-59175000D01*
G75*
G02*
X169370000Y-59325000I0J-150000D01*
G01*
X169370000Y-59625000D01*
G75*
G02*
X169220000Y-59775000I-150000J0D01*
G01*
X167570000Y-59775000D01*
G75*
G02*
X167420000Y-59625000I0J150000D01*
G01*
G37*
G36*
G01*
X167420000Y-58355000D02*
X167420000Y-58055000D01*
G75*
G02*
X167570000Y-57905000I150000J0D01*
G01*
X169220000Y-57905000D01*
G75*
G02*
X169370000Y-58055000I0J-150000D01*
G01*
X169370000Y-58355000D01*
G75*
G02*
X169220000Y-58505000I-150000J0D01*
G01*
X167570000Y-58505000D01*
G75*
G02*
X167420000Y-58355000I0J150000D01*
G01*
G37*
G36*
G01*
X130410000Y-108480000D02*
X130410000Y-108160000D01*
G75*
G02*
X130570000Y-108000000I160000J0D01*
G01*
X130965000Y-108000000D01*
G75*
G02*
X131125000Y-108160000I0J-160000D01*
G01*
X131125000Y-108480000D01*
G75*
G02*
X130965000Y-108640000I-160000J0D01*
G01*
X130570000Y-108640000D01*
G75*
G02*
X130410000Y-108480000I0J160000D01*
G01*
G37*
G36*
G01*
X129215000Y-108480000D02*
X129215000Y-108160000D01*
G75*
G02*
X129375000Y-108000000I160000J0D01*
G01*
X129770000Y-108000000D01*
G75*
G02*
X129930000Y-108160000I0J-160000D01*
G01*
X129930000Y-108480000D01*
G75*
G02*
X129770000Y-108640000I-160000J0D01*
G01*
X129375000Y-108640000D01*
G75*
G02*
X129215000Y-108480000I0J160000D01*
G01*
G37*
G36*
G01*
X207110000Y-59800000D02*
X207430000Y-59800000D01*
G75*
G02*
X207590000Y-59960000I0J-160000D01*
G01*
X207590000Y-60355000D01*
G75*
G02*
X207430000Y-60515000I-160000J0D01*
G01*
X207110000Y-60515000D01*
G75*
G02*
X206950000Y-60355000I0J160000D01*
G01*
X206950000Y-59960000D01*
G75*
G02*
X207110000Y-59800000I160000J0D01*
G01*
G37*
G36*
G01*
X207110000Y-58605000D02*
X207430000Y-58605000D01*
G75*
G02*
X207590000Y-58765000I0J-160000D01*
G01*
X207590000Y-59160000D01*
G75*
G02*
X207430000Y-59320000I-160000J0D01*
G01*
X207110000Y-59320000D01*
G75*
G02*
X206950000Y-59160000I0J160000D01*
G01*
X206950000Y-58765000D01*
G75*
G02*
X207110000Y-58605000I160000J0D01*
G01*
G37*
G36*
G01*
X187315000Y-94285000D02*
X187315000Y-93965000D01*
G75*
G02*
X187475000Y-93805000I160000J0D01*
G01*
X187870000Y-93805000D01*
G75*
G02*
X188030000Y-93965000I0J-160000D01*
G01*
X188030000Y-94285000D01*
G75*
G02*
X187870000Y-94445000I-160000J0D01*
G01*
X187475000Y-94445000D01*
G75*
G02*
X187315000Y-94285000I0J160000D01*
G01*
G37*
G36*
G01*
X186120000Y-94285000D02*
X186120000Y-93965000D01*
G75*
G02*
X186280000Y-93805000I160000J0D01*
G01*
X186675000Y-93805000D01*
G75*
G02*
X186835000Y-93965000I0J-160000D01*
G01*
X186835000Y-94285000D01*
G75*
G02*
X186675000Y-94445000I-160000J0D01*
G01*
X186280000Y-94445000D01*
G75*
G02*
X186120000Y-94285000I0J160000D01*
G01*
G37*
G36*
G01*
X187040000Y-99035000D02*
X187040000Y-98715000D01*
G75*
G02*
X187200000Y-98555000I160000J0D01*
G01*
X187595000Y-98555000D01*
G75*
G02*
X187755000Y-98715000I0J-160000D01*
G01*
X187755000Y-99035000D01*
G75*
G02*
X187595000Y-99195000I-160000J0D01*
G01*
X187200000Y-99195000D01*
G75*
G02*
X187040000Y-99035000I0J160000D01*
G01*
G37*
G36*
G01*
X185845000Y-99035000D02*
X185845000Y-98715000D01*
G75*
G02*
X186005000Y-98555000I160000J0D01*
G01*
X186400000Y-98555000D01*
G75*
G02*
X186560000Y-98715000I0J-160000D01*
G01*
X186560000Y-99035000D01*
G75*
G02*
X186400000Y-99195000I-160000J0D01*
G01*
X186005000Y-99195000D01*
G75*
G02*
X185845000Y-99035000I0J160000D01*
G01*
G37*
G36*
G01*
X183737500Y-94210000D02*
X183737500Y-93890000D01*
G75*
G02*
X183897500Y-93730000I160000J0D01*
G01*
X184292500Y-93730000D01*
G75*
G02*
X184452500Y-93890000I0J-160000D01*
G01*
X184452500Y-94210000D01*
G75*
G02*
X184292500Y-94370000I-160000J0D01*
G01*
X183897500Y-94370000D01*
G75*
G02*
X183737500Y-94210000I0J160000D01*
G01*
G37*
G36*
G01*
X182542500Y-94210000D02*
X182542500Y-93890000D01*
G75*
G02*
X182702500Y-93730000I160000J0D01*
G01*
X183097500Y-93730000D01*
G75*
G02*
X183257500Y-93890000I0J-160000D01*
G01*
X183257500Y-94210000D01*
G75*
G02*
X183097500Y-94370000I-160000J0D01*
G01*
X182702500Y-94370000D01*
G75*
G02*
X182542500Y-94210000I0J160000D01*
G01*
G37*
G36*
G01*
X183485000Y-98740000D02*
X183485000Y-99060000D01*
G75*
G02*
X183325000Y-99220000I-160000J0D01*
G01*
X182930000Y-99220000D01*
G75*
G02*
X182770000Y-99060000I0J160000D01*
G01*
X182770000Y-98740000D01*
G75*
G02*
X182930000Y-98580000I160000J0D01*
G01*
X183325000Y-98580000D01*
G75*
G02*
X183485000Y-98740000I0J-160000D01*
G01*
G37*
G36*
G01*
X184680000Y-98740000D02*
X184680000Y-99060000D01*
G75*
G02*
X184520000Y-99220000I-160000J0D01*
G01*
X184125000Y-99220000D01*
G75*
G02*
X183965000Y-99060000I0J160000D01*
G01*
X183965000Y-98740000D01*
G75*
G02*
X184125000Y-98580000I160000J0D01*
G01*
X184520000Y-98580000D01*
G75*
G02*
X184680000Y-98740000I0J-160000D01*
G01*
G37*
G36*
G01*
X173780000Y-107830000D02*
X173780000Y-108150000D01*
G75*
G02*
X173620000Y-108310000I-160000J0D01*
G01*
X173225000Y-108310000D01*
G75*
G02*
X173065000Y-108150000I0J160000D01*
G01*
X173065000Y-107830000D01*
G75*
G02*
X173225000Y-107670000I160000J0D01*
G01*
X173620000Y-107670000D01*
G75*
G02*
X173780000Y-107830000I0J-160000D01*
G01*
G37*
G36*
G01*
X174975000Y-107830000D02*
X174975000Y-108150000D01*
G75*
G02*
X174815000Y-108310000I-160000J0D01*
G01*
X174420000Y-108310000D01*
G75*
G02*
X174260000Y-108150000I0J160000D01*
G01*
X174260000Y-107830000D01*
G75*
G02*
X174420000Y-107670000I160000J0D01*
G01*
X174815000Y-107670000D01*
G75*
G02*
X174975000Y-107830000I0J-160000D01*
G01*
G37*
G36*
G01*
X174112500Y-112640000D02*
X174112500Y-112960000D01*
G75*
G02*
X173952500Y-113120000I-160000J0D01*
G01*
X173557500Y-113120000D01*
G75*
G02*
X173397500Y-112960000I0J160000D01*
G01*
X173397500Y-112640000D01*
G75*
G02*
X173557500Y-112480000I160000J0D01*
G01*
X173952500Y-112480000D01*
G75*
G02*
X174112500Y-112640000I0J-160000D01*
G01*
G37*
G36*
G01*
X175307500Y-112640000D02*
X175307500Y-112960000D01*
G75*
G02*
X175147500Y-113120000I-160000J0D01*
G01*
X174752500Y-113120000D01*
G75*
G02*
X174592500Y-112960000I0J160000D01*
G01*
X174592500Y-112640000D01*
G75*
G02*
X174752500Y-112480000I160000J0D01*
G01*
X175147500Y-112480000D01*
G75*
G02*
X175307500Y-112640000I0J-160000D01*
G01*
G37*
G36*
G01*
X177560000Y-108225000D02*
X177560000Y-107905000D01*
G75*
G02*
X177720000Y-107745000I160000J0D01*
G01*
X178115000Y-107745000D01*
G75*
G02*
X178275000Y-107905000I0J-160000D01*
G01*
X178275000Y-108225000D01*
G75*
G02*
X178115000Y-108385000I-160000J0D01*
G01*
X177720000Y-108385000D01*
G75*
G02*
X177560000Y-108225000I0J160000D01*
G01*
G37*
G36*
G01*
X176365000Y-108225000D02*
X176365000Y-107905000D01*
G75*
G02*
X176525000Y-107745000I160000J0D01*
G01*
X176920000Y-107745000D01*
G75*
G02*
X177080000Y-107905000I0J-160000D01*
G01*
X177080000Y-108225000D01*
G75*
G02*
X176920000Y-108385000I-160000J0D01*
G01*
X176525000Y-108385000D01*
G75*
G02*
X176365000Y-108225000I0J160000D01*
G01*
G37*
G36*
G01*
X177815000Y-112960000D02*
X177815000Y-112640000D01*
G75*
G02*
X177975000Y-112480000I160000J0D01*
G01*
X178370000Y-112480000D01*
G75*
G02*
X178530000Y-112640000I0J-160000D01*
G01*
X178530000Y-112960000D01*
G75*
G02*
X178370000Y-113120000I-160000J0D01*
G01*
X177975000Y-113120000D01*
G75*
G02*
X177815000Y-112960000I0J160000D01*
G01*
G37*
G36*
G01*
X176620000Y-112960000D02*
X176620000Y-112640000D01*
G75*
G02*
X176780000Y-112480000I160000J0D01*
G01*
X177175000Y-112480000D01*
G75*
G02*
X177335000Y-112640000I0J-160000D01*
G01*
X177335000Y-112960000D01*
G75*
G02*
X177175000Y-113120000I-160000J0D01*
G01*
X176780000Y-113120000D01*
G75*
G02*
X176620000Y-112960000I0J160000D01*
G01*
G37*
G36*
G01*
X183157500Y-107640000D02*
X183157500Y-107960000D01*
G75*
G02*
X182997500Y-108120000I-160000J0D01*
G01*
X182602500Y-108120000D01*
G75*
G02*
X182442500Y-107960000I0J160000D01*
G01*
X182442500Y-107640000D01*
G75*
G02*
X182602500Y-107480000I160000J0D01*
G01*
X182997500Y-107480000D01*
G75*
G02*
X183157500Y-107640000I0J-160000D01*
G01*
G37*
G36*
G01*
X184352500Y-107640000D02*
X184352500Y-107960000D01*
G75*
G02*
X184192500Y-108120000I-160000J0D01*
G01*
X183797500Y-108120000D01*
G75*
G02*
X183637500Y-107960000I0J160000D01*
G01*
X183637500Y-107640000D01*
G75*
G02*
X183797500Y-107480000I160000J0D01*
G01*
X184192500Y-107480000D01*
G75*
G02*
X184352500Y-107640000I0J-160000D01*
G01*
G37*
G36*
G01*
X183537500Y-112885000D02*
X183537500Y-112565000D01*
G75*
G02*
X183697500Y-112405000I160000J0D01*
G01*
X184092500Y-112405000D01*
G75*
G02*
X184252500Y-112565000I0J-160000D01*
G01*
X184252500Y-112885000D01*
G75*
G02*
X184092500Y-113045000I-160000J0D01*
G01*
X183697500Y-113045000D01*
G75*
G02*
X183537500Y-112885000I0J160000D01*
G01*
G37*
G36*
G01*
X182342500Y-112885000D02*
X182342500Y-112565000D01*
G75*
G02*
X182502500Y-112405000I160000J0D01*
G01*
X182897500Y-112405000D01*
G75*
G02*
X183057500Y-112565000I0J-160000D01*
G01*
X183057500Y-112885000D01*
G75*
G02*
X182897500Y-113045000I-160000J0D01*
G01*
X182502500Y-113045000D01*
G75*
G02*
X182342500Y-112885000I0J160000D01*
G01*
G37*
G36*
G01*
X187565000Y-107985000D02*
X187565000Y-107665000D01*
G75*
G02*
X187725000Y-107505000I160000J0D01*
G01*
X188120000Y-107505000D01*
G75*
G02*
X188280000Y-107665000I0J-160000D01*
G01*
X188280000Y-107985000D01*
G75*
G02*
X188120000Y-108145000I-160000J0D01*
G01*
X187725000Y-108145000D01*
G75*
G02*
X187565000Y-107985000I0J160000D01*
G01*
G37*
G36*
G01*
X186370000Y-107985000D02*
X186370000Y-107665000D01*
G75*
G02*
X186530000Y-107505000I160000J0D01*
G01*
X186925000Y-107505000D01*
G75*
G02*
X187085000Y-107665000I0J-160000D01*
G01*
X187085000Y-107985000D01*
G75*
G02*
X186925000Y-108145000I-160000J0D01*
G01*
X186530000Y-108145000D01*
G75*
G02*
X186370000Y-107985000I0J160000D01*
G01*
G37*
G36*
G01*
X186960000Y-112615000D02*
X186960000Y-112935000D01*
G75*
G02*
X186800000Y-113095000I-160000J0D01*
G01*
X186405000Y-113095000D01*
G75*
G02*
X186245000Y-112935000I0J160000D01*
G01*
X186245000Y-112615000D01*
G75*
G02*
X186405000Y-112455000I160000J0D01*
G01*
X186800000Y-112455000D01*
G75*
G02*
X186960000Y-112615000I0J-160000D01*
G01*
G37*
G36*
G01*
X188155000Y-112615000D02*
X188155000Y-112935000D01*
G75*
G02*
X187995000Y-113095000I-160000J0D01*
G01*
X187600000Y-113095000D01*
G75*
G02*
X187440000Y-112935000I0J160000D01*
G01*
X187440000Y-112615000D01*
G75*
G02*
X187600000Y-112455000I160000J0D01*
G01*
X187995000Y-112455000D01*
G75*
G02*
X188155000Y-112615000I0J-160000D01*
G01*
G37*
G36*
G01*
X173707500Y-121090000D02*
X173707500Y-121410000D01*
G75*
G02*
X173547500Y-121570000I-160000J0D01*
G01*
X173152500Y-121570000D01*
G75*
G02*
X172992500Y-121410000I0J160000D01*
G01*
X172992500Y-121090000D01*
G75*
G02*
X173152500Y-120930000I160000J0D01*
G01*
X173547500Y-120930000D01*
G75*
G02*
X173707500Y-121090000I0J-160000D01*
G01*
G37*
G36*
G01*
X174902500Y-121090000D02*
X174902500Y-121410000D01*
G75*
G02*
X174742500Y-121570000I-160000J0D01*
G01*
X174347500Y-121570000D01*
G75*
G02*
X174187500Y-121410000I0J160000D01*
G01*
X174187500Y-121090000D01*
G75*
G02*
X174347500Y-120930000I160000J0D01*
G01*
X174742500Y-120930000D01*
G75*
G02*
X174902500Y-121090000I0J-160000D01*
G01*
G37*
G36*
G01*
X174387500Y-126235000D02*
X174387500Y-125915000D01*
G75*
G02*
X174547500Y-125755000I160000J0D01*
G01*
X174942500Y-125755000D01*
G75*
G02*
X175102500Y-125915000I0J-160000D01*
G01*
X175102500Y-126235000D01*
G75*
G02*
X174942500Y-126395000I-160000J0D01*
G01*
X174547500Y-126395000D01*
G75*
G02*
X174387500Y-126235000I0J160000D01*
G01*
G37*
G36*
G01*
X173192500Y-126235000D02*
X173192500Y-125915000D01*
G75*
G02*
X173352500Y-125755000I160000J0D01*
G01*
X173747500Y-125755000D01*
G75*
G02*
X173907500Y-125915000I0J-160000D01*
G01*
X173907500Y-126235000D01*
G75*
G02*
X173747500Y-126395000I-160000J0D01*
G01*
X173352500Y-126395000D01*
G75*
G02*
X173192500Y-126235000I0J160000D01*
G01*
G37*
G36*
G01*
X177862500Y-121435000D02*
X177862500Y-121115000D01*
G75*
G02*
X178022500Y-120955000I160000J0D01*
G01*
X178417500Y-120955000D01*
G75*
G02*
X178577500Y-121115000I0J-160000D01*
G01*
X178577500Y-121435000D01*
G75*
G02*
X178417500Y-121595000I-160000J0D01*
G01*
X178022500Y-121595000D01*
G75*
G02*
X177862500Y-121435000I0J160000D01*
G01*
G37*
G36*
G01*
X176667500Y-121435000D02*
X176667500Y-121115000D01*
G75*
G02*
X176827500Y-120955000I160000J0D01*
G01*
X177222500Y-120955000D01*
G75*
G02*
X177382500Y-121115000I0J-160000D01*
G01*
X177382500Y-121435000D01*
G75*
G02*
X177222500Y-121595000I-160000J0D01*
G01*
X176827500Y-121595000D01*
G75*
G02*
X176667500Y-121435000I0J160000D01*
G01*
G37*
G36*
G01*
X176962500Y-125965000D02*
X176962500Y-126285000D01*
G75*
G02*
X176802500Y-126445000I-160000J0D01*
G01*
X176407500Y-126445000D01*
G75*
G02*
X176247500Y-126285000I0J160000D01*
G01*
X176247500Y-125965000D01*
G75*
G02*
X176407500Y-125805000I160000J0D01*
G01*
X176802500Y-125805000D01*
G75*
G02*
X176962500Y-125965000I0J-160000D01*
G01*
G37*
G36*
G01*
X178157500Y-125965000D02*
X178157500Y-126285000D01*
G75*
G02*
X177997500Y-126445000I-160000J0D01*
G01*
X177602500Y-126445000D01*
G75*
G02*
X177442500Y-126285000I0J160000D01*
G01*
X177442500Y-125965000D01*
G75*
G02*
X177602500Y-125805000I160000J0D01*
G01*
X177997500Y-125805000D01*
G75*
G02*
X178157500Y-125965000I0J-160000D01*
G01*
G37*
G36*
G01*
X184042500Y-121510000D02*
X184042500Y-121190000D01*
G75*
G02*
X184202500Y-121030000I160000J0D01*
G01*
X184597500Y-121030000D01*
G75*
G02*
X184757500Y-121190000I0J-160000D01*
G01*
X184757500Y-121510000D01*
G75*
G02*
X184597500Y-121670000I-160000J0D01*
G01*
X184202500Y-121670000D01*
G75*
G02*
X184042500Y-121510000I0J160000D01*
G01*
G37*
G36*
G01*
X182847500Y-121510000D02*
X182847500Y-121190000D01*
G75*
G02*
X183007500Y-121030000I160000J0D01*
G01*
X183402500Y-121030000D01*
G75*
G02*
X183562500Y-121190000I0J-160000D01*
G01*
X183562500Y-121510000D01*
G75*
G02*
X183402500Y-121670000I-160000J0D01*
G01*
X183007500Y-121670000D01*
G75*
G02*
X182847500Y-121510000I0J160000D01*
G01*
G37*
G36*
G01*
X183537500Y-125940000D02*
X183537500Y-126260000D01*
G75*
G02*
X183377500Y-126420000I-160000J0D01*
G01*
X182982500Y-126420000D01*
G75*
G02*
X182822500Y-126260000I0J160000D01*
G01*
X182822500Y-125940000D01*
G75*
G02*
X182982500Y-125780000I160000J0D01*
G01*
X183377500Y-125780000D01*
G75*
G02*
X183537500Y-125940000I0J-160000D01*
G01*
G37*
G36*
G01*
X184732500Y-125940000D02*
X184732500Y-126260000D01*
G75*
G02*
X184572500Y-126420000I-160000J0D01*
G01*
X184177500Y-126420000D01*
G75*
G02*
X184017500Y-126260000I0J160000D01*
G01*
X184017500Y-125940000D01*
G75*
G02*
X184177500Y-125780000I160000J0D01*
G01*
X184572500Y-125780000D01*
G75*
G02*
X184732500Y-125940000I0J-160000D01*
G01*
G37*
G36*
G01*
X186635000Y-121165000D02*
X186635000Y-121485000D01*
G75*
G02*
X186475000Y-121645000I-160000J0D01*
G01*
X186080000Y-121645000D01*
G75*
G02*
X185920000Y-121485000I0J160000D01*
G01*
X185920000Y-121165000D01*
G75*
G02*
X186080000Y-121005000I160000J0D01*
G01*
X186475000Y-121005000D01*
G75*
G02*
X186635000Y-121165000I0J-160000D01*
G01*
G37*
G36*
G01*
X187830000Y-121165000D02*
X187830000Y-121485000D01*
G75*
G02*
X187670000Y-121645000I-160000J0D01*
G01*
X187275000Y-121645000D01*
G75*
G02*
X187115000Y-121485000I0J160000D01*
G01*
X187115000Y-121165000D01*
G75*
G02*
X187275000Y-121005000I160000J0D01*
G01*
X187670000Y-121005000D01*
G75*
G02*
X187830000Y-121165000I0J-160000D01*
G01*
G37*
G36*
G01*
X187237500Y-126285000D02*
X187237500Y-125965000D01*
G75*
G02*
X187397500Y-125805000I160000J0D01*
G01*
X187792500Y-125805000D01*
G75*
G02*
X187952500Y-125965000I0J-160000D01*
G01*
X187952500Y-126285000D01*
G75*
G02*
X187792500Y-126445000I-160000J0D01*
G01*
X187397500Y-126445000D01*
G75*
G02*
X187237500Y-126285000I0J160000D01*
G01*
G37*
G36*
G01*
X186042500Y-126285000D02*
X186042500Y-125965000D01*
G75*
G02*
X186202500Y-125805000I160000J0D01*
G01*
X186597500Y-125805000D01*
G75*
G02*
X186757500Y-125965000I0J-160000D01*
G01*
X186757500Y-126285000D01*
G75*
G02*
X186597500Y-126445000I-160000J0D01*
G01*
X186202500Y-126445000D01*
G75*
G02*
X186042500Y-126285000I0J160000D01*
G01*
G37*
G36*
G01*
X165637500Y-107865000D02*
X165637500Y-108185000D01*
G75*
G02*
X165477500Y-108345000I-160000J0D01*
G01*
X165082500Y-108345000D01*
G75*
G02*
X164922500Y-108185000I0J160000D01*
G01*
X164922500Y-107865000D01*
G75*
G02*
X165082500Y-107705000I160000J0D01*
G01*
X165477500Y-107705000D01*
G75*
G02*
X165637500Y-107865000I0J-160000D01*
G01*
G37*
G36*
G01*
X166832500Y-107865000D02*
X166832500Y-108185000D01*
G75*
G02*
X166672500Y-108345000I-160000J0D01*
G01*
X166277500Y-108345000D01*
G75*
G02*
X166117500Y-108185000I0J160000D01*
G01*
X166117500Y-107865000D01*
G75*
G02*
X166277500Y-107705000I160000J0D01*
G01*
X166672500Y-107705000D01*
G75*
G02*
X166832500Y-107865000I0J-160000D01*
G01*
G37*
G36*
G01*
X162300000Y-110465000D02*
X162300000Y-110145000D01*
G75*
G02*
X162460000Y-109985000I160000J0D01*
G01*
X162855000Y-109985000D01*
G75*
G02*
X163015000Y-110145000I0J-160000D01*
G01*
X163015000Y-110465000D01*
G75*
G02*
X162855000Y-110625000I-160000J0D01*
G01*
X162460000Y-110625000D01*
G75*
G02*
X162300000Y-110465000I0J160000D01*
G01*
G37*
G36*
G01*
X161105000Y-110465000D02*
X161105000Y-110145000D01*
G75*
G02*
X161265000Y-109985000I160000J0D01*
G01*
X161660000Y-109985000D01*
G75*
G02*
X161820000Y-110145000I0J-160000D01*
G01*
X161820000Y-110465000D01*
G75*
G02*
X161660000Y-110625000I-160000J0D01*
G01*
X161265000Y-110625000D01*
G75*
G02*
X161105000Y-110465000I0J160000D01*
G01*
G37*
G36*
G01*
X161860000Y-107940000D02*
X161860000Y-108260000D01*
G75*
G02*
X161700000Y-108420000I-160000J0D01*
G01*
X161305000Y-108420000D01*
G75*
G02*
X161145000Y-108260000I0J160000D01*
G01*
X161145000Y-107940000D01*
G75*
G02*
X161305000Y-107780000I160000J0D01*
G01*
X161700000Y-107780000D01*
G75*
G02*
X161860000Y-107940000I0J-160000D01*
G01*
G37*
G36*
G01*
X163055000Y-107940000D02*
X163055000Y-108260000D01*
G75*
G02*
X162895000Y-108420000I-160000J0D01*
G01*
X162500000Y-108420000D01*
G75*
G02*
X162340000Y-108260000I0J160000D01*
G01*
X162340000Y-107940000D01*
G75*
G02*
X162500000Y-107780000I160000J0D01*
G01*
X162895000Y-107780000D01*
G75*
G02*
X163055000Y-107940000I0J-160000D01*
G01*
G37*
G36*
G01*
X205890000Y-59810000D02*
X206210000Y-59810000D01*
G75*
G02*
X206370000Y-59970000I0J-160000D01*
G01*
X206370000Y-60365000D01*
G75*
G02*
X206210000Y-60525000I-160000J0D01*
G01*
X205890000Y-60525000D01*
G75*
G02*
X205730000Y-60365000I0J160000D01*
G01*
X205730000Y-59970000D01*
G75*
G02*
X205890000Y-59810000I160000J0D01*
G01*
G37*
G36*
G01*
X205890000Y-58615000D02*
X206210000Y-58615000D01*
G75*
G02*
X206370000Y-58775000I0J-160000D01*
G01*
X206370000Y-59170000D01*
G75*
G02*
X206210000Y-59330000I-160000J0D01*
G01*
X205890000Y-59330000D01*
G75*
G02*
X205730000Y-59170000I0J160000D01*
G01*
X205730000Y-58775000D01*
G75*
G02*
X205890000Y-58615000I160000J0D01*
G01*
G37*
G36*
G01*
X203100000Y-59880000D02*
X202780000Y-59880000D01*
G75*
G02*
X202620000Y-59720000I0J160000D01*
G01*
X202620000Y-59325000D01*
G75*
G02*
X202780000Y-59165000I160000J0D01*
G01*
X203100000Y-59165000D01*
G75*
G02*
X203260000Y-59325000I0J-160000D01*
G01*
X203260000Y-59720000D01*
G75*
G02*
X203100000Y-59880000I-160000J0D01*
G01*
G37*
G36*
G01*
X203100000Y-61075000D02*
X202780000Y-61075000D01*
G75*
G02*
X202620000Y-60915000I0J160000D01*
G01*
X202620000Y-60520000D01*
G75*
G02*
X202780000Y-60360000I160000J0D01*
G01*
X203100000Y-60360000D01*
G75*
G02*
X203260000Y-60520000I0J-160000D01*
G01*
X203260000Y-60915000D01*
G75*
G02*
X203100000Y-61075000I-160000J0D01*
G01*
G37*
G36*
G01*
X197810000Y-59850000D02*
X197490000Y-59850000D01*
G75*
G02*
X197330000Y-59690000I0J160000D01*
G01*
X197330000Y-59295000D01*
G75*
G02*
X197490000Y-59135000I160000J0D01*
G01*
X197810000Y-59135000D01*
G75*
G02*
X197970000Y-59295000I0J-160000D01*
G01*
X197970000Y-59690000D01*
G75*
G02*
X197810000Y-59850000I-160000J0D01*
G01*
G37*
G36*
G01*
X197810000Y-61045000D02*
X197490000Y-61045000D01*
G75*
G02*
X197330000Y-60885000I0J160000D01*
G01*
X197330000Y-60490000D01*
G75*
G02*
X197490000Y-60330000I160000J0D01*
G01*
X197810000Y-60330000D01*
G75*
G02*
X197970000Y-60490000I0J-160000D01*
G01*
X197970000Y-60885000D01*
G75*
G02*
X197810000Y-61045000I-160000J0D01*
G01*
G37*
G36*
G01*
X187160000Y-71100000D02*
X186840000Y-71100000D01*
G75*
G02*
X186680000Y-70940000I0J160000D01*
G01*
X186680000Y-70545000D01*
G75*
G02*
X186840000Y-70385000I160000J0D01*
G01*
X187160000Y-70385000D01*
G75*
G02*
X187320000Y-70545000I0J-160000D01*
G01*
X187320000Y-70940000D01*
G75*
G02*
X187160000Y-71100000I-160000J0D01*
G01*
G37*
G36*
G01*
X187160000Y-72295000D02*
X186840000Y-72295000D01*
G75*
G02*
X186680000Y-72135000I0J160000D01*
G01*
X186680000Y-71740000D01*
G75*
G02*
X186840000Y-71580000I160000J0D01*
G01*
X187160000Y-71580000D01*
G75*
G02*
X187320000Y-71740000I0J-160000D01*
G01*
X187320000Y-72135000D01*
G75*
G02*
X187160000Y-72295000I-160000J0D01*
G01*
G37*
G36*
G01*
X186900000Y-68692500D02*
X187220000Y-68692500D01*
G75*
G02*
X187380000Y-68852500I0J-160000D01*
G01*
X187380000Y-69247500D01*
G75*
G02*
X187220000Y-69407500I-160000J0D01*
G01*
X186900000Y-69407500D01*
G75*
G02*
X186740000Y-69247500I0J160000D01*
G01*
X186740000Y-68852500D01*
G75*
G02*
X186900000Y-68692500I160000J0D01*
G01*
G37*
G36*
G01*
X186900000Y-67497500D02*
X187220000Y-67497500D01*
G75*
G02*
X187380000Y-67657500I0J-160000D01*
G01*
X187380000Y-68052500D01*
G75*
G02*
X187220000Y-68212500I-160000J0D01*
G01*
X186900000Y-68212500D01*
G75*
G02*
X186740000Y-68052500I0J160000D01*
G01*
X186740000Y-67657500D01*
G75*
G02*
X186900000Y-67497500I160000J0D01*
G01*
G37*
G36*
G01*
X185072500Y-66640000D02*
X185072500Y-66320000D01*
G75*
G02*
X185232500Y-66160000I160000J0D01*
G01*
X185627500Y-66160000D01*
G75*
G02*
X185787500Y-66320000I0J-160000D01*
G01*
X185787500Y-66640000D01*
G75*
G02*
X185627500Y-66800000I-160000J0D01*
G01*
X185232500Y-66800000D01*
G75*
G02*
X185072500Y-66640000I0J160000D01*
G01*
G37*
G36*
G01*
X183877500Y-66640000D02*
X183877500Y-66320000D01*
G75*
G02*
X184037500Y-66160000I160000J0D01*
G01*
X184432500Y-66160000D01*
G75*
G02*
X184592500Y-66320000I0J-160000D01*
G01*
X184592500Y-66640000D01*
G75*
G02*
X184432500Y-66800000I-160000J0D01*
G01*
X184037500Y-66800000D01*
G75*
G02*
X183877500Y-66640000I0J160000D01*
G01*
G37*
G36*
G01*
X176950000Y-71592500D02*
X177270000Y-71592500D01*
G75*
G02*
X177430000Y-71752500I0J-160000D01*
G01*
X177430000Y-72147500D01*
G75*
G02*
X177270000Y-72307500I-160000J0D01*
G01*
X176950000Y-72307500D01*
G75*
G02*
X176790000Y-72147500I0J160000D01*
G01*
X176790000Y-71752500D01*
G75*
G02*
X176950000Y-71592500I160000J0D01*
G01*
G37*
G36*
G01*
X176950000Y-70397500D02*
X177270000Y-70397500D01*
G75*
G02*
X177430000Y-70557500I0J-160000D01*
G01*
X177430000Y-70952500D01*
G75*
G02*
X177270000Y-71112500I-160000J0D01*
G01*
X176950000Y-71112500D01*
G75*
G02*
X176790000Y-70952500I0J160000D01*
G01*
X176790000Y-70557500D01*
G75*
G02*
X176950000Y-70397500I160000J0D01*
G01*
G37*
G36*
G01*
X178100000Y-71627500D02*
X178420000Y-71627500D01*
G75*
G02*
X178580000Y-71787500I0J-160000D01*
G01*
X178580000Y-72182500D01*
G75*
G02*
X178420000Y-72342500I-160000J0D01*
G01*
X178100000Y-72342500D01*
G75*
G02*
X177940000Y-72182500I0J160000D01*
G01*
X177940000Y-71787500D01*
G75*
G02*
X178100000Y-71627500I160000J0D01*
G01*
G37*
G36*
G01*
X178100000Y-70432500D02*
X178420000Y-70432500D01*
G75*
G02*
X178580000Y-70592500I0J-160000D01*
G01*
X178580000Y-70987500D01*
G75*
G02*
X178420000Y-71147500I-160000J0D01*
G01*
X178100000Y-71147500D01*
G75*
G02*
X177940000Y-70987500I0J160000D01*
G01*
X177940000Y-70592500D01*
G75*
G02*
X178100000Y-70432500I160000J0D01*
G01*
G37*
G36*
G01*
X174257500Y-84360000D02*
X174257500Y-84040000D01*
G75*
G02*
X174417500Y-83880000I160000J0D01*
G01*
X174812500Y-83880000D01*
G75*
G02*
X174972500Y-84040000I0J-160000D01*
G01*
X174972500Y-84360000D01*
G75*
G02*
X174812500Y-84520000I-160000J0D01*
G01*
X174417500Y-84520000D01*
G75*
G02*
X174257500Y-84360000I0J160000D01*
G01*
G37*
G36*
G01*
X173062500Y-84360000D02*
X173062500Y-84040000D01*
G75*
G02*
X173222500Y-83880000I160000J0D01*
G01*
X173617500Y-83880000D01*
G75*
G02*
X173777500Y-84040000I0J-160000D01*
G01*
X173777500Y-84360000D01*
G75*
G02*
X173617500Y-84520000I-160000J0D01*
G01*
X173222500Y-84520000D01*
G75*
G02*
X173062500Y-84360000I0J160000D01*
G01*
G37*
G36*
G01*
X170890000Y-84070000D02*
X170890000Y-84390000D01*
G75*
G02*
X170730000Y-84550000I-160000J0D01*
G01*
X170335000Y-84550000D01*
G75*
G02*
X170175000Y-84390000I0J160000D01*
G01*
X170175000Y-84070000D01*
G75*
G02*
X170335000Y-83910000I160000J0D01*
G01*
X170730000Y-83910000D01*
G75*
G02*
X170890000Y-84070000I0J-160000D01*
G01*
G37*
G36*
G01*
X172085000Y-84070000D02*
X172085000Y-84390000D01*
G75*
G02*
X171925000Y-84550000I-160000J0D01*
G01*
X171530000Y-84550000D01*
G75*
G02*
X171370000Y-84390000I0J160000D01*
G01*
X171370000Y-84070000D01*
G75*
G02*
X171530000Y-83910000I160000J0D01*
G01*
X171925000Y-83910000D01*
G75*
G02*
X172085000Y-84070000I0J-160000D01*
G01*
G37*
G36*
G01*
X176060000Y-97520000D02*
X176060000Y-97840000D01*
G75*
G02*
X175900000Y-98000000I-160000J0D01*
G01*
X175505000Y-98000000D01*
G75*
G02*
X175345000Y-97840000I0J160000D01*
G01*
X175345000Y-97520000D01*
G75*
G02*
X175505000Y-97360000I160000J0D01*
G01*
X175900000Y-97360000D01*
G75*
G02*
X176060000Y-97520000I0J-160000D01*
G01*
G37*
G36*
G01*
X177255000Y-97520000D02*
X177255000Y-97840000D01*
G75*
G02*
X177095000Y-98000000I-160000J0D01*
G01*
X176700000Y-98000000D01*
G75*
G02*
X176540000Y-97840000I0J160000D01*
G01*
X176540000Y-97520000D01*
G75*
G02*
X176700000Y-97360000I160000J0D01*
G01*
X177095000Y-97360000D01*
G75*
G02*
X177255000Y-97520000I0J-160000D01*
G01*
G37*
G36*
G01*
X170810000Y-97550000D02*
X170810000Y-97870000D01*
G75*
G02*
X170650000Y-98030000I-160000J0D01*
G01*
X170255000Y-98030000D01*
G75*
G02*
X170095000Y-97870000I0J160000D01*
G01*
X170095000Y-97550000D01*
G75*
G02*
X170255000Y-97390000I160000J0D01*
G01*
X170650000Y-97390000D01*
G75*
G02*
X170810000Y-97550000I0J-160000D01*
G01*
G37*
G36*
G01*
X172005000Y-97550000D02*
X172005000Y-97870000D01*
G75*
G02*
X171845000Y-98030000I-160000J0D01*
G01*
X171450000Y-98030000D01*
G75*
G02*
X171290000Y-97870000I0J160000D01*
G01*
X171290000Y-97550000D01*
G75*
G02*
X171450000Y-97390000I160000J0D01*
G01*
X171845000Y-97390000D01*
G75*
G02*
X172005000Y-97550000I0J-160000D01*
G01*
G37*
G36*
G01*
X189385000Y-59315000D02*
X189385000Y-59635000D01*
G75*
G02*
X189225000Y-59795000I-160000J0D01*
G01*
X188830000Y-59795000D01*
G75*
G02*
X188670000Y-59635000I0J160000D01*
G01*
X188670000Y-59315000D01*
G75*
G02*
X188830000Y-59155000I160000J0D01*
G01*
X189225000Y-59155000D01*
G75*
G02*
X189385000Y-59315000I0J-160000D01*
G01*
G37*
G36*
G01*
X190580000Y-59315000D02*
X190580000Y-59635000D01*
G75*
G02*
X190420000Y-59795000I-160000J0D01*
G01*
X190025000Y-59795000D01*
G75*
G02*
X189865000Y-59635000I0J160000D01*
G01*
X189865000Y-59315000D01*
G75*
G02*
X190025000Y-59155000I160000J0D01*
G01*
X190420000Y-59155000D01*
G75*
G02*
X190580000Y-59315000I0J-160000D01*
G01*
G37*
G36*
G01*
X190090000Y-57862500D02*
X190410000Y-57862500D01*
G75*
G02*
X190570000Y-58022500I0J-160000D01*
G01*
X190570000Y-58417500D01*
G75*
G02*
X190410000Y-58577500I-160000J0D01*
G01*
X190090000Y-58577500D01*
G75*
G02*
X189930000Y-58417500I0J160000D01*
G01*
X189930000Y-58022500D01*
G75*
G02*
X190090000Y-57862500I160000J0D01*
G01*
G37*
G36*
G01*
X190090000Y-56667500D02*
X190410000Y-56667500D01*
G75*
G02*
X190570000Y-56827500I0J-160000D01*
G01*
X190570000Y-57222500D01*
G75*
G02*
X190410000Y-57382500I-160000J0D01*
G01*
X190090000Y-57382500D01*
G75*
G02*
X189930000Y-57222500I0J160000D01*
G01*
X189930000Y-56827500D01*
G75*
G02*
X190090000Y-56667500I160000J0D01*
G01*
G37*
G36*
G01*
X177365000Y-57815000D02*
X177685000Y-57815000D01*
G75*
G02*
X177845000Y-57975000I0J-160000D01*
G01*
X177845000Y-58370000D01*
G75*
G02*
X177685000Y-58530000I-160000J0D01*
G01*
X177365000Y-58530000D01*
G75*
G02*
X177205000Y-58370000I0J160000D01*
G01*
X177205000Y-57975000D01*
G75*
G02*
X177365000Y-57815000I160000J0D01*
G01*
G37*
G36*
G01*
X177365000Y-56620000D02*
X177685000Y-56620000D01*
G75*
G02*
X177845000Y-56780000I0J-160000D01*
G01*
X177845000Y-57175000D01*
G75*
G02*
X177685000Y-57335000I-160000J0D01*
G01*
X177365000Y-57335000D01*
G75*
G02*
X177205000Y-57175000I0J160000D01*
G01*
X177205000Y-56780000D01*
G75*
G02*
X177365000Y-56620000I160000J0D01*
G01*
G37*
G36*
G01*
X188140000Y-83100000D02*
X188140000Y-82780000D01*
G75*
G02*
X188300000Y-82620000I160000J0D01*
G01*
X188695000Y-82620000D01*
G75*
G02*
X188855000Y-82780000I0J-160000D01*
G01*
X188855000Y-83100000D01*
G75*
G02*
X188695000Y-83260000I-160000J0D01*
G01*
X188300000Y-83260000D01*
G75*
G02*
X188140000Y-83100000I0J160000D01*
G01*
G37*
G36*
G01*
X186945000Y-83100000D02*
X186945000Y-82780000D01*
G75*
G02*
X187105000Y-82620000I160000J0D01*
G01*
X187500000Y-82620000D01*
G75*
G02*
X187660000Y-82780000I0J-160000D01*
G01*
X187660000Y-83100000D01*
G75*
G02*
X187500000Y-83260000I-160000J0D01*
G01*
X187105000Y-83260000D01*
G75*
G02*
X186945000Y-83100000I0J160000D01*
G01*
G37*
D17*
X199614999Y-59599999D03*
X201614999Y-58649999D03*
X201614999Y-60549999D03*
D15*
X187300000Y-90725000D03*
X188250000Y-92725000D03*
X186350000Y-92725000D03*
X187300000Y-87125000D03*
X188250000Y-89125000D03*
X186350000Y-89125000D03*
X183500000Y-90725000D03*
X184450000Y-92725000D03*
X182550000Y-92725000D03*
X183525000Y-87175000D03*
X184475000Y-89175000D03*
X182575000Y-89175000D03*
X173770000Y-104540000D03*
X174720000Y-106540000D03*
X172820000Y-106540000D03*
X173810000Y-100815000D03*
X174760000Y-102815000D03*
X172860000Y-102815000D03*
X177670000Y-104515000D03*
X178620000Y-106515000D03*
X176720000Y-106515000D03*
X177560000Y-100815000D03*
X178510000Y-102815000D03*
X176610000Y-102815000D03*
X183325000Y-104375000D03*
X184275000Y-106375000D03*
X182375000Y-106375000D03*
X183275000Y-100580000D03*
X184225000Y-102580000D03*
X182325000Y-102580000D03*
X187235000Y-104380000D03*
X188185000Y-106380000D03*
X186285000Y-106380000D03*
X187180000Y-100620000D03*
X188130000Y-102620000D03*
X186230000Y-102620000D03*
X173980000Y-117850000D03*
X174930000Y-119850000D03*
X173030000Y-119850000D03*
X173945000Y-114300000D03*
X174895000Y-116300000D03*
X172995000Y-116300000D03*
X177715000Y-117890000D03*
X178665000Y-119890000D03*
X176765000Y-119890000D03*
X177680000Y-114330000D03*
X178630000Y-116330000D03*
X176730000Y-116330000D03*
X187200000Y-95500000D03*
X188150000Y-97500000D03*
X186250000Y-97500000D03*
X183400000Y-95525000D03*
X184350000Y-97525000D03*
X182450000Y-97525000D03*
X183475000Y-117925000D03*
X184425000Y-119925000D03*
X182525000Y-119925000D03*
X174020000Y-109425000D03*
X174970000Y-111425000D03*
X173070000Y-111425000D03*
X177825000Y-109400000D03*
X178775000Y-111400000D03*
X176875000Y-111400000D03*
X183440000Y-114315000D03*
X184390000Y-116315000D03*
X182490000Y-116315000D03*
X183275000Y-109245000D03*
X184225000Y-111245000D03*
X182325000Y-111245000D03*
X187175000Y-109280000D03*
X188125000Y-111280000D03*
X186225000Y-111280000D03*
X187250000Y-117925000D03*
X188200000Y-119925000D03*
X186300000Y-119925000D03*
X173880000Y-122630000D03*
X174830000Y-124630000D03*
X172930000Y-124630000D03*
X177605001Y-122674999D03*
X178555001Y-124674999D03*
X176655001Y-124674999D03*
X187285000Y-114290000D03*
X188235000Y-116290000D03*
X186335000Y-116290000D03*
X183450000Y-122695000D03*
X184400000Y-124695000D03*
X182500000Y-124695000D03*
X187325000Y-122690000D03*
X188275000Y-124690000D03*
X186375000Y-124690000D03*
X165850000Y-104675000D03*
X166800000Y-106675000D03*
X164900000Y-106675000D03*
X162214999Y-113735001D03*
X161264999Y-111735001D03*
X163164999Y-111735001D03*
X162050000Y-104700000D03*
X163000000Y-106700000D03*
X161100000Y-106700000D03*
D17*
X194174999Y-59714999D03*
X196174999Y-58764999D03*
X196174999Y-60664999D03*
D18*
X207890000Y-50660000D03*
X210790000Y-50660000D03*
X210790000Y-52960000D03*
X207890000Y-52960000D03*
D15*
X181680000Y-64190000D03*
X182630000Y-66190000D03*
X180730000Y-66190000D03*
G36*
G01*
X193827500Y-55342500D02*
X193827500Y-55817500D01*
G75*
G02*
X193590000Y-56055000I-237500J0D01*
G01*
X192990000Y-56055000D01*
G75*
G02*
X192752500Y-55817500I0J237500D01*
G01*
X192752500Y-55342500D01*
G75*
G02*
X192990000Y-55105000I237500J0D01*
G01*
X193590000Y-55105000D01*
G75*
G02*
X193827500Y-55342500I0J-237500D01*
G01*
G37*
G36*
G01*
X195552500Y-55342500D02*
X195552500Y-55817500D01*
G75*
G02*
X195315000Y-56055000I-237500J0D01*
G01*
X194715000Y-56055000D01*
G75*
G02*
X194477500Y-55817500I0J237500D01*
G01*
X194477500Y-55342500D01*
G75*
G02*
X194715000Y-55105000I237500J0D01*
G01*
X195315000Y-55105000D01*
G75*
G02*
X195552500Y-55342500I0J-237500D01*
G01*
G37*
G36*
G01*
X210852500Y-48715000D02*
X210852500Y-49025000D01*
G75*
G02*
X210697500Y-49180000I-155000J0D01*
G01*
X210272500Y-49180000D01*
G75*
G02*
X210117500Y-49025000I0J155000D01*
G01*
X210117500Y-48715000D01*
G75*
G02*
X210272500Y-48560000I155000J0D01*
G01*
X210697500Y-48560000D01*
G75*
G02*
X210852500Y-48715000I0J-155000D01*
G01*
G37*
G36*
G01*
X211987500Y-48715000D02*
X211987500Y-49025000D01*
G75*
G02*
X211832500Y-49180000I-155000J0D01*
G01*
X211407500Y-49180000D01*
G75*
G02*
X211252500Y-49025000I0J155000D01*
G01*
X211252500Y-48715000D01*
G75*
G02*
X211407500Y-48560000I155000J0D01*
G01*
X211832500Y-48560000D01*
G75*
G02*
X211987500Y-48715000I0J-155000D01*
G01*
G37*
G36*
G01*
X207847500Y-54965000D02*
X207847500Y-54655000D01*
G75*
G02*
X208002500Y-54500000I155000J0D01*
G01*
X208427500Y-54500000D01*
G75*
G02*
X208582500Y-54655000I0J-155000D01*
G01*
X208582500Y-54965000D01*
G75*
G02*
X208427500Y-55120000I-155000J0D01*
G01*
X208002500Y-55120000D01*
G75*
G02*
X207847500Y-54965000I0J155000D01*
G01*
G37*
G36*
G01*
X206712500Y-54965000D02*
X206712500Y-54655000D01*
G75*
G02*
X206867500Y-54500000I155000J0D01*
G01*
X207292500Y-54500000D01*
G75*
G02*
X207447500Y-54655000I0J-155000D01*
G01*
X207447500Y-54965000D01*
G75*
G02*
X207292500Y-55120000I-155000J0D01*
G01*
X206867500Y-55120000D01*
G75*
G02*
X206712500Y-54965000I0J155000D01*
G01*
G37*
G36*
G01*
X207840000Y-56065000D02*
X207840000Y-55755000D01*
G75*
G02*
X207995000Y-55600000I155000J0D01*
G01*
X208420000Y-55600000D01*
G75*
G02*
X208575000Y-55755000I0J-155000D01*
G01*
X208575000Y-56065000D01*
G75*
G02*
X208420000Y-56220000I-155000J0D01*
G01*
X207995000Y-56220000D01*
G75*
G02*
X207840000Y-56065000I0J155000D01*
G01*
G37*
G36*
G01*
X206705000Y-56065000D02*
X206705000Y-55755000D01*
G75*
G02*
X206860000Y-55600000I155000J0D01*
G01*
X207285000Y-55600000D01*
G75*
G02*
X207440000Y-55755000I0J-155000D01*
G01*
X207440000Y-56065000D01*
G75*
G02*
X207285000Y-56220000I-155000J0D01*
G01*
X206860000Y-56220000D01*
G75*
G02*
X206705000Y-56065000I0J155000D01*
G01*
G37*
G36*
G01*
X185545000Y-73302500D02*
X185545000Y-73777500D01*
G75*
G02*
X185307500Y-74015000I-237500J0D01*
G01*
X184707500Y-74015000D01*
G75*
G02*
X184470000Y-73777500I0J237500D01*
G01*
X184470000Y-73302500D01*
G75*
G02*
X184707500Y-73065000I237500J0D01*
G01*
X185307500Y-73065000D01*
G75*
G02*
X185545000Y-73302500I0J-237500D01*
G01*
G37*
G36*
G01*
X187270000Y-73302500D02*
X187270000Y-73777500D01*
G75*
G02*
X187032500Y-74015000I-237500J0D01*
G01*
X186432500Y-74015000D01*
G75*
G02*
X186195000Y-73777500I0J237500D01*
G01*
X186195000Y-73302500D01*
G75*
G02*
X186432500Y-73065000I237500J0D01*
G01*
X187032500Y-73065000D01*
G75*
G02*
X187270000Y-73302500I0J-237500D01*
G01*
G37*
G36*
G01*
X188275000Y-66377500D02*
X188275000Y-65902500D01*
G75*
G02*
X188512500Y-65665000I237500J0D01*
G01*
X189112500Y-65665000D01*
G75*
G02*
X189350000Y-65902500I0J-237500D01*
G01*
X189350000Y-66377500D01*
G75*
G02*
X189112500Y-66615000I-237500J0D01*
G01*
X188512500Y-66615000D01*
G75*
G02*
X188275000Y-66377500I0J237500D01*
G01*
G37*
G36*
G01*
X186550000Y-66377500D02*
X186550000Y-65902500D01*
G75*
G02*
X186787500Y-65665000I237500J0D01*
G01*
X187387500Y-65665000D01*
G75*
G02*
X187625000Y-65902500I0J-237500D01*
G01*
X187625000Y-66377500D01*
G75*
G02*
X187387500Y-66615000I-237500J0D01*
G01*
X186787500Y-66615000D01*
G75*
G02*
X186550000Y-66377500I0J237500D01*
G01*
G37*
G36*
G01*
X105860000Y-116710000D02*
X105860000Y-114710000D01*
G75*
G02*
X106110000Y-114460000I250000J0D01*
G01*
X109610000Y-114460000D01*
G75*
G02*
X109860000Y-114710000I0J-250000D01*
G01*
X109860000Y-116710000D01*
G75*
G02*
X109610000Y-116960000I-250000J0D01*
G01*
X106110000Y-116960000D01*
G75*
G02*
X105860000Y-116710000I0J250000D01*
G01*
G37*
G36*
G01*
X97860000Y-116710000D02*
X97860000Y-114710000D01*
G75*
G02*
X98110000Y-114460000I250000J0D01*
G01*
X101610000Y-114460000D01*
G75*
G02*
X101860000Y-114710000I0J-250000D01*
G01*
X101860000Y-116710000D01*
G75*
G02*
X101610000Y-116960000I-250000J0D01*
G01*
X98110000Y-116960000D01*
G75*
G02*
X97860000Y-116710000I0J250000D01*
G01*
G37*
G36*
G01*
X105830000Y-105360000D02*
X105830000Y-103360000D01*
G75*
G02*
X106080000Y-103110000I250000J0D01*
G01*
X109580000Y-103110000D01*
G75*
G02*
X109830000Y-103360000I0J-250000D01*
G01*
X109830000Y-105360000D01*
G75*
G02*
X109580000Y-105610000I-250000J0D01*
G01*
X106080000Y-105610000D01*
G75*
G02*
X105830000Y-105360000I0J250000D01*
G01*
G37*
G36*
G01*
X97830000Y-105360000D02*
X97830000Y-103360000D01*
G75*
G02*
X98080000Y-103110000I250000J0D01*
G01*
X101580000Y-103110000D01*
G75*
G02*
X101830000Y-103360000I0J-250000D01*
G01*
X101830000Y-105360000D01*
G75*
G02*
X101580000Y-105610000I-250000J0D01*
G01*
X98080000Y-105610000D01*
G75*
G02*
X97830000Y-105360000I0J250000D01*
G01*
G37*
G36*
G01*
X137210000Y-104615000D02*
X137210000Y-104935000D01*
G75*
G02*
X137050000Y-105095000I-160000J0D01*
G01*
X136655000Y-105095000D01*
G75*
G02*
X136495000Y-104935000I0J160000D01*
G01*
X136495000Y-104615000D01*
G75*
G02*
X136655000Y-104455000I160000J0D01*
G01*
X137050000Y-104455000D01*
G75*
G02*
X137210000Y-104615000I0J-160000D01*
G01*
G37*
G36*
G01*
X138405000Y-104615000D02*
X138405000Y-104935000D01*
G75*
G02*
X138245000Y-105095000I-160000J0D01*
G01*
X137850000Y-105095000D01*
G75*
G02*
X137690000Y-104935000I0J160000D01*
G01*
X137690000Y-104615000D01*
G75*
G02*
X137850000Y-104455000I160000J0D01*
G01*
X138245000Y-104455000D01*
G75*
G02*
X138405000Y-104615000I0J-160000D01*
G01*
G37*
G36*
G01*
X91385000Y-92340000D02*
X91385000Y-92660000D01*
G75*
G02*
X91225000Y-92820000I-160000J0D01*
G01*
X90830000Y-92820000D01*
G75*
G02*
X90670000Y-92660000I0J160000D01*
G01*
X90670000Y-92340000D01*
G75*
G02*
X90830000Y-92180000I160000J0D01*
G01*
X91225000Y-92180000D01*
G75*
G02*
X91385000Y-92340000I0J-160000D01*
G01*
G37*
G36*
G01*
X92580000Y-92340000D02*
X92580000Y-92660000D01*
G75*
G02*
X92420000Y-92820000I-160000J0D01*
G01*
X92025000Y-92820000D01*
G75*
G02*
X91865000Y-92660000I0J160000D01*
G01*
X91865000Y-92340000D01*
G75*
G02*
X92025000Y-92180000I160000J0D01*
G01*
X92420000Y-92180000D01*
G75*
G02*
X92580000Y-92340000I0J-160000D01*
G01*
G37*
G36*
G01*
X142145000Y-110315000D02*
X141825000Y-110315000D01*
G75*
G02*
X141665000Y-110155000I0J160000D01*
G01*
X141665000Y-109760000D01*
G75*
G02*
X141825000Y-109600000I160000J0D01*
G01*
X142145000Y-109600000D01*
G75*
G02*
X142305000Y-109760000I0J-160000D01*
G01*
X142305000Y-110155000D01*
G75*
G02*
X142145000Y-110315000I-160000J0D01*
G01*
G37*
G36*
G01*
X142145000Y-111510000D02*
X141825000Y-111510000D01*
G75*
G02*
X141665000Y-111350000I0J160000D01*
G01*
X141665000Y-110955000D01*
G75*
G02*
X141825000Y-110795000I160000J0D01*
G01*
X142145000Y-110795000D01*
G75*
G02*
X142305000Y-110955000I0J-160000D01*
G01*
X142305000Y-111350000D01*
G75*
G02*
X142145000Y-111510000I-160000J0D01*
G01*
G37*
G36*
G01*
X98590000Y-92555000D02*
X98590000Y-92235000D01*
G75*
G02*
X98750000Y-92075000I160000J0D01*
G01*
X99145000Y-92075000D01*
G75*
G02*
X99305000Y-92235000I0J-160000D01*
G01*
X99305000Y-92555000D01*
G75*
G02*
X99145000Y-92715000I-160000J0D01*
G01*
X98750000Y-92715000D01*
G75*
G02*
X98590000Y-92555000I0J160000D01*
G01*
G37*
G36*
G01*
X97395000Y-92555000D02*
X97395000Y-92235000D01*
G75*
G02*
X97555000Y-92075000I160000J0D01*
G01*
X97950000Y-92075000D01*
G75*
G02*
X98110000Y-92235000I0J-160000D01*
G01*
X98110000Y-92555000D01*
G75*
G02*
X97950000Y-92715000I-160000J0D01*
G01*
X97555000Y-92715000D01*
G75*
G02*
X97395000Y-92555000I0J160000D01*
G01*
G37*
G36*
G01*
X95415000Y-92540000D02*
X95415000Y-92220000D01*
G75*
G02*
X95575000Y-92060000I160000J0D01*
G01*
X95970000Y-92060000D01*
G75*
G02*
X96130000Y-92220000I0J-160000D01*
G01*
X96130000Y-92540000D01*
G75*
G02*
X95970000Y-92700000I-160000J0D01*
G01*
X95575000Y-92700000D01*
G75*
G02*
X95415000Y-92540000I0J160000D01*
G01*
G37*
G36*
G01*
X94220000Y-92540000D02*
X94220000Y-92220000D01*
G75*
G02*
X94380000Y-92060000I160000J0D01*
G01*
X94775000Y-92060000D01*
G75*
G02*
X94935000Y-92220000I0J-160000D01*
G01*
X94935000Y-92540000D01*
G75*
G02*
X94775000Y-92700000I-160000J0D01*
G01*
X94380000Y-92700000D01*
G75*
G02*
X94220000Y-92540000I0J160000D01*
G01*
G37*
G36*
G01*
X163060000Y-126240000D02*
X163060000Y-126560000D01*
G75*
G02*
X162900000Y-126720000I-160000J0D01*
G01*
X162505000Y-126720000D01*
G75*
G02*
X162345000Y-126560000I0J160000D01*
G01*
X162345000Y-126240000D01*
G75*
G02*
X162505000Y-126080000I160000J0D01*
G01*
X162900000Y-126080000D01*
G75*
G02*
X163060000Y-126240000I0J-160000D01*
G01*
G37*
G36*
G01*
X164255000Y-126240000D02*
X164255000Y-126560000D01*
G75*
G02*
X164095000Y-126720000I-160000J0D01*
G01*
X163700000Y-126720000D01*
G75*
G02*
X163540000Y-126560000I0J160000D01*
G01*
X163540000Y-126240000D01*
G75*
G02*
X163700000Y-126080000I160000J0D01*
G01*
X164095000Y-126080000D01*
G75*
G02*
X164255000Y-126240000I0J-160000D01*
G01*
G37*
G36*
G01*
X167100000Y-129895000D02*
X167100000Y-129575000D01*
G75*
G02*
X167260000Y-129415000I160000J0D01*
G01*
X167655000Y-129415000D01*
G75*
G02*
X167815000Y-129575000I0J-160000D01*
G01*
X167815000Y-129895000D01*
G75*
G02*
X167655000Y-130055000I-160000J0D01*
G01*
X167260000Y-130055000D01*
G75*
G02*
X167100000Y-129895000I0J160000D01*
G01*
G37*
G36*
G01*
X168295000Y-129895000D02*
X168295000Y-129575000D01*
G75*
G02*
X168455000Y-129415000I160000J0D01*
G01*
X168850000Y-129415000D01*
G75*
G02*
X169010000Y-129575000I0J-160000D01*
G01*
X169010000Y-129895000D01*
G75*
G02*
X168850000Y-130055000I-160000J0D01*
G01*
X168455000Y-130055000D01*
G75*
G02*
X168295000Y-129895000I0J160000D01*
G01*
G37*
G36*
G01*
X167070000Y-131195000D02*
X167070000Y-130875000D01*
G75*
G02*
X167230000Y-130715000I160000J0D01*
G01*
X167625000Y-130715000D01*
G75*
G02*
X167785000Y-130875000I0J-160000D01*
G01*
X167785000Y-131195000D01*
G75*
G02*
X167625000Y-131355000I-160000J0D01*
G01*
X167230000Y-131355000D01*
G75*
G02*
X167070000Y-131195000I0J160000D01*
G01*
G37*
G36*
G01*
X168265000Y-131195000D02*
X168265000Y-130875000D01*
G75*
G02*
X168425000Y-130715000I160000J0D01*
G01*
X168820000Y-130715000D01*
G75*
G02*
X168980000Y-130875000I0J-160000D01*
G01*
X168980000Y-131195000D01*
G75*
G02*
X168820000Y-131355000I-160000J0D01*
G01*
X168425000Y-131355000D01*
G75*
G02*
X168265000Y-131195000I0J160000D01*
G01*
G37*
G36*
G01*
X158305000Y-130620000D02*
X157985000Y-130620000D01*
G75*
G02*
X157825000Y-130460000I0J160000D01*
G01*
X157825000Y-130065000D01*
G75*
G02*
X157985000Y-129905000I160000J0D01*
G01*
X158305000Y-129905000D01*
G75*
G02*
X158465000Y-130065000I0J-160000D01*
G01*
X158465000Y-130460000D01*
G75*
G02*
X158305000Y-130620000I-160000J0D01*
G01*
G37*
G36*
G01*
X158305000Y-129425000D02*
X157985000Y-129425000D01*
G75*
G02*
X157825000Y-129265000I0J160000D01*
G01*
X157825000Y-128870000D01*
G75*
G02*
X157985000Y-128710000I160000J0D01*
G01*
X158305000Y-128710000D01*
G75*
G02*
X158465000Y-128870000I0J-160000D01*
G01*
X158465000Y-129265000D01*
G75*
G02*
X158305000Y-129425000I-160000J0D01*
G01*
G37*
G36*
G01*
X159555000Y-130620000D02*
X159235000Y-130620000D01*
G75*
G02*
X159075000Y-130460000I0J160000D01*
G01*
X159075000Y-130065000D01*
G75*
G02*
X159235000Y-129905000I160000J0D01*
G01*
X159555000Y-129905000D01*
G75*
G02*
X159715000Y-130065000I0J-160000D01*
G01*
X159715000Y-130460000D01*
G75*
G02*
X159555000Y-130620000I-160000J0D01*
G01*
G37*
G36*
G01*
X159555000Y-129425000D02*
X159235000Y-129425000D01*
G75*
G02*
X159075000Y-129265000I0J160000D01*
G01*
X159075000Y-128870000D01*
G75*
G02*
X159235000Y-128710000I160000J0D01*
G01*
X159555000Y-128710000D01*
G75*
G02*
X159715000Y-128870000I0J-160000D01*
G01*
X159715000Y-129265000D01*
G75*
G02*
X159555000Y-129425000I-160000J0D01*
G01*
G37*
G36*
G01*
X167350000Y-118350000D02*
X167350000Y-118670000D01*
G75*
G02*
X167190000Y-118830000I-160000J0D01*
G01*
X166795000Y-118830000D01*
G75*
G02*
X166635000Y-118670000I0J160000D01*
G01*
X166635000Y-118350000D01*
G75*
G02*
X166795000Y-118190000I160000J0D01*
G01*
X167190000Y-118190000D01*
G75*
G02*
X167350000Y-118350000I0J-160000D01*
G01*
G37*
G36*
G01*
X168545000Y-118350000D02*
X168545000Y-118670000D01*
G75*
G02*
X168385000Y-118830000I-160000J0D01*
G01*
X167990000Y-118830000D01*
G75*
G02*
X167830000Y-118670000I0J160000D01*
G01*
X167830000Y-118350000D01*
G75*
G02*
X167990000Y-118190000I160000J0D01*
G01*
X168385000Y-118190000D01*
G75*
G02*
X168545000Y-118350000I0J-160000D01*
G01*
G37*
G36*
G01*
X167380000Y-117110000D02*
X167380000Y-117430000D01*
G75*
G02*
X167220000Y-117590000I-160000J0D01*
G01*
X166825000Y-117590000D01*
G75*
G02*
X166665000Y-117430000I0J160000D01*
G01*
X166665000Y-117110000D01*
G75*
G02*
X166825000Y-116950000I160000J0D01*
G01*
X167220000Y-116950000D01*
G75*
G02*
X167380000Y-117110000I0J-160000D01*
G01*
G37*
G36*
G01*
X168575000Y-117110000D02*
X168575000Y-117430000D01*
G75*
G02*
X168415000Y-117590000I-160000J0D01*
G01*
X168020000Y-117590000D01*
G75*
G02*
X167860000Y-117430000I0J160000D01*
G01*
X167860000Y-117110000D01*
G75*
G02*
X168020000Y-116950000I160000J0D01*
G01*
X168415000Y-116950000D01*
G75*
G02*
X168575000Y-117110000I0J-160000D01*
G01*
G37*
G36*
G01*
X168940000Y-126610000D02*
X168940000Y-126290000D01*
G75*
G02*
X169100000Y-126130000I160000J0D01*
G01*
X169495000Y-126130000D01*
G75*
G02*
X169655000Y-126290000I0J-160000D01*
G01*
X169655000Y-126610000D01*
G75*
G02*
X169495000Y-126770000I-160000J0D01*
G01*
X169100000Y-126770000D01*
G75*
G02*
X168940000Y-126610000I0J160000D01*
G01*
G37*
G36*
G01*
X167745000Y-126610000D02*
X167745000Y-126290000D01*
G75*
G02*
X167905000Y-126130000I160000J0D01*
G01*
X168300000Y-126130000D01*
G75*
G02*
X168460000Y-126290000I0J-160000D01*
G01*
X168460000Y-126610000D01*
G75*
G02*
X168300000Y-126770000I-160000J0D01*
G01*
X167905000Y-126770000D01*
G75*
G02*
X167745000Y-126610000I0J160000D01*
G01*
G37*
G36*
G01*
X165937500Y-126240000D02*
X165937500Y-126560000D01*
G75*
G02*
X165777500Y-126720000I-160000J0D01*
G01*
X165382500Y-126720000D01*
G75*
G02*
X165222500Y-126560000I0J160000D01*
G01*
X165222500Y-126240000D01*
G75*
G02*
X165382500Y-126080000I160000J0D01*
G01*
X165777500Y-126080000D01*
G75*
G02*
X165937500Y-126240000I0J-160000D01*
G01*
G37*
G36*
G01*
X167132500Y-126240000D02*
X167132500Y-126560000D01*
G75*
G02*
X166972500Y-126720000I-160000J0D01*
G01*
X166577500Y-126720000D01*
G75*
G02*
X166417500Y-126560000I0J160000D01*
G01*
X166417500Y-126240000D01*
G75*
G02*
X166577500Y-126080000I160000J0D01*
G01*
X166972500Y-126080000D01*
G75*
G02*
X167132500Y-126240000I0J-160000D01*
G01*
G37*
D19*
X161610000Y-120230000D03*
X162110000Y-120230000D03*
X162610000Y-120230000D03*
X163110000Y-120230000D03*
X163610000Y-120230000D03*
X163610000Y-124630000D03*
X163110000Y-124630000D03*
X162610000Y-124630000D03*
X162110000Y-124630000D03*
X161610000Y-124630000D03*
X165900000Y-120300000D03*
X166400000Y-120300000D03*
X166900000Y-120300000D03*
X167400000Y-120300000D03*
X167900000Y-120300000D03*
X167900000Y-124700000D03*
X167400000Y-124700000D03*
X166900000Y-124700000D03*
X166400000Y-124700000D03*
X165900000Y-124700000D03*
D20*
X161105000Y-128735000D03*
X161105000Y-129235000D03*
X161105000Y-129735000D03*
X161105000Y-130235000D03*
X161105000Y-130735000D03*
X165505000Y-130735000D03*
X165505000Y-130235000D03*
X165505000Y-129735000D03*
X165505000Y-129235000D03*
X165505000Y-128735000D03*
G36*
G01*
X162040000Y-118255000D02*
X162040000Y-118565000D01*
G75*
G02*
X161885000Y-118720000I-155000J0D01*
G01*
X161460000Y-118720000D01*
G75*
G02*
X161305000Y-118565000I0J155000D01*
G01*
X161305000Y-118255000D01*
G75*
G02*
X161460000Y-118100000I155000J0D01*
G01*
X161885000Y-118100000D01*
G75*
G02*
X162040000Y-118255000I0J-155000D01*
G01*
G37*
G36*
G01*
X163175000Y-118255000D02*
X163175000Y-118565000D01*
G75*
G02*
X163020000Y-118720000I-155000J0D01*
G01*
X162595000Y-118720000D01*
G75*
G02*
X162440000Y-118565000I0J155000D01*
G01*
X162440000Y-118255000D01*
G75*
G02*
X162595000Y-118100000I155000J0D01*
G01*
X163020000Y-118100000D01*
G75*
G02*
X163175000Y-118255000I0J-155000D01*
G01*
G37*
G36*
G01*
X164657500Y-118325000D02*
X164657500Y-118635000D01*
G75*
G02*
X164502500Y-118790000I-155000J0D01*
G01*
X164077500Y-118790000D01*
G75*
G02*
X163922500Y-118635000I0J155000D01*
G01*
X163922500Y-118325000D01*
G75*
G02*
X164077500Y-118170000I155000J0D01*
G01*
X164502500Y-118170000D01*
G75*
G02*
X164657500Y-118325000I0J-155000D01*
G01*
G37*
G36*
G01*
X165792500Y-118325000D02*
X165792500Y-118635000D01*
G75*
G02*
X165637500Y-118790000I-155000J0D01*
G01*
X165212500Y-118790000D01*
G75*
G02*
X165057500Y-118635000I0J155000D01*
G01*
X165057500Y-118325000D01*
G75*
G02*
X165212500Y-118170000I155000J0D01*
G01*
X165637500Y-118170000D01*
G75*
G02*
X165792500Y-118325000I0J-155000D01*
G01*
G37*
G36*
G01*
X159845000Y-118035000D02*
X160155000Y-118035000D01*
G75*
G02*
X160310000Y-118190000I0J-155000D01*
G01*
X160310000Y-118615000D01*
G75*
G02*
X160155000Y-118770000I-155000J0D01*
G01*
X159845000Y-118770000D01*
G75*
G02*
X159690000Y-118615000I0J155000D01*
G01*
X159690000Y-118190000D01*
G75*
G02*
X159845000Y-118035000I155000J0D01*
G01*
G37*
G36*
G01*
X159845000Y-116900000D02*
X160155000Y-116900000D01*
G75*
G02*
X160310000Y-117055000I0J-155000D01*
G01*
X160310000Y-117480000D01*
G75*
G02*
X160155000Y-117635000I-155000J0D01*
G01*
X159845000Y-117635000D01*
G75*
G02*
X159690000Y-117480000I0J155000D01*
G01*
X159690000Y-117055000D01*
G75*
G02*
X159845000Y-116900000I155000J0D01*
G01*
G37*
G36*
G01*
X167110000Y-128580000D02*
X167110000Y-128270000D01*
G75*
G02*
X167265000Y-128115000I155000J0D01*
G01*
X167690000Y-128115000D01*
G75*
G02*
X167845000Y-128270000I0J-155000D01*
G01*
X167845000Y-128580000D01*
G75*
G02*
X167690000Y-128735000I-155000J0D01*
G01*
X167265000Y-128735000D01*
G75*
G02*
X167110000Y-128580000I0J155000D01*
G01*
G37*
G36*
G01*
X168245000Y-128580000D02*
X168245000Y-128270000D01*
G75*
G02*
X168400000Y-128115000I155000J0D01*
G01*
X168825000Y-128115000D01*
G75*
G02*
X168980000Y-128270000I0J-155000D01*
G01*
X168980000Y-128580000D01*
G75*
G02*
X168825000Y-128735000I-155000J0D01*
G01*
X168400000Y-128735000D01*
G75*
G02*
X168245000Y-128580000I0J155000D01*
G01*
G37*
D21*
X171120000Y-86205000D03*
X178740000Y-95735000D03*
X173660000Y-86205000D03*
X176200000Y-95735000D03*
X176200000Y-86205000D03*
X173660000Y-95735000D03*
X178740000Y-86205000D03*
X171120000Y-95735000D03*
D22*
X141295000Y-100650000D03*
X150825000Y-93030000D03*
X141295000Y-98110000D03*
X150825000Y-95570000D03*
X141295000Y-95570000D03*
X150825000Y-98110000D03*
X141295000Y-93030000D03*
X150825000Y-100650000D03*
G36*
G01*
X165875000Y-96495000D02*
X165205000Y-96495000D01*
G75*
G02*
X165055000Y-96345000I0J150000D01*
G01*
X165055000Y-96045000D01*
G75*
G02*
X165205000Y-95895000I150000J0D01*
G01*
X165875000Y-95895000D01*
G75*
G02*
X166025000Y-96045000I0J-150000D01*
G01*
X166025000Y-96345000D01*
G75*
G02*
X165875000Y-96495000I-150000J0D01*
G01*
G37*
G36*
G01*
X164675000Y-96495000D02*
X164005000Y-96495000D01*
G75*
G02*
X163855000Y-96345000I0J150000D01*
G01*
X163855000Y-96045000D01*
G75*
G02*
X164005000Y-95895000I150000J0D01*
G01*
X164675000Y-95895000D01*
G75*
G02*
X164825000Y-96045000I0J-150000D01*
G01*
X164825000Y-96345000D01*
G75*
G02*
X164675000Y-96495000I-150000J0D01*
G01*
G37*
G36*
G01*
X165875000Y-97245000D02*
X165205000Y-97245000D01*
G75*
G02*
X165055000Y-97095000I0J150000D01*
G01*
X165055000Y-96795000D01*
G75*
G02*
X165205000Y-96645000I150000J0D01*
G01*
X165875000Y-96645000D01*
G75*
G02*
X166025000Y-96795000I0J-150000D01*
G01*
X166025000Y-97095000D01*
G75*
G02*
X165875000Y-97245000I-150000J0D01*
G01*
G37*
G36*
G01*
X164675000Y-97245000D02*
X164005000Y-97245000D01*
G75*
G02*
X163855000Y-97095000I0J150000D01*
G01*
X163855000Y-96795000D01*
G75*
G02*
X164005000Y-96645000I150000J0D01*
G01*
X164675000Y-96645000D01*
G75*
G02*
X164825000Y-96795000I0J-150000D01*
G01*
X164825000Y-97095000D01*
G75*
G02*
X164675000Y-97245000I-150000J0D01*
G01*
G37*
G36*
G01*
X164040000Y-95520000D02*
X163840000Y-95520000D01*
G75*
G02*
X163740000Y-95420000I0J100000D01*
G01*
X163740000Y-94820000D01*
G75*
G02*
X163840000Y-94720000I100000J0D01*
G01*
X164040000Y-94720000D01*
G75*
G02*
X164140000Y-94820000I0J-100000D01*
G01*
X164140000Y-95420000D01*
G75*
G02*
X164040000Y-95520000I-100000J0D01*
G01*
G37*
G36*
G01*
X165040000Y-95520000D02*
X164840000Y-95520000D01*
G75*
G02*
X164740000Y-95420000I0J100000D01*
G01*
X164740000Y-94820000D01*
G75*
G02*
X164840000Y-94720000I100000J0D01*
G01*
X165040000Y-94720000D01*
G75*
G02*
X165140000Y-94820000I0J-100000D01*
G01*
X165140000Y-95420000D01*
G75*
G02*
X165040000Y-95520000I-100000J0D01*
G01*
G37*
G36*
G01*
X166040000Y-95520000D02*
X165840000Y-95520000D01*
G75*
G02*
X165740000Y-95420000I0J100000D01*
G01*
X165740000Y-94820000D01*
G75*
G02*
X165840000Y-94720000I100000J0D01*
G01*
X166040000Y-94720000D01*
G75*
G02*
X166140000Y-94820000I0J-100000D01*
G01*
X166140000Y-95420000D01*
G75*
G02*
X166040000Y-95520000I-100000J0D01*
G01*
G37*
G36*
G01*
X166040000Y-98420000D02*
X165840000Y-98420000D01*
G75*
G02*
X165740000Y-98320000I0J100000D01*
G01*
X165740000Y-97720000D01*
G75*
G02*
X165840000Y-97620000I100000J0D01*
G01*
X166040000Y-97620000D01*
G75*
G02*
X166140000Y-97720000I0J-100000D01*
G01*
X166140000Y-98320000D01*
G75*
G02*
X166040000Y-98420000I-100000J0D01*
G01*
G37*
G36*
G01*
X165040000Y-98420000D02*
X164840000Y-98420000D01*
G75*
G02*
X164740000Y-98320000I0J100000D01*
G01*
X164740000Y-97720000D01*
G75*
G02*
X164840000Y-97620000I100000J0D01*
G01*
X165040000Y-97620000D01*
G75*
G02*
X165140000Y-97720000I0J-100000D01*
G01*
X165140000Y-98320000D01*
G75*
G02*
X165040000Y-98420000I-100000J0D01*
G01*
G37*
G36*
G01*
X164040000Y-98420000D02*
X163840000Y-98420000D01*
G75*
G02*
X163740000Y-98320000I0J100000D01*
G01*
X163740000Y-97720000D01*
G75*
G02*
X163840000Y-97620000I100000J0D01*
G01*
X164040000Y-97620000D01*
G75*
G02*
X164140000Y-97720000I0J-100000D01*
G01*
X164140000Y-98320000D01*
G75*
G02*
X164040000Y-98420000I-100000J0D01*
G01*
G37*
G36*
G01*
X175145000Y-61890000D02*
X175455000Y-61890000D01*
G75*
G02*
X175610000Y-62045000I0J-155000D01*
G01*
X175610000Y-62470000D01*
G75*
G02*
X175455000Y-62625000I-155000J0D01*
G01*
X175145000Y-62625000D01*
G75*
G02*
X174990000Y-62470000I0J155000D01*
G01*
X174990000Y-62045000D01*
G75*
G02*
X175145000Y-61890000I155000J0D01*
G01*
G37*
G36*
G01*
X175145000Y-60755000D02*
X175455000Y-60755000D01*
G75*
G02*
X175610000Y-60910000I0J-155000D01*
G01*
X175610000Y-61335000D01*
G75*
G02*
X175455000Y-61490000I-155000J0D01*
G01*
X175145000Y-61490000D01*
G75*
G02*
X174990000Y-61335000I0J155000D01*
G01*
X174990000Y-60910000D01*
G75*
G02*
X175145000Y-60755000I155000J0D01*
G01*
G37*
D23*
X159100000Y-71425000D03*
X159100000Y-72695000D03*
X159100000Y-73965000D03*
X159100000Y-75235000D03*
X159100000Y-76505000D03*
X159100000Y-77775000D03*
X159100000Y-79045000D03*
X159100000Y-80315000D03*
X159100000Y-81585000D03*
X159100000Y-82855000D03*
X159100000Y-84125000D03*
X159100000Y-85395000D03*
X159100000Y-86665000D03*
X159100000Y-87935000D03*
D24*
X156315000Y-88935000D03*
X155045000Y-88935000D03*
X153775000Y-88935000D03*
X152505000Y-88935000D03*
X151235000Y-88935000D03*
X149965000Y-88935000D03*
X148695000Y-88935000D03*
X147425000Y-88935000D03*
X146155000Y-88935000D03*
X144885000Y-88935000D03*
D23*
X142100000Y-87935000D03*
X142100000Y-86665000D03*
X142100000Y-85395000D03*
X142100000Y-84125000D03*
X142100000Y-82855000D03*
X142100000Y-81585000D03*
X142100000Y-80315000D03*
X142100000Y-79045000D03*
X142100000Y-77775000D03*
X142100000Y-76505000D03*
X142100000Y-75235000D03*
X142100000Y-73965000D03*
X142100000Y-72695000D03*
X142100000Y-71425000D03*
D25*
X149600000Y-78925000D03*
D26*
X160370000Y-94025000D03*
X160370000Y-99075000D03*
X157830000Y-94025000D03*
X157830000Y-99075000D03*
D10*
X128900000Y-82400000D03*
X133950000Y-82400000D03*
X128900000Y-84940000D03*
X133950000Y-84940000D03*
X128900000Y-87480000D03*
X133950000Y-87480000D03*
X128900000Y-90020000D03*
X133950000Y-90020000D03*
X128900000Y-92560000D03*
X133950000Y-92560000D03*
X128900000Y-95100000D03*
X133950000Y-95100000D03*
G36*
G01*
X119480000Y-116750000D02*
X119480000Y-114750000D01*
G75*
G02*
X119730000Y-114500000I250000J0D01*
G01*
X123230000Y-114500000D01*
G75*
G02*
X123480000Y-114750000I0J-250000D01*
G01*
X123480000Y-116750000D01*
G75*
G02*
X123230000Y-117000000I-250000J0D01*
G01*
X119730000Y-117000000D01*
G75*
G02*
X119480000Y-116750000I0J250000D01*
G01*
G37*
G36*
G01*
X111480000Y-116750000D02*
X111480000Y-114750000D01*
G75*
G02*
X111730000Y-114500000I250000J0D01*
G01*
X115230000Y-114500000D01*
G75*
G02*
X115480000Y-114750000I0J-250000D01*
G01*
X115480000Y-116750000D01*
G75*
G02*
X115230000Y-117000000I-250000J0D01*
G01*
X111730000Y-117000000D01*
G75*
G02*
X111480000Y-116750000I0J250000D01*
G01*
G37*
G36*
G01*
X156700000Y-104220000D02*
X156700000Y-103920000D01*
G75*
G02*
X156850000Y-103770000I150000J0D01*
G01*
X158600000Y-103770000D01*
G75*
G02*
X158750000Y-103920000I0J-150000D01*
G01*
X158750000Y-104220000D01*
G75*
G02*
X158600000Y-104370000I-150000J0D01*
G01*
X156850000Y-104370000D01*
G75*
G02*
X156700000Y-104220000I0J150000D01*
G01*
G37*
G36*
G01*
X156700000Y-105490000D02*
X156700000Y-105190000D01*
G75*
G02*
X156850000Y-105040000I150000J0D01*
G01*
X158600000Y-105040000D01*
G75*
G02*
X158750000Y-105190000I0J-150000D01*
G01*
X158750000Y-105490000D01*
G75*
G02*
X158600000Y-105640000I-150000J0D01*
G01*
X156850000Y-105640000D01*
G75*
G02*
X156700000Y-105490000I0J150000D01*
G01*
G37*
G36*
G01*
X156700000Y-106760000D02*
X156700000Y-106460000D01*
G75*
G02*
X156850000Y-106310000I150000J0D01*
G01*
X158600000Y-106310000D01*
G75*
G02*
X158750000Y-106460000I0J-150000D01*
G01*
X158750000Y-106760000D01*
G75*
G02*
X158600000Y-106910000I-150000J0D01*
G01*
X156850000Y-106910000D01*
G75*
G02*
X156700000Y-106760000I0J150000D01*
G01*
G37*
G36*
G01*
X156700000Y-108030000D02*
X156700000Y-107730000D01*
G75*
G02*
X156850000Y-107580000I150000J0D01*
G01*
X158600000Y-107580000D01*
G75*
G02*
X158750000Y-107730000I0J-150000D01*
G01*
X158750000Y-108030000D01*
G75*
G02*
X158600000Y-108180000I-150000J0D01*
G01*
X156850000Y-108180000D01*
G75*
G02*
X156700000Y-108030000I0J150000D01*
G01*
G37*
G36*
G01*
X156700000Y-109300000D02*
X156700000Y-109000000D01*
G75*
G02*
X156850000Y-108850000I150000J0D01*
G01*
X158600000Y-108850000D01*
G75*
G02*
X158750000Y-109000000I0J-150000D01*
G01*
X158750000Y-109300000D01*
G75*
G02*
X158600000Y-109450000I-150000J0D01*
G01*
X156850000Y-109450000D01*
G75*
G02*
X156700000Y-109300000I0J150000D01*
G01*
G37*
G36*
G01*
X156700000Y-110570000D02*
X156700000Y-110270000D01*
G75*
G02*
X156850000Y-110120000I150000J0D01*
G01*
X158600000Y-110120000D01*
G75*
G02*
X158750000Y-110270000I0J-150000D01*
G01*
X158750000Y-110570000D01*
G75*
G02*
X158600000Y-110720000I-150000J0D01*
G01*
X156850000Y-110720000D01*
G75*
G02*
X156700000Y-110570000I0J150000D01*
G01*
G37*
G36*
G01*
X156700000Y-111840000D02*
X156700000Y-111540000D01*
G75*
G02*
X156850000Y-111390000I150000J0D01*
G01*
X158600000Y-111390000D01*
G75*
G02*
X158750000Y-111540000I0J-150000D01*
G01*
X158750000Y-111840000D01*
G75*
G02*
X158600000Y-111990000I-150000J0D01*
G01*
X156850000Y-111990000D01*
G75*
G02*
X156700000Y-111840000I0J150000D01*
G01*
G37*
G36*
G01*
X156700000Y-113110000D02*
X156700000Y-112810000D01*
G75*
G02*
X156850000Y-112660000I150000J0D01*
G01*
X158600000Y-112660000D01*
G75*
G02*
X158750000Y-112810000I0J-150000D01*
G01*
X158750000Y-113110000D01*
G75*
G02*
X158600000Y-113260000I-150000J0D01*
G01*
X156850000Y-113260000D01*
G75*
G02*
X156700000Y-113110000I0J150000D01*
G01*
G37*
G36*
G01*
X156700000Y-114380000D02*
X156700000Y-114080000D01*
G75*
G02*
X156850000Y-113930000I150000J0D01*
G01*
X158600000Y-113930000D01*
G75*
G02*
X158750000Y-114080000I0J-150000D01*
G01*
X158750000Y-114380000D01*
G75*
G02*
X158600000Y-114530000I-150000J0D01*
G01*
X156850000Y-114530000D01*
G75*
G02*
X156700000Y-114380000I0J150000D01*
G01*
G37*
G36*
G01*
X156700000Y-115650000D02*
X156700000Y-115350000D01*
G75*
G02*
X156850000Y-115200000I150000J0D01*
G01*
X158600000Y-115200000D01*
G75*
G02*
X158750000Y-115350000I0J-150000D01*
G01*
X158750000Y-115650000D01*
G75*
G02*
X158600000Y-115800000I-150000J0D01*
G01*
X156850000Y-115800000D01*
G75*
G02*
X156700000Y-115650000I0J150000D01*
G01*
G37*
G36*
G01*
X156700000Y-116920000D02*
X156700000Y-116620000D01*
G75*
G02*
X156850000Y-116470000I150000J0D01*
G01*
X158600000Y-116470000D01*
G75*
G02*
X158750000Y-116620000I0J-150000D01*
G01*
X158750000Y-116920000D01*
G75*
G02*
X158600000Y-117070000I-150000J0D01*
G01*
X156850000Y-117070000D01*
G75*
G02*
X156700000Y-116920000I0J150000D01*
G01*
G37*
G36*
G01*
X156700000Y-118190000D02*
X156700000Y-117890000D01*
G75*
G02*
X156850000Y-117740000I150000J0D01*
G01*
X158600000Y-117740000D01*
G75*
G02*
X158750000Y-117890000I0J-150000D01*
G01*
X158750000Y-118190000D01*
G75*
G02*
X158600000Y-118340000I-150000J0D01*
G01*
X156850000Y-118340000D01*
G75*
G02*
X156700000Y-118190000I0J150000D01*
G01*
G37*
G36*
G01*
X156700000Y-119460000D02*
X156700000Y-119160000D01*
G75*
G02*
X156850000Y-119010000I150000J0D01*
G01*
X158600000Y-119010000D01*
G75*
G02*
X158750000Y-119160000I0J-150000D01*
G01*
X158750000Y-119460000D01*
G75*
G02*
X158600000Y-119610000I-150000J0D01*
G01*
X156850000Y-119610000D01*
G75*
G02*
X156700000Y-119460000I0J150000D01*
G01*
G37*
G36*
G01*
X156700000Y-120730000D02*
X156700000Y-120430000D01*
G75*
G02*
X156850000Y-120280000I150000J0D01*
G01*
X158600000Y-120280000D01*
G75*
G02*
X158750000Y-120430000I0J-150000D01*
G01*
X158750000Y-120730000D01*
G75*
G02*
X158600000Y-120880000I-150000J0D01*
G01*
X156850000Y-120880000D01*
G75*
G02*
X156700000Y-120730000I0J150000D01*
G01*
G37*
G36*
G01*
X147400000Y-120730000D02*
X147400000Y-120430000D01*
G75*
G02*
X147550000Y-120280000I150000J0D01*
G01*
X149300000Y-120280000D01*
G75*
G02*
X149450000Y-120430000I0J-150000D01*
G01*
X149450000Y-120730000D01*
G75*
G02*
X149300000Y-120880000I-150000J0D01*
G01*
X147550000Y-120880000D01*
G75*
G02*
X147400000Y-120730000I0J150000D01*
G01*
G37*
G36*
G01*
X147400000Y-119460000D02*
X147400000Y-119160000D01*
G75*
G02*
X147550000Y-119010000I150000J0D01*
G01*
X149300000Y-119010000D01*
G75*
G02*
X149450000Y-119160000I0J-150000D01*
G01*
X149450000Y-119460000D01*
G75*
G02*
X149300000Y-119610000I-150000J0D01*
G01*
X147550000Y-119610000D01*
G75*
G02*
X147400000Y-119460000I0J150000D01*
G01*
G37*
G36*
G01*
X147400000Y-118190000D02*
X147400000Y-117890000D01*
G75*
G02*
X147550000Y-117740000I150000J0D01*
G01*
X149300000Y-117740000D01*
G75*
G02*
X149450000Y-117890000I0J-150000D01*
G01*
X149450000Y-118190000D01*
G75*
G02*
X149300000Y-118340000I-150000J0D01*
G01*
X147550000Y-118340000D01*
G75*
G02*
X147400000Y-118190000I0J150000D01*
G01*
G37*
G36*
G01*
X147400000Y-116920000D02*
X147400000Y-116620000D01*
G75*
G02*
X147550000Y-116470000I150000J0D01*
G01*
X149300000Y-116470000D01*
G75*
G02*
X149450000Y-116620000I0J-150000D01*
G01*
X149450000Y-116920000D01*
G75*
G02*
X149300000Y-117070000I-150000J0D01*
G01*
X147550000Y-117070000D01*
G75*
G02*
X147400000Y-116920000I0J150000D01*
G01*
G37*
G36*
G01*
X147400000Y-115650000D02*
X147400000Y-115350000D01*
G75*
G02*
X147550000Y-115200000I150000J0D01*
G01*
X149300000Y-115200000D01*
G75*
G02*
X149450000Y-115350000I0J-150000D01*
G01*
X149450000Y-115650000D01*
G75*
G02*
X149300000Y-115800000I-150000J0D01*
G01*
X147550000Y-115800000D01*
G75*
G02*
X147400000Y-115650000I0J150000D01*
G01*
G37*
G36*
G01*
X147400000Y-114380000D02*
X147400000Y-114080000D01*
G75*
G02*
X147550000Y-113930000I150000J0D01*
G01*
X149300000Y-113930000D01*
G75*
G02*
X149450000Y-114080000I0J-150000D01*
G01*
X149450000Y-114380000D01*
G75*
G02*
X149300000Y-114530000I-150000J0D01*
G01*
X147550000Y-114530000D01*
G75*
G02*
X147400000Y-114380000I0J150000D01*
G01*
G37*
G36*
G01*
X147400000Y-113110000D02*
X147400000Y-112810000D01*
G75*
G02*
X147550000Y-112660000I150000J0D01*
G01*
X149300000Y-112660000D01*
G75*
G02*
X149450000Y-112810000I0J-150000D01*
G01*
X149450000Y-113110000D01*
G75*
G02*
X149300000Y-113260000I-150000J0D01*
G01*
X147550000Y-113260000D01*
G75*
G02*
X147400000Y-113110000I0J150000D01*
G01*
G37*
G36*
G01*
X147400000Y-111840000D02*
X147400000Y-111540000D01*
G75*
G02*
X147550000Y-111390000I150000J0D01*
G01*
X149300000Y-111390000D01*
G75*
G02*
X149450000Y-111540000I0J-150000D01*
G01*
X149450000Y-111840000D01*
G75*
G02*
X149300000Y-111990000I-150000J0D01*
G01*
X147550000Y-111990000D01*
G75*
G02*
X147400000Y-111840000I0J150000D01*
G01*
G37*
G36*
G01*
X147400000Y-110570000D02*
X147400000Y-110270000D01*
G75*
G02*
X147550000Y-110120000I150000J0D01*
G01*
X149300000Y-110120000D01*
G75*
G02*
X149450000Y-110270000I0J-150000D01*
G01*
X149450000Y-110570000D01*
G75*
G02*
X149300000Y-110720000I-150000J0D01*
G01*
X147550000Y-110720000D01*
G75*
G02*
X147400000Y-110570000I0J150000D01*
G01*
G37*
G36*
G01*
X147400000Y-109300000D02*
X147400000Y-109000000D01*
G75*
G02*
X147550000Y-108850000I150000J0D01*
G01*
X149300000Y-108850000D01*
G75*
G02*
X149450000Y-109000000I0J-150000D01*
G01*
X149450000Y-109300000D01*
G75*
G02*
X149300000Y-109450000I-150000J0D01*
G01*
X147550000Y-109450000D01*
G75*
G02*
X147400000Y-109300000I0J150000D01*
G01*
G37*
G36*
G01*
X147400000Y-108030000D02*
X147400000Y-107730000D01*
G75*
G02*
X147550000Y-107580000I150000J0D01*
G01*
X149300000Y-107580000D01*
G75*
G02*
X149450000Y-107730000I0J-150000D01*
G01*
X149450000Y-108030000D01*
G75*
G02*
X149300000Y-108180000I-150000J0D01*
G01*
X147550000Y-108180000D01*
G75*
G02*
X147400000Y-108030000I0J150000D01*
G01*
G37*
G36*
G01*
X147400000Y-106760000D02*
X147400000Y-106460000D01*
G75*
G02*
X147550000Y-106310000I150000J0D01*
G01*
X149300000Y-106310000D01*
G75*
G02*
X149450000Y-106460000I0J-150000D01*
G01*
X149450000Y-106760000D01*
G75*
G02*
X149300000Y-106910000I-150000J0D01*
G01*
X147550000Y-106910000D01*
G75*
G02*
X147400000Y-106760000I0J150000D01*
G01*
G37*
G36*
G01*
X147400000Y-105490000D02*
X147400000Y-105190000D01*
G75*
G02*
X147550000Y-105040000I150000J0D01*
G01*
X149300000Y-105040000D01*
G75*
G02*
X149450000Y-105190000I0J-150000D01*
G01*
X149450000Y-105490000D01*
G75*
G02*
X149300000Y-105640000I-150000J0D01*
G01*
X147550000Y-105640000D01*
G75*
G02*
X147400000Y-105490000I0J150000D01*
G01*
G37*
G36*
G01*
X147400000Y-104220000D02*
X147400000Y-103920000D01*
G75*
G02*
X147550000Y-103770000I150000J0D01*
G01*
X149300000Y-103770000D01*
G75*
G02*
X149450000Y-103920000I0J-150000D01*
G01*
X149450000Y-104220000D01*
G75*
G02*
X149300000Y-104370000I-150000J0D01*
G01*
X147550000Y-104370000D01*
G75*
G02*
X147400000Y-104220000I0J150000D01*
G01*
G37*
G36*
G01*
X144372500Y-114005000D02*
X144372500Y-114325000D01*
G75*
G02*
X144212500Y-114485000I-160000J0D01*
G01*
X143817500Y-114485000D01*
G75*
G02*
X143657500Y-114325000I0J160000D01*
G01*
X143657500Y-114005000D01*
G75*
G02*
X143817500Y-113845000I160000J0D01*
G01*
X144212500Y-113845000D01*
G75*
G02*
X144372500Y-114005000I0J-160000D01*
G01*
G37*
G36*
G01*
X145567500Y-114005000D02*
X145567500Y-114325000D01*
G75*
G02*
X145407500Y-114485000I-160000J0D01*
G01*
X145012500Y-114485000D01*
G75*
G02*
X144852500Y-114325000I0J160000D01*
G01*
X144852500Y-114005000D01*
G75*
G02*
X145012500Y-113845000I160000J0D01*
G01*
X145407500Y-113845000D01*
G75*
G02*
X145567500Y-114005000I0J-160000D01*
G01*
G37*
G36*
G01*
X144822500Y-119245000D02*
X144822500Y-118925000D01*
G75*
G02*
X144982500Y-118765000I160000J0D01*
G01*
X145377500Y-118765000D01*
G75*
G02*
X145537500Y-118925000I0J-160000D01*
G01*
X145537500Y-119245000D01*
G75*
G02*
X145377500Y-119405000I-160000J0D01*
G01*
X144982500Y-119405000D01*
G75*
G02*
X144822500Y-119245000I0J160000D01*
G01*
G37*
G36*
G01*
X143627500Y-119245000D02*
X143627500Y-118925000D01*
G75*
G02*
X143787500Y-118765000I160000J0D01*
G01*
X144182500Y-118765000D01*
G75*
G02*
X144342500Y-118925000I0J-160000D01*
G01*
X144342500Y-119245000D01*
G75*
G02*
X144182500Y-119405000I-160000J0D01*
G01*
X143787500Y-119405000D01*
G75*
G02*
X143627500Y-119245000I0J160000D01*
G01*
G37*
G36*
G01*
X144330000Y-112285000D02*
X144330000Y-112605000D01*
G75*
G02*
X144170000Y-112765000I-160000J0D01*
G01*
X143775000Y-112765000D01*
G75*
G02*
X143615000Y-112605000I0J160000D01*
G01*
X143615000Y-112285000D01*
G75*
G02*
X143775000Y-112125000I160000J0D01*
G01*
X144170000Y-112125000D01*
G75*
G02*
X144330000Y-112285000I0J-160000D01*
G01*
G37*
G36*
G01*
X145525000Y-112285000D02*
X145525000Y-112605000D01*
G75*
G02*
X145365000Y-112765000I-160000J0D01*
G01*
X144970000Y-112765000D01*
G75*
G02*
X144810000Y-112605000I0J160000D01*
G01*
X144810000Y-112285000D01*
G75*
G02*
X144970000Y-112125000I160000J0D01*
G01*
X145365000Y-112125000D01*
G75*
G02*
X145525000Y-112285000I0J-160000D01*
G01*
G37*
G36*
G01*
X139110000Y-113910000D02*
X139110000Y-114230000D01*
G75*
G02*
X138950000Y-114390000I-160000J0D01*
G01*
X138555000Y-114390000D01*
G75*
G02*
X138395000Y-114230000I0J160000D01*
G01*
X138395000Y-113910000D01*
G75*
G02*
X138555000Y-113750000I160000J0D01*
G01*
X138950000Y-113750000D01*
G75*
G02*
X139110000Y-113910000I0J-160000D01*
G01*
G37*
G36*
G01*
X140305000Y-113910000D02*
X140305000Y-114230000D01*
G75*
G02*
X140145000Y-114390000I-160000J0D01*
G01*
X139750000Y-114390000D01*
G75*
G02*
X139590000Y-114230000I0J160000D01*
G01*
X139590000Y-113910000D01*
G75*
G02*
X139750000Y-113750000I160000J0D01*
G01*
X140145000Y-113750000D01*
G75*
G02*
X140305000Y-113910000I0J-160000D01*
G01*
G37*
G36*
G01*
X139580000Y-118960000D02*
X139580000Y-119280000D01*
G75*
G02*
X139420000Y-119440000I-160000J0D01*
G01*
X139025000Y-119440000D01*
G75*
G02*
X138865000Y-119280000I0J160000D01*
G01*
X138865000Y-118960000D01*
G75*
G02*
X139025000Y-118800000I160000J0D01*
G01*
X139420000Y-118800000D01*
G75*
G02*
X139580000Y-118960000I0J-160000D01*
G01*
G37*
G36*
G01*
X140775000Y-118960000D02*
X140775000Y-119280000D01*
G75*
G02*
X140615000Y-119440000I-160000J0D01*
G01*
X140220000Y-119440000D01*
G75*
G02*
X140060000Y-119280000I0J160000D01*
G01*
X140060000Y-118960000D01*
G75*
G02*
X140220000Y-118800000I160000J0D01*
G01*
X140615000Y-118800000D01*
G75*
G02*
X140775000Y-118960000I0J-160000D01*
G01*
G37*
G36*
G01*
X164660000Y-93780000D02*
X164660000Y-93460000D01*
G75*
G02*
X164820000Y-93300000I160000J0D01*
G01*
X165215000Y-93300000D01*
G75*
G02*
X165375000Y-93460000I0J-160000D01*
G01*
X165375000Y-93780000D01*
G75*
G02*
X165215000Y-93940000I-160000J0D01*
G01*
X164820000Y-93940000D01*
G75*
G02*
X164660000Y-93780000I0J160000D01*
G01*
G37*
G36*
G01*
X163465000Y-93780000D02*
X163465000Y-93460000D01*
G75*
G02*
X163625000Y-93300000I160000J0D01*
G01*
X164020000Y-93300000D01*
G75*
G02*
X164180000Y-93460000I0J-160000D01*
G01*
X164180000Y-93780000D01*
G75*
G02*
X164020000Y-93940000I-160000J0D01*
G01*
X163625000Y-93940000D01*
G75*
G02*
X163465000Y-93780000I0J160000D01*
G01*
G37*
G36*
G01*
X164442500Y-99210000D02*
X164442500Y-99530000D01*
G75*
G02*
X164282500Y-99690000I-160000J0D01*
G01*
X163887500Y-99690000D01*
G75*
G02*
X163727500Y-99530000I0J160000D01*
G01*
X163727500Y-99210000D01*
G75*
G02*
X163887500Y-99050000I160000J0D01*
G01*
X164282500Y-99050000D01*
G75*
G02*
X164442500Y-99210000I0J-160000D01*
G01*
G37*
G36*
G01*
X165637500Y-99210000D02*
X165637500Y-99530000D01*
G75*
G02*
X165477500Y-99690000I-160000J0D01*
G01*
X165082500Y-99690000D01*
G75*
G02*
X164922500Y-99530000I0J160000D01*
G01*
X164922500Y-99210000D01*
G75*
G02*
X165082500Y-99050000I160000J0D01*
G01*
X165477500Y-99050000D01*
G75*
G02*
X165637500Y-99210000I0J-160000D01*
G01*
G37*
G36*
G01*
X154915000Y-92365000D02*
X155235000Y-92365000D01*
G75*
G02*
X155395000Y-92525000I0J-160000D01*
G01*
X155395000Y-92920000D01*
G75*
G02*
X155235000Y-93080000I-160000J0D01*
G01*
X154915000Y-93080000D01*
G75*
G02*
X154755000Y-92920000I0J160000D01*
G01*
X154755000Y-92525000D01*
G75*
G02*
X154915000Y-92365000I160000J0D01*
G01*
G37*
G36*
G01*
X154915000Y-91170000D02*
X155235000Y-91170000D01*
G75*
G02*
X155395000Y-91330000I0J-160000D01*
G01*
X155395000Y-91725000D01*
G75*
G02*
X155235000Y-91885000I-160000J0D01*
G01*
X154915000Y-91885000D01*
G75*
G02*
X154755000Y-91725000I0J160000D01*
G01*
X154755000Y-91330000D01*
G75*
G02*
X154915000Y-91170000I160000J0D01*
G01*
G37*
G36*
G01*
X97260000Y-97220000D02*
X97260000Y-97540000D01*
G75*
G02*
X97100000Y-97700000I-160000J0D01*
G01*
X96705000Y-97700000D01*
G75*
G02*
X96545000Y-97540000I0J160000D01*
G01*
X96545000Y-97220000D01*
G75*
G02*
X96705000Y-97060000I160000J0D01*
G01*
X97100000Y-97060000D01*
G75*
G02*
X97260000Y-97220000I0J-160000D01*
G01*
G37*
G36*
G01*
X98455000Y-97220000D02*
X98455000Y-97540000D01*
G75*
G02*
X98295000Y-97700000I-160000J0D01*
G01*
X97900000Y-97700000D01*
G75*
G02*
X97740000Y-97540000I0J160000D01*
G01*
X97740000Y-97220000D01*
G75*
G02*
X97900000Y-97060000I160000J0D01*
G01*
X98295000Y-97060000D01*
G75*
G02*
X98455000Y-97220000I0J-160000D01*
G01*
G37*
G36*
G01*
X97740000Y-96340000D02*
X97740000Y-96020000D01*
G75*
G02*
X97900000Y-95860000I160000J0D01*
G01*
X98295000Y-95860000D01*
G75*
G02*
X98455000Y-96020000I0J-160000D01*
G01*
X98455000Y-96340000D01*
G75*
G02*
X98295000Y-96500000I-160000J0D01*
G01*
X97900000Y-96500000D01*
G75*
G02*
X97740000Y-96340000I0J160000D01*
G01*
G37*
G36*
G01*
X96545000Y-96340000D02*
X96545000Y-96020000D01*
G75*
G02*
X96705000Y-95860000I160000J0D01*
G01*
X97100000Y-95860000D01*
G75*
G02*
X97260000Y-96020000I0J-160000D01*
G01*
X97260000Y-96340000D01*
G75*
G02*
X97100000Y-96500000I-160000J0D01*
G01*
X96705000Y-96500000D01*
G75*
G02*
X96545000Y-96340000I0J160000D01*
G01*
G37*
G36*
G01*
X93097500Y-128920000D02*
X93097500Y-129240000D01*
G75*
G02*
X92937500Y-129400000I-160000J0D01*
G01*
X92542500Y-129400000D01*
G75*
G02*
X92382500Y-129240000I0J160000D01*
G01*
X92382500Y-128920000D01*
G75*
G02*
X92542500Y-128760000I160000J0D01*
G01*
X92937500Y-128760000D01*
G75*
G02*
X93097500Y-128920000I0J-160000D01*
G01*
G37*
G36*
G01*
X94292500Y-128920000D02*
X94292500Y-129240000D01*
G75*
G02*
X94132500Y-129400000I-160000J0D01*
G01*
X93737500Y-129400000D01*
G75*
G02*
X93577500Y-129240000I0J160000D01*
G01*
X93577500Y-128920000D01*
G75*
G02*
X93737500Y-128760000I160000J0D01*
G01*
X94132500Y-128760000D01*
G75*
G02*
X94292500Y-128920000I0J-160000D01*
G01*
G37*
G36*
G01*
X193332500Y-52695000D02*
X193807500Y-52695000D01*
G75*
G02*
X194045000Y-52932500I0J-237500D01*
G01*
X194045000Y-53432500D01*
G75*
G02*
X193807500Y-53670000I-237500J0D01*
G01*
X193332500Y-53670000D01*
G75*
G02*
X193095000Y-53432500I0J237500D01*
G01*
X193095000Y-52932500D01*
G75*
G02*
X193332500Y-52695000I237500J0D01*
G01*
G37*
G36*
G01*
X193332500Y-50870000D02*
X193807500Y-50870000D01*
G75*
G02*
X194045000Y-51107500I0J-237500D01*
G01*
X194045000Y-51607500D01*
G75*
G02*
X193807500Y-51845000I-237500J0D01*
G01*
X193332500Y-51845000D01*
G75*
G02*
X193095000Y-51607500I0J237500D01*
G01*
X193095000Y-51107500D01*
G75*
G02*
X193332500Y-50870000I237500J0D01*
G01*
G37*
G36*
G01*
X138680000Y-97190000D02*
X139000000Y-97190000D01*
G75*
G02*
X139160000Y-97350000I0J-160000D01*
G01*
X139160000Y-97745000D01*
G75*
G02*
X139000000Y-97905000I-160000J0D01*
G01*
X138680000Y-97905000D01*
G75*
G02*
X138520000Y-97745000I0J160000D01*
G01*
X138520000Y-97350000D01*
G75*
G02*
X138680000Y-97190000I160000J0D01*
G01*
G37*
G36*
G01*
X138680000Y-95995000D02*
X139000000Y-95995000D01*
G75*
G02*
X139160000Y-96155000I0J-160000D01*
G01*
X139160000Y-96550000D01*
G75*
G02*
X139000000Y-96710000I-160000J0D01*
G01*
X138680000Y-96710000D01*
G75*
G02*
X138520000Y-96550000I0J160000D01*
G01*
X138520000Y-96155000D01*
G75*
G02*
X138680000Y-95995000I160000J0D01*
G01*
G37*
G36*
G01*
X139000000Y-99407500D02*
X138680000Y-99407500D01*
G75*
G02*
X138520000Y-99247500I0J160000D01*
G01*
X138520000Y-98852500D01*
G75*
G02*
X138680000Y-98692500I160000J0D01*
G01*
X139000000Y-98692500D01*
G75*
G02*
X139160000Y-98852500I0J-160000D01*
G01*
X139160000Y-99247500D01*
G75*
G02*
X139000000Y-99407500I-160000J0D01*
G01*
G37*
G36*
G01*
X139000000Y-100602500D02*
X138680000Y-100602500D01*
G75*
G02*
X138520000Y-100442500I0J160000D01*
G01*
X138520000Y-100047500D01*
G75*
G02*
X138680000Y-99887500I160000J0D01*
G01*
X139000000Y-99887500D01*
G75*
G02*
X139160000Y-100047500I0J-160000D01*
G01*
X139160000Y-100442500D01*
G75*
G02*
X139000000Y-100602500I-160000J0D01*
G01*
G37*
G36*
G01*
X204890000Y-124067500D02*
X204890000Y-124542500D01*
G75*
G02*
X204652500Y-124780000I-237500J0D01*
G01*
X204152500Y-124780000D01*
G75*
G02*
X203915000Y-124542500I0J237500D01*
G01*
X203915000Y-124067500D01*
G75*
G02*
X204152500Y-123830000I237500J0D01*
G01*
X204652500Y-123830000D01*
G75*
G02*
X204890000Y-124067500I0J-237500D01*
G01*
G37*
G36*
G01*
X206715000Y-124067500D02*
X206715000Y-124542500D01*
G75*
G02*
X206477500Y-124780000I-237500J0D01*
G01*
X205977500Y-124780000D01*
G75*
G02*
X205740000Y-124542500I0J237500D01*
G01*
X205740000Y-124067500D01*
G75*
G02*
X205977500Y-123830000I237500J0D01*
G01*
X206477500Y-123830000D01*
G75*
G02*
X206715000Y-124067500I0J-237500D01*
G01*
G37*
G36*
G01*
X137730000Y-103650000D02*
X137730000Y-103330000D01*
G75*
G02*
X137890000Y-103170000I160000J0D01*
G01*
X138285000Y-103170000D01*
G75*
G02*
X138445000Y-103330000I0J-160000D01*
G01*
X138445000Y-103650000D01*
G75*
G02*
X138285000Y-103810000I-160000J0D01*
G01*
X137890000Y-103810000D01*
G75*
G02*
X137730000Y-103650000I0J160000D01*
G01*
G37*
G36*
G01*
X136535000Y-103650000D02*
X136535000Y-103330000D01*
G75*
G02*
X136695000Y-103170000I160000J0D01*
G01*
X137090000Y-103170000D01*
G75*
G02*
X137250000Y-103330000I0J-160000D01*
G01*
X137250000Y-103650000D01*
G75*
G02*
X137090000Y-103810000I-160000J0D01*
G01*
X136695000Y-103810000D01*
G75*
G02*
X136535000Y-103650000I0J160000D01*
G01*
G37*
G36*
G01*
X153352500Y-96025000D02*
X153827500Y-96025000D01*
G75*
G02*
X154065000Y-96262500I0J-237500D01*
G01*
X154065000Y-96762500D01*
G75*
G02*
X153827500Y-97000000I-237500J0D01*
G01*
X153352500Y-97000000D01*
G75*
G02*
X153115000Y-96762500I0J237500D01*
G01*
X153115000Y-96262500D01*
G75*
G02*
X153352500Y-96025000I237500J0D01*
G01*
G37*
G36*
G01*
X153352500Y-94200000D02*
X153827500Y-94200000D01*
G75*
G02*
X154065000Y-94437500I0J-237500D01*
G01*
X154065000Y-94937500D01*
G75*
G02*
X153827500Y-95175000I-237500J0D01*
G01*
X153352500Y-95175000D01*
G75*
G02*
X153115000Y-94937500I0J237500D01*
G01*
X153115000Y-94437500D01*
G75*
G02*
X153352500Y-94200000I237500J0D01*
G01*
G37*
G36*
G01*
X153352500Y-99712500D02*
X153827500Y-99712500D01*
G75*
G02*
X154065000Y-99950000I0J-237500D01*
G01*
X154065000Y-100450000D01*
G75*
G02*
X153827500Y-100687500I-237500J0D01*
G01*
X153352500Y-100687500D01*
G75*
G02*
X153115000Y-100450000I0J237500D01*
G01*
X153115000Y-99950000D01*
G75*
G02*
X153352500Y-99712500I237500J0D01*
G01*
G37*
G36*
G01*
X153352500Y-97887500D02*
X153827500Y-97887500D01*
G75*
G02*
X154065000Y-98125000I0J-237500D01*
G01*
X154065000Y-98625000D01*
G75*
G02*
X153827500Y-98862500I-237500J0D01*
G01*
X153352500Y-98862500D01*
G75*
G02*
X153115000Y-98625000I0J237500D01*
G01*
X153115000Y-98125000D01*
G75*
G02*
X153352500Y-97887500I237500J0D01*
G01*
G37*
D15*
X143990000Y-115610000D03*
X144940000Y-117610000D03*
X143040000Y-117610000D03*
X144420000Y-108920000D03*
X145370000Y-110920000D03*
X143470000Y-110920000D03*
X139990000Y-115490000D03*
X140940000Y-117490000D03*
X139040000Y-117490000D03*
G36*
G01*
X191432500Y-52620000D02*
X191907500Y-52620000D01*
G75*
G02*
X192145000Y-52857500I0J-237500D01*
G01*
X192145000Y-53432500D01*
G75*
G02*
X191907500Y-53670000I-237500J0D01*
G01*
X191432500Y-53670000D01*
G75*
G02*
X191195000Y-53432500I0J237500D01*
G01*
X191195000Y-52857500D01*
G75*
G02*
X191432500Y-52620000I237500J0D01*
G01*
G37*
G36*
G01*
X191432500Y-50870000D02*
X191907500Y-50870000D01*
G75*
G02*
X192145000Y-51107500I0J-237500D01*
G01*
X192145000Y-51682500D01*
G75*
G02*
X191907500Y-51920000I-237500J0D01*
G01*
X191432500Y-51920000D01*
G75*
G02*
X191195000Y-51682500I0J237500D01*
G01*
X191195000Y-51107500D01*
G75*
G02*
X191432500Y-50870000I237500J0D01*
G01*
G37*
G36*
G01*
X204940000Y-125867500D02*
X204940000Y-126342500D01*
G75*
G02*
X204702500Y-126580000I-237500J0D01*
G01*
X204127500Y-126580000D01*
G75*
G02*
X203890000Y-126342500I0J237500D01*
G01*
X203890000Y-125867500D01*
G75*
G02*
X204127500Y-125630000I237500J0D01*
G01*
X204702500Y-125630000D01*
G75*
G02*
X204940000Y-125867500I0J-237500D01*
G01*
G37*
G36*
G01*
X206690000Y-125867500D02*
X206690000Y-126342500D01*
G75*
G02*
X206452500Y-126580000I-237500J0D01*
G01*
X205877500Y-126580000D01*
G75*
G02*
X205640000Y-126342500I0J237500D01*
G01*
X205640000Y-125867500D01*
G75*
G02*
X205877500Y-125630000I237500J0D01*
G01*
X206452500Y-125630000D01*
G75*
G02*
X206690000Y-125867500I0J-237500D01*
G01*
G37*
G36*
G01*
X167295000Y-96430000D02*
X167605000Y-96430000D01*
G75*
G02*
X167760000Y-96585000I0J-155000D01*
G01*
X167760000Y-97010000D01*
G75*
G02*
X167605000Y-97165000I-155000J0D01*
G01*
X167295000Y-97165000D01*
G75*
G02*
X167140000Y-97010000I0J155000D01*
G01*
X167140000Y-96585000D01*
G75*
G02*
X167295000Y-96430000I155000J0D01*
G01*
G37*
G36*
G01*
X167295000Y-95295000D02*
X167605000Y-95295000D01*
G75*
G02*
X167760000Y-95450000I0J-155000D01*
G01*
X167760000Y-95875000D01*
G75*
G02*
X167605000Y-96030000I-155000J0D01*
G01*
X167295000Y-96030000D01*
G75*
G02*
X167140000Y-95875000I0J155000D01*
G01*
X167140000Y-95450000D01*
G75*
G02*
X167295000Y-95295000I155000J0D01*
G01*
G37*
G36*
G01*
X140155000Y-71772500D02*
X139845000Y-71772500D01*
G75*
G02*
X139690000Y-71617500I0J155000D01*
G01*
X139690000Y-71192500D01*
G75*
G02*
X139845000Y-71037500I155000J0D01*
G01*
X140155000Y-71037500D01*
G75*
G02*
X140310000Y-71192500I0J-155000D01*
G01*
X140310000Y-71617500D01*
G75*
G02*
X140155000Y-71772500I-155000J0D01*
G01*
G37*
G36*
G01*
X140155000Y-72907500D02*
X139845000Y-72907500D01*
G75*
G02*
X139690000Y-72752500I0J155000D01*
G01*
X139690000Y-72327500D01*
G75*
G02*
X139845000Y-72172500I155000J0D01*
G01*
X140155000Y-72172500D01*
G75*
G02*
X140310000Y-72327500I0J-155000D01*
G01*
X140310000Y-72752500D01*
G75*
G02*
X140155000Y-72907500I-155000J0D01*
G01*
G37*
G36*
G01*
X138775000Y-72280000D02*
X137825000Y-72280000D01*
G75*
G02*
X137575000Y-72030000I0J250000D01*
G01*
X137575000Y-71355000D01*
G75*
G02*
X137825000Y-71105000I250000J0D01*
G01*
X138775000Y-71105000D01*
G75*
G02*
X139025000Y-71355000I0J-250000D01*
G01*
X139025000Y-72030000D01*
G75*
G02*
X138775000Y-72280000I-250000J0D01*
G01*
G37*
G36*
G01*
X138775000Y-74355000D02*
X137825000Y-74355000D01*
G75*
G02*
X137575000Y-74105000I0J250000D01*
G01*
X137575000Y-73430000D01*
G75*
G02*
X137825000Y-73180000I250000J0D01*
G01*
X138775000Y-73180000D01*
G75*
G02*
X139025000Y-73430000I0J-250000D01*
G01*
X139025000Y-74105000D01*
G75*
G02*
X138775000Y-74355000I-250000J0D01*
G01*
G37*
G36*
G01*
X95230000Y-97505000D02*
X95230000Y-97195000D01*
G75*
G02*
X95385000Y-97040000I155000J0D01*
G01*
X95810000Y-97040000D01*
G75*
G02*
X95965000Y-97195000I0J-155000D01*
G01*
X95965000Y-97505000D01*
G75*
G02*
X95810000Y-97660000I-155000J0D01*
G01*
X95385000Y-97660000D01*
G75*
G02*
X95230000Y-97505000I0J155000D01*
G01*
G37*
G36*
G01*
X94095000Y-97505000D02*
X94095000Y-97195000D01*
G75*
G02*
X94250000Y-97040000I155000J0D01*
G01*
X94675000Y-97040000D01*
G75*
G02*
X94830000Y-97195000I0J-155000D01*
G01*
X94830000Y-97505000D01*
G75*
G02*
X94675000Y-97660000I-155000J0D01*
G01*
X94250000Y-97660000D01*
G75*
G02*
X94095000Y-97505000I0J155000D01*
G01*
G37*
G36*
G01*
X93190000Y-126515000D02*
X93190000Y-126825000D01*
G75*
G02*
X93035000Y-126980000I-155000J0D01*
G01*
X92610000Y-126980000D01*
G75*
G02*
X92455000Y-126825000I0J155000D01*
G01*
X92455000Y-126515000D01*
G75*
G02*
X92610000Y-126360000I155000J0D01*
G01*
X93035000Y-126360000D01*
G75*
G02*
X93190000Y-126515000I0J-155000D01*
G01*
G37*
G36*
G01*
X94325000Y-126515000D02*
X94325000Y-126825000D01*
G75*
G02*
X94170000Y-126980000I-155000J0D01*
G01*
X93745000Y-126980000D01*
G75*
G02*
X93590000Y-126825000I0J155000D01*
G01*
X93590000Y-126515000D01*
G75*
G02*
X93745000Y-126360000I155000J0D01*
G01*
X94170000Y-126360000D01*
G75*
G02*
X94325000Y-126515000I0J-155000D01*
G01*
G37*
G36*
G01*
X91497500Y-95917500D02*
X91022500Y-95917500D01*
G75*
G02*
X90785000Y-95680000I0J237500D01*
G01*
X90785000Y-95080000D01*
G75*
G02*
X91022500Y-94842500I237500J0D01*
G01*
X91497500Y-94842500D01*
G75*
G02*
X91735000Y-95080000I0J-237500D01*
G01*
X91735000Y-95680000D01*
G75*
G02*
X91497500Y-95917500I-237500J0D01*
G01*
G37*
G36*
G01*
X91497500Y-97642500D02*
X91022500Y-97642500D01*
G75*
G02*
X90785000Y-97405000I0J237500D01*
G01*
X90785000Y-96805000D01*
G75*
G02*
X91022500Y-96567500I237500J0D01*
G01*
X91497500Y-96567500D01*
G75*
G02*
X91735000Y-96805000I0J-237500D01*
G01*
X91735000Y-97405000D01*
G75*
G02*
X91497500Y-97642500I-237500J0D01*
G01*
G37*
G36*
G01*
X93070000Y-131335000D02*
X93070000Y-130385000D01*
G75*
G02*
X93320000Y-130135000I250000J0D01*
G01*
X93995000Y-130135000D01*
G75*
G02*
X94245000Y-130385000I0J-250000D01*
G01*
X94245000Y-131335000D01*
G75*
G02*
X93995000Y-131585000I-250000J0D01*
G01*
X93320000Y-131585000D01*
G75*
G02*
X93070000Y-131335000I0J250000D01*
G01*
G37*
G36*
G01*
X90995000Y-131335000D02*
X90995000Y-130385000D01*
G75*
G02*
X91245000Y-130135000I250000J0D01*
G01*
X91920000Y-130135000D01*
G75*
G02*
X92170000Y-130385000I0J-250000D01*
G01*
X92170000Y-131335000D01*
G75*
G02*
X91920000Y-131585000I-250000J0D01*
G01*
X91245000Y-131585000D01*
G75*
G02*
X90995000Y-131335000I0J250000D01*
G01*
G37*
G36*
G01*
X98130000Y-93495000D02*
X98130000Y-93805000D01*
G75*
G02*
X97975000Y-93960000I-155000J0D01*
G01*
X97550000Y-93960000D01*
G75*
G02*
X97395000Y-93805000I0J155000D01*
G01*
X97395000Y-93495000D01*
G75*
G02*
X97550000Y-93340000I155000J0D01*
G01*
X97975000Y-93340000D01*
G75*
G02*
X98130000Y-93495000I0J-155000D01*
G01*
G37*
G36*
G01*
X99265000Y-93495000D02*
X99265000Y-93805000D01*
G75*
G02*
X99110000Y-93960000I-155000J0D01*
G01*
X98685000Y-93960000D01*
G75*
G02*
X98530000Y-93805000I0J155000D01*
G01*
X98530000Y-93495000D01*
G75*
G02*
X98685000Y-93340000I155000J0D01*
G01*
X99110000Y-93340000D01*
G75*
G02*
X99265000Y-93495000I0J-155000D01*
G01*
G37*
G36*
G01*
X94932500Y-93515000D02*
X94932500Y-93825000D01*
G75*
G02*
X94777500Y-93980000I-155000J0D01*
G01*
X94352500Y-93980000D01*
G75*
G02*
X94197500Y-93825000I0J155000D01*
G01*
X94197500Y-93515000D01*
G75*
G02*
X94352500Y-93360000I155000J0D01*
G01*
X94777500Y-93360000D01*
G75*
G02*
X94932500Y-93515000I0J-155000D01*
G01*
G37*
G36*
G01*
X96067500Y-93515000D02*
X96067500Y-93825000D01*
G75*
G02*
X95912500Y-93980000I-155000J0D01*
G01*
X95487500Y-93980000D01*
G75*
G02*
X95332500Y-93825000I0J155000D01*
G01*
X95332500Y-93515000D01*
G75*
G02*
X95487500Y-93360000I155000J0D01*
G01*
X95912500Y-93360000D01*
G75*
G02*
X96067500Y-93515000I0J-155000D01*
G01*
G37*
G36*
G01*
X91825000Y-93830000D02*
X91825000Y-93520000D01*
G75*
G02*
X91980000Y-93365000I155000J0D01*
G01*
X92405000Y-93365000D01*
G75*
G02*
X92560000Y-93520000I0J-155000D01*
G01*
X92560000Y-93830000D01*
G75*
G02*
X92405000Y-93985000I-155000J0D01*
G01*
X91980000Y-93985000D01*
G75*
G02*
X91825000Y-93830000I0J155000D01*
G01*
G37*
G36*
G01*
X90690000Y-93830000D02*
X90690000Y-93520000D01*
G75*
G02*
X90845000Y-93365000I155000J0D01*
G01*
X91270000Y-93365000D01*
G75*
G02*
X91425000Y-93520000I0J-155000D01*
G01*
X91425000Y-93830000D01*
G75*
G02*
X91270000Y-93985000I-155000J0D01*
G01*
X90845000Y-93985000D01*
G75*
G02*
X90690000Y-93830000I0J155000D01*
G01*
G37*
G36*
G01*
X93170000Y-127745000D02*
X93170000Y-128055000D01*
G75*
G02*
X93015000Y-128210000I-155000J0D01*
G01*
X92590000Y-128210000D01*
G75*
G02*
X92435000Y-128055000I0J155000D01*
G01*
X92435000Y-127745000D01*
G75*
G02*
X92590000Y-127590000I155000J0D01*
G01*
X93015000Y-127590000D01*
G75*
G02*
X93170000Y-127745000I0J-155000D01*
G01*
G37*
G36*
G01*
X94305000Y-127745000D02*
X94305000Y-128055000D01*
G75*
G02*
X94150000Y-128210000I-155000J0D01*
G01*
X93725000Y-128210000D01*
G75*
G02*
X93570000Y-128055000I0J155000D01*
G01*
X93570000Y-127745000D01*
G75*
G02*
X93725000Y-127590000I155000J0D01*
G01*
X94150000Y-127590000D01*
G75*
G02*
X94305000Y-127745000I0J-155000D01*
G01*
G37*
G36*
G01*
X95220000Y-96325000D02*
X95220000Y-96015000D01*
G75*
G02*
X95375000Y-95860000I155000J0D01*
G01*
X95800000Y-95860000D01*
G75*
G02*
X95955000Y-96015000I0J-155000D01*
G01*
X95955000Y-96325000D01*
G75*
G02*
X95800000Y-96480000I-155000J0D01*
G01*
X95375000Y-96480000D01*
G75*
G02*
X95220000Y-96325000I0J155000D01*
G01*
G37*
G36*
G01*
X94085000Y-96325000D02*
X94085000Y-96015000D01*
G75*
G02*
X94240000Y-95860000I155000J0D01*
G01*
X94665000Y-95860000D01*
G75*
G02*
X94820000Y-96015000I0J-155000D01*
G01*
X94820000Y-96325000D01*
G75*
G02*
X94665000Y-96480000I-155000J0D01*
G01*
X94240000Y-96480000D01*
G75*
G02*
X94085000Y-96325000I0J155000D01*
G01*
G37*
G36*
G01*
X182175000Y-60254999D02*
X182175000Y-62105001D01*
G75*
G02*
X181925001Y-62355000I-249999J0D01*
G01*
X180174999Y-62355000D01*
G75*
G02*
X179925000Y-62105001I0J249999D01*
G01*
X179925000Y-60254999D01*
G75*
G02*
X180174999Y-60005000I249999J0D01*
G01*
X181925001Y-60005000D01*
G75*
G02*
X182175000Y-60254999I0J-249999D01*
G01*
G37*
G36*
G01*
X187275000Y-60254999D02*
X187275000Y-62105001D01*
G75*
G02*
X187025001Y-62355000I-249999J0D01*
G01*
X185274999Y-62355000D01*
G75*
G02*
X185025000Y-62105001I0J249999D01*
G01*
X185025000Y-60254999D01*
G75*
G02*
X185274999Y-60005000I249999J0D01*
G01*
X187025001Y-60005000D01*
G75*
G02*
X187275000Y-60254999I0J-249999D01*
G01*
G37*
G36*
G01*
X177525000Y-61567500D02*
X178475000Y-61567500D01*
G75*
G02*
X178725000Y-61817500I0J-250000D01*
G01*
X178725000Y-62492500D01*
G75*
G02*
X178475000Y-62742500I-250000J0D01*
G01*
X177525000Y-62742500D01*
G75*
G02*
X177275000Y-62492500I0J250000D01*
G01*
X177275000Y-61817500D01*
G75*
G02*
X177525000Y-61567500I250000J0D01*
G01*
G37*
G36*
G01*
X177525000Y-59492500D02*
X178475000Y-59492500D01*
G75*
G02*
X178725000Y-59742500I0J-250000D01*
G01*
X178725000Y-60417500D01*
G75*
G02*
X178475000Y-60667500I-250000J0D01*
G01*
X177525000Y-60667500D01*
G75*
G02*
X177275000Y-60417500I0J250000D01*
G01*
X177275000Y-59742500D01*
G75*
G02*
X177525000Y-59492500I250000J0D01*
G01*
G37*
D27*
X132840000Y-71720000D03*
X132840000Y-67220000D03*
X124880000Y-67220000D03*
X124880000Y-71720000D03*
X132505000Y-63330000D03*
X132505000Y-58830000D03*
X124545000Y-58830000D03*
X124545000Y-63330000D03*
X132758000Y-79125000D03*
X132758000Y-74625000D03*
X124798000Y-74625000D03*
X124798000Y-79125000D03*
D28*
X180500000Y-56155000D03*
X182200000Y-56155000D03*
X183900000Y-56155000D03*
X185600000Y-56155000D03*
X187300000Y-56155000D03*
D29*
X186675000Y-44580000D03*
X181125000Y-49430000D03*
X181125000Y-44580000D03*
X186675000Y-49430000D03*
D30*
X146145000Y-53800000D03*
X146145000Y-52100000D03*
X146145000Y-50400000D03*
X146145000Y-48700000D03*
X146145000Y-47000000D03*
D31*
X134570000Y-47625000D03*
X139420000Y-53175000D03*
X134570000Y-53175000D03*
X139420000Y-47625000D03*
D30*
X125990000Y-107120000D03*
X125990000Y-105420000D03*
X125990000Y-103720000D03*
X125990000Y-102020000D03*
X125990000Y-100320000D03*
D31*
X114415000Y-100945000D03*
X119265000Y-106495000D03*
X114415000Y-106495000D03*
X119265000Y-100945000D03*
G36*
G01*
X134465000Y-59372500D02*
X134785000Y-59372500D01*
G75*
G02*
X134945000Y-59532500I0J-160000D01*
G01*
X134945000Y-59927500D01*
G75*
G02*
X134785000Y-60087500I-160000J0D01*
G01*
X134465000Y-60087500D01*
G75*
G02*
X134305000Y-59927500I0J160000D01*
G01*
X134305000Y-59532500D01*
G75*
G02*
X134465000Y-59372500I160000J0D01*
G01*
G37*
G36*
G01*
X134465000Y-58177500D02*
X134785000Y-58177500D01*
G75*
G02*
X134945000Y-58337500I0J-160000D01*
G01*
X134945000Y-58732500D01*
G75*
G02*
X134785000Y-58892500I-160000J0D01*
G01*
X134465000Y-58892500D01*
G75*
G02*
X134305000Y-58732500I0J160000D01*
G01*
X134305000Y-58337500D01*
G75*
G02*
X134465000Y-58177500I160000J0D01*
G01*
G37*
G36*
G01*
X134500000Y-67915000D02*
X134820000Y-67915000D01*
G75*
G02*
X134980000Y-68075000I0J-160000D01*
G01*
X134980000Y-68470000D01*
G75*
G02*
X134820000Y-68630000I-160000J0D01*
G01*
X134500000Y-68630000D01*
G75*
G02*
X134340000Y-68470000I0J160000D01*
G01*
X134340000Y-68075000D01*
G75*
G02*
X134500000Y-67915000I160000J0D01*
G01*
G37*
G36*
G01*
X134500000Y-66720000D02*
X134820000Y-66720000D01*
G75*
G02*
X134980000Y-66880000I0J-160000D01*
G01*
X134980000Y-67275000D01*
G75*
G02*
X134820000Y-67435000I-160000J0D01*
G01*
X134500000Y-67435000D01*
G75*
G02*
X134340000Y-67275000I0J160000D01*
G01*
X134340000Y-66880000D01*
G75*
G02*
X134500000Y-66720000I160000J0D01*
G01*
G37*
G36*
G01*
X134915000Y-75895000D02*
X135235000Y-75895000D01*
G75*
G02*
X135395000Y-76055000I0J-160000D01*
G01*
X135395000Y-76450000D01*
G75*
G02*
X135235000Y-76610000I-160000J0D01*
G01*
X134915000Y-76610000D01*
G75*
G02*
X134755000Y-76450000I0J160000D01*
G01*
X134755000Y-76055000D01*
G75*
G02*
X134915000Y-75895000I160000J0D01*
G01*
G37*
G36*
G01*
X134915000Y-74700000D02*
X135235000Y-74700000D01*
G75*
G02*
X135395000Y-74860000I0J-160000D01*
G01*
X135395000Y-75255000D01*
G75*
G02*
X135235000Y-75415000I-160000J0D01*
G01*
X134915000Y-75415000D01*
G75*
G02*
X134755000Y-75255000I0J160000D01*
G01*
X134755000Y-74860000D01*
G75*
G02*
X134915000Y-74700000I160000J0D01*
G01*
G37*
G36*
G01*
X151495000Y-43837500D02*
X151495000Y-43362500D01*
G75*
G02*
X151732500Y-43125000I237500J0D01*
G01*
X152232500Y-43125000D01*
G75*
G02*
X152470000Y-43362500I0J-237500D01*
G01*
X152470000Y-43837500D01*
G75*
G02*
X152232500Y-44075000I-237500J0D01*
G01*
X151732500Y-44075000D01*
G75*
G02*
X151495000Y-43837500I0J237500D01*
G01*
G37*
G36*
G01*
X149670000Y-43837500D02*
X149670000Y-43362500D01*
G75*
G02*
X149907500Y-43125000I237500J0D01*
G01*
X150407500Y-43125000D01*
G75*
G02*
X150645000Y-43362500I0J-237500D01*
G01*
X150645000Y-43837500D01*
G75*
G02*
X150407500Y-44075000I-237500J0D01*
G01*
X149907500Y-44075000D01*
G75*
G02*
X149670000Y-43837500I0J237500D01*
G01*
G37*
G36*
G01*
X120425000Y-93747500D02*
X120425000Y-93272500D01*
G75*
G02*
X120662500Y-93035000I237500J0D01*
G01*
X121162500Y-93035000D01*
G75*
G02*
X121400000Y-93272500I0J-237500D01*
G01*
X121400000Y-93747500D01*
G75*
G02*
X121162500Y-93985000I-237500J0D01*
G01*
X120662500Y-93985000D01*
G75*
G02*
X120425000Y-93747500I0J237500D01*
G01*
G37*
G36*
G01*
X118600000Y-93747500D02*
X118600000Y-93272500D01*
G75*
G02*
X118837500Y-93035000I237500J0D01*
G01*
X119337500Y-93035000D01*
G75*
G02*
X119575000Y-93272500I0J-237500D01*
G01*
X119575000Y-93747500D01*
G75*
G02*
X119337500Y-93985000I-237500J0D01*
G01*
X118837500Y-93985000D01*
G75*
G02*
X118600000Y-93747500I0J237500D01*
G01*
G37*
G36*
G01*
X144727500Y-43340000D02*
X144727500Y-43660000D01*
G75*
G02*
X144567500Y-43820000I-160000J0D01*
G01*
X144172500Y-43820000D01*
G75*
G02*
X144012500Y-43660000I0J160000D01*
G01*
X144012500Y-43340000D01*
G75*
G02*
X144172500Y-43180000I160000J0D01*
G01*
X144567500Y-43180000D01*
G75*
G02*
X144727500Y-43340000I0J-160000D01*
G01*
G37*
G36*
G01*
X145922500Y-43340000D02*
X145922500Y-43660000D01*
G75*
G02*
X145762500Y-43820000I-160000J0D01*
G01*
X145367500Y-43820000D01*
G75*
G02*
X145207500Y-43660000I0J160000D01*
G01*
X145207500Y-43340000D01*
G75*
G02*
X145367500Y-43180000I160000J0D01*
G01*
X145762500Y-43180000D01*
G75*
G02*
X145922500Y-43340000I0J-160000D01*
G01*
G37*
G36*
G01*
X147232500Y-43340000D02*
X147232500Y-43660000D01*
G75*
G02*
X147072500Y-43820000I-160000J0D01*
G01*
X146677500Y-43820000D01*
G75*
G02*
X146517500Y-43660000I0J160000D01*
G01*
X146517500Y-43340000D01*
G75*
G02*
X146677500Y-43180000I160000J0D01*
G01*
X147072500Y-43180000D01*
G75*
G02*
X147232500Y-43340000I0J-160000D01*
G01*
G37*
G36*
G01*
X148427500Y-43340000D02*
X148427500Y-43660000D01*
G75*
G02*
X148267500Y-43820000I-160000J0D01*
G01*
X147872500Y-43820000D01*
G75*
G02*
X147712500Y-43660000I0J160000D01*
G01*
X147712500Y-43340000D01*
G75*
G02*
X147872500Y-43180000I160000J0D01*
G01*
X148267500Y-43180000D01*
G75*
G02*
X148427500Y-43340000I0J-160000D01*
G01*
G37*
G36*
G01*
X119707500Y-96832500D02*
X119707500Y-97307500D01*
G75*
G02*
X119470000Y-97545000I-237500J0D01*
G01*
X118970000Y-97545000D01*
G75*
G02*
X118732500Y-97307500I0J237500D01*
G01*
X118732500Y-96832500D01*
G75*
G02*
X118970000Y-96595000I237500J0D01*
G01*
X119470000Y-96595000D01*
G75*
G02*
X119707500Y-96832500I0J-237500D01*
G01*
G37*
G36*
G01*
X121532500Y-96832500D02*
X121532500Y-97307500D01*
G75*
G02*
X121295000Y-97545000I-237500J0D01*
G01*
X120795000Y-97545000D01*
G75*
G02*
X120557500Y-97307500I0J237500D01*
G01*
X120557500Y-96832500D01*
G75*
G02*
X120795000Y-96595000I237500J0D01*
G01*
X121295000Y-96595000D01*
G75*
G02*
X121532500Y-96832500I0J-237500D01*
G01*
G37*
G36*
G01*
X129960000Y-98590000D02*
X129960000Y-98910000D01*
G75*
G02*
X129800000Y-99070000I-160000J0D01*
G01*
X129405000Y-99070000D01*
G75*
G02*
X129245000Y-98910000I0J160000D01*
G01*
X129245000Y-98590000D01*
G75*
G02*
X129405000Y-98430000I160000J0D01*
G01*
X129800000Y-98430000D01*
G75*
G02*
X129960000Y-98590000I0J-160000D01*
G01*
G37*
G36*
G01*
X131155000Y-98590000D02*
X131155000Y-98910000D01*
G75*
G02*
X130995000Y-99070000I-160000J0D01*
G01*
X130600000Y-99070000D01*
G75*
G02*
X130440000Y-98910000I0J160000D01*
G01*
X130440000Y-98590000D01*
G75*
G02*
X130600000Y-98430000I160000J0D01*
G01*
X130995000Y-98430000D01*
G75*
G02*
X131155000Y-98590000I0J-160000D01*
G01*
G37*
G36*
G01*
X147607500Y-56960000D02*
X147607500Y-56640000D01*
G75*
G02*
X147767500Y-56480000I160000J0D01*
G01*
X148162500Y-56480000D01*
G75*
G02*
X148322500Y-56640000I0J-160000D01*
G01*
X148322500Y-56960000D01*
G75*
G02*
X148162500Y-57120000I-160000J0D01*
G01*
X147767500Y-57120000D01*
G75*
G02*
X147607500Y-56960000I0J160000D01*
G01*
G37*
G36*
G01*
X146412500Y-56960000D02*
X146412500Y-56640000D01*
G75*
G02*
X146572500Y-56480000I160000J0D01*
G01*
X146967500Y-56480000D01*
G75*
G02*
X147127500Y-56640000I0J-160000D01*
G01*
X147127500Y-56960000D01*
G75*
G02*
X146967500Y-57120000I-160000J0D01*
G01*
X146572500Y-57120000D01*
G75*
G02*
X146412500Y-56960000I0J160000D01*
G01*
G37*
G36*
G01*
X126487500Y-114180000D02*
X126012500Y-114180000D01*
G75*
G02*
X125775000Y-113942500I0J237500D01*
G01*
X125775000Y-113442500D01*
G75*
G02*
X126012500Y-113205000I237500J0D01*
G01*
X126487500Y-113205000D01*
G75*
G02*
X126725000Y-113442500I0J-237500D01*
G01*
X126725000Y-113942500D01*
G75*
G02*
X126487500Y-114180000I-237500J0D01*
G01*
G37*
G36*
G01*
X126487500Y-116005000D02*
X126012500Y-116005000D01*
G75*
G02*
X125775000Y-115767500I0J237500D01*
G01*
X125775000Y-115267500D01*
G75*
G02*
X126012500Y-115030000I237500J0D01*
G01*
X126487500Y-115030000D01*
G75*
G02*
X126725000Y-115267500I0J-237500D01*
G01*
X126725000Y-115767500D01*
G75*
G02*
X126487500Y-116005000I-237500J0D01*
G01*
G37*
G36*
G01*
X134387500Y-62780000D02*
X134862500Y-62780000D01*
G75*
G02*
X135100000Y-63017500I0J-237500D01*
G01*
X135100000Y-63592500D01*
G75*
G02*
X134862500Y-63830000I-237500J0D01*
G01*
X134387500Y-63830000D01*
G75*
G02*
X134150000Y-63592500I0J237500D01*
G01*
X134150000Y-63017500D01*
G75*
G02*
X134387500Y-62780000I237500J0D01*
G01*
G37*
G36*
G01*
X134387500Y-61030000D02*
X134862500Y-61030000D01*
G75*
G02*
X135100000Y-61267500I0J-237500D01*
G01*
X135100000Y-61842500D01*
G75*
G02*
X134862500Y-62080000I-237500J0D01*
G01*
X134387500Y-62080000D01*
G75*
G02*
X134150000Y-61842500I0J237500D01*
G01*
X134150000Y-61267500D01*
G75*
G02*
X134387500Y-61030000I237500J0D01*
G01*
G37*
G36*
G01*
X134622500Y-71325000D02*
X135097500Y-71325000D01*
G75*
G02*
X135335000Y-71562500I0J-237500D01*
G01*
X135335000Y-72137500D01*
G75*
G02*
X135097500Y-72375000I-237500J0D01*
G01*
X134622500Y-72375000D01*
G75*
G02*
X134385000Y-72137500I0J237500D01*
G01*
X134385000Y-71562500D01*
G75*
G02*
X134622500Y-71325000I237500J0D01*
G01*
G37*
G36*
G01*
X134622500Y-69575000D02*
X135097500Y-69575000D01*
G75*
G02*
X135335000Y-69812500I0J-237500D01*
G01*
X135335000Y-70387500D01*
G75*
G02*
X135097500Y-70625000I-237500J0D01*
G01*
X134622500Y-70625000D01*
G75*
G02*
X134385000Y-70387500I0J237500D01*
G01*
X134385000Y-69812500D01*
G75*
G02*
X134622500Y-69575000I237500J0D01*
G01*
G37*
G36*
G01*
X134937500Y-78980000D02*
X135412500Y-78980000D01*
G75*
G02*
X135650000Y-79217500I0J-237500D01*
G01*
X135650000Y-79792500D01*
G75*
G02*
X135412500Y-80030000I-237500J0D01*
G01*
X134937500Y-80030000D01*
G75*
G02*
X134700000Y-79792500I0J237500D01*
G01*
X134700000Y-79217500D01*
G75*
G02*
X134937500Y-78980000I237500J0D01*
G01*
G37*
G36*
G01*
X134937500Y-77230000D02*
X135412500Y-77230000D01*
G75*
G02*
X135650000Y-77467500I0J-237500D01*
G01*
X135650000Y-78042500D01*
G75*
G02*
X135412500Y-78280000I-237500J0D01*
G01*
X134937500Y-78280000D01*
G75*
G02*
X134700000Y-78042500I0J237500D01*
G01*
X134700000Y-77467500D01*
G75*
G02*
X134937500Y-77230000I237500J0D01*
G01*
G37*
G36*
G01*
X150695000Y-45362500D02*
X150695000Y-45837500D01*
G75*
G02*
X150457500Y-46075000I-237500J0D01*
G01*
X149882500Y-46075000D01*
G75*
G02*
X149645000Y-45837500I0J237500D01*
G01*
X149645000Y-45362500D01*
G75*
G02*
X149882500Y-45125000I237500J0D01*
G01*
X150457500Y-45125000D01*
G75*
G02*
X150695000Y-45362500I0J-237500D01*
G01*
G37*
G36*
G01*
X152445000Y-45362500D02*
X152445000Y-45837500D01*
G75*
G02*
X152207500Y-46075000I-237500J0D01*
G01*
X151632500Y-46075000D01*
G75*
G02*
X151395000Y-45837500I0J237500D01*
G01*
X151395000Y-45362500D01*
G75*
G02*
X151632500Y-45125000I237500J0D01*
G01*
X152207500Y-45125000D01*
G75*
G02*
X152445000Y-45362500I0J-237500D01*
G01*
G37*
G36*
G01*
X120390000Y-95397500D02*
X120390000Y-94922500D01*
G75*
G02*
X120627500Y-94685000I237500J0D01*
G01*
X121202500Y-94685000D01*
G75*
G02*
X121440000Y-94922500I0J-237500D01*
G01*
X121440000Y-95397500D01*
G75*
G02*
X121202500Y-95635000I-237500J0D01*
G01*
X120627500Y-95635000D01*
G75*
G02*
X120390000Y-95397500I0J237500D01*
G01*
G37*
G36*
G01*
X118640000Y-95397500D02*
X118640000Y-94922500D01*
G75*
G02*
X118877500Y-94685000I237500J0D01*
G01*
X119452500Y-94685000D01*
G75*
G02*
X119690000Y-94922500I0J-237500D01*
G01*
X119690000Y-95397500D01*
G75*
G02*
X119452500Y-95635000I-237500J0D01*
G01*
X118877500Y-95635000D01*
G75*
G02*
X118640000Y-95397500I0J237500D01*
G01*
G37*
G36*
G01*
X126012500Y-118555000D02*
X126487500Y-118555000D01*
G75*
G02*
X126725000Y-118792500I0J-237500D01*
G01*
X126725000Y-119367500D01*
G75*
G02*
X126487500Y-119605000I-237500J0D01*
G01*
X126012500Y-119605000D01*
G75*
G02*
X125775000Y-119367500I0J237500D01*
G01*
X125775000Y-118792500D01*
G75*
G02*
X126012500Y-118555000I237500J0D01*
G01*
G37*
G36*
G01*
X126012500Y-116805000D02*
X126487500Y-116805000D01*
G75*
G02*
X126725000Y-117042500I0J-237500D01*
G01*
X126725000Y-117617500D01*
G75*
G02*
X126487500Y-117855000I-237500J0D01*
G01*
X126012500Y-117855000D01*
G75*
G02*
X125775000Y-117617500I0J237500D01*
G01*
X125775000Y-117042500D01*
G75*
G02*
X126012500Y-116805000I237500J0D01*
G01*
G37*
D32*
X210025000Y-130975000D03*
X210025000Y-125575000D03*
G36*
G01*
X135085000Y-105280000D02*
X134135000Y-105280000D01*
G75*
G02*
X133885000Y-105030000I0J250000D01*
G01*
X133885000Y-104355000D01*
G75*
G02*
X134135000Y-104105000I250000J0D01*
G01*
X135085000Y-104105000D01*
G75*
G02*
X135335000Y-104355000I0J-250000D01*
G01*
X135335000Y-105030000D01*
G75*
G02*
X135085000Y-105280000I-250000J0D01*
G01*
G37*
G36*
G01*
X135085000Y-107355000D02*
X134135000Y-107355000D01*
G75*
G02*
X133885000Y-107105000I0J250000D01*
G01*
X133885000Y-106430000D01*
G75*
G02*
X134135000Y-106180000I250000J0D01*
G01*
X135085000Y-106180000D01*
G75*
G02*
X135335000Y-106430000I0J-250000D01*
G01*
X135335000Y-107105000D01*
G75*
G02*
X135085000Y-107355000I-250000J0D01*
G01*
G37*
G36*
G01*
X150144999Y-52225000D02*
X151995001Y-52225000D01*
G75*
G02*
X152245000Y-52474999I0J-249999D01*
G01*
X152245000Y-54225001D01*
G75*
G02*
X151995001Y-54475000I-249999J0D01*
G01*
X150144999Y-54475000D01*
G75*
G02*
X149895000Y-54225001I0J249999D01*
G01*
X149895000Y-52474999D01*
G75*
G02*
X150144999Y-52225000I249999J0D01*
G01*
G37*
G36*
G01*
X150144999Y-47125000D02*
X151995001Y-47125000D01*
G75*
G02*
X152245000Y-47374999I0J-249999D01*
G01*
X152245000Y-49125001D01*
G75*
G02*
X151995001Y-49375000I-249999J0D01*
G01*
X150144999Y-49375000D01*
G75*
G02*
X149895000Y-49125001I0J249999D01*
G01*
X149895000Y-47374999D01*
G75*
G02*
X150144999Y-47125000I249999J0D01*
G01*
G37*
G36*
G01*
X130004999Y-104895000D02*
X131855001Y-104895000D01*
G75*
G02*
X132105000Y-105144999I0J-249999D01*
G01*
X132105000Y-106895001D01*
G75*
G02*
X131855001Y-107145000I-249999J0D01*
G01*
X130004999Y-107145000D01*
G75*
G02*
X129755000Y-106895001I0J249999D01*
G01*
X129755000Y-105144999D01*
G75*
G02*
X130004999Y-104895000I249999J0D01*
G01*
G37*
G36*
G01*
X130004999Y-99795000D02*
X131855001Y-99795000D01*
G75*
G02*
X132105000Y-100044999I0J-249999D01*
G01*
X132105000Y-101795001D01*
G75*
G02*
X131855001Y-102045000I-249999J0D01*
G01*
X130004999Y-102045000D01*
G75*
G02*
X129755000Y-101795001I0J249999D01*
G01*
X129755000Y-100044999D01*
G75*
G02*
X130004999Y-99795000I249999J0D01*
G01*
G37*
G36*
G01*
X151420000Y-56775000D02*
X151420000Y-55825000D01*
G75*
G02*
X151670000Y-55575000I250000J0D01*
G01*
X152345000Y-55575000D01*
G75*
G02*
X152595000Y-55825000I0J-250000D01*
G01*
X152595000Y-56775000D01*
G75*
G02*
X152345000Y-57025000I-250000J0D01*
G01*
X151670000Y-57025000D01*
G75*
G02*
X151420000Y-56775000I0J250000D01*
G01*
G37*
G36*
G01*
X149345000Y-56775000D02*
X149345000Y-55825000D01*
G75*
G02*
X149595000Y-55575000I250000J0D01*
G01*
X150270000Y-55575000D01*
G75*
G02*
X150520000Y-55825000I0J-250000D01*
G01*
X150520000Y-56775000D01*
G75*
G02*
X150270000Y-57025000I-250000J0D01*
G01*
X149595000Y-57025000D01*
G75*
G02*
X149345000Y-56775000I0J250000D01*
G01*
G37*
G36*
G01*
X129360000Y-111760000D02*
X129360000Y-110810000D01*
G75*
G02*
X129610000Y-110560000I250000J0D01*
G01*
X130285000Y-110560000D01*
G75*
G02*
X130535000Y-110810000I0J-250000D01*
G01*
X130535000Y-111760000D01*
G75*
G02*
X130285000Y-112010000I-250000J0D01*
G01*
X129610000Y-112010000D01*
G75*
G02*
X129360000Y-111760000I0J250000D01*
G01*
G37*
G36*
G01*
X127285000Y-111760000D02*
X127285000Y-110810000D01*
G75*
G02*
X127535000Y-110560000I250000J0D01*
G01*
X128210000Y-110560000D01*
G75*
G02*
X128460000Y-110810000I0J-250000D01*
G01*
X128460000Y-111760000D01*
G75*
G02*
X128210000Y-112010000I-250000J0D01*
G01*
X127535000Y-112010000D01*
G75*
G02*
X127285000Y-111760000I0J250000D01*
G01*
G37*
G36*
G01*
X133160000Y-110810000D02*
X133160000Y-111760000D01*
G75*
G02*
X132910000Y-112010000I-250000J0D01*
G01*
X132235000Y-112010000D01*
G75*
G02*
X131985000Y-111760000I0J250000D01*
G01*
X131985000Y-110810000D01*
G75*
G02*
X132235000Y-110560000I250000J0D01*
G01*
X132910000Y-110560000D01*
G75*
G02*
X133160000Y-110810000I0J-250000D01*
G01*
G37*
G36*
G01*
X135235000Y-110810000D02*
X135235000Y-111760000D01*
G75*
G02*
X134985000Y-112010000I-250000J0D01*
G01*
X134310000Y-112010000D01*
G75*
G02*
X134060000Y-111760000I0J250000D01*
G01*
X134060000Y-110810000D01*
G75*
G02*
X134310000Y-110560000I250000J0D01*
G01*
X134985000Y-110560000D01*
G75*
G02*
X135235000Y-110810000I0J-250000D01*
G01*
G37*
G36*
G01*
X186800000Y-136230000D02*
X188800000Y-136230000D01*
G75*
G02*
X189050000Y-136480000I0J-250000D01*
G01*
X189050000Y-139980000D01*
G75*
G02*
X188800000Y-140230000I-250000J0D01*
G01*
X186800000Y-140230000D01*
G75*
G02*
X186550000Y-139980000I0J250000D01*
G01*
X186550000Y-136480000D01*
G75*
G02*
X186800000Y-136230000I250000J0D01*
G01*
G37*
G36*
G01*
X186800000Y-128230000D02*
X188800000Y-128230000D01*
G75*
G02*
X189050000Y-128480000I0J-250000D01*
G01*
X189050000Y-131980000D01*
G75*
G02*
X188800000Y-132230000I-250000J0D01*
G01*
X186800000Y-132230000D01*
G75*
G02*
X186550000Y-131980000I0J250000D01*
G01*
X186550000Y-128480000D01*
G75*
G02*
X186800000Y-128230000I250000J0D01*
G01*
G37*
G36*
G01*
X174500000Y-136250000D02*
X176500000Y-136250000D01*
G75*
G02*
X176750000Y-136500000I0J-250000D01*
G01*
X176750000Y-140000000D01*
G75*
G02*
X176500000Y-140250000I-250000J0D01*
G01*
X174500000Y-140250000D01*
G75*
G02*
X174250000Y-140000000I0J250000D01*
G01*
X174250000Y-136500000D01*
G75*
G02*
X174500000Y-136250000I250000J0D01*
G01*
G37*
G36*
G01*
X174500000Y-128250000D02*
X176500000Y-128250000D01*
G75*
G02*
X176750000Y-128500000I0J-250000D01*
G01*
X176750000Y-132000000D01*
G75*
G02*
X176500000Y-132250000I-250000J0D01*
G01*
X174500000Y-132250000D01*
G75*
G02*
X174250000Y-132000000I0J250000D01*
G01*
X174250000Y-128500000D01*
G75*
G02*
X174500000Y-128250000I250000J0D01*
G01*
G37*
G36*
G01*
X99875000Y-56325001D02*
X99875000Y-55424999D01*
G75*
G02*
X100124999Y-55175000I249999J0D01*
G01*
X100650001Y-55175000D01*
G75*
G02*
X100900000Y-55424999I0J-249999D01*
G01*
X100900000Y-56325001D01*
G75*
G02*
X100650001Y-56575000I-249999J0D01*
G01*
X100124999Y-56575000D01*
G75*
G02*
X99875000Y-56325001I0J249999D01*
G01*
G37*
G36*
G01*
X101700000Y-56325001D02*
X101700000Y-55424999D01*
G75*
G02*
X101949999Y-55175000I249999J0D01*
G01*
X102475001Y-55175000D01*
G75*
G02*
X102725000Y-55424999I0J-249999D01*
G01*
X102725000Y-56325001D01*
G75*
G02*
X102475001Y-56575000I-249999J0D01*
G01*
X101949999Y-56575000D01*
G75*
G02*
X101700000Y-56325001I0J249999D01*
G01*
G37*
D33*
X101250000Y-55875000D03*
M02*
