G04 #@! TF.GenerationSoftware,KiCad,Pcbnew,5.1.7-a382d34a88~90~ubuntu20.04.1*
G04 #@! TF.CreationDate,2022-01-04T17:50:44-06:00*
G04 #@! TF.ProjectId,open-dash-daughterboard,6f70656e-2d64-4617-9368-2d6461756768,rev?*
G04 #@! TF.SameCoordinates,Original*
G04 #@! TF.FileFunction,Soldermask,Bot*
G04 #@! TF.FilePolarity,Negative*
%FSLAX46Y46*%
G04 Gerber Fmt 4.6, Leading zero omitted, Abs format (unit mm)*
G04 Created by KiCad (PCBNEW 5.1.7-a382d34a88~90~ubuntu20.04.1) date 2022-01-04 17:50:44*
%MOMM*%
%LPD*%
G01*
G04 APERTURE LIST*
%ADD10O,2.100000X2.100000*%
%ADD11C,1.700000*%
%ADD12O,2.900000X2.200000*%
%ADD13O,2.200000X2.900000*%
%ADD14O,1.400000X1.700000*%
%ADD15O,2.100000X3.300000*%
%ADD16C,2.800000*%
%ADD17C,3.000000*%
%ADD18C,1.924000*%
%ADD19C,2.100000*%
%ADD20C,5.400000*%
%ADD21C,2.400000*%
%ADD22C,1.400000*%
%ADD23C,1.200000*%
%ADD24C,1.000000*%
%ADD25C,1.900000*%
%ADD26C,0.900000*%
G04 APERTURE END LIST*
D10*
X194790000Y-45260000D03*
X194790000Y-47800000D03*
X192250000Y-45260000D03*
G36*
G01*
X193100000Y-48850000D02*
X191400000Y-48850000D01*
G75*
G02*
X191200000Y-48650000I0J200000D01*
G01*
X191200000Y-46950000D01*
G75*
G02*
X191400000Y-46750000I200000J0D01*
G01*
X193100000Y-46750000D01*
G75*
G02*
X193300000Y-46950000I0J-200000D01*
G01*
X193300000Y-48650000D01*
G75*
G02*
X193100000Y-48850000I-200000J0D01*
G01*
G37*
D11*
X129303800Y-42861300D03*
X119296200Y-42861300D03*
X119296200Y-45871200D03*
X129303800Y-45871200D03*
D12*
X124300000Y-45871200D03*
D11*
X124300000Y-50875000D03*
D13*
X129303800Y-50875000D03*
X119296200Y-50875000D03*
X121798100Y-50875000D03*
X126801900Y-50875000D03*
D10*
X92975000Y-52990000D03*
X92975000Y-50450000D03*
X95515000Y-52990000D03*
X95515000Y-50450000D03*
X98055000Y-52990000D03*
G36*
G01*
X97205000Y-49400000D02*
X98905000Y-49400000D01*
G75*
G02*
X99105000Y-49600000I0J-200000D01*
G01*
X99105000Y-51300000D01*
G75*
G02*
X98905000Y-51500000I-200000J0D01*
G01*
X97205000Y-51500000D01*
G75*
G02*
X97005000Y-51300000I0J200000D01*
G01*
X97005000Y-49600000D01*
G75*
G02*
X97205000Y-49400000I200000J0D01*
G01*
G37*
D14*
X199832400Y-47629600D03*
X203032800Y-47629600D03*
X202245400Y-46435800D03*
X200619800Y-46410400D03*
X201432600Y-47629600D03*
D15*
X197775000Y-42575000D03*
X205064800Y-42575000D03*
D11*
X114178800Y-42886300D03*
X104171200Y-42886300D03*
X104171200Y-45896200D03*
X114178800Y-45896200D03*
D12*
X109175000Y-45896200D03*
D11*
X109175000Y-50900000D03*
D13*
X114178800Y-50900000D03*
X104171200Y-50900000D03*
X106673100Y-50900000D03*
X111676900Y-50900000D03*
D16*
X102475001Y-65255001D03*
D17*
X102475001Y-68755001D03*
G36*
G01*
X101075001Y-62955001D02*
X101075001Y-60555001D01*
G75*
G02*
X101275001Y-60355001I200000J0D01*
G01*
X103675001Y-60355001D01*
G75*
G02*
X103875001Y-60555001I0J-200000D01*
G01*
X103875001Y-62955001D01*
G75*
G02*
X103675001Y-63155001I-200000J0D01*
G01*
X101275001Y-63155001D01*
G75*
G02*
X101075001Y-62955001I0J200000D01*
G01*
G37*
X91675001Y-68755001D03*
X91675001Y-61755001D03*
D18*
X91599500Y-116669600D03*
X91599500Y-114675700D03*
X91599500Y-106674700D03*
X91599500Y-120670100D03*
X91599500Y-110675200D03*
X91599500Y-118676200D03*
X91599500Y-108668600D03*
X91599500Y-112669100D03*
X91599500Y-100667600D03*
X91599500Y-122676700D03*
X91599500Y-102674200D03*
X91599500Y-104668100D03*
X95600000Y-105671400D03*
X95600000Y-103677500D03*
X95600000Y-99677000D03*
X95600000Y-101670900D03*
X95600000Y-107678000D03*
X95600000Y-113672400D03*
X95600000Y-111678500D03*
X95600000Y-109671900D03*
X95600000Y-115679000D03*
X95600000Y-117672900D03*
X95600000Y-119679500D03*
X95600000Y-121673400D03*
X95600000Y-123680000D03*
D16*
X102575001Y-82605001D03*
D17*
X102575001Y-86105001D03*
G36*
G01*
X101175001Y-80305001D02*
X101175001Y-77905001D01*
G75*
G02*
X101375001Y-77705001I200000J0D01*
G01*
X103775001Y-77705001D01*
G75*
G02*
X103975001Y-77905001I0J-200000D01*
G01*
X103975001Y-80305001D01*
G75*
G02*
X103775001Y-80505001I-200000J0D01*
G01*
X101375001Y-80505001D01*
G75*
G02*
X101175001Y-80305001I0J200000D01*
G01*
G37*
X91775001Y-86105001D03*
X91775001Y-79105001D03*
D19*
X205805000Y-69075000D03*
X205805000Y-71615000D03*
X205805000Y-74155000D03*
X205805000Y-76695000D03*
X205805000Y-79235000D03*
X205805000Y-81775000D03*
X205805000Y-84315000D03*
X205805000Y-86855000D03*
X205805000Y-89395000D03*
X205805000Y-91935000D03*
X205805000Y-94475000D03*
X205805000Y-97015000D03*
X205805000Y-99555000D03*
X205805000Y-102095000D03*
X205805000Y-104635000D03*
X205805000Y-107175000D03*
X205805000Y-109715000D03*
X205805000Y-112255000D03*
X205805000Y-114795000D03*
X205805000Y-117335000D03*
X208345000Y-69075000D03*
X208345000Y-71615000D03*
X208345000Y-74155000D03*
X208345000Y-76695000D03*
X208345000Y-79235000D03*
X208345000Y-81775000D03*
X208345000Y-84315000D03*
X208345000Y-86855000D03*
X208345000Y-89395000D03*
X208345000Y-91935000D03*
X208345000Y-94475000D03*
X208345000Y-97015000D03*
X208345000Y-99555000D03*
X208345000Y-102095000D03*
X208345000Y-104635000D03*
X208345000Y-107175000D03*
X208345000Y-109715000D03*
X208345000Y-112255000D03*
X208345000Y-114795000D03*
G36*
G01*
X209395000Y-116593823D02*
X209395000Y-118076177D01*
G75*
G02*
X209086177Y-118385000I-308823J0D01*
G01*
X207603823Y-118385000D01*
G75*
G02*
X207295000Y-118076177I0J308823D01*
G01*
X207295000Y-116593823D01*
G75*
G02*
X207603823Y-116285000I308823J0D01*
G01*
X209086177Y-116285000D01*
G75*
G02*
X209395000Y-116593823I0J-308823D01*
G01*
G37*
X193900000Y-69205000D03*
X193900000Y-71745000D03*
X193900000Y-74285000D03*
X193900000Y-76825000D03*
X193900000Y-79365000D03*
X193900000Y-81905000D03*
X193900000Y-84445000D03*
X193900000Y-86985000D03*
X193900000Y-89525000D03*
X193900000Y-92065000D03*
X193900000Y-94605000D03*
X193900000Y-97145000D03*
X193900000Y-99685000D03*
X193900000Y-102225000D03*
X193900000Y-104765000D03*
X193900000Y-107305000D03*
X193900000Y-109845000D03*
X193900000Y-112385000D03*
X193900000Y-114925000D03*
X193900000Y-117465000D03*
X196440000Y-69205000D03*
X196440000Y-71745000D03*
X196440000Y-74285000D03*
X196440000Y-76825000D03*
X196440000Y-79365000D03*
X196440000Y-81905000D03*
X196440000Y-84445000D03*
X196440000Y-86985000D03*
X196440000Y-89525000D03*
X196440000Y-92065000D03*
X196440000Y-94605000D03*
X196440000Y-97145000D03*
X196440000Y-99685000D03*
X196440000Y-102225000D03*
X196440000Y-104765000D03*
X196440000Y-107305000D03*
X196440000Y-109845000D03*
X196440000Y-112385000D03*
X196440000Y-114925000D03*
G36*
G01*
X197490000Y-116723823D02*
X197490000Y-118206177D01*
G75*
G02*
X197181177Y-118515000I-308823J0D01*
G01*
X195698823Y-118515000D01*
G75*
G02*
X195390000Y-118206177I0J308823D01*
G01*
X195390000Y-116723823D01*
G75*
G02*
X195698823Y-116415000I308823J0D01*
G01*
X197181177Y-116415000D01*
G75*
G02*
X197490000Y-116723823I0J-308823D01*
G01*
G37*
G36*
G01*
X170540000Y-53140000D02*
X173740000Y-53140000D01*
G75*
G02*
X174590000Y-53990000I0J-850000D01*
G01*
X174590000Y-55690000D01*
G75*
G02*
X173740000Y-56540000I-850000J0D01*
G01*
X170540000Y-56540000D01*
G75*
G02*
X169690000Y-55690000I0J850000D01*
G01*
X169690000Y-53990000D01*
G75*
G02*
X170540000Y-53140000I850000J0D01*
G01*
G37*
G36*
G01*
X170540000Y-47140000D02*
X173740000Y-47140000D01*
G75*
G02*
X174590000Y-47990000I0J-850000D01*
G01*
X174590000Y-49690000D01*
G75*
G02*
X173740000Y-50540000I-850000J0D01*
G01*
X170540000Y-50540000D01*
G75*
G02*
X169690000Y-49690000I0J850000D01*
G01*
X169690000Y-47990000D01*
G75*
G02*
X170540000Y-47140000I850000J0D01*
G01*
G37*
G36*
G01*
X166590000Y-49390000D02*
X168290000Y-49390000D01*
G75*
G02*
X169140000Y-50240000I0J-850000D01*
G01*
X169140000Y-53440000D01*
G75*
G02*
X168290000Y-54290000I-850000J0D01*
G01*
X166590000Y-54290000D01*
G75*
G02*
X165740000Y-53440000I0J850000D01*
G01*
X165740000Y-50240000D01*
G75*
G02*
X166590000Y-49390000I850000J0D01*
G01*
G37*
X103900000Y-135920000D03*
X106440000Y-135920000D03*
X108980000Y-135920000D03*
X111520000Y-135920000D03*
X114060000Y-135920000D03*
X116600000Y-135920000D03*
X119140000Y-135920000D03*
X121680000Y-135920000D03*
X124220000Y-135920000D03*
X126760000Y-135920000D03*
X129300000Y-135920000D03*
X131840000Y-135920000D03*
X134380000Y-135920000D03*
X136920000Y-135920000D03*
X139460000Y-135920000D03*
X142000000Y-135920000D03*
X144540000Y-135920000D03*
X147080000Y-135920000D03*
X149620000Y-135920000D03*
X152160000Y-135920000D03*
X103900000Y-133380000D03*
X106440000Y-133380000D03*
X108980000Y-133380000D03*
X111520000Y-133380000D03*
X114060000Y-133380000D03*
X116600000Y-133380000D03*
X119140000Y-133380000D03*
X121680000Y-133380000D03*
X124220000Y-133380000D03*
X126760000Y-133380000D03*
X129300000Y-133380000D03*
X131840000Y-133380000D03*
X134380000Y-133380000D03*
X136920000Y-133380000D03*
X139460000Y-133380000D03*
X142000000Y-133380000D03*
X144540000Y-133380000D03*
X147080000Y-133380000D03*
X149620000Y-133380000D03*
G36*
G01*
X151418823Y-132330000D02*
X152901177Y-132330000D01*
G75*
G02*
X153210000Y-132638823I0J-308823D01*
G01*
X153210000Y-134121177D01*
G75*
G02*
X152901177Y-134430000I-308823J0D01*
G01*
X151418823Y-134430000D01*
G75*
G02*
X151110000Y-134121177I0J308823D01*
G01*
X151110000Y-132638823D01*
G75*
G02*
X151418823Y-132330000I308823J0D01*
G01*
G37*
D20*
X209160000Y-44800000D03*
X209160000Y-136900000D03*
X92200000Y-44880000D03*
X92200000Y-136880000D03*
D17*
X109225001Y-61755001D03*
X109225001Y-68755001D03*
G36*
G01*
X118625001Y-62955001D02*
X118625001Y-60555001D01*
G75*
G02*
X118825001Y-60355001I200000J0D01*
G01*
X121225001Y-60355001D01*
G75*
G02*
X121425001Y-60555001I0J-200000D01*
G01*
X121425001Y-62955001D01*
G75*
G02*
X121225001Y-63155001I-200000J0D01*
G01*
X118825001Y-63155001D01*
G75*
G02*
X118625001Y-62955001I0J200000D01*
G01*
G37*
X120025001Y-68755001D03*
D16*
X120025001Y-65255001D03*
D10*
X167870000Y-65300000D03*
X170410000Y-65300000D03*
X167870000Y-67840000D03*
G36*
G01*
X171460000Y-66990000D02*
X171460000Y-68690000D01*
G75*
G02*
X171260000Y-68890000I-200000J0D01*
G01*
X169560000Y-68890000D01*
G75*
G02*
X169360000Y-68690000I0J200000D01*
G01*
X169360000Y-66990000D01*
G75*
G02*
X169560000Y-66790000I200000J0D01*
G01*
X171260000Y-66790000D01*
G75*
G02*
X171460000Y-66990000I0J-200000D01*
G01*
G37*
G36*
G01*
X158650000Y-53210000D02*
X161850000Y-53210000D01*
G75*
G02*
X162700000Y-54060000I0J-850000D01*
G01*
X162700000Y-55760000D01*
G75*
G02*
X161850000Y-56610000I-850000J0D01*
G01*
X158650000Y-56610000D01*
G75*
G02*
X157800000Y-55760000I0J850000D01*
G01*
X157800000Y-54060000D01*
G75*
G02*
X158650000Y-53210000I850000J0D01*
G01*
G37*
G36*
G01*
X158650000Y-47210000D02*
X161850000Y-47210000D01*
G75*
G02*
X162700000Y-48060000I0J-850000D01*
G01*
X162700000Y-49760000D01*
G75*
G02*
X161850000Y-50610000I-850000J0D01*
G01*
X158650000Y-50610000D01*
G75*
G02*
X157800000Y-49760000I0J850000D01*
G01*
X157800000Y-48060000D01*
G75*
G02*
X158650000Y-47210000I850000J0D01*
G01*
G37*
G36*
G01*
X154700000Y-49460000D02*
X156400000Y-49460000D01*
G75*
G02*
X157250000Y-50310000I0J-850000D01*
G01*
X157250000Y-53510000D01*
G75*
G02*
X156400000Y-54360000I-850000J0D01*
G01*
X154700000Y-54360000D01*
G75*
G02*
X153850000Y-53510000I0J850000D01*
G01*
X153850000Y-50310000D01*
G75*
G02*
X154700000Y-49460000I850000J0D01*
G01*
G37*
G36*
G01*
X200085000Y-128400000D02*
X196885000Y-128400000D01*
G75*
G02*
X196035000Y-127550000I0J850000D01*
G01*
X196035000Y-125850000D01*
G75*
G02*
X196885000Y-125000000I850000J0D01*
G01*
X200085000Y-125000000D01*
G75*
G02*
X200935000Y-125850000I0J-850000D01*
G01*
X200935000Y-127550000D01*
G75*
G02*
X200085000Y-128400000I-850000J0D01*
G01*
G37*
G36*
G01*
X200085000Y-134400000D02*
X196885000Y-134400000D01*
G75*
G02*
X196035000Y-133550000I0J850000D01*
G01*
X196035000Y-131850000D01*
G75*
G02*
X196885000Y-131000000I850000J0D01*
G01*
X200085000Y-131000000D01*
G75*
G02*
X200935000Y-131850000I0J-850000D01*
G01*
X200935000Y-133550000D01*
G75*
G02*
X200085000Y-134400000I-850000J0D01*
G01*
G37*
G36*
G01*
X204035000Y-132150000D02*
X202335000Y-132150000D01*
G75*
G02*
X201485000Y-131300000I0J850000D01*
G01*
X201485000Y-128100000D01*
G75*
G02*
X202335000Y-127250000I850000J0D01*
G01*
X204035000Y-127250000D01*
G75*
G02*
X204885000Y-128100000I0J-850000D01*
G01*
X204885000Y-131300000D01*
G75*
G02*
X204035000Y-132150000I-850000J0D01*
G01*
G37*
D17*
X109325001Y-79105001D03*
X109325001Y-86105001D03*
G36*
G01*
X118725001Y-80305001D02*
X118725001Y-77905001D01*
G75*
G02*
X118925001Y-77705001I200000J0D01*
G01*
X121325001Y-77705001D01*
G75*
G02*
X121525001Y-77905001I0J-200000D01*
G01*
X121525001Y-80305001D01*
G75*
G02*
X121325001Y-80505001I-200000J0D01*
G01*
X118925001Y-80505001D01*
G75*
G02*
X118725001Y-80305001I0J200000D01*
G01*
G37*
X120125001Y-86105001D03*
D16*
X120125001Y-82605001D03*
D21*
X178020000Y-130170000D03*
X173020000Y-130170000D03*
X190290000Y-130130000D03*
X104270000Y-108710000D03*
X104290000Y-113740000D03*
D22*
X115000000Y-116810000D03*
D23*
X121540000Y-102100000D03*
X120640000Y-102090000D03*
D21*
X104320000Y-96910000D03*
X104380000Y-102010000D03*
D22*
X143090000Y-52110000D03*
D23*
X206740000Y-131740000D03*
D22*
X122340000Y-117790000D03*
X150000000Y-57399990D03*
D24*
X184750000Y-122225000D03*
X185675000Y-122200000D03*
X172575000Y-121900000D03*
X178750000Y-122050000D03*
X174875000Y-114275000D03*
X178675000Y-114275000D03*
X172525000Y-108675000D03*
X178950000Y-108625000D03*
X181825000Y-107500000D03*
X188575000Y-108775000D03*
X185150000Y-94075000D03*
X184575000Y-87150000D03*
X186175000Y-87150000D03*
X188675000Y-94975000D03*
X173475000Y-82275000D03*
D23*
X169975000Y-58200000D03*
X169974194Y-59416508D03*
D24*
X186050000Y-100430009D03*
X182188881Y-100430009D03*
X184575000Y-114175010D03*
X186050000Y-114175010D03*
X173730377Y-99800010D03*
X178238479Y-99695419D03*
D21*
X185330906Y-130217943D03*
X172860000Y-138210000D03*
X178060000Y-138260000D03*
X185260000Y-138170000D03*
X190280000Y-138190000D03*
X112380000Y-108740000D03*
X112210000Y-113780000D03*
D22*
X142680000Y-121400000D03*
X142630000Y-118960000D03*
X149935596Y-116288283D03*
D24*
X149460000Y-125010000D03*
D23*
X125150000Y-89340000D03*
X134780000Y-89330000D03*
D21*
X112400000Y-96850000D03*
X112350000Y-102020000D03*
D25*
X182330000Y-45470000D03*
X183930000Y-45550000D03*
X185640000Y-45620000D03*
X182290000Y-47780000D03*
X185380000Y-47780000D03*
X135830000Y-49230000D03*
X135980000Y-50850000D03*
X135810000Y-52590000D03*
X138160000Y-49170000D03*
X138160000Y-50990000D03*
X138050000Y-52740000D03*
D23*
X143730000Y-71400000D03*
X136840000Y-71650000D03*
X130820000Y-75480000D03*
X125830000Y-75520000D03*
X125990000Y-66020000D03*
X130990000Y-66100000D03*
X126050000Y-84000000D03*
X130950000Y-84010000D03*
X93160000Y-125290000D03*
X92850000Y-130580000D03*
D25*
X123970000Y-110570000D03*
X125700000Y-110600000D03*
X122290000Y-110500000D03*
X122210000Y-112670000D03*
X123930000Y-112610000D03*
X125650000Y-112580000D03*
D24*
X139650000Y-115050000D03*
D23*
X149010000Y-93090000D03*
X149070000Y-98180000D03*
X143070000Y-98120000D03*
X143080000Y-93040000D03*
X144880000Y-90700000D03*
X160900000Y-71440000D03*
X157320000Y-71460000D03*
X208550000Y-127600000D03*
D24*
X150380000Y-124225010D03*
D23*
X98150000Y-98250000D03*
X94560000Y-97140000D03*
X90325010Y-94901398D03*
D22*
X130988371Y-117154436D03*
X112840000Y-120600000D03*
X116520000Y-120630000D03*
X124010000Y-117650000D03*
D24*
X102540000Y-113340000D03*
X194630000Y-53170000D03*
X157810000Y-98120000D03*
X143470000Y-43520000D03*
X153080000Y-42610000D03*
X156855010Y-100079352D03*
X157890000Y-90290000D03*
D23*
X149580000Y-78320000D03*
X149600000Y-79390000D03*
X150570000Y-78410000D03*
X150600000Y-79420000D03*
X148560000Y-78320000D03*
X148540000Y-79310000D03*
D22*
X133710000Y-122620000D03*
X133730000Y-121390000D03*
D24*
X164290000Y-117690000D03*
X169654968Y-131620000D03*
X166656709Y-125888482D03*
X156700000Y-123975000D03*
X125050000Y-76800000D03*
X174925000Y-70275000D03*
X167850000Y-106675000D03*
X189325000Y-124650000D03*
X175075000Y-110500000D03*
X178975000Y-110425000D03*
X179700000Y-106550000D03*
X175100000Y-105525000D03*
X189300000Y-119925000D03*
X184650000Y-118925000D03*
X184775000Y-91675000D03*
X188375000Y-91725000D03*
X186675000Y-83750000D03*
D22*
X173650000Y-87975000D03*
D23*
X144899990Y-112270000D03*
D24*
X138896994Y-104129519D03*
X155725000Y-118800000D03*
X155825000Y-120125000D03*
X155775000Y-121400000D03*
X208300000Y-57150000D03*
X211275000Y-54875000D03*
X210575000Y-48350000D03*
D23*
X173375000Y-63050000D03*
D24*
X203640327Y-51506428D03*
D23*
X192150000Y-55625000D03*
X187950000Y-59400000D03*
D24*
X189475000Y-68750000D03*
X189350000Y-69750000D03*
D22*
X183925000Y-59200000D03*
X183375000Y-60575000D03*
D24*
X163150000Y-96800000D03*
X181400000Y-64300000D03*
X182525000Y-67350000D03*
X175891949Y-67791949D03*
X180495551Y-69229449D03*
X161605000Y-117540000D03*
D23*
X176825010Y-63175000D03*
D24*
X189125000Y-97500000D03*
X183475000Y-97500000D03*
X189150000Y-106550000D03*
X184775000Y-105400000D03*
X184675000Y-110250000D03*
X189075000Y-111425000D03*
X179650000Y-120450000D03*
X175400000Y-118825000D03*
X177600000Y-80475021D03*
D22*
X173669912Y-94125010D03*
X178612065Y-94125010D03*
D24*
X162475590Y-133014990D03*
X163104449Y-105520551D03*
X178750000Y-123649990D03*
X175050000Y-123649990D03*
X160348247Y-111081914D03*
X185151884Y-123650010D03*
X162484990Y-123380000D03*
X124150000Y-90050000D03*
X122950000Y-86525000D03*
X132850000Y-57175000D03*
X153425000Y-58025000D03*
X166039845Y-66014845D03*
X202275000Y-52775000D03*
X195250000Y-56600000D03*
X196736802Y-56727136D03*
X204450000Y-58075000D03*
X186750000Y-63125000D03*
X180650000Y-70525000D03*
D22*
X150000000Y-115090000D03*
D24*
X146920000Y-126900000D03*
D23*
X134780000Y-96950000D03*
X125070000Y-96910000D03*
X135480000Y-75620000D03*
X135730000Y-83920000D03*
X143770000Y-72670000D03*
X137030000Y-73640000D03*
D24*
X157937191Y-93284052D03*
X135030000Y-67940000D03*
D22*
X136010000Y-122470000D03*
X135990000Y-119860000D03*
X136000000Y-121130000D03*
D24*
X166820883Y-119179729D03*
X161230000Y-131320000D03*
X164387949Y-133231450D03*
X167553637Y-116637195D03*
X168502334Y-135064990D03*
X169490000Y-133140000D03*
X165430000Y-117620000D03*
X163010011Y-117588614D03*
X118675000Y-120750000D03*
X131875000Y-115150000D03*
X168775000Y-82975000D03*
X166050021Y-128028479D03*
X137967521Y-99140000D03*
X162720000Y-126994991D03*
X153200000Y-126994991D03*
X155075000Y-117875000D03*
X175650000Y-64100000D03*
X172475000Y-71025000D03*
X168575000Y-72200000D03*
X156925021Y-95230000D03*
X165875000Y-92925000D03*
D23*
X170175000Y-60800000D03*
X170811658Y-59963022D03*
D22*
X176292869Y-59902287D03*
X165425000Y-56350000D03*
D23*
X191025000Y-66150000D03*
X187537340Y-61737340D03*
D24*
X95100000Y-95250000D03*
D23*
X94565021Y-110793138D03*
D24*
X192125000Y-88675000D03*
X167970215Y-121605886D03*
X169575000Y-123475000D03*
X179050000Y-122875000D03*
X203725000Y-113525000D03*
X171100000Y-126525000D03*
X190825000Y-122425000D03*
X202100000Y-110925000D03*
X210975010Y-106804502D03*
X163075000Y-122550000D03*
X189125000Y-122900000D03*
X203925000Y-107200000D03*
X211220189Y-100561765D03*
X167336631Y-122259471D03*
X168877211Y-126205785D03*
X177925000Y-128550000D03*
X185225000Y-128450000D03*
X202800000Y-107200000D03*
X170097011Y-126559786D03*
X192187748Y-123039757D03*
X201900000Y-100000000D03*
X164396630Y-110088061D03*
X191375000Y-103475000D03*
X164775000Y-105550000D03*
X163300000Y-104650000D03*
X171975000Y-104100010D03*
X138840000Y-82930000D03*
X147490000Y-84240000D03*
X162900000Y-85450000D03*
X164800000Y-85150000D03*
X182050000Y-71250000D03*
X195300000Y-63350000D03*
D23*
X202199979Y-96678239D03*
X203800160Y-99125160D03*
X201432316Y-97319112D03*
X202937660Y-99987660D03*
D24*
X189575000Y-104050000D03*
X170300000Y-104675000D03*
X159200000Y-91475000D03*
X164650000Y-90950000D03*
X167750000Y-91150000D03*
X173925000Y-90100000D03*
X190050000Y-87350000D03*
X161650000Y-126025000D03*
X169389457Y-126933130D03*
X163550000Y-127725000D03*
X168674954Y-127525010D03*
D23*
X149603074Y-118593262D03*
D24*
X161630000Y-123370000D03*
X161490000Y-121320000D03*
X165146565Y-123025010D03*
D26*
X161250000Y-74550000D03*
D23*
X150948544Y-119676776D03*
D24*
X162850000Y-98925000D03*
X162649718Y-101110967D03*
D26*
X163521812Y-74530110D03*
D24*
X165229449Y-121279449D03*
X203200000Y-61750000D03*
X206075000Y-61675000D03*
X160930000Y-75400000D03*
X162475000Y-75225000D03*
D23*
X175784999Y-101715001D03*
X181318177Y-114170020D03*
D24*
X211325000Y-93850000D03*
X201700000Y-93975000D03*
X202525000Y-95275000D03*
X212525000Y-96225000D03*
D23*
X181600000Y-115300000D03*
D24*
X143980000Y-81670000D03*
X145675000Y-82275000D03*
X157400000Y-81050000D03*
X167625000Y-80975000D03*
X191425000Y-84725000D03*
X191875000Y-86359990D03*
X137760000Y-77080000D03*
X139140000Y-75670000D03*
X157180000Y-73800000D03*
X178600000Y-63675000D03*
X173100010Y-70067227D03*
X163919925Y-73894482D03*
X137770000Y-79090000D03*
X140460000Y-79030000D03*
X137675010Y-84590000D03*
X136208051Y-95941949D03*
X144930000Y-86980000D03*
X142824979Y-89690000D03*
X154700000Y-74640000D03*
X172300000Y-65925000D03*
X171778302Y-61080597D03*
X171283925Y-69640011D03*
X172099981Y-68323565D03*
X163739972Y-73114972D03*
X130310000Y-68250000D03*
X130410000Y-71770000D03*
X135230000Y-77730000D03*
X146053529Y-83365010D03*
X162475000Y-81525000D03*
X164575000Y-79850000D03*
X171525000Y-71175000D03*
X172675000Y-63750000D03*
X93447326Y-100855043D03*
X102080000Y-97360000D03*
X140585010Y-81391599D03*
X146600576Y-81941677D03*
X98250000Y-91750000D03*
X100150000Y-92050000D03*
X137900000Y-77950000D03*
X150200000Y-73225000D03*
X161900000Y-115075000D03*
X163950000Y-115150000D03*
X170225000Y-124275000D03*
X179575000Y-124575000D03*
X185532149Y-126160501D03*
X182163370Y-126174990D03*
X162550000Y-114450000D03*
X164475000Y-114500000D03*
X179425000Y-125450000D03*
X171117429Y-124922120D03*
X163300000Y-113825000D03*
X165075000Y-113825000D03*
X178650000Y-126150000D03*
X172558594Y-126102818D03*
X162250000Y-111700000D03*
X165925000Y-111600000D03*
X152350000Y-109075000D03*
X165950000Y-109075000D03*
X153277548Y-110175871D03*
X155973383Y-109850010D03*
X188900000Y-112725000D03*
X159764526Y-109900010D03*
X167425000Y-108275000D03*
X160199994Y-106819990D03*
X162050000Y-105750000D03*
X167830362Y-107549269D03*
X166875000Y-109000000D03*
X160623512Y-107678204D03*
X152900000Y-103425000D03*
X164800000Y-101200000D03*
X182150000Y-99025000D03*
X185250000Y-98950000D03*
X164350000Y-91825000D03*
X168500000Y-92025000D03*
X171650000Y-92725000D03*
X158677713Y-92425020D03*
X151649990Y-107391879D03*
X163729309Y-108649990D03*
X162024990Y-86768051D03*
X164425032Y-87073156D03*
X162000000Y-85950000D03*
X164850000Y-86100000D03*
X164350000Y-83200000D03*
X162525000Y-84200000D03*
D23*
X146310000Y-115480000D03*
X146548076Y-112602929D03*
D24*
X164950010Y-82175000D03*
X162499968Y-82619669D03*
X171300000Y-93700000D03*
X181400000Y-95200000D03*
X188725000Y-96050000D03*
X199775000Y-96050000D03*
X154579217Y-96504424D03*
X143640000Y-94840000D03*
X146350000Y-93810000D03*
X181625000Y-90775000D03*
X170551191Y-93418390D03*
X155101120Y-94223493D03*
X125870000Y-61640000D03*
X131290000Y-61630000D03*
X135655010Y-71060000D03*
X135655010Y-69143380D03*
X138751524Y-83996714D03*
X139480000Y-86020010D03*
X134980000Y-95020000D03*
X143025000Y-104450000D03*
X145625000Y-111125000D03*
X145525000Y-113925000D03*
X145315103Y-105818796D03*
X163735010Y-123030000D03*
X138750000Y-106375000D03*
X146150000Y-107375000D03*
X146525000Y-110375000D03*
X164550000Y-120075000D03*
D23*
X96175000Y-91225000D03*
D24*
X93250000Y-94775000D03*
X89875000Y-100175000D03*
X109450000Y-89775000D03*
D23*
X100667510Y-95704043D03*
X92665010Y-98588823D03*
D24*
X185925000Y-72675000D03*
X188075000Y-73025000D03*
D26*
X147300000Y-101975000D03*
D24*
X153034715Y-105900817D03*
D26*
X148100000Y-102075000D03*
D24*
X153683121Y-105432213D03*
X113125000Y-75125000D03*
X114400000Y-53100000D03*
D26*
X153950201Y-102550201D03*
D23*
X190300000Y-99725000D03*
X159425000Y-102549990D03*
X180400160Y-98299990D03*
D24*
X114719999Y-86105001D03*
X115680001Y-86105001D03*
X116755001Y-86105001D03*
X99950000Y-102700000D03*
X100675000Y-101775000D03*
X198850000Y-54674989D03*
X198850000Y-56075000D03*
M02*
