G04 #@! TF.GenerationSoftware,KiCad,Pcbnew,5.1.7-a382d34a88~90~ubuntu20.04.1*
G04 #@! TF.CreationDate,2022-01-04T17:50:44-06:00*
G04 #@! TF.ProjectId,open-dash-daughterboard,6f70656e-2d64-4617-9368-2d6461756768,rev?*
G04 #@! TF.SameCoordinates,Original*
G04 #@! TF.FileFunction,Copper,L4,Bot*
G04 #@! TF.FilePolarity,Positive*
%FSLAX46Y46*%
G04 Gerber Fmt 4.6, Leading zero omitted, Abs format (unit mm)*
G04 Created by KiCad (PCBNEW 5.1.7-a382d34a88~90~ubuntu20.04.1) date 2022-01-04 17:50:44*
%MOMM*%
%LPD*%
G01*
G04 APERTURE LIST*
G04 #@! TA.AperFunction,ComponentPad*
%ADD10O,1.700000X1.700000*%
G04 #@! TD*
G04 #@! TA.AperFunction,ComponentPad*
%ADD11R,1.700000X1.700000*%
G04 #@! TD*
G04 #@! TA.AperFunction,ComponentPad*
%ADD12C,1.300000*%
G04 #@! TD*
G04 #@! TA.AperFunction,ComponentPad*
%ADD13O,2.500000X1.800000*%
G04 #@! TD*
G04 #@! TA.AperFunction,ComponentPad*
%ADD14O,1.800000X2.500000*%
G04 #@! TD*
G04 #@! TA.AperFunction,ComponentPad*
%ADD15O,1.000000X1.300000*%
G04 #@! TD*
G04 #@! TA.AperFunction,ComponentPad*
%ADD16O,1.700000X2.900000*%
G04 #@! TD*
G04 #@! TA.AperFunction,ComponentPad*
%ADD17C,2.400000*%
G04 #@! TD*
G04 #@! TA.AperFunction,ComponentPad*
%ADD18C,2.600000*%
G04 #@! TD*
G04 #@! TA.AperFunction,ComponentPad*
%ADD19R,2.400000X2.400000*%
G04 #@! TD*
G04 #@! TA.AperFunction,ComponentPad*
%ADD20C,1.524000*%
G04 #@! TD*
G04 #@! TA.AperFunction,ComponentPad*
%ADD21C,1.700000*%
G04 #@! TD*
G04 #@! TA.AperFunction,ComponentPad*
%ADD22C,5.000000*%
G04 #@! TD*
G04 #@! TA.AperFunction,ViaPad*
%ADD23C,2.000000*%
G04 #@! TD*
G04 #@! TA.AperFunction,ViaPad*
%ADD24C,1.000000*%
G04 #@! TD*
G04 #@! TA.AperFunction,ViaPad*
%ADD25C,0.800000*%
G04 #@! TD*
G04 #@! TA.AperFunction,ViaPad*
%ADD26C,0.600000*%
G04 #@! TD*
G04 #@! TA.AperFunction,ViaPad*
%ADD27C,1.500000*%
G04 #@! TD*
G04 #@! TA.AperFunction,ViaPad*
%ADD28C,0.500000*%
G04 #@! TD*
G04 #@! TA.AperFunction,Conductor*
%ADD29C,0.500000*%
G04 #@! TD*
G04 #@! TA.AperFunction,Conductor*
%ADD30C,0.250000*%
G04 #@! TD*
G04 #@! TA.AperFunction,Conductor*
%ADD31C,0.400000*%
G04 #@! TD*
G04 #@! TA.AperFunction,Conductor*
%ADD32C,1.000000*%
G04 #@! TD*
G04 APERTURE END LIST*
D10*
X194790000Y-45260000D03*
X194790000Y-47800000D03*
X192250000Y-45260000D03*
D11*
X192250000Y-47800000D03*
D12*
X129303800Y-42861300D03*
X119296200Y-42861300D03*
X119296200Y-45871200D03*
X129303800Y-45871200D03*
D13*
X124300000Y-45871200D03*
D12*
X124300000Y-50875000D03*
D14*
X129303800Y-50875000D03*
X119296200Y-50875000D03*
X121798100Y-50875000D03*
X126801900Y-50875000D03*
D10*
X92975000Y-52990000D03*
X92975000Y-50450000D03*
X95515000Y-52990000D03*
X95515000Y-50450000D03*
X98055000Y-52990000D03*
D11*
X98055000Y-50450000D03*
D15*
X199832400Y-47629600D03*
X203032800Y-47629600D03*
X202245400Y-46435800D03*
X200619800Y-46410400D03*
X201432600Y-47629600D03*
D16*
X197775000Y-42575000D03*
X205064800Y-42575000D03*
D12*
X114178800Y-42886300D03*
X104171200Y-42886300D03*
X104171200Y-45896200D03*
X114178800Y-45896200D03*
D13*
X109175000Y-45896200D03*
D12*
X109175000Y-50900000D03*
D14*
X114178800Y-50900000D03*
X104171200Y-50900000D03*
X106673100Y-50900000D03*
X111676900Y-50900000D03*
D17*
X102475001Y-65255001D03*
D18*
X102475001Y-68755001D03*
D19*
X102475001Y-61755001D03*
D18*
X91675001Y-68755001D03*
X91675001Y-61755001D03*
D20*
X91599500Y-116669600D03*
X91599500Y-114675700D03*
X91599500Y-106674700D03*
X91599500Y-120670100D03*
X91599500Y-110675200D03*
X91599500Y-118676200D03*
X91599500Y-108668600D03*
X91599500Y-112669100D03*
X91599500Y-100667600D03*
X91599500Y-122676700D03*
X91599500Y-102674200D03*
X91599500Y-104668100D03*
X95600000Y-105671400D03*
X95600000Y-103677500D03*
X95600000Y-99677000D03*
X95600000Y-101670900D03*
X95600000Y-107678000D03*
X95600000Y-113672400D03*
X95600000Y-111678500D03*
X95600000Y-109671900D03*
X95600000Y-115679000D03*
X95600000Y-117672900D03*
X95600000Y-119679500D03*
X95600000Y-121673400D03*
X95600000Y-123680000D03*
D17*
X102575001Y-82605001D03*
D18*
X102575001Y-86105001D03*
D19*
X102575001Y-79105001D03*
D18*
X91775001Y-86105001D03*
X91775001Y-79105001D03*
D21*
X205805000Y-69075000D03*
X205805000Y-71615000D03*
X205805000Y-74155000D03*
X205805000Y-76695000D03*
X205805000Y-79235000D03*
X205805000Y-81775000D03*
X205805000Y-84315000D03*
X205805000Y-86855000D03*
X205805000Y-89395000D03*
X205805000Y-91935000D03*
X205805000Y-94475000D03*
X205805000Y-97015000D03*
X205805000Y-99555000D03*
X205805000Y-102095000D03*
X205805000Y-104635000D03*
X205805000Y-107175000D03*
X205805000Y-109715000D03*
X205805000Y-112255000D03*
X205805000Y-114795000D03*
X205805000Y-117335000D03*
X208345000Y-69075000D03*
X208345000Y-71615000D03*
X208345000Y-74155000D03*
X208345000Y-76695000D03*
X208345000Y-79235000D03*
X208345000Y-81775000D03*
X208345000Y-84315000D03*
X208345000Y-86855000D03*
X208345000Y-89395000D03*
X208345000Y-91935000D03*
X208345000Y-94475000D03*
X208345000Y-97015000D03*
X208345000Y-99555000D03*
X208345000Y-102095000D03*
X208345000Y-104635000D03*
X208345000Y-107175000D03*
X208345000Y-109715000D03*
X208345000Y-112255000D03*
X208345000Y-114795000D03*
G04 #@! TA.AperFunction,ComponentPad*
G36*
G01*
X209195000Y-116735000D02*
X209195000Y-117935000D01*
G75*
G02*
X208945000Y-118185000I-250000J0D01*
G01*
X207745000Y-118185000D01*
G75*
G02*
X207495000Y-117935000I0J250000D01*
G01*
X207495000Y-116735000D01*
G75*
G02*
X207745000Y-116485000I250000J0D01*
G01*
X208945000Y-116485000D01*
G75*
G02*
X209195000Y-116735000I0J-250000D01*
G01*
G37*
G04 #@! TD.AperFunction*
X193900000Y-69205000D03*
X193900000Y-71745000D03*
X193900000Y-74285000D03*
X193900000Y-76825000D03*
X193900000Y-79365000D03*
X193900000Y-81905000D03*
X193900000Y-84445000D03*
X193900000Y-86985000D03*
X193900000Y-89525000D03*
X193900000Y-92065000D03*
X193900000Y-94605000D03*
X193900000Y-97145000D03*
X193900000Y-99685000D03*
X193900000Y-102225000D03*
X193900000Y-104765000D03*
X193900000Y-107305000D03*
X193900000Y-109845000D03*
X193900000Y-112385000D03*
X193900000Y-114925000D03*
X193900000Y-117465000D03*
X196440000Y-69205000D03*
X196440000Y-71745000D03*
X196440000Y-74285000D03*
X196440000Y-76825000D03*
X196440000Y-79365000D03*
X196440000Y-81905000D03*
X196440000Y-84445000D03*
X196440000Y-86985000D03*
X196440000Y-89525000D03*
X196440000Y-92065000D03*
X196440000Y-94605000D03*
X196440000Y-97145000D03*
X196440000Y-99685000D03*
X196440000Y-102225000D03*
X196440000Y-104765000D03*
X196440000Y-107305000D03*
X196440000Y-109845000D03*
X196440000Y-112385000D03*
X196440000Y-114925000D03*
G04 #@! TA.AperFunction,ComponentPad*
G36*
G01*
X197290000Y-116865000D02*
X197290000Y-118065000D01*
G75*
G02*
X197040000Y-118315000I-250000J0D01*
G01*
X195840000Y-118315000D01*
G75*
G02*
X195590000Y-118065000I0J250000D01*
G01*
X195590000Y-116865000D01*
G75*
G02*
X195840000Y-116615000I250000J0D01*
G01*
X197040000Y-116615000D01*
G75*
G02*
X197290000Y-116865000I0J-250000D01*
G01*
G37*
G04 #@! TD.AperFunction*
G04 #@! TA.AperFunction,ComponentPad*
G36*
G01*
X170640000Y-53340000D02*
X173640000Y-53340000D01*
G75*
G02*
X174390000Y-54090000I0J-750000D01*
G01*
X174390000Y-55590000D01*
G75*
G02*
X173640000Y-56340000I-750000J0D01*
G01*
X170640000Y-56340000D01*
G75*
G02*
X169890000Y-55590000I0J750000D01*
G01*
X169890000Y-54090000D01*
G75*
G02*
X170640000Y-53340000I750000J0D01*
G01*
G37*
G04 #@! TD.AperFunction*
G04 #@! TA.AperFunction,ComponentPad*
G36*
G01*
X170640000Y-47340000D02*
X173640000Y-47340000D01*
G75*
G02*
X174390000Y-48090000I0J-750000D01*
G01*
X174390000Y-49590000D01*
G75*
G02*
X173640000Y-50340000I-750000J0D01*
G01*
X170640000Y-50340000D01*
G75*
G02*
X169890000Y-49590000I0J750000D01*
G01*
X169890000Y-48090000D01*
G75*
G02*
X170640000Y-47340000I750000J0D01*
G01*
G37*
G04 #@! TD.AperFunction*
G04 #@! TA.AperFunction,ComponentPad*
G36*
G01*
X166690000Y-49590000D02*
X168190000Y-49590000D01*
G75*
G02*
X168940000Y-50340000I0J-750000D01*
G01*
X168940000Y-53340000D01*
G75*
G02*
X168190000Y-54090000I-750000J0D01*
G01*
X166690000Y-54090000D01*
G75*
G02*
X165940000Y-53340000I0J750000D01*
G01*
X165940000Y-50340000D01*
G75*
G02*
X166690000Y-49590000I750000J0D01*
G01*
G37*
G04 #@! TD.AperFunction*
X103900000Y-135920000D03*
X106440000Y-135920000D03*
X108980000Y-135920000D03*
X111520000Y-135920000D03*
X114060000Y-135920000D03*
X116600000Y-135920000D03*
X119140000Y-135920000D03*
X121680000Y-135920000D03*
X124220000Y-135920000D03*
X126760000Y-135920000D03*
X129300000Y-135920000D03*
X131840000Y-135920000D03*
X134380000Y-135920000D03*
X136920000Y-135920000D03*
X139460000Y-135920000D03*
X142000000Y-135920000D03*
X144540000Y-135920000D03*
X147080000Y-135920000D03*
X149620000Y-135920000D03*
X152160000Y-135920000D03*
X103900000Y-133380000D03*
X106440000Y-133380000D03*
X108980000Y-133380000D03*
X111520000Y-133380000D03*
X114060000Y-133380000D03*
X116600000Y-133380000D03*
X119140000Y-133380000D03*
X121680000Y-133380000D03*
X124220000Y-133380000D03*
X126760000Y-133380000D03*
X129300000Y-133380000D03*
X131840000Y-133380000D03*
X134380000Y-133380000D03*
X136920000Y-133380000D03*
X139460000Y-133380000D03*
X142000000Y-133380000D03*
X144540000Y-133380000D03*
X147080000Y-133380000D03*
X149620000Y-133380000D03*
G04 #@! TA.AperFunction,ComponentPad*
G36*
G01*
X151560000Y-132530000D02*
X152760000Y-132530000D01*
G75*
G02*
X153010000Y-132780000I0J-250000D01*
G01*
X153010000Y-133980000D01*
G75*
G02*
X152760000Y-134230000I-250000J0D01*
G01*
X151560000Y-134230000D01*
G75*
G02*
X151310000Y-133980000I0J250000D01*
G01*
X151310000Y-132780000D01*
G75*
G02*
X151560000Y-132530000I250000J0D01*
G01*
G37*
G04 #@! TD.AperFunction*
D22*
X209160000Y-44800000D03*
X209160000Y-136900000D03*
X92200000Y-44880000D03*
X92200000Y-136880000D03*
D18*
X109225001Y-61755001D03*
X109225001Y-68755001D03*
D19*
X120025001Y-61755001D03*
D18*
X120025001Y-68755001D03*
D17*
X120025001Y-65255001D03*
D10*
X167870000Y-65300000D03*
X170410000Y-65300000D03*
X167870000Y-67840000D03*
D11*
X170410000Y-67840000D03*
G04 #@! TA.AperFunction,ComponentPad*
G36*
G01*
X158750000Y-53410000D02*
X161750000Y-53410000D01*
G75*
G02*
X162500000Y-54160000I0J-750000D01*
G01*
X162500000Y-55660000D01*
G75*
G02*
X161750000Y-56410000I-750000J0D01*
G01*
X158750000Y-56410000D01*
G75*
G02*
X158000000Y-55660000I0J750000D01*
G01*
X158000000Y-54160000D01*
G75*
G02*
X158750000Y-53410000I750000J0D01*
G01*
G37*
G04 #@! TD.AperFunction*
G04 #@! TA.AperFunction,ComponentPad*
G36*
G01*
X158750000Y-47410000D02*
X161750000Y-47410000D01*
G75*
G02*
X162500000Y-48160000I0J-750000D01*
G01*
X162500000Y-49660000D01*
G75*
G02*
X161750000Y-50410000I-750000J0D01*
G01*
X158750000Y-50410000D01*
G75*
G02*
X158000000Y-49660000I0J750000D01*
G01*
X158000000Y-48160000D01*
G75*
G02*
X158750000Y-47410000I750000J0D01*
G01*
G37*
G04 #@! TD.AperFunction*
G04 #@! TA.AperFunction,ComponentPad*
G36*
G01*
X154800000Y-49660000D02*
X156300000Y-49660000D01*
G75*
G02*
X157050000Y-50410000I0J-750000D01*
G01*
X157050000Y-53410000D01*
G75*
G02*
X156300000Y-54160000I-750000J0D01*
G01*
X154800000Y-54160000D01*
G75*
G02*
X154050000Y-53410000I0J750000D01*
G01*
X154050000Y-50410000D01*
G75*
G02*
X154800000Y-49660000I750000J0D01*
G01*
G37*
G04 #@! TD.AperFunction*
G04 #@! TA.AperFunction,ComponentPad*
G36*
G01*
X199985000Y-128200000D02*
X196985000Y-128200000D01*
G75*
G02*
X196235000Y-127450000I0J750000D01*
G01*
X196235000Y-125950000D01*
G75*
G02*
X196985000Y-125200000I750000J0D01*
G01*
X199985000Y-125200000D01*
G75*
G02*
X200735000Y-125950000I0J-750000D01*
G01*
X200735000Y-127450000D01*
G75*
G02*
X199985000Y-128200000I-750000J0D01*
G01*
G37*
G04 #@! TD.AperFunction*
G04 #@! TA.AperFunction,ComponentPad*
G36*
G01*
X199985000Y-134200000D02*
X196985000Y-134200000D01*
G75*
G02*
X196235000Y-133450000I0J750000D01*
G01*
X196235000Y-131950000D01*
G75*
G02*
X196985000Y-131200000I750000J0D01*
G01*
X199985000Y-131200000D01*
G75*
G02*
X200735000Y-131950000I0J-750000D01*
G01*
X200735000Y-133450000D01*
G75*
G02*
X199985000Y-134200000I-750000J0D01*
G01*
G37*
G04 #@! TD.AperFunction*
G04 #@! TA.AperFunction,ComponentPad*
G36*
G01*
X203935000Y-131950000D02*
X202435000Y-131950000D01*
G75*
G02*
X201685000Y-131200000I0J750000D01*
G01*
X201685000Y-128200000D01*
G75*
G02*
X202435000Y-127450000I750000J0D01*
G01*
X203935000Y-127450000D01*
G75*
G02*
X204685000Y-128200000I0J-750000D01*
G01*
X204685000Y-131200000D01*
G75*
G02*
X203935000Y-131950000I-750000J0D01*
G01*
G37*
G04 #@! TD.AperFunction*
D18*
X109325001Y-79105001D03*
X109325001Y-86105001D03*
D19*
X120125001Y-79105001D03*
D18*
X120125001Y-86105001D03*
D17*
X120125001Y-82605001D03*
D23*
X178020000Y-130170000D03*
X173020000Y-130170000D03*
X190290000Y-130130000D03*
X104270000Y-108710000D03*
X104290000Y-113740000D03*
D24*
X115000000Y-116810000D03*
D25*
X121540000Y-102100000D03*
X120640000Y-102090000D03*
D23*
X104320000Y-96910000D03*
X104380000Y-102010000D03*
D24*
X143090000Y-52110000D03*
D25*
X206740000Y-131740000D03*
D24*
X122340000Y-117790000D03*
X150000000Y-57399990D03*
D26*
X184750000Y-122225000D03*
X185675000Y-122200000D03*
X172575000Y-121900000D03*
X178750000Y-122050000D03*
X174875000Y-114275000D03*
X178675000Y-114275000D03*
X172525000Y-108675000D03*
X178950000Y-108625000D03*
X181825000Y-107500000D03*
X188575000Y-108775000D03*
X185150000Y-94075000D03*
X184575000Y-87150000D03*
X186175000Y-87150000D03*
X188675000Y-94975000D03*
X173475000Y-82275000D03*
D25*
X169975000Y-58200000D03*
X169974194Y-59416508D03*
D26*
X186050000Y-100430009D03*
X182188881Y-100430009D03*
X184575000Y-114175010D03*
X186050000Y-114175010D03*
X173730377Y-99800010D03*
X178238479Y-99695419D03*
D23*
X185330906Y-130217943D03*
X172860000Y-138210000D03*
X178060000Y-138260000D03*
X185260000Y-138170000D03*
X190280000Y-138190000D03*
X112380000Y-108740000D03*
X112210000Y-113780000D03*
D24*
X142680000Y-121400000D03*
X142630000Y-118960000D03*
X149935596Y-116288283D03*
D26*
X149460000Y-125010000D03*
D25*
X125150000Y-89340000D03*
X134780000Y-89330000D03*
D23*
X112400000Y-96850000D03*
X112350000Y-102020000D03*
D27*
X182330000Y-45470000D03*
X183930000Y-45550000D03*
X185640000Y-45620000D03*
X182290000Y-47780000D03*
X185380000Y-47780000D03*
X135830000Y-49230000D03*
X135980000Y-50850000D03*
X135810000Y-52590000D03*
X138160000Y-49170000D03*
X138160000Y-50990000D03*
X138050000Y-52740000D03*
D25*
X143730000Y-71400000D03*
X136840000Y-71650000D03*
X130820000Y-75480000D03*
X125830000Y-75520000D03*
X125990000Y-66020000D03*
X130990000Y-66100000D03*
X126050000Y-84000000D03*
X130950000Y-84010000D03*
X93160000Y-125290000D03*
X92850000Y-130580000D03*
D27*
X123970000Y-110570000D03*
X125700000Y-110600000D03*
X122290000Y-110500000D03*
X122210000Y-112670000D03*
X123930000Y-112610000D03*
X125650000Y-112580000D03*
D26*
X139650000Y-115050000D03*
D25*
X149010000Y-93090000D03*
X149070000Y-98180000D03*
X143070000Y-98120000D03*
X143080000Y-93040000D03*
X144880000Y-90700000D03*
X160900000Y-71440000D03*
X157320000Y-71460000D03*
X208550000Y-127600000D03*
D26*
X150380000Y-124225010D03*
D25*
X98150000Y-98250000D03*
X94560000Y-97140000D03*
X90325010Y-94901398D03*
D24*
X130988371Y-117154436D03*
X112840000Y-120600000D03*
X116520000Y-120630000D03*
X124010000Y-117650000D03*
D26*
X102540000Y-113340000D03*
X194630000Y-53170000D03*
X157810000Y-98120000D03*
X143470000Y-43520000D03*
X153080000Y-42610000D03*
X156855010Y-100079352D03*
X157890000Y-90290000D03*
D25*
X149580000Y-78320000D03*
X149600000Y-79390000D03*
X150570000Y-78410000D03*
X150600000Y-79420000D03*
X148560000Y-78320000D03*
X148540000Y-79310000D03*
D24*
X133710000Y-122620000D03*
X133730000Y-121390000D03*
D26*
X164290000Y-117690000D03*
X169654968Y-131620000D03*
X166656709Y-125888482D03*
X156700000Y-123975000D03*
X125050000Y-76800000D03*
X174925000Y-70275000D03*
X167850000Y-106675000D03*
X189325000Y-124650000D03*
X175075000Y-110500000D03*
X178975000Y-110425000D03*
X179700000Y-106550000D03*
X175100000Y-105525000D03*
X189300000Y-119925000D03*
X184650000Y-118925000D03*
X184775000Y-91675000D03*
X188375000Y-91725000D03*
X186675000Y-83750000D03*
D24*
X173650000Y-87975000D03*
D25*
X144899990Y-112270000D03*
D26*
X138896994Y-104129519D03*
X155725000Y-118800000D03*
X155825000Y-120125000D03*
X155775000Y-121400000D03*
X208300000Y-57150000D03*
X211275000Y-54875000D03*
X210575000Y-48350000D03*
D25*
X173375000Y-63050000D03*
D26*
X203640327Y-51506428D03*
D25*
X192150000Y-55625000D03*
X187950000Y-59400000D03*
D26*
X189475000Y-68750000D03*
X189350000Y-69750000D03*
D24*
X183925000Y-59200000D03*
X183375000Y-60575000D03*
D26*
X163150000Y-96800000D03*
X181400000Y-64300000D03*
X182525000Y-67350000D03*
X175891949Y-67791949D03*
X180495551Y-69229449D03*
X161605000Y-117540000D03*
D25*
X176825010Y-63175000D03*
D26*
X189125000Y-97500000D03*
X183475000Y-97500000D03*
X189150000Y-106550000D03*
X184775000Y-105400000D03*
X184675000Y-110250000D03*
X189075000Y-111425000D03*
X179650000Y-120450000D03*
X175400000Y-118825000D03*
X177600000Y-80475021D03*
D24*
X173669912Y-94125010D03*
X178612065Y-94125010D03*
D26*
X162475590Y-133014990D03*
X163104449Y-105520551D03*
X178750000Y-123649990D03*
X175050000Y-123649990D03*
X160348247Y-111081914D03*
X185151884Y-123650010D03*
X162484990Y-123380000D03*
X124150000Y-90050000D03*
X122950000Y-86525000D03*
X132850000Y-57175000D03*
X153425000Y-58025000D03*
X166039845Y-66014845D03*
X202275000Y-52775000D03*
X195250000Y-56600000D03*
X196736802Y-56727136D03*
X204450000Y-58075000D03*
X186750000Y-63125000D03*
X180650000Y-70525000D03*
D24*
X150000000Y-115090000D03*
D26*
X146920000Y-126900000D03*
D25*
X134780000Y-96950000D03*
X125070000Y-96910000D03*
X135480000Y-75620000D03*
X135730000Y-83920000D03*
X143770000Y-72670000D03*
X137030000Y-73640000D03*
D26*
X157937191Y-93284052D03*
X135030000Y-67940000D03*
D24*
X136010000Y-122470000D03*
X135990000Y-119860000D03*
X136000000Y-121130000D03*
D26*
X166820883Y-119179729D03*
X161230000Y-131320000D03*
X164387949Y-133231450D03*
X167553637Y-116637195D03*
X168502334Y-135064990D03*
X169490000Y-133140000D03*
X165430000Y-117620000D03*
X163010011Y-117588614D03*
X118675000Y-120750000D03*
X131875000Y-115150000D03*
X168775000Y-82975000D03*
X166050021Y-128028479D03*
X137967521Y-99140000D03*
X162720000Y-126994991D03*
X153200000Y-126994991D03*
X155075000Y-117875000D03*
X175650000Y-64100000D03*
X172475000Y-71025000D03*
X168575000Y-72200000D03*
X156925021Y-95230000D03*
X165875000Y-92925000D03*
D25*
X170175000Y-60800000D03*
X170811658Y-59963022D03*
D24*
X176292869Y-59902287D03*
X165425000Y-56350000D03*
D25*
X191025000Y-66150000D03*
X187537340Y-61737340D03*
D26*
X95100000Y-95250000D03*
D25*
X94565021Y-110793138D03*
D26*
X192125000Y-88675000D03*
X167970215Y-121605886D03*
X169575000Y-123475000D03*
X179050000Y-122875000D03*
X203725000Y-113525000D03*
X171100000Y-126525000D03*
X190825000Y-122425000D03*
X202100000Y-110925000D03*
X210975010Y-106804502D03*
X163075000Y-122550000D03*
X189125000Y-122900000D03*
X203925000Y-107200000D03*
X211220189Y-100561765D03*
X167336631Y-122259471D03*
X168877211Y-126205785D03*
X177925000Y-128550000D03*
X185225000Y-128450000D03*
X202800000Y-107200000D03*
X170097011Y-126559786D03*
X192187748Y-123039757D03*
X201900000Y-100000000D03*
X164396630Y-110088061D03*
X191375000Y-103475000D03*
X164775000Y-105550000D03*
X163300000Y-104650000D03*
X171975000Y-104100010D03*
X138840000Y-82930000D03*
X147490000Y-84240000D03*
X162900000Y-85450000D03*
X164800000Y-85150000D03*
X182050000Y-71250000D03*
X195300000Y-63350000D03*
D25*
X202199979Y-96678239D03*
X203800160Y-99125160D03*
X201432316Y-97319112D03*
X202937660Y-99987660D03*
D26*
X189575000Y-104050000D03*
X170300000Y-104675000D03*
X159200000Y-91475000D03*
X164650000Y-90950000D03*
X167750000Y-91150000D03*
X173925000Y-90100000D03*
X190050000Y-87350000D03*
X161650000Y-126025000D03*
X169389457Y-126933130D03*
X163550000Y-127725000D03*
X168674954Y-127525010D03*
D25*
X149603074Y-118593262D03*
D26*
X161630000Y-123370000D03*
X161490000Y-121320000D03*
X165146565Y-123025010D03*
D28*
X161250000Y-74550000D03*
D25*
X150948544Y-119676776D03*
D26*
X162850000Y-98925000D03*
X162649718Y-101110967D03*
D28*
X163521812Y-74530110D03*
D26*
X165229449Y-121279449D03*
X203200000Y-61750000D03*
X206075000Y-61675000D03*
X160930000Y-75400000D03*
X162475000Y-75225000D03*
D25*
X175784999Y-101715001D03*
X181318177Y-114170020D03*
D26*
X211325000Y-93850000D03*
X201700000Y-93975000D03*
X202525000Y-95275000D03*
X212525000Y-96225000D03*
D25*
X181600000Y-115300000D03*
D26*
X143980000Y-81670000D03*
X145675000Y-82275000D03*
X157400000Y-81050000D03*
X167625000Y-80975000D03*
X191425000Y-84725000D03*
X191875000Y-86359990D03*
X137760000Y-77080000D03*
X139140000Y-75670000D03*
X157180000Y-73800000D03*
X178600000Y-63675000D03*
X173100010Y-70067227D03*
X163919925Y-73894482D03*
X137770000Y-79090000D03*
X140460000Y-79030000D03*
X137675010Y-84590000D03*
X136208051Y-95941949D03*
X144930000Y-86980000D03*
X142824979Y-89690000D03*
X154700000Y-74640000D03*
X172300000Y-65925000D03*
X171778302Y-61080597D03*
X171283925Y-69640011D03*
X172099981Y-68323565D03*
X163739972Y-73114972D03*
X130310000Y-68250000D03*
X130410000Y-71770000D03*
X135230000Y-77730000D03*
X146053529Y-83365010D03*
X162475000Y-81525000D03*
X164575000Y-79850000D03*
X171525000Y-71175000D03*
X172675000Y-63750000D03*
X93447326Y-100855043D03*
X102080000Y-97360000D03*
X140585010Y-81391599D03*
X146600576Y-81941677D03*
X98250000Y-91750000D03*
X100150000Y-92050000D03*
X137900000Y-77950000D03*
X150200000Y-73225000D03*
X161900000Y-115075000D03*
X163950000Y-115150000D03*
X170225000Y-124275000D03*
X179575000Y-124575000D03*
X185532149Y-126160501D03*
X182163370Y-126174990D03*
X162550000Y-114450000D03*
X164475000Y-114500000D03*
X179425000Y-125450000D03*
X171117429Y-124922120D03*
X163300000Y-113825000D03*
X165075000Y-113825000D03*
X178650000Y-126150000D03*
X172558594Y-126102818D03*
X162250000Y-111700000D03*
X165925000Y-111600000D03*
X152350000Y-109075000D03*
X165950000Y-109075000D03*
X153277548Y-110175871D03*
X155973383Y-109850010D03*
X188900000Y-112725000D03*
X159764526Y-109900010D03*
X167425000Y-108275000D03*
X160199994Y-106819990D03*
X162050000Y-105750000D03*
X167830362Y-107549269D03*
X166875000Y-109000000D03*
X160623512Y-107678204D03*
X152900000Y-103425000D03*
X164800000Y-101200000D03*
X182150000Y-99025000D03*
X185250000Y-98950000D03*
X164350000Y-91825000D03*
X168500000Y-92025000D03*
X171650000Y-92725000D03*
X158677713Y-92425020D03*
X151649990Y-107391879D03*
X163729309Y-108649990D03*
X162024990Y-86768051D03*
X164425032Y-87073156D03*
X162000000Y-85950000D03*
X164850000Y-86100000D03*
X164350000Y-83200000D03*
X162525000Y-84200000D03*
D25*
X146310000Y-115480000D03*
X146548076Y-112602929D03*
D26*
X164950010Y-82175000D03*
X162499968Y-82619669D03*
X171300000Y-93700000D03*
X181400000Y-95200000D03*
X188725000Y-96050000D03*
X199775000Y-96050000D03*
X154579217Y-96504424D03*
X143640000Y-94840000D03*
X146350000Y-93810000D03*
X181625000Y-90775000D03*
X170551191Y-93418390D03*
X155101120Y-94223493D03*
X125870000Y-61640000D03*
X131290000Y-61630000D03*
X135655010Y-71060000D03*
X135655010Y-69143380D03*
X138751524Y-83996714D03*
X139480000Y-86020010D03*
X134980000Y-95020000D03*
X143025000Y-104450000D03*
X145625000Y-111125000D03*
X145525000Y-113925000D03*
X145315103Y-105818796D03*
X163735010Y-123030000D03*
X138750000Y-106375000D03*
X146150000Y-107375000D03*
X146525000Y-110375000D03*
X164550000Y-120075000D03*
D25*
X96175000Y-91225000D03*
D26*
X93250000Y-94775000D03*
X89875000Y-100175000D03*
X109450000Y-89775000D03*
D25*
X100667510Y-95704043D03*
X92665010Y-98588823D03*
D26*
X185925000Y-72675000D03*
X188075000Y-73025000D03*
D28*
X147300000Y-101975000D03*
D26*
X153034715Y-105900817D03*
D28*
X148100000Y-102075000D03*
D26*
X153683121Y-105432213D03*
X113125000Y-75125000D03*
X114400000Y-53100000D03*
D28*
X153950201Y-102550201D03*
D25*
X190300000Y-99725000D03*
X159425000Y-102549990D03*
X180400160Y-98299990D03*
D26*
X114719999Y-86105001D03*
X115680001Y-86105001D03*
X116755001Y-86105001D03*
X99950000Y-102700000D03*
X100675000Y-101775000D03*
X198850000Y-54674989D03*
X198850000Y-56075000D03*
D29*
X123930000Y-112610000D02*
X123940000Y-112600000D01*
D30*
X124150000Y-87725000D02*
X122950000Y-86525000D01*
X124150000Y-90050000D02*
X124150000Y-87725000D01*
X132850000Y-57175000D02*
X146950000Y-57175000D01*
X146950000Y-57175000D02*
X148000000Y-58225000D01*
X153225000Y-58225000D02*
X153425000Y-58025000D01*
X148000000Y-58225000D02*
X153225000Y-58225000D01*
X167870000Y-67840000D02*
X166044845Y-66014845D01*
X166044845Y-66014845D02*
X166039845Y-66014845D01*
D31*
X203032800Y-47629600D02*
X203032800Y-50342200D01*
X203032800Y-50342200D02*
X202600000Y-50775000D01*
X202600000Y-52450000D02*
X202275000Y-52775000D01*
X202600000Y-50775000D02*
X202600000Y-52450000D01*
D30*
X195250000Y-56600000D02*
X196609666Y-56600000D01*
X196609666Y-56600000D02*
X196736802Y-56727136D01*
D31*
X202275000Y-55900000D02*
X202275000Y-52775000D01*
X204450000Y-58075000D02*
X202275000Y-55900000D01*
D30*
X186750000Y-63125000D02*
X186750000Y-66225000D01*
X182450000Y-70525000D02*
X180650000Y-70525000D01*
X186750000Y-66225000D02*
X182450000Y-70525000D01*
X135030000Y-71640000D02*
X137030000Y-73640000D01*
X135030000Y-67940000D02*
X135030000Y-71640000D01*
X118675000Y-120750000D02*
X120425000Y-119000000D01*
X120425000Y-119000000D02*
X127450000Y-119000000D01*
X131300000Y-115150000D02*
X131875000Y-115150000D01*
X127450000Y-119000000D02*
X131300000Y-115150000D01*
X175650000Y-64100000D02*
X175325000Y-64425000D01*
X175325000Y-64425000D02*
X175325000Y-66775000D01*
X172475000Y-69625000D02*
X172475000Y-71025000D01*
X175325000Y-66775000D02*
X172475000Y-69625000D01*
X165515948Y-93284052D02*
X165875000Y-92925000D01*
X157937191Y-93284052D02*
X165515948Y-93284052D01*
D29*
X170811658Y-60163342D02*
X170811658Y-59963022D01*
X170175000Y-60800000D02*
X170811658Y-60163342D01*
X170811658Y-59963022D02*
X176032277Y-59963022D01*
X176232134Y-59963022D02*
X176292869Y-59902287D01*
X176032277Y-59963022D02*
X176232134Y-59963022D01*
D32*
X198700000Y-77105000D02*
X196440000Y-79365000D01*
X198700000Y-63725000D02*
X198700000Y-77105000D01*
X196500000Y-61525000D02*
X198700000Y-63725000D01*
X192825000Y-61525000D02*
X196500000Y-61525000D01*
X188340010Y-57040010D02*
X192825000Y-61525000D01*
X166115010Y-57040010D02*
X188340010Y-57040010D01*
X165425000Y-56350000D02*
X166115010Y-57040010D01*
D29*
X191025000Y-65225000D02*
X187537340Y-61737340D01*
X191025000Y-66150000D02*
X191025000Y-65225000D01*
D30*
X91940000Y-98021411D02*
X94711411Y-95250000D01*
X91599500Y-102674200D02*
X92812977Y-101460723D01*
X92812977Y-101460723D02*
X92812977Y-99802977D01*
X92812977Y-99802977D02*
X91940000Y-98930000D01*
X91940000Y-98930000D02*
X91940000Y-98021411D01*
X94711411Y-95250000D02*
X95100000Y-95250000D01*
X92689059Y-112669100D02*
X94565021Y-110793138D01*
X91599500Y-112669100D02*
X92689059Y-112669100D01*
X192639999Y-88160001D02*
X195339999Y-88160001D01*
X192125000Y-88675000D02*
X192639999Y-88160001D01*
X196440000Y-87060000D02*
X196440000Y-86985000D01*
X195339999Y-88160001D02*
X196440000Y-87060000D01*
X207075000Y-113525000D02*
X208345000Y-112255000D01*
X203725000Y-113525000D02*
X207075000Y-113525000D01*
X169575000Y-123475000D02*
X174311410Y-123475000D01*
X174311410Y-123475000D02*
X174911410Y-122875000D01*
X174911410Y-122875000D02*
X178625736Y-122875000D01*
X178625736Y-122875000D02*
X179050000Y-122875000D01*
X172096877Y-126525000D02*
X172371877Y-126800000D01*
X171100000Y-126525000D02*
X172096877Y-126525000D01*
X172371877Y-126800000D02*
X188850000Y-126800000D01*
X190825000Y-124825000D02*
X190825000Y-122425000D01*
X188850000Y-126800000D02*
X190825000Y-124825000D01*
X202100000Y-110925000D02*
X204550000Y-108475000D01*
X207045000Y-108475000D02*
X208345000Y-107175000D01*
X204550000Y-108475000D02*
X207045000Y-108475000D01*
X210514502Y-106804502D02*
X210975010Y-106804502D01*
X208345000Y-104635000D02*
X210514502Y-106804502D01*
X163075000Y-122550000D02*
X165200000Y-120425000D01*
X165200000Y-120425000D02*
X168075000Y-120425000D01*
X168075000Y-120425000D02*
X170650000Y-123000000D01*
X170650000Y-123000000D02*
X174150000Y-123000000D01*
X174150000Y-123000000D02*
X175850000Y-121300000D01*
X175850000Y-121300000D02*
X179475000Y-121300000D01*
X179475000Y-121300000D02*
X181450000Y-123275000D01*
X181450000Y-123275000D02*
X184250000Y-123275000D01*
X184625000Y-122900000D02*
X189125000Y-122900000D01*
X184250000Y-123275000D02*
X184625000Y-122900000D01*
X205125001Y-105999999D02*
X206375001Y-105999999D01*
X203925000Y-107200000D02*
X205125001Y-105999999D01*
X207169999Y-103270001D02*
X208345000Y-102095000D01*
X207169999Y-105205001D02*
X207169999Y-103270001D01*
X206375001Y-105999999D02*
X207169999Y-105205001D01*
X208345000Y-99555000D02*
X210213424Y-99555000D01*
X210213424Y-99555000D02*
X211220189Y-100561765D01*
X167336631Y-124665205D02*
X168877211Y-126205785D01*
X167336631Y-122259471D02*
X167336631Y-124665205D01*
X202800000Y-107200000D02*
X203950000Y-106050000D01*
X203950000Y-106050000D02*
X203950000Y-104250000D01*
X207169999Y-98190001D02*
X208345000Y-97015000D01*
X207169999Y-102469003D02*
X207169999Y-98190001D01*
X206179003Y-103459999D02*
X207169999Y-102469003D01*
X204740001Y-103459999D02*
X206179003Y-103459999D01*
X203950000Y-104250000D02*
X204740001Y-103459999D01*
X172087225Y-128550000D02*
X170097011Y-126559786D01*
X177925000Y-128550000D02*
X172087225Y-128550000D01*
X188675000Y-128450000D02*
X192187748Y-124937252D01*
X185225000Y-128450000D02*
X188675000Y-128450000D01*
X192187748Y-124937252D02*
X192187748Y-123039757D01*
X173450000Y-104675000D02*
X168036939Y-110088061D01*
X168036939Y-110088061D02*
X164396630Y-110088061D01*
X193199999Y-103400001D02*
X191550000Y-105050000D01*
X201900000Y-100000000D02*
X198499999Y-103400001D01*
X189500000Y-105050000D02*
X189125000Y-104675000D01*
X198499999Y-103400001D02*
X193199999Y-103400001D01*
X191550000Y-105050000D02*
X189500000Y-105050000D01*
X189125000Y-104675000D02*
X173450000Y-104675000D01*
X164200000Y-105550000D02*
X163300000Y-104650000D01*
X164775000Y-105550000D02*
X164200000Y-105550000D01*
X191375000Y-103475000D02*
X191075001Y-103175001D01*
X191075001Y-103175001D02*
X172900009Y-103175001D01*
X172900009Y-103175001D02*
X172274999Y-103800011D01*
X172274999Y-103800011D02*
X171975000Y-104100010D01*
X138840000Y-82930000D02*
X139810000Y-83900000D01*
X139810000Y-83900000D02*
X139810000Y-84470000D01*
X140040000Y-84240000D02*
X147490000Y-84240000D01*
X139810000Y-84470000D02*
X140040000Y-84240000D01*
X164500000Y-85450000D02*
X164800000Y-85150000D01*
X162900000Y-85450000D02*
X164500000Y-85450000D01*
X182050000Y-71250000D02*
X183000000Y-71250000D01*
X183000000Y-71250000D02*
X183275000Y-71250000D01*
X183275000Y-71250000D02*
X187175000Y-67350000D01*
X187175000Y-67350000D02*
X191150000Y-67350000D01*
X195150000Y-63350000D02*
X195300000Y-63350000D01*
X191150000Y-67350000D02*
X195150000Y-63350000D01*
X202199979Y-96678239D02*
X203800160Y-98278420D01*
X203800160Y-98278420D02*
X203800160Y-99125160D01*
X202937660Y-98824456D02*
X202937660Y-99987660D01*
X201432316Y-97319112D02*
X202937660Y-98824456D01*
X189575000Y-104050000D02*
X189200000Y-103675000D01*
X189200000Y-103675000D02*
X173300000Y-103675000D01*
X171900000Y-105075000D02*
X171800000Y-105075000D01*
X173300000Y-103675000D02*
X171900000Y-105075000D01*
X170700000Y-105075000D02*
X170300000Y-104675000D01*
X171900000Y-105075000D02*
X170700000Y-105075000D01*
X159200000Y-91475000D02*
X163250000Y-91475000D01*
X163775000Y-90950000D02*
X164650000Y-90950000D01*
X163250000Y-91475000D02*
X163775000Y-90950000D01*
X167750000Y-91150000D02*
X169200000Y-91150000D01*
X172875000Y-91150000D02*
X173925000Y-90100000D01*
X169200000Y-91150000D02*
X172875000Y-91150000D01*
X190050000Y-87350000D02*
X190415000Y-86985000D01*
X190415000Y-86985000D02*
X193900000Y-86985000D01*
X163625000Y-126025000D02*
X164500000Y-126900000D01*
X169356327Y-126900000D02*
X169389457Y-126933130D01*
X161650000Y-126025000D02*
X163625000Y-126025000D01*
X164500000Y-126900000D02*
X169356327Y-126900000D01*
X163892479Y-127382521D02*
X168532465Y-127382521D01*
X168532465Y-127382521D02*
X168674954Y-127525010D01*
X163550000Y-127725000D02*
X163892479Y-127382521D01*
X161630000Y-121460000D02*
X161490000Y-121320000D01*
X161630000Y-123370000D02*
X161630000Y-121460000D01*
X150686588Y-119676776D02*
X150948544Y-119676776D01*
X149603074Y-118593262D02*
X150686588Y-119676776D01*
X162850000Y-100910685D02*
X162649718Y-101110967D01*
X162850000Y-98925000D02*
X162850000Y-100910685D01*
X163501922Y-74550000D02*
X163521812Y-74530110D01*
X161250000Y-74550000D02*
X163501922Y-74550000D01*
X165146565Y-121362333D02*
X165229449Y-121279449D01*
X165146565Y-123025010D02*
X165146565Y-121362333D01*
X206000000Y-61750000D02*
X206075000Y-61675000D01*
X203200000Y-61750000D02*
X206000000Y-61750000D01*
X161105000Y-75225000D02*
X160930000Y-75400000D01*
X162475000Y-75225000D02*
X161105000Y-75225000D01*
D29*
X181725000Y-101475000D02*
X190675000Y-101475000D01*
X192465000Y-99685000D02*
X193900000Y-99685000D01*
X190675000Y-101475000D02*
X192465000Y-99685000D01*
D31*
X176025000Y-101475000D02*
X175784999Y-101715001D01*
X181725000Y-101475000D02*
X176025000Y-101475000D01*
X182013197Y-113475000D02*
X181318177Y-114170020D01*
X193900000Y-109845000D02*
X190270000Y-113475000D01*
X190270000Y-113475000D02*
X182013197Y-113475000D01*
D30*
X210750000Y-93275000D02*
X201136410Y-93275000D01*
X211325000Y-93850000D02*
X210750000Y-93275000D01*
X201136410Y-93275000D02*
X200736400Y-92874989D01*
X200736400Y-92874989D02*
X197249989Y-92874989D01*
X197249989Y-92874989D02*
X196440000Y-92065000D01*
X193900000Y-92065000D02*
X195160000Y-93325000D01*
X195160000Y-93325000D02*
X200550000Y-93325000D01*
X201200000Y-93975000D02*
X201700000Y-93975000D01*
X200550000Y-93325000D02*
X201200000Y-93975000D01*
X203089999Y-95839999D02*
X212139999Y-95839999D01*
X202525000Y-95275000D02*
X203089999Y-95839999D01*
X212139999Y-95839999D02*
X212525000Y-96225000D01*
D29*
X181600000Y-115300000D02*
X190985000Y-115300000D01*
X190985000Y-115300000D02*
X193900000Y-112385000D01*
D30*
X143980000Y-81670000D02*
X145045000Y-81670000D01*
X145650000Y-82275000D02*
X145675000Y-82275000D01*
X145045000Y-81670000D02*
X145650000Y-82275000D01*
X157400000Y-81050000D02*
X161900000Y-81050000D01*
X161900000Y-81050000D02*
X164175000Y-78775000D01*
X164175000Y-78775000D02*
X164925000Y-78775000D01*
X167125000Y-80975000D02*
X167625000Y-80975000D01*
X164925000Y-78775000D02*
X167125000Y-80975000D01*
X191425000Y-85909990D02*
X191875000Y-86359990D01*
X191425000Y-84725000D02*
X191425000Y-85909990D01*
X137760000Y-77050000D02*
X139140000Y-75670000D01*
X137760000Y-77080000D02*
X137760000Y-77050000D01*
X173100010Y-69642963D02*
X173100010Y-70067227D01*
X178600000Y-64142973D02*
X173100010Y-69642963D01*
X178600000Y-63675000D02*
X178600000Y-64142973D01*
X157180000Y-73800000D02*
X163825443Y-73800000D01*
X163825443Y-73800000D02*
X163919925Y-73894482D01*
D32*
X129300000Y-133380000D02*
X129300000Y-135920000D01*
X125349982Y-129429982D02*
X129300000Y-133380000D01*
X95600000Y-117672900D02*
X96037547Y-117672900D01*
X96037547Y-117672900D02*
X107794629Y-129429982D01*
X107794629Y-129429982D02*
X125349982Y-129429982D01*
X136920000Y-133380000D02*
X136920000Y-135920000D01*
X98919978Y-107913748D02*
X98919978Y-115464120D01*
X129369949Y-125829949D02*
X136920000Y-133380000D01*
X96677630Y-105671400D02*
X98919978Y-107913748D01*
X109285807Y-125829949D02*
X129369949Y-125829949D01*
X95600000Y-105671400D02*
X96677630Y-105671400D01*
X98919978Y-115464120D02*
X109285807Y-125829949D01*
X124220000Y-133380000D02*
X124220000Y-135920000D01*
X106800505Y-131829999D02*
X122669999Y-131829999D01*
X95600000Y-121673400D02*
X96643906Y-121673400D01*
X122669999Y-131829999D02*
X124220000Y-133380000D01*
X96643906Y-121673400D02*
X106800505Y-131829999D01*
X96677630Y-101670900D02*
X101320000Y-106313270D01*
X95600000Y-101670900D02*
X96677630Y-101670900D01*
X101320000Y-106313270D02*
X101320000Y-114470001D01*
X110279921Y-123429922D02*
X131319922Y-123429922D01*
X101320000Y-114470001D02*
X110279921Y-123429922D01*
X131319922Y-123429922D02*
X139050000Y-131160000D01*
X139780000Y-131160000D02*
X142000000Y-133380000D01*
X139050000Y-131160000D02*
X139780000Y-131160000D01*
X142000000Y-133380000D02*
X142000000Y-135920000D01*
X95600000Y-103677500D02*
X96677630Y-103677500D01*
X96677630Y-103677500D02*
X100119989Y-107119859D01*
X100119989Y-107119859D02*
X100119989Y-114967060D01*
X109782867Y-124629938D02*
X130709938Y-124629938D01*
X130709938Y-124629938D02*
X139460000Y-133380000D01*
X100119989Y-114967060D02*
X109782867Y-124629938D01*
X139460000Y-133380000D02*
X139460000Y-135920000D01*
X126760000Y-133380000D02*
X126760000Y-135920000D01*
X96347077Y-119679500D02*
X107297570Y-130629993D01*
X107297570Y-130629993D02*
X124009993Y-130629993D01*
X124009993Y-130629993D02*
X126760000Y-133380000D01*
X95600000Y-119679500D02*
X96347077Y-119679500D01*
X95600000Y-107678000D02*
X96677630Y-107678000D01*
X128029960Y-127029960D02*
X134380000Y-133380000D01*
X97719967Y-115961180D02*
X108788747Y-127029960D01*
X97719967Y-108720337D02*
X97719967Y-115961180D01*
X96677630Y-107678000D02*
X97719967Y-108720337D01*
X108788747Y-127029960D02*
X128029960Y-127029960D01*
X134380000Y-133380000D02*
X134380000Y-135920000D01*
X131840000Y-133380000D02*
X131840000Y-135920000D01*
X95740717Y-115679000D02*
X108291688Y-128229971D01*
X95600000Y-115679000D02*
X95740717Y-115679000D01*
X108291688Y-128229971D02*
X126689971Y-128229971D01*
X126689971Y-128229971D02*
X131840000Y-133380000D01*
D30*
X140400000Y-79090000D02*
X140460000Y-79030000D01*
X137770000Y-79090000D02*
X140400000Y-79090000D01*
X137675010Y-84590000D02*
X137675010Y-94474990D01*
X137675010Y-94474990D02*
X136208051Y-95941949D01*
X142824979Y-89085021D02*
X142824979Y-89690000D01*
X144930000Y-86980000D02*
X142824979Y-89085021D01*
X172300000Y-65925000D02*
X171778302Y-65403302D01*
X171778302Y-65403302D02*
X171778302Y-61080597D01*
X171283925Y-69640011D02*
X171283925Y-69139621D01*
X171283925Y-69139621D02*
X172099981Y-68323565D01*
X156225028Y-73114972D02*
X163739972Y-73114972D01*
X154700000Y-74640000D02*
X156225028Y-73114972D01*
X130310000Y-71670000D02*
X130410000Y-71770000D01*
X130310000Y-68250000D02*
X130310000Y-71670000D01*
X140865010Y-83365010D02*
X146053529Y-83365010D01*
X135230000Y-77730000D02*
X140865010Y-83365010D01*
X162900000Y-81525000D02*
X164575000Y-79850000D01*
X162475000Y-81525000D02*
X162900000Y-81525000D01*
X172974999Y-64049999D02*
X172675000Y-63750000D01*
X172974999Y-68361393D02*
X172974999Y-64049999D01*
X171908927Y-69427465D02*
X172974999Y-68361393D01*
X171525000Y-70750736D02*
X171908927Y-70366809D01*
X171525000Y-71175000D02*
X171525000Y-70750736D01*
X171908927Y-70366809D02*
X171908927Y-69427465D01*
X93447326Y-100855043D02*
X94160000Y-100142369D01*
X94160000Y-100142369D02*
X94160000Y-98640000D01*
X94160000Y-98640000D02*
X96080000Y-96720000D01*
X101440000Y-96720000D02*
X102080000Y-97360000D01*
X96080000Y-96720000D02*
X101440000Y-96720000D01*
X140946609Y-81030000D02*
X145688899Y-81030000D01*
X140585010Y-81391599D02*
X140946609Y-81030000D01*
X145688899Y-81030000D02*
X146600576Y-81941677D01*
X99850000Y-91750000D02*
X100150000Y-92050000D01*
X98250000Y-91750000D02*
X99850000Y-91750000D01*
X137900000Y-77950000D02*
X138500000Y-77950000D01*
X138500000Y-77950000D02*
X140850000Y-75600000D01*
X147825000Y-75600000D02*
X150200000Y-73225000D01*
X140850000Y-75600000D02*
X147825000Y-75600000D01*
X163875000Y-115075000D02*
X163950000Y-115150000D01*
X161900000Y-115075000D02*
X163875000Y-115075000D01*
X179275000Y-124275000D02*
X179575000Y-124575000D01*
X170225000Y-124275000D02*
X179275000Y-124275000D01*
X182177859Y-126160501D02*
X182163370Y-126174990D01*
X185532149Y-126160501D02*
X182177859Y-126160501D01*
X164425000Y-114450000D02*
X164475000Y-114500000D01*
X162550000Y-114450000D02*
X164425000Y-114450000D01*
X171645309Y-125450000D02*
X171117429Y-124922120D01*
X179425000Y-125450000D02*
X171645309Y-125450000D01*
X163300000Y-113825000D02*
X165075000Y-113825000D01*
X178650000Y-126150000D02*
X172605776Y-126150000D01*
X172605776Y-126150000D02*
X172558594Y-126102818D01*
X162250000Y-111700000D02*
X163275000Y-111700000D01*
X163375000Y-111600000D02*
X165925000Y-111600000D01*
X163275000Y-111700000D02*
X163375000Y-111600000D01*
X152350000Y-109075000D02*
X152500000Y-109225000D01*
X152500000Y-109225000D02*
X159350000Y-109225000D01*
X159350000Y-109225000D02*
X162575000Y-109225000D01*
X162575000Y-109225000D02*
X163100000Y-109225000D01*
X163100000Y-109225000D02*
X163150000Y-109275000D01*
X165750000Y-109275000D02*
X165950000Y-109075000D01*
X163150000Y-109275000D02*
X165750000Y-109275000D01*
X155647522Y-110175871D02*
X155973383Y-109850010D01*
X153277548Y-110175871D02*
X155647522Y-110175871D01*
X171300000Y-110800000D02*
X161088780Y-110800000D01*
X173225000Y-112725000D02*
X171300000Y-110800000D01*
X161088780Y-110800000D02*
X160188790Y-109900010D01*
X188900000Y-112725000D02*
X173225000Y-112725000D01*
X160188790Y-109900010D02*
X159764526Y-109900010D01*
X166724978Y-107574978D02*
X161445288Y-107574978D01*
X167425000Y-108275000D02*
X166724978Y-107574978D01*
X161445288Y-107574978D02*
X160690300Y-106819990D01*
X160690300Y-106819990D02*
X160199994Y-106819990D01*
X162050000Y-105750000D02*
X163424967Y-107124967D01*
X163424967Y-107124967D02*
X167406060Y-107124967D01*
X167406060Y-107124967D02*
X167830362Y-107549269D01*
X160970297Y-108024989D02*
X160623512Y-107678204D01*
X165899989Y-108024989D02*
X160970297Y-108024989D01*
X166875000Y-109000000D02*
X165899989Y-108024989D01*
X152900000Y-103425000D02*
X161550000Y-103425000D01*
X163775000Y-101200000D02*
X164800000Y-101200000D01*
X161550000Y-103425000D02*
X163775000Y-101200000D01*
X185175000Y-99025000D02*
X185250000Y-98950000D01*
X182150000Y-99025000D02*
X185175000Y-99025000D01*
X169200000Y-92725000D02*
X171650000Y-92725000D01*
X168500000Y-92025000D02*
X169200000Y-92725000D01*
X163749980Y-92425020D02*
X158677713Y-92425020D01*
X164350000Y-91825000D02*
X163749980Y-92425020D01*
X152908101Y-108649990D02*
X163729309Y-108649990D01*
X151649990Y-107391879D02*
X152908101Y-108649990D01*
X162024990Y-86768051D02*
X162330095Y-87073156D01*
X162330095Y-87073156D02*
X164425032Y-87073156D01*
X162000000Y-85950000D02*
X162125000Y-86075000D01*
X164825000Y-86075000D02*
X164850000Y-86100000D01*
X162125000Y-86075000D02*
X164825000Y-86075000D01*
X163525000Y-83200000D02*
X162525000Y-84200000D01*
X164350000Y-83200000D02*
X163525000Y-83200000D01*
X146310000Y-112841005D02*
X146548076Y-112602929D01*
X146310000Y-115480000D02*
X146310000Y-112841005D01*
X162499968Y-82619669D02*
X162944637Y-82175000D01*
X162944637Y-82175000D02*
X164950010Y-82175000D01*
X182250000Y-96050000D02*
X188725000Y-96050000D01*
X181400000Y-95200000D02*
X182250000Y-96050000D01*
X154579217Y-96387621D02*
X154579217Y-96504424D01*
X156466838Y-94500000D02*
X154579217Y-96387621D01*
X170500000Y-94500000D02*
X156466838Y-94500000D01*
X171300000Y-93700000D02*
X170500000Y-94500000D01*
X200724998Y-96050000D02*
X202299998Y-94475000D01*
X199775000Y-96050000D02*
X200724998Y-96050000D01*
X202299998Y-94475000D02*
X205805000Y-94475000D01*
X144670000Y-93810000D02*
X146350000Y-93810000D01*
X143640000Y-94840000D02*
X144670000Y-93810000D01*
X205805000Y-91935000D02*
X199960000Y-91935000D01*
X199960000Y-91935000D02*
X198725001Y-90700001D01*
X181699999Y-90700001D02*
X181625000Y-90775000D01*
X198725001Y-90700001D02*
X181699999Y-90700001D01*
X170551191Y-93418390D02*
X169919592Y-94049989D01*
X155274624Y-94049989D02*
X155101120Y-94223493D01*
X169919592Y-94049989D02*
X155274624Y-94049989D01*
X131280000Y-61640000D02*
X131290000Y-61630000D01*
X125870000Y-61640000D02*
X131280000Y-61640000D01*
X135655010Y-69143380D02*
X135655010Y-71060000D01*
X138751524Y-83996714D02*
X138751524Y-85291534D01*
X138751524Y-85291534D02*
X139480000Y-86020010D01*
X134980000Y-95030000D02*
X134980000Y-95020000D01*
X145625000Y-113825000D02*
X145525000Y-113925000D01*
X145625000Y-111125000D02*
X145625000Y-113825000D01*
X144393796Y-105818796D02*
X145315103Y-105818796D01*
X143025000Y-104450000D02*
X144393796Y-105818796D01*
X146525000Y-110375000D02*
X148600000Y-110375000D01*
X158300000Y-120075000D02*
X164550000Y-120075000D01*
X148600000Y-110375000D02*
X158300000Y-120075000D01*
X139750000Y-107375000D02*
X146150000Y-107375000D01*
X138750000Y-106375000D02*
X139750000Y-107375000D01*
X93250000Y-94775000D02*
X93250000Y-96075000D01*
X89875000Y-99450000D02*
X89875000Y-100175000D01*
X93250000Y-96075000D02*
X89875000Y-99450000D01*
D31*
X120025001Y-62149999D02*
X114000000Y-68175000D01*
X114000000Y-68175000D02*
X114000000Y-84188998D01*
X120025001Y-61755001D02*
X120025001Y-62149999D01*
X114000000Y-84188998D02*
X106963998Y-91225000D01*
X106963998Y-91225000D02*
X98761002Y-91225000D01*
X98761002Y-91225000D02*
X98361003Y-90825001D01*
X98361003Y-90825001D02*
X96574999Y-90825001D01*
X96574999Y-90825001D02*
X96175000Y-91225000D01*
D30*
X120119999Y-79105001D02*
X120125001Y-79105001D01*
X109450000Y-89775000D02*
X120119999Y-79105001D01*
D32*
X109225001Y-68755001D02*
X107060002Y-70920000D01*
X93840000Y-70920000D02*
X91675001Y-68755001D01*
X107060002Y-70920000D02*
X93840000Y-70920000D01*
D30*
X98055000Y-50450000D02*
X101100000Y-50450000D01*
X101100000Y-50450000D02*
X102550000Y-49000000D01*
X106071200Y-49000000D02*
X109175000Y-45896200D01*
X102550000Y-49000000D02*
X106071200Y-49000000D01*
D32*
X115799978Y-55111210D02*
X115649978Y-55261210D01*
X115649978Y-62330024D02*
X109225001Y-68755001D01*
X115649978Y-55261210D02*
X115649978Y-62330024D01*
X115799978Y-48935287D02*
X115799978Y-55111210D01*
X115074691Y-48210000D02*
X115799978Y-48935287D01*
X111833800Y-48210000D02*
X115074691Y-48210000D01*
X109400000Y-45776200D02*
X111833800Y-48210000D01*
X91775001Y-86105001D02*
X97455001Y-86105001D01*
X97455001Y-86105001D02*
X100190000Y-88840000D01*
X100190000Y-88840000D02*
X103910000Y-88840000D01*
X106644999Y-86105001D02*
X109325001Y-86105001D01*
X103910000Y-88840000D02*
X106644999Y-86105001D01*
D29*
X98735998Y-53380000D02*
X98120000Y-53380000D01*
D30*
X98055000Y-52990000D02*
X98055000Y-61570000D01*
X98055000Y-61570000D02*
X93375000Y-66250000D01*
X93375000Y-66250000D02*
X90575000Y-66250000D01*
X90575000Y-66250000D02*
X89450000Y-67375000D01*
X89450000Y-83780000D02*
X91775001Y-86105001D01*
X89450000Y-67375000D02*
X89450000Y-83780000D01*
D32*
X124600000Y-45776200D02*
X122246200Y-48130000D01*
X118710000Y-48130000D02*
X116999989Y-49840011D01*
X122246200Y-48130000D02*
X118710000Y-48130000D01*
X111950000Y-83480002D02*
X109325001Y-86105001D01*
X116999989Y-49840011D02*
X116999989Y-55608270D01*
X116849989Y-63070011D02*
X111950000Y-67970000D01*
X116999989Y-55608270D02*
X116849989Y-55758270D01*
X116849989Y-55758270D02*
X116849989Y-63070011D01*
X111950000Y-67970000D02*
X111950000Y-83480002D01*
D30*
X92665010Y-97982271D02*
X92665010Y-98588823D01*
X95400002Y-95875002D02*
X94772279Y-95875002D01*
X100667510Y-95704043D02*
X95570961Y-95704043D01*
X95570961Y-95704043D02*
X95400002Y-95875002D01*
X94772279Y-95875002D02*
X92665010Y-97982271D01*
X187725000Y-72675000D02*
X188075000Y-73025000D01*
X185925000Y-72675000D02*
X187725000Y-72675000D01*
X147300000Y-101975000D02*
X147300000Y-102328553D01*
X150872264Y-105900817D02*
X153034715Y-105900817D01*
X147300000Y-102328553D02*
X150872264Y-105900817D01*
X148100000Y-102075000D02*
X150325908Y-102075000D01*
X150325908Y-102075000D02*
X153683121Y-105432213D01*
D29*
X93040000Y-53380000D02*
X93040000Y-53620000D01*
D30*
X129303800Y-48253800D02*
X129303800Y-50875000D01*
X108250000Y-44250000D02*
X125300000Y-44250000D01*
X104425000Y-48075000D02*
X108250000Y-44250000D01*
X93600000Y-48475000D02*
X94000000Y-48075000D01*
X92475000Y-48475000D02*
X93600000Y-48475000D01*
X91225000Y-49725000D02*
X92475000Y-48475000D01*
X125300000Y-44250000D02*
X129303800Y-48253800D01*
X94000000Y-48075000D02*
X104425000Y-48075000D01*
X91225000Y-51240000D02*
X91225000Y-49725000D01*
X92975000Y-52990000D02*
X91225000Y-51240000D01*
X129303800Y-50875000D02*
X129303800Y-52071200D01*
X129303800Y-52071200D02*
X127675000Y-53700000D01*
X127675000Y-53700000D02*
X120075000Y-53700000D01*
X120075000Y-53700000D02*
X117675000Y-56100000D01*
X117675000Y-56100000D02*
X117675000Y-63500000D01*
X113125000Y-68050000D02*
X113125000Y-75125000D01*
X117675000Y-63500000D02*
X113125000Y-68050000D01*
X96690001Y-51814999D02*
X99939999Y-51814999D01*
X95515000Y-52990000D02*
X96690001Y-51814999D01*
X99939999Y-51814999D02*
X101275000Y-53150000D01*
X114350000Y-53150000D02*
X114400000Y-53100000D01*
X101275000Y-53150000D02*
X114350000Y-53150000D01*
D31*
X159424789Y-102550201D02*
X159425000Y-102549990D01*
X153950201Y-102550201D02*
X159424789Y-102550201D01*
X190300000Y-99725000D02*
X181825170Y-99725000D01*
X181825170Y-99725000D02*
X180400160Y-98299990D01*
D32*
X114719999Y-86105001D02*
X115680001Y-86105001D01*
X115680001Y-86105001D02*
X116755001Y-86105001D01*
X114719999Y-89655001D02*
X114719999Y-86105001D01*
X104300000Y-100075000D02*
X114719999Y-89655001D01*
X100675000Y-101775000D02*
X102375000Y-100075000D01*
X102375000Y-100075000D02*
X104300000Y-100075000D01*
D30*
X198825000Y-56100000D02*
X198850000Y-56075000D01*
X198850000Y-56075000D02*
X198850000Y-54674989D01*
M02*
