M48
; DRILL file {KiCad 5.1.7-a382d34a88~90~ubuntu20.04.1} date Tue Jan  4 17:50:47 2022
; FORMAT={-:-/ absolute / inch / decimal}
; #@! TF.CreationDate,2022-01-04T17:50:47-06:00
; #@! TF.GenerationSoftware,Kicad,Pcbnew,5.1.7-a382d34a88~90~ubuntu20.04.1
; #@! TF.FileFunction,Plated,1,4,PTH
FMAT,2
INCH
T1C0.0138
T2C0.0157
T3C0.0236
T4C0.0276
T5C0.0300
T6C0.0354
T7C0.0394
T8C0.0472
T9C0.0492
T10C0.0551
T11C0.0591
T12C0.1083
%
G90
G05
T1
X5.7992Y-4.0148
X5.8307Y-4.0187
X6.061Y-4.0374
X6.3484Y-2.935
X6.4379Y-2.9343
T2
X3.5384Y-3.9439
X3.6713Y-3.7313
X3.679Y-3.9707
X3.7441Y-3.75
X3.8681Y-3.6122
X3.935Y-4.0433
X3.9429Y-3.624
X3.9636Y-4.0069
X4.0189Y-3.8331
X4.037Y-4.4622
X4.3091Y-3.5344
X4.4537Y-2.9577
X4.5039Y-2.0906
X4.5165Y-3.39
X4.5543Y-3.39
X4.5967Y-3.39
X4.6722Y-4.7539
X4.8406Y-3.4065
X4.8878Y-3.5453
X4.9232Y-3.0236
X4.9555Y-2.4268
X5.1303Y-2.687
X5.1343Y-2.8256
X5.1689Y-2.4264
X5.1919Y-4.5335
X5.2303Y-2.251
X5.3142Y-3.7409
X5.3161Y-2.6748
X5.324Y-3.0602
X5.3407Y-2.7222
X5.3407Y-2.7976
X5.3625Y-3.7772
X5.4203Y-3.3303
X5.4236Y-3.0346
X5.424Y-3.1138
X5.4291Y-3.0689
X5.4318Y-3.9031
X5.4626Y-4.188
X5.4627Y-3.307
X5.4661Y-3.265
X5.4684Y-4.0996
X5.478Y-2.9791
X5.4913Y-3.3866
X5.498Y-4.5295
X5.5299Y-3.1114
X5.5348Y-3.2044
X5.623Y-3.5311
X5.6309Y-4.1122
X5.6484Y-1.7134
X5.6551Y-3.7339
X5.6685Y-3.2154
X5.7059Y-3.4244
X5.7211Y-4.1661
X5.7293Y-4.4852
X5.7333Y-4.375
X5.7352Y-3.2392
X5.7501Y-3.2821
X5.7539Y-4.2274
X5.7618Y-3.6933
X5.7687Y-4.3455
X5.7717Y-3.2261
X5.7843Y-4.9961
X5.8067Y-3.3165
X5.8843Y-4.9217
X5.9134Y-2.8829
X5.9205Y-4.8907
X5.9705Y-4.228
X5.998Y-4.2943
X6.0197Y-4.0719
X6.025Y-4.1693
X6.0268Y-1.6776
X6.0315Y-4.9998
X6.0345Y-4.3376
X6.0404Y-2.2844
X6.0505Y-4.1509
X6.0858Y-3.7994
X6.0906Y-2.9386
X6.1053Y-4.6407
X6.1063Y-3.7096
X6.1309Y-4.6772
X6.1329Y-4.7795
X6.1348Y-4.7293
X6.1407Y-4.3248
X6.1693Y-4.8809
X6.1754Y-3.9401
X6.1782Y-3.7492
X6.1882Y-2.9055
X6.1969Y-3.1909
X6.213Y-3.863
X6.2161Y-3.5547
X6.218Y-3.6726
X6.2472Y-3.6388
X6.2677Y-3.6014
X6.2899Y-4.3268
X6.3071Y-4.2055
X6.3129Y-4.3733
X6.3238Y-4.2393
X6.3358Y-2.9685
X6.3476Y-5.1701
X6.3579Y-4.7764
X6.3624Y-4.6276
X6.3634Y-4.8571
X6.3642Y-4.9616
X6.374Y-4.5305
X6.378Y-3.3839
X6.3789Y-3.4161
X6.3799Y-4.1634
X6.3878Y-4.3976
X6.3967Y-2.9616
X6.3967Y-3.2096
X6.3967Y-5.2368
X6.397Y-4.8575
X6.3976Y-3.2527
X6.3986Y-3.315
X6.3996Y-4.5059
X6.4035Y-3.9807
X6.4063Y-4.9998
X6.4114Y-3.8947
X6.4134Y-3.3642
X6.4177Y-4.6295
X6.4203Y-4.8248
X6.4214Y-4.1544
X6.4232Y-3.811
X6.4291Y-4.1201
X6.4291Y-4.4813
X6.439Y-5.0285
X6.446Y-4.2776
X6.4463Y-4.8437
X6.4465Y-2.8785
X6.4535Y-2.9092
X6.4547Y-4.5335
X6.4681Y-4.6335
X6.4705Y-3.2756
X6.4705Y-3.6152
X6.472Y-5.2453
X6.4723Y-4.3342
X6.4734Y-3.4281
X6.4754Y-4.5079
X6.4783Y-4.7274
X6.4793Y-3.1437
X6.4823Y-3.5807
X6.4872Y-4.1555
X6.4882Y-3.3524
X6.4882Y-3.9843
X6.4902Y-3.3898
X6.4941Y-3.2352
X6.499Y-4.4813
X6.5018Y-4.8435
X6.5051Y-4.7748
X6.513Y-4.6307
X6.5305Y-3.6585
X6.5325Y-4.3937
X6.5335Y-4.2943
X6.537Y-2.599
X6.5374Y-5.0405
X6.5613Y-4.9562
X6.5678Y-4.6921
X6.5699Y-4.2913
X6.5881Y-4.8134
X6.5915Y-4.2628
X6.5966Y-4.592
X6.5994Y-3.188
X6.6043Y-3.5886
X6.6075Y-4.2342
X6.6083Y-4.1998
X6.613Y-4.7876
X6.6339Y-3.623
X6.634Y-5.3175
X6.6368Y-2.8425
X6.6407Y-5.0207
X6.6447Y-3.2667
X6.6487Y-4.9687
X6.6689Y-4.9974
X6.6728Y-5.2417
X6.6762Y-4.8612
X6.6793Y-5.1819
X6.6967Y-4.9827
X6.7018Y-4.8927
X6.7047Y-4.1211
X6.7146Y-3.6779
X6.7362Y-4.9813
X6.7369Y-4.9182
X6.7435Y-2.7417
X6.7441Y-3.689
X6.753Y-2.8022
X6.7579Y-3.6506
X6.7629Y-2.4047
X6.7707Y-4.0984
X6.7756Y-2.6899
X6.7835Y-2.5955
X6.7904Y-2.7963
X6.7923Y-4.2785
X6.7936Y-4.9647
X6.7943Y-4.7992
X6.7982Y-2.5098
X6.815Y-2.7586
X6.8297Y-3.2392
X6.8398Y-3.9291
X6.8474Y-3.5472
X6.8848Y-4.499
X6.8868Y-2.7667
X6.8917Y-4.8681
X6.8927Y-4.3504
X6.8937Y-4.1545
X6.9055Y-4.6781
X6.9154Y-2.5236
X6.9249Y-2.669
X6.9921Y-3.1683
X7.0049Y-5.061
X7.0173Y-3.925
X7.0315Y-2.5069
X7.0335Y-4.9665
X7.0344Y-4.499
X7.0374Y-4.8051
X7.0374Y-4.8681
X7.0453Y-4.2766
X7.0463Y-4.3474
X7.0492Y-4.8376
X7.064Y-4.939
X7.0699Y-4.9045
X7.0728Y-4.7421
X7.0748Y-4.1949
X7.1061Y-2.7256
X7.1122Y-2.7766
X7.1417Y-2.5315
X7.1417Y-3.748
X7.1506Y-3.5738
X7.1585Y-4.2323
X7.1673Y-2.8051
X7.1713Y-3.8986
X7.1718Y-4.9675
X7.1728Y-3.9539
X7.186Y-2.6516
X7.2234Y-3.8386
X7.2667Y-3.4311
X7.2667Y-4.4951
X7.2697Y-4.6821
X7.2707Y-4.3406
X7.2736Y-4.812
X7.2746Y-3.6093
X7.2746Y-4.1496
X7.2894Y-3.7037
X7.2894Y-4.8681
X7.2923Y-5.0571
X7.2933Y-3.8957
X7.3044Y-4.9669
X7.31Y-4.811
X7.3199Y-2.8612
X7.3248Y-3.9539
X7.3248Y-4.4951
X7.3297Y-3.4311
X7.3494Y-3.2972
X7.3524Y-2.4852
X7.4045Y-2.875
X7.4163Y-3.6112
X7.4242Y-4.2825
X7.4281Y-3.7392
X7.4301Y-3.7815
X7.437Y-4.438
X7.4439Y-4.3868
X7.4459Y-3.8386
X7.4459Y-4.8386
X7.4469Y-4.1949
X7.4528Y-4.7215
X7.4537Y-4.9075
X7.4547Y-2.7461
X7.4596Y-2.7067
X7.4636Y-4.0965
X7.4823Y-3.439
X7.5128Y-4.8199
X7.5344Y-4.0738
X7.5364Y-3.3356
X7.5541Y-3.4
X7.564Y-3.4911
X7.5664Y-4.8441
X7.6626Y-2.0933
X7.687Y-2.2283
X7.689Y-2.4941
X7.7455Y-2.2334
X7.8287Y-2.1526
X7.8287Y-2.2077
X7.8652Y-3.7815
X7.9409Y-3.6998
X7.9488Y-3.937
X7.9567Y-4.3671
X7.9636Y-2.0778
X7.9734Y-3.751
X7.9843Y-4.2205
X8.0Y-2.4311
X8.0173Y-2.0278
X8.0207Y-4.4695
X8.0285Y-4.2205
X8.0492Y-2.2864
X8.1132Y-2.4281
X8.2008Y-2.25
X8.2904Y-1.9035
X8.3061Y-4.2049
X8.3158Y-3.9591
X8.3179Y-2.1604
X8.3199Y-3.6949
X8.3671Y-3.7884
T3
X3.5561Y-3.7363
X3.6482Y-3.8814
X3.6555Y-5.1409
X3.6677Y-4.9327
X3.7228Y-3.8244
X3.723Y-4.3619
X3.7864Y-3.5915
X3.8642Y-3.8681
X3.9633Y-3.7679
X4.7496Y-4.0193
X4.785Y-4.0197
X4.924Y-3.8154
X4.9272Y-3.5173
X4.9539Y-2.9732
X4.9602Y-2.5992
X4.9626Y-3.3071
X5.1504Y-2.9717
X5.1555Y-3.3075
X5.1571Y-2.6024
X5.3063Y-3.5169
X5.3063Y-3.8169
X5.3339Y-2.9772
X5.3437Y-3.3039
X5.3874Y-2.8209
X5.3949Y-2.8992
X5.6327Y-3.863
X5.6331Y-3.663
X5.6587Y-2.811
X5.6602Y-2.861
X5.7039Y-3.5709
X5.7047Y-4.4201
X5.7602Y-4.5465
X5.7696Y-4.4332
X5.848Y-3.1224
X5.8488Y-3.0835
X5.8665Y-3.665
X5.8689Y-3.8654
X5.889Y-3.0835
X5.8898Y-3.1256
X5.8899Y-4.669
X5.928Y-3.087
X5.9291Y-3.1268
X5.9429Y-4.7117
X6.1937Y-2.8134
X6.2766Y-4.0374
X6.3346Y-2.8126
X6.6919Y-2.3392
X6.6919Y-2.2913
X6.6998Y-2.3937
X6.7249Y-2.3607
X6.8258Y-2.4823
X6.9207Y-4.0045
X6.9616Y-2.4872
X7.1024Y-3.8701
X7.1385Y-4.4949
X7.1496Y-4.5394
X7.3834Y-2.4306
X7.3996Y-2.3386
X7.4921Y-3.9262
X7.5207Y-2.6043
X7.565Y-2.19
X7.9304Y-3.8315
X7.9606Y-3.8062
X7.9897Y-3.9365
X8.0236Y-3.9026
X8.1394Y-5.1866
X8.2106Y-5.0236
T4
X4.4425Y-4.748
X4.5276Y-4.5988
X4.5874Y-4.7492
X4.8165Y-4.6374
X4.8823Y-4.6319
X5.157Y-4.6124
X5.2642Y-4.8276
X5.265Y-4.7791
X5.3539Y-4.7189
X5.3543Y-4.7689
X5.3547Y-4.8217
X5.6154Y-4.6835
X5.6173Y-4.7795
X5.6335Y-2.0516
X5.903Y-4.5783
X5.9055Y-2.2598
X5.9055Y-4.5311
X6.5128Y-2.2185
X6.8366Y-3.4636
X6.8374Y-3.7057
X6.9407Y-2.3584
X7.032Y-3.7057
X7.2195Y-2.3848
X7.2411Y-2.3307
X7.8674Y-1.8752
X7.8984Y-1.8272
X7.9304Y-1.8752
X7.9624Y-1.8282
X7.9934Y-1.8752
T5
X3.6063Y-3.9633
X3.6063Y-4.0423
X3.6063Y-4.1208
X3.6063Y-4.1998
X3.6063Y-4.2783
X3.6063Y-4.3573
X3.6063Y-4.4358
X3.6063Y-4.5148
X3.6063Y-4.5933
X3.6063Y-4.6723
X3.6063Y-4.7508
X3.6063Y-4.8298
X3.7638Y-3.9243
X3.7638Y-4.0028
X3.7638Y-4.0818
X3.7638Y-4.1603
X3.7638Y-4.2393
X3.7638Y-4.3178
X3.7638Y-4.3968
X3.7638Y-4.4753
X3.7638Y-4.5543
X3.7638Y-4.6328
X3.7638Y-4.7118
X3.7638Y-4.7903
X3.7638Y-4.8693
T7
X4.8114Y-4.4358
X4.8146Y-4.3504
X4.8791Y-4.4335
X4.8807Y-4.3531
X4.9469Y-4.4323
X4.9488Y-4.3543
X5.3469Y-2.0705
X5.3476Y-1.9382
X5.3535Y-2.002
X5.435Y-2.0764
X5.4394Y-1.9358
X5.4394Y-2.0075
X7.1768Y-1.8811
X7.1783Y-1.7902
X7.2413Y-1.7933
X7.2984Y-1.8811
X7.3087Y-1.7961
X8.1026Y-2.7195
X8.1026Y-2.8195
X8.1026Y-2.9195
X8.1026Y-3.0195
X8.1026Y-3.1195
X8.1026Y-3.2195
X8.1026Y-3.3195
X8.1026Y-3.4195
X8.1026Y-3.5195
X8.1026Y-3.6195
X8.1026Y-3.7195
X8.1026Y-3.8195
X8.1026Y-3.9195
X8.1026Y-4.0195
X8.1026Y-4.1195
X8.1026Y-4.2195
X8.1026Y-4.3195
X8.1026Y-4.4195
X8.1026Y-4.5195
X8.1026Y-4.6195
X8.2026Y-2.7195
X8.2026Y-2.8195
X8.2026Y-2.9195
X8.2026Y-3.0195
X8.2026Y-3.1195
X8.2026Y-3.2195
X8.2026Y-3.3195
X8.2026Y-3.4195
X8.2026Y-3.5195
X8.2026Y-3.6195
X8.2026Y-3.7195
X8.2026Y-3.8195
X8.2026Y-3.9195
X8.2026Y-4.0195
X8.2026Y-4.1195
X8.2026Y-4.2195
X8.2026Y-4.3195
X8.2026Y-4.4195
X8.2026Y-4.5195
X8.2026Y-4.6195
X3.6604Y-1.9862
X3.6604Y-2.0862
X3.7604Y-1.9862
X3.7604Y-2.0862
X3.8604Y-1.9862
X3.8604Y-2.0862
X4.0906Y-5.2512
X4.0906Y-5.3512
X4.1906Y-5.2512
X4.1906Y-5.3512
X4.2906Y-5.2512
X4.2906Y-5.3512
X4.3906Y-5.2512
X4.3906Y-5.3512
X4.4906Y-5.2512
X4.4906Y-5.3512
X4.5906Y-5.2512
X4.5906Y-5.3512
X4.6906Y-5.2512
X4.6906Y-5.3512
X4.7906Y-5.2512
X4.7906Y-5.3512
X4.8906Y-5.2512
X4.8906Y-5.3512
X4.9906Y-5.2512
X4.9906Y-5.3512
X5.0906Y-5.2512
X5.0906Y-5.3512
X5.1906Y-5.2512
X5.1906Y-5.3512
X5.2906Y-5.2512
X5.2906Y-5.3512
X5.3906Y-5.2512
X5.3906Y-5.3512
X5.4906Y-5.2512
X5.4906Y-5.3512
X5.5906Y-5.2512
X5.5906Y-5.3512
X5.6906Y-5.2512
X5.6906Y-5.3512
X5.7906Y-5.2512
X5.7906Y-5.3512
X5.8906Y-5.2512
X5.8906Y-5.3512
X5.9906Y-5.2512
X5.9906Y-5.3512
X7.6339Y-2.7246
X7.6339Y-2.8246
X7.6339Y-2.9246
X7.6339Y-3.0246
X7.6339Y-3.1246
X7.6339Y-3.2246
X7.6339Y-3.3246
X7.6339Y-3.4246
X7.6339Y-3.5246
X7.6339Y-3.6246
X7.6339Y-3.7246
X7.6339Y-3.8246
X7.6339Y-3.9246
X7.6339Y-4.0246
X7.6339Y-4.1246
X7.6339Y-4.2246
X7.6339Y-4.3246
X7.6339Y-4.4246
X7.6339Y-4.5246
X7.6339Y-4.6246
X7.7339Y-2.7246
X7.7339Y-2.8246
X7.7339Y-2.9246
X7.7339Y-3.0246
X7.7339Y-3.1246
X7.7339Y-3.2246
X7.7339Y-3.3246
X7.7339Y-3.4246
X7.7339Y-3.5246
X7.7339Y-3.6246
X7.7339Y-3.7246
X7.7339Y-3.8246
X7.7339Y-3.9246
X7.7339Y-4.0246
X7.7339Y-4.1246
X7.7339Y-4.2246
X7.7339Y-4.3246
X7.7339Y-4.4246
X7.7339Y-4.5246
X7.7339Y-4.6246
X6.6091Y-2.5709
X6.6091Y-2.6709
X6.7091Y-2.5709
X6.7091Y-2.6709
X7.5689Y-1.7819
X7.5689Y-1.8819
X7.6689Y-1.7819
X7.6689Y-1.8819
T8
X4.1012Y-1.6884
X4.1012Y-1.8069
X4.2982Y-2.0039
X4.4952Y-1.6884
X4.4952Y-1.8069
X4.6967Y-1.6875
X4.6967Y-1.806
X4.8937Y-2.003
X5.0907Y-1.6875
X5.0907Y-1.806
T9
X4.1051Y-4.2799
X4.1059Y-4.478
X4.1071Y-3.8154
X4.1094Y-4.0161
X4.4177Y-4.4795
X4.4232Y-4.0165
X4.4244Y-4.2811
X4.4252Y-3.813
X6.8055Y-5.4413
X6.8118Y-5.1248
X7.0087Y-5.1248
X7.0102Y-5.4433
X7.2937Y-5.4398
X7.2965Y-5.1267
X7.4913Y-5.4406
X7.4917Y-5.1232
T10
X4.3041Y-3.1144
X4.3041Y-3.39
X4.7293Y-3.1144
X4.7293Y-3.2522
X4.7293Y-3.39
X3.6132Y-3.1144
X3.6132Y-3.39
X4.0384Y-3.1144
X4.0384Y-3.2522
X4.0384Y-3.39
X4.3002Y-2.4313
X4.3002Y-2.7069
X4.7254Y-2.4313
X4.7254Y-2.5691
X4.7254Y-2.7069
X3.6093Y-2.4313
X3.6093Y-2.7069
X4.0344Y-2.4313
X4.0344Y-2.5691
X4.0344Y-2.7069
T12
X3.6299Y-5.389
X3.6299Y-1.7669
X8.2346Y-1.7638
X8.2346Y-5.3898
T4
G00X7.7864Y-1.6526
M15
G01X7.7864Y-1.6998
M16
G05
G00X8.0734Y-1.6526
M15
G01X8.0734Y-1.6998
M16
G05
T6
G00X4.1012Y-1.9902
M15
G01X4.1012Y-2.0177
M16
G05
G00X4.1997Y-1.9902
M15
G01X4.1997Y-2.0177
M16
G05
G00X4.2844Y-1.8069
M15
G01X4.312Y-1.8069
M16
G05
G00X4.3967Y-1.9902
M15
G01X4.3967Y-2.0177
M16
G05
G00X4.4952Y-1.9902
M15
G01X4.4952Y-2.0177
M16
G05
G00X4.6967Y-1.9892
M15
G01X4.6967Y-2.0167
M16
G05
G00X4.7952Y-1.9892
M15
G01X4.7952Y-2.0167
M16
G05
G00X4.8799Y-1.806
M15
G01X4.9075Y-1.806
M16
G05
G00X4.9922Y-1.9892
M15
G01X4.9922Y-2.0167
M16
G05
G00X5.0907Y-1.9892
M15
G01X5.0907Y-2.0167
M16
G05
T11
G00X6.5921Y-2.0016
M15
G01X6.5921Y-2.0803
M16
G05
G00X6.8165Y-1.9228
M15
G01X6.7378Y-1.9228
M16
G05
G00X6.8165Y-2.1591
M15
G01X6.7378Y-2.1591
M16
G05
G00X6.124Y-2.0043
M15
G01X6.124Y-2.0831
M16
G05
G00X6.3484Y-1.9256
M15
G01X6.2697Y-1.9256
M16
G05
G00X6.3484Y-2.1618
M15
G01X6.2697Y-2.1618
M16
G05
G00X7.775Y-4.9882
M15
G01X7.8537Y-4.9882
M16
G05
G00X7.775Y-5.2244
M15
G01X7.8537Y-5.2244
M16
G05
G00X7.9994Y-5.1457
M15
G01X7.9994Y-5.0669
M16
G05
T0
M30
