G04 #@! TF.GenerationSoftware,KiCad,Pcbnew,5.1.7-a382d34a88~90~ubuntu20.04.1*
G04 #@! TF.CreationDate,2022-01-24T09:39:31-06:00*
G04 #@! TF.ProjectId,open-dash-daughterboard,6f70656e-2d64-4617-9368-2d6461756768,rev?*
G04 #@! TF.SameCoordinates,Original*
G04 #@! TF.FileFunction,Soldermask,Bot*
G04 #@! TF.FilePolarity,Negative*
%FSLAX46Y46*%
G04 Gerber Fmt 4.6, Leading zero omitted, Abs format (unit mm)*
G04 Created by KiCad (PCBNEW 5.1.7-a382d34a88~90~ubuntu20.04.1) date 2022-01-24 09:39:31*
%MOMM*%
%LPD*%
G01*
G04 APERTURE LIST*
%ADD10O,2.800000X4.000000*%
%ADD11O,2.100000X2.100000*%
%ADD12C,1.700000*%
%ADD13O,2.900000X2.200000*%
%ADD14O,2.200000X2.900000*%
%ADD15O,1.400000X1.700000*%
%ADD16O,2.100000X3.300000*%
%ADD17C,2.800000*%
%ADD18C,3.000000*%
%ADD19C,1.924000*%
%ADD20C,2.100000*%
%ADD21C,5.400000*%
%ADD22C,1.400000*%
%ADD23C,1.000000*%
%ADD24C,1.900000*%
%ADD25C,1.200000*%
G04 APERTURE END LIST*
D10*
X139625000Y-135700000D03*
X134545000Y-135700000D03*
X129465000Y-135700000D03*
G36*
G01*
X122985000Y-137310800D02*
X122985000Y-134089200D01*
G75*
G02*
X123374200Y-133700000I389200J0D01*
G01*
X125395800Y-133700000D01*
G75*
G02*
X125785000Y-134089200I0J-389200D01*
G01*
X125785000Y-137310800D01*
G75*
G02*
X125395800Y-137700000I-389200J0D01*
G01*
X123374200Y-137700000D01*
G75*
G02*
X122985000Y-137310800I0J389200D01*
G01*
G37*
X117740000Y-135715000D03*
X112660000Y-135715000D03*
X107580000Y-135715000D03*
G36*
G01*
X101100000Y-137325800D02*
X101100000Y-134104200D01*
G75*
G02*
X101489200Y-133715000I389200J0D01*
G01*
X103510800Y-133715000D01*
G75*
G02*
X103900000Y-134104200I0J-389200D01*
G01*
X103900000Y-137325800D01*
G75*
G02*
X103510800Y-137715000I-389200J0D01*
G01*
X101489200Y-137715000D01*
G75*
G02*
X101100000Y-137325800I0J389200D01*
G01*
G37*
X162105000Y-135700000D03*
X157025000Y-135700000D03*
X151945000Y-135700000D03*
G36*
G01*
X145465000Y-137310800D02*
X145465000Y-134089200D01*
G75*
G02*
X145854200Y-133700000I389200J0D01*
G01*
X147875800Y-133700000D01*
G75*
G02*
X148265000Y-134089200I0J-389200D01*
G01*
X148265000Y-137310800D01*
G75*
G02*
X147875800Y-137700000I-389200J0D01*
G01*
X145854200Y-137700000D01*
G75*
G02*
X145465000Y-137310800I0J389200D01*
G01*
G37*
D11*
X194790000Y-45260000D03*
X194790000Y-47800000D03*
X192250000Y-45260000D03*
G36*
G01*
X193100000Y-48850000D02*
X191400000Y-48850000D01*
G75*
G02*
X191200000Y-48650000I0J200000D01*
G01*
X191200000Y-46950000D01*
G75*
G02*
X191400000Y-46750000I200000J0D01*
G01*
X193100000Y-46750000D01*
G75*
G02*
X193300000Y-46950000I0J-200000D01*
G01*
X193300000Y-48650000D01*
G75*
G02*
X193100000Y-48850000I-200000J0D01*
G01*
G37*
D12*
X129303800Y-42861300D03*
X119296200Y-42861300D03*
X119296200Y-45871200D03*
X129303800Y-45871200D03*
D13*
X124300000Y-45871200D03*
D12*
X124300000Y-50875000D03*
D14*
X129303800Y-50875000D03*
X119296200Y-50875000D03*
X121798100Y-50875000D03*
X126801900Y-50875000D03*
D11*
X92975000Y-52990000D03*
X92975000Y-50450000D03*
X95515000Y-52990000D03*
X95515000Y-50450000D03*
X98055000Y-52990000D03*
G36*
G01*
X97205000Y-49400000D02*
X98905000Y-49400000D01*
G75*
G02*
X99105000Y-49600000I0J-200000D01*
G01*
X99105000Y-51300000D01*
G75*
G02*
X98905000Y-51500000I-200000J0D01*
G01*
X97205000Y-51500000D01*
G75*
G02*
X97005000Y-51300000I0J200000D01*
G01*
X97005000Y-49600000D01*
G75*
G02*
X97205000Y-49400000I200000J0D01*
G01*
G37*
D15*
X199832400Y-47629600D03*
X203032800Y-47629600D03*
X202245400Y-46435800D03*
X200619800Y-46410400D03*
X201432600Y-47629600D03*
D16*
X197775000Y-42575000D03*
X205064800Y-42575000D03*
D12*
X114178800Y-42886300D03*
X104171200Y-42886300D03*
X104171200Y-45896200D03*
X114178800Y-45896200D03*
D13*
X109175000Y-45896200D03*
D12*
X109175000Y-50900000D03*
D14*
X114178800Y-50900000D03*
X104171200Y-50900000D03*
X106673100Y-50900000D03*
X111676900Y-50900000D03*
D17*
X102475001Y-65255001D03*
D18*
X102475001Y-68755001D03*
G36*
G01*
X101075001Y-62955001D02*
X101075001Y-60555001D01*
G75*
G02*
X101275001Y-60355001I200000J0D01*
G01*
X103675001Y-60355001D01*
G75*
G02*
X103875001Y-60555001I0J-200000D01*
G01*
X103875001Y-62955001D01*
G75*
G02*
X103675001Y-63155001I-200000J0D01*
G01*
X101275001Y-63155001D01*
G75*
G02*
X101075001Y-62955001I0J200000D01*
G01*
G37*
X91675001Y-68755001D03*
X91675001Y-61755001D03*
D19*
X91599500Y-116669600D03*
X91599500Y-114675700D03*
X91599500Y-106674700D03*
X91599500Y-120670100D03*
X91599500Y-110675200D03*
X91599500Y-118676200D03*
X91599500Y-108668600D03*
X91599500Y-112669100D03*
X91599500Y-100667600D03*
X91599500Y-122676700D03*
X91599500Y-102674200D03*
X91599500Y-104668100D03*
X95600000Y-105671400D03*
X95600000Y-103677500D03*
X95600000Y-99677000D03*
X95600000Y-101670900D03*
X95600000Y-107678000D03*
X95600000Y-113672400D03*
X95600000Y-111678500D03*
X95600000Y-109671900D03*
X95600000Y-115679000D03*
X95600000Y-117672900D03*
X95600000Y-119679500D03*
X95600000Y-121673400D03*
X95600000Y-123680000D03*
D17*
X102575001Y-82605001D03*
D18*
X102575001Y-86105001D03*
G36*
G01*
X101175001Y-80305001D02*
X101175001Y-77905001D01*
G75*
G02*
X101375001Y-77705001I200000J0D01*
G01*
X103775001Y-77705001D01*
G75*
G02*
X103975001Y-77905001I0J-200000D01*
G01*
X103975001Y-80305001D01*
G75*
G02*
X103775001Y-80505001I-200000J0D01*
G01*
X101375001Y-80505001D01*
G75*
G02*
X101175001Y-80305001I0J200000D01*
G01*
G37*
X91775001Y-86105001D03*
X91775001Y-79105001D03*
D20*
X205805000Y-69075000D03*
X205805000Y-71615000D03*
X205805000Y-74155000D03*
X205805000Y-76695000D03*
X205805000Y-79235000D03*
X205805000Y-81775000D03*
X205805000Y-84315000D03*
X205805000Y-86855000D03*
X205805000Y-89395000D03*
X205805000Y-91935000D03*
X205805000Y-94475000D03*
X205805000Y-97015000D03*
X205805000Y-99555000D03*
X205805000Y-102095000D03*
X205805000Y-104635000D03*
X205805000Y-107175000D03*
X205805000Y-109715000D03*
X205805000Y-112255000D03*
X205805000Y-114795000D03*
X205805000Y-117335000D03*
X208345000Y-69075000D03*
X208345000Y-71615000D03*
X208345000Y-74155000D03*
X208345000Y-76695000D03*
X208345000Y-79235000D03*
X208345000Y-81775000D03*
X208345000Y-84315000D03*
X208345000Y-86855000D03*
X208345000Y-89395000D03*
X208345000Y-91935000D03*
X208345000Y-94475000D03*
X208345000Y-97015000D03*
X208345000Y-99555000D03*
X208345000Y-102095000D03*
X208345000Y-104635000D03*
X208345000Y-107175000D03*
X208345000Y-109715000D03*
X208345000Y-112255000D03*
X208345000Y-114795000D03*
G36*
G01*
X209395000Y-116593823D02*
X209395000Y-118076177D01*
G75*
G02*
X209086177Y-118385000I-308823J0D01*
G01*
X207603823Y-118385000D01*
G75*
G02*
X207295000Y-118076177I0J308823D01*
G01*
X207295000Y-116593823D01*
G75*
G02*
X207603823Y-116285000I308823J0D01*
G01*
X209086177Y-116285000D01*
G75*
G02*
X209395000Y-116593823I0J-308823D01*
G01*
G37*
X193900000Y-69205000D03*
X193900000Y-71745000D03*
X193900000Y-74285000D03*
X193900000Y-76825000D03*
X193900000Y-79365000D03*
X193900000Y-81905000D03*
X193900000Y-84445000D03*
X193900000Y-86985000D03*
X193900000Y-89525000D03*
X193900000Y-92065000D03*
X193900000Y-94605000D03*
X193900000Y-97145000D03*
X193900000Y-99685000D03*
X193900000Y-102225000D03*
X193900000Y-104765000D03*
X193900000Y-107305000D03*
X193900000Y-109845000D03*
X193900000Y-112385000D03*
X193900000Y-114925000D03*
X193900000Y-117465000D03*
X196440000Y-69205000D03*
X196440000Y-71745000D03*
X196440000Y-74285000D03*
X196440000Y-76825000D03*
X196440000Y-79365000D03*
X196440000Y-81905000D03*
X196440000Y-84445000D03*
X196440000Y-86985000D03*
X196440000Y-89525000D03*
X196440000Y-92065000D03*
X196440000Y-94605000D03*
X196440000Y-97145000D03*
X196440000Y-99685000D03*
X196440000Y-102225000D03*
X196440000Y-104765000D03*
X196440000Y-107305000D03*
X196440000Y-109845000D03*
X196440000Y-112385000D03*
X196440000Y-114925000D03*
G36*
G01*
X197490000Y-116723823D02*
X197490000Y-118206177D01*
G75*
G02*
X197181177Y-118515000I-308823J0D01*
G01*
X195698823Y-118515000D01*
G75*
G02*
X195390000Y-118206177I0J308823D01*
G01*
X195390000Y-116723823D01*
G75*
G02*
X195698823Y-116415000I308823J0D01*
G01*
X197181177Y-116415000D01*
G75*
G02*
X197490000Y-116723823I0J-308823D01*
G01*
G37*
G36*
G01*
X170540000Y-53140000D02*
X173740000Y-53140000D01*
G75*
G02*
X174590000Y-53990000I0J-850000D01*
G01*
X174590000Y-55690000D01*
G75*
G02*
X173740000Y-56540000I-850000J0D01*
G01*
X170540000Y-56540000D01*
G75*
G02*
X169690000Y-55690000I0J850000D01*
G01*
X169690000Y-53990000D01*
G75*
G02*
X170540000Y-53140000I850000J0D01*
G01*
G37*
G36*
G01*
X170540000Y-47140000D02*
X173740000Y-47140000D01*
G75*
G02*
X174590000Y-47990000I0J-850000D01*
G01*
X174590000Y-49690000D01*
G75*
G02*
X173740000Y-50540000I-850000J0D01*
G01*
X170540000Y-50540000D01*
G75*
G02*
X169690000Y-49690000I0J850000D01*
G01*
X169690000Y-47990000D01*
G75*
G02*
X170540000Y-47140000I850000J0D01*
G01*
G37*
G36*
G01*
X166590000Y-49390000D02*
X168290000Y-49390000D01*
G75*
G02*
X169140000Y-50240000I0J-850000D01*
G01*
X169140000Y-53440000D01*
G75*
G02*
X168290000Y-54290000I-850000J0D01*
G01*
X166590000Y-54290000D01*
G75*
G02*
X165740000Y-53440000I0J850000D01*
G01*
X165740000Y-50240000D01*
G75*
G02*
X166590000Y-49390000I850000J0D01*
G01*
G37*
X103375000Y-128865000D03*
X105915000Y-128865000D03*
X108455000Y-128865000D03*
X110995000Y-128865000D03*
X113535000Y-128865000D03*
X116075000Y-128865000D03*
X118615000Y-128865000D03*
X121155000Y-128865000D03*
X123695000Y-128865000D03*
X126235000Y-128865000D03*
X128775000Y-128865000D03*
X131315000Y-128865000D03*
X133855000Y-128865000D03*
X136395000Y-128865000D03*
X138935000Y-128865000D03*
X141475000Y-128865000D03*
X144015000Y-128865000D03*
X146555000Y-128865000D03*
X149095000Y-128865000D03*
X151635000Y-128865000D03*
X103375000Y-126325000D03*
X105915000Y-126325000D03*
X108455000Y-126325000D03*
X110995000Y-126325000D03*
X113535000Y-126325000D03*
X116075000Y-126325000D03*
X118615000Y-126325000D03*
X121155000Y-126325000D03*
X123695000Y-126325000D03*
X126235000Y-126325000D03*
X128775000Y-126325000D03*
X131315000Y-126325000D03*
X133855000Y-126325000D03*
X136395000Y-126325000D03*
X138935000Y-126325000D03*
X141475000Y-126325000D03*
X144015000Y-126325000D03*
X146555000Y-126325000D03*
X149095000Y-126325000D03*
G36*
G01*
X150893823Y-125275000D02*
X152376177Y-125275000D01*
G75*
G02*
X152685000Y-125583823I0J-308823D01*
G01*
X152685000Y-127066177D01*
G75*
G02*
X152376177Y-127375000I-308823J0D01*
G01*
X150893823Y-127375000D01*
G75*
G02*
X150585000Y-127066177I0J308823D01*
G01*
X150585000Y-125583823D01*
G75*
G02*
X150893823Y-125275000I308823J0D01*
G01*
G37*
D21*
X209160000Y-44800000D03*
X209160000Y-136900000D03*
X92200000Y-44880000D03*
X92200000Y-136880000D03*
D18*
X109225001Y-61755001D03*
X109225001Y-68755001D03*
G36*
G01*
X118625001Y-62955001D02*
X118625001Y-60555001D01*
G75*
G02*
X118825001Y-60355001I200000J0D01*
G01*
X121225001Y-60355001D01*
G75*
G02*
X121425001Y-60555001I0J-200000D01*
G01*
X121425001Y-62955001D01*
G75*
G02*
X121225001Y-63155001I-200000J0D01*
G01*
X118825001Y-63155001D01*
G75*
G02*
X118625001Y-62955001I0J200000D01*
G01*
G37*
X120025001Y-68755001D03*
D17*
X120025001Y-65255001D03*
G36*
G01*
X158650000Y-53210000D02*
X161850000Y-53210000D01*
G75*
G02*
X162700000Y-54060000I0J-850000D01*
G01*
X162700000Y-55760000D01*
G75*
G02*
X161850000Y-56610000I-850000J0D01*
G01*
X158650000Y-56610000D01*
G75*
G02*
X157800000Y-55760000I0J850000D01*
G01*
X157800000Y-54060000D01*
G75*
G02*
X158650000Y-53210000I850000J0D01*
G01*
G37*
G36*
G01*
X158650000Y-47210000D02*
X161850000Y-47210000D01*
G75*
G02*
X162700000Y-48060000I0J-850000D01*
G01*
X162700000Y-49760000D01*
G75*
G02*
X161850000Y-50610000I-850000J0D01*
G01*
X158650000Y-50610000D01*
G75*
G02*
X157800000Y-49760000I0J850000D01*
G01*
X157800000Y-48060000D01*
G75*
G02*
X158650000Y-47210000I850000J0D01*
G01*
G37*
G36*
G01*
X154700000Y-49460000D02*
X156400000Y-49460000D01*
G75*
G02*
X157250000Y-50310000I0J-850000D01*
G01*
X157250000Y-53510000D01*
G75*
G02*
X156400000Y-54360000I-850000J0D01*
G01*
X154700000Y-54360000D01*
G75*
G02*
X153850000Y-53510000I0J850000D01*
G01*
X153850000Y-50310000D01*
G75*
G02*
X154700000Y-49460000I850000J0D01*
G01*
G37*
G36*
G01*
X200085000Y-128400000D02*
X196885000Y-128400000D01*
G75*
G02*
X196035000Y-127550000I0J850000D01*
G01*
X196035000Y-125850000D01*
G75*
G02*
X196885000Y-125000000I850000J0D01*
G01*
X200085000Y-125000000D01*
G75*
G02*
X200935000Y-125850000I0J-850000D01*
G01*
X200935000Y-127550000D01*
G75*
G02*
X200085000Y-128400000I-850000J0D01*
G01*
G37*
G36*
G01*
X200085000Y-134400000D02*
X196885000Y-134400000D01*
G75*
G02*
X196035000Y-133550000I0J850000D01*
G01*
X196035000Y-131850000D01*
G75*
G02*
X196885000Y-131000000I850000J0D01*
G01*
X200085000Y-131000000D01*
G75*
G02*
X200935000Y-131850000I0J-850000D01*
G01*
X200935000Y-133550000D01*
G75*
G02*
X200085000Y-134400000I-850000J0D01*
G01*
G37*
G36*
G01*
X204035000Y-132150000D02*
X202335000Y-132150000D01*
G75*
G02*
X201485000Y-131300000I0J850000D01*
G01*
X201485000Y-128100000D01*
G75*
G02*
X202335000Y-127250000I850000J0D01*
G01*
X204035000Y-127250000D01*
G75*
G02*
X204885000Y-128100000I0J-850000D01*
G01*
X204885000Y-131300000D01*
G75*
G02*
X204035000Y-132150000I-850000J0D01*
G01*
G37*
D18*
X109325001Y-79105001D03*
X109325001Y-86105001D03*
G36*
G01*
X118725001Y-80305001D02*
X118725001Y-77905001D01*
G75*
G02*
X118925001Y-77705001I200000J0D01*
G01*
X121325001Y-77705001D01*
G75*
G02*
X121525001Y-77905001I0J-200000D01*
G01*
X121525001Y-80305001D01*
G75*
G02*
X121325001Y-80505001I-200000J0D01*
G01*
X118925001Y-80505001D01*
G75*
G02*
X118725001Y-80305001I0J200000D01*
G01*
G37*
X120125001Y-86105001D03*
D17*
X120125001Y-82605001D03*
D22*
X99860000Y-113670000D03*
X113510000Y-113580000D03*
X99840000Y-102330000D03*
X102570000Y-104360000D03*
X102838536Y-115481464D03*
X116430000Y-115050000D03*
D23*
X94680000Y-98670000D03*
X92870000Y-125840000D03*
D22*
X173460000Y-130240000D03*
X177510000Y-130210000D03*
X185780000Y-130180000D03*
X189780000Y-130210000D03*
X210040000Y-122950000D03*
X166680000Y-59470000D03*
X122660000Y-105380000D03*
X122630000Y-106650000D03*
X122630000Y-108020000D03*
D23*
X174910000Y-115320000D03*
X178630000Y-115330000D03*
X172490000Y-121670000D03*
X179060000Y-121890000D03*
X185360000Y-121350000D03*
X184570000Y-115370000D03*
X188380000Y-115310000D03*
X184390000Y-101630000D03*
X188150000Y-101590000D03*
X178510000Y-101810000D03*
X174760000Y-101840000D03*
X172570000Y-108540000D03*
X178890000Y-108370000D03*
X188250000Y-88160000D03*
X184500000Y-88200000D03*
X173650000Y-83320000D03*
D22*
X143090000Y-52120000D03*
X149120000Y-51900000D03*
X149190000Y-55010000D03*
D23*
X184960000Y-94040000D03*
X188550000Y-94080000D03*
X124335010Y-95010813D03*
X181910000Y-107650000D03*
X188680000Y-107420000D03*
D22*
X170201304Y-58190010D03*
X121450000Y-113710000D03*
X107840000Y-102460000D03*
X107840000Y-106280000D03*
D24*
X114700000Y-103600000D03*
X114720000Y-101510000D03*
X114810000Y-105420000D03*
X116690000Y-101690000D03*
X116840000Y-103720000D03*
X116780000Y-105620000D03*
X118760000Y-103780000D03*
X118760000Y-101610000D03*
X118670000Y-105590000D03*
X138970000Y-51990000D03*
X139060000Y-50180000D03*
X139060000Y-48010000D03*
X137140000Y-50120000D03*
X135000000Y-50000000D03*
X137080000Y-52020000D03*
X135020000Y-47910000D03*
X136990000Y-48090000D03*
X135110000Y-51820000D03*
X184190000Y-46830000D03*
X182050000Y-46710000D03*
X186020000Y-48700000D03*
X184130000Y-48730000D03*
X182160000Y-48530000D03*
X182070000Y-44620000D03*
X184040000Y-44800000D03*
X186110000Y-44720000D03*
X186110000Y-46890000D03*
D22*
X98848846Y-56215010D03*
D23*
X95580000Y-98180000D03*
X98120000Y-98240000D03*
D22*
X104729394Y-115900606D03*
X118570000Y-115110000D03*
D23*
X129980000Y-109930000D03*
X132560000Y-110020000D03*
X93661119Y-132004979D03*
X93970000Y-125870000D03*
X125980000Y-63320000D03*
X131130000Y-63340000D03*
D25*
X126670000Y-82360000D03*
X136220000Y-82390000D03*
X143820000Y-71390000D03*
X149590000Y-75770000D03*
X152740000Y-78930000D03*
X149560000Y-82100000D03*
D22*
X177500000Y-138310000D03*
X173400000Y-138210000D03*
X185870000Y-138190000D03*
X189880000Y-138190000D03*
D23*
X206300000Y-123180000D03*
D22*
X210010000Y-128450000D03*
D23*
X212440000Y-52950000D03*
X208180000Y-56790000D03*
X206340000Y-50680000D03*
X210490000Y-48010000D03*
X203732810Y-51610000D03*
X192120000Y-55610000D03*
X194610000Y-53170000D03*
X188200000Y-59440000D03*
D22*
X182910000Y-61090000D03*
X183920000Y-59130000D03*
D23*
X171880000Y-62020000D03*
X176760000Y-81360000D03*
X169530000Y-128430000D03*
X165900000Y-123480000D03*
X149970000Y-115510000D03*
X164290000Y-117660000D03*
X162444990Y-123320000D03*
X138990000Y-103490000D03*
X144950000Y-116670000D03*
X140950000Y-116540000D03*
X144470000Y-110900000D03*
X118030000Y-97110000D03*
X142790000Y-92990000D03*
X142830000Y-98060000D03*
X149260000Y-98060000D03*
X149300000Y-93020000D03*
X157830000Y-96950000D03*
X156720000Y-99050000D03*
X163220000Y-96570000D03*
X168280000Y-96820000D03*
D22*
X149230000Y-50370000D03*
X151120000Y-51440000D03*
X143040000Y-50370000D03*
X151990000Y-57880000D03*
D23*
X152040000Y-42430000D03*
X143520000Y-43530000D03*
X181870000Y-69200000D03*
X162160000Y-111760000D03*
X175040000Y-118850000D03*
X178910000Y-118810000D03*
X188440000Y-123700000D03*
X184600000Y-123700000D03*
X184610000Y-119020000D03*
X188320000Y-119010000D03*
X188290000Y-110280000D03*
X184590000Y-110290000D03*
X184450000Y-105420000D03*
X174730000Y-105540000D03*
X178610000Y-105560000D03*
X178820000Y-110420000D03*
X174990000Y-110430000D03*
X184360000Y-96560000D03*
X184470000Y-91740000D03*
X188280000Y-91760000D03*
X173670000Y-87780000D03*
X173650000Y-94180000D03*
X178700000Y-94180000D03*
X126130000Y-71670000D03*
X131550000Y-71650000D03*
X126260000Y-65340000D03*
X160850000Y-71950000D03*
X157380000Y-71840000D03*
X168360000Y-64240000D03*
X183910000Y-73550000D03*
X189900000Y-66130000D03*
X180760000Y-64190000D03*
X187310000Y-82120000D03*
X176210000Y-70480000D03*
D22*
X130910000Y-104210000D03*
X133210000Y-104740000D03*
D23*
X120880000Y-92500000D03*
X90075042Y-93779406D03*
D25*
X137222790Y-71721178D03*
D22*
X129303371Y-103963371D03*
D23*
X126280762Y-113343165D03*
D25*
X145215010Y-87192243D03*
D22*
X136819990Y-118646186D03*
D23*
X188280000Y-96530000D03*
X163860000Y-106680000D03*
X162563988Y-129590090D03*
X167782470Y-106553808D03*
X156115010Y-119307645D03*
X156043939Y-118000536D03*
X166818939Y-123409768D03*
X179510000Y-124864990D03*
X189160000Y-106410000D03*
X175612034Y-123274990D03*
X183785154Y-67134846D03*
D25*
X146650010Y-78890909D03*
X126238000Y-78994000D03*
X131318000Y-78994000D03*
D23*
X154178000Y-92456000D03*
X198730000Y-55480000D03*
X204490000Y-58120000D03*
X175570000Y-65310000D03*
X176780000Y-68690000D03*
X189540000Y-61330000D03*
X181890000Y-70490000D03*
X171160000Y-64600000D03*
X171150000Y-61180000D03*
X161710000Y-73110000D03*
X157110000Y-73390000D03*
X145300000Y-80320000D03*
X136610000Y-87620000D03*
D25*
X143770000Y-72710000D03*
D23*
X166220000Y-99380000D03*
X167460000Y-94780000D03*
X163951976Y-129479416D03*
X169520000Y-131050000D03*
X164870000Y-125820000D03*
X157310000Y-129060000D03*
X127850000Y-109990000D03*
D22*
X132060000Y-115170000D03*
D23*
X149990000Y-114230000D03*
X142990000Y-114150000D03*
X156130000Y-116760000D03*
X162794257Y-121401732D03*
X162810000Y-117490000D03*
X165550000Y-117630000D03*
X130800000Y-109130000D03*
X136200000Y-79490000D03*
X147950000Y-57640000D03*
X134010000Y-64250000D03*
X165960000Y-93610000D03*
X168590000Y-84210000D03*
X168050000Y-84750000D03*
X176570000Y-59140000D03*
X173840000Y-70910000D03*
X166870000Y-71960000D03*
X205040000Y-61270000D03*
X178800000Y-57700000D03*
X131030000Y-89980000D03*
X136140000Y-90010000D03*
D25*
X137288317Y-73871418D03*
D23*
X135795354Y-71184722D03*
X137967521Y-99039575D03*
X138770000Y-113140000D03*
D22*
X128810000Y-113775021D03*
X136819990Y-116300000D03*
D23*
X166946150Y-121661676D03*
X161911949Y-127068051D03*
X169117978Y-125654377D03*
X158880000Y-93980000D03*
X157810000Y-96080000D03*
D25*
X192280000Y-63590000D03*
D23*
X98670000Y-95430000D03*
X94330000Y-107120000D03*
X178450000Y-83550000D03*
X191800000Y-85690000D03*
X167800000Y-123360000D03*
X168690000Y-120710000D03*
X169350000Y-117480000D03*
X198120000Y-118590000D03*
X168758051Y-124641949D03*
X210770036Y-106307516D03*
X211534969Y-103012481D03*
X168320000Y-121890000D03*
X169200000Y-118920000D03*
X210145026Y-117440000D03*
X159900000Y-114010000D03*
X210305010Y-101118286D03*
X163570000Y-104550000D03*
X163890000Y-103120000D03*
X175380000Y-99850044D03*
X202614990Y-90176729D03*
X134890000Y-73810000D03*
X168240000Y-87010000D03*
X175690000Y-78690000D03*
X183630000Y-70930000D03*
X193210000Y-62170000D03*
X144526000Y-78486000D03*
X185560000Y-90750000D03*
X199644000Y-98552000D03*
X171990000Y-109830000D03*
X188500000Y-109320000D03*
X166570000Y-89050000D03*
X170900000Y-91070000D03*
X181970000Y-87250000D03*
D25*
X202940000Y-110200000D03*
D23*
X152610000Y-122240000D03*
X169580000Y-132160000D03*
X155583051Y-122526949D03*
X177290000Y-127690053D03*
X197653926Y-119489972D03*
X160960000Y-79420000D03*
X160870000Y-74010000D03*
X161390000Y-93800000D03*
X162890000Y-93670000D03*
X146180000Y-117990000D03*
X150160000Y-117970000D03*
X163660000Y-128110000D03*
X165830000Y-128080000D03*
X161696433Y-84074926D03*
X161758008Y-89725891D03*
X162555307Y-84074926D03*
X162540000Y-89550000D03*
X185370000Y-104370000D03*
X189770000Y-104370000D03*
X181780000Y-100450000D03*
X186849722Y-99627033D03*
X176510000Y-114540000D03*
X188930000Y-112800000D03*
X185320000Y-117930000D03*
X189370000Y-117200000D03*
X210110000Y-94790000D03*
X204405021Y-92761412D03*
X181570000Y-103800000D03*
X188930000Y-103620000D03*
X182090000Y-114300000D03*
X188490000Y-113720000D03*
X149120000Y-83930000D03*
X157300000Y-80760000D03*
X163880000Y-79880000D03*
X170790000Y-78530000D03*
X174340000Y-78480000D03*
X143728140Y-82270010D03*
X188510000Y-62020000D03*
X175020000Y-69670000D03*
X168520000Y-70000000D03*
X187210000Y-64260000D03*
X164342560Y-70607476D03*
X139730000Y-91970000D03*
X139380000Y-84910000D03*
X144264990Y-85078071D03*
X143684319Y-95696870D03*
X171920000Y-60100000D03*
X156470000Y-71300000D03*
X135784604Y-65309768D03*
X145910000Y-82870000D03*
X175620000Y-58960000D03*
X173050000Y-71590000D03*
X163240000Y-80750000D03*
X160840000Y-81490000D03*
X125480000Y-109190000D03*
X132330000Y-98830000D03*
X148190000Y-83190000D03*
X146037104Y-84604990D03*
X103010000Y-94740000D03*
X106800000Y-91510000D03*
X137240000Y-80960000D03*
X145151010Y-79472257D03*
X155060000Y-117860000D03*
X177997098Y-127065043D03*
X169580000Y-129260000D03*
X154777735Y-118738521D03*
X169640000Y-130090000D03*
X153940389Y-118785073D03*
X156170000Y-109130000D03*
X172010000Y-126500000D03*
X159550000Y-107970000D03*
X167310000Y-108620000D03*
X172850000Y-113910000D03*
X179145348Y-113799990D03*
X159916418Y-105984990D03*
X175990000Y-112810000D03*
X160199988Y-106774079D03*
X167800028Y-107935010D03*
X145640000Y-111880000D03*
X150060000Y-110430000D03*
X144470000Y-113330000D03*
X150130000Y-111660000D03*
X150070000Y-112990000D03*
X145611949Y-113651949D03*
X176370000Y-73960000D03*
X177830000Y-73970000D03*
X167190000Y-88330000D03*
X171241715Y-90004441D03*
X167660000Y-87580000D03*
X171940000Y-89270000D03*
X136450000Y-75894990D03*
X135795354Y-74080132D03*
X122910000Y-91030000D03*
X124860000Y-111100000D03*
X133080000Y-113590000D03*
X159823405Y-123385001D03*
X163860968Y-122770011D03*
X137019990Y-120535120D03*
X123710000Y-91070000D03*
X125370000Y-110480000D03*
X133470000Y-112820000D03*
X136740000Y-119740000D03*
X159070000Y-122760000D03*
X164090000Y-121520000D03*
X99660000Y-91520000D03*
X103060000Y-90740000D03*
X105400000Y-90760000D03*
X96470000Y-91070000D03*
X90250000Y-90730000D03*
X91840000Y-91695010D03*
X90245932Y-91617966D03*
X93760000Y-108110000D03*
X142940000Y-89150000D03*
X145416144Y-102891908D03*
X144704990Y-97191949D03*
X150801728Y-104209552D03*
X155370000Y-115030000D03*
X151910000Y-106600000D03*
X143970000Y-83790000D03*
X144480000Y-95780000D03*
X145800000Y-102190000D03*
X152900000Y-106530000D03*
X155620000Y-114180000D03*
X151631315Y-103842991D03*
X140890000Y-109930000D03*
X141860000Y-124120000D03*
X209100000Y-121450000D03*
X196310000Y-54560000D03*
X197340000Y-58130000D03*
X137460000Y-85540000D03*
X137550000Y-97130000D03*
X126270000Y-108740000D03*
X132880000Y-99630000D03*
X139460000Y-91080000D03*
X140080000Y-85620000D03*
M02*
