M48
; DRILL file {KiCad 5.1.7-a382d34a88~90~ubuntu20.04.1} date Mon Jan 24 09:39:34 2022
; FORMAT={-:-/ absolute / inch / decimal}
; #@! TF.CreationDate,2022-01-24T09:39:34-06:00
; #@! TF.GenerationSoftware,Kicad,Pcbnew,5.1.7-a382d34a88~90~ubuntu20.04.1
; #@! TF.FileFunction,Plated,1,4,PTH
FMAT,2
INCH
T1C0.0157
T2C0.0236
T3C0.0276
T4C0.0300
T5C0.0354
T6C0.0394
T7C0.0472
T8C0.0551
T9C0.0591
T10C0.0630
T11C0.1083
%
G90
G05
T1
X3.5463Y-3.6921
X3.553Y-3.607
X3.5531Y-3.572
X3.6157Y-3.61
X3.6563Y-4.9543
X3.6874Y-5.197
X3.6913Y-4.2563
X3.6996Y-4.9555
X3.7138Y-4.2173
X3.7276Y-3.8846
X3.763Y-3.8654
X3.798Y-3.5854
X3.863Y-3.8677
X3.8846Y-3.7571
X3.9236Y-3.6031
X4.0555Y-3.7299
X4.0575Y-3.5724
X4.1496Y-3.5732
X4.2047Y-3.6028
X4.6469Y-3.8232
X4.7591Y-3.6417
X4.839Y-3.5839
X4.8705Y-3.5854
X4.8951Y-3.7406
X4.9157Y-4.374
X4.9358Y-4.3496
X4.9402Y-4.2988
X4.9598Y-2.4929
X4.9657Y-2.8217
X4.9709Y-2.5724
X4.9713Y-4.2811
X4.9717Y-4.4623
X5.0335Y-4.3303
X5.1173Y-4.328
X5.1496Y-4.2965
X5.1587Y-3.5425
X5.1626Y-2.4937
X5.1791Y-2.8209
X5.2098Y-3.8909
X5.2189Y-4.3315
X5.2315Y-3.9224
X5.2394Y-4.472
X5.2547Y-4.4417
X5.276Y-2.5295
X5.3106Y-2.9059
X5.3459Y-2.5713
X5.3463Y-2.8025
X5.3463Y-2.9165
X5.3598Y-3.5437
X5.3622Y-3.1295
X5.372Y-2.988
X5.3783Y-3.4496
X5.3835Y-4.7142
X5.3945Y-4.7455
X5.4031Y-3.1874
X5.4118Y-3.3677
X5.4154Y-3.824
X5.4318Y-3.8992
X5.4634Y-4.4543
X5.472Y-4.0744
X5.4874Y-3.3429
X5.4906Y-3.5858
X5.5012Y-3.6209
X5.515Y-3.3709
X5.5469Y-4.328
X5.5492Y-4.5882
X5.585Y-4.8866
X5.6217Y-3.661
X5.6232Y-3.8606
X5.6276Y-3.5098
X5.6295Y-4.4941
X5.6504Y-1.7138
X5.6569Y-3.7676
X5.6586Y-3.239
X5.6681Y-3.2988
X5.6797Y-3.3495
X5.6878Y-4.3661
X5.6878Y-4.4618
X5.6882Y-3.7709
X5.69Y-3.09
X5.697Y-3.8265
X5.7067Y-4.5933
X5.7146Y-3.1288
X5.7205Y-3.1622
X5.725Y-4.0509
X5.7328Y-4.4745
X5.7339Y-4.4047
X5.7402Y-4.0232
X5.7445Y-3.2626
X5.7495Y-3.3309
X5.7551Y-4.6453
X5.8248Y-2.2693
X5.8343Y-3.2752
X5.8709Y-3.3043
X5.8764Y-3.8606
X5.878Y-3.6622
X5.9043Y-4.5476
X5.9051Y-4.4972
X5.9079Y-4.3476
X5.9083Y-4.4484
X5.9106Y-4.3961
X5.9118Y-4.6445
X5.9371Y-4.1027
X5.9697Y-4.0883
X5.9807Y-4.1969
X5.9858Y-1.6705
X6.0083Y-4.8126
X6.0197Y-4.1941
X6.0606Y-4.6766
X6.07Y-3.64
X6.0936Y-4.6747
X6.1047Y-4.6402
X6.1169Y-4.5287
X6.1253Y-4.8239
X6.1268Y-4.4953
X6.1435Y-4.6457
X6.1463Y-4.6972
X6.1469Y-4.5969
X6.1484Y-4.2965
X6.1602Y-2.8071
X6.1701Y-3.8996
X6.1854Y-2.8894
X6.1929Y-3.1795
X6.1933Y-5.0811
X6.1961Y-2.8283
X6.213Y-3.7827
X6.2138Y-3.8169
X6.2551Y-3.7
X6.2626Y-4.8331
X6.2815Y-4.2508
X6.2923Y-4.8577
X6.2953Y-4.4886
X6.2959Y-4.1726
X6.3071Y-4.2037
X6.3323Y-3.2083
X6.3327Y-2.8327
X6.3335Y-2.9138
X6.337Y-3.1268
X6.3539Y-3.6929
X6.366Y-3.31
X6.3665Y-2.8783
X6.3684Y-3.5325
X6.3745Y-5.0027
X6.3843Y-4.4
X6.3955Y-4.8551
X6.3992Y-3.5256
X6.3998Y-3.31
X6.4002Y-5.102
X6.4092Y-4.7796
X6.4098Y-4.6256
X6.413Y-3.6878
X6.426Y-3.802
X6.4268Y-3.1791
X6.4398Y-4.1161
X6.4433Y-5.0437
X6.4512Y-4.2
X6.4512Y-4.8335
X6.452Y-3.1449
X6.4524Y-4.0598
X6.4548Y-5.0976
X6.4602Y-4.7843
X6.4681Y-4.6323
X6.4702Y-2.7798
X6.4909Y-4.9535
X6.5177Y-4.6311
X6.5287Y-5.0425
X6.5315Y-4.8614
X6.5339Y-3.6854
X6.5441Y-3.9126
X6.5579Y-3.5059
X6.5677Y-4.8587
X6.5697Y-2.8331
X6.5727Y-4.7898
X6.5823Y-3.4776
X6.587Y-4.2764
X6.5929Y-3.7315
X6.6008Y-3.448
X6.6056Y-4.195
X6.6063Y-4.8567
X6.6063Y-4.2494
X6.6161Y-3.3366
X6.6236Y-3.4256
X6.6252Y-3.8118
X6.6268Y-4.7988
X6.6283Y-2.5291
X6.6346Y-2.7559
X6.6374Y-3.3154
X6.6413Y-4.7524
X6.644Y-4.9072
X6.6582Y-4.947
X6.6614Y-4.6819
X6.6673Y-4.6252
X6.674Y-5.1594
X6.6744Y-5.0563
X6.6764Y-5.089
X6.6764Y-5.2031
X6.6787Y-5.1217
X6.724Y-3.0917
X6.7283Y-3.5854
X6.7382Y-2.4087
X6.7386Y-2.5433
X6.7418Y-3.5435
X6.7669Y-2.4417
X6.7685Y-2.3661
X6.7693Y-3.5146
X6.7713Y-4.324
X6.772Y-4.9803
X6.7909Y-4.7902
X6.7941Y-4.2732
X6.8051Y-4.4846
X6.813Y-2.8185
X6.8366Y-3.2803
X6.8366Y-3.7079
X6.8374Y-3.4559
X6.8441Y-2.7917
X6.8638Y-3.0898
X6.8791Y-4.1551
X6.8803Y-4.0094
X6.8862Y-4.5402
X6.8894Y-4.3476
X6.8906Y-2.7429
X6.8913Y-4.6791
X6.9047Y-3.9311
X6.9122Y-2.5713
X6.9139Y-4.8533
X6.9142Y-2.3213
X6.9169Y-3.098
X6.9287Y-4.4413
X6.9374Y-2.7748
X6.9437Y-2.9118
X6.9492Y-4.5094
X6.9516Y-2.3283
X6.9591Y-3.2031
X6.9598Y-2.7043
X6.9799Y-5.0272
X7.0012Y-2.9122
X7.0078Y-5.0026
X7.0256Y-3.2894
X7.028Y-4.0083
X7.0319Y-4.1559
X7.0327Y-4.5406
X7.0354Y-3.7079
X7.0394Y-2.2717
X7.0402Y-4.3472
X7.0429Y-4.2665
X7.0437Y-4.6776
X7.0496Y-4.7988
X7.053Y-4.4803
X7.0673Y-4.9159
X7.1165Y-2.5272
X7.1484Y-4.0866
X7.1567Y-3.9547
X7.1602Y-2.7244
X7.161Y-2.7752
X7.1618Y-4.2382
X7.1642Y-3.435
X7.1689Y-4.5
X7.2295Y-2.7925
X7.2356Y-2.6431
X7.2406Y-2.8957
X7.2583Y-3.8016
X7.2594Y-4.0012
X7.2618Y-4.1504
X7.2626Y-3.6118
X7.2638Y-3.4724
X7.2665Y-4.5421
X7.2673Y-4.3421
X7.2677Y-4.8701
X7.2681Y-4.6858
X7.2819Y-3.7024
X7.2961Y-4.6429
X7.2976Y-4.7776
X7.298Y-4.1091
X7.3055Y-3.5728
X7.3563Y-3.9223
X7.3705Y-2.5299
X7.3744Y-3.2331
X7.4075Y-3.9996
X7.4094Y-2.3402
X7.4114Y-3.4709
X7.4126Y-3.6126
X7.4126Y-3.8004
X7.413Y-4.3417
X7.4142Y-4.6854
X7.4165Y-4.5398
X7.4189Y-4.8701
X7.4209Y-4.4772
X7.4213Y-4.3039
X7.4217Y-2.4417
X7.4232Y-3.7039
X7.4283Y-4.2291
X7.4382Y-4.0795
X7.4382Y-4.4409
X7.4472Y-4.1894
X7.4555Y-4.6142
X7.4622Y-2.4146
X7.4713Y-4.1091
X7.4764Y-2.6035
X7.5512Y-3.3736
X7.5638Y-2.1894
X7.6067Y-2.4476
X7.6618Y-2.0933
X7.7287Y-2.148
X7.7693Y-2.2886
X7.7817Y-4.7043
X7.8Y-4.6689
X7.824Y-2.1843
X7.86Y-3.88
X7.977Y-3.5503
X8.021Y-2.0319
X8.0474Y-3.652
X8.0508Y-2.2882
X8.0724Y-2.4122
X8.122Y-4.8496
X8.1236Y-1.9953
X8.1961Y-2.2358
X8.2323Y-4.7815
X8.272Y-3.7319
X8.2734Y-4.6236
X8.2797Y-3.981
X8.287Y-1.8902
X8.298Y-4.1853
X8.3281Y-4.0556
X8.3638Y-2.0846
T2
X4.97Y-3.11
X4.987Y-3.2425
X5.17Y-3.11
X5.363Y-3.2437
X5.4025Y-2.8237
X5.4051Y-2.9083
X5.6602Y-2.8626
X5.6622Y-2.8106
X5.7171Y-3.4328
X5.7736Y-3.1059
X5.8882Y-3.2323
X5.8894Y-2.9831
X6.0134Y-3.1075
X7.5701Y-2.5035
X7.9898Y-4.3386
T3
X3.8917Y-2.2132
X3.9307Y-4.0287
X3.9315Y-4.4752
X4.0382Y-4.1087
X4.0488Y-4.5465
X4.1232Y-4.563
X4.2457Y-4.0339
X4.2457Y-4.1843
X4.4689Y-4.4717
X4.5839Y-4.5295
X4.6681Y-4.5319
X4.7815Y-4.4768
X4.828Y-4.1988
X4.828Y-4.2528
X4.8291Y-4.1488
X5.0713Y-4.4793
X5.0907Y-4.093
X5.1539Y-4.1028
X5.1992Y-4.5343
X5.2445Y-4.1236
X5.3866Y-4.5787
X5.3866Y-4.6711
X5.6315Y-1.9831
X5.6335Y-2.052
X5.8709Y-2.0433
X5.8736Y-2.1657
X5.8752Y-1.9831
X5.9496Y-2.0252
X5.9839Y-2.2787
X6.5622Y-2.3413
X6.7008Y-2.2909
X6.8268Y-5.4413
X6.8291Y-5.1276
X6.9882Y-5.4453
X6.9886Y-5.1264
X7.2012Y-2.4051
X7.2409Y-2.328
X7.3142Y-5.1252
X7.3177Y-5.4406
X7.4717Y-5.1264
X7.4756Y-5.4406
X8.2681Y-5.0571
X8.2693Y-4.8406
X7.8674Y-1.8752
X7.8984Y-1.8272
X7.9304Y-1.8752
X7.9624Y-1.8282
X7.9934Y-1.8752
T4
X3.6063Y-3.9633
X3.6063Y-4.0423
X3.6063Y-4.1208
X3.6063Y-4.1998
X3.6063Y-4.2783
X3.6063Y-4.3573
X3.6063Y-4.4358
X3.6063Y-4.5148
X3.6063Y-4.5933
X3.6063Y-4.6723
X3.6063Y-4.7508
X3.6063Y-4.8298
X3.7638Y-3.9243
X3.7638Y-4.0028
X3.7638Y-4.0818
X3.7638Y-4.1603
X3.7638Y-4.2393
X3.7638Y-4.3178
X3.7638Y-4.3968
X3.7638Y-4.4753
X3.7638Y-4.5543
X3.7638Y-4.6328
X3.7638Y-4.7118
X3.7638Y-4.7903
X3.7638Y-4.8693
T6
X4.5157Y-4.0787
X4.5165Y-3.9965
X4.5201Y-4.1504
X4.5941Y-4.0035
X4.5976Y-4.1583
X4.6Y-4.0835
X4.672Y-4.1571
X4.6756Y-4.0004
X4.6756Y-4.0858
X5.315Y-1.9685
X5.3157Y-1.8862
X5.3193Y-2.0402
X5.3933Y-1.8933
X5.3969Y-2.048
X5.3992Y-1.9732
X5.4713Y-2.0469
X5.4748Y-1.8902
X5.4748Y-1.9756
X7.1673Y-1.839
X7.1681Y-1.7567
X7.1717Y-1.9106
X7.2457Y-1.7638
X7.2492Y-1.9185
X7.2516Y-1.8437
X7.3236Y-1.9173
X7.3272Y-1.7606
X7.3272Y-1.8461
X8.1026Y-2.7195
X8.1026Y-2.8195
X8.1026Y-2.9195
X8.1026Y-3.0195
X8.1026Y-3.1195
X8.1026Y-3.2195
X8.1026Y-3.3195
X8.1026Y-3.4195
X8.1026Y-3.5195
X8.1026Y-3.6195
X8.1026Y-3.7195
X8.1026Y-3.8195
X8.1026Y-3.9195
X8.1026Y-4.0195
X8.1026Y-4.1195
X8.1026Y-4.2195
X8.1026Y-4.3195
X8.1026Y-4.4195
X8.1026Y-4.5195
X8.1026Y-4.6195
X8.2026Y-2.7195
X8.2026Y-2.8195
X8.2026Y-2.9195
X8.2026Y-3.0195
X8.2026Y-3.1195
X8.2026Y-3.2195
X8.2026Y-3.3195
X8.2026Y-3.4195
X8.2026Y-3.5195
X8.2026Y-3.6195
X8.2026Y-3.7195
X8.2026Y-3.8195
X8.2026Y-3.9195
X8.2026Y-4.0195
X8.2026Y-4.1195
X8.2026Y-4.2195
X8.2026Y-4.3195
X8.2026Y-4.4195
X8.2026Y-4.5195
X8.2026Y-4.6195
X4.0699Y-4.9734
X4.0699Y-5.0734
X4.1699Y-4.9734
X4.1699Y-5.0734
X4.2699Y-4.9734
X4.2699Y-5.0734
X4.3699Y-4.9734
X4.3699Y-5.0734
X4.4699Y-4.9734
X4.4699Y-5.0734
X4.5699Y-4.9734
X4.5699Y-5.0734
X4.6699Y-4.9734
X4.6699Y-5.0734
X4.7699Y-4.9734
X4.7699Y-5.0734
X4.8699Y-4.9734
X4.8699Y-5.0734
X4.9699Y-4.9734
X4.9699Y-5.0734
X5.0699Y-4.9734
X5.0699Y-5.0734
X5.1699Y-4.9734
X5.1699Y-5.0734
X5.2699Y-4.9734
X5.2699Y-5.0734
X5.3699Y-4.9734
X5.3699Y-5.0734
X5.4699Y-4.9734
X5.4699Y-5.0734
X5.5699Y-4.9734
X5.5699Y-5.0734
X5.6699Y-4.9734
X5.6699Y-5.0734
X5.7699Y-4.9734
X5.7699Y-5.0734
X5.8699Y-4.9734
X5.8699Y-5.0734
X5.9699Y-4.9734
X5.9699Y-5.0734
X7.5689Y-1.7819
X7.5689Y-1.8819
X7.6689Y-1.7819
X7.6689Y-1.8819
X3.6604Y-1.9862
X3.6604Y-2.0862
X3.7604Y-1.9862
X3.7604Y-2.0862
X3.8604Y-1.9862
X3.8604Y-2.0862
X7.6339Y-2.7246
X7.6339Y-2.8246
X7.6339Y-2.9246
X7.6339Y-3.0246
X7.6339Y-3.1246
X7.6339Y-3.2246
X7.6339Y-3.3246
X7.6339Y-3.4246
X7.6339Y-3.5246
X7.6339Y-3.6246
X7.6339Y-3.7246
X7.6339Y-3.8246
X7.6339Y-3.9246
X7.6339Y-4.0246
X7.6339Y-4.1246
X7.6339Y-4.2246
X7.6339Y-4.3246
X7.6339Y-4.4246
X7.6339Y-4.5246
X7.6339Y-4.6246
X7.7339Y-2.7246
X7.7339Y-2.8246
X7.7339Y-2.9246
X7.7339Y-3.0246
X7.7339Y-3.1246
X7.7339Y-3.2246
X7.7339Y-3.3246
X7.7339Y-3.4246
X7.7339Y-3.5246
X7.7339Y-3.6246
X7.7339Y-3.7246
X7.7339Y-3.8246
X7.7339Y-3.9246
X7.7339Y-4.0246
X7.7339Y-4.1246
X7.7339Y-4.2246
X7.7339Y-4.3246
X7.7339Y-4.4246
X7.7339Y-4.5246
X7.7339Y-4.6246
T7
X4.1012Y-1.6884
X4.1012Y-1.8069
X4.2982Y-2.0039
X4.4952Y-1.6884
X4.4952Y-1.8069
X4.6967Y-1.6875
X4.6967Y-1.806
X4.8937Y-2.003
X5.0907Y-1.6875
X5.0907Y-1.806
T8
X3.6132Y-3.1144
X3.6132Y-3.39
X4.0384Y-3.1144
X4.0384Y-3.2522
X4.0384Y-3.39
X4.3002Y-2.4313
X4.3002Y-2.7069
X4.7254Y-2.4313
X4.7254Y-2.5691
X4.7254Y-2.7069
X4.3041Y-3.1144
X4.3041Y-3.39
X4.7293Y-3.1144
X4.7293Y-3.2522
X4.7293Y-3.39
X3.6093Y-2.4313
X3.6093Y-2.7069
X4.0344Y-2.4313
X4.0344Y-2.5691
X4.0344Y-2.7069
T10
X5.7821Y-5.3425
X5.9821Y-5.3425
X6.1821Y-5.3425
X6.3821Y-5.3425
X4.897Y-5.3425
X5.097Y-5.3425
X5.297Y-5.3425
X5.497Y-5.3425
X4.0354Y-5.3431
X4.2354Y-5.3431
X4.4354Y-5.3431
X4.6354Y-5.3431
T11
X3.6299Y-5.389
X3.6299Y-1.7669
X8.2346Y-1.7638
X8.2346Y-5.3898
T3
G00X7.7864Y-1.6526
M15
G01X7.7864Y-1.6998
M16
G05
G00X8.0734Y-1.6526
M15
G01X8.0734Y-1.6998
M16
G05
T5
G00X4.1012Y-1.9902
M15
G01X4.1012Y-2.0177
M16
G05
G00X4.1997Y-1.9902
M15
G01X4.1997Y-2.0177
M16
G05
G00X4.2844Y-1.8069
M15
G01X4.312Y-1.8069
M16
G05
G00X4.3967Y-1.9902
M15
G01X4.3967Y-2.0177
M16
G05
G00X4.4952Y-1.9902
M15
G01X4.4952Y-2.0177
M16
G05
G00X4.6967Y-1.9892
M15
G01X4.6967Y-2.0167
M16
G05
G00X4.7952Y-1.9892
M15
G01X4.7952Y-2.0167
M16
G05
G00X4.8799Y-1.806
M15
G01X4.9075Y-1.806
M16
G05
G00X4.9922Y-1.9892
M15
G01X4.9922Y-2.0167
M16
G05
G00X5.0907Y-1.9892
M15
G01X5.0907Y-2.0167
M16
G05
T9
G00X6.5921Y-2.0016
M15
G01X6.5921Y-2.0803
M16
G05
G00X6.8165Y-1.9228
M15
G01X6.7378Y-1.9228
M16
G05
G00X6.8165Y-2.1591
M15
G01X6.7378Y-2.1591
M16
G05
G00X6.124Y-2.0043
M15
G01X6.124Y-2.0831
M16
G05
G00X6.3484Y-1.9256
M15
G01X6.2697Y-1.9256
M16
G05
G00X6.3484Y-2.1618
M15
G01X6.2697Y-2.1618
M16
G05
G00X7.775Y-4.9882
M15
G01X7.8537Y-4.9882
M16
G05
G00X7.775Y-5.2244
M15
G01X7.8537Y-5.2244
M16
G05
G00X7.9994Y-5.1457
M15
G01X7.9994Y-5.0669
M16
G05
T0
M30
