G04 #@! TF.GenerationSoftware,KiCad,Pcbnew,5.1.7-a382d34a88~90~ubuntu20.04.1*
G04 #@! TF.CreationDate,2022-01-05T08:02:03-06:00*
G04 #@! TF.ProjectId,open-dash-daughterboard,6f70656e-2d64-4617-9368-2d6461756768,rev?*
G04 #@! TF.SameCoordinates,Original*
G04 #@! TF.FileFunction,Soldermask,Top*
G04 #@! TF.FilePolarity,Negative*
%FSLAX46Y46*%
G04 Gerber Fmt 4.6, Leading zero omitted, Abs format (unit mm)*
G04 Created by KiCad (PCBNEW 5.1.7-a382d34a88~90~ubuntu20.04.1) date 2022-01-05 08:02:03*
%MOMM*%
%LPD*%
G01*
G04 APERTURE LIST*
%ADD10C,2.100000*%
%ADD11C,5.400000*%
%ADD12O,2.100000X2.100000*%
%ADD13C,1.200000*%
%ADD14C,1.000000*%
G04 APERTURE END LIST*
D10*
X146400000Y-172510000D03*
X143860000Y-172510000D03*
X141320000Y-172510000D03*
X138780000Y-172510000D03*
X136240000Y-172510000D03*
X133700000Y-172510000D03*
X131160000Y-172510000D03*
X128620000Y-172510000D03*
X126080000Y-172510000D03*
X123540000Y-172510000D03*
X121000000Y-172510000D03*
X118460000Y-172510000D03*
X115920000Y-172510000D03*
X113380000Y-172510000D03*
X110840000Y-172510000D03*
X108300000Y-172510000D03*
X105760000Y-172510000D03*
X103220000Y-172510000D03*
X100680000Y-172510000D03*
X98140000Y-172510000D03*
X146400000Y-175050000D03*
X143860000Y-175050000D03*
X141320000Y-175050000D03*
X138780000Y-175050000D03*
X136240000Y-175050000D03*
X133700000Y-175050000D03*
X131160000Y-175050000D03*
X128620000Y-175050000D03*
X126080000Y-175050000D03*
X123540000Y-175050000D03*
X121000000Y-175050000D03*
X118460000Y-175050000D03*
X115920000Y-175050000D03*
X113380000Y-175050000D03*
X110840000Y-175050000D03*
X108300000Y-175050000D03*
X105760000Y-175050000D03*
X103220000Y-175050000D03*
X100680000Y-175050000D03*
G36*
G01*
X98881177Y-176100000D02*
X97398823Y-176100000D01*
G75*
G02*
X97090000Y-175791177I0J308823D01*
G01*
X97090000Y-174308823D01*
G75*
G02*
X97398823Y-174000000I308823J0D01*
G01*
X98881177Y-174000000D01*
G75*
G02*
X99190000Y-174308823I0J-308823D01*
G01*
X99190000Y-175791177D01*
G75*
G02*
X98881177Y-176100000I-308823J0D01*
G01*
G37*
X206220000Y-193560000D03*
X203680000Y-193560000D03*
X201140000Y-193560000D03*
X198600000Y-193560000D03*
X196060000Y-193560000D03*
X193520000Y-193560000D03*
X190980000Y-193560000D03*
X188440000Y-193560000D03*
X185900000Y-193560000D03*
X183360000Y-193560000D03*
X180820000Y-193560000D03*
X178280000Y-193560000D03*
X175740000Y-193560000D03*
X173200000Y-193560000D03*
X170660000Y-193560000D03*
X168120000Y-193560000D03*
X165580000Y-193560000D03*
X163040000Y-193560000D03*
X160500000Y-193560000D03*
X157960000Y-193560000D03*
X206220000Y-196100000D03*
X203680000Y-196100000D03*
X201140000Y-196100000D03*
X198600000Y-196100000D03*
X196060000Y-196100000D03*
X193520000Y-196100000D03*
X190980000Y-196100000D03*
X188440000Y-196100000D03*
X185900000Y-196100000D03*
X183360000Y-196100000D03*
X180820000Y-196100000D03*
X178280000Y-196100000D03*
X175740000Y-196100000D03*
X173200000Y-196100000D03*
X170660000Y-196100000D03*
X168120000Y-196100000D03*
X165580000Y-196100000D03*
X163040000Y-196100000D03*
X160500000Y-196100000D03*
G36*
G01*
X158701177Y-197150000D02*
X157218823Y-197150000D01*
G75*
G02*
X156910000Y-196841177I0J308823D01*
G01*
X156910000Y-195358823D01*
G75*
G02*
X157218823Y-195050000I308823J0D01*
G01*
X158701177Y-195050000D01*
G75*
G02*
X159010000Y-195358823I0J-308823D01*
G01*
X159010000Y-196841177D01*
G75*
G02*
X158701177Y-197150000I-308823J0D01*
G01*
G37*
X145260000Y-193620000D03*
X142720000Y-193620000D03*
X140180000Y-193620000D03*
X137640000Y-193620000D03*
X135100000Y-193620000D03*
X132560000Y-193620000D03*
X130020000Y-193620000D03*
X127480000Y-193620000D03*
X124940000Y-193620000D03*
X122400000Y-193620000D03*
X119860000Y-193620000D03*
X117320000Y-193620000D03*
X114780000Y-193620000D03*
X112240000Y-193620000D03*
X109700000Y-193620000D03*
X107160000Y-193620000D03*
X104620000Y-193620000D03*
X102080000Y-193620000D03*
X99540000Y-193620000D03*
X97000000Y-193620000D03*
X145260000Y-196160000D03*
X142720000Y-196160000D03*
X140180000Y-196160000D03*
X137640000Y-196160000D03*
X135100000Y-196160000D03*
X132560000Y-196160000D03*
X130020000Y-196160000D03*
X127480000Y-196160000D03*
X124940000Y-196160000D03*
X122400000Y-196160000D03*
X119860000Y-196160000D03*
X117320000Y-196160000D03*
X114780000Y-196160000D03*
X112240000Y-196160000D03*
X109700000Y-196160000D03*
X107160000Y-196160000D03*
X104620000Y-196160000D03*
X102080000Y-196160000D03*
X99540000Y-196160000D03*
G36*
G01*
X97741177Y-197210000D02*
X96258823Y-197210000D01*
G75*
G02*
X95950000Y-196901177I0J308823D01*
G01*
X95950000Y-195418823D01*
G75*
G02*
X96258823Y-195110000I308823J0D01*
G01*
X97741177Y-195110000D01*
G75*
G02*
X98050000Y-195418823I0J-308823D01*
G01*
X98050000Y-196901177D01*
G75*
G02*
X97741177Y-197210000I-308823J0D01*
G01*
G37*
D11*
X92260000Y-202920000D03*
X209160000Y-149820000D03*
X92460000Y-149820000D03*
X209160000Y-202920000D03*
D12*
X195140000Y-181070000D03*
X192600000Y-181070000D03*
X190060000Y-181070000D03*
X187520000Y-181070000D03*
X184980000Y-181070000D03*
X182440000Y-181070000D03*
X179900000Y-181070000D03*
X177360000Y-181070000D03*
X174820000Y-181070000D03*
X172280000Y-181070000D03*
X169740000Y-181070000D03*
G36*
G01*
X168050000Y-182120000D02*
X166350000Y-182120000D01*
G75*
G02*
X166150000Y-181920000I0J200000D01*
G01*
X166150000Y-180220000D01*
G75*
G02*
X166350000Y-180020000I200000J0D01*
G01*
X168050000Y-180020000D01*
G75*
G02*
X168250000Y-180220000I0J-200000D01*
G01*
X168250000Y-181920000D01*
G75*
G02*
X168050000Y-182120000I-200000J0D01*
G01*
G37*
X189000000Y-176870000D03*
X191540000Y-174330000D03*
X196620000Y-176870000D03*
X189000000Y-174330000D03*
X194080000Y-176870000D03*
X196620000Y-174330000D03*
X191540000Y-176870000D03*
X194080000Y-174330000D03*
G36*
G01*
X162800000Y-173280000D02*
X164500000Y-173280000D01*
G75*
G02*
X164700000Y-173480000I0J-200000D01*
G01*
X164700000Y-175180000D01*
G75*
G02*
X164500000Y-175380000I-200000J0D01*
G01*
X162800000Y-175380000D01*
G75*
G02*
X162600000Y-175180000I0J200000D01*
G01*
X162600000Y-173480000D01*
G75*
G02*
X162800000Y-173280000I200000J0D01*
G01*
G37*
X163650000Y-176870000D03*
X166190000Y-174330000D03*
X166190000Y-176870000D03*
X168730000Y-174330000D03*
X168730000Y-176870000D03*
X171270000Y-174330000D03*
X171270000Y-176870000D03*
X175650000Y-174330000D03*
X175650000Y-176870000D03*
X178190000Y-174330000D03*
X178190000Y-176870000D03*
X180730000Y-174330000D03*
X180730000Y-176870000D03*
X183270000Y-174330000D03*
X183270000Y-176870000D03*
X194740000Y-170270000D03*
X192200000Y-170270000D03*
X189660000Y-170270000D03*
X187120000Y-170270000D03*
X184580000Y-170270000D03*
X182040000Y-170270000D03*
X179500000Y-170270000D03*
X176960000Y-170270000D03*
X174420000Y-170270000D03*
X171880000Y-170270000D03*
X169340000Y-170270000D03*
G36*
G01*
X167650000Y-171320000D02*
X165950000Y-171320000D01*
G75*
G02*
X165750000Y-171120000I0J200000D01*
G01*
X165750000Y-169420000D01*
G75*
G02*
X165950000Y-169220000I200000J0D01*
G01*
X167650000Y-169220000D01*
G75*
G02*
X167850000Y-169420000I0J-200000D01*
G01*
X167850000Y-171120000D01*
G75*
G02*
X167650000Y-171320000I-200000J0D01*
G01*
G37*
X146420000Y-166820000D03*
X143880000Y-166820000D03*
X141340000Y-166820000D03*
X138800000Y-166820000D03*
X136260000Y-166820000D03*
X133720000Y-166820000D03*
X131180000Y-166820000D03*
X128640000Y-166820000D03*
X126100000Y-166820000D03*
X123560000Y-166820000D03*
X121020000Y-166820000D03*
X118480000Y-166820000D03*
X115940000Y-166820000D03*
X113400000Y-166820000D03*
X110860000Y-166820000D03*
X108320000Y-166820000D03*
X105780000Y-166820000D03*
X103240000Y-166820000D03*
X100700000Y-166820000D03*
G36*
G01*
X99010000Y-167870000D02*
X97310000Y-167870000D01*
G75*
G02*
X97110000Y-167670000I0J200000D01*
G01*
X97110000Y-165970000D01*
G75*
G02*
X97310000Y-165770000I200000J0D01*
G01*
X99010000Y-165770000D01*
G75*
G02*
X99210000Y-165970000I0J-200000D01*
G01*
X99210000Y-167670000D01*
G75*
G02*
X99010000Y-167870000I-200000J0D01*
G01*
G37*
X145320000Y-181420000D03*
X142780000Y-181420000D03*
X140240000Y-181420000D03*
X137700000Y-181420000D03*
X135160000Y-181420000D03*
X132620000Y-181420000D03*
X130080000Y-181420000D03*
X127540000Y-181420000D03*
X125000000Y-181420000D03*
X122460000Y-181420000D03*
X119920000Y-181420000D03*
X117380000Y-181420000D03*
X114840000Y-181420000D03*
X112300000Y-181420000D03*
X109760000Y-181420000D03*
X107220000Y-181420000D03*
X104680000Y-181420000D03*
X102140000Y-181420000D03*
X99600000Y-181420000D03*
G36*
G01*
X97910000Y-182470000D02*
X96210000Y-182470000D01*
G75*
G02*
X96010000Y-182270000I0J200000D01*
G01*
X96010000Y-180570000D01*
G75*
G02*
X96210000Y-180370000I200000J0D01*
G01*
X97910000Y-180370000D01*
G75*
G02*
X98110000Y-180570000I0J-200000D01*
G01*
X98110000Y-182270000D01*
G75*
G02*
X97910000Y-182470000I-200000J0D01*
G01*
G37*
X194120000Y-149875000D03*
X191580000Y-149875000D03*
X189040000Y-149875000D03*
X186500000Y-149875000D03*
X183960000Y-149875000D03*
X181420000Y-149875000D03*
X178880000Y-149875000D03*
G36*
G01*
X177190000Y-150925000D02*
X175490000Y-150925000D01*
G75*
G02*
X175290000Y-150725000I0J200000D01*
G01*
X175290000Y-149025000D01*
G75*
G02*
X175490000Y-148825000I200000J0D01*
G01*
X177190000Y-148825000D01*
G75*
G02*
X177390000Y-149025000I0J-200000D01*
G01*
X177390000Y-150725000D01*
G75*
G02*
X177190000Y-150925000I-200000J0D01*
G01*
G37*
X175890000Y-153895000D03*
X175890000Y-156435000D03*
X178430000Y-153895000D03*
X178430000Y-156435000D03*
X180970000Y-153895000D03*
X180970000Y-156435000D03*
X183510000Y-153895000D03*
X183510000Y-156435000D03*
X187890000Y-153895000D03*
X187890000Y-156435000D03*
X190430000Y-153895000D03*
X190430000Y-156435000D03*
X192970000Y-153895000D03*
X192970000Y-156435000D03*
X195510000Y-153895000D03*
G36*
G01*
X196360000Y-157485000D02*
X194660000Y-157485000D01*
G75*
G02*
X194460000Y-157285000I0J200000D01*
G01*
X194460000Y-155585000D01*
G75*
G02*
X194660000Y-155385000I200000J0D01*
G01*
X196360000Y-155385000D01*
G75*
G02*
X196560000Y-155585000I0J-200000D01*
G01*
X196560000Y-157285000D01*
G75*
G02*
X196360000Y-157485000I-200000J0D01*
G01*
G37*
X194420000Y-160175000D03*
X191880000Y-160175000D03*
X189340000Y-160175000D03*
X186800000Y-160175000D03*
X184260000Y-160175000D03*
X181720000Y-160175000D03*
X179180000Y-160175000D03*
G36*
G01*
X177490000Y-161225000D02*
X175790000Y-161225000D01*
G75*
G02*
X175590000Y-161025000I0J200000D01*
G01*
X175590000Y-159325000D01*
G75*
G02*
X175790000Y-159125000I200000J0D01*
G01*
X177490000Y-159125000D01*
G75*
G02*
X177690000Y-159325000I0J-200000D01*
G01*
X177690000Y-161025000D01*
G75*
G02*
X177490000Y-161225000I-200000J0D01*
G01*
G37*
X202280000Y-202820000D03*
X199740000Y-202820000D03*
X197200000Y-202820000D03*
X194660000Y-202820000D03*
X192120000Y-202820000D03*
X189580000Y-202820000D03*
X187040000Y-202820000D03*
X184500000Y-202820000D03*
X181960000Y-202820000D03*
X179420000Y-202820000D03*
X176880000Y-202820000D03*
X174340000Y-202820000D03*
X171800000Y-202820000D03*
X169260000Y-202820000D03*
X166720000Y-202820000D03*
X164180000Y-202820000D03*
X161640000Y-202820000D03*
X159100000Y-202820000D03*
X156560000Y-202820000D03*
G36*
G01*
X154870000Y-203870000D02*
X153170000Y-203870000D01*
G75*
G02*
X152970000Y-203670000I0J200000D01*
G01*
X152970000Y-201970000D01*
G75*
G02*
X153170000Y-201770000I200000J0D01*
G01*
X154870000Y-201770000D01*
G75*
G02*
X155070000Y-201970000I0J-200000D01*
G01*
X155070000Y-203670000D01*
G75*
G02*
X154870000Y-203870000I-200000J0D01*
G01*
G37*
X206320000Y-187920000D03*
X203780000Y-187920000D03*
X201240000Y-187920000D03*
X198700000Y-187920000D03*
X196160000Y-187920000D03*
X193620000Y-187920000D03*
X191080000Y-187920000D03*
X188540000Y-187920000D03*
X186000000Y-187920000D03*
X183460000Y-187920000D03*
X180920000Y-187920000D03*
X178380000Y-187920000D03*
X175840000Y-187920000D03*
X173300000Y-187920000D03*
X170760000Y-187920000D03*
X168220000Y-187920000D03*
X165680000Y-187920000D03*
X163140000Y-187920000D03*
X160600000Y-187920000D03*
G36*
G01*
X158910000Y-188970000D02*
X157210000Y-188970000D01*
G75*
G02*
X157010000Y-188770000I0J200000D01*
G01*
X157010000Y-187070000D01*
G75*
G02*
X157210000Y-186870000I200000J0D01*
G01*
X158910000Y-186870000D01*
G75*
G02*
X159110000Y-187070000I0J-200000D01*
G01*
X159110000Y-188770000D01*
G75*
G02*
X158910000Y-188970000I-200000J0D01*
G01*
G37*
X122400000Y-149850000D03*
X119860000Y-149850000D03*
X117320000Y-149850000D03*
X114780000Y-149850000D03*
X112240000Y-149850000D03*
X109700000Y-149850000D03*
X107160000Y-149850000D03*
G36*
G01*
X105470000Y-150900000D02*
X103770000Y-150900000D01*
G75*
G02*
X103570000Y-150700000I0J200000D01*
G01*
X103570000Y-149000000D01*
G75*
G02*
X103770000Y-148800000I200000J0D01*
G01*
X105470000Y-148800000D01*
G75*
G02*
X105670000Y-149000000I0J-200000D01*
G01*
X105670000Y-150700000D01*
G75*
G02*
X105470000Y-150900000I-200000J0D01*
G01*
G37*
X103700000Y-153700000D03*
X103700000Y-156240000D03*
X106240000Y-153700000D03*
X106240000Y-156240000D03*
X108780000Y-153700000D03*
X108780000Y-156240000D03*
X111320000Y-153700000D03*
X111320000Y-156240000D03*
X115700000Y-153700000D03*
X115700000Y-156240000D03*
X118240000Y-153700000D03*
X118240000Y-156240000D03*
X120780000Y-153700000D03*
X120780000Y-156240000D03*
X123320000Y-153700000D03*
G36*
G01*
X124170000Y-157290000D02*
X122470000Y-157290000D01*
G75*
G02*
X122270000Y-157090000I0J200000D01*
G01*
X122270000Y-155390000D01*
G75*
G02*
X122470000Y-155190000I200000J0D01*
G01*
X124170000Y-155190000D01*
G75*
G02*
X124370000Y-155390000I0J-200000D01*
G01*
X124370000Y-157090000D01*
G75*
G02*
X124170000Y-157290000I-200000J0D01*
G01*
G37*
X122350000Y-159890000D03*
X119810000Y-159890000D03*
X117270000Y-159890000D03*
X114730000Y-159890000D03*
X112190000Y-159890000D03*
X109650000Y-159890000D03*
X107110000Y-159890000D03*
G36*
G01*
X105420000Y-160940000D02*
X103720000Y-160940000D01*
G75*
G02*
X103520000Y-160740000I0J200000D01*
G01*
X103520000Y-159040000D01*
G75*
G02*
X103720000Y-158840000I200000J0D01*
G01*
X105420000Y-158840000D01*
G75*
G02*
X105620000Y-159040000I0J-200000D01*
G01*
X105620000Y-160740000D01*
G75*
G02*
X105420000Y-160940000I-200000J0D01*
G01*
G37*
X145320000Y-187920000D03*
X142780000Y-187920000D03*
X140240000Y-187920000D03*
X137700000Y-187920000D03*
X135160000Y-187920000D03*
X132620000Y-187920000D03*
X130080000Y-187920000D03*
X127540000Y-187920000D03*
X125000000Y-187920000D03*
X122460000Y-187920000D03*
X119920000Y-187920000D03*
X117380000Y-187920000D03*
X114840000Y-187920000D03*
X112300000Y-187920000D03*
X109760000Y-187920000D03*
X107220000Y-187920000D03*
X104680000Y-187920000D03*
X102140000Y-187920000D03*
X99600000Y-187920000D03*
G36*
G01*
X97910000Y-188970000D02*
X96210000Y-188970000D01*
G75*
G02*
X96010000Y-188770000I0J200000D01*
G01*
X96010000Y-187070000D01*
G75*
G02*
X96210000Y-186870000I200000J0D01*
G01*
X97910000Y-186870000D01*
G75*
G02*
X98110000Y-187070000I0J-200000D01*
G01*
X98110000Y-188770000D01*
G75*
G02*
X97910000Y-188970000I-200000J0D01*
G01*
G37*
X148920000Y-202820000D03*
X146380000Y-202820000D03*
X143840000Y-202820000D03*
X141300000Y-202820000D03*
X138760000Y-202820000D03*
X136220000Y-202820000D03*
X133680000Y-202820000D03*
X131140000Y-202820000D03*
X128600000Y-202820000D03*
X126060000Y-202820000D03*
X123520000Y-202820000D03*
X120980000Y-202820000D03*
X118440000Y-202820000D03*
X115900000Y-202820000D03*
X113360000Y-202820000D03*
X110820000Y-202820000D03*
X108280000Y-202820000D03*
X105740000Y-202820000D03*
X103200000Y-202820000D03*
G36*
G01*
X101510000Y-203870000D02*
X99810000Y-203870000D01*
G75*
G02*
X99610000Y-203670000I0J200000D01*
G01*
X99610000Y-201970000D01*
G75*
G02*
X99810000Y-201770000I200000J0D01*
G01*
X101510000Y-201770000D01*
G75*
G02*
X101710000Y-201970000I0J-200000D01*
G01*
X101710000Y-203670000D01*
G75*
G02*
X101510000Y-203870000I-200000J0D01*
G01*
G37*
X158210000Y-149920000D03*
X155670000Y-149920000D03*
X153130000Y-149920000D03*
X150590000Y-149920000D03*
X148050000Y-149920000D03*
X145510000Y-149920000D03*
X142970000Y-149920000D03*
G36*
G01*
X141280000Y-150970000D02*
X139580000Y-150970000D01*
G75*
G02*
X139380000Y-150770000I0J200000D01*
G01*
X139380000Y-149070000D01*
G75*
G02*
X139580000Y-148870000I200000J0D01*
G01*
X141280000Y-148870000D01*
G75*
G02*
X141480000Y-149070000I0J-200000D01*
G01*
X141480000Y-150770000D01*
G75*
G02*
X141280000Y-150970000I-200000J0D01*
G01*
G37*
X139570000Y-154130000D03*
X139570000Y-156670000D03*
X142110000Y-154130000D03*
X142110000Y-156670000D03*
X144650000Y-154130000D03*
X144650000Y-156670000D03*
X147190000Y-154130000D03*
X147190000Y-156670000D03*
X151570000Y-154130000D03*
X151570000Y-156670000D03*
X154110000Y-154130000D03*
X154110000Y-156670000D03*
X156650000Y-154130000D03*
X156650000Y-156670000D03*
X159190000Y-154130000D03*
G36*
G01*
X160040000Y-157720000D02*
X158340000Y-157720000D01*
G75*
G02*
X158140000Y-157520000I0J200000D01*
G01*
X158140000Y-155820000D01*
G75*
G02*
X158340000Y-155620000I200000J0D01*
G01*
X160040000Y-155620000D01*
G75*
G02*
X160240000Y-155820000I0J-200000D01*
G01*
X160240000Y-157520000D01*
G75*
G02*
X160040000Y-157720000I-200000J0D01*
G01*
G37*
X158210000Y-160720000D03*
X155670000Y-160720000D03*
X153130000Y-160720000D03*
X150590000Y-160720000D03*
X148050000Y-160720000D03*
X145510000Y-160720000D03*
X142970000Y-160720000D03*
G36*
G01*
X141280000Y-161770000D02*
X139580000Y-161770000D01*
G75*
G02*
X139380000Y-161570000I0J200000D01*
G01*
X139380000Y-159870000D01*
G75*
G02*
X139580000Y-159670000I200000J0D01*
G01*
X141280000Y-159670000D01*
G75*
G02*
X141480000Y-159870000I0J-200000D01*
G01*
X141480000Y-161570000D01*
G75*
G02*
X141280000Y-161770000I-200000J0D01*
G01*
G37*
D13*
X103350000Y-178210000D03*
X129120000Y-178400000D03*
X129640000Y-177350010D03*
X123841888Y-182855475D03*
X160640000Y-177930000D03*
X95760000Y-178020000D03*
X116437084Y-184409017D03*
X103860000Y-185380000D03*
X98820000Y-185280000D03*
X101310000Y-184460000D03*
X115840000Y-189770000D03*
X97300000Y-183410000D03*
X106970000Y-186160021D03*
X118211376Y-186647200D03*
D14*
X128350000Y-176500000D03*
X148525000Y-176375000D03*
M02*
