G04 #@! TF.GenerationSoftware,KiCad,Pcbnew,5.1.7-a382d34a88~90~ubuntu20.04.1*
G04 #@! TF.CreationDate,2022-01-05T08:02:03-06:00*
G04 #@! TF.ProjectId,open-dash-daughterboard,6f70656e-2d64-4617-9368-2d6461756768,rev?*
G04 #@! TF.SameCoordinates,Original*
G04 #@! TF.FileFunction,Copper,L4,Bot*
G04 #@! TF.FilePolarity,Positive*
%FSLAX46Y46*%
G04 Gerber Fmt 4.6, Leading zero omitted, Abs format (unit mm)*
G04 Created by KiCad (PCBNEW 5.1.7-a382d34a88~90~ubuntu20.04.1) date 2022-01-05 08:02:03*
%MOMM*%
%LPD*%
G01*
G04 APERTURE LIST*
G04 #@! TA.AperFunction,ComponentPad*
%ADD10C,1.700000*%
G04 #@! TD*
G04 #@! TA.AperFunction,ComponentPad*
%ADD11C,5.000000*%
G04 #@! TD*
G04 #@! TA.AperFunction,ComponentPad*
%ADD12O,1.700000X1.700000*%
G04 #@! TD*
G04 #@! TA.AperFunction,ComponentPad*
%ADD13R,1.700000X1.700000*%
G04 #@! TD*
G04 #@! TA.AperFunction,ViaPad*
%ADD14C,0.800000*%
G04 #@! TD*
G04 #@! TA.AperFunction,ViaPad*
%ADD15C,0.600000*%
G04 #@! TD*
G04 #@! TA.AperFunction,Conductor*
%ADD16C,0.400000*%
G04 #@! TD*
G04 #@! TA.AperFunction,Conductor*
%ADD17C,0.500000*%
G04 #@! TD*
G04 APERTURE END LIST*
D10*
X146400000Y-172510000D03*
X143860000Y-172510000D03*
X141320000Y-172510000D03*
X138780000Y-172510000D03*
X136240000Y-172510000D03*
X133700000Y-172510000D03*
X131160000Y-172510000D03*
X128620000Y-172510000D03*
X126080000Y-172510000D03*
X123540000Y-172510000D03*
X121000000Y-172510000D03*
X118460000Y-172510000D03*
X115920000Y-172510000D03*
X113380000Y-172510000D03*
X110840000Y-172510000D03*
X108300000Y-172510000D03*
X105760000Y-172510000D03*
X103220000Y-172510000D03*
X100680000Y-172510000D03*
X98140000Y-172510000D03*
X146400000Y-175050000D03*
X143860000Y-175050000D03*
X141320000Y-175050000D03*
X138780000Y-175050000D03*
X136240000Y-175050000D03*
X133700000Y-175050000D03*
X131160000Y-175050000D03*
X128620000Y-175050000D03*
X126080000Y-175050000D03*
X123540000Y-175050000D03*
X121000000Y-175050000D03*
X118460000Y-175050000D03*
X115920000Y-175050000D03*
X113380000Y-175050000D03*
X110840000Y-175050000D03*
X108300000Y-175050000D03*
X105760000Y-175050000D03*
X103220000Y-175050000D03*
X100680000Y-175050000D03*
G04 #@! TA.AperFunction,ComponentPad*
G36*
G01*
X98740000Y-175900000D02*
X97540000Y-175900000D01*
G75*
G02*
X97290000Y-175650000I0J250000D01*
G01*
X97290000Y-174450000D01*
G75*
G02*
X97540000Y-174200000I250000J0D01*
G01*
X98740000Y-174200000D01*
G75*
G02*
X98990000Y-174450000I0J-250000D01*
G01*
X98990000Y-175650000D01*
G75*
G02*
X98740000Y-175900000I-250000J0D01*
G01*
G37*
G04 #@! TD.AperFunction*
X206220000Y-193560000D03*
X203680000Y-193560000D03*
X201140000Y-193560000D03*
X198600000Y-193560000D03*
X196060000Y-193560000D03*
X193520000Y-193560000D03*
X190980000Y-193560000D03*
X188440000Y-193560000D03*
X185900000Y-193560000D03*
X183360000Y-193560000D03*
X180820000Y-193560000D03*
X178280000Y-193560000D03*
X175740000Y-193560000D03*
X173200000Y-193560000D03*
X170660000Y-193560000D03*
X168120000Y-193560000D03*
X165580000Y-193560000D03*
X163040000Y-193560000D03*
X160500000Y-193560000D03*
X157960000Y-193560000D03*
X206220000Y-196100000D03*
X203680000Y-196100000D03*
X201140000Y-196100000D03*
X198600000Y-196100000D03*
X196060000Y-196100000D03*
X193520000Y-196100000D03*
X190980000Y-196100000D03*
X188440000Y-196100000D03*
X185900000Y-196100000D03*
X183360000Y-196100000D03*
X180820000Y-196100000D03*
X178280000Y-196100000D03*
X175740000Y-196100000D03*
X173200000Y-196100000D03*
X170660000Y-196100000D03*
X168120000Y-196100000D03*
X165580000Y-196100000D03*
X163040000Y-196100000D03*
X160500000Y-196100000D03*
G04 #@! TA.AperFunction,ComponentPad*
G36*
G01*
X158560000Y-196950000D02*
X157360000Y-196950000D01*
G75*
G02*
X157110000Y-196700000I0J250000D01*
G01*
X157110000Y-195500000D01*
G75*
G02*
X157360000Y-195250000I250000J0D01*
G01*
X158560000Y-195250000D01*
G75*
G02*
X158810000Y-195500000I0J-250000D01*
G01*
X158810000Y-196700000D01*
G75*
G02*
X158560000Y-196950000I-250000J0D01*
G01*
G37*
G04 #@! TD.AperFunction*
X145260000Y-193620000D03*
X142720000Y-193620000D03*
X140180000Y-193620000D03*
X137640000Y-193620000D03*
X135100000Y-193620000D03*
X132560000Y-193620000D03*
X130020000Y-193620000D03*
X127480000Y-193620000D03*
X124940000Y-193620000D03*
X122400000Y-193620000D03*
X119860000Y-193620000D03*
X117320000Y-193620000D03*
X114780000Y-193620000D03*
X112240000Y-193620000D03*
X109700000Y-193620000D03*
X107160000Y-193620000D03*
X104620000Y-193620000D03*
X102080000Y-193620000D03*
X99540000Y-193620000D03*
X97000000Y-193620000D03*
X145260000Y-196160000D03*
X142720000Y-196160000D03*
X140180000Y-196160000D03*
X137640000Y-196160000D03*
X135100000Y-196160000D03*
X132560000Y-196160000D03*
X130020000Y-196160000D03*
X127480000Y-196160000D03*
X124940000Y-196160000D03*
X122400000Y-196160000D03*
X119860000Y-196160000D03*
X117320000Y-196160000D03*
X114780000Y-196160000D03*
X112240000Y-196160000D03*
X109700000Y-196160000D03*
X107160000Y-196160000D03*
X104620000Y-196160000D03*
X102080000Y-196160000D03*
X99540000Y-196160000D03*
G04 #@! TA.AperFunction,ComponentPad*
G36*
G01*
X97600000Y-197010000D02*
X96400000Y-197010000D01*
G75*
G02*
X96150000Y-196760000I0J250000D01*
G01*
X96150000Y-195560000D01*
G75*
G02*
X96400000Y-195310000I250000J0D01*
G01*
X97600000Y-195310000D01*
G75*
G02*
X97850000Y-195560000I0J-250000D01*
G01*
X97850000Y-196760000D01*
G75*
G02*
X97600000Y-197010000I-250000J0D01*
G01*
G37*
G04 #@! TD.AperFunction*
D11*
X92260000Y-202920000D03*
X209160000Y-149820000D03*
X92460000Y-149820000D03*
X209160000Y-202920000D03*
D12*
X195140000Y-181070000D03*
X192600000Y-181070000D03*
X190060000Y-181070000D03*
X187520000Y-181070000D03*
X184980000Y-181070000D03*
X182440000Y-181070000D03*
X179900000Y-181070000D03*
X177360000Y-181070000D03*
X174820000Y-181070000D03*
X172280000Y-181070000D03*
X169740000Y-181070000D03*
D13*
X167200000Y-181070000D03*
D12*
X189000000Y-176870000D03*
X191540000Y-174330000D03*
X196620000Y-176870000D03*
X189000000Y-174330000D03*
X194080000Y-176870000D03*
X196620000Y-174330000D03*
X191540000Y-176870000D03*
X194080000Y-174330000D03*
D13*
X163650000Y-174330000D03*
D12*
X163650000Y-176870000D03*
X166190000Y-174330000D03*
X166190000Y-176870000D03*
X168730000Y-174330000D03*
X168730000Y-176870000D03*
X171270000Y-174330000D03*
X171270000Y-176870000D03*
X175650000Y-174330000D03*
X175650000Y-176870000D03*
X178190000Y-174330000D03*
X178190000Y-176870000D03*
X180730000Y-174330000D03*
X180730000Y-176870000D03*
X183270000Y-174330000D03*
X183270000Y-176870000D03*
X194740000Y-170270000D03*
X192200000Y-170270000D03*
X189660000Y-170270000D03*
X187120000Y-170270000D03*
X184580000Y-170270000D03*
X182040000Y-170270000D03*
X179500000Y-170270000D03*
X176960000Y-170270000D03*
X174420000Y-170270000D03*
X171880000Y-170270000D03*
X169340000Y-170270000D03*
D13*
X166800000Y-170270000D03*
D12*
X146420000Y-166820000D03*
X143880000Y-166820000D03*
X141340000Y-166820000D03*
X138800000Y-166820000D03*
X136260000Y-166820000D03*
X133720000Y-166820000D03*
X131180000Y-166820000D03*
X128640000Y-166820000D03*
X126100000Y-166820000D03*
X123560000Y-166820000D03*
X121020000Y-166820000D03*
X118480000Y-166820000D03*
X115940000Y-166820000D03*
X113400000Y-166820000D03*
X110860000Y-166820000D03*
X108320000Y-166820000D03*
X105780000Y-166820000D03*
X103240000Y-166820000D03*
X100700000Y-166820000D03*
D13*
X98160000Y-166820000D03*
D12*
X145320000Y-181420000D03*
X142780000Y-181420000D03*
X140240000Y-181420000D03*
X137700000Y-181420000D03*
X135160000Y-181420000D03*
X132620000Y-181420000D03*
X130080000Y-181420000D03*
X127540000Y-181420000D03*
X125000000Y-181420000D03*
X122460000Y-181420000D03*
X119920000Y-181420000D03*
X117380000Y-181420000D03*
X114840000Y-181420000D03*
X112300000Y-181420000D03*
X109760000Y-181420000D03*
X107220000Y-181420000D03*
X104680000Y-181420000D03*
X102140000Y-181420000D03*
X99600000Y-181420000D03*
D13*
X97060000Y-181420000D03*
D12*
X194120000Y-149875000D03*
X191580000Y-149875000D03*
X189040000Y-149875000D03*
X186500000Y-149875000D03*
X183960000Y-149875000D03*
X181420000Y-149875000D03*
X178880000Y-149875000D03*
D13*
X176340000Y-149875000D03*
D12*
X175890000Y-153895000D03*
X175890000Y-156435000D03*
X178430000Y-153895000D03*
X178430000Y-156435000D03*
X180970000Y-153895000D03*
X180970000Y-156435000D03*
X183510000Y-153895000D03*
X183510000Y-156435000D03*
X187890000Y-153895000D03*
X187890000Y-156435000D03*
X190430000Y-153895000D03*
X190430000Y-156435000D03*
X192970000Y-153895000D03*
X192970000Y-156435000D03*
X195510000Y-153895000D03*
D13*
X195510000Y-156435000D03*
D12*
X194420000Y-160175000D03*
X191880000Y-160175000D03*
X189340000Y-160175000D03*
X186800000Y-160175000D03*
X184260000Y-160175000D03*
X181720000Y-160175000D03*
X179180000Y-160175000D03*
D13*
X176640000Y-160175000D03*
D12*
X202280000Y-202820000D03*
X199740000Y-202820000D03*
X197200000Y-202820000D03*
X194660000Y-202820000D03*
X192120000Y-202820000D03*
X189580000Y-202820000D03*
X187040000Y-202820000D03*
X184500000Y-202820000D03*
X181960000Y-202820000D03*
X179420000Y-202820000D03*
X176880000Y-202820000D03*
X174340000Y-202820000D03*
X171800000Y-202820000D03*
X169260000Y-202820000D03*
X166720000Y-202820000D03*
X164180000Y-202820000D03*
X161640000Y-202820000D03*
X159100000Y-202820000D03*
X156560000Y-202820000D03*
D13*
X154020000Y-202820000D03*
D12*
X206320000Y-187920000D03*
X203780000Y-187920000D03*
X201240000Y-187920000D03*
X198700000Y-187920000D03*
X196160000Y-187920000D03*
X193620000Y-187920000D03*
X191080000Y-187920000D03*
X188540000Y-187920000D03*
X186000000Y-187920000D03*
X183460000Y-187920000D03*
X180920000Y-187920000D03*
X178380000Y-187920000D03*
X175840000Y-187920000D03*
X173300000Y-187920000D03*
X170760000Y-187920000D03*
X168220000Y-187920000D03*
X165680000Y-187920000D03*
X163140000Y-187920000D03*
X160600000Y-187920000D03*
D13*
X158060000Y-187920000D03*
D12*
X122400000Y-149850000D03*
X119860000Y-149850000D03*
X117320000Y-149850000D03*
X114780000Y-149850000D03*
X112240000Y-149850000D03*
X109700000Y-149850000D03*
X107160000Y-149850000D03*
D13*
X104620000Y-149850000D03*
D12*
X103700000Y-153700000D03*
X103700000Y-156240000D03*
X106240000Y-153700000D03*
X106240000Y-156240000D03*
X108780000Y-153700000D03*
X108780000Y-156240000D03*
X111320000Y-153700000D03*
X111320000Y-156240000D03*
X115700000Y-153700000D03*
X115700000Y-156240000D03*
X118240000Y-153700000D03*
X118240000Y-156240000D03*
X120780000Y-153700000D03*
X120780000Y-156240000D03*
X123320000Y-153700000D03*
D13*
X123320000Y-156240000D03*
D12*
X122350000Y-159890000D03*
X119810000Y-159890000D03*
X117270000Y-159890000D03*
X114730000Y-159890000D03*
X112190000Y-159890000D03*
X109650000Y-159890000D03*
X107110000Y-159890000D03*
D13*
X104570000Y-159890000D03*
D12*
X145320000Y-187920000D03*
X142780000Y-187920000D03*
X140240000Y-187920000D03*
X137700000Y-187920000D03*
X135160000Y-187920000D03*
X132620000Y-187920000D03*
X130080000Y-187920000D03*
X127540000Y-187920000D03*
X125000000Y-187920000D03*
X122460000Y-187920000D03*
X119920000Y-187920000D03*
X117380000Y-187920000D03*
X114840000Y-187920000D03*
X112300000Y-187920000D03*
X109760000Y-187920000D03*
X107220000Y-187920000D03*
X104680000Y-187920000D03*
X102140000Y-187920000D03*
X99600000Y-187920000D03*
D13*
X97060000Y-187920000D03*
D12*
X148920000Y-202820000D03*
X146380000Y-202820000D03*
X143840000Y-202820000D03*
X141300000Y-202820000D03*
X138760000Y-202820000D03*
X136220000Y-202820000D03*
X133680000Y-202820000D03*
X131140000Y-202820000D03*
X128600000Y-202820000D03*
X126060000Y-202820000D03*
X123520000Y-202820000D03*
X120980000Y-202820000D03*
X118440000Y-202820000D03*
X115900000Y-202820000D03*
X113360000Y-202820000D03*
X110820000Y-202820000D03*
X108280000Y-202820000D03*
X105740000Y-202820000D03*
X103200000Y-202820000D03*
D13*
X100660000Y-202820000D03*
D12*
X158210000Y-149920000D03*
X155670000Y-149920000D03*
X153130000Y-149920000D03*
X150590000Y-149920000D03*
X148050000Y-149920000D03*
X145510000Y-149920000D03*
X142970000Y-149920000D03*
D13*
X140430000Y-149920000D03*
D12*
X139570000Y-154130000D03*
X139570000Y-156670000D03*
X142110000Y-154130000D03*
X142110000Y-156670000D03*
X144650000Y-154130000D03*
X144650000Y-156670000D03*
X147190000Y-154130000D03*
X147190000Y-156670000D03*
X151570000Y-154130000D03*
X151570000Y-156670000D03*
X154110000Y-154130000D03*
X154110000Y-156670000D03*
X156650000Y-154130000D03*
X156650000Y-156670000D03*
X159190000Y-154130000D03*
D13*
X159190000Y-156670000D03*
D12*
X158210000Y-160720000D03*
X155670000Y-160720000D03*
X153130000Y-160720000D03*
X150590000Y-160720000D03*
X148050000Y-160720000D03*
X145510000Y-160720000D03*
X142970000Y-160720000D03*
D13*
X140430000Y-160720000D03*
D14*
X103350000Y-178210000D03*
X129120000Y-178400000D03*
X129640000Y-177350010D03*
X123841888Y-182855475D03*
X160640000Y-177930000D03*
X95760000Y-178020000D03*
X116437084Y-184409017D03*
X103860000Y-185380000D03*
X98820000Y-185280000D03*
X101310000Y-184460000D03*
X115840000Y-189770000D03*
X97300000Y-183410000D03*
X106970000Y-186160021D03*
X118211376Y-186647200D03*
D15*
X128350000Y-176500000D03*
X148525000Y-176375000D03*
D16*
X129120000Y-178400000D02*
X103540000Y-178400000D01*
X103540000Y-178400000D02*
X103350000Y-178210000D01*
X102980010Y-177350010D02*
X129640000Y-177350010D01*
X100680000Y-175050000D02*
X102980010Y-177350010D01*
X163650000Y-174330000D02*
X163650000Y-173420000D01*
X163650000Y-173420000D02*
X166800000Y-170270000D01*
X151985000Y-170110000D02*
X156205000Y-174330000D01*
X156205000Y-174330000D02*
X163650000Y-174330000D01*
X151960000Y-170110000D02*
X151985000Y-170110000D01*
X160640000Y-177335000D02*
X163645000Y-174330000D01*
X163645000Y-174330000D02*
X163650000Y-174330000D01*
X160640000Y-177930000D02*
X160640000Y-177335000D01*
X151960000Y-170110000D02*
X142970000Y-161120000D01*
X142970000Y-161120000D02*
X142970000Y-160720000D01*
X123841888Y-182855475D02*
X126289999Y-185303586D01*
X126289999Y-185303586D02*
X126289999Y-192959999D01*
X126289999Y-192959999D02*
X126229999Y-193019999D01*
X126229999Y-193019999D02*
X126229999Y-194909999D01*
X126229999Y-194909999D02*
X127480000Y-196160000D01*
X109650000Y-159890000D02*
X109609999Y-159930001D01*
X113930000Y-168530000D02*
X114650001Y-167809999D01*
X109609999Y-159930001D02*
X109609999Y-168079999D01*
X122289999Y-173799999D02*
X123540000Y-175050000D01*
X109609999Y-168079999D02*
X110060000Y-168530000D01*
X110060000Y-168530000D02*
X113930000Y-168530000D01*
X122289999Y-167479999D02*
X122289999Y-173799999D01*
X114650001Y-167809999D02*
X114650001Y-165990001D01*
X115470002Y-165170000D02*
X121680000Y-165170000D01*
X122309999Y-167459999D02*
X122289999Y-167479999D01*
X114650001Y-165990001D02*
X115470002Y-165170000D01*
X121680000Y-165170000D02*
X122309999Y-165799999D01*
X122309999Y-165799999D02*
X122309999Y-167459999D01*
D17*
X117810000Y-179280000D02*
X119920000Y-181390000D01*
X119920000Y-181390000D02*
X119920000Y-181420000D01*
X97020000Y-179280000D02*
X117810000Y-179280000D01*
X95760000Y-178020000D02*
X97020000Y-179280000D01*
D16*
X115940000Y-168022081D02*
X115940000Y-166820000D01*
X105820001Y-162320001D02*
X107030000Y-163530000D01*
X107690002Y-169330002D02*
X114632079Y-169330002D01*
X105820001Y-157930001D02*
X105820001Y-162320001D01*
X107030000Y-168670000D02*
X107690002Y-169330002D01*
X107030000Y-163530000D02*
X107030000Y-168670000D01*
X104950001Y-157060001D02*
X105820001Y-157930001D01*
X104950001Y-154950001D02*
X104950001Y-157060001D01*
X114632079Y-169330002D02*
X115940000Y-168022081D01*
X103700000Y-153700000D02*
X104950001Y-154950001D01*
X114370000Y-156970000D02*
X114370000Y-155030000D01*
X114370000Y-155030000D02*
X115700000Y-153700000D01*
X115980000Y-158580000D02*
X114370000Y-156970000D01*
X115980000Y-160950000D02*
X115980000Y-158580000D01*
X113400000Y-163530000D02*
X115980000Y-160950000D01*
X113400000Y-166820000D02*
X113400000Y-163530000D01*
X112690000Y-157200000D02*
X112690000Y-155759998D01*
X112690000Y-155759998D02*
X111320000Y-154389998D01*
X111320000Y-154389998D02*
X111320000Y-153700000D01*
X110900001Y-158989999D02*
X112690000Y-157200000D01*
X110860000Y-166820000D02*
X110900001Y-166779999D01*
X110900001Y-166779999D02*
X110900001Y-158989999D01*
X108360001Y-158120001D02*
X107490001Y-157250001D01*
X107490001Y-157250001D02*
X107490001Y-154989999D01*
X107490001Y-154989999D02*
X108780000Y-153700000D01*
X108320000Y-166820000D02*
X108360001Y-166779999D01*
X108360001Y-166779999D02*
X108360001Y-158120001D01*
X126050000Y-169890000D02*
X124810001Y-168650001D01*
X124810001Y-168650001D02*
X124810001Y-164890001D01*
X124810001Y-164890001D02*
X119810000Y-159890000D01*
X127850002Y-169890000D02*
X126050000Y-169890000D01*
X127540000Y-186470000D02*
X131369999Y-182640001D01*
X131369999Y-182640001D02*
X131369999Y-177110001D01*
X129909999Y-175650001D02*
X129909999Y-171949997D01*
X131369999Y-177110001D02*
X129909999Y-175650001D01*
X129909999Y-171949997D02*
X127850002Y-169890000D01*
X127540000Y-187920000D02*
X127540000Y-186470000D01*
X116437084Y-184409017D02*
X118949017Y-184409017D01*
X118949017Y-184409017D02*
X122460000Y-187920000D01*
X98820000Y-185280000D02*
X103760000Y-185280000D01*
X103760000Y-185280000D02*
X103860000Y-185380000D01*
X109190000Y-189560000D02*
X110660000Y-189560000D01*
X110660000Y-189560000D02*
X112300000Y-187920000D01*
X108509999Y-188879999D02*
X109190000Y-189560000D01*
X106990000Y-184460000D02*
X108509999Y-185979999D01*
X108509999Y-185979999D02*
X108509999Y-188879999D01*
X101310000Y-184460000D02*
X106990000Y-184460000D01*
X108267918Y-190169999D02*
X107220000Y-189122081D01*
X115440001Y-190169999D02*
X108267918Y-190169999D01*
X115840000Y-189770000D02*
X115440001Y-190169999D01*
X107220000Y-189122081D02*
X107220000Y-187920000D01*
X95910000Y-190300000D02*
X99760000Y-190300000D01*
X99760000Y-190300000D02*
X102140000Y-187920000D01*
X95070000Y-189460000D02*
X95910000Y-190300000D01*
X95070000Y-187030000D02*
X95070000Y-189460000D01*
X97300000Y-184800000D02*
X95070000Y-187030000D01*
X97300000Y-183410000D02*
X97300000Y-184800000D01*
X98419980Y-186560020D02*
X106570001Y-186560020D01*
X106570001Y-186560020D02*
X106970000Y-186160021D01*
X97060000Y-187920000D02*
X98419980Y-186560020D01*
X111032800Y-186647200D02*
X118211376Y-186647200D01*
X109760000Y-187920000D02*
X111032800Y-186647200D01*
X191080000Y-187920000D02*
X191045000Y-187920000D01*
X184980000Y-181855000D02*
X184980000Y-181070000D01*
X191045000Y-187920000D02*
X184980000Y-181855000D01*
X189013542Y-185040000D02*
X193280000Y-185040000D01*
X186230001Y-182256458D02*
X189013542Y-185040000D01*
X193280000Y-185040000D02*
X196160000Y-187920000D01*
X186230001Y-177290001D02*
X186230001Y-182256458D01*
X183270000Y-174330000D02*
X186230001Y-177290001D01*
X128350000Y-176500000D02*
X127530000Y-176500000D01*
X127530000Y-176500000D02*
X126080000Y-175050000D01*
X151975000Y-179050000D02*
X149300000Y-176375000D01*
X149300000Y-176375000D02*
X148525000Y-176375000D01*
X166550000Y-179050000D02*
X151975000Y-179050000D01*
X168730000Y-176870000D02*
X172280000Y-180420000D01*
X172280000Y-180420000D02*
X172280000Y-181070000D01*
X166550000Y-179050000D02*
X168730000Y-176870000D01*
M02*
