M48
; DRILL file {KiCad 5.1.7-a382d34a88~90~ubuntu20.04.1} date Wed Jan  5 08:02:11 2022
; FORMAT={-:-/ absolute / inch / decimal}
; #@! TF.CreationDate,2022-01-05T08:02:11-06:00
; #@! TF.GenerationSoftware,Kicad,Pcbnew,5.1.7-a382d34a88~90~ubuntu20.04.1
; #@! TF.FileFunction,Plated,1,4,PTH
FMAT,2
INCH
T1C0.0157
T2C0.0236
T3C0.0394
T4C0.1083
%
G90
G05
T1
X5.0531Y-6.9488
X5.8474Y-6.9439
T2
X3.7701Y-7.0087
X3.8307Y-7.2209
X3.8906Y-7.2945
X3.9886Y-7.2622
X4.0689Y-7.0161
X4.089Y-7.2984
X4.2114Y-7.3291
X4.5606Y-7.4713
X4.5841Y-7.2602
X4.654Y-7.3483
X4.8757Y-7.199
X5.0835Y-7.0236
X5.1039Y-6.9823
X6.3244Y-7.0051
T3
X4.1169Y-6.2949
X4.2169Y-6.2949
X4.3169Y-6.2949
X4.4169Y-6.2949
X4.5169Y-6.2949
X4.6169Y-6.2949
X4.7169Y-6.2949
X4.8169Y-6.2949
X3.8213Y-7.1425
X3.9213Y-7.1425
X4.0213Y-7.1425
X4.1213Y-7.1425
X4.2213Y-7.1425
X4.3213Y-7.1425
X4.4213Y-7.1425
X4.5213Y-7.1425
X4.6213Y-7.1425
X4.7213Y-7.1425
X4.8213Y-7.1425
X4.9213Y-7.1425
X5.0213Y-7.1425
X5.1213Y-7.1425
X5.2213Y-7.1425
X5.3213Y-7.1425
X5.4213Y-7.1425
X5.5213Y-7.1425
X5.6213Y-7.1425
X5.7213Y-7.1425
X6.9425Y-5.9006
X7.0425Y-5.9006
X7.1425Y-5.9006
X7.2425Y-5.9006
X7.3425Y-5.9006
X7.4425Y-5.9006
X7.5425Y-5.9006
X7.6425Y-5.9006
X4.0827Y-6.0512
X4.0827Y-6.1512
X4.1827Y-6.0512
X4.1827Y-6.1512
X4.2827Y-6.0512
X4.2827Y-6.1512
X4.3827Y-6.0512
X4.3827Y-6.1512
X4.5551Y-6.0512
X4.5551Y-6.1512
X4.6551Y-6.0512
X4.6551Y-6.1512
X4.7551Y-6.0512
X4.7551Y-6.1512
X4.8551Y-6.0512
X4.8551Y-6.1512
X6.5669Y-6.7035
X6.6669Y-6.7035
X6.7669Y-6.7035
X6.8669Y-6.7035
X6.9669Y-6.7035
X7.0669Y-6.7035
X7.1669Y-6.7035
X7.2669Y-6.7035
X7.3669Y-6.7035
X7.4669Y-6.7035
X7.5669Y-6.7035
X7.6669Y-6.7035
X6.2228Y-7.3984
X6.3228Y-7.3984
X6.4228Y-7.3984
X6.5228Y-7.3984
X6.6228Y-7.3984
X6.7228Y-7.3984
X6.8228Y-7.3984
X6.9228Y-7.3984
X7.0228Y-7.3984
X7.1228Y-7.3984
X7.2228Y-7.3984
X7.3228Y-7.3984
X7.4228Y-7.3984
X7.5228Y-7.3984
X7.6228Y-7.3984
X7.7228Y-7.3984
X7.8228Y-7.3984
X7.9228Y-7.3984
X8.0228Y-7.3984
X8.1228Y-7.3984
X3.8189Y-7.6228
X3.8189Y-7.7228
X3.9189Y-7.6228
X3.9189Y-7.7228
X4.0189Y-7.6228
X4.0189Y-7.7228
X4.1189Y-7.6228
X4.1189Y-7.7228
X4.2189Y-7.6228
X4.2189Y-7.7228
X4.3189Y-7.6228
X4.3189Y-7.7228
X4.4189Y-7.6228
X4.4189Y-7.7228
X4.5189Y-7.6228
X4.5189Y-7.7228
X4.6189Y-7.6228
X4.6189Y-7.7228
X4.7189Y-7.6228
X4.7189Y-7.7228
X4.8189Y-7.6228
X4.8189Y-7.7228
X4.9189Y-7.6228
X4.9189Y-7.7228
X5.0189Y-7.6228
X5.0189Y-7.7228
X5.1189Y-7.6228
X5.1189Y-7.7228
X5.2189Y-7.6228
X5.2189Y-7.7228
X5.3189Y-7.6228
X5.3189Y-7.7228
X5.4189Y-7.6228
X5.4189Y-7.7228
X5.5189Y-7.6228
X5.5189Y-7.7228
X5.6189Y-7.6228
X5.6189Y-7.7228
X5.7189Y-7.6228
X5.7189Y-7.7228
X5.5287Y-5.9024
X5.6287Y-5.9024
X5.7287Y-5.9024
X5.8287Y-5.9024
X5.9287Y-5.9024
X6.0287Y-5.9024
X6.1287Y-5.9024
X6.2287Y-5.9024
X5.5287Y-6.3276
X5.6287Y-6.3276
X5.7287Y-6.3276
X5.8287Y-6.3276
X5.9287Y-6.3276
X6.0287Y-6.3276
X6.1287Y-6.3276
X6.2287Y-6.3276
X6.9543Y-6.3061
X7.0543Y-6.3061
X7.1543Y-6.3061
X7.2543Y-6.3061
X7.3543Y-6.3061
X7.4543Y-6.3061
X7.5543Y-6.3061
X7.6543Y-6.3061
X6.9248Y-6.0589
X6.9248Y-6.1589
X7.0248Y-6.0589
X7.0248Y-6.1589
X7.1248Y-6.0589
X7.1248Y-6.1589
X7.2248Y-6.0589
X7.2248Y-6.1589
X7.3972Y-6.0589
X7.3972Y-6.1589
X7.4972Y-6.0589
X7.4972Y-6.1589
X7.5972Y-6.0589
X7.5972Y-6.1589
X7.6972Y-6.0589
X7.6972Y-6.1589
X6.5827Y-7.1287
X6.6827Y-7.1287
X6.7827Y-7.1287
X6.8827Y-7.1287
X6.9827Y-7.1287
X7.0827Y-7.1287
X7.1827Y-7.1287
X7.2827Y-7.1287
X7.3827Y-7.1287
X7.4827Y-7.1287
X7.5827Y-7.1287
X7.6827Y-7.1287
X5.4949Y-6.0681
X5.4949Y-6.1681
X5.5949Y-6.0681
X5.5949Y-6.1681
X5.6949Y-6.0681
X5.6949Y-6.1681
X5.7949Y-6.0681
X5.7949Y-6.1681
X5.9673Y-6.0681
X5.9673Y-6.1681
X6.0673Y-6.0681
X6.0673Y-6.1681
X6.1673Y-6.0681
X6.1673Y-6.1681
X6.2673Y-6.0681
X6.2673Y-6.1681
X3.8646Y-6.5677
X3.9646Y-6.5677
X4.0646Y-6.5677
X4.1646Y-6.5677
X4.2646Y-6.5677
X4.3646Y-6.5677
X4.4646Y-6.5677
X4.5646Y-6.5677
X4.6646Y-6.5677
X4.7646Y-6.5677
X4.8646Y-6.5677
X4.9646Y-6.5677
X5.0646Y-6.5677
X5.1646Y-6.5677
X5.2646Y-6.5677
X5.3646Y-6.5677
X5.4646Y-6.5677
X5.5646Y-6.5677
X5.6646Y-6.5677
X5.7646Y-6.5677
X6.4429Y-6.8634
X6.4429Y-6.9634
X6.5429Y-6.8634
X6.5429Y-6.9634
X6.6429Y-6.8634
X6.6429Y-6.9634
X6.7429Y-6.8634
X6.7429Y-6.9634
X6.9154Y-6.8634
X6.9154Y-6.9634
X7.0154Y-6.8634
X7.0154Y-6.9634
X7.1154Y-6.8634
X7.1154Y-6.9634
X7.2154Y-6.8634
X7.2154Y-6.9634
X7.4409Y-6.8634
X7.4409Y-6.9634
X7.5409Y-6.8634
X7.5409Y-6.9634
X7.6409Y-6.8634
X7.6409Y-6.9634
X7.7409Y-6.8634
X7.7409Y-6.9634
X3.8213Y-7.3984
X3.9213Y-7.3984
X4.0213Y-7.3984
X4.1213Y-7.3984
X4.2213Y-7.3984
X4.3213Y-7.3984
X4.4213Y-7.3984
X4.5213Y-7.3984
X4.6213Y-7.3984
X4.7213Y-7.3984
X4.8213Y-7.3984
X4.9213Y-7.3984
X5.0213Y-7.3984
X5.1213Y-7.3984
X5.2213Y-7.3984
X5.3213Y-7.3984
X5.4213Y-7.3984
X5.5213Y-7.3984
X5.6213Y-7.3984
X5.7213Y-7.3984
X4.1189Y-5.8996
X4.2189Y-5.8996
X4.3189Y-5.8996
X4.4189Y-5.8996
X4.5189Y-5.8996
X4.6189Y-5.8996
X4.7189Y-5.8996
X4.8189Y-5.8996
X6.0638Y-7.985
X6.1638Y-7.985
X6.2638Y-7.985
X6.3638Y-7.985
X6.4638Y-7.985
X6.5638Y-7.985
X6.6638Y-7.985
X6.7638Y-7.985
X6.8638Y-7.985
X6.9638Y-7.985
X7.0638Y-7.985
X7.1638Y-7.985
X7.2638Y-7.985
X7.3638Y-7.985
X7.4638Y-7.985
X7.5638Y-7.985
X7.6638Y-7.985
X7.7638Y-7.985
X7.8638Y-7.985
X7.9638Y-7.985
X6.2189Y-7.6205
X6.2189Y-7.7205
X6.3189Y-7.6205
X6.3189Y-7.7205
X6.4189Y-7.6205
X6.4189Y-7.7205
X6.5189Y-7.6205
X6.5189Y-7.7205
X6.6189Y-7.6205
X6.6189Y-7.7205
X6.7189Y-7.6205
X6.7189Y-7.7205
X6.8189Y-7.6205
X6.8189Y-7.7205
X6.9189Y-7.6205
X6.9189Y-7.7205
X7.0189Y-7.6205
X7.0189Y-7.7205
X7.1189Y-7.6205
X7.1189Y-7.7205
X7.2189Y-7.6205
X7.2189Y-7.7205
X7.3189Y-7.6205
X7.3189Y-7.7205
X7.4189Y-7.6205
X7.4189Y-7.7205
X7.5189Y-7.6205
X7.5189Y-7.7205
X7.6189Y-7.6205
X7.6189Y-7.7205
X7.7189Y-7.6205
X7.7189Y-7.7205
X7.8189Y-7.6205
X7.8189Y-7.7205
X7.9189Y-7.6205
X7.9189Y-7.7205
X8.0189Y-7.6205
X8.0189Y-7.7205
X8.1189Y-7.6205
X8.1189Y-7.7205
X3.963Y-7.985
X4.063Y-7.985
X4.163Y-7.985
X4.263Y-7.985
X4.363Y-7.985
X4.463Y-7.985
X4.563Y-7.985
X4.663Y-7.985
X4.763Y-7.985
X4.863Y-7.985
X4.963Y-7.985
X5.063Y-7.985
X5.163Y-7.985
X5.263Y-7.985
X5.363Y-7.985
X5.463Y-7.985
X5.563Y-7.985
X5.663Y-7.985
X5.763Y-7.985
X5.863Y-7.985
X3.8638Y-6.7917
X3.8638Y-6.8917
X3.9638Y-6.7917
X3.9638Y-6.8917
X4.0638Y-6.7917
X4.0638Y-6.8917
X4.1638Y-6.7917
X4.1638Y-6.8917
X4.2638Y-6.7917
X4.2638Y-6.8917
X4.3638Y-6.7917
X4.3638Y-6.8917
X4.4638Y-6.7917
X4.4638Y-6.8917
X4.5638Y-6.7917
X4.5638Y-6.8917
X4.6638Y-6.7917
X4.6638Y-6.8917
X4.7638Y-6.7917
X4.7638Y-6.8917
X4.8638Y-6.7917
X4.8638Y-6.8917
X4.9638Y-6.7917
X4.9638Y-6.8917
X5.0638Y-6.7917
X5.0638Y-6.8917
X5.1638Y-6.7917
X5.1638Y-6.8917
X5.2638Y-6.7917
X5.2638Y-6.8917
X5.3638Y-6.7917
X5.3638Y-6.8917
X5.4638Y-6.7917
X5.4638Y-6.8917
X5.5638Y-6.7917
X5.5638Y-6.8917
X5.6638Y-6.7917
X5.6638Y-6.8917
X5.7638Y-6.7917
X5.7638Y-6.8917
T4
X3.6402Y-5.8984
X3.6323Y-7.989
X8.2346Y-5.8984
X8.2346Y-7.989
T0
M30
