M48
; DRILL file {KiCad 5.1.7-a382d34a8~88~ubuntu20.04.1} date Sun Mar 14 14:40:09 2021
; FORMAT={-:-/ absolute / inch / decimal}
; #@! TF.CreationDate,2021-03-14T14:40:09-05:00
; #@! TF.GenerationSoftware,Kicad,Pcbnew,5.1.7-a382d34a8~88~ubuntu20.04.1
; #@! TF.FileFunction,Plated,1,4,PTH
FMAT,2
INCH
T1C0.0157
T2C0.0236
T3C0.0276
T4C0.0300
T5C0.0354
T6C0.0394
T7C0.0472
T8C0.0492
T9C0.0551
T10C0.0591
T11C0.1083
%
G90
G05
T1
X3.679Y-4.1211
X3.7441Y-3.9004
X3.9039Y-3.4634
X3.9756Y-3.4646
X4.0189Y-3.9835
X4.037Y-4.6126
X4.9555Y-2.5772
X5.1303Y-2.8374
X5.1343Y-2.976
X5.1689Y-2.5768
X5.3142Y-3.8913
X5.3161Y-2.8252
X5.324Y-3.2106
X5.3407Y-2.8726
X5.3407Y-2.948
X5.3591Y-3.8492
X5.3992Y-4.0197
X5.4197Y-3.4807
X5.4236Y-3.185
X5.424Y-3.2642
X5.428Y-4.0535
X5.4627Y-3.4574
X5.4661Y-3.4154
X5.4697Y-4.224
X5.478Y-3.1295
X5.4913Y-3.5358
X5.498Y-4.6799
X5.5126Y-3.5
X5.5299Y-3.2618
X5.5348Y-3.3548
X5.6244Y-3.6815
X5.6484Y-1.8638
X5.6551Y-3.8843
X5.6685Y-3.3657
X5.7059Y-3.5748
X5.7335Y-3.3976
X5.7496Y-4.4701
X5.7501Y-3.4325
X5.7618Y-3.8437
X5.7678Y-3.3801
X5.7843Y-5.1465
X5.8067Y-3.4669
X5.8843Y-5.072
X5.9051Y-4.2472
X5.9205Y-5.0411
X5.9298Y-4.2277
X6.0077Y-4.3784
X6.0077Y-4.419
X6.0079Y-4.6764
X6.013Y-4.135
X6.0224Y-4.3261
X6.0268Y-1.828
X6.0323Y-5.148
X6.0846Y-4.2925
X6.0906Y-3.089
X6.0929Y-3.9563
X6.1075Y-4.2693
X6.1122Y-3.7638
X6.1327Y-5.0669
X6.1339Y-4.3114
X6.1362Y-4.4027
X6.1372Y-4.4456
X6.1492Y-2.9366
X6.1701Y-5.0358
X6.1707Y-3.8996
X6.1715Y-3.5282
X6.1754Y-4.0905
X6.1882Y-3.0559
X6.1925Y-3.4098
X6.213Y-4.0134
X6.2161Y-3.7051
X6.218Y-3.823
X6.2465Y-3.7874
X6.3358Y-3.1189
X6.3417Y-3.011
X6.3476Y-5.3205
X6.35Y-3.789
X6.3575Y-3.4091
X6.3579Y-4.9268
X6.3618Y-4.778
X6.362Y-3.5657
X6.3634Y-3.4618
X6.3634Y-5.0075
X6.3638Y-3.4984
X6.3669Y-3.1602
X6.3673Y-3.3346
X6.3772Y-4.1594
X6.3854Y-5.4551
X6.3953Y-5.3909
X6.3972Y-3.5512
X6.4031Y-3.8638
X6.4035Y-5.0079
X6.4063Y-5.1618
X6.4177Y-4.7799
X6.4185Y-3.7539
X6.4213Y-3.1075
X6.4224Y-5.1988
X6.4311Y-4.9327
X6.4433Y-4.9941
X6.4523Y-3.479
X6.4572Y-3.6651
X6.4681Y-4.7839
X6.472Y-5.3957
X6.4824Y-3.455
X6.4839Y-3.5179
X6.4839Y-3.4083
X6.4921Y-3.3752
X6.4982Y-3.0743
X6.5Y-3.4811
X6.5004Y-3.3331
X6.5059Y-5.4657
X6.513Y-4.7811
X6.5274Y-5.1915
X6.5613Y-5.1066
X6.5678Y-4.8425
X6.5881Y-4.9638
X6.5945Y-3.011
X6.5966Y-4.7424
X6.613Y-4.938
X6.6304Y-4.6565
X6.634Y-5.4679
X6.6425Y-2.8894
X6.6457Y-5.0638
X6.6528Y-5.124
X6.6703Y-4.7354
X6.6728Y-5.3921
X6.6793Y-5.3323
X6.724Y-4.5488
X6.7262Y-4.811
X6.7353Y-4.9694
X6.7921Y-4.6512
X6.7972Y-4.1031
X6.839Y-4.672
X6.8555Y-4.9051
X6.8575Y-3.4766
X6.8591Y-4.8461
X6.8866Y-3.452
X6.8874Y-4.2819
X6.8951Y-2.6055
X6.8969Y-4.1043
X6.9087Y-2.9575
X6.9165Y-4.313
X6.9205Y-4.8307
X6.9465Y-3.4689
X6.9476Y-2.376
X6.985Y-2.4642
X7.0075Y-3.0917
X7.0091Y-4.6441
X7.0417Y-4.3906
X7.0461Y-4.4921
X7.0657Y-4.1551
X7.0894Y-3.2937
X7.0913Y-4.4823
X7.0957Y-3.0012
X7.098Y-4.5965
X7.1079Y-4.035
X7.1551Y-3.1055
X7.1669Y-3.7591
X7.2201Y-4.2709
X7.2283Y-3.4551
X7.2374Y-5.0228
X7.2377Y-4.4248
X7.2539Y-3.0984
X7.2539Y-3.4972
X7.2748Y-3.2913
X7.2843Y-4.2713
X7.3209Y-3.8902
X7.361Y-4.9272
X7.3642Y-4.9787
X7.372Y-4.3933
X7.3776Y-3.8528
X7.3827Y-4.6335
X7.3894Y-3.6909
X7.3925Y-4.0236
X7.3984Y-4.8437
X7.4028Y-4.1167
X7.4772Y-2.5106
X7.5555Y-2.6567
X7.5892Y-4.966
X7.6102Y-4.9395
X7.6516Y-2.3854
X7.6626Y-2.2437
X7.6795Y-5.1657
X7.7142Y-2.5083
X7.7898Y-2.4906
X7.7917Y-2.6169
X7.7972Y-3.8559
X7.7984Y-2.1067
X7.8252Y-4.0606
X7.8508Y-2.6406
X7.8622Y-4.0665
X7.872Y-2.5437
X7.9122Y-3.9043
X7.9394Y-4.3044
X7.9398Y-3.6787
X7.978Y-2.437
X8.0004Y-2.55
X8.0063Y-2.3496
X8.0622Y-2.2488
X8.2811Y-4.226
T2
X3.5561Y-3.8867
X3.6482Y-4.0318
X3.6555Y-5.2913
X3.6677Y-5.0831
X3.7228Y-3.9748
X3.723Y-4.5123
X3.7701Y-7.0087
X3.8307Y-7.2209
X3.8642Y-4.0185
X3.8906Y-7.2945
X3.9633Y-3.9183
X3.9886Y-7.2622
X4.0689Y-7.0161
X4.089Y-7.2984
X4.1445Y-2.2913
X4.2114Y-7.3291
X4.5606Y-7.4713
X4.5841Y-7.2602
X4.654Y-7.3483
X4.7496Y-4.1697
X4.785Y-4.1701
X4.8757Y-7.199
X4.924Y-3.9657
X4.9272Y-3.6677
X4.9539Y-3.1236
X4.9602Y-2.7496
X4.9626Y-3.4575
X5.0835Y-7.0236
X5.1039Y-6.978
X5.1504Y-3.122
X5.1555Y-3.4579
X5.1571Y-2.7528
X5.3063Y-3.6673
X5.3063Y-3.9673
X5.3339Y-3.1276
X5.3437Y-3.4543
X5.3874Y-2.9713
X5.3949Y-3.0496
X5.6327Y-4.0134
X5.6331Y-3.8134
X5.6587Y-2.9614
X5.6602Y-3.0114
X5.7039Y-3.7213
X5.7163Y-4.3933
X5.7602Y-4.6969
X5.7634Y-4.5837
X5.848Y-3.2728
X5.8488Y-3.2339
X5.8665Y-3.8154
X5.8689Y-4.0157
X5.889Y-3.2339
X5.8898Y-3.276
X5.8899Y-4.8194
X5.928Y-3.2374
X5.9291Y-3.2772
X5.9409Y-4.8601
X6.1937Y-2.9638
X6.2508Y-3.9965
X6.3118Y-4.0217
X6.3244Y-7.0051
X6.3346Y-2.963
X6.4291Y-3.9476
X6.535Y-3.8358
X6.5496Y-4.063
X6.5618Y-4.6155
X6.5742Y-4.4577
X6.586Y-4.2821
X6.5925Y-3.8768
X6.5925Y-3.9988
X6.6272Y-3.2902
X6.6299Y-3.5335
X6.6579Y-3.8146
X6.6846Y-4.2031
X6.7953Y-4.2039
X6.8169Y-4.7933
X6.8317Y-3.5404
X6.85Y-4.4065
X6.8508Y-4.0449
X6.8579Y-3.0496
X6.8894Y-4.1543
X6.8988Y-4.5175
X6.9071Y-4.7429
X6.9244Y-3.6713
X6.9878Y-4.0055
X6.9933Y-3.1748
X7.0015Y-4.14
X7.0114Y-4.7327
X7.0176Y-3.8821
X7.0374Y-3.576
X7.0508Y-3.6732
X7.069Y-4.223
X7.0792Y-3.506
X7.0801Y-4.7998
X7.1311Y-3.626
X7.1331Y-3.5756
X7.1769Y-5.0165
X7.1878Y-4.7937
X7.1949Y-4.2201
X7.1972Y-2.8488
X7.2425Y-4.6331
X7.2457Y-3.1705
X7.2512Y-3.8384
X7.2547Y-3.6256
X7.2581Y-4.0283
X7.274Y-2.8488
X7.2768Y-4.7441
X7.2802Y-4.1726
X7.3531Y-3.9315
X7.3551Y-3.8189
X7.3992Y-4.7457
X7.4012Y-4.1752
X7.5004Y-2.5906
X7.6142Y-2.4433
X7.8949Y-2.1724
X8.0316Y-2.1796
X8.1394Y-5.337
X8.198Y-2.1008
X8.2106Y-5.174
X8.2161Y-2.2122
X8.2201Y-2.2858
T3
X4.4425Y-4.8984
X4.5276Y-4.7492
X4.5874Y-4.8996
X4.7492Y-4.7921
X4.8165Y-4.7878
X4.8823Y-4.7823
X5.157Y-4.7628
X5.2642Y-4.978
X5.265Y-4.9295
X5.3539Y-4.8693
X5.3543Y-4.9193
X5.3547Y-4.972
X5.6154Y-4.8339
X5.6173Y-4.9299
X5.6335Y-2.202
X5.903Y-4.7287
X5.9055Y-2.4224
X5.9055Y-4.6815
X6.1296Y-4.9313
X6.1394Y-4.7811
X6.5409Y-2.4996
X6.5425Y-2.4508
X6.5551Y-2.3728
X6.828Y-2.6945
X6.8801Y-2.8051
X6.9699Y-2.6378
X7.2035Y-2.5425
X7.2358Y-2.489
X7.385Y-2.6437
X7.4524Y-2.7874
X7.8251Y-2.0191
X7.8561Y-1.9711
X7.8881Y-2.0191
X7.9201Y-1.9721
X7.9511Y-2.0191
T4
X3.6063Y-4.1137
X3.6063Y-4.1927
X3.6063Y-4.2712
X3.6063Y-4.3502
X3.6063Y-4.4287
X3.6063Y-4.5077
X3.6063Y-4.5862
X3.6063Y-4.6652
X3.6063Y-4.7437
X3.6063Y-4.8227
X3.6063Y-4.9012
X3.6063Y-4.9802
X3.7638Y-4.0747
X3.7638Y-4.1532
X3.7638Y-4.2322
X3.7638Y-4.3107
X3.7638Y-4.3897
X3.7638Y-4.4682
X3.7638Y-4.5472
X3.7638Y-4.6257
X3.7638Y-4.7047
X3.7638Y-4.7832
X3.7638Y-4.8622
X3.7638Y-4.9407
X3.7638Y-5.0197
T6
X4.8114Y-4.5862
X4.8146Y-4.5008
X4.8791Y-4.5839
X4.8807Y-4.5035
X4.9469Y-4.5827
X4.9488Y-4.5047
X5.3469Y-2.2209
X5.3476Y-2.0886
X5.3535Y-2.1524
X5.435Y-2.2268
X5.4394Y-2.0862
X5.4394Y-2.1579
X7.1276Y-2.6402
X7.1768Y-2.0315
X7.1783Y-1.9406
X7.2413Y-1.9437
X7.2984Y-2.0315
X7.3087Y-1.9465
X6.0638Y-7.985
X6.1638Y-7.985
X6.2638Y-7.985
X6.3638Y-7.985
X6.4638Y-7.985
X6.5638Y-7.985
X6.6638Y-7.985
X6.7638Y-7.985
X6.8638Y-7.985
X6.9638Y-7.985
X7.0638Y-7.985
X7.1638Y-7.985
X7.2638Y-7.985
X7.3638Y-7.985
X7.4638Y-7.985
X7.5638Y-7.985
X7.6638Y-7.985
X7.7638Y-7.985
X7.8638Y-7.985
X7.9638Y-7.985
X8.0327Y-2.8689
X8.0327Y-2.9689
X8.0327Y-3.0689
X8.0327Y-3.1689
X8.0327Y-3.2689
X8.0327Y-3.3689
X8.0327Y-3.4689
X8.0327Y-3.5689
X8.0327Y-3.6689
X8.0327Y-3.7689
X8.0327Y-3.8689
X8.0327Y-3.9689
X8.0327Y-4.0689
X8.0327Y-4.1689
X8.0327Y-4.2689
X8.0327Y-4.3689
X8.0327Y-4.4689
X8.0327Y-4.5689
X8.0327Y-4.6689
X8.0327Y-4.7689
X8.1327Y-2.8689
X8.1327Y-2.9689
X8.1327Y-3.0689
X8.1327Y-3.1689
X8.1327Y-3.2689
X8.1327Y-3.3689
X8.1327Y-3.4689
X8.1327Y-3.5689
X8.1327Y-3.6689
X8.1327Y-3.7689
X8.1327Y-3.8689
X8.1327Y-3.9689
X8.1327Y-4.0689
X8.1327Y-4.1689
X8.1327Y-4.2689
X8.1327Y-4.3689
X8.1327Y-4.4689
X8.1327Y-4.5689
X8.1327Y-4.6689
X8.1327Y-4.7689
X4.0827Y-6.0512
X4.0827Y-6.1512
X4.1827Y-6.0512
X4.1827Y-6.1512
X4.2827Y-6.0512
X4.2827Y-6.1512
X4.3827Y-6.0512
X4.3827Y-6.1512
X4.5551Y-6.0512
X4.5551Y-6.1512
X4.6551Y-6.0512
X4.6551Y-6.1512
X4.7551Y-6.0512
X4.7551Y-6.1512
X4.8551Y-6.0512
X4.8551Y-6.1512
X6.2189Y-7.6205
X6.2189Y-7.7205
X6.3189Y-7.6205
X6.3189Y-7.7205
X6.4189Y-7.6205
X6.4189Y-7.7205
X6.5189Y-7.6205
X6.5189Y-7.7205
X6.6189Y-7.6205
X6.6189Y-7.7205
X6.7189Y-7.6205
X6.7189Y-7.7205
X6.8189Y-7.6205
X6.8189Y-7.7205
X6.9189Y-7.6205
X6.9189Y-7.7205
X7.0189Y-7.6205
X7.0189Y-7.7205
X7.1189Y-7.6205
X7.1189Y-7.7205
X7.2189Y-7.6205
X7.2189Y-7.7205
X7.3189Y-7.6205
X7.3189Y-7.7205
X7.4189Y-7.6205
X7.4189Y-7.7205
X7.5189Y-7.6205
X7.5189Y-7.7205
X7.6189Y-7.6205
X7.6189Y-7.7205
X7.7189Y-7.6205
X7.7189Y-7.7205
X7.8189Y-7.6205
X7.8189Y-7.7205
X7.9189Y-7.6205
X7.9189Y-7.7205
X8.0189Y-7.6205
X8.0189Y-7.7205
X8.1189Y-7.6205
X8.1189Y-7.7205
X3.8213Y-7.3984
X3.9213Y-7.3984
X4.0213Y-7.3984
X4.1213Y-7.3984
X4.2213Y-7.3984
X4.3213Y-7.3984
X4.4213Y-7.3984
X4.5213Y-7.3984
X4.6213Y-7.3984
X4.7213Y-7.3984
X4.8213Y-7.3984
X4.9213Y-7.3984
X5.0213Y-7.3984
X5.1213Y-7.3984
X5.2213Y-7.3984
X5.3213Y-7.3984
X5.4213Y-7.3984
X5.5213Y-7.3984
X5.6213Y-7.3984
X5.7213Y-7.3984
X3.8213Y-7.1425
X3.9213Y-7.1425
X4.0213Y-7.1425
X4.1213Y-7.1425
X4.2213Y-7.1425
X4.3213Y-7.1425
X4.4213Y-7.1425
X4.5213Y-7.1425
X4.6213Y-7.1425
X4.7213Y-7.1425
X4.8213Y-7.1425
X4.9213Y-7.1425
X5.0213Y-7.1425
X5.1213Y-7.1425
X5.2213Y-7.1425
X5.3213Y-7.1425
X5.4213Y-7.1425
X5.5213Y-7.1425
X5.6213Y-7.1425
X5.7213Y-7.1425
X6.9406Y-6.1228
X6.9406Y-6.2228
X7.0406Y-6.1228
X7.0406Y-6.2228
X7.1406Y-6.1228
X7.1406Y-6.2228
X7.2406Y-6.1228
X7.2406Y-6.2228
X7.413Y-6.1228
X7.413Y-6.2228
X7.513Y-6.1228
X7.513Y-6.2228
X7.613Y-6.1228
X7.613Y-6.2228
X7.713Y-6.1228
X7.713Y-6.2228
X6.9701Y-6.3701
X7.0701Y-6.3701
X7.1701Y-6.3701
X7.2701Y-6.3701
X7.3701Y-6.3701
X7.4701Y-6.3701
X7.5701Y-6.3701
X7.6701Y-6.3701
X6.6091Y-2.7213
X6.6091Y-2.8213
X6.7091Y-2.7213
X6.7091Y-2.8213
X3.8638Y-6.7917
X3.8638Y-6.8917
X3.9638Y-6.7917
X3.9638Y-6.8917
X4.0638Y-6.7917
X4.0638Y-6.8917
X4.1638Y-6.7917
X4.1638Y-6.8917
X4.2638Y-6.7917
X4.2638Y-6.8917
X4.3638Y-6.7917
X4.3638Y-6.8917
X4.4638Y-6.7917
X4.4638Y-6.8917
X4.5638Y-6.7917
X4.5638Y-6.8917
X4.6638Y-6.7917
X4.6638Y-6.8917
X4.7638Y-6.7917
X4.7638Y-6.8917
X4.8638Y-6.7917
X4.8638Y-6.8917
X4.9638Y-6.7917
X4.9638Y-6.8917
X5.0638Y-6.7917
X5.0638Y-6.8917
X5.1638Y-6.7917
X5.1638Y-6.8917
X5.2638Y-6.7917
X5.2638Y-6.8917
X5.3638Y-6.7917
X5.3638Y-6.8917
X5.4638Y-6.7917
X5.4638Y-6.8917
X5.5638Y-6.7917
X5.5638Y-6.8917
X5.6638Y-6.7917
X5.6638Y-6.8917
X5.7638Y-6.7917
X5.7638Y-6.8917
X6.5512Y-6.6504
X6.6512Y-6.6504
X6.7512Y-6.6504
X6.8512Y-6.6504
X6.9512Y-6.6504
X7.0512Y-6.6504
X7.1512Y-6.6504
X7.2512Y-6.6504
X7.3512Y-6.6504
X7.4512Y-6.6504
X7.5512Y-6.6504
X7.6512Y-6.6504
X7.5457Y-1.9461
X7.5457Y-2.0461
X7.6457Y-1.9461
X7.6457Y-2.0461
X5.5287Y-5.9024
X5.6287Y-5.9024
X5.7287Y-5.9024
X5.8287Y-5.9024
X5.9287Y-5.9024
X6.0287Y-5.9024
X6.1287Y-5.9024
X6.2287Y-5.9024
X3.563Y-2.252
X3.663Y-2.252
X3.763Y-2.252
X3.863Y-2.252
X3.963Y-2.252
X6.2228Y-7.3984
X6.3228Y-7.3984
X6.4228Y-7.3984
X6.5228Y-7.3984
X6.6228Y-7.3984
X6.7228Y-7.3984
X6.8228Y-7.3984
X6.9228Y-7.3984
X7.0228Y-7.3984
X7.1228Y-7.3984
X7.2228Y-7.3984
X7.3228Y-7.3984
X7.4228Y-7.3984
X7.5228Y-7.3984
X7.6228Y-7.3984
X7.7228Y-7.3984
X7.8228Y-7.3984
X7.9228Y-7.3984
X8.0228Y-7.3984
X8.1228Y-7.3984
X3.963Y-7.985
X4.063Y-7.985
X4.163Y-7.985
X4.263Y-7.985
X4.363Y-7.985
X4.463Y-7.985
X4.563Y-7.985
X4.663Y-7.985
X4.763Y-7.985
X4.863Y-7.985
X4.963Y-7.985
X5.063Y-7.985
X5.163Y-7.985
X5.263Y-7.985
X5.363Y-7.985
X5.463Y-7.985
X5.563Y-7.985
X5.663Y-7.985
X5.763Y-7.985
X5.863Y-7.985
X6.9583Y-5.9646
X7.0583Y-5.9646
X7.1583Y-5.9646
X7.2583Y-5.9646
X7.3583Y-5.9646
X7.4583Y-5.9646
X7.5583Y-5.9646
X7.6583Y-5.9646
X6.5669Y-7.0756
X6.6669Y-7.0756
X6.7669Y-7.0756
X6.8669Y-7.0756
X6.9669Y-7.0756
X7.0669Y-7.0756
X7.1669Y-7.0756
X7.2669Y-7.0756
X7.3669Y-7.0756
X7.4669Y-7.0756
X7.5669Y-7.0756
X7.6669Y-7.0756
X6.4272Y-6.8102
X6.4272Y-6.9102
X6.5272Y-6.8102
X6.5272Y-6.9102
X6.6272Y-6.8102
X6.6272Y-6.9102
X6.7272Y-6.8102
X6.7272Y-6.9102
X6.8996Y-6.8102
X6.8996Y-6.9102
X6.9996Y-6.8102
X6.9996Y-6.9102
X7.0996Y-6.8102
X7.0996Y-6.9102
X7.1996Y-6.8102
X7.1996Y-6.9102
X7.4252Y-6.8102
X7.4252Y-6.9102
X7.5252Y-6.8102
X7.5252Y-6.9102
X7.6252Y-6.8102
X7.6252Y-6.9102
X7.7252Y-6.8102
X7.7252Y-6.9102
X4.1169Y-6.2949
X4.2169Y-6.2949
X4.3169Y-6.2949
X4.4169Y-6.2949
X4.5169Y-6.2949
X4.6169Y-6.2949
X4.7169Y-6.2949
X4.8169Y-6.2949
X5.4949Y-6.0681
X5.4949Y-6.1681
X5.5949Y-6.0681
X5.5949Y-6.1681
X5.6949Y-6.0681
X5.6949Y-6.1681
X5.7949Y-6.0681
X5.7949Y-6.1681
X5.9673Y-6.0681
X5.9673Y-6.1681
X6.0673Y-6.0681
X6.0673Y-6.1681
X6.1673Y-6.0681
X6.1673Y-6.1681
X6.2673Y-6.0681
X6.2673Y-6.1681
X3.8646Y-6.5677
X3.9646Y-6.5677
X4.0646Y-6.5677
X4.1646Y-6.5677
X4.2646Y-6.5677
X4.3646Y-6.5677
X4.4646Y-6.5677
X4.5646Y-6.5677
X4.6646Y-6.5677
X4.7646Y-6.5677
X4.8646Y-6.5677
X4.9646Y-6.5677
X5.0646Y-6.5677
X5.1646Y-6.5677
X5.2646Y-6.5677
X5.3646Y-6.5677
X5.4646Y-6.5677
X5.5646Y-6.5677
X5.6646Y-6.5677
X5.7646Y-6.5677
X7.564Y-2.874
X7.564Y-2.974
X7.564Y-3.074
X7.564Y-3.174
X7.564Y-3.274
X7.564Y-3.374
X7.564Y-3.474
X7.564Y-3.574
X7.564Y-3.674
X7.564Y-3.774
X7.564Y-3.874
X7.564Y-3.974
X7.564Y-4.074
X7.564Y-4.174
X7.564Y-4.274
X7.564Y-4.374
X7.564Y-4.474
X7.564Y-4.574
X7.564Y-4.674
X7.564Y-4.774
X7.664Y-2.874
X7.664Y-2.974
X7.664Y-3.074
X7.664Y-3.174
X7.664Y-3.274
X7.664Y-3.374
X7.664Y-3.474
X7.664Y-3.574
X7.664Y-3.674
X7.664Y-3.774
X7.664Y-3.874
X7.664Y-3.974
X7.664Y-4.074
X7.664Y-4.174
X7.664Y-4.274
X7.664Y-4.374
X7.664Y-4.474
X7.664Y-4.574
X7.664Y-4.674
X7.664Y-4.774
X5.5287Y-6.3276
X5.6287Y-6.3276
X5.7287Y-6.3276
X5.8287Y-6.3276
X5.9287Y-6.3276
X6.0287Y-6.3276
X6.1287Y-6.3276
X6.2287Y-6.3276
X4.1189Y-5.8996
X4.2189Y-5.8996
X4.3189Y-5.8996
X4.4189Y-5.8996
X4.5189Y-5.8996
X4.6189Y-5.8996
X4.7189Y-5.8996
X4.8189Y-5.8996
X4.0906Y-5.4016
X4.0906Y-5.5016
X4.1906Y-5.4016
X4.1906Y-5.5016
X4.2906Y-5.4016
X4.2906Y-5.5016
X4.3906Y-5.4016
X4.3906Y-5.5016
X4.4906Y-5.4016
X4.4906Y-5.5016
X4.5906Y-5.4016
X4.5906Y-5.5016
X4.6906Y-5.4016
X4.6906Y-5.5016
X4.7906Y-5.4016
X4.7906Y-5.5016
X4.8906Y-5.4016
X4.8906Y-5.5016
X4.9906Y-5.4016
X4.9906Y-5.5016
X5.0906Y-5.4016
X5.0906Y-5.5016
X5.1906Y-5.4016
X5.1906Y-5.5016
X5.2906Y-5.4016
X5.2906Y-5.5016
X5.3906Y-5.4016
X5.3906Y-5.5016
X5.4906Y-5.4016
X5.4906Y-5.5016
X5.5906Y-5.4016
X5.5906Y-5.5016
X5.6906Y-5.4016
X5.6906Y-5.5016
X5.7906Y-5.4016
X5.7906Y-5.5016
X5.8906Y-5.4016
X5.8906Y-5.5016
X5.9906Y-5.4016
X5.9906Y-5.5016
X3.8189Y-7.6228
X3.8189Y-7.7228
X3.9189Y-7.6228
X3.9189Y-7.7228
X4.0189Y-7.6228
X4.0189Y-7.7228
X4.1189Y-7.6228
X4.1189Y-7.7228
X4.2189Y-7.6228
X4.2189Y-7.7228
X4.3189Y-7.6228
X4.3189Y-7.7228
X4.4189Y-7.6228
X4.4189Y-7.7228
X4.5189Y-7.6228
X4.5189Y-7.7228
X4.6189Y-7.6228
X4.6189Y-7.7228
X4.7189Y-7.6228
X4.7189Y-7.7228
X4.8189Y-7.6228
X4.8189Y-7.7228
X4.9189Y-7.6228
X4.9189Y-7.7228
X5.0189Y-7.6228
X5.0189Y-7.7228
X5.1189Y-7.6228
X5.1189Y-7.7228
X5.2189Y-7.6228
X5.2189Y-7.7228
X5.3189Y-7.6228
X5.3189Y-7.7228
X5.4189Y-7.6228
X5.4189Y-7.7228
X5.5189Y-7.6228
X5.5189Y-7.7228
X5.6189Y-7.6228
X5.6189Y-7.7228
X5.7189Y-7.6228
X5.7189Y-7.7228
T7
X4.1101Y-1.8341
X4.1101Y-1.9526
X4.3071Y-2.1496
X4.5041Y-1.8341
X4.5041Y-1.9526
X4.7085Y-1.8341
X4.7085Y-1.9526
X4.9055Y-2.1496
X5.1025Y-1.8341
X5.1025Y-1.9526
T8
X4.1051Y-4.4303
X4.1059Y-4.6283
X4.1071Y-3.9657
X4.1094Y-4.1665
X4.4177Y-4.6299
X4.4232Y-4.1669
X4.4244Y-4.4315
X4.4252Y-3.9634
X6.8055Y-5.5917
X6.8118Y-5.2752
X7.0087Y-5.2752
X7.0102Y-5.5937
X7.2937Y-5.5902
X7.2957Y-5.2764
X7.4913Y-5.5909
X7.4917Y-5.2736
T9
X3.6093Y-2.5817
X3.6093Y-2.8573
X4.0344Y-2.5817
X4.0344Y-2.7195
X4.0344Y-2.8573
X4.3041Y-3.2648
X4.3041Y-3.5404
X4.7293Y-3.2648
X4.7293Y-3.4026
X4.7293Y-3.5404
X4.3002Y-2.5817
X4.3002Y-2.8573
X4.7254Y-2.5817
X4.7254Y-2.7195
X4.7254Y-2.8573
X3.6132Y-3.2648
X3.6132Y-3.5404
X4.0384Y-3.2648
X4.0384Y-3.4026
X4.0384Y-3.5404
T11
X8.2346Y-5.5402
X8.2346Y-1.9142
X8.2346Y-5.8984
X3.6323Y-7.989
X3.6402Y-5.8984
X8.2346Y-7.989
X3.6299Y-5.5394
X3.6299Y-1.9173
T3
G00X7.7441Y-1.7965
M15
G01X7.7441Y-1.8437
M16
G05
G00X8.0311Y-1.7965
M15
G01X8.0311Y-1.8437
M16
G05
T5
G00X4.1101Y-2.1358
M15
G01X4.1101Y-2.1634
M16
G05
G00X4.2086Y-2.1358
M15
G01X4.2086Y-2.1634
M16
G05
G00X4.2933Y-1.9526
M15
G01X4.3209Y-1.9526
M16
G05
G00X4.4056Y-2.1358
M15
G01X4.4056Y-2.1634
M16
G05
G00X4.5041Y-2.1358
M15
G01X4.5041Y-2.1634
M16
G05
G00X4.7085Y-2.1358
M15
G01X4.7085Y-2.1634
M16
G05
G00X4.807Y-2.1358
M15
G01X4.807Y-2.1634
M16
G05
G00X4.8917Y-1.9526
M15
G01X4.9193Y-1.9526
M16
G05
G00X5.004Y-2.1358
M15
G01X5.004Y-2.1634
M16
G05
G00X5.1025Y-2.1358
M15
G01X5.1025Y-2.1634
M16
G05
T10
G00X6.124Y-2.1547
M15
G01X6.124Y-2.2335
M16
G05
G00X6.3484Y-2.076
M15
G01X6.2697Y-2.076
M16
G05
G00X6.3484Y-2.3122
M15
G01X6.2697Y-2.3122
M16
G05
G00X6.5921Y-2.152
M15
G01X6.5921Y-2.2307
M16
G05
G00X6.8165Y-2.0732
M15
G01X6.7378Y-2.0732
M16
G05
G00X6.8165Y-2.3094
M15
G01X6.7378Y-2.3094
M16
G05
G00X7.775Y-5.1386
M15
G01X7.8537Y-5.1386
M16
G05
G00X7.775Y-5.3748
M15
G01X7.8537Y-5.3748
M16
G05
G00X7.9994Y-5.2961
M15
G01X7.9994Y-5.2173
M16
G05
T0
M30
