G04 #@! TF.GenerationSoftware,KiCad,Pcbnew,5.1.7-a382d34a8~88~ubuntu20.04.1*
G04 #@! TF.CreationDate,2021-03-15T07:13:01-05:00*
G04 #@! TF.ProjectId,open-dash-daughterboard,6f70656e-2d64-4617-9368-2d6461756768,rev?*
G04 #@! TF.SameCoordinates,Original*
G04 #@! TF.FileFunction,Paste,Top*
G04 #@! TF.FilePolarity,Positive*
%FSLAX46Y46*%
G04 Gerber Fmt 4.6, Leading zero omitted, Abs format (unit mm)*
G04 Created by KiCad (PCBNEW 5.1.7-a382d34a8~88~ubuntu20.04.1) date 2021-03-15 07:13:01*
%MOMM*%
%LPD*%
G01*
G04 APERTURE LIST*
%ADD10R,0.300000X1.400000*%
%ADD11R,1.400000X0.300000*%
%ADD12R,0.900000X1.200000*%
%ADD13R,1.200000X0.900000*%
%ADD14R,1.500000X2.000000*%
%ADD15R,3.800000X2.000000*%
%ADD16R,1.780000X2.000000*%
%ADD17R,2.000000X1.780000*%
%ADD18R,2.000000X0.900000*%
%ADD19R,0.900000X2.000000*%
%ADD20R,5.000000X5.000000*%
%ADD21R,1.000000X3.150000*%
%ADD22R,3.150000X1.000000*%
%ADD23R,0.400000X1.200000*%
%ADD24R,0.900000X0.800000*%
%ADD25R,0.800000X0.900000*%
%ADD26R,0.450000X0.600000*%
%ADD27R,1.550000X1.300000*%
%ADD28R,1.100000X4.600000*%
%ADD29R,5.250000X4.550000*%
%ADD30R,4.600000X1.100000*%
%ADD31R,4.550000X5.250000*%
%ADD32R,2.300000X3.500000*%
G04 APERTURE END LIST*
G36*
G01*
X163060000Y-126240000D02*
X163060000Y-126560000D01*
G75*
G02*
X162900000Y-126720000I-160000J0D01*
G01*
X162505000Y-126720000D01*
G75*
G02*
X162345000Y-126560000I0J160000D01*
G01*
X162345000Y-126240000D01*
G75*
G02*
X162505000Y-126080000I160000J0D01*
G01*
X162900000Y-126080000D01*
G75*
G02*
X163060000Y-126240000I0J-160000D01*
G01*
G37*
G36*
G01*
X164255000Y-126240000D02*
X164255000Y-126560000D01*
G75*
G02*
X164095000Y-126720000I-160000J0D01*
G01*
X163700000Y-126720000D01*
G75*
G02*
X163540000Y-126560000I0J160000D01*
G01*
X163540000Y-126240000D01*
G75*
G02*
X163700000Y-126080000I160000J0D01*
G01*
X164095000Y-126080000D01*
G75*
G02*
X164255000Y-126240000I0J-160000D01*
G01*
G37*
G36*
G01*
X167215000Y-133300000D02*
X167215000Y-132980000D01*
G75*
G02*
X167375000Y-132820000I160000J0D01*
G01*
X167770000Y-132820000D01*
G75*
G02*
X167930000Y-132980000I0J-160000D01*
G01*
X167930000Y-133300000D01*
G75*
G02*
X167770000Y-133460000I-160000J0D01*
G01*
X167375000Y-133460000D01*
G75*
G02*
X167215000Y-133300000I0J160000D01*
G01*
G37*
G36*
G01*
X168410000Y-133300000D02*
X168410000Y-132980000D01*
G75*
G02*
X168570000Y-132820000I160000J0D01*
G01*
X168965000Y-132820000D01*
G75*
G02*
X169125000Y-132980000I0J-160000D01*
G01*
X169125000Y-133300000D01*
G75*
G02*
X168965000Y-133460000I-160000J0D01*
G01*
X168570000Y-133460000D01*
G75*
G02*
X168410000Y-133300000I0J160000D01*
G01*
G37*
G36*
G01*
X167185000Y-134600000D02*
X167185000Y-134280000D01*
G75*
G02*
X167345000Y-134120000I160000J0D01*
G01*
X167740000Y-134120000D01*
G75*
G02*
X167900000Y-134280000I0J-160000D01*
G01*
X167900000Y-134600000D01*
G75*
G02*
X167740000Y-134760000I-160000J0D01*
G01*
X167345000Y-134760000D01*
G75*
G02*
X167185000Y-134600000I0J160000D01*
G01*
G37*
G36*
G01*
X168380000Y-134600000D02*
X168380000Y-134280000D01*
G75*
G02*
X168540000Y-134120000I160000J0D01*
G01*
X168935000Y-134120000D01*
G75*
G02*
X169095000Y-134280000I0J-160000D01*
G01*
X169095000Y-134600000D01*
G75*
G02*
X168935000Y-134760000I-160000J0D01*
G01*
X168540000Y-134760000D01*
G75*
G02*
X168380000Y-134600000I0J160000D01*
G01*
G37*
G36*
G01*
X158420000Y-134025000D02*
X158100000Y-134025000D01*
G75*
G02*
X157940000Y-133865000I0J160000D01*
G01*
X157940000Y-133470000D01*
G75*
G02*
X158100000Y-133310000I160000J0D01*
G01*
X158420000Y-133310000D01*
G75*
G02*
X158580000Y-133470000I0J-160000D01*
G01*
X158580000Y-133865000D01*
G75*
G02*
X158420000Y-134025000I-160000J0D01*
G01*
G37*
G36*
G01*
X158420000Y-132830000D02*
X158100000Y-132830000D01*
G75*
G02*
X157940000Y-132670000I0J160000D01*
G01*
X157940000Y-132275000D01*
G75*
G02*
X158100000Y-132115000I160000J0D01*
G01*
X158420000Y-132115000D01*
G75*
G02*
X158580000Y-132275000I0J-160000D01*
G01*
X158580000Y-132670000D01*
G75*
G02*
X158420000Y-132830000I-160000J0D01*
G01*
G37*
G36*
G01*
X159670000Y-134025000D02*
X159350000Y-134025000D01*
G75*
G02*
X159190000Y-133865000I0J160000D01*
G01*
X159190000Y-133470000D01*
G75*
G02*
X159350000Y-133310000I160000J0D01*
G01*
X159670000Y-133310000D01*
G75*
G02*
X159830000Y-133470000I0J-160000D01*
G01*
X159830000Y-133865000D01*
G75*
G02*
X159670000Y-134025000I-160000J0D01*
G01*
G37*
G36*
G01*
X159670000Y-132830000D02*
X159350000Y-132830000D01*
G75*
G02*
X159190000Y-132670000I0J160000D01*
G01*
X159190000Y-132275000D01*
G75*
G02*
X159350000Y-132115000I160000J0D01*
G01*
X159670000Y-132115000D01*
G75*
G02*
X159830000Y-132275000I0J-160000D01*
G01*
X159830000Y-132670000D01*
G75*
G02*
X159670000Y-132830000I-160000J0D01*
G01*
G37*
G36*
G01*
X167350000Y-118350000D02*
X167350000Y-118670000D01*
G75*
G02*
X167190000Y-118830000I-160000J0D01*
G01*
X166795000Y-118830000D01*
G75*
G02*
X166635000Y-118670000I0J160000D01*
G01*
X166635000Y-118350000D01*
G75*
G02*
X166795000Y-118190000I160000J0D01*
G01*
X167190000Y-118190000D01*
G75*
G02*
X167350000Y-118350000I0J-160000D01*
G01*
G37*
G36*
G01*
X168545000Y-118350000D02*
X168545000Y-118670000D01*
G75*
G02*
X168385000Y-118830000I-160000J0D01*
G01*
X167990000Y-118830000D01*
G75*
G02*
X167830000Y-118670000I0J160000D01*
G01*
X167830000Y-118350000D01*
G75*
G02*
X167990000Y-118190000I160000J0D01*
G01*
X168385000Y-118190000D01*
G75*
G02*
X168545000Y-118350000I0J-160000D01*
G01*
G37*
G36*
G01*
X167380000Y-117110000D02*
X167380000Y-117430000D01*
G75*
G02*
X167220000Y-117590000I-160000J0D01*
G01*
X166825000Y-117590000D01*
G75*
G02*
X166665000Y-117430000I0J160000D01*
G01*
X166665000Y-117110000D01*
G75*
G02*
X166825000Y-116950000I160000J0D01*
G01*
X167220000Y-116950000D01*
G75*
G02*
X167380000Y-117110000I0J-160000D01*
G01*
G37*
G36*
G01*
X168575000Y-117110000D02*
X168575000Y-117430000D01*
G75*
G02*
X168415000Y-117590000I-160000J0D01*
G01*
X168020000Y-117590000D01*
G75*
G02*
X167860000Y-117430000I0J160000D01*
G01*
X167860000Y-117110000D01*
G75*
G02*
X168020000Y-116950000I160000J0D01*
G01*
X168415000Y-116950000D01*
G75*
G02*
X168575000Y-117110000I0J-160000D01*
G01*
G37*
G36*
G01*
X167530000Y-127620000D02*
X167850000Y-127620000D01*
G75*
G02*
X168010000Y-127780000I0J-160000D01*
G01*
X168010000Y-128175000D01*
G75*
G02*
X167850000Y-128335000I-160000J0D01*
G01*
X167530000Y-128335000D01*
G75*
G02*
X167370000Y-128175000I0J160000D01*
G01*
X167370000Y-127780000D01*
G75*
G02*
X167530000Y-127620000I160000J0D01*
G01*
G37*
G36*
G01*
X167530000Y-126425000D02*
X167850000Y-126425000D01*
G75*
G02*
X168010000Y-126585000I0J-160000D01*
G01*
X168010000Y-126980000D01*
G75*
G02*
X167850000Y-127140000I-160000J0D01*
G01*
X167530000Y-127140000D01*
G75*
G02*
X167370000Y-126980000I0J160000D01*
G01*
X167370000Y-126585000D01*
G75*
G02*
X167530000Y-126425000I160000J0D01*
G01*
G37*
G36*
G01*
X166340000Y-127640000D02*
X166660000Y-127640000D01*
G75*
G02*
X166820000Y-127800000I0J-160000D01*
G01*
X166820000Y-128195000D01*
G75*
G02*
X166660000Y-128355000I-160000J0D01*
G01*
X166340000Y-128355000D01*
G75*
G02*
X166180000Y-128195000I0J160000D01*
G01*
X166180000Y-127800000D01*
G75*
G02*
X166340000Y-127640000I160000J0D01*
G01*
G37*
G36*
G01*
X166340000Y-126445000D02*
X166660000Y-126445000D01*
G75*
G02*
X166820000Y-126605000I0J-160000D01*
G01*
X166820000Y-127000000D01*
G75*
G02*
X166660000Y-127160000I-160000J0D01*
G01*
X166340000Y-127160000D01*
G75*
G02*
X166180000Y-127000000I0J160000D01*
G01*
X166180000Y-126605000D01*
G75*
G02*
X166340000Y-126445000I160000J0D01*
G01*
G37*
D10*
X161610000Y-120230000D03*
X162110000Y-120230000D03*
X162610000Y-120230000D03*
X163110000Y-120230000D03*
X163610000Y-120230000D03*
X163610000Y-124630000D03*
X163110000Y-124630000D03*
X162610000Y-124630000D03*
X162110000Y-124630000D03*
X161610000Y-124630000D03*
X165900000Y-120300000D03*
X166400000Y-120300000D03*
X166900000Y-120300000D03*
X167400000Y-120300000D03*
X167900000Y-120300000D03*
X167900000Y-124700000D03*
X167400000Y-124700000D03*
X166900000Y-124700000D03*
X166400000Y-124700000D03*
X165900000Y-124700000D03*
D11*
X161220000Y-132140000D03*
X161220000Y-132640000D03*
X161220000Y-133140000D03*
X161220000Y-133640000D03*
X161220000Y-134140000D03*
X165620000Y-134140000D03*
X165620000Y-133640000D03*
X165620000Y-133140000D03*
X165620000Y-132640000D03*
X165620000Y-132140000D03*
G36*
G01*
X162040000Y-118255000D02*
X162040000Y-118565000D01*
G75*
G02*
X161885000Y-118720000I-155000J0D01*
G01*
X161460000Y-118720000D01*
G75*
G02*
X161305000Y-118565000I0J155000D01*
G01*
X161305000Y-118255000D01*
G75*
G02*
X161460000Y-118100000I155000J0D01*
G01*
X161885000Y-118100000D01*
G75*
G02*
X162040000Y-118255000I0J-155000D01*
G01*
G37*
G36*
G01*
X163175000Y-118255000D02*
X163175000Y-118565000D01*
G75*
G02*
X163020000Y-118720000I-155000J0D01*
G01*
X162595000Y-118720000D01*
G75*
G02*
X162440000Y-118565000I0J155000D01*
G01*
X162440000Y-118255000D01*
G75*
G02*
X162595000Y-118100000I155000J0D01*
G01*
X163020000Y-118100000D01*
G75*
G02*
X163175000Y-118255000I0J-155000D01*
G01*
G37*
G36*
G01*
X164657500Y-118325000D02*
X164657500Y-118635000D01*
G75*
G02*
X164502500Y-118790000I-155000J0D01*
G01*
X164077500Y-118790000D01*
G75*
G02*
X163922500Y-118635000I0J155000D01*
G01*
X163922500Y-118325000D01*
G75*
G02*
X164077500Y-118170000I155000J0D01*
G01*
X164502500Y-118170000D01*
G75*
G02*
X164657500Y-118325000I0J-155000D01*
G01*
G37*
G36*
G01*
X165792500Y-118325000D02*
X165792500Y-118635000D01*
G75*
G02*
X165637500Y-118790000I-155000J0D01*
G01*
X165212500Y-118790000D01*
G75*
G02*
X165057500Y-118635000I0J155000D01*
G01*
X165057500Y-118325000D01*
G75*
G02*
X165212500Y-118170000I155000J0D01*
G01*
X165637500Y-118170000D01*
G75*
G02*
X165792500Y-118325000I0J-155000D01*
G01*
G37*
G36*
G01*
X159545000Y-118460000D02*
X159855000Y-118460000D01*
G75*
G02*
X160010000Y-118615000I0J-155000D01*
G01*
X160010000Y-119040000D01*
G75*
G02*
X159855000Y-119195000I-155000J0D01*
G01*
X159545000Y-119195000D01*
G75*
G02*
X159390000Y-119040000I0J155000D01*
G01*
X159390000Y-118615000D01*
G75*
G02*
X159545000Y-118460000I155000J0D01*
G01*
G37*
G36*
G01*
X159545000Y-117325000D02*
X159855000Y-117325000D01*
G75*
G02*
X160010000Y-117480000I0J-155000D01*
G01*
X160010000Y-117905000D01*
G75*
G02*
X159855000Y-118060000I-155000J0D01*
G01*
X159545000Y-118060000D01*
G75*
G02*
X159390000Y-117905000I0J155000D01*
G01*
X159390000Y-117480000D01*
G75*
G02*
X159545000Y-117325000I155000J0D01*
G01*
G37*
G36*
G01*
X167225000Y-131985000D02*
X167225000Y-131675000D01*
G75*
G02*
X167380000Y-131520000I155000J0D01*
G01*
X167805000Y-131520000D01*
G75*
G02*
X167960000Y-131675000I0J-155000D01*
G01*
X167960000Y-131985000D01*
G75*
G02*
X167805000Y-132140000I-155000J0D01*
G01*
X167380000Y-132140000D01*
G75*
G02*
X167225000Y-131985000I0J155000D01*
G01*
G37*
G36*
G01*
X168360000Y-131985000D02*
X168360000Y-131675000D01*
G75*
G02*
X168515000Y-131520000I155000J0D01*
G01*
X168940000Y-131520000D01*
G75*
G02*
X169095000Y-131675000I0J-155000D01*
G01*
X169095000Y-131985000D01*
G75*
G02*
X168940000Y-132140000I-155000J0D01*
G01*
X168515000Y-132140000D01*
G75*
G02*
X168360000Y-131985000I0J155000D01*
G01*
G37*
D12*
X199360000Y-49700000D03*
X202660000Y-49700000D03*
D13*
X170890000Y-75600000D03*
X170890000Y-72300000D03*
D12*
X170190000Y-93060000D03*
X173490000Y-93060000D03*
D14*
X133670000Y-124340000D03*
X138270000Y-124340000D03*
X135970000Y-124340000D03*
D15*
X135970000Y-118040000D03*
G36*
G01*
X182845000Y-74360000D02*
X182545000Y-74360000D01*
G75*
G02*
X182395000Y-74210000I0J150000D01*
G01*
X182395000Y-72560000D01*
G75*
G02*
X182545000Y-72410000I150000J0D01*
G01*
X182845000Y-72410000D01*
G75*
G02*
X182995000Y-72560000I0J-150000D01*
G01*
X182995000Y-74210000D01*
G75*
G02*
X182845000Y-74360000I-150000J0D01*
G01*
G37*
G36*
G01*
X184115000Y-74360000D02*
X183815000Y-74360000D01*
G75*
G02*
X183665000Y-74210000I0J150000D01*
G01*
X183665000Y-72560000D01*
G75*
G02*
X183815000Y-72410000I150000J0D01*
G01*
X184115000Y-72410000D01*
G75*
G02*
X184265000Y-72560000I0J-150000D01*
G01*
X184265000Y-74210000D01*
G75*
G02*
X184115000Y-74360000I-150000J0D01*
G01*
G37*
G36*
G01*
X185385000Y-74360000D02*
X185085000Y-74360000D01*
G75*
G02*
X184935000Y-74210000I0J150000D01*
G01*
X184935000Y-72560000D01*
G75*
G02*
X185085000Y-72410000I150000J0D01*
G01*
X185385000Y-72410000D01*
G75*
G02*
X185535000Y-72560000I0J-150000D01*
G01*
X185535000Y-74210000D01*
G75*
G02*
X185385000Y-74360000I-150000J0D01*
G01*
G37*
G36*
G01*
X186655000Y-74360000D02*
X186355000Y-74360000D01*
G75*
G02*
X186205000Y-74210000I0J150000D01*
G01*
X186205000Y-72560000D01*
G75*
G02*
X186355000Y-72410000I150000J0D01*
G01*
X186655000Y-72410000D01*
G75*
G02*
X186805000Y-72560000I0J-150000D01*
G01*
X186805000Y-74210000D01*
G75*
G02*
X186655000Y-74360000I-150000J0D01*
G01*
G37*
G36*
G01*
X186655000Y-79310000D02*
X186355000Y-79310000D01*
G75*
G02*
X186205000Y-79160000I0J150000D01*
G01*
X186205000Y-77510000D01*
G75*
G02*
X186355000Y-77360000I150000J0D01*
G01*
X186655000Y-77360000D01*
G75*
G02*
X186805000Y-77510000I0J-150000D01*
G01*
X186805000Y-79160000D01*
G75*
G02*
X186655000Y-79310000I-150000J0D01*
G01*
G37*
G36*
G01*
X185385000Y-79310000D02*
X185085000Y-79310000D01*
G75*
G02*
X184935000Y-79160000I0J150000D01*
G01*
X184935000Y-77510000D01*
G75*
G02*
X185085000Y-77360000I150000J0D01*
G01*
X185385000Y-77360000D01*
G75*
G02*
X185535000Y-77510000I0J-150000D01*
G01*
X185535000Y-79160000D01*
G75*
G02*
X185385000Y-79310000I-150000J0D01*
G01*
G37*
G36*
G01*
X184115000Y-79310000D02*
X183815000Y-79310000D01*
G75*
G02*
X183665000Y-79160000I0J150000D01*
G01*
X183665000Y-77510000D01*
G75*
G02*
X183815000Y-77360000I150000J0D01*
G01*
X184115000Y-77360000D01*
G75*
G02*
X184265000Y-77510000I0J-150000D01*
G01*
X184265000Y-79160000D01*
G75*
G02*
X184115000Y-79310000I-150000J0D01*
G01*
G37*
G36*
G01*
X182845000Y-79310000D02*
X182545000Y-79310000D01*
G75*
G02*
X182395000Y-79160000I0J150000D01*
G01*
X182395000Y-77510000D01*
G75*
G02*
X182545000Y-77360000I150000J0D01*
G01*
X182845000Y-77360000D01*
G75*
G02*
X182995000Y-77510000I0J-150000D01*
G01*
X182995000Y-79160000D01*
G75*
G02*
X182845000Y-79310000I-150000J0D01*
G01*
G37*
D16*
X165890000Y-78115000D03*
X173510000Y-87645000D03*
X168430000Y-78115000D03*
X170970000Y-87645000D03*
X170970000Y-78115000D03*
X168430000Y-87645000D03*
X173510000Y-78115000D03*
X165890000Y-87645000D03*
D17*
X141295000Y-100650000D03*
X150825000Y-93030000D03*
X141295000Y-98110000D03*
X150825000Y-95570000D03*
X141295000Y-95570000D03*
X150825000Y-98110000D03*
X141295000Y-93030000D03*
X150825000Y-100650000D03*
G36*
G01*
X165875000Y-96495000D02*
X165205000Y-96495000D01*
G75*
G02*
X165055000Y-96345000I0J150000D01*
G01*
X165055000Y-96045000D01*
G75*
G02*
X165205000Y-95895000I150000J0D01*
G01*
X165875000Y-95895000D01*
G75*
G02*
X166025000Y-96045000I0J-150000D01*
G01*
X166025000Y-96345000D01*
G75*
G02*
X165875000Y-96495000I-150000J0D01*
G01*
G37*
G36*
G01*
X164675000Y-96495000D02*
X164005000Y-96495000D01*
G75*
G02*
X163855000Y-96345000I0J150000D01*
G01*
X163855000Y-96045000D01*
G75*
G02*
X164005000Y-95895000I150000J0D01*
G01*
X164675000Y-95895000D01*
G75*
G02*
X164825000Y-96045000I0J-150000D01*
G01*
X164825000Y-96345000D01*
G75*
G02*
X164675000Y-96495000I-150000J0D01*
G01*
G37*
G36*
G01*
X165875000Y-97245000D02*
X165205000Y-97245000D01*
G75*
G02*
X165055000Y-97095000I0J150000D01*
G01*
X165055000Y-96795000D01*
G75*
G02*
X165205000Y-96645000I150000J0D01*
G01*
X165875000Y-96645000D01*
G75*
G02*
X166025000Y-96795000I0J-150000D01*
G01*
X166025000Y-97095000D01*
G75*
G02*
X165875000Y-97245000I-150000J0D01*
G01*
G37*
G36*
G01*
X164675000Y-97245000D02*
X164005000Y-97245000D01*
G75*
G02*
X163855000Y-97095000I0J150000D01*
G01*
X163855000Y-96795000D01*
G75*
G02*
X164005000Y-96645000I150000J0D01*
G01*
X164675000Y-96645000D01*
G75*
G02*
X164825000Y-96795000I0J-150000D01*
G01*
X164825000Y-97095000D01*
G75*
G02*
X164675000Y-97245000I-150000J0D01*
G01*
G37*
G36*
G01*
X164040000Y-95520000D02*
X163840000Y-95520000D01*
G75*
G02*
X163740000Y-95420000I0J100000D01*
G01*
X163740000Y-94820000D01*
G75*
G02*
X163840000Y-94720000I100000J0D01*
G01*
X164040000Y-94720000D01*
G75*
G02*
X164140000Y-94820000I0J-100000D01*
G01*
X164140000Y-95420000D01*
G75*
G02*
X164040000Y-95520000I-100000J0D01*
G01*
G37*
G36*
G01*
X165040000Y-95520000D02*
X164840000Y-95520000D01*
G75*
G02*
X164740000Y-95420000I0J100000D01*
G01*
X164740000Y-94820000D01*
G75*
G02*
X164840000Y-94720000I100000J0D01*
G01*
X165040000Y-94720000D01*
G75*
G02*
X165140000Y-94820000I0J-100000D01*
G01*
X165140000Y-95420000D01*
G75*
G02*
X165040000Y-95520000I-100000J0D01*
G01*
G37*
G36*
G01*
X166040000Y-95520000D02*
X165840000Y-95520000D01*
G75*
G02*
X165740000Y-95420000I0J100000D01*
G01*
X165740000Y-94820000D01*
G75*
G02*
X165840000Y-94720000I100000J0D01*
G01*
X166040000Y-94720000D01*
G75*
G02*
X166140000Y-94820000I0J-100000D01*
G01*
X166140000Y-95420000D01*
G75*
G02*
X166040000Y-95520000I-100000J0D01*
G01*
G37*
G36*
G01*
X166040000Y-98420000D02*
X165840000Y-98420000D01*
G75*
G02*
X165740000Y-98320000I0J100000D01*
G01*
X165740000Y-97720000D01*
G75*
G02*
X165840000Y-97620000I100000J0D01*
G01*
X166040000Y-97620000D01*
G75*
G02*
X166140000Y-97720000I0J-100000D01*
G01*
X166140000Y-98320000D01*
G75*
G02*
X166040000Y-98420000I-100000J0D01*
G01*
G37*
G36*
G01*
X165040000Y-98420000D02*
X164840000Y-98420000D01*
G75*
G02*
X164740000Y-98320000I0J100000D01*
G01*
X164740000Y-97720000D01*
G75*
G02*
X164840000Y-97620000I100000J0D01*
G01*
X165040000Y-97620000D01*
G75*
G02*
X165140000Y-97720000I0J-100000D01*
G01*
X165140000Y-98320000D01*
G75*
G02*
X165040000Y-98420000I-100000J0D01*
G01*
G37*
G36*
G01*
X164040000Y-98420000D02*
X163840000Y-98420000D01*
G75*
G02*
X163740000Y-98320000I0J100000D01*
G01*
X163740000Y-97720000D01*
G75*
G02*
X163840000Y-97620000I100000J0D01*
G01*
X164040000Y-97620000D01*
G75*
G02*
X164140000Y-97720000I0J-100000D01*
G01*
X164140000Y-98320000D01*
G75*
G02*
X164040000Y-98420000I-100000J0D01*
G01*
G37*
G36*
G01*
X171820000Y-58565000D02*
X171820000Y-58265000D01*
G75*
G02*
X171970000Y-58115000I150000J0D01*
G01*
X173620000Y-58115000D01*
G75*
G02*
X173770000Y-58265000I0J-150000D01*
G01*
X173770000Y-58565000D01*
G75*
G02*
X173620000Y-58715000I-150000J0D01*
G01*
X171970000Y-58715000D01*
G75*
G02*
X171820000Y-58565000I0J150000D01*
G01*
G37*
G36*
G01*
X171820000Y-59835000D02*
X171820000Y-59535000D01*
G75*
G02*
X171970000Y-59385000I150000J0D01*
G01*
X173620000Y-59385000D01*
G75*
G02*
X173770000Y-59535000I0J-150000D01*
G01*
X173770000Y-59835000D01*
G75*
G02*
X173620000Y-59985000I-150000J0D01*
G01*
X171970000Y-59985000D01*
G75*
G02*
X171820000Y-59835000I0J150000D01*
G01*
G37*
G36*
G01*
X171820000Y-61105000D02*
X171820000Y-60805000D01*
G75*
G02*
X171970000Y-60655000I150000J0D01*
G01*
X173620000Y-60655000D01*
G75*
G02*
X173770000Y-60805000I0J-150000D01*
G01*
X173770000Y-61105000D01*
G75*
G02*
X173620000Y-61255000I-150000J0D01*
G01*
X171970000Y-61255000D01*
G75*
G02*
X171820000Y-61105000I0J150000D01*
G01*
G37*
G36*
G01*
X171820000Y-62375000D02*
X171820000Y-62075000D01*
G75*
G02*
X171970000Y-61925000I150000J0D01*
G01*
X173620000Y-61925000D01*
G75*
G02*
X173770000Y-62075000I0J-150000D01*
G01*
X173770000Y-62375000D01*
G75*
G02*
X173620000Y-62525000I-150000J0D01*
G01*
X171970000Y-62525000D01*
G75*
G02*
X171820000Y-62375000I0J150000D01*
G01*
G37*
G36*
G01*
X166870000Y-62375000D02*
X166870000Y-62075000D01*
G75*
G02*
X167020000Y-61925000I150000J0D01*
G01*
X168670000Y-61925000D01*
G75*
G02*
X168820000Y-62075000I0J-150000D01*
G01*
X168820000Y-62375000D01*
G75*
G02*
X168670000Y-62525000I-150000J0D01*
G01*
X167020000Y-62525000D01*
G75*
G02*
X166870000Y-62375000I0J150000D01*
G01*
G37*
G36*
G01*
X166870000Y-61105000D02*
X166870000Y-60805000D01*
G75*
G02*
X167020000Y-60655000I150000J0D01*
G01*
X168670000Y-60655000D01*
G75*
G02*
X168820000Y-60805000I0J-150000D01*
G01*
X168820000Y-61105000D01*
G75*
G02*
X168670000Y-61255000I-150000J0D01*
G01*
X167020000Y-61255000D01*
G75*
G02*
X166870000Y-61105000I0J150000D01*
G01*
G37*
G36*
G01*
X166870000Y-59835000D02*
X166870000Y-59535000D01*
G75*
G02*
X167020000Y-59385000I150000J0D01*
G01*
X168670000Y-59385000D01*
G75*
G02*
X168820000Y-59535000I0J-150000D01*
G01*
X168820000Y-59835000D01*
G75*
G02*
X168670000Y-59985000I-150000J0D01*
G01*
X167020000Y-59985000D01*
G75*
G02*
X166870000Y-59835000I0J150000D01*
G01*
G37*
G36*
G01*
X166870000Y-58565000D02*
X166870000Y-58265000D01*
G75*
G02*
X167020000Y-58115000I150000J0D01*
G01*
X168670000Y-58115000D01*
G75*
G02*
X168820000Y-58265000I0J-150000D01*
G01*
X168820000Y-58565000D01*
G75*
G02*
X168670000Y-58715000I-150000J0D01*
G01*
X167020000Y-58715000D01*
G75*
G02*
X166870000Y-58565000I0J150000D01*
G01*
G37*
G36*
G01*
X174555000Y-62070000D02*
X174865000Y-62070000D01*
G75*
G02*
X175020000Y-62225000I0J-155000D01*
G01*
X175020000Y-62650000D01*
G75*
G02*
X174865000Y-62805000I-155000J0D01*
G01*
X174555000Y-62805000D01*
G75*
G02*
X174400000Y-62650000I0J155000D01*
G01*
X174400000Y-62225000D01*
G75*
G02*
X174555000Y-62070000I155000J0D01*
G01*
G37*
G36*
G01*
X174555000Y-60935000D02*
X174865000Y-60935000D01*
G75*
G02*
X175020000Y-61090000I0J-155000D01*
G01*
X175020000Y-61515000D01*
G75*
G02*
X174865000Y-61670000I-155000J0D01*
G01*
X174555000Y-61670000D01*
G75*
G02*
X174400000Y-61515000I0J155000D01*
G01*
X174400000Y-61090000D01*
G75*
G02*
X174555000Y-60935000I155000J0D01*
G01*
G37*
D18*
X159100000Y-71425000D03*
X159100000Y-72695000D03*
X159100000Y-73965000D03*
X159100000Y-75235000D03*
X159100000Y-76505000D03*
X159100000Y-77775000D03*
X159100000Y-79045000D03*
X159100000Y-80315000D03*
X159100000Y-81585000D03*
X159100000Y-82855000D03*
X159100000Y-84125000D03*
X159100000Y-85395000D03*
X159100000Y-86665000D03*
X159100000Y-87935000D03*
D19*
X156315000Y-88935000D03*
X155045000Y-88935000D03*
X153775000Y-88935000D03*
X152505000Y-88935000D03*
X151235000Y-88935000D03*
X149965000Y-88935000D03*
X148695000Y-88935000D03*
X147425000Y-88935000D03*
X146155000Y-88935000D03*
X144885000Y-88935000D03*
D18*
X142100000Y-87935000D03*
X142100000Y-86665000D03*
X142100000Y-85395000D03*
X142100000Y-84125000D03*
X142100000Y-82855000D03*
X142100000Y-81585000D03*
X142100000Y-80315000D03*
X142100000Y-79045000D03*
X142100000Y-77775000D03*
X142100000Y-76505000D03*
X142100000Y-75235000D03*
X142100000Y-73965000D03*
X142100000Y-72695000D03*
X142100000Y-71425000D03*
D20*
X149600000Y-78925000D03*
G36*
G01*
X180890000Y-80810000D02*
X180890000Y-80490000D01*
G75*
G02*
X181050000Y-80330000I160000J0D01*
G01*
X181445000Y-80330000D01*
G75*
G02*
X181605000Y-80490000I0J-160000D01*
G01*
X181605000Y-80810000D01*
G75*
G02*
X181445000Y-80970000I-160000J0D01*
G01*
X181050000Y-80970000D01*
G75*
G02*
X180890000Y-80810000I0J160000D01*
G01*
G37*
G36*
G01*
X179695000Y-80810000D02*
X179695000Y-80490000D01*
G75*
G02*
X179855000Y-80330000I160000J0D01*
G01*
X180250000Y-80330000D01*
G75*
G02*
X180410000Y-80490000I0J-160000D01*
G01*
X180410000Y-80810000D01*
G75*
G02*
X180250000Y-80970000I-160000J0D01*
G01*
X179855000Y-80970000D01*
G75*
G02*
X179695000Y-80810000I0J160000D01*
G01*
G37*
D21*
X160310000Y-95215000D03*
X160310000Y-100265000D03*
X157770000Y-95215000D03*
X157770000Y-100265000D03*
D22*
X127475000Y-89360000D03*
X132525000Y-89360000D03*
X127475000Y-91900000D03*
X132525000Y-91900000D03*
X127475000Y-94440000D03*
X132525000Y-94440000D03*
X127475000Y-96980000D03*
X132525000Y-96980000D03*
X127475000Y-99520000D03*
X132525000Y-99520000D03*
X127475000Y-102060000D03*
X132525000Y-102060000D03*
G36*
G01*
X102120000Y-122330000D02*
X102120000Y-124330000D01*
G75*
G02*
X101870000Y-124580000I-250000J0D01*
G01*
X98370000Y-124580000D01*
G75*
G02*
X98120000Y-124330000I0J250000D01*
G01*
X98120000Y-122330000D01*
G75*
G02*
X98370000Y-122080000I250000J0D01*
G01*
X101870000Y-122080000D01*
G75*
G02*
X102120000Y-122330000I0J-250000D01*
G01*
G37*
G36*
G01*
X110120000Y-122330000D02*
X110120000Y-124330000D01*
G75*
G02*
X109870000Y-124580000I-250000J0D01*
G01*
X106370000Y-124580000D01*
G75*
G02*
X106120000Y-124330000I0J250000D01*
G01*
X106120000Y-122330000D01*
G75*
G02*
X106370000Y-122080000I250000J0D01*
G01*
X109870000Y-122080000D01*
G75*
G02*
X110120000Y-122330000I0J-250000D01*
G01*
G37*
G36*
G01*
X110290000Y-112290000D02*
X110290000Y-110290000D01*
G75*
G02*
X110540000Y-110040000I250000J0D01*
G01*
X114040000Y-110040000D01*
G75*
G02*
X114290000Y-110290000I0J-250000D01*
G01*
X114290000Y-112290000D01*
G75*
G02*
X114040000Y-112540000I-250000J0D01*
G01*
X110540000Y-112540000D01*
G75*
G02*
X110290000Y-112290000I0J250000D01*
G01*
G37*
G36*
G01*
X102290000Y-112290000D02*
X102290000Y-110290000D01*
G75*
G02*
X102540000Y-110040000I250000J0D01*
G01*
X106040000Y-110040000D01*
G75*
G02*
X106290000Y-110290000I0J-250000D01*
G01*
X106290000Y-112290000D01*
G75*
G02*
X106040000Y-112540000I-250000J0D01*
G01*
X102540000Y-112540000D01*
G75*
G02*
X102290000Y-112290000I0J250000D01*
G01*
G37*
G36*
G01*
X156485000Y-105055000D02*
X156485000Y-104755000D01*
G75*
G02*
X156635000Y-104605000I150000J0D01*
G01*
X158385000Y-104605000D01*
G75*
G02*
X158535000Y-104755000I0J-150000D01*
G01*
X158535000Y-105055000D01*
G75*
G02*
X158385000Y-105205000I-150000J0D01*
G01*
X156635000Y-105205000D01*
G75*
G02*
X156485000Y-105055000I0J150000D01*
G01*
G37*
G36*
G01*
X156485000Y-106325000D02*
X156485000Y-106025000D01*
G75*
G02*
X156635000Y-105875000I150000J0D01*
G01*
X158385000Y-105875000D01*
G75*
G02*
X158535000Y-106025000I0J-150000D01*
G01*
X158535000Y-106325000D01*
G75*
G02*
X158385000Y-106475000I-150000J0D01*
G01*
X156635000Y-106475000D01*
G75*
G02*
X156485000Y-106325000I0J150000D01*
G01*
G37*
G36*
G01*
X156485000Y-107595000D02*
X156485000Y-107295000D01*
G75*
G02*
X156635000Y-107145000I150000J0D01*
G01*
X158385000Y-107145000D01*
G75*
G02*
X158535000Y-107295000I0J-150000D01*
G01*
X158535000Y-107595000D01*
G75*
G02*
X158385000Y-107745000I-150000J0D01*
G01*
X156635000Y-107745000D01*
G75*
G02*
X156485000Y-107595000I0J150000D01*
G01*
G37*
G36*
G01*
X156485000Y-108865000D02*
X156485000Y-108565000D01*
G75*
G02*
X156635000Y-108415000I150000J0D01*
G01*
X158385000Y-108415000D01*
G75*
G02*
X158535000Y-108565000I0J-150000D01*
G01*
X158535000Y-108865000D01*
G75*
G02*
X158385000Y-109015000I-150000J0D01*
G01*
X156635000Y-109015000D01*
G75*
G02*
X156485000Y-108865000I0J150000D01*
G01*
G37*
G36*
G01*
X156485000Y-110135000D02*
X156485000Y-109835000D01*
G75*
G02*
X156635000Y-109685000I150000J0D01*
G01*
X158385000Y-109685000D01*
G75*
G02*
X158535000Y-109835000I0J-150000D01*
G01*
X158535000Y-110135000D01*
G75*
G02*
X158385000Y-110285000I-150000J0D01*
G01*
X156635000Y-110285000D01*
G75*
G02*
X156485000Y-110135000I0J150000D01*
G01*
G37*
G36*
G01*
X156485000Y-111405000D02*
X156485000Y-111105000D01*
G75*
G02*
X156635000Y-110955000I150000J0D01*
G01*
X158385000Y-110955000D01*
G75*
G02*
X158535000Y-111105000I0J-150000D01*
G01*
X158535000Y-111405000D01*
G75*
G02*
X158385000Y-111555000I-150000J0D01*
G01*
X156635000Y-111555000D01*
G75*
G02*
X156485000Y-111405000I0J150000D01*
G01*
G37*
G36*
G01*
X156485000Y-112675000D02*
X156485000Y-112375000D01*
G75*
G02*
X156635000Y-112225000I150000J0D01*
G01*
X158385000Y-112225000D01*
G75*
G02*
X158535000Y-112375000I0J-150000D01*
G01*
X158535000Y-112675000D01*
G75*
G02*
X158385000Y-112825000I-150000J0D01*
G01*
X156635000Y-112825000D01*
G75*
G02*
X156485000Y-112675000I0J150000D01*
G01*
G37*
G36*
G01*
X156485000Y-113945000D02*
X156485000Y-113645000D01*
G75*
G02*
X156635000Y-113495000I150000J0D01*
G01*
X158385000Y-113495000D01*
G75*
G02*
X158535000Y-113645000I0J-150000D01*
G01*
X158535000Y-113945000D01*
G75*
G02*
X158385000Y-114095000I-150000J0D01*
G01*
X156635000Y-114095000D01*
G75*
G02*
X156485000Y-113945000I0J150000D01*
G01*
G37*
G36*
G01*
X156485000Y-115215000D02*
X156485000Y-114915000D01*
G75*
G02*
X156635000Y-114765000I150000J0D01*
G01*
X158385000Y-114765000D01*
G75*
G02*
X158535000Y-114915000I0J-150000D01*
G01*
X158535000Y-115215000D01*
G75*
G02*
X158385000Y-115365000I-150000J0D01*
G01*
X156635000Y-115365000D01*
G75*
G02*
X156485000Y-115215000I0J150000D01*
G01*
G37*
G36*
G01*
X156485000Y-116485000D02*
X156485000Y-116185000D01*
G75*
G02*
X156635000Y-116035000I150000J0D01*
G01*
X158385000Y-116035000D01*
G75*
G02*
X158535000Y-116185000I0J-150000D01*
G01*
X158535000Y-116485000D01*
G75*
G02*
X158385000Y-116635000I-150000J0D01*
G01*
X156635000Y-116635000D01*
G75*
G02*
X156485000Y-116485000I0J150000D01*
G01*
G37*
G36*
G01*
X156485000Y-117755000D02*
X156485000Y-117455000D01*
G75*
G02*
X156635000Y-117305000I150000J0D01*
G01*
X158385000Y-117305000D01*
G75*
G02*
X158535000Y-117455000I0J-150000D01*
G01*
X158535000Y-117755000D01*
G75*
G02*
X158385000Y-117905000I-150000J0D01*
G01*
X156635000Y-117905000D01*
G75*
G02*
X156485000Y-117755000I0J150000D01*
G01*
G37*
G36*
G01*
X156485000Y-119025000D02*
X156485000Y-118725000D01*
G75*
G02*
X156635000Y-118575000I150000J0D01*
G01*
X158385000Y-118575000D01*
G75*
G02*
X158535000Y-118725000I0J-150000D01*
G01*
X158535000Y-119025000D01*
G75*
G02*
X158385000Y-119175000I-150000J0D01*
G01*
X156635000Y-119175000D01*
G75*
G02*
X156485000Y-119025000I0J150000D01*
G01*
G37*
G36*
G01*
X156485000Y-120295000D02*
X156485000Y-119995000D01*
G75*
G02*
X156635000Y-119845000I150000J0D01*
G01*
X158385000Y-119845000D01*
G75*
G02*
X158535000Y-119995000I0J-150000D01*
G01*
X158535000Y-120295000D01*
G75*
G02*
X158385000Y-120445000I-150000J0D01*
G01*
X156635000Y-120445000D01*
G75*
G02*
X156485000Y-120295000I0J150000D01*
G01*
G37*
G36*
G01*
X156485000Y-121565000D02*
X156485000Y-121265000D01*
G75*
G02*
X156635000Y-121115000I150000J0D01*
G01*
X158385000Y-121115000D01*
G75*
G02*
X158535000Y-121265000I0J-150000D01*
G01*
X158535000Y-121565000D01*
G75*
G02*
X158385000Y-121715000I-150000J0D01*
G01*
X156635000Y-121715000D01*
G75*
G02*
X156485000Y-121565000I0J150000D01*
G01*
G37*
G36*
G01*
X147185000Y-121565000D02*
X147185000Y-121265000D01*
G75*
G02*
X147335000Y-121115000I150000J0D01*
G01*
X149085000Y-121115000D01*
G75*
G02*
X149235000Y-121265000I0J-150000D01*
G01*
X149235000Y-121565000D01*
G75*
G02*
X149085000Y-121715000I-150000J0D01*
G01*
X147335000Y-121715000D01*
G75*
G02*
X147185000Y-121565000I0J150000D01*
G01*
G37*
G36*
G01*
X147185000Y-120295000D02*
X147185000Y-119995000D01*
G75*
G02*
X147335000Y-119845000I150000J0D01*
G01*
X149085000Y-119845000D01*
G75*
G02*
X149235000Y-119995000I0J-150000D01*
G01*
X149235000Y-120295000D01*
G75*
G02*
X149085000Y-120445000I-150000J0D01*
G01*
X147335000Y-120445000D01*
G75*
G02*
X147185000Y-120295000I0J150000D01*
G01*
G37*
G36*
G01*
X147185000Y-119025000D02*
X147185000Y-118725000D01*
G75*
G02*
X147335000Y-118575000I150000J0D01*
G01*
X149085000Y-118575000D01*
G75*
G02*
X149235000Y-118725000I0J-150000D01*
G01*
X149235000Y-119025000D01*
G75*
G02*
X149085000Y-119175000I-150000J0D01*
G01*
X147335000Y-119175000D01*
G75*
G02*
X147185000Y-119025000I0J150000D01*
G01*
G37*
G36*
G01*
X147185000Y-117755000D02*
X147185000Y-117455000D01*
G75*
G02*
X147335000Y-117305000I150000J0D01*
G01*
X149085000Y-117305000D01*
G75*
G02*
X149235000Y-117455000I0J-150000D01*
G01*
X149235000Y-117755000D01*
G75*
G02*
X149085000Y-117905000I-150000J0D01*
G01*
X147335000Y-117905000D01*
G75*
G02*
X147185000Y-117755000I0J150000D01*
G01*
G37*
G36*
G01*
X147185000Y-116485000D02*
X147185000Y-116185000D01*
G75*
G02*
X147335000Y-116035000I150000J0D01*
G01*
X149085000Y-116035000D01*
G75*
G02*
X149235000Y-116185000I0J-150000D01*
G01*
X149235000Y-116485000D01*
G75*
G02*
X149085000Y-116635000I-150000J0D01*
G01*
X147335000Y-116635000D01*
G75*
G02*
X147185000Y-116485000I0J150000D01*
G01*
G37*
G36*
G01*
X147185000Y-115215000D02*
X147185000Y-114915000D01*
G75*
G02*
X147335000Y-114765000I150000J0D01*
G01*
X149085000Y-114765000D01*
G75*
G02*
X149235000Y-114915000I0J-150000D01*
G01*
X149235000Y-115215000D01*
G75*
G02*
X149085000Y-115365000I-150000J0D01*
G01*
X147335000Y-115365000D01*
G75*
G02*
X147185000Y-115215000I0J150000D01*
G01*
G37*
G36*
G01*
X147185000Y-113945000D02*
X147185000Y-113645000D01*
G75*
G02*
X147335000Y-113495000I150000J0D01*
G01*
X149085000Y-113495000D01*
G75*
G02*
X149235000Y-113645000I0J-150000D01*
G01*
X149235000Y-113945000D01*
G75*
G02*
X149085000Y-114095000I-150000J0D01*
G01*
X147335000Y-114095000D01*
G75*
G02*
X147185000Y-113945000I0J150000D01*
G01*
G37*
G36*
G01*
X147185000Y-112675000D02*
X147185000Y-112375000D01*
G75*
G02*
X147335000Y-112225000I150000J0D01*
G01*
X149085000Y-112225000D01*
G75*
G02*
X149235000Y-112375000I0J-150000D01*
G01*
X149235000Y-112675000D01*
G75*
G02*
X149085000Y-112825000I-150000J0D01*
G01*
X147335000Y-112825000D01*
G75*
G02*
X147185000Y-112675000I0J150000D01*
G01*
G37*
G36*
G01*
X147185000Y-111405000D02*
X147185000Y-111105000D01*
G75*
G02*
X147335000Y-110955000I150000J0D01*
G01*
X149085000Y-110955000D01*
G75*
G02*
X149235000Y-111105000I0J-150000D01*
G01*
X149235000Y-111405000D01*
G75*
G02*
X149085000Y-111555000I-150000J0D01*
G01*
X147335000Y-111555000D01*
G75*
G02*
X147185000Y-111405000I0J150000D01*
G01*
G37*
G36*
G01*
X147185000Y-110135000D02*
X147185000Y-109835000D01*
G75*
G02*
X147335000Y-109685000I150000J0D01*
G01*
X149085000Y-109685000D01*
G75*
G02*
X149235000Y-109835000I0J-150000D01*
G01*
X149235000Y-110135000D01*
G75*
G02*
X149085000Y-110285000I-150000J0D01*
G01*
X147335000Y-110285000D01*
G75*
G02*
X147185000Y-110135000I0J150000D01*
G01*
G37*
G36*
G01*
X147185000Y-108865000D02*
X147185000Y-108565000D01*
G75*
G02*
X147335000Y-108415000I150000J0D01*
G01*
X149085000Y-108415000D01*
G75*
G02*
X149235000Y-108565000I0J-150000D01*
G01*
X149235000Y-108865000D01*
G75*
G02*
X149085000Y-109015000I-150000J0D01*
G01*
X147335000Y-109015000D01*
G75*
G02*
X147185000Y-108865000I0J150000D01*
G01*
G37*
G36*
G01*
X147185000Y-107595000D02*
X147185000Y-107295000D01*
G75*
G02*
X147335000Y-107145000I150000J0D01*
G01*
X149085000Y-107145000D01*
G75*
G02*
X149235000Y-107295000I0J-150000D01*
G01*
X149235000Y-107595000D01*
G75*
G02*
X149085000Y-107745000I-150000J0D01*
G01*
X147335000Y-107745000D01*
G75*
G02*
X147185000Y-107595000I0J150000D01*
G01*
G37*
G36*
G01*
X147185000Y-106325000D02*
X147185000Y-106025000D01*
G75*
G02*
X147335000Y-105875000I150000J0D01*
G01*
X149085000Y-105875000D01*
G75*
G02*
X149235000Y-106025000I0J-150000D01*
G01*
X149235000Y-106325000D01*
G75*
G02*
X149085000Y-106475000I-150000J0D01*
G01*
X147335000Y-106475000D01*
G75*
G02*
X147185000Y-106325000I0J150000D01*
G01*
G37*
G36*
G01*
X147185000Y-105055000D02*
X147185000Y-104755000D01*
G75*
G02*
X147335000Y-104605000I150000J0D01*
G01*
X149085000Y-104605000D01*
G75*
G02*
X149235000Y-104755000I0J-150000D01*
G01*
X149235000Y-105055000D01*
G75*
G02*
X149085000Y-105205000I-150000J0D01*
G01*
X147335000Y-105205000D01*
G75*
G02*
X147185000Y-105055000I0J150000D01*
G01*
G37*
D23*
X200052500Y-56900000D03*
X200687500Y-56900000D03*
X201322500Y-56900000D03*
X201957500Y-56900000D03*
X202592500Y-56900000D03*
X203227500Y-56900000D03*
X203862500Y-56900000D03*
X204497500Y-56900000D03*
X205132500Y-56900000D03*
X205767500Y-56900000D03*
X205767500Y-62100000D03*
X205132500Y-62100000D03*
X204497500Y-62100000D03*
X203862500Y-62100000D03*
X203227500Y-62100000D03*
X202592500Y-62100000D03*
X201957500Y-62100000D03*
X201322500Y-62100000D03*
X200687500Y-62100000D03*
X200052500Y-62100000D03*
G36*
G01*
X182985000Y-93330000D02*
X183305000Y-93330000D01*
G75*
G02*
X183465000Y-93490000I0J-160000D01*
G01*
X183465000Y-93885000D01*
G75*
G02*
X183305000Y-94045000I-160000J0D01*
G01*
X182985000Y-94045000D01*
G75*
G02*
X182825000Y-93885000I0J160000D01*
G01*
X182825000Y-93490000D01*
G75*
G02*
X182985000Y-93330000I160000J0D01*
G01*
G37*
G36*
G01*
X182985000Y-92135000D02*
X183305000Y-92135000D01*
G75*
G02*
X183465000Y-92295000I0J-160000D01*
G01*
X183465000Y-92690000D01*
G75*
G02*
X183305000Y-92850000I-160000J0D01*
G01*
X182985000Y-92850000D01*
G75*
G02*
X182825000Y-92690000I0J160000D01*
G01*
X182825000Y-92295000D01*
G75*
G02*
X182985000Y-92135000I160000J0D01*
G01*
G37*
G36*
G01*
X177485000Y-93330000D02*
X177805000Y-93330000D01*
G75*
G02*
X177965000Y-93490000I0J-160000D01*
G01*
X177965000Y-93885000D01*
G75*
G02*
X177805000Y-94045000I-160000J0D01*
G01*
X177485000Y-94045000D01*
G75*
G02*
X177325000Y-93885000I0J160000D01*
G01*
X177325000Y-93490000D01*
G75*
G02*
X177485000Y-93330000I160000J0D01*
G01*
G37*
G36*
G01*
X177485000Y-92135000D02*
X177805000Y-92135000D01*
G75*
G02*
X177965000Y-92295000I0J-160000D01*
G01*
X177965000Y-92690000D01*
G75*
G02*
X177805000Y-92850000I-160000J0D01*
G01*
X177485000Y-92850000D01*
G75*
G02*
X177325000Y-92690000I0J160000D01*
G01*
X177325000Y-92295000D01*
G75*
G02*
X177485000Y-92135000I160000J0D01*
G01*
G37*
G36*
G01*
X182835000Y-84230000D02*
X182515000Y-84230000D01*
G75*
G02*
X182355000Y-84070000I0J160000D01*
G01*
X182355000Y-83675000D01*
G75*
G02*
X182515000Y-83515000I160000J0D01*
G01*
X182835000Y-83515000D01*
G75*
G02*
X182995000Y-83675000I0J-160000D01*
G01*
X182995000Y-84070000D01*
G75*
G02*
X182835000Y-84230000I-160000J0D01*
G01*
G37*
G36*
G01*
X182835000Y-85425000D02*
X182515000Y-85425000D01*
G75*
G02*
X182355000Y-85265000I0J160000D01*
G01*
X182355000Y-84870000D01*
G75*
G02*
X182515000Y-84710000I160000J0D01*
G01*
X182835000Y-84710000D01*
G75*
G02*
X182995000Y-84870000I0J-160000D01*
G01*
X182995000Y-85265000D01*
G75*
G02*
X182835000Y-85425000I-160000J0D01*
G01*
G37*
G36*
G01*
X177115000Y-84712500D02*
X177435000Y-84712500D01*
G75*
G02*
X177595000Y-84872500I0J-160000D01*
G01*
X177595000Y-85267500D01*
G75*
G02*
X177435000Y-85427500I-160000J0D01*
G01*
X177115000Y-85427500D01*
G75*
G02*
X176955000Y-85267500I0J160000D01*
G01*
X176955000Y-84872500D01*
G75*
G02*
X177115000Y-84712500I160000J0D01*
G01*
G37*
G36*
G01*
X177115000Y-83517500D02*
X177435000Y-83517500D01*
G75*
G02*
X177595000Y-83677500I0J-160000D01*
G01*
X177595000Y-84072500D01*
G75*
G02*
X177435000Y-84232500I-160000J0D01*
G01*
X177115000Y-84232500D01*
G75*
G02*
X176955000Y-84072500I0J160000D01*
G01*
X176955000Y-83677500D01*
G75*
G02*
X177115000Y-83517500I160000J0D01*
G01*
G37*
G36*
G01*
X176675000Y-97810000D02*
X176355000Y-97810000D01*
G75*
G02*
X176195000Y-97650000I0J160000D01*
G01*
X176195000Y-97255000D01*
G75*
G02*
X176355000Y-97095000I160000J0D01*
G01*
X176675000Y-97095000D01*
G75*
G02*
X176835000Y-97255000I0J-160000D01*
G01*
X176835000Y-97650000D01*
G75*
G02*
X176675000Y-97810000I-160000J0D01*
G01*
G37*
G36*
G01*
X176675000Y-99005000D02*
X176355000Y-99005000D01*
G75*
G02*
X176195000Y-98845000I0J160000D01*
G01*
X176195000Y-98450000D01*
G75*
G02*
X176355000Y-98290000I160000J0D01*
G01*
X176675000Y-98290000D01*
G75*
G02*
X176835000Y-98450000I0J-160000D01*
G01*
X176835000Y-98845000D01*
G75*
G02*
X176675000Y-99005000I-160000J0D01*
G01*
G37*
G36*
G01*
X171475000Y-97812500D02*
X171155000Y-97812500D01*
G75*
G02*
X170995000Y-97652500I0J160000D01*
G01*
X170995000Y-97257500D01*
G75*
G02*
X171155000Y-97097500I160000J0D01*
G01*
X171475000Y-97097500D01*
G75*
G02*
X171635000Y-97257500I0J-160000D01*
G01*
X171635000Y-97652500D01*
G75*
G02*
X171475000Y-97812500I-160000J0D01*
G01*
G37*
G36*
G01*
X171475000Y-99007500D02*
X171155000Y-99007500D01*
G75*
G02*
X170995000Y-98847500I0J160000D01*
G01*
X170995000Y-98452500D01*
G75*
G02*
X171155000Y-98292500I160000J0D01*
G01*
X171475000Y-98292500D01*
G75*
G02*
X171635000Y-98452500I0J-160000D01*
G01*
X171635000Y-98847500D01*
G75*
G02*
X171475000Y-99007500I-160000J0D01*
G01*
G37*
G36*
G01*
X176775000Y-106312500D02*
X176455000Y-106312500D01*
G75*
G02*
X176295000Y-106152500I0J160000D01*
G01*
X176295000Y-105757500D01*
G75*
G02*
X176455000Y-105597500I160000J0D01*
G01*
X176775000Y-105597500D01*
G75*
G02*
X176935000Y-105757500I0J-160000D01*
G01*
X176935000Y-106152500D01*
G75*
G02*
X176775000Y-106312500I-160000J0D01*
G01*
G37*
G36*
G01*
X176775000Y-107507500D02*
X176455000Y-107507500D01*
G75*
G02*
X176295000Y-107347500I0J160000D01*
G01*
X176295000Y-106952500D01*
G75*
G02*
X176455000Y-106792500I160000J0D01*
G01*
X176775000Y-106792500D01*
G75*
G02*
X176935000Y-106952500I0J-160000D01*
G01*
X176935000Y-107347500D01*
G75*
G02*
X176775000Y-107507500I-160000J0D01*
G01*
G37*
G36*
G01*
X171375000Y-106310000D02*
X171055000Y-106310000D01*
G75*
G02*
X170895000Y-106150000I0J160000D01*
G01*
X170895000Y-105755000D01*
G75*
G02*
X171055000Y-105595000I160000J0D01*
G01*
X171375000Y-105595000D01*
G75*
G02*
X171535000Y-105755000I0J-160000D01*
G01*
X171535000Y-106150000D01*
G75*
G02*
X171375000Y-106310000I-160000J0D01*
G01*
G37*
G36*
G01*
X171375000Y-107505000D02*
X171055000Y-107505000D01*
G75*
G02*
X170895000Y-107345000I0J160000D01*
G01*
X170895000Y-106950000D01*
G75*
G02*
X171055000Y-106790000I160000J0D01*
G01*
X171375000Y-106790000D01*
G75*
G02*
X171535000Y-106950000I0J-160000D01*
G01*
X171535000Y-107345000D01*
G75*
G02*
X171375000Y-107505000I-160000J0D01*
G01*
G37*
G36*
G01*
X186215000Y-107400000D02*
X186535000Y-107400000D01*
G75*
G02*
X186695000Y-107560000I0J-160000D01*
G01*
X186695000Y-107955000D01*
G75*
G02*
X186535000Y-108115000I-160000J0D01*
G01*
X186215000Y-108115000D01*
G75*
G02*
X186055000Y-107955000I0J160000D01*
G01*
X186055000Y-107560000D01*
G75*
G02*
X186215000Y-107400000I160000J0D01*
G01*
G37*
G36*
G01*
X186215000Y-106205000D02*
X186535000Y-106205000D01*
G75*
G02*
X186695000Y-106365000I0J-160000D01*
G01*
X186695000Y-106760000D01*
G75*
G02*
X186535000Y-106920000I-160000J0D01*
G01*
X186215000Y-106920000D01*
G75*
G02*
X186055000Y-106760000I0J160000D01*
G01*
X186055000Y-106365000D01*
G75*
G02*
X186215000Y-106205000I160000J0D01*
G01*
G37*
G36*
G01*
X181115000Y-107400000D02*
X181435000Y-107400000D01*
G75*
G02*
X181595000Y-107560000I0J-160000D01*
G01*
X181595000Y-107955000D01*
G75*
G02*
X181435000Y-108115000I-160000J0D01*
G01*
X181115000Y-108115000D01*
G75*
G02*
X180955000Y-107955000I0J160000D01*
G01*
X180955000Y-107560000D01*
G75*
G02*
X181115000Y-107400000I160000J0D01*
G01*
G37*
G36*
G01*
X181115000Y-106205000D02*
X181435000Y-106205000D01*
G75*
G02*
X181595000Y-106365000I0J-160000D01*
G01*
X181595000Y-106760000D01*
G75*
G02*
X181435000Y-106920000I-160000J0D01*
G01*
X181115000Y-106920000D01*
G75*
G02*
X180955000Y-106760000I0J160000D01*
G01*
X180955000Y-106365000D01*
G75*
G02*
X181115000Y-106205000I160000J0D01*
G01*
G37*
G36*
G01*
X186930000Y-97390000D02*
X186610000Y-97390000D01*
G75*
G02*
X186450000Y-97230000I0J160000D01*
G01*
X186450000Y-96835000D01*
G75*
G02*
X186610000Y-96675000I160000J0D01*
G01*
X186930000Y-96675000D01*
G75*
G02*
X187090000Y-96835000I0J-160000D01*
G01*
X187090000Y-97230000D01*
G75*
G02*
X186930000Y-97390000I-160000J0D01*
G01*
G37*
G36*
G01*
X186930000Y-98585000D02*
X186610000Y-98585000D01*
G75*
G02*
X186450000Y-98425000I0J160000D01*
G01*
X186450000Y-98030000D01*
G75*
G02*
X186610000Y-97870000I160000J0D01*
G01*
X186930000Y-97870000D01*
G75*
G02*
X187090000Y-98030000I0J-160000D01*
G01*
X187090000Y-98425000D01*
G75*
G02*
X186930000Y-98585000I-160000J0D01*
G01*
G37*
G36*
G01*
X181785000Y-97682500D02*
X181465000Y-97682500D01*
G75*
G02*
X181305000Y-97522500I0J160000D01*
G01*
X181305000Y-97127500D01*
G75*
G02*
X181465000Y-96967500I160000J0D01*
G01*
X181785000Y-96967500D01*
G75*
G02*
X181945000Y-97127500I0J-160000D01*
G01*
X181945000Y-97522500D01*
G75*
G02*
X181785000Y-97682500I-160000J0D01*
G01*
G37*
G36*
G01*
X181785000Y-98877500D02*
X181465000Y-98877500D01*
G75*
G02*
X181305000Y-98717500I0J160000D01*
G01*
X181305000Y-98322500D01*
G75*
G02*
X181465000Y-98162500I160000J0D01*
G01*
X181785000Y-98162500D01*
G75*
G02*
X181945000Y-98322500I0J-160000D01*
G01*
X181945000Y-98717500D01*
G75*
G02*
X181785000Y-98877500I-160000J0D01*
G01*
G37*
G36*
G01*
X171465000Y-122350000D02*
X171785000Y-122350000D01*
G75*
G02*
X171945000Y-122510000I0J-160000D01*
G01*
X171945000Y-122905000D01*
G75*
G02*
X171785000Y-123065000I-160000J0D01*
G01*
X171465000Y-123065000D01*
G75*
G02*
X171305000Y-122905000I0J160000D01*
G01*
X171305000Y-122510000D01*
G75*
G02*
X171465000Y-122350000I160000J0D01*
G01*
G37*
G36*
G01*
X171465000Y-121155000D02*
X171785000Y-121155000D01*
G75*
G02*
X171945000Y-121315000I0J-160000D01*
G01*
X171945000Y-121710000D01*
G75*
G02*
X171785000Y-121870000I-160000J0D01*
G01*
X171465000Y-121870000D01*
G75*
G02*
X171305000Y-121710000I0J160000D01*
G01*
X171305000Y-121315000D01*
G75*
G02*
X171465000Y-121155000I160000J0D01*
G01*
G37*
G36*
G01*
X177185000Y-121970000D02*
X176865000Y-121970000D01*
G75*
G02*
X176705000Y-121810000I0J160000D01*
G01*
X176705000Y-121415000D01*
G75*
G02*
X176865000Y-121255000I160000J0D01*
G01*
X177185000Y-121255000D01*
G75*
G02*
X177345000Y-121415000I0J-160000D01*
G01*
X177345000Y-121810000D01*
G75*
G02*
X177185000Y-121970000I-160000J0D01*
G01*
G37*
G36*
G01*
X177185000Y-123165000D02*
X176865000Y-123165000D01*
G75*
G02*
X176705000Y-123005000I0J160000D01*
G01*
X176705000Y-122610000D01*
G75*
G02*
X176865000Y-122450000I160000J0D01*
G01*
X177185000Y-122450000D01*
G75*
G02*
X177345000Y-122610000I0J-160000D01*
G01*
X177345000Y-123005000D01*
G75*
G02*
X177185000Y-123165000I-160000J0D01*
G01*
G37*
G36*
G01*
X171785000Y-112170000D02*
X171465000Y-112170000D01*
G75*
G02*
X171305000Y-112010000I0J160000D01*
G01*
X171305000Y-111615000D01*
G75*
G02*
X171465000Y-111455000I160000J0D01*
G01*
X171785000Y-111455000D01*
G75*
G02*
X171945000Y-111615000I0J-160000D01*
G01*
X171945000Y-112010000D01*
G75*
G02*
X171785000Y-112170000I-160000J0D01*
G01*
G37*
G36*
G01*
X171785000Y-113365000D02*
X171465000Y-113365000D01*
G75*
G02*
X171305000Y-113205000I0J160000D01*
G01*
X171305000Y-112810000D01*
G75*
G02*
X171465000Y-112650000I160000J0D01*
G01*
X171785000Y-112650000D01*
G75*
G02*
X171945000Y-112810000I0J-160000D01*
G01*
X171945000Y-113205000D01*
G75*
G02*
X171785000Y-113365000I-160000J0D01*
G01*
G37*
G36*
G01*
X176665000Y-112750000D02*
X176985000Y-112750000D01*
G75*
G02*
X177145000Y-112910000I0J-160000D01*
G01*
X177145000Y-113305000D01*
G75*
G02*
X176985000Y-113465000I-160000J0D01*
G01*
X176665000Y-113465000D01*
G75*
G02*
X176505000Y-113305000I0J160000D01*
G01*
X176505000Y-112910000D01*
G75*
G02*
X176665000Y-112750000I160000J0D01*
G01*
G37*
G36*
G01*
X176665000Y-111555000D02*
X176985000Y-111555000D01*
G75*
G02*
X177145000Y-111715000I0J-160000D01*
G01*
X177145000Y-112110000D01*
G75*
G02*
X176985000Y-112270000I-160000J0D01*
G01*
X176665000Y-112270000D01*
G75*
G02*
X176505000Y-112110000I0J160000D01*
G01*
X176505000Y-111715000D01*
G75*
G02*
X176665000Y-111555000I160000J0D01*
G01*
G37*
G36*
G01*
X185925000Y-122290000D02*
X186245000Y-122290000D01*
G75*
G02*
X186405000Y-122450000I0J-160000D01*
G01*
X186405000Y-122845000D01*
G75*
G02*
X186245000Y-123005000I-160000J0D01*
G01*
X185925000Y-123005000D01*
G75*
G02*
X185765000Y-122845000I0J160000D01*
G01*
X185765000Y-122450000D01*
G75*
G02*
X185925000Y-122290000I160000J0D01*
G01*
G37*
G36*
G01*
X185925000Y-121095000D02*
X186245000Y-121095000D01*
G75*
G02*
X186405000Y-121255000I0J-160000D01*
G01*
X186405000Y-121650000D01*
G75*
G02*
X186245000Y-121810000I-160000J0D01*
G01*
X185925000Y-121810000D01*
G75*
G02*
X185765000Y-121650000I0J160000D01*
G01*
X185765000Y-121255000D01*
G75*
G02*
X185925000Y-121095000I160000J0D01*
G01*
G37*
G36*
G01*
X180525000Y-122287500D02*
X180845000Y-122287500D01*
G75*
G02*
X181005000Y-122447500I0J-160000D01*
G01*
X181005000Y-122842500D01*
G75*
G02*
X180845000Y-123002500I-160000J0D01*
G01*
X180525000Y-123002500D01*
G75*
G02*
X180365000Y-122842500I0J160000D01*
G01*
X180365000Y-122447500D01*
G75*
G02*
X180525000Y-122287500I160000J0D01*
G01*
G37*
G36*
G01*
X180525000Y-121092500D02*
X180845000Y-121092500D01*
G75*
G02*
X181005000Y-121252500I0J-160000D01*
G01*
X181005000Y-121647500D01*
G75*
G02*
X180845000Y-121807500I-160000J0D01*
G01*
X180525000Y-121807500D01*
G75*
G02*
X180365000Y-121647500I0J160000D01*
G01*
X180365000Y-121252500D01*
G75*
G02*
X180525000Y-121092500I160000J0D01*
G01*
G37*
G36*
G01*
X186465000Y-113452500D02*
X186785000Y-113452500D01*
G75*
G02*
X186945000Y-113612500I0J-160000D01*
G01*
X186945000Y-114007500D01*
G75*
G02*
X186785000Y-114167500I-160000J0D01*
G01*
X186465000Y-114167500D01*
G75*
G02*
X186305000Y-114007500I0J160000D01*
G01*
X186305000Y-113612500D01*
G75*
G02*
X186465000Y-113452500I160000J0D01*
G01*
G37*
G36*
G01*
X186465000Y-112257500D02*
X186785000Y-112257500D01*
G75*
G02*
X186945000Y-112417500I0J-160000D01*
G01*
X186945000Y-112812500D01*
G75*
G02*
X186785000Y-112972500I-160000J0D01*
G01*
X186465000Y-112972500D01*
G75*
G02*
X186305000Y-112812500I0J160000D01*
G01*
X186305000Y-112417500D01*
G75*
G02*
X186465000Y-112257500I160000J0D01*
G01*
G37*
G36*
G01*
X180965000Y-113450000D02*
X181285000Y-113450000D01*
G75*
G02*
X181445000Y-113610000I0J-160000D01*
G01*
X181445000Y-114005000D01*
G75*
G02*
X181285000Y-114165000I-160000J0D01*
G01*
X180965000Y-114165000D01*
G75*
G02*
X180805000Y-114005000I0J160000D01*
G01*
X180805000Y-113610000D01*
G75*
G02*
X180965000Y-113450000I160000J0D01*
G01*
G37*
G36*
G01*
X180965000Y-112255000D02*
X181285000Y-112255000D01*
G75*
G02*
X181445000Y-112415000I0J-160000D01*
G01*
X181445000Y-112810000D01*
G75*
G02*
X181285000Y-112970000I-160000J0D01*
G01*
X180965000Y-112970000D01*
G75*
G02*
X180805000Y-112810000I0J160000D01*
G01*
X180805000Y-112415000D01*
G75*
G02*
X180965000Y-112255000I160000J0D01*
G01*
G37*
G36*
G01*
X146790000Y-125627500D02*
X147110000Y-125627500D01*
G75*
G02*
X147270000Y-125787500I0J-160000D01*
G01*
X147270000Y-126182500D01*
G75*
G02*
X147110000Y-126342500I-160000J0D01*
G01*
X146790000Y-126342500D01*
G75*
G02*
X146630000Y-126182500I0J160000D01*
G01*
X146630000Y-125787500D01*
G75*
G02*
X146790000Y-125627500I160000J0D01*
G01*
G37*
G36*
G01*
X146790000Y-124432500D02*
X147110000Y-124432500D01*
G75*
G02*
X147270000Y-124592500I0J-160000D01*
G01*
X147270000Y-124987500D01*
G75*
G02*
X147110000Y-125147500I-160000J0D01*
G01*
X146790000Y-125147500D01*
G75*
G02*
X146630000Y-124987500I0J160000D01*
G01*
X146630000Y-124592500D01*
G75*
G02*
X146790000Y-124432500I160000J0D01*
G01*
G37*
G36*
G01*
X152030000Y-125177500D02*
X151710000Y-125177500D01*
G75*
G02*
X151550000Y-125017500I0J160000D01*
G01*
X151550000Y-124622500D01*
G75*
G02*
X151710000Y-124462500I160000J0D01*
G01*
X152030000Y-124462500D01*
G75*
G02*
X152190000Y-124622500I0J-160000D01*
G01*
X152190000Y-125017500D01*
G75*
G02*
X152030000Y-125177500I-160000J0D01*
G01*
G37*
G36*
G01*
X152030000Y-126372500D02*
X151710000Y-126372500D01*
G75*
G02*
X151550000Y-126212500I0J160000D01*
G01*
X151550000Y-125817500D01*
G75*
G02*
X151710000Y-125657500I160000J0D01*
G01*
X152030000Y-125657500D01*
G75*
G02*
X152190000Y-125817500I0J-160000D01*
G01*
X152190000Y-126212500D01*
G75*
G02*
X152030000Y-126372500I-160000J0D01*
G01*
G37*
G36*
G01*
X143295000Y-109105000D02*
X143295000Y-109425000D01*
G75*
G02*
X143135000Y-109585000I-160000J0D01*
G01*
X142740000Y-109585000D01*
G75*
G02*
X142580000Y-109425000I0J160000D01*
G01*
X142580000Y-109105000D01*
G75*
G02*
X142740000Y-108945000I160000J0D01*
G01*
X143135000Y-108945000D01*
G75*
G02*
X143295000Y-109105000I0J-160000D01*
G01*
G37*
G36*
G01*
X144490000Y-109105000D02*
X144490000Y-109425000D01*
G75*
G02*
X144330000Y-109585000I-160000J0D01*
G01*
X143935000Y-109585000D01*
G75*
G02*
X143775000Y-109425000I0J160000D01*
G01*
X143775000Y-109105000D01*
G75*
G02*
X143935000Y-108945000I160000J0D01*
G01*
X144330000Y-108945000D01*
G75*
G02*
X144490000Y-109105000I0J-160000D01*
G01*
G37*
G36*
G01*
X164510000Y-111445000D02*
X164190000Y-111445000D01*
G75*
G02*
X164030000Y-111285000I0J160000D01*
G01*
X164030000Y-110890000D01*
G75*
G02*
X164190000Y-110730000I160000J0D01*
G01*
X164510000Y-110730000D01*
G75*
G02*
X164670000Y-110890000I0J-160000D01*
G01*
X164670000Y-111285000D01*
G75*
G02*
X164510000Y-111445000I-160000J0D01*
G01*
G37*
G36*
G01*
X164510000Y-112640000D02*
X164190000Y-112640000D01*
G75*
G02*
X164030000Y-112480000I0J160000D01*
G01*
X164030000Y-112085000D01*
G75*
G02*
X164190000Y-111925000I160000J0D01*
G01*
X164510000Y-111925000D01*
G75*
G02*
X164670000Y-112085000I0J-160000D01*
G01*
X164670000Y-112480000D01*
G75*
G02*
X164510000Y-112640000I-160000J0D01*
G01*
G37*
G36*
G01*
X153090000Y-125710000D02*
X153410000Y-125710000D01*
G75*
G02*
X153570000Y-125870000I0J-160000D01*
G01*
X153570000Y-126265000D01*
G75*
G02*
X153410000Y-126425000I-160000J0D01*
G01*
X153090000Y-126425000D01*
G75*
G02*
X152930000Y-126265000I0J160000D01*
G01*
X152930000Y-125870000D01*
G75*
G02*
X153090000Y-125710000I160000J0D01*
G01*
G37*
G36*
G01*
X153090000Y-124515000D02*
X153410000Y-124515000D01*
G75*
G02*
X153570000Y-124675000I0J-160000D01*
G01*
X153570000Y-125070000D01*
G75*
G02*
X153410000Y-125230000I-160000J0D01*
G01*
X153090000Y-125230000D01*
G75*
G02*
X152930000Y-125070000I0J160000D01*
G01*
X152930000Y-124675000D01*
G75*
G02*
X153090000Y-124515000I160000J0D01*
G01*
G37*
G36*
G01*
X164605000Y-103590000D02*
X164285000Y-103590000D01*
G75*
G02*
X164125000Y-103430000I0J160000D01*
G01*
X164125000Y-103035000D01*
G75*
G02*
X164285000Y-102875000I160000J0D01*
G01*
X164605000Y-102875000D01*
G75*
G02*
X164765000Y-103035000I0J-160000D01*
G01*
X164765000Y-103430000D01*
G75*
G02*
X164605000Y-103590000I-160000J0D01*
G01*
G37*
G36*
G01*
X164605000Y-104785000D02*
X164285000Y-104785000D01*
G75*
G02*
X164125000Y-104625000I0J160000D01*
G01*
X164125000Y-104230000D01*
G75*
G02*
X164285000Y-104070000I160000J0D01*
G01*
X164605000Y-104070000D01*
G75*
G02*
X164765000Y-104230000I0J-160000D01*
G01*
X164765000Y-104625000D01*
G75*
G02*
X164605000Y-104785000I-160000J0D01*
G01*
G37*
G36*
G01*
X164515000Y-107650000D02*
X164195000Y-107650000D01*
G75*
G02*
X164035000Y-107490000I0J160000D01*
G01*
X164035000Y-107095000D01*
G75*
G02*
X164195000Y-106935000I160000J0D01*
G01*
X164515000Y-106935000D01*
G75*
G02*
X164675000Y-107095000I0J-160000D01*
G01*
X164675000Y-107490000D01*
G75*
G02*
X164515000Y-107650000I-160000J0D01*
G01*
G37*
G36*
G01*
X164515000Y-108845000D02*
X164195000Y-108845000D01*
G75*
G02*
X164035000Y-108685000I0J160000D01*
G01*
X164035000Y-108290000D01*
G75*
G02*
X164195000Y-108130000I160000J0D01*
G01*
X164515000Y-108130000D01*
G75*
G02*
X164675000Y-108290000I0J-160000D01*
G01*
X164675000Y-108685000D01*
G75*
G02*
X164515000Y-108845000I-160000J0D01*
G01*
G37*
G36*
G01*
X157910000Y-125600000D02*
X158230000Y-125600000D01*
G75*
G02*
X158390000Y-125760000I0J-160000D01*
G01*
X158390000Y-126155000D01*
G75*
G02*
X158230000Y-126315000I-160000J0D01*
G01*
X157910000Y-126315000D01*
G75*
G02*
X157750000Y-126155000I0J160000D01*
G01*
X157750000Y-125760000D01*
G75*
G02*
X157910000Y-125600000I160000J0D01*
G01*
G37*
G36*
G01*
X157910000Y-124405000D02*
X158230000Y-124405000D01*
G75*
G02*
X158390000Y-124565000I0J-160000D01*
G01*
X158390000Y-124960000D01*
G75*
G02*
X158230000Y-125120000I-160000J0D01*
G01*
X157910000Y-125120000D01*
G75*
G02*
X157750000Y-124960000I0J160000D01*
G01*
X157750000Y-124565000D01*
G75*
G02*
X157910000Y-124405000I160000J0D01*
G01*
G37*
G36*
G01*
X196240000Y-61217500D02*
X195920000Y-61217500D01*
G75*
G02*
X195760000Y-61057500I0J160000D01*
G01*
X195760000Y-60662500D01*
G75*
G02*
X195920000Y-60502500I160000J0D01*
G01*
X196240000Y-60502500D01*
G75*
G02*
X196400000Y-60662500I0J-160000D01*
G01*
X196400000Y-61057500D01*
G75*
G02*
X196240000Y-61217500I-160000J0D01*
G01*
G37*
G36*
G01*
X196240000Y-62412500D02*
X195920000Y-62412500D01*
G75*
G02*
X195760000Y-62252500I0J160000D01*
G01*
X195760000Y-61857500D01*
G75*
G02*
X195920000Y-61697500I160000J0D01*
G01*
X196240000Y-61697500D01*
G75*
G02*
X196400000Y-61857500I0J-160000D01*
G01*
X196400000Y-62252500D01*
G75*
G02*
X196240000Y-62412500I-160000J0D01*
G01*
G37*
G36*
G01*
X196020000Y-57100000D02*
X196340000Y-57100000D01*
G75*
G02*
X196500000Y-57260000I0J-160000D01*
G01*
X196500000Y-57655000D01*
G75*
G02*
X196340000Y-57815000I-160000J0D01*
G01*
X196020000Y-57815000D01*
G75*
G02*
X195860000Y-57655000I0J160000D01*
G01*
X195860000Y-57260000D01*
G75*
G02*
X196020000Y-57100000I160000J0D01*
G01*
G37*
G36*
G01*
X196020000Y-55905000D02*
X196340000Y-55905000D01*
G75*
G02*
X196500000Y-56065000I0J-160000D01*
G01*
X196500000Y-56460000D01*
G75*
G02*
X196340000Y-56620000I-160000J0D01*
G01*
X196020000Y-56620000D01*
G75*
G02*
X195860000Y-56460000I0J160000D01*
G01*
X195860000Y-56065000D01*
G75*
G02*
X196020000Y-55905000I160000J0D01*
G01*
G37*
G36*
G01*
X202647500Y-53922500D02*
X202647500Y-54397500D01*
G75*
G02*
X202410000Y-54635000I-237500J0D01*
G01*
X201910000Y-54635000D01*
G75*
G02*
X201672500Y-54397500I0J237500D01*
G01*
X201672500Y-53922500D01*
G75*
G02*
X201910000Y-53685000I237500J0D01*
G01*
X202410000Y-53685000D01*
G75*
G02*
X202647500Y-53922500I0J-237500D01*
G01*
G37*
G36*
G01*
X204472500Y-53922500D02*
X204472500Y-54397500D01*
G75*
G02*
X204235000Y-54635000I-237500J0D01*
G01*
X203735000Y-54635000D01*
G75*
G02*
X203497500Y-54397500I0J237500D01*
G01*
X203497500Y-53922500D01*
G75*
G02*
X203735000Y-53685000I237500J0D01*
G01*
X204235000Y-53685000D01*
G75*
G02*
X204472500Y-53922500I0J-237500D01*
G01*
G37*
G36*
G01*
X199035000Y-53922500D02*
X199035000Y-54397500D01*
G75*
G02*
X198797500Y-54635000I-237500J0D01*
G01*
X198297500Y-54635000D01*
G75*
G02*
X198060000Y-54397500I0J237500D01*
G01*
X198060000Y-53922500D01*
G75*
G02*
X198297500Y-53685000I237500J0D01*
G01*
X198797500Y-53685000D01*
G75*
G02*
X199035000Y-53922500I0J-237500D01*
G01*
G37*
G36*
G01*
X200860000Y-53922500D02*
X200860000Y-54397500D01*
G75*
G02*
X200622500Y-54635000I-237500J0D01*
G01*
X200122500Y-54635000D01*
G75*
G02*
X199885000Y-54397500I0J237500D01*
G01*
X199885000Y-53922500D01*
G75*
G02*
X200122500Y-53685000I237500J0D01*
G01*
X200622500Y-53685000D01*
G75*
G02*
X200860000Y-53922500I0J-237500D01*
G01*
G37*
G36*
G01*
X186190000Y-71520000D02*
X186190000Y-71200000D01*
G75*
G02*
X186350000Y-71040000I160000J0D01*
G01*
X186745000Y-71040000D01*
G75*
G02*
X186905000Y-71200000I0J-160000D01*
G01*
X186905000Y-71520000D01*
G75*
G02*
X186745000Y-71680000I-160000J0D01*
G01*
X186350000Y-71680000D01*
G75*
G02*
X186190000Y-71520000I0J160000D01*
G01*
G37*
G36*
G01*
X184995000Y-71520000D02*
X184995000Y-71200000D01*
G75*
G02*
X185155000Y-71040000I160000J0D01*
G01*
X185550000Y-71040000D01*
G75*
G02*
X185710000Y-71200000I0J-160000D01*
G01*
X185710000Y-71520000D01*
G75*
G02*
X185550000Y-71680000I-160000J0D01*
G01*
X185155000Y-71680000D01*
G75*
G02*
X184995000Y-71520000I0J160000D01*
G01*
G37*
G36*
G01*
X182937500Y-71495000D02*
X182937500Y-71175000D01*
G75*
G02*
X183097500Y-71015000I160000J0D01*
G01*
X183492500Y-71015000D01*
G75*
G02*
X183652500Y-71175000I0J-160000D01*
G01*
X183652500Y-71495000D01*
G75*
G02*
X183492500Y-71655000I-160000J0D01*
G01*
X183097500Y-71655000D01*
G75*
G02*
X182937500Y-71495000I0J160000D01*
G01*
G37*
G36*
G01*
X181742500Y-71495000D02*
X181742500Y-71175000D01*
G75*
G02*
X181902500Y-71015000I160000J0D01*
G01*
X182297500Y-71015000D01*
G75*
G02*
X182457500Y-71175000I0J-160000D01*
G01*
X182457500Y-71495000D01*
G75*
G02*
X182297500Y-71655000I-160000J0D01*
G01*
X181902500Y-71655000D01*
G75*
G02*
X181742500Y-71495000I0J160000D01*
G01*
G37*
G36*
G01*
X180840000Y-73625000D02*
X181160000Y-73625000D01*
G75*
G02*
X181320000Y-73785000I0J-160000D01*
G01*
X181320000Y-74180000D01*
G75*
G02*
X181160000Y-74340000I-160000J0D01*
G01*
X180840000Y-74340000D01*
G75*
G02*
X180680000Y-74180000I0J160000D01*
G01*
X180680000Y-73785000D01*
G75*
G02*
X180840000Y-73625000I160000J0D01*
G01*
G37*
G36*
G01*
X180840000Y-72430000D02*
X181160000Y-72430000D01*
G75*
G02*
X181320000Y-72590000I0J-160000D01*
G01*
X181320000Y-72985000D01*
G75*
G02*
X181160000Y-73145000I-160000J0D01*
G01*
X180840000Y-73145000D01*
G75*
G02*
X180680000Y-72985000I0J160000D01*
G01*
X180680000Y-72590000D01*
G75*
G02*
X180840000Y-72430000I160000J0D01*
G01*
G37*
G36*
G01*
X184960000Y-82290000D02*
X184960000Y-81970000D01*
G75*
G02*
X185120000Y-81810000I160000J0D01*
G01*
X185515000Y-81810000D01*
G75*
G02*
X185675000Y-81970000I0J-160000D01*
G01*
X185675000Y-82290000D01*
G75*
G02*
X185515000Y-82450000I-160000J0D01*
G01*
X185120000Y-82450000D01*
G75*
G02*
X184960000Y-82290000I0J160000D01*
G01*
G37*
G36*
G01*
X183765000Y-82290000D02*
X183765000Y-81970000D01*
G75*
G02*
X183925000Y-81810000I160000J0D01*
G01*
X184320000Y-81810000D01*
G75*
G02*
X184480000Y-81970000I0J-160000D01*
G01*
X184480000Y-82290000D01*
G75*
G02*
X184320000Y-82450000I-160000J0D01*
G01*
X183925000Y-82450000D01*
G75*
G02*
X183765000Y-82290000I0J160000D01*
G01*
G37*
G36*
G01*
X164660000Y-93780000D02*
X164660000Y-93460000D01*
G75*
G02*
X164820000Y-93300000I160000J0D01*
G01*
X165215000Y-93300000D01*
G75*
G02*
X165375000Y-93460000I0J-160000D01*
G01*
X165375000Y-93780000D01*
G75*
G02*
X165215000Y-93940000I-160000J0D01*
G01*
X164820000Y-93940000D01*
G75*
G02*
X164660000Y-93780000I0J160000D01*
G01*
G37*
G36*
G01*
X163465000Y-93780000D02*
X163465000Y-93460000D01*
G75*
G02*
X163625000Y-93300000I160000J0D01*
G01*
X164020000Y-93300000D01*
G75*
G02*
X164180000Y-93460000I0J-160000D01*
G01*
X164180000Y-93780000D01*
G75*
G02*
X164020000Y-93940000I-160000J0D01*
G01*
X163625000Y-93940000D01*
G75*
G02*
X163465000Y-93780000I0J160000D01*
G01*
G37*
G36*
G01*
X164442500Y-99210000D02*
X164442500Y-99530000D01*
G75*
G02*
X164282500Y-99690000I-160000J0D01*
G01*
X163887500Y-99690000D01*
G75*
G02*
X163727500Y-99530000I0J160000D01*
G01*
X163727500Y-99210000D01*
G75*
G02*
X163887500Y-99050000I160000J0D01*
G01*
X164282500Y-99050000D01*
G75*
G02*
X164442500Y-99210000I0J-160000D01*
G01*
G37*
G36*
G01*
X165637500Y-99210000D02*
X165637500Y-99530000D01*
G75*
G02*
X165477500Y-99690000I-160000J0D01*
G01*
X165082500Y-99690000D01*
G75*
G02*
X164922500Y-99530000I0J160000D01*
G01*
X164922500Y-99210000D01*
G75*
G02*
X165082500Y-99050000I160000J0D01*
G01*
X165477500Y-99050000D01*
G75*
G02*
X165637500Y-99210000I0J-160000D01*
G01*
G37*
G36*
G01*
X157162500Y-91315000D02*
X157162500Y-90995000D01*
G75*
G02*
X157322500Y-90835000I160000J0D01*
G01*
X157717500Y-90835000D01*
G75*
G02*
X157877500Y-90995000I0J-160000D01*
G01*
X157877500Y-91315000D01*
G75*
G02*
X157717500Y-91475000I-160000J0D01*
G01*
X157322500Y-91475000D01*
G75*
G02*
X157162500Y-91315000I0J160000D01*
G01*
G37*
G36*
G01*
X155967500Y-91315000D02*
X155967500Y-90995000D01*
G75*
G02*
X156127500Y-90835000I160000J0D01*
G01*
X156522500Y-90835000D01*
G75*
G02*
X156682500Y-90995000I0J-160000D01*
G01*
X156682500Y-91315000D01*
G75*
G02*
X156522500Y-91475000I-160000J0D01*
G01*
X156127500Y-91475000D01*
G75*
G02*
X155967500Y-91315000I0J160000D01*
G01*
G37*
G36*
G01*
X168527500Y-75050000D02*
X169002500Y-75050000D01*
G75*
G02*
X169240000Y-75287500I0J-237500D01*
G01*
X169240000Y-75787500D01*
G75*
G02*
X169002500Y-76025000I-237500J0D01*
G01*
X168527500Y-76025000D01*
G75*
G02*
X168290000Y-75787500I0J237500D01*
G01*
X168290000Y-75287500D01*
G75*
G02*
X168527500Y-75050000I237500J0D01*
G01*
G37*
G36*
G01*
X168527500Y-73225000D02*
X169002500Y-73225000D01*
G75*
G02*
X169240000Y-73462500I0J-237500D01*
G01*
X169240000Y-73962500D01*
G75*
G02*
X169002500Y-74200000I-237500J0D01*
G01*
X168527500Y-74200000D01*
G75*
G02*
X168290000Y-73962500I0J237500D01*
G01*
X168290000Y-73462500D01*
G75*
G02*
X168527500Y-73225000I237500J0D01*
G01*
G37*
G36*
G01*
X166777500Y-75075000D02*
X167252500Y-75075000D01*
G75*
G02*
X167490000Y-75312500I0J-237500D01*
G01*
X167490000Y-75812500D01*
G75*
G02*
X167252500Y-76050000I-237500J0D01*
G01*
X166777500Y-76050000D01*
G75*
G02*
X166540000Y-75812500I0J237500D01*
G01*
X166540000Y-75312500D01*
G75*
G02*
X166777500Y-75075000I237500J0D01*
G01*
G37*
G36*
G01*
X166777500Y-73250000D02*
X167252500Y-73250000D01*
G75*
G02*
X167490000Y-73487500I0J-237500D01*
G01*
X167490000Y-73987500D01*
G75*
G02*
X167252500Y-74225000I-237500J0D01*
G01*
X166777500Y-74225000D01*
G75*
G02*
X166540000Y-73987500I0J237500D01*
G01*
X166540000Y-73487500D01*
G75*
G02*
X166777500Y-73250000I237500J0D01*
G01*
G37*
G36*
G01*
X170765000Y-89687500D02*
X170765000Y-90162500D01*
G75*
G02*
X170527500Y-90400000I-237500J0D01*
G01*
X170027500Y-90400000D01*
G75*
G02*
X169790000Y-90162500I0J237500D01*
G01*
X169790000Y-89687500D01*
G75*
G02*
X170027500Y-89450000I237500J0D01*
G01*
X170527500Y-89450000D01*
G75*
G02*
X170765000Y-89687500I0J-237500D01*
G01*
G37*
G36*
G01*
X172590000Y-89687500D02*
X172590000Y-90162500D01*
G75*
G02*
X172352500Y-90400000I-237500J0D01*
G01*
X171852500Y-90400000D01*
G75*
G02*
X171615000Y-90162500I0J237500D01*
G01*
X171615000Y-89687500D01*
G75*
G02*
X171852500Y-89450000I237500J0D01*
G01*
X172352500Y-89450000D01*
G75*
G02*
X172590000Y-89687500I0J-237500D01*
G01*
G37*
G36*
G01*
X167865000Y-90187500D02*
X167865000Y-89712500D01*
G75*
G02*
X168102500Y-89475000I237500J0D01*
G01*
X168602500Y-89475000D01*
G75*
G02*
X168840000Y-89712500I0J-237500D01*
G01*
X168840000Y-90187500D01*
G75*
G02*
X168602500Y-90425000I-237500J0D01*
G01*
X168102500Y-90425000D01*
G75*
G02*
X167865000Y-90187500I0J237500D01*
G01*
G37*
G36*
G01*
X166040000Y-90187500D02*
X166040000Y-89712500D01*
G75*
G02*
X166277500Y-89475000I237500J0D01*
G01*
X166777500Y-89475000D01*
G75*
G02*
X167015000Y-89712500I0J-237500D01*
G01*
X167015000Y-90187500D01*
G75*
G02*
X166777500Y-90425000I-237500J0D01*
G01*
X166277500Y-90425000D01*
G75*
G02*
X166040000Y-90187500I0J237500D01*
G01*
G37*
G36*
G01*
X97260000Y-97220000D02*
X97260000Y-97540000D01*
G75*
G02*
X97100000Y-97700000I-160000J0D01*
G01*
X96705000Y-97700000D01*
G75*
G02*
X96545000Y-97540000I0J160000D01*
G01*
X96545000Y-97220000D01*
G75*
G02*
X96705000Y-97060000I160000J0D01*
G01*
X97100000Y-97060000D01*
G75*
G02*
X97260000Y-97220000I0J-160000D01*
G01*
G37*
G36*
G01*
X98455000Y-97220000D02*
X98455000Y-97540000D01*
G75*
G02*
X98295000Y-97700000I-160000J0D01*
G01*
X97900000Y-97700000D01*
G75*
G02*
X97740000Y-97540000I0J160000D01*
G01*
X97740000Y-97220000D01*
G75*
G02*
X97900000Y-97060000I160000J0D01*
G01*
X98295000Y-97060000D01*
G75*
G02*
X98455000Y-97220000I0J-160000D01*
G01*
G37*
G36*
G01*
X103325000Y-92707500D02*
X103325000Y-92232500D01*
G75*
G02*
X103562500Y-91995000I237500J0D01*
G01*
X104062500Y-91995000D01*
G75*
G02*
X104300000Y-92232500I0J-237500D01*
G01*
X104300000Y-92707500D01*
G75*
G02*
X104062500Y-92945000I-237500J0D01*
G01*
X103562500Y-92945000D01*
G75*
G02*
X103325000Y-92707500I0J237500D01*
G01*
G37*
G36*
G01*
X101500000Y-92707500D02*
X101500000Y-92232500D01*
G75*
G02*
X101737500Y-91995000I237500J0D01*
G01*
X102237500Y-91995000D01*
G75*
G02*
X102475000Y-92232500I0J-237500D01*
G01*
X102475000Y-92707500D01*
G75*
G02*
X102237500Y-92945000I-237500J0D01*
G01*
X101737500Y-92945000D01*
G75*
G02*
X101500000Y-92707500I0J237500D01*
G01*
G37*
G36*
G01*
X99455000Y-92697500D02*
X99455000Y-92222500D01*
G75*
G02*
X99692500Y-91985000I237500J0D01*
G01*
X100192500Y-91985000D01*
G75*
G02*
X100430000Y-92222500I0J-237500D01*
G01*
X100430000Y-92697500D01*
G75*
G02*
X100192500Y-92935000I-237500J0D01*
G01*
X99692500Y-92935000D01*
G75*
G02*
X99455000Y-92697500I0J237500D01*
G01*
G37*
G36*
G01*
X97630000Y-92697500D02*
X97630000Y-92222500D01*
G75*
G02*
X97867500Y-91985000I237500J0D01*
G01*
X98367500Y-91985000D01*
G75*
G02*
X98605000Y-92222500I0J-237500D01*
G01*
X98605000Y-92697500D01*
G75*
G02*
X98367500Y-92935000I-237500J0D01*
G01*
X97867500Y-92935000D01*
G75*
G02*
X97630000Y-92697500I0J237500D01*
G01*
G37*
G36*
G01*
X95487500Y-92727500D02*
X95487500Y-92252500D01*
G75*
G02*
X95725000Y-92015000I237500J0D01*
G01*
X96225000Y-92015000D01*
G75*
G02*
X96462500Y-92252500I0J-237500D01*
G01*
X96462500Y-92727500D01*
G75*
G02*
X96225000Y-92965000I-237500J0D01*
G01*
X95725000Y-92965000D01*
G75*
G02*
X95487500Y-92727500I0J237500D01*
G01*
G37*
G36*
G01*
X93662500Y-92727500D02*
X93662500Y-92252500D01*
G75*
G02*
X93900000Y-92015000I237500J0D01*
G01*
X94400000Y-92015000D01*
G75*
G02*
X94637500Y-92252500I0J-237500D01*
G01*
X94637500Y-92727500D01*
G75*
G02*
X94400000Y-92965000I-237500J0D01*
G01*
X93900000Y-92965000D01*
G75*
G02*
X93662500Y-92727500I0J237500D01*
G01*
G37*
G36*
G01*
X90795000Y-92252500D02*
X90795000Y-92727500D01*
G75*
G02*
X90557500Y-92965000I-237500J0D01*
G01*
X90057500Y-92965000D01*
G75*
G02*
X89820000Y-92727500I0J237500D01*
G01*
X89820000Y-92252500D01*
G75*
G02*
X90057500Y-92015000I237500J0D01*
G01*
X90557500Y-92015000D01*
G75*
G02*
X90795000Y-92252500I0J-237500D01*
G01*
G37*
G36*
G01*
X92620000Y-92252500D02*
X92620000Y-92727500D01*
G75*
G02*
X92382500Y-92965000I-237500J0D01*
G01*
X91882500Y-92965000D01*
G75*
G02*
X91645000Y-92727500I0J237500D01*
G01*
X91645000Y-92252500D01*
G75*
G02*
X91882500Y-92015000I237500J0D01*
G01*
X92382500Y-92015000D01*
G75*
G02*
X92620000Y-92252500I0J-237500D01*
G01*
G37*
G36*
G01*
X97740000Y-96340000D02*
X97740000Y-96020000D01*
G75*
G02*
X97900000Y-95860000I160000J0D01*
G01*
X98295000Y-95860000D01*
G75*
G02*
X98455000Y-96020000I0J-160000D01*
G01*
X98455000Y-96340000D01*
G75*
G02*
X98295000Y-96500000I-160000J0D01*
G01*
X97900000Y-96500000D01*
G75*
G02*
X97740000Y-96340000I0J160000D01*
G01*
G37*
G36*
G01*
X96545000Y-96340000D02*
X96545000Y-96020000D01*
G75*
G02*
X96705000Y-95860000I160000J0D01*
G01*
X97100000Y-95860000D01*
G75*
G02*
X97260000Y-96020000I0J-160000D01*
G01*
X97260000Y-96340000D01*
G75*
G02*
X97100000Y-96500000I-160000J0D01*
G01*
X96705000Y-96500000D01*
G75*
G02*
X96545000Y-96340000I0J160000D01*
G01*
G37*
G36*
G01*
X92307500Y-127310000D02*
X92307500Y-127630000D01*
G75*
G02*
X92147500Y-127790000I-160000J0D01*
G01*
X91752500Y-127790000D01*
G75*
G02*
X91592500Y-127630000I0J160000D01*
G01*
X91592500Y-127310000D01*
G75*
G02*
X91752500Y-127150000I160000J0D01*
G01*
X92147500Y-127150000D01*
G75*
G02*
X92307500Y-127310000I0J-160000D01*
G01*
G37*
G36*
G01*
X93502500Y-127310000D02*
X93502500Y-127630000D01*
G75*
G02*
X93342500Y-127790000I-160000J0D01*
G01*
X92947500Y-127790000D01*
G75*
G02*
X92787500Y-127630000I0J160000D01*
G01*
X92787500Y-127310000D01*
G75*
G02*
X92947500Y-127150000I160000J0D01*
G01*
X93342500Y-127150000D01*
G75*
G02*
X93502500Y-127310000I0J-160000D01*
G01*
G37*
G36*
G01*
X193332500Y-52695000D02*
X193807500Y-52695000D01*
G75*
G02*
X194045000Y-52932500I0J-237500D01*
G01*
X194045000Y-53432500D01*
G75*
G02*
X193807500Y-53670000I-237500J0D01*
G01*
X193332500Y-53670000D01*
G75*
G02*
X193095000Y-53432500I0J237500D01*
G01*
X193095000Y-52932500D01*
G75*
G02*
X193332500Y-52695000I237500J0D01*
G01*
G37*
G36*
G01*
X193332500Y-50870000D02*
X193807500Y-50870000D01*
G75*
G02*
X194045000Y-51107500I0J-237500D01*
G01*
X194045000Y-51607500D01*
G75*
G02*
X193807500Y-51845000I-237500J0D01*
G01*
X193332500Y-51845000D01*
G75*
G02*
X193095000Y-51607500I0J237500D01*
G01*
X193095000Y-51107500D01*
G75*
G02*
X193332500Y-50870000I237500J0D01*
G01*
G37*
G36*
G01*
X190650000Y-59550000D02*
X190970000Y-59550000D01*
G75*
G02*
X191130000Y-59710000I0J-160000D01*
G01*
X191130000Y-60105000D01*
G75*
G02*
X190970000Y-60265000I-160000J0D01*
G01*
X190650000Y-60265000D01*
G75*
G02*
X190490000Y-60105000I0J160000D01*
G01*
X190490000Y-59710000D01*
G75*
G02*
X190650000Y-59550000I160000J0D01*
G01*
G37*
G36*
G01*
X190650000Y-58355000D02*
X190970000Y-58355000D01*
G75*
G02*
X191130000Y-58515000I0J-160000D01*
G01*
X191130000Y-58910000D01*
G75*
G02*
X190970000Y-59070000I-160000J0D01*
G01*
X190650000Y-59070000D01*
G75*
G02*
X190490000Y-58910000I0J160000D01*
G01*
X190490000Y-58515000D01*
G75*
G02*
X190650000Y-58355000I160000J0D01*
G01*
G37*
G36*
G01*
X190650000Y-56850000D02*
X190970000Y-56850000D01*
G75*
G02*
X191130000Y-57010000I0J-160000D01*
G01*
X191130000Y-57405000D01*
G75*
G02*
X190970000Y-57565000I-160000J0D01*
G01*
X190650000Y-57565000D01*
G75*
G02*
X190490000Y-57405000I0J160000D01*
G01*
X190490000Y-57010000D01*
G75*
G02*
X190650000Y-56850000I160000J0D01*
G01*
G37*
G36*
G01*
X190650000Y-55655000D02*
X190970000Y-55655000D01*
G75*
G02*
X191130000Y-55815000I0J-160000D01*
G01*
X191130000Y-56210000D01*
G75*
G02*
X190970000Y-56370000I-160000J0D01*
G01*
X190650000Y-56370000D01*
G75*
G02*
X190490000Y-56210000I0J160000D01*
G01*
X190490000Y-55815000D01*
G75*
G02*
X190650000Y-55655000I160000J0D01*
G01*
G37*
G36*
G01*
X177560000Y-57140000D02*
X177240000Y-57140000D01*
G75*
G02*
X177080000Y-56980000I0J160000D01*
G01*
X177080000Y-56585000D01*
G75*
G02*
X177240000Y-56425000I160000J0D01*
G01*
X177560000Y-56425000D01*
G75*
G02*
X177720000Y-56585000I0J-160000D01*
G01*
X177720000Y-56980000D01*
G75*
G02*
X177560000Y-57140000I-160000J0D01*
G01*
G37*
G36*
G01*
X177560000Y-58335000D02*
X177240000Y-58335000D01*
G75*
G02*
X177080000Y-58175000I0J160000D01*
G01*
X177080000Y-57780000D01*
G75*
G02*
X177240000Y-57620000I160000J0D01*
G01*
X177560000Y-57620000D01*
G75*
G02*
X177720000Y-57780000I0J-160000D01*
G01*
X177720000Y-58175000D01*
G75*
G02*
X177560000Y-58335000I-160000J0D01*
G01*
G37*
G36*
G01*
X138680000Y-97190000D02*
X139000000Y-97190000D01*
G75*
G02*
X139160000Y-97350000I0J-160000D01*
G01*
X139160000Y-97745000D01*
G75*
G02*
X139000000Y-97905000I-160000J0D01*
G01*
X138680000Y-97905000D01*
G75*
G02*
X138520000Y-97745000I0J160000D01*
G01*
X138520000Y-97350000D01*
G75*
G02*
X138680000Y-97190000I160000J0D01*
G01*
G37*
G36*
G01*
X138680000Y-95995000D02*
X139000000Y-95995000D01*
G75*
G02*
X139160000Y-96155000I0J-160000D01*
G01*
X139160000Y-96550000D01*
G75*
G02*
X139000000Y-96710000I-160000J0D01*
G01*
X138680000Y-96710000D01*
G75*
G02*
X138520000Y-96550000I0J160000D01*
G01*
X138520000Y-96155000D01*
G75*
G02*
X138680000Y-95995000I160000J0D01*
G01*
G37*
G36*
G01*
X139000000Y-99407500D02*
X138680000Y-99407500D01*
G75*
G02*
X138520000Y-99247500I0J160000D01*
G01*
X138520000Y-98852500D01*
G75*
G02*
X138680000Y-98692500I160000J0D01*
G01*
X139000000Y-98692500D01*
G75*
G02*
X139160000Y-98852500I0J-160000D01*
G01*
X139160000Y-99247500D01*
G75*
G02*
X139000000Y-99407500I-160000J0D01*
G01*
G37*
G36*
G01*
X139000000Y-100602500D02*
X138680000Y-100602500D01*
G75*
G02*
X138520000Y-100442500I0J160000D01*
G01*
X138520000Y-100047500D01*
G75*
G02*
X138680000Y-99887500I160000J0D01*
G01*
X139000000Y-99887500D01*
G75*
G02*
X139160000Y-100047500I0J-160000D01*
G01*
X139160000Y-100442500D01*
G75*
G02*
X139000000Y-100602500I-160000J0D01*
G01*
G37*
G36*
G01*
X207215000Y-128492500D02*
X207215000Y-128967500D01*
G75*
G02*
X206977500Y-129205000I-237500J0D01*
G01*
X206477500Y-129205000D01*
G75*
G02*
X206240000Y-128967500I0J237500D01*
G01*
X206240000Y-128492500D01*
G75*
G02*
X206477500Y-128255000I237500J0D01*
G01*
X206977500Y-128255000D01*
G75*
G02*
X207215000Y-128492500I0J-237500D01*
G01*
G37*
G36*
G01*
X209040000Y-128492500D02*
X209040000Y-128967500D01*
G75*
G02*
X208802500Y-129205000I-237500J0D01*
G01*
X208302500Y-129205000D01*
G75*
G02*
X208065000Y-128967500I0J237500D01*
G01*
X208065000Y-128492500D01*
G75*
G02*
X208302500Y-128255000I237500J0D01*
G01*
X208802500Y-128255000D01*
G75*
G02*
X209040000Y-128492500I0J-237500D01*
G01*
G37*
G36*
G01*
X137730000Y-103650000D02*
X137730000Y-103330000D01*
G75*
G02*
X137890000Y-103170000I160000J0D01*
G01*
X138285000Y-103170000D01*
G75*
G02*
X138445000Y-103330000I0J-160000D01*
G01*
X138445000Y-103650000D01*
G75*
G02*
X138285000Y-103810000I-160000J0D01*
G01*
X137890000Y-103810000D01*
G75*
G02*
X137730000Y-103650000I0J160000D01*
G01*
G37*
G36*
G01*
X136535000Y-103650000D02*
X136535000Y-103330000D01*
G75*
G02*
X136695000Y-103170000I160000J0D01*
G01*
X137090000Y-103170000D01*
G75*
G02*
X137250000Y-103330000I0J-160000D01*
G01*
X137250000Y-103650000D01*
G75*
G02*
X137090000Y-103810000I-160000J0D01*
G01*
X136695000Y-103810000D01*
G75*
G02*
X136535000Y-103650000I0J160000D01*
G01*
G37*
G36*
G01*
X137505000Y-105402500D02*
X137505000Y-104927500D01*
G75*
G02*
X137742500Y-104690000I237500J0D01*
G01*
X138242500Y-104690000D01*
G75*
G02*
X138480000Y-104927500I0J-237500D01*
G01*
X138480000Y-105402500D01*
G75*
G02*
X138242500Y-105640000I-237500J0D01*
G01*
X137742500Y-105640000D01*
G75*
G02*
X137505000Y-105402500I0J237500D01*
G01*
G37*
G36*
G01*
X135680000Y-105402500D02*
X135680000Y-104927500D01*
G75*
G02*
X135917500Y-104690000I237500J0D01*
G01*
X136417500Y-104690000D01*
G75*
G02*
X136655000Y-104927500I0J-237500D01*
G01*
X136655000Y-105402500D01*
G75*
G02*
X136417500Y-105640000I-237500J0D01*
G01*
X135917500Y-105640000D01*
G75*
G02*
X135680000Y-105402500I0J237500D01*
G01*
G37*
G36*
G01*
X153352500Y-96025000D02*
X153827500Y-96025000D01*
G75*
G02*
X154065000Y-96262500I0J-237500D01*
G01*
X154065000Y-96762500D01*
G75*
G02*
X153827500Y-97000000I-237500J0D01*
G01*
X153352500Y-97000000D01*
G75*
G02*
X153115000Y-96762500I0J237500D01*
G01*
X153115000Y-96262500D01*
G75*
G02*
X153352500Y-96025000I237500J0D01*
G01*
G37*
G36*
G01*
X153352500Y-94200000D02*
X153827500Y-94200000D01*
G75*
G02*
X154065000Y-94437500I0J-237500D01*
G01*
X154065000Y-94937500D01*
G75*
G02*
X153827500Y-95175000I-237500J0D01*
G01*
X153352500Y-95175000D01*
G75*
G02*
X153115000Y-94937500I0J237500D01*
G01*
X153115000Y-94437500D01*
G75*
G02*
X153352500Y-94200000I237500J0D01*
G01*
G37*
G36*
G01*
X153352500Y-99712500D02*
X153827500Y-99712500D01*
G75*
G02*
X154065000Y-99950000I0J-237500D01*
G01*
X154065000Y-100450000D01*
G75*
G02*
X153827500Y-100687500I-237500J0D01*
G01*
X153352500Y-100687500D01*
G75*
G02*
X153115000Y-100450000I0J237500D01*
G01*
X153115000Y-99950000D01*
G75*
G02*
X153352500Y-99712500I237500J0D01*
G01*
G37*
G36*
G01*
X153352500Y-97887500D02*
X153827500Y-97887500D01*
G75*
G02*
X154065000Y-98125000I0J-237500D01*
G01*
X154065000Y-98625000D01*
G75*
G02*
X153827500Y-98862500I-237500J0D01*
G01*
X153352500Y-98862500D01*
G75*
G02*
X153115000Y-98625000I0J237500D01*
G01*
X153115000Y-98125000D01*
G75*
G02*
X153352500Y-97887500I237500J0D01*
G01*
G37*
G36*
G01*
X181875000Y-87115000D02*
X181875000Y-86815000D01*
G75*
G02*
X182025000Y-86665000I150000J0D01*
G01*
X183375000Y-86665000D01*
G75*
G02*
X183525000Y-86815000I0J-150000D01*
G01*
X183525000Y-87115000D01*
G75*
G02*
X183375000Y-87265000I-150000J0D01*
G01*
X182025000Y-87265000D01*
G75*
G02*
X181875000Y-87115000I0J150000D01*
G01*
G37*
G36*
G01*
X181875000Y-88385000D02*
X181875000Y-88085000D01*
G75*
G02*
X182025000Y-87935000I150000J0D01*
G01*
X183375000Y-87935000D01*
G75*
G02*
X183525000Y-88085000I0J-150000D01*
G01*
X183525000Y-88385000D01*
G75*
G02*
X183375000Y-88535000I-150000J0D01*
G01*
X182025000Y-88535000D01*
G75*
G02*
X181875000Y-88385000I0J150000D01*
G01*
G37*
G36*
G01*
X181875000Y-89655000D02*
X181875000Y-89355000D01*
G75*
G02*
X182025000Y-89205000I150000J0D01*
G01*
X183375000Y-89205000D01*
G75*
G02*
X183525000Y-89355000I0J-150000D01*
G01*
X183525000Y-89655000D01*
G75*
G02*
X183375000Y-89805000I-150000J0D01*
G01*
X182025000Y-89805000D01*
G75*
G02*
X181875000Y-89655000I0J150000D01*
G01*
G37*
G36*
G01*
X181875000Y-90925000D02*
X181875000Y-90625000D01*
G75*
G02*
X182025000Y-90475000I150000J0D01*
G01*
X183375000Y-90475000D01*
G75*
G02*
X183525000Y-90625000I0J-150000D01*
G01*
X183525000Y-90925000D01*
G75*
G02*
X183375000Y-91075000I-150000J0D01*
G01*
X182025000Y-91075000D01*
G75*
G02*
X181875000Y-90925000I0J150000D01*
G01*
G37*
G36*
G01*
X176625000Y-90925000D02*
X176625000Y-90625000D01*
G75*
G02*
X176775000Y-90475000I150000J0D01*
G01*
X178125000Y-90475000D01*
G75*
G02*
X178275000Y-90625000I0J-150000D01*
G01*
X178275000Y-90925000D01*
G75*
G02*
X178125000Y-91075000I-150000J0D01*
G01*
X176775000Y-91075000D01*
G75*
G02*
X176625000Y-90925000I0J150000D01*
G01*
G37*
G36*
G01*
X176625000Y-89655000D02*
X176625000Y-89355000D01*
G75*
G02*
X176775000Y-89205000I150000J0D01*
G01*
X178125000Y-89205000D01*
G75*
G02*
X178275000Y-89355000I0J-150000D01*
G01*
X178275000Y-89655000D01*
G75*
G02*
X178125000Y-89805000I-150000J0D01*
G01*
X176775000Y-89805000D01*
G75*
G02*
X176625000Y-89655000I0J150000D01*
G01*
G37*
G36*
G01*
X176625000Y-88385000D02*
X176625000Y-88085000D01*
G75*
G02*
X176775000Y-87935000I150000J0D01*
G01*
X178125000Y-87935000D01*
G75*
G02*
X178275000Y-88085000I0J-150000D01*
G01*
X178275000Y-88385000D01*
G75*
G02*
X178125000Y-88535000I-150000J0D01*
G01*
X176775000Y-88535000D01*
G75*
G02*
X176625000Y-88385000I0J150000D01*
G01*
G37*
G36*
G01*
X176625000Y-87115000D02*
X176625000Y-86815000D01*
G75*
G02*
X176775000Y-86665000I150000J0D01*
G01*
X178125000Y-86665000D01*
G75*
G02*
X178275000Y-86815000I0J-150000D01*
G01*
X178275000Y-87115000D01*
G75*
G02*
X178125000Y-87265000I-150000J0D01*
G01*
X176775000Y-87265000D01*
G75*
G02*
X176625000Y-87115000I0J150000D01*
G01*
G37*
D24*
X181345000Y-93690000D03*
X179345000Y-94640000D03*
X179345000Y-92740000D03*
X180975000Y-83870000D03*
X178975000Y-84820000D03*
X178975000Y-82920000D03*
G36*
G01*
X172065000Y-104075000D02*
X172065000Y-104375000D01*
G75*
G02*
X171915000Y-104525000I-150000J0D01*
G01*
X170565000Y-104525000D01*
G75*
G02*
X170415000Y-104375000I0J150000D01*
G01*
X170415000Y-104075000D01*
G75*
G02*
X170565000Y-103925000I150000J0D01*
G01*
X171915000Y-103925000D01*
G75*
G02*
X172065000Y-104075000I0J-150000D01*
G01*
G37*
G36*
G01*
X172065000Y-102805000D02*
X172065000Y-103105000D01*
G75*
G02*
X171915000Y-103255000I-150000J0D01*
G01*
X170565000Y-103255000D01*
G75*
G02*
X170415000Y-103105000I0J150000D01*
G01*
X170415000Y-102805000D01*
G75*
G02*
X170565000Y-102655000I150000J0D01*
G01*
X171915000Y-102655000D01*
G75*
G02*
X172065000Y-102805000I0J-150000D01*
G01*
G37*
G36*
G01*
X172065000Y-101535000D02*
X172065000Y-101835000D01*
G75*
G02*
X171915000Y-101985000I-150000J0D01*
G01*
X170565000Y-101985000D01*
G75*
G02*
X170415000Y-101835000I0J150000D01*
G01*
X170415000Y-101535000D01*
G75*
G02*
X170565000Y-101385000I150000J0D01*
G01*
X171915000Y-101385000D01*
G75*
G02*
X172065000Y-101535000I0J-150000D01*
G01*
G37*
G36*
G01*
X172065000Y-100265000D02*
X172065000Y-100565000D01*
G75*
G02*
X171915000Y-100715000I-150000J0D01*
G01*
X170565000Y-100715000D01*
G75*
G02*
X170415000Y-100565000I0J150000D01*
G01*
X170415000Y-100265000D01*
G75*
G02*
X170565000Y-100115000I150000J0D01*
G01*
X171915000Y-100115000D01*
G75*
G02*
X172065000Y-100265000I0J-150000D01*
G01*
G37*
G36*
G01*
X177315000Y-100265000D02*
X177315000Y-100565000D01*
G75*
G02*
X177165000Y-100715000I-150000J0D01*
G01*
X175815000Y-100715000D01*
G75*
G02*
X175665000Y-100565000I0J150000D01*
G01*
X175665000Y-100265000D01*
G75*
G02*
X175815000Y-100115000I150000J0D01*
G01*
X177165000Y-100115000D01*
G75*
G02*
X177315000Y-100265000I0J-150000D01*
G01*
G37*
G36*
G01*
X177315000Y-101535000D02*
X177315000Y-101835000D01*
G75*
G02*
X177165000Y-101985000I-150000J0D01*
G01*
X175815000Y-101985000D01*
G75*
G02*
X175665000Y-101835000I0J150000D01*
G01*
X175665000Y-101535000D01*
G75*
G02*
X175815000Y-101385000I150000J0D01*
G01*
X177165000Y-101385000D01*
G75*
G02*
X177315000Y-101535000I0J-150000D01*
G01*
G37*
G36*
G01*
X177315000Y-102805000D02*
X177315000Y-103105000D01*
G75*
G02*
X177165000Y-103255000I-150000J0D01*
G01*
X175815000Y-103255000D01*
G75*
G02*
X175665000Y-103105000I0J150000D01*
G01*
X175665000Y-102805000D01*
G75*
G02*
X175815000Y-102655000I150000J0D01*
G01*
X177165000Y-102655000D01*
G75*
G02*
X177315000Y-102805000I0J-150000D01*
G01*
G37*
G36*
G01*
X177315000Y-104075000D02*
X177315000Y-104375000D01*
G75*
G02*
X177165000Y-104525000I-150000J0D01*
G01*
X175815000Y-104525000D01*
G75*
G02*
X175665000Y-104375000I0J150000D01*
G01*
X175665000Y-104075000D01*
G75*
G02*
X175815000Y-103925000I150000J0D01*
G01*
X177165000Y-103925000D01*
G75*
G02*
X177315000Y-104075000I0J-150000D01*
G01*
G37*
X174915000Y-97450000D03*
X172915000Y-98400000D03*
X172915000Y-96500000D03*
X174915000Y-107150000D03*
X172915000Y-108100000D03*
X172915000Y-106200000D03*
G36*
G01*
X185565000Y-101045000D02*
X185565000Y-100745000D01*
G75*
G02*
X185715000Y-100595000I150000J0D01*
G01*
X187065000Y-100595000D01*
G75*
G02*
X187215000Y-100745000I0J-150000D01*
G01*
X187215000Y-101045000D01*
G75*
G02*
X187065000Y-101195000I-150000J0D01*
G01*
X185715000Y-101195000D01*
G75*
G02*
X185565000Y-101045000I0J150000D01*
G01*
G37*
G36*
G01*
X185565000Y-102315000D02*
X185565000Y-102015000D01*
G75*
G02*
X185715000Y-101865000I150000J0D01*
G01*
X187065000Y-101865000D01*
G75*
G02*
X187215000Y-102015000I0J-150000D01*
G01*
X187215000Y-102315000D01*
G75*
G02*
X187065000Y-102465000I-150000J0D01*
G01*
X185715000Y-102465000D01*
G75*
G02*
X185565000Y-102315000I0J150000D01*
G01*
G37*
G36*
G01*
X185565000Y-103585000D02*
X185565000Y-103285000D01*
G75*
G02*
X185715000Y-103135000I150000J0D01*
G01*
X187065000Y-103135000D01*
G75*
G02*
X187215000Y-103285000I0J-150000D01*
G01*
X187215000Y-103585000D01*
G75*
G02*
X187065000Y-103735000I-150000J0D01*
G01*
X185715000Y-103735000D01*
G75*
G02*
X185565000Y-103585000I0J150000D01*
G01*
G37*
G36*
G01*
X185565000Y-104855000D02*
X185565000Y-104555000D01*
G75*
G02*
X185715000Y-104405000I150000J0D01*
G01*
X187065000Y-104405000D01*
G75*
G02*
X187215000Y-104555000I0J-150000D01*
G01*
X187215000Y-104855000D01*
G75*
G02*
X187065000Y-105005000I-150000J0D01*
G01*
X185715000Y-105005000D01*
G75*
G02*
X185565000Y-104855000I0J150000D01*
G01*
G37*
G36*
G01*
X180315000Y-104855000D02*
X180315000Y-104555000D01*
G75*
G02*
X180465000Y-104405000I150000J0D01*
G01*
X181815000Y-104405000D01*
G75*
G02*
X181965000Y-104555000I0J-150000D01*
G01*
X181965000Y-104855000D01*
G75*
G02*
X181815000Y-105005000I-150000J0D01*
G01*
X180465000Y-105005000D01*
G75*
G02*
X180315000Y-104855000I0J150000D01*
G01*
G37*
G36*
G01*
X180315000Y-103585000D02*
X180315000Y-103285000D01*
G75*
G02*
X180465000Y-103135000I150000J0D01*
G01*
X181815000Y-103135000D01*
G75*
G02*
X181965000Y-103285000I0J-150000D01*
G01*
X181965000Y-103585000D01*
G75*
G02*
X181815000Y-103735000I-150000J0D01*
G01*
X180465000Y-103735000D01*
G75*
G02*
X180315000Y-103585000I0J150000D01*
G01*
G37*
G36*
G01*
X180315000Y-102315000D02*
X180315000Y-102015000D01*
G75*
G02*
X180465000Y-101865000I150000J0D01*
G01*
X181815000Y-101865000D01*
G75*
G02*
X181965000Y-102015000I0J-150000D01*
G01*
X181965000Y-102315000D01*
G75*
G02*
X181815000Y-102465000I-150000J0D01*
G01*
X180465000Y-102465000D01*
G75*
G02*
X180315000Y-102315000I0J150000D01*
G01*
G37*
G36*
G01*
X180315000Y-101045000D02*
X180315000Y-100745000D01*
G75*
G02*
X180465000Y-100595000I150000J0D01*
G01*
X181815000Y-100595000D01*
G75*
G02*
X181965000Y-100745000I0J-150000D01*
G01*
X181965000Y-101045000D01*
G75*
G02*
X181815000Y-101195000I-150000J0D01*
G01*
X180465000Y-101195000D01*
G75*
G02*
X180315000Y-101045000I0J150000D01*
G01*
G37*
X184815000Y-107750000D03*
X182815000Y-108700000D03*
X182815000Y-106800000D03*
X185265000Y-97360000D03*
X183265000Y-98310000D03*
X183265000Y-96410000D03*
G36*
G01*
X176085000Y-115575000D02*
X176085000Y-115275000D01*
G75*
G02*
X176235000Y-115125000I150000J0D01*
G01*
X177585000Y-115125000D01*
G75*
G02*
X177735000Y-115275000I0J-150000D01*
G01*
X177735000Y-115575000D01*
G75*
G02*
X177585000Y-115725000I-150000J0D01*
G01*
X176235000Y-115725000D01*
G75*
G02*
X176085000Y-115575000I0J150000D01*
G01*
G37*
G36*
G01*
X176085000Y-116845000D02*
X176085000Y-116545000D01*
G75*
G02*
X176235000Y-116395000I150000J0D01*
G01*
X177585000Y-116395000D01*
G75*
G02*
X177735000Y-116545000I0J-150000D01*
G01*
X177735000Y-116845000D01*
G75*
G02*
X177585000Y-116995000I-150000J0D01*
G01*
X176235000Y-116995000D01*
G75*
G02*
X176085000Y-116845000I0J150000D01*
G01*
G37*
G36*
G01*
X176085000Y-118115000D02*
X176085000Y-117815000D01*
G75*
G02*
X176235000Y-117665000I150000J0D01*
G01*
X177585000Y-117665000D01*
G75*
G02*
X177735000Y-117815000I0J-150000D01*
G01*
X177735000Y-118115000D01*
G75*
G02*
X177585000Y-118265000I-150000J0D01*
G01*
X176235000Y-118265000D01*
G75*
G02*
X176085000Y-118115000I0J150000D01*
G01*
G37*
G36*
G01*
X176085000Y-119385000D02*
X176085000Y-119085000D01*
G75*
G02*
X176235000Y-118935000I150000J0D01*
G01*
X177585000Y-118935000D01*
G75*
G02*
X177735000Y-119085000I0J-150000D01*
G01*
X177735000Y-119385000D01*
G75*
G02*
X177585000Y-119535000I-150000J0D01*
G01*
X176235000Y-119535000D01*
G75*
G02*
X176085000Y-119385000I0J150000D01*
G01*
G37*
G36*
G01*
X170835000Y-119385000D02*
X170835000Y-119085000D01*
G75*
G02*
X170985000Y-118935000I150000J0D01*
G01*
X172335000Y-118935000D01*
G75*
G02*
X172485000Y-119085000I0J-150000D01*
G01*
X172485000Y-119385000D01*
G75*
G02*
X172335000Y-119535000I-150000J0D01*
G01*
X170985000Y-119535000D01*
G75*
G02*
X170835000Y-119385000I0J150000D01*
G01*
G37*
G36*
G01*
X170835000Y-118115000D02*
X170835000Y-117815000D01*
G75*
G02*
X170985000Y-117665000I150000J0D01*
G01*
X172335000Y-117665000D01*
G75*
G02*
X172485000Y-117815000I0J-150000D01*
G01*
X172485000Y-118115000D01*
G75*
G02*
X172335000Y-118265000I-150000J0D01*
G01*
X170985000Y-118265000D01*
G75*
G02*
X170835000Y-118115000I0J150000D01*
G01*
G37*
G36*
G01*
X170835000Y-116845000D02*
X170835000Y-116545000D01*
G75*
G02*
X170985000Y-116395000I150000J0D01*
G01*
X172335000Y-116395000D01*
G75*
G02*
X172485000Y-116545000I0J-150000D01*
G01*
X172485000Y-116845000D01*
G75*
G02*
X172335000Y-116995000I-150000J0D01*
G01*
X170985000Y-116995000D01*
G75*
G02*
X170835000Y-116845000I0J150000D01*
G01*
G37*
G36*
G01*
X170835000Y-115575000D02*
X170835000Y-115275000D01*
G75*
G02*
X170985000Y-115125000I150000J0D01*
G01*
X172335000Y-115125000D01*
G75*
G02*
X172485000Y-115275000I0J-150000D01*
G01*
X172485000Y-115575000D01*
G75*
G02*
X172335000Y-115725000I-150000J0D01*
G01*
X170985000Y-115725000D01*
G75*
G02*
X170835000Y-115575000I0J150000D01*
G01*
G37*
X173225000Y-122110000D03*
X175225000Y-121160000D03*
X175225000Y-123060000D03*
X173225000Y-112510000D03*
X175225000Y-111560000D03*
X175225000Y-113460000D03*
G36*
G01*
X185535000Y-115585000D02*
X185535000Y-115285000D01*
G75*
G02*
X185685000Y-115135000I150000J0D01*
G01*
X187035000Y-115135000D01*
G75*
G02*
X187185000Y-115285000I0J-150000D01*
G01*
X187185000Y-115585000D01*
G75*
G02*
X187035000Y-115735000I-150000J0D01*
G01*
X185685000Y-115735000D01*
G75*
G02*
X185535000Y-115585000I0J150000D01*
G01*
G37*
G36*
G01*
X185535000Y-116855000D02*
X185535000Y-116555000D01*
G75*
G02*
X185685000Y-116405000I150000J0D01*
G01*
X187035000Y-116405000D01*
G75*
G02*
X187185000Y-116555000I0J-150000D01*
G01*
X187185000Y-116855000D01*
G75*
G02*
X187035000Y-117005000I-150000J0D01*
G01*
X185685000Y-117005000D01*
G75*
G02*
X185535000Y-116855000I0J150000D01*
G01*
G37*
G36*
G01*
X185535000Y-118125000D02*
X185535000Y-117825000D01*
G75*
G02*
X185685000Y-117675000I150000J0D01*
G01*
X187035000Y-117675000D01*
G75*
G02*
X187185000Y-117825000I0J-150000D01*
G01*
X187185000Y-118125000D01*
G75*
G02*
X187035000Y-118275000I-150000J0D01*
G01*
X185685000Y-118275000D01*
G75*
G02*
X185535000Y-118125000I0J150000D01*
G01*
G37*
G36*
G01*
X185535000Y-119395000D02*
X185535000Y-119095000D01*
G75*
G02*
X185685000Y-118945000I150000J0D01*
G01*
X187035000Y-118945000D01*
G75*
G02*
X187185000Y-119095000I0J-150000D01*
G01*
X187185000Y-119395000D01*
G75*
G02*
X187035000Y-119545000I-150000J0D01*
G01*
X185685000Y-119545000D01*
G75*
G02*
X185535000Y-119395000I0J150000D01*
G01*
G37*
G36*
G01*
X180285000Y-119395000D02*
X180285000Y-119095000D01*
G75*
G02*
X180435000Y-118945000I150000J0D01*
G01*
X181785000Y-118945000D01*
G75*
G02*
X181935000Y-119095000I0J-150000D01*
G01*
X181935000Y-119395000D01*
G75*
G02*
X181785000Y-119545000I-150000J0D01*
G01*
X180435000Y-119545000D01*
G75*
G02*
X180285000Y-119395000I0J150000D01*
G01*
G37*
G36*
G01*
X180285000Y-118125000D02*
X180285000Y-117825000D01*
G75*
G02*
X180435000Y-117675000I150000J0D01*
G01*
X181785000Y-117675000D01*
G75*
G02*
X181935000Y-117825000I0J-150000D01*
G01*
X181935000Y-118125000D01*
G75*
G02*
X181785000Y-118275000I-150000J0D01*
G01*
X180435000Y-118275000D01*
G75*
G02*
X180285000Y-118125000I0J150000D01*
G01*
G37*
G36*
G01*
X180285000Y-116855000D02*
X180285000Y-116555000D01*
G75*
G02*
X180435000Y-116405000I150000J0D01*
G01*
X181785000Y-116405000D01*
G75*
G02*
X181935000Y-116555000I0J-150000D01*
G01*
X181935000Y-116855000D01*
G75*
G02*
X181785000Y-117005000I-150000J0D01*
G01*
X180435000Y-117005000D01*
G75*
G02*
X180285000Y-116855000I0J150000D01*
G01*
G37*
G36*
G01*
X180285000Y-115585000D02*
X180285000Y-115285000D01*
G75*
G02*
X180435000Y-115135000I150000J0D01*
G01*
X181785000Y-115135000D01*
G75*
G02*
X181935000Y-115285000I0J-150000D01*
G01*
X181935000Y-115585000D01*
G75*
G02*
X181785000Y-115735000I-150000J0D01*
G01*
X180435000Y-115735000D01*
G75*
G02*
X180285000Y-115585000I0J150000D01*
G01*
G37*
X184385000Y-122650000D03*
X182385000Y-123600000D03*
X182385000Y-121700000D03*
X184825000Y-112610000D03*
X182825000Y-113560000D03*
X182825000Y-111660000D03*
X148395000Y-126010000D03*
X150395000Y-125060000D03*
X150395000Y-126960000D03*
D25*
X143385000Y-105740000D03*
X144335000Y-107740000D03*
X142435000Y-107740000D03*
D24*
X167870000Y-111700000D03*
X165870000Y-112650000D03*
X165870000Y-110750000D03*
X167895000Y-103855000D03*
X165895000Y-104805000D03*
X165895000Y-102905000D03*
X167880000Y-107790000D03*
X165880000Y-108740000D03*
X165880000Y-106840000D03*
X154705000Y-125945000D03*
X156705000Y-124995000D03*
X156705000Y-126895000D03*
X192610000Y-61280000D03*
X194610000Y-60330000D03*
X194610000Y-62230000D03*
X192580000Y-56960000D03*
X194580000Y-56010000D03*
X194580000Y-57910000D03*
X178850000Y-76810000D03*
X180850000Y-75860000D03*
X180850000Y-77760000D03*
D26*
X173215000Y-73675000D03*
X173215000Y-75775000D03*
G36*
G01*
X191432500Y-52620000D02*
X191907500Y-52620000D01*
G75*
G02*
X192145000Y-52857500I0J-237500D01*
G01*
X192145000Y-53432500D01*
G75*
G02*
X191907500Y-53670000I-237500J0D01*
G01*
X191432500Y-53670000D01*
G75*
G02*
X191195000Y-53432500I0J237500D01*
G01*
X191195000Y-52857500D01*
G75*
G02*
X191432500Y-52620000I237500J0D01*
G01*
G37*
G36*
G01*
X191432500Y-50870000D02*
X191907500Y-50870000D01*
G75*
G02*
X192145000Y-51107500I0J-237500D01*
G01*
X192145000Y-51682500D01*
G75*
G02*
X191907500Y-51920000I-237500J0D01*
G01*
X191432500Y-51920000D01*
G75*
G02*
X191195000Y-51682500I0J237500D01*
G01*
X191195000Y-51107500D01*
G75*
G02*
X191432500Y-50870000I237500J0D01*
G01*
G37*
G36*
G01*
X207265000Y-130292500D02*
X207265000Y-130767500D01*
G75*
G02*
X207027500Y-131005000I-237500J0D01*
G01*
X206452500Y-131005000D01*
G75*
G02*
X206215000Y-130767500I0J237500D01*
G01*
X206215000Y-130292500D01*
G75*
G02*
X206452500Y-130055000I237500J0D01*
G01*
X207027500Y-130055000D01*
G75*
G02*
X207265000Y-130292500I0J-237500D01*
G01*
G37*
G36*
G01*
X209015000Y-130292500D02*
X209015000Y-130767500D01*
G75*
G02*
X208777500Y-131005000I-237500J0D01*
G01*
X208202500Y-131005000D01*
G75*
G02*
X207965000Y-130767500I0J237500D01*
G01*
X207965000Y-130292500D01*
G75*
G02*
X208202500Y-130055000I237500J0D01*
G01*
X208777500Y-130055000D01*
G75*
G02*
X209015000Y-130292500I0J-237500D01*
G01*
G37*
G36*
G01*
X206290000Y-50095000D02*
X206290000Y-49145000D01*
G75*
G02*
X206540000Y-48895000I250000J0D01*
G01*
X207215000Y-48895000D01*
G75*
G02*
X207465000Y-49145000I0J-250000D01*
G01*
X207465000Y-50095000D01*
G75*
G02*
X207215000Y-50345000I-250000J0D01*
G01*
X206540000Y-50345000D01*
G75*
G02*
X206290000Y-50095000I0J250000D01*
G01*
G37*
G36*
G01*
X204215000Y-50095000D02*
X204215000Y-49145000D01*
G75*
G02*
X204465000Y-48895000I250000J0D01*
G01*
X205140000Y-48895000D01*
G75*
G02*
X205390000Y-49145000I0J-250000D01*
G01*
X205390000Y-50095000D01*
G75*
G02*
X205140000Y-50345000I-250000J0D01*
G01*
X204465000Y-50345000D01*
G75*
G02*
X204215000Y-50095000I0J250000D01*
G01*
G37*
G36*
G01*
X206935000Y-52687500D02*
X206935000Y-52212500D01*
G75*
G02*
X207172500Y-51975000I237500J0D01*
G01*
X207772500Y-51975000D01*
G75*
G02*
X208010000Y-52212500I0J-237500D01*
G01*
X208010000Y-52687500D01*
G75*
G02*
X207772500Y-52925000I-237500J0D01*
G01*
X207172500Y-52925000D01*
G75*
G02*
X206935000Y-52687500I0J237500D01*
G01*
G37*
G36*
G01*
X205210000Y-52687500D02*
X205210000Y-52212500D01*
G75*
G02*
X205447500Y-51975000I237500J0D01*
G01*
X206047500Y-51975000D01*
G75*
G02*
X206285000Y-52212500I0J-237500D01*
G01*
X206285000Y-52687500D01*
G75*
G02*
X206047500Y-52925000I-237500J0D01*
G01*
X205447500Y-52925000D01*
G75*
G02*
X205210000Y-52687500I0J237500D01*
G01*
G37*
G36*
G01*
X203385000Y-52697500D02*
X203385000Y-52222500D01*
G75*
G02*
X203622500Y-51985000I237500J0D01*
G01*
X204222500Y-51985000D01*
G75*
G02*
X204460000Y-52222500I0J-237500D01*
G01*
X204460000Y-52697500D01*
G75*
G02*
X204222500Y-52935000I-237500J0D01*
G01*
X203622500Y-52935000D01*
G75*
G02*
X203385000Y-52697500I0J237500D01*
G01*
G37*
G36*
G01*
X201660000Y-52697500D02*
X201660000Y-52222500D01*
G75*
G02*
X201897500Y-51985000I237500J0D01*
G01*
X202497500Y-51985000D01*
G75*
G02*
X202735000Y-52222500I0J-237500D01*
G01*
X202735000Y-52697500D01*
G75*
G02*
X202497500Y-52935000I-237500J0D01*
G01*
X201897500Y-52935000D01*
G75*
G02*
X201660000Y-52697500I0J237500D01*
G01*
G37*
G36*
G01*
X206942500Y-54437500D02*
X206942500Y-53962500D01*
G75*
G02*
X207180000Y-53725000I237500J0D01*
G01*
X207780000Y-53725000D01*
G75*
G02*
X208017500Y-53962500I0J-237500D01*
G01*
X208017500Y-54437500D01*
G75*
G02*
X207780000Y-54675000I-237500J0D01*
G01*
X207180000Y-54675000D01*
G75*
G02*
X206942500Y-54437500I0J237500D01*
G01*
G37*
G36*
G01*
X205217500Y-54437500D02*
X205217500Y-53962500D01*
G75*
G02*
X205455000Y-53725000I237500J0D01*
G01*
X206055000Y-53725000D01*
G75*
G02*
X206292500Y-53962500I0J-237500D01*
G01*
X206292500Y-54437500D01*
G75*
G02*
X206055000Y-54675000I-237500J0D01*
G01*
X205455000Y-54675000D01*
G75*
G02*
X205217500Y-54437500I0J237500D01*
G01*
G37*
G36*
G01*
X199785000Y-52697500D02*
X199785000Y-52222500D01*
G75*
G02*
X200022500Y-51985000I237500J0D01*
G01*
X200622500Y-51985000D01*
G75*
G02*
X200860000Y-52222500I0J-237500D01*
G01*
X200860000Y-52697500D01*
G75*
G02*
X200622500Y-52935000I-237500J0D01*
G01*
X200022500Y-52935000D01*
G75*
G02*
X199785000Y-52697500I0J237500D01*
G01*
G37*
G36*
G01*
X198060000Y-52697500D02*
X198060000Y-52222500D01*
G75*
G02*
X198297500Y-51985000I237500J0D01*
G01*
X198897500Y-51985000D01*
G75*
G02*
X199135000Y-52222500I0J-237500D01*
G01*
X199135000Y-52697500D01*
G75*
G02*
X198897500Y-52935000I-237500J0D01*
G01*
X198297500Y-52935000D01*
G75*
G02*
X198060000Y-52697500I0J237500D01*
G01*
G37*
G36*
G01*
X185275000Y-69472500D02*
X185275000Y-69947500D01*
G75*
G02*
X185037500Y-70185000I-237500J0D01*
G01*
X184437500Y-70185000D01*
G75*
G02*
X184200000Y-69947500I0J237500D01*
G01*
X184200000Y-69472500D01*
G75*
G02*
X184437500Y-69235000I237500J0D01*
G01*
X185037500Y-69235000D01*
G75*
G02*
X185275000Y-69472500I0J-237500D01*
G01*
G37*
G36*
G01*
X187000000Y-69472500D02*
X187000000Y-69947500D01*
G75*
G02*
X186762500Y-70185000I-237500J0D01*
G01*
X186162500Y-70185000D01*
G75*
G02*
X185925000Y-69947500I0J237500D01*
G01*
X185925000Y-69472500D01*
G75*
G02*
X186162500Y-69235000I237500J0D01*
G01*
X186762500Y-69235000D01*
G75*
G02*
X187000000Y-69472500I0J-237500D01*
G01*
G37*
G36*
G01*
X182275000Y-69947500D02*
X182275000Y-69472500D01*
G75*
G02*
X182512500Y-69235000I237500J0D01*
G01*
X183112500Y-69235000D01*
G75*
G02*
X183350000Y-69472500I0J-237500D01*
G01*
X183350000Y-69947500D01*
G75*
G02*
X183112500Y-70185000I-237500J0D01*
G01*
X182512500Y-70185000D01*
G75*
G02*
X182275000Y-69947500I0J237500D01*
G01*
G37*
G36*
G01*
X180550000Y-69947500D02*
X180550000Y-69472500D01*
G75*
G02*
X180787500Y-69235000I237500J0D01*
G01*
X181387500Y-69235000D01*
G75*
G02*
X181625000Y-69472500I0J-237500D01*
G01*
X181625000Y-69947500D01*
G75*
G02*
X181387500Y-70185000I-237500J0D01*
G01*
X180787500Y-70185000D01*
G75*
G02*
X180550000Y-69947500I0J237500D01*
G01*
G37*
G36*
G01*
X167295000Y-96430000D02*
X167605000Y-96430000D01*
G75*
G02*
X167760000Y-96585000I0J-155000D01*
G01*
X167760000Y-97010000D01*
G75*
G02*
X167605000Y-97165000I-155000J0D01*
G01*
X167295000Y-97165000D01*
G75*
G02*
X167140000Y-97010000I0J155000D01*
G01*
X167140000Y-96585000D01*
G75*
G02*
X167295000Y-96430000I155000J0D01*
G01*
G37*
G36*
G01*
X167295000Y-95295000D02*
X167605000Y-95295000D01*
G75*
G02*
X167760000Y-95450000I0J-155000D01*
G01*
X167760000Y-95875000D01*
G75*
G02*
X167605000Y-96030000I-155000J0D01*
G01*
X167295000Y-96030000D01*
G75*
G02*
X167140000Y-95875000I0J155000D01*
G01*
X167140000Y-95450000D01*
G75*
G02*
X167295000Y-95295000I155000J0D01*
G01*
G37*
G36*
G01*
X184465000Y-80392500D02*
X184465000Y-80867500D01*
G75*
G02*
X184227500Y-81105000I-237500J0D01*
G01*
X183627500Y-81105000D01*
G75*
G02*
X183390000Y-80867500I0J237500D01*
G01*
X183390000Y-80392500D01*
G75*
G02*
X183627500Y-80155000I237500J0D01*
G01*
X184227500Y-80155000D01*
G75*
G02*
X184465000Y-80392500I0J-237500D01*
G01*
G37*
G36*
G01*
X186190000Y-80392500D02*
X186190000Y-80867500D01*
G75*
G02*
X185952500Y-81105000I-237500J0D01*
G01*
X185352500Y-81105000D01*
G75*
G02*
X185115000Y-80867500I0J237500D01*
G01*
X185115000Y-80392500D01*
G75*
G02*
X185352500Y-80155000I237500J0D01*
G01*
X185952500Y-80155000D01*
G75*
G02*
X186190000Y-80392500I0J-237500D01*
G01*
G37*
G36*
G01*
X140155000Y-71772500D02*
X139845000Y-71772500D01*
G75*
G02*
X139690000Y-71617500I0J155000D01*
G01*
X139690000Y-71192500D01*
G75*
G02*
X139845000Y-71037500I155000J0D01*
G01*
X140155000Y-71037500D01*
G75*
G02*
X140310000Y-71192500I0J-155000D01*
G01*
X140310000Y-71617500D01*
G75*
G02*
X140155000Y-71772500I-155000J0D01*
G01*
G37*
G36*
G01*
X140155000Y-72907500D02*
X139845000Y-72907500D01*
G75*
G02*
X139690000Y-72752500I0J155000D01*
G01*
X139690000Y-72327500D01*
G75*
G02*
X139845000Y-72172500I155000J0D01*
G01*
X140155000Y-72172500D01*
G75*
G02*
X140310000Y-72327500I0J-155000D01*
G01*
X140310000Y-72752500D01*
G75*
G02*
X140155000Y-72907500I-155000J0D01*
G01*
G37*
G36*
G01*
X138775000Y-72280000D02*
X137825000Y-72280000D01*
G75*
G02*
X137575000Y-72030000I0J250000D01*
G01*
X137575000Y-71355000D01*
G75*
G02*
X137825000Y-71105000I250000J0D01*
G01*
X138775000Y-71105000D01*
G75*
G02*
X139025000Y-71355000I0J-250000D01*
G01*
X139025000Y-72030000D01*
G75*
G02*
X138775000Y-72280000I-250000J0D01*
G01*
G37*
G36*
G01*
X138775000Y-74355000D02*
X137825000Y-74355000D01*
G75*
G02*
X137575000Y-74105000I0J250000D01*
G01*
X137575000Y-73430000D01*
G75*
G02*
X137825000Y-73180000I250000J0D01*
G01*
X138775000Y-73180000D01*
G75*
G02*
X139025000Y-73430000I0J-250000D01*
G01*
X139025000Y-74105000D01*
G75*
G02*
X138775000Y-74355000I-250000J0D01*
G01*
G37*
G36*
G01*
X101125000Y-111890000D02*
X101435000Y-111890000D01*
G75*
G02*
X101590000Y-112045000I0J-155000D01*
G01*
X101590000Y-112470000D01*
G75*
G02*
X101435000Y-112625000I-155000J0D01*
G01*
X101125000Y-112625000D01*
G75*
G02*
X100970000Y-112470000I0J155000D01*
G01*
X100970000Y-112045000D01*
G75*
G02*
X101125000Y-111890000I155000J0D01*
G01*
G37*
G36*
G01*
X101125000Y-110755000D02*
X101435000Y-110755000D01*
G75*
G02*
X101590000Y-110910000I0J-155000D01*
G01*
X101590000Y-111335000D01*
G75*
G02*
X101435000Y-111490000I-155000J0D01*
G01*
X101125000Y-111490000D01*
G75*
G02*
X100970000Y-111335000I0J155000D01*
G01*
X100970000Y-110910000D01*
G75*
G02*
X101125000Y-110755000I155000J0D01*
G01*
G37*
G36*
G01*
X100165000Y-111450000D02*
X99855000Y-111450000D01*
G75*
G02*
X99700000Y-111295000I0J155000D01*
G01*
X99700000Y-110870000D01*
G75*
G02*
X99855000Y-110715000I155000J0D01*
G01*
X100165000Y-110715000D01*
G75*
G02*
X100320000Y-110870000I0J-155000D01*
G01*
X100320000Y-111295000D01*
G75*
G02*
X100165000Y-111450000I-155000J0D01*
G01*
G37*
G36*
G01*
X100165000Y-112585000D02*
X99855000Y-112585000D01*
G75*
G02*
X99700000Y-112430000I0J155000D01*
G01*
X99700000Y-112005000D01*
G75*
G02*
X99855000Y-111850000I155000J0D01*
G01*
X100165000Y-111850000D01*
G75*
G02*
X100320000Y-112005000I0J-155000D01*
G01*
X100320000Y-112430000D01*
G75*
G02*
X100165000Y-112585000I-155000J0D01*
G01*
G37*
G36*
G01*
X91227500Y-96137500D02*
X90752500Y-96137500D01*
G75*
G02*
X90515000Y-95900000I0J237500D01*
G01*
X90515000Y-95300000D01*
G75*
G02*
X90752500Y-95062500I237500J0D01*
G01*
X91227500Y-95062500D01*
G75*
G02*
X91465000Y-95300000I0J-237500D01*
G01*
X91465000Y-95900000D01*
G75*
G02*
X91227500Y-96137500I-237500J0D01*
G01*
G37*
G36*
G01*
X91227500Y-97862500D02*
X90752500Y-97862500D01*
G75*
G02*
X90515000Y-97625000I0J237500D01*
G01*
X90515000Y-97025000D01*
G75*
G02*
X90752500Y-96787500I237500J0D01*
G01*
X91227500Y-96787500D01*
G75*
G02*
X91465000Y-97025000I0J-237500D01*
G01*
X91465000Y-97625000D01*
G75*
G02*
X91227500Y-97862500I-237500J0D01*
G01*
G37*
G36*
G01*
X92280000Y-129725000D02*
X92280000Y-128775000D01*
G75*
G02*
X92530000Y-128525000I250000J0D01*
G01*
X93205000Y-128525000D01*
G75*
G02*
X93455000Y-128775000I0J-250000D01*
G01*
X93455000Y-129725000D01*
G75*
G02*
X93205000Y-129975000I-250000J0D01*
G01*
X92530000Y-129975000D01*
G75*
G02*
X92280000Y-129725000I0J250000D01*
G01*
G37*
G36*
G01*
X90205000Y-129725000D02*
X90205000Y-128775000D01*
G75*
G02*
X90455000Y-128525000I250000J0D01*
G01*
X91130000Y-128525000D01*
G75*
G02*
X91380000Y-128775000I0J-250000D01*
G01*
X91380000Y-129725000D01*
G75*
G02*
X91130000Y-129975000I-250000J0D01*
G01*
X90455000Y-129975000D01*
G75*
G02*
X90205000Y-129725000I0J250000D01*
G01*
G37*
G36*
G01*
X102130000Y-93775000D02*
X102130000Y-94085000D01*
G75*
G02*
X101975000Y-94240000I-155000J0D01*
G01*
X101550000Y-94240000D01*
G75*
G02*
X101395000Y-94085000I0J155000D01*
G01*
X101395000Y-93775000D01*
G75*
G02*
X101550000Y-93620000I155000J0D01*
G01*
X101975000Y-93620000D01*
G75*
G02*
X102130000Y-93775000I0J-155000D01*
G01*
G37*
G36*
G01*
X103265000Y-93775000D02*
X103265000Y-94085000D01*
G75*
G02*
X103110000Y-94240000I-155000J0D01*
G01*
X102685000Y-94240000D01*
G75*
G02*
X102530000Y-94085000I0J155000D01*
G01*
X102530000Y-93775000D01*
G75*
G02*
X102685000Y-93620000I155000J0D01*
G01*
X103110000Y-93620000D01*
G75*
G02*
X103265000Y-93775000I0J-155000D01*
G01*
G37*
G36*
G01*
X98232500Y-93785000D02*
X98232500Y-94095000D01*
G75*
G02*
X98077500Y-94250000I-155000J0D01*
G01*
X97652500Y-94250000D01*
G75*
G02*
X97497500Y-94095000I0J155000D01*
G01*
X97497500Y-93785000D01*
G75*
G02*
X97652500Y-93630000I155000J0D01*
G01*
X98077500Y-93630000D01*
G75*
G02*
X98232500Y-93785000I0J-155000D01*
G01*
G37*
G36*
G01*
X99367500Y-93785000D02*
X99367500Y-94095000D01*
G75*
G02*
X99212500Y-94250000I-155000J0D01*
G01*
X98787500Y-94250000D01*
G75*
G02*
X98632500Y-94095000I0J155000D01*
G01*
X98632500Y-93785000D01*
G75*
G02*
X98787500Y-93630000I155000J0D01*
G01*
X99212500Y-93630000D01*
G75*
G02*
X99367500Y-93785000I0J-155000D01*
G01*
G37*
G36*
G01*
X94372500Y-93815000D02*
X94372500Y-94125000D01*
G75*
G02*
X94217500Y-94280000I-155000J0D01*
G01*
X93792500Y-94280000D01*
G75*
G02*
X93637500Y-94125000I0J155000D01*
G01*
X93637500Y-93815000D01*
G75*
G02*
X93792500Y-93660000I155000J0D01*
G01*
X94217500Y-93660000D01*
G75*
G02*
X94372500Y-93815000I0J-155000D01*
G01*
G37*
G36*
G01*
X95507500Y-93815000D02*
X95507500Y-94125000D01*
G75*
G02*
X95352500Y-94280000I-155000J0D01*
G01*
X94927500Y-94280000D01*
G75*
G02*
X94772500Y-94125000I0J155000D01*
G01*
X94772500Y-93815000D01*
G75*
G02*
X94927500Y-93660000I155000J0D01*
G01*
X95352500Y-93660000D01*
G75*
G02*
X95507500Y-93815000I0J-155000D01*
G01*
G37*
G36*
G01*
X91840000Y-94195000D02*
X91840000Y-93885000D01*
G75*
G02*
X91995000Y-93730000I155000J0D01*
G01*
X92420000Y-93730000D01*
G75*
G02*
X92575000Y-93885000I0J-155000D01*
G01*
X92575000Y-94195000D01*
G75*
G02*
X92420000Y-94350000I-155000J0D01*
G01*
X91995000Y-94350000D01*
G75*
G02*
X91840000Y-94195000I0J155000D01*
G01*
G37*
G36*
G01*
X90705000Y-94195000D02*
X90705000Y-93885000D01*
G75*
G02*
X90860000Y-93730000I155000J0D01*
G01*
X91285000Y-93730000D01*
G75*
G02*
X91440000Y-93885000I0J-155000D01*
G01*
X91440000Y-94195000D01*
G75*
G02*
X91285000Y-94350000I-155000J0D01*
G01*
X90860000Y-94350000D01*
G75*
G02*
X90705000Y-94195000I0J155000D01*
G01*
G37*
G36*
G01*
X92380000Y-126135000D02*
X92380000Y-126445000D01*
G75*
G02*
X92225000Y-126600000I-155000J0D01*
G01*
X91800000Y-126600000D01*
G75*
G02*
X91645000Y-126445000I0J155000D01*
G01*
X91645000Y-126135000D01*
G75*
G02*
X91800000Y-125980000I155000J0D01*
G01*
X92225000Y-125980000D01*
G75*
G02*
X92380000Y-126135000I0J-155000D01*
G01*
G37*
G36*
G01*
X93515000Y-126135000D02*
X93515000Y-126445000D01*
G75*
G02*
X93360000Y-126600000I-155000J0D01*
G01*
X92935000Y-126600000D01*
G75*
G02*
X92780000Y-126445000I0J155000D01*
G01*
X92780000Y-126135000D01*
G75*
G02*
X92935000Y-125980000I155000J0D01*
G01*
X93360000Y-125980000D01*
G75*
G02*
X93515000Y-126135000I0J-155000D01*
G01*
G37*
G36*
G01*
X95220000Y-96325000D02*
X95220000Y-96015000D01*
G75*
G02*
X95375000Y-95860000I155000J0D01*
G01*
X95800000Y-95860000D01*
G75*
G02*
X95955000Y-96015000I0J-155000D01*
G01*
X95955000Y-96325000D01*
G75*
G02*
X95800000Y-96480000I-155000J0D01*
G01*
X95375000Y-96480000D01*
G75*
G02*
X95220000Y-96325000I0J155000D01*
G01*
G37*
G36*
G01*
X94085000Y-96325000D02*
X94085000Y-96015000D01*
G75*
G02*
X94240000Y-95860000I155000J0D01*
G01*
X94665000Y-95860000D01*
G75*
G02*
X94820000Y-96015000I0J-155000D01*
G01*
X94820000Y-96325000D01*
G75*
G02*
X94665000Y-96480000I-155000J0D01*
G01*
X94240000Y-96480000D01*
G75*
G02*
X94085000Y-96325000I0J155000D01*
G01*
G37*
G36*
G01*
X182175000Y-60254999D02*
X182175000Y-62105001D01*
G75*
G02*
X181925001Y-62355000I-249999J0D01*
G01*
X180174999Y-62355000D01*
G75*
G02*
X179925000Y-62105001I0J249999D01*
G01*
X179925000Y-60254999D01*
G75*
G02*
X180174999Y-60005000I249999J0D01*
G01*
X181925001Y-60005000D01*
G75*
G02*
X182175000Y-60254999I0J-249999D01*
G01*
G37*
G36*
G01*
X187275000Y-60254999D02*
X187275000Y-62105001D01*
G75*
G02*
X187025001Y-62355000I-249999J0D01*
G01*
X185274999Y-62355000D01*
G75*
G02*
X185025000Y-62105001I0J249999D01*
G01*
X185025000Y-60254999D01*
G75*
G02*
X185274999Y-60005000I249999J0D01*
G01*
X187025001Y-60005000D01*
G75*
G02*
X187275000Y-60254999I0J-249999D01*
G01*
G37*
G36*
G01*
X177525000Y-61567500D02*
X178475000Y-61567500D01*
G75*
G02*
X178725000Y-61817500I0J-250000D01*
G01*
X178725000Y-62492500D01*
G75*
G02*
X178475000Y-62742500I-250000J0D01*
G01*
X177525000Y-62742500D01*
G75*
G02*
X177275000Y-62492500I0J250000D01*
G01*
X177275000Y-61817500D01*
G75*
G02*
X177525000Y-61567500I250000J0D01*
G01*
G37*
G36*
G01*
X177525000Y-59492500D02*
X178475000Y-59492500D01*
G75*
G02*
X178725000Y-59742500I0J-250000D01*
G01*
X178725000Y-60417500D01*
G75*
G02*
X178475000Y-60667500I-250000J0D01*
G01*
X177525000Y-60667500D01*
G75*
G02*
X177275000Y-60417500I0J250000D01*
G01*
X177275000Y-59742500D01*
G75*
G02*
X177525000Y-59492500I250000J0D01*
G01*
G37*
D27*
X132330000Y-75530000D03*
X132330000Y-71030000D03*
X124370000Y-71030000D03*
X124370000Y-75530000D03*
X132480000Y-66080000D03*
X132480000Y-61580000D03*
X124520000Y-61580000D03*
X124520000Y-66080000D03*
X132480000Y-84030000D03*
X132480000Y-79530000D03*
X124520000Y-79530000D03*
X124520000Y-84030000D03*
D28*
X180500000Y-56155000D03*
X182200000Y-56155000D03*
X183900000Y-56155000D03*
X185600000Y-56155000D03*
X187300000Y-56155000D03*
D29*
X186675000Y-44580000D03*
X181125000Y-49430000D03*
X181125000Y-44580000D03*
X186675000Y-49430000D03*
D30*
X146145000Y-53800000D03*
X146145000Y-52100000D03*
X146145000Y-50400000D03*
X146145000Y-48700000D03*
X146145000Y-47000000D03*
D31*
X134570000Y-47625000D03*
X139420000Y-53175000D03*
X134570000Y-53175000D03*
X139420000Y-47625000D03*
D28*
X120610000Y-120950000D03*
X122310000Y-120950000D03*
X124010000Y-120950000D03*
X125710000Y-120950000D03*
X127410000Y-120950000D03*
D29*
X126785000Y-109375000D03*
X121235000Y-114225000D03*
X121235000Y-109375000D03*
X126785000Y-114225000D03*
G36*
G01*
X134440000Y-62122500D02*
X134760000Y-62122500D01*
G75*
G02*
X134920000Y-62282500I0J-160000D01*
G01*
X134920000Y-62677500D01*
G75*
G02*
X134760000Y-62837500I-160000J0D01*
G01*
X134440000Y-62837500D01*
G75*
G02*
X134280000Y-62677500I0J160000D01*
G01*
X134280000Y-62282500D01*
G75*
G02*
X134440000Y-62122500I160000J0D01*
G01*
G37*
G36*
G01*
X134440000Y-60927500D02*
X134760000Y-60927500D01*
G75*
G02*
X134920000Y-61087500I0J-160000D01*
G01*
X134920000Y-61482500D01*
G75*
G02*
X134760000Y-61642500I-160000J0D01*
G01*
X134440000Y-61642500D01*
G75*
G02*
X134280000Y-61482500I0J160000D01*
G01*
X134280000Y-61087500D01*
G75*
G02*
X134440000Y-60927500I160000J0D01*
G01*
G37*
G36*
G01*
X134040000Y-71620000D02*
X134360000Y-71620000D01*
G75*
G02*
X134520000Y-71780000I0J-160000D01*
G01*
X134520000Y-72175000D01*
G75*
G02*
X134360000Y-72335000I-160000J0D01*
G01*
X134040000Y-72335000D01*
G75*
G02*
X133880000Y-72175000I0J160000D01*
G01*
X133880000Y-71780000D01*
G75*
G02*
X134040000Y-71620000I160000J0D01*
G01*
G37*
G36*
G01*
X134040000Y-70425000D02*
X134360000Y-70425000D01*
G75*
G02*
X134520000Y-70585000I0J-160000D01*
G01*
X134520000Y-70980000D01*
G75*
G02*
X134360000Y-71140000I-160000J0D01*
G01*
X134040000Y-71140000D01*
G75*
G02*
X133880000Y-70980000I0J160000D01*
G01*
X133880000Y-70585000D01*
G75*
G02*
X134040000Y-70425000I160000J0D01*
G01*
G37*
G36*
G01*
X134240000Y-80220000D02*
X134560000Y-80220000D01*
G75*
G02*
X134720000Y-80380000I0J-160000D01*
G01*
X134720000Y-80775000D01*
G75*
G02*
X134560000Y-80935000I-160000J0D01*
G01*
X134240000Y-80935000D01*
G75*
G02*
X134080000Y-80775000I0J160000D01*
G01*
X134080000Y-80380000D01*
G75*
G02*
X134240000Y-80220000I160000J0D01*
G01*
G37*
G36*
G01*
X134240000Y-79025000D02*
X134560000Y-79025000D01*
G75*
G02*
X134720000Y-79185000I0J-160000D01*
G01*
X134720000Y-79580000D01*
G75*
G02*
X134560000Y-79740000I-160000J0D01*
G01*
X134240000Y-79740000D01*
G75*
G02*
X134080000Y-79580000I0J160000D01*
G01*
X134080000Y-79185000D01*
G75*
G02*
X134240000Y-79025000I160000J0D01*
G01*
G37*
G36*
G01*
X151495000Y-43837500D02*
X151495000Y-43362500D01*
G75*
G02*
X151732500Y-43125000I237500J0D01*
G01*
X152232500Y-43125000D01*
G75*
G02*
X152470000Y-43362500I0J-237500D01*
G01*
X152470000Y-43837500D01*
G75*
G02*
X152232500Y-44075000I-237500J0D01*
G01*
X151732500Y-44075000D01*
G75*
G02*
X151495000Y-43837500I0J237500D01*
G01*
G37*
G36*
G01*
X149670000Y-43837500D02*
X149670000Y-43362500D01*
G75*
G02*
X149907500Y-43125000I237500J0D01*
G01*
X150407500Y-43125000D01*
G75*
G02*
X150645000Y-43362500I0J-237500D01*
G01*
X150645000Y-43837500D01*
G75*
G02*
X150407500Y-44075000I-237500J0D01*
G01*
X149907500Y-44075000D01*
G75*
G02*
X149670000Y-43837500I0J237500D01*
G01*
G37*
G36*
G01*
X127972500Y-126212500D02*
X127972500Y-126687500D01*
G75*
G02*
X127735000Y-126925000I-237500J0D01*
G01*
X127235000Y-126925000D01*
G75*
G02*
X126997500Y-126687500I0J237500D01*
G01*
X126997500Y-126212500D01*
G75*
G02*
X127235000Y-125975000I237500J0D01*
G01*
X127735000Y-125975000D01*
G75*
G02*
X127972500Y-126212500I0J-237500D01*
G01*
G37*
G36*
G01*
X129797500Y-126212500D02*
X129797500Y-126687500D01*
G75*
G02*
X129560000Y-126925000I-237500J0D01*
G01*
X129060000Y-126925000D01*
G75*
G02*
X128822500Y-126687500I0J237500D01*
G01*
X128822500Y-126212500D01*
G75*
G02*
X129060000Y-125975000I237500J0D01*
G01*
X129560000Y-125975000D01*
G75*
G02*
X129797500Y-126212500I0J-237500D01*
G01*
G37*
G36*
G01*
X144727500Y-43340000D02*
X144727500Y-43660000D01*
G75*
G02*
X144567500Y-43820000I-160000J0D01*
G01*
X144172500Y-43820000D01*
G75*
G02*
X144012500Y-43660000I0J160000D01*
G01*
X144012500Y-43340000D01*
G75*
G02*
X144172500Y-43180000I160000J0D01*
G01*
X144567500Y-43180000D01*
G75*
G02*
X144727500Y-43340000I0J-160000D01*
G01*
G37*
G36*
G01*
X145922500Y-43340000D02*
X145922500Y-43660000D01*
G75*
G02*
X145762500Y-43820000I-160000J0D01*
G01*
X145367500Y-43820000D01*
G75*
G02*
X145207500Y-43660000I0J160000D01*
G01*
X145207500Y-43340000D01*
G75*
G02*
X145367500Y-43180000I160000J0D01*
G01*
X145762500Y-43180000D01*
G75*
G02*
X145922500Y-43340000I0J-160000D01*
G01*
G37*
G36*
G01*
X147232500Y-43340000D02*
X147232500Y-43660000D01*
G75*
G02*
X147072500Y-43820000I-160000J0D01*
G01*
X146677500Y-43820000D01*
G75*
G02*
X146517500Y-43660000I0J160000D01*
G01*
X146517500Y-43340000D01*
G75*
G02*
X146677500Y-43180000I160000J0D01*
G01*
X147072500Y-43180000D01*
G75*
G02*
X147232500Y-43340000I0J-160000D01*
G01*
G37*
G36*
G01*
X148427500Y-43340000D02*
X148427500Y-43660000D01*
G75*
G02*
X148267500Y-43820000I-160000J0D01*
G01*
X147872500Y-43820000D01*
G75*
G02*
X147712500Y-43660000I0J160000D01*
G01*
X147712500Y-43340000D01*
G75*
G02*
X147872500Y-43180000I160000J0D01*
G01*
X148267500Y-43180000D01*
G75*
G02*
X148427500Y-43340000I0J-160000D01*
G01*
G37*
G36*
G01*
X131047500Y-118337500D02*
X130572500Y-118337500D01*
G75*
G02*
X130335000Y-118100000I0J237500D01*
G01*
X130335000Y-117600000D01*
G75*
G02*
X130572500Y-117362500I237500J0D01*
G01*
X131047500Y-117362500D01*
G75*
G02*
X131285000Y-117600000I0J-237500D01*
G01*
X131285000Y-118100000D01*
G75*
G02*
X131047500Y-118337500I-237500J0D01*
G01*
G37*
G36*
G01*
X131047500Y-120162500D02*
X130572500Y-120162500D01*
G75*
G02*
X130335000Y-119925000I0J237500D01*
G01*
X130335000Y-119425000D01*
G75*
G02*
X130572500Y-119187500I237500J0D01*
G01*
X131047500Y-119187500D01*
G75*
G02*
X131285000Y-119425000I0J-237500D01*
G01*
X131285000Y-119925000D01*
G75*
G02*
X131047500Y-120162500I-237500J0D01*
G01*
G37*
G36*
G01*
X130870000Y-121907500D02*
X130550000Y-121907500D01*
G75*
G02*
X130390000Y-121747500I0J160000D01*
G01*
X130390000Y-121352500D01*
G75*
G02*
X130550000Y-121192500I160000J0D01*
G01*
X130870000Y-121192500D01*
G75*
G02*
X131030000Y-121352500I0J-160000D01*
G01*
X131030000Y-121747500D01*
G75*
G02*
X130870000Y-121907500I-160000J0D01*
G01*
G37*
G36*
G01*
X130870000Y-123102500D02*
X130550000Y-123102500D01*
G75*
G02*
X130390000Y-122942500I0J160000D01*
G01*
X130390000Y-122547500D01*
G75*
G02*
X130550000Y-122387500I160000J0D01*
G01*
X130870000Y-122387500D01*
G75*
G02*
X131030000Y-122547500I0J-160000D01*
G01*
X131030000Y-122942500D01*
G75*
G02*
X130870000Y-123102500I-160000J0D01*
G01*
G37*
G36*
G01*
X147607500Y-56960000D02*
X147607500Y-56640000D01*
G75*
G02*
X147767500Y-56480000I160000J0D01*
G01*
X148162500Y-56480000D01*
G75*
G02*
X148322500Y-56640000I0J-160000D01*
G01*
X148322500Y-56960000D01*
G75*
G02*
X148162500Y-57120000I-160000J0D01*
G01*
X147767500Y-57120000D01*
G75*
G02*
X147607500Y-56960000I0J160000D01*
G01*
G37*
G36*
G01*
X146412500Y-56960000D02*
X146412500Y-56640000D01*
G75*
G02*
X146572500Y-56480000I160000J0D01*
G01*
X146967500Y-56480000D01*
G75*
G02*
X147127500Y-56640000I0J-160000D01*
G01*
X147127500Y-56960000D01*
G75*
G02*
X146967500Y-57120000I-160000J0D01*
G01*
X146572500Y-57120000D01*
G75*
G02*
X146412500Y-56960000I0J160000D01*
G01*
G37*
G36*
G01*
X138045000Y-115287500D02*
X138045000Y-114812500D01*
G75*
G02*
X138282500Y-114575000I237500J0D01*
G01*
X138782500Y-114575000D01*
G75*
G02*
X139020000Y-114812500I0J-237500D01*
G01*
X139020000Y-115287500D01*
G75*
G02*
X138782500Y-115525000I-237500J0D01*
G01*
X138282500Y-115525000D01*
G75*
G02*
X138045000Y-115287500I0J237500D01*
G01*
G37*
G36*
G01*
X136220000Y-115287500D02*
X136220000Y-114812500D01*
G75*
G02*
X136457500Y-114575000I237500J0D01*
G01*
X136957500Y-114575000D01*
G75*
G02*
X137195000Y-114812500I0J-237500D01*
G01*
X137195000Y-115287500D01*
G75*
G02*
X136957500Y-115525000I-237500J0D01*
G01*
X136457500Y-115525000D01*
G75*
G02*
X136220000Y-115287500I0J237500D01*
G01*
G37*
G36*
G01*
X134362500Y-65530000D02*
X134837500Y-65530000D01*
G75*
G02*
X135075000Y-65767500I0J-237500D01*
G01*
X135075000Y-66342500D01*
G75*
G02*
X134837500Y-66580000I-237500J0D01*
G01*
X134362500Y-66580000D01*
G75*
G02*
X134125000Y-66342500I0J237500D01*
G01*
X134125000Y-65767500D01*
G75*
G02*
X134362500Y-65530000I237500J0D01*
G01*
G37*
G36*
G01*
X134362500Y-63780000D02*
X134837500Y-63780000D01*
G75*
G02*
X135075000Y-64017500I0J-237500D01*
G01*
X135075000Y-64592500D01*
G75*
G02*
X134837500Y-64830000I-237500J0D01*
G01*
X134362500Y-64830000D01*
G75*
G02*
X134125000Y-64592500I0J237500D01*
G01*
X134125000Y-64017500D01*
G75*
G02*
X134362500Y-63780000I237500J0D01*
G01*
G37*
G36*
G01*
X134162500Y-75030000D02*
X134637500Y-75030000D01*
G75*
G02*
X134875000Y-75267500I0J-237500D01*
G01*
X134875000Y-75842500D01*
G75*
G02*
X134637500Y-76080000I-237500J0D01*
G01*
X134162500Y-76080000D01*
G75*
G02*
X133925000Y-75842500I0J237500D01*
G01*
X133925000Y-75267500D01*
G75*
G02*
X134162500Y-75030000I237500J0D01*
G01*
G37*
G36*
G01*
X134162500Y-73280000D02*
X134637500Y-73280000D01*
G75*
G02*
X134875000Y-73517500I0J-237500D01*
G01*
X134875000Y-74092500D01*
G75*
G02*
X134637500Y-74330000I-237500J0D01*
G01*
X134162500Y-74330000D01*
G75*
G02*
X133925000Y-74092500I0J237500D01*
G01*
X133925000Y-73517500D01*
G75*
G02*
X134162500Y-73280000I237500J0D01*
G01*
G37*
G36*
G01*
X134262500Y-83305000D02*
X134737500Y-83305000D01*
G75*
G02*
X134975000Y-83542500I0J-237500D01*
G01*
X134975000Y-84117500D01*
G75*
G02*
X134737500Y-84355000I-237500J0D01*
G01*
X134262500Y-84355000D01*
G75*
G02*
X134025000Y-84117500I0J237500D01*
G01*
X134025000Y-83542500D01*
G75*
G02*
X134262500Y-83305000I237500J0D01*
G01*
G37*
G36*
G01*
X134262500Y-81555000D02*
X134737500Y-81555000D01*
G75*
G02*
X134975000Y-81792500I0J-237500D01*
G01*
X134975000Y-82367500D01*
G75*
G02*
X134737500Y-82605000I-237500J0D01*
G01*
X134262500Y-82605000D01*
G75*
G02*
X134025000Y-82367500I0J237500D01*
G01*
X134025000Y-81792500D01*
G75*
G02*
X134262500Y-81555000I237500J0D01*
G01*
G37*
G36*
G01*
X150695000Y-45362500D02*
X150695000Y-45837500D01*
G75*
G02*
X150457500Y-46075000I-237500J0D01*
G01*
X149882500Y-46075000D01*
G75*
G02*
X149645000Y-45837500I0J237500D01*
G01*
X149645000Y-45362500D01*
G75*
G02*
X149882500Y-45125000I237500J0D01*
G01*
X150457500Y-45125000D01*
G75*
G02*
X150695000Y-45362500I0J-237500D01*
G01*
G37*
G36*
G01*
X152445000Y-45362500D02*
X152445000Y-45837500D01*
G75*
G02*
X152207500Y-46075000I-237500J0D01*
G01*
X151632500Y-46075000D01*
G75*
G02*
X151395000Y-45837500I0J237500D01*
G01*
X151395000Y-45362500D01*
G75*
G02*
X151632500Y-45125000I237500J0D01*
G01*
X152207500Y-45125000D01*
G75*
G02*
X152445000Y-45362500I0J-237500D01*
G01*
G37*
G36*
G01*
X128060000Y-124412500D02*
X128060000Y-124887500D01*
G75*
G02*
X127822500Y-125125000I-237500J0D01*
G01*
X127247500Y-125125000D01*
G75*
G02*
X127010000Y-124887500I0J237500D01*
G01*
X127010000Y-124412500D01*
G75*
G02*
X127247500Y-124175000I237500J0D01*
G01*
X127822500Y-124175000D01*
G75*
G02*
X128060000Y-124412500I0J-237500D01*
G01*
G37*
G36*
G01*
X129810000Y-124412500D02*
X129810000Y-124887500D01*
G75*
G02*
X129572500Y-125125000I-237500J0D01*
G01*
X128997500Y-125125000D01*
G75*
G02*
X128760000Y-124887500I0J237500D01*
G01*
X128760000Y-124412500D01*
G75*
G02*
X128997500Y-124175000I237500J0D01*
G01*
X129572500Y-124175000D01*
G75*
G02*
X129810000Y-124412500I0J-237500D01*
G01*
G37*
G36*
G01*
X133670000Y-114812500D02*
X133670000Y-115287500D01*
G75*
G02*
X133432500Y-115525000I-237500J0D01*
G01*
X132857500Y-115525000D01*
G75*
G02*
X132620000Y-115287500I0J237500D01*
G01*
X132620000Y-114812500D01*
G75*
G02*
X132857500Y-114575000I237500J0D01*
G01*
X133432500Y-114575000D01*
G75*
G02*
X133670000Y-114812500I0J-237500D01*
G01*
G37*
G36*
G01*
X135420000Y-114812500D02*
X135420000Y-115287500D01*
G75*
G02*
X135182500Y-115525000I-237500J0D01*
G01*
X134607500Y-115525000D01*
G75*
G02*
X134370000Y-115287500I0J237500D01*
G01*
X134370000Y-114812500D01*
G75*
G02*
X134607500Y-114575000I237500J0D01*
G01*
X135182500Y-114575000D01*
G75*
G02*
X135420000Y-114812500I0J-237500D01*
G01*
G37*
D32*
X114640000Y-120620000D03*
X114640000Y-126020000D03*
G36*
G01*
X110340000Y-100450000D02*
X110340000Y-98450000D01*
G75*
G02*
X110590000Y-98200000I250000J0D01*
G01*
X114090000Y-98200000D01*
G75*
G02*
X114340000Y-98450000I0J-250000D01*
G01*
X114340000Y-100450000D01*
G75*
G02*
X114090000Y-100700000I-250000J0D01*
G01*
X110590000Y-100700000D01*
G75*
G02*
X110340000Y-100450000I0J250000D01*
G01*
G37*
G36*
G01*
X102340000Y-100450000D02*
X102340000Y-98450000D01*
G75*
G02*
X102590000Y-98200000I250000J0D01*
G01*
X106090000Y-98200000D01*
G75*
G02*
X106340000Y-98450000I0J-250000D01*
G01*
X106340000Y-100450000D01*
G75*
G02*
X106090000Y-100700000I-250000J0D01*
G01*
X102590000Y-100700000D01*
G75*
G02*
X102340000Y-100450000I0J250000D01*
G01*
G37*
G36*
G01*
X116965000Y-115330000D02*
X116015000Y-115330000D01*
G75*
G02*
X115765000Y-115080000I0J250000D01*
G01*
X115765000Y-114405000D01*
G75*
G02*
X116015000Y-114155000I250000J0D01*
G01*
X116965000Y-114155000D01*
G75*
G02*
X117215000Y-114405000I0J-250000D01*
G01*
X117215000Y-115080000D01*
G75*
G02*
X116965000Y-115330000I-250000J0D01*
G01*
G37*
G36*
G01*
X116965000Y-117405000D02*
X116015000Y-117405000D01*
G75*
G02*
X115765000Y-117155000I0J250000D01*
G01*
X115765000Y-116480000D01*
G75*
G02*
X116015000Y-116230000I250000J0D01*
G01*
X116965000Y-116230000D01*
G75*
G02*
X117215000Y-116480000I0J-250000D01*
G01*
X117215000Y-117155000D01*
G75*
G02*
X116965000Y-117405000I-250000J0D01*
G01*
G37*
G36*
G01*
X150144999Y-52225000D02*
X151995001Y-52225000D01*
G75*
G02*
X152245000Y-52474999I0J-249999D01*
G01*
X152245000Y-54225001D01*
G75*
G02*
X151995001Y-54475000I-249999J0D01*
G01*
X150144999Y-54475000D01*
G75*
G02*
X149895000Y-54225001I0J249999D01*
G01*
X149895000Y-52474999D01*
G75*
G02*
X150144999Y-52225000I249999J0D01*
G01*
G37*
G36*
G01*
X150144999Y-47125000D02*
X151995001Y-47125000D01*
G75*
G02*
X152245000Y-47374999I0J-249999D01*
G01*
X152245000Y-49125001D01*
G75*
G02*
X151995001Y-49375000I-249999J0D01*
G01*
X150144999Y-49375000D01*
G75*
G02*
X149895000Y-49125001I0J249999D01*
G01*
X149895000Y-47374999D01*
G75*
G02*
X150144999Y-47125000I249999J0D01*
G01*
G37*
G36*
G01*
X120885000Y-124824999D02*
X120885000Y-126675001D01*
G75*
G02*
X120635001Y-126925000I-249999J0D01*
G01*
X118884999Y-126925000D01*
G75*
G02*
X118635000Y-126675001I0J249999D01*
G01*
X118635000Y-124824999D01*
G75*
G02*
X118884999Y-124575000I249999J0D01*
G01*
X120635001Y-124575000D01*
G75*
G02*
X120885000Y-124824999I0J-249999D01*
G01*
G37*
G36*
G01*
X125985000Y-124824999D02*
X125985000Y-126675001D01*
G75*
G02*
X125735001Y-126925000I-249999J0D01*
G01*
X123984999Y-126925000D01*
G75*
G02*
X123735000Y-126675001I0J249999D01*
G01*
X123735000Y-124824999D01*
G75*
G02*
X123984999Y-124575000I249999J0D01*
G01*
X125735001Y-124575000D01*
G75*
G02*
X125985000Y-124824999I0J-249999D01*
G01*
G37*
G36*
G01*
X151420000Y-56775000D02*
X151420000Y-55825000D01*
G75*
G02*
X151670000Y-55575000I250000J0D01*
G01*
X152345000Y-55575000D01*
G75*
G02*
X152595000Y-55825000I0J-250000D01*
G01*
X152595000Y-56775000D01*
G75*
G02*
X152345000Y-57025000I-250000J0D01*
G01*
X151670000Y-57025000D01*
G75*
G02*
X151420000Y-56775000I0J250000D01*
G01*
G37*
G36*
G01*
X149345000Y-56775000D02*
X149345000Y-55825000D01*
G75*
G02*
X149595000Y-55575000I250000J0D01*
G01*
X150270000Y-55575000D01*
G75*
G02*
X150520000Y-55825000I0J-250000D01*
G01*
X150520000Y-56775000D01*
G75*
G02*
X150270000Y-57025000I-250000J0D01*
G01*
X149595000Y-57025000D01*
G75*
G02*
X149345000Y-56775000I0J250000D01*
G01*
G37*
G36*
G01*
X140625000Y-118300000D02*
X141575000Y-118300000D01*
G75*
G02*
X141825000Y-118550000I0J-250000D01*
G01*
X141825000Y-119225000D01*
G75*
G02*
X141575000Y-119475000I-250000J0D01*
G01*
X140625000Y-119475000D01*
G75*
G02*
X140375000Y-119225000I0J250000D01*
G01*
X140375000Y-118550000D01*
G75*
G02*
X140625000Y-118300000I250000J0D01*
G01*
G37*
G36*
G01*
X140625000Y-116225000D02*
X141575000Y-116225000D01*
G75*
G02*
X141825000Y-116475000I0J-250000D01*
G01*
X141825000Y-117150000D01*
G75*
G02*
X141575000Y-117400000I-250000J0D01*
G01*
X140625000Y-117400000D01*
G75*
G02*
X140375000Y-117150000I0J250000D01*
G01*
X140375000Y-116475000D01*
G75*
G02*
X140625000Y-116225000I250000J0D01*
G01*
G37*
G36*
G01*
X141575000Y-122100000D02*
X140625000Y-122100000D01*
G75*
G02*
X140375000Y-121850000I0J250000D01*
G01*
X140375000Y-121175000D01*
G75*
G02*
X140625000Y-120925000I250000J0D01*
G01*
X141575000Y-120925000D01*
G75*
G02*
X141825000Y-121175000I0J-250000D01*
G01*
X141825000Y-121850000D01*
G75*
G02*
X141575000Y-122100000I-250000J0D01*
G01*
G37*
G36*
G01*
X141575000Y-124175000D02*
X140625000Y-124175000D01*
G75*
G02*
X140375000Y-123925000I0J250000D01*
G01*
X140375000Y-123250000D01*
G75*
G02*
X140625000Y-123000000I250000J0D01*
G01*
X141575000Y-123000000D01*
G75*
G02*
X141825000Y-123250000I0J-250000D01*
G01*
X141825000Y-123925000D01*
G75*
G02*
X141575000Y-124175000I-250000J0D01*
G01*
G37*
G36*
G01*
X186800000Y-136230000D02*
X188800000Y-136230000D01*
G75*
G02*
X189050000Y-136480000I0J-250000D01*
G01*
X189050000Y-139980000D01*
G75*
G02*
X188800000Y-140230000I-250000J0D01*
G01*
X186800000Y-140230000D01*
G75*
G02*
X186550000Y-139980000I0J250000D01*
G01*
X186550000Y-136480000D01*
G75*
G02*
X186800000Y-136230000I250000J0D01*
G01*
G37*
G36*
G01*
X186800000Y-128230000D02*
X188800000Y-128230000D01*
G75*
G02*
X189050000Y-128480000I0J-250000D01*
G01*
X189050000Y-131980000D01*
G75*
G02*
X188800000Y-132230000I-250000J0D01*
G01*
X186800000Y-132230000D01*
G75*
G02*
X186550000Y-131980000I0J250000D01*
G01*
X186550000Y-128480000D01*
G75*
G02*
X186800000Y-128230000I250000J0D01*
G01*
G37*
G36*
G01*
X174500000Y-136250000D02*
X176500000Y-136250000D01*
G75*
G02*
X176750000Y-136500000I0J-250000D01*
G01*
X176750000Y-140000000D01*
G75*
G02*
X176500000Y-140250000I-250000J0D01*
G01*
X174500000Y-140250000D01*
G75*
G02*
X174250000Y-140000000I0J250000D01*
G01*
X174250000Y-136500000D01*
G75*
G02*
X174500000Y-136250000I250000J0D01*
G01*
G37*
G36*
G01*
X174500000Y-128250000D02*
X176500000Y-128250000D01*
G75*
G02*
X176750000Y-128500000I0J-250000D01*
G01*
X176750000Y-132000000D01*
G75*
G02*
X176500000Y-132250000I-250000J0D01*
G01*
X174500000Y-132250000D01*
G75*
G02*
X174250000Y-132000000I0J250000D01*
G01*
X174250000Y-128500000D01*
G75*
G02*
X174500000Y-128250000I250000J0D01*
G01*
G37*
M02*
