M48
; DRILL file {KiCad 5.1.7-a382d34a8~88~ubuntu20.04.1} date Mon Mar 15 07:13:05 2021
; FORMAT={-:-/ absolute / inch / decimal}
; #@! TF.CreationDate,2021-03-15T07:13:05-05:00
; #@! TF.GenerationSoftware,Kicad,Pcbnew,5.1.7-a382d34a8~88~ubuntu20.04.1
; #@! TF.FileFunction,Plated,1,4,PTH
FMAT,2
INCH
T1C0.0157
T2C0.0236
T3C0.0276
T4C0.0300
T5C0.0354
T6C0.0394
T7C0.0472
T8C0.0492
T9C0.0551
T10C0.0591
T11C0.1083
%
G90
G05
T1
X3.679Y-3.9707
X3.7441Y-3.75
X3.9039Y-3.313
X3.9756Y-3.3142
X4.0189Y-3.8331
X4.037Y-4.4622
X4.9555Y-2.4268
X5.1303Y-2.687
X5.1343Y-2.8256
X5.1689Y-2.4264
X5.3142Y-3.7409
X5.3161Y-2.6748
X5.324Y-3.0602
X5.3407Y-2.7222
X5.3407Y-2.7976
X5.3591Y-3.6988
X5.3992Y-3.8693
X5.4197Y-3.3303
X5.4236Y-3.0346
X5.424Y-3.1138
X5.428Y-3.9031
X5.4627Y-3.307
X5.4661Y-3.265
X5.4697Y-4.0736
X5.478Y-2.9791
X5.4913Y-3.3854
X5.498Y-4.5295
X5.5126Y-3.3496
X5.5299Y-3.1114
X5.5348Y-3.2044
X5.6244Y-3.5311
X5.6484Y-1.7134
X5.6551Y-3.7339
X5.6685Y-3.2154
X5.7059Y-3.4244
X5.7335Y-3.2472
X5.7496Y-4.3197
X5.7501Y-3.2821
X5.7618Y-3.6933
X5.7678Y-3.2297
X5.7843Y-4.9961
X5.8067Y-3.3165
X5.8843Y-4.9217
X5.9051Y-4.0969
X5.9205Y-4.8907
X5.9298Y-4.0773
X6.0077Y-4.228
X6.0077Y-4.2686
X6.0079Y-4.526
X6.013Y-3.9846
X6.0224Y-4.1757
X6.0268Y-1.6776
X6.0323Y-4.9976
X6.0846Y-4.1421
X6.0906Y-2.9386
X6.0929Y-3.8059
X6.1075Y-4.1189
X6.1122Y-3.6134
X6.1327Y-4.9165
X6.1339Y-4.161
X6.1362Y-4.2523
X6.1372Y-4.2952
X6.1492Y-2.7862
X6.1701Y-4.8854
X6.1707Y-3.7492
X6.1715Y-3.3778
X6.1754Y-3.9401
X6.1882Y-2.9055
X6.1925Y-3.2594
X6.213Y-3.863
X6.2161Y-3.5547
X6.218Y-3.6726
X6.2465Y-3.637
X6.3358Y-2.9685
X6.3417Y-2.8606
X6.3476Y-5.1701
X6.35Y-3.6386
X6.3575Y-3.2587
X6.3579Y-4.7764
X6.3618Y-4.6276
X6.362Y-3.4154
X6.3634Y-3.3114
X6.3634Y-4.8571
X6.3638Y-3.348
X6.3669Y-3.0098
X6.3673Y-3.1843
X6.3772Y-4.0091
X6.3854Y-5.3047
X6.3953Y-5.2406
X6.3972Y-3.4008
X6.4031Y-3.7134
X6.4035Y-4.8575
X6.4063Y-5.0114
X6.4177Y-4.6295
X6.4185Y-3.6035
X6.4213Y-2.9571
X6.4224Y-5.0484
X6.4311Y-4.7823
X6.4433Y-4.8437
X6.4523Y-3.3286
X6.4572Y-3.5147
X6.4681Y-4.6335
X6.472Y-5.2453
X6.4824Y-3.3046
X6.4839Y-3.3675
X6.4839Y-3.2579
X6.4921Y-3.2248
X6.4982Y-2.9239
X6.5Y-3.3307
X6.5004Y-3.1827
X6.5059Y-5.3154
X6.513Y-4.6307
X6.5274Y-5.0411
X6.5613Y-4.9562
X6.5678Y-4.6921
X6.5881Y-4.8134
X6.5945Y-2.8606
X6.5966Y-4.592
X6.613Y-4.7876
X6.6304Y-4.5061
X6.634Y-5.3175
X6.6425Y-2.739
X6.6457Y-4.9134
X6.6528Y-4.9736
X6.6703Y-4.585
X6.6728Y-5.2417
X6.6793Y-5.1819
X6.724Y-4.3984
X6.7262Y-4.6606
X6.7353Y-4.819
X6.7921Y-4.5008
X6.7972Y-3.9528
X6.839Y-4.5217
X6.8555Y-4.7547
X6.8575Y-3.3262
X6.8591Y-4.6957
X6.8866Y-3.3016
X6.8874Y-4.1315
X6.8951Y-2.4551
X6.8969Y-3.9539
X6.9087Y-2.8071
X6.9165Y-4.1626
X6.9205Y-4.6803
X6.9465Y-3.3185
X6.9476Y-2.2256
X6.985Y-2.3138
X7.0075Y-2.9413
X7.0091Y-4.4937
X7.0417Y-4.2402
X7.0461Y-4.3417
X7.0657Y-4.0047
X7.0894Y-3.1433
X7.0913Y-4.3319
X7.0957Y-2.8508
X7.098Y-4.4461
X7.1079Y-3.8846
X7.1551Y-2.9551
X7.1669Y-3.6087
X7.2201Y-4.1205
X7.2283Y-3.3047
X7.2374Y-4.8724
X7.2377Y-4.2744
X7.2539Y-2.948
X7.2539Y-3.3469
X7.2748Y-3.1409
X7.2843Y-4.1209
X7.3209Y-3.7398
X7.361Y-4.7768
X7.3642Y-4.8283
X7.372Y-4.2429
X7.3776Y-3.7024
X7.3827Y-4.4831
X7.3894Y-3.5406
X7.3925Y-3.8732
X7.3984Y-4.6933
X7.4028Y-3.9663
X7.4772Y-2.3602
X7.5555Y-2.5063
X7.5892Y-4.8156
X7.6102Y-4.7891
X7.6516Y-2.235
X7.6626Y-2.0933
X7.6795Y-5.0154
X7.7142Y-2.3579
X7.7898Y-2.3402
X7.7917Y-2.4665
X7.7972Y-3.7055
X7.7984Y-1.9563
X7.8252Y-3.9102
X7.8508Y-2.4902
X7.8622Y-3.9161
X7.872Y-2.3933
X7.9122Y-3.7539
X7.9394Y-4.154
X7.9398Y-3.5283
X7.978Y-2.2866
X8.0004Y-2.3996
X8.0063Y-2.1992
X8.0622Y-2.0984
X8.2811Y-4.0756
T2
X3.5561Y-3.7363
X3.6482Y-3.8814
X3.6555Y-5.1409
X3.6677Y-4.9327
X3.7228Y-3.8244
X3.723Y-4.3619
X3.7701Y-7.0087
X3.8307Y-7.2209
X3.8642Y-3.8681
X3.8906Y-7.2945
X3.9633Y-3.7679
X3.9886Y-7.2622
X4.0689Y-7.0161
X4.089Y-7.2984
X4.1445Y-2.1409
X4.2114Y-7.3291
X4.5606Y-7.4713
X4.5841Y-7.2602
X4.654Y-7.3483
X4.7496Y-4.0193
X4.785Y-4.0197
X4.8757Y-7.199
X4.924Y-3.8154
X4.9272Y-3.5173
X4.9539Y-2.9732
X4.9602Y-2.5992
X4.9626Y-3.3071
X5.0835Y-7.0236
X5.1039Y-6.978
X5.1504Y-2.9717
X5.1555Y-3.3075
X5.1571Y-2.6024
X5.3063Y-3.5169
X5.3063Y-3.8169
X5.3339Y-2.9772
X5.3437Y-3.3039
X5.3874Y-2.8209
X5.3949Y-2.8992
X5.6327Y-3.863
X5.6331Y-3.663
X5.6587Y-2.811
X5.6602Y-2.861
X5.7039Y-3.5709
X5.7163Y-4.2429
X5.7602Y-4.5465
X5.7634Y-4.4333
X5.848Y-3.1224
X5.8488Y-3.0835
X5.8665Y-3.665
X5.8689Y-3.8654
X5.889Y-3.0835
X5.8898Y-3.1256
X5.8899Y-4.669
X5.928Y-3.087
X5.9291Y-3.1268
X5.9409Y-4.7097
X6.1937Y-2.8134
X6.2508Y-3.8461
X6.3118Y-3.8713
X6.3244Y-7.0051
X6.3346Y-2.8126
X6.4291Y-3.7972
X6.535Y-3.6854
X6.5496Y-3.9126
X6.5618Y-4.4652
X6.5742Y-4.3073
X6.586Y-4.1317
X6.5925Y-3.7264
X6.5925Y-3.8484
X6.6272Y-3.1398
X6.6299Y-3.3831
X6.6579Y-3.6642
X6.6846Y-4.0528
X6.7953Y-4.0535
X6.8169Y-4.6429
X6.8317Y-3.39
X6.85Y-4.2561
X6.8508Y-3.8945
X6.8579Y-2.8992
X6.8894Y-4.0039
X6.8988Y-4.3671
X6.9071Y-4.5925
X6.9244Y-3.5209
X6.9878Y-3.8551
X6.9933Y-3.0244
X7.0015Y-3.9896
X7.0114Y-4.5823
X7.0176Y-3.7317
X7.0374Y-3.4256
X7.0508Y-3.5228
X7.069Y-4.0726
X7.0792Y-3.3556
X7.0801Y-4.6494
X7.1311Y-3.4756
X7.1331Y-3.4252
X7.1769Y-4.8661
X7.1878Y-4.6433
X7.1949Y-4.0697
X7.1972Y-2.6984
X7.2425Y-4.4827
X7.2457Y-3.0201
X7.2512Y-3.688
X7.2547Y-3.4752
X7.2581Y-3.878
X7.274Y-2.6984
X7.2768Y-4.5937
X7.2802Y-4.0222
X7.3531Y-3.7811
X7.3551Y-3.6685
X7.3992Y-4.5953
X7.4012Y-4.0248
X7.5004Y-2.4402
X7.6142Y-2.2929
X7.8949Y-2.022
X8.0316Y-2.0292
X8.1394Y-5.1866
X8.198Y-1.9504
X8.2106Y-5.0236
X8.2161Y-2.0618
X8.2201Y-2.1354
T3
X4.4425Y-4.748
X4.5276Y-4.5988
X4.5874Y-4.7492
X4.7492Y-4.6417
X4.8165Y-4.6374
X4.8823Y-4.6319
X5.157Y-4.6124
X5.2642Y-4.8276
X5.265Y-4.7791
X5.3539Y-4.7189
X5.3543Y-4.7689
X5.3547Y-4.8217
X5.6154Y-4.6835
X5.6173Y-4.7795
X5.6335Y-2.0516
X5.903Y-4.5783
X5.9055Y-2.272
X5.9055Y-4.5311
X6.1296Y-4.7809
X6.1394Y-4.6307
X6.5409Y-2.3492
X6.5425Y-2.3004
X6.5551Y-2.2224
X6.828Y-2.5441
X6.8801Y-2.6547
X6.9699Y-2.4874
X7.2035Y-2.3921
X7.2358Y-2.3386
X7.385Y-2.4933
X7.4524Y-2.637
X7.8251Y-1.8687
X7.8561Y-1.8207
X7.8881Y-1.8687
X7.9201Y-1.8217
X7.9511Y-1.8687
T4
X3.6063Y-3.9633
X3.6063Y-4.0423
X3.6063Y-4.1208
X3.6063Y-4.1998
X3.6063Y-4.2783
X3.6063Y-4.3573
X3.6063Y-4.4358
X3.6063Y-4.5148
X3.6063Y-4.5933
X3.6063Y-4.6723
X3.6063Y-4.7508
X3.6063Y-4.8298
X3.7638Y-3.9243
X3.7638Y-4.0028
X3.7638Y-4.0818
X3.7638Y-4.1603
X3.7638Y-4.2393
X3.7638Y-4.3178
X3.7638Y-4.3968
X3.7638Y-4.4753
X3.7638Y-4.5543
X3.7638Y-4.6328
X3.7638Y-4.7118
X3.7638Y-4.7903
X3.7638Y-4.8693
T6
X4.8114Y-4.4358
X4.8146Y-4.3504
X4.8791Y-4.4335
X4.8807Y-4.3531
X4.9469Y-4.4323
X4.9488Y-4.3543
X5.3469Y-2.0705
X5.3476Y-1.9382
X5.3535Y-2.002
X5.435Y-2.0764
X5.4394Y-1.9358
X5.4394Y-2.0075
X7.1276Y-2.4898
X7.1768Y-1.8811
X7.1783Y-1.7902
X7.2413Y-1.7933
X7.2984Y-1.8811
X7.3087Y-1.7961
X7.5457Y-1.7957
X7.5457Y-1.8957
X7.6457Y-1.7957
X7.6457Y-1.8957
X3.563Y-2.1016
X3.663Y-2.1016
X3.763Y-2.1016
X3.863Y-2.1016
X3.963Y-2.1016
X5.5287Y-5.9024
X5.6287Y-5.9024
X5.7287Y-5.9024
X5.8287Y-5.9024
X5.9287Y-5.9024
X6.0287Y-5.9024
X6.1287Y-5.9024
X6.2287Y-5.9024
X4.1169Y-6.2949
X4.2169Y-6.2949
X4.3169Y-6.2949
X4.4169Y-6.2949
X4.5169Y-6.2949
X4.6169Y-6.2949
X4.7169Y-6.2949
X4.8169Y-6.2949
X3.8213Y-7.1425
X3.9213Y-7.1425
X4.0213Y-7.1425
X4.1213Y-7.1425
X4.2213Y-7.1425
X4.3213Y-7.1425
X4.4213Y-7.1425
X4.5213Y-7.1425
X4.6213Y-7.1425
X4.7213Y-7.1425
X4.8213Y-7.1425
X4.9213Y-7.1425
X5.0213Y-7.1425
X5.1213Y-7.1425
X5.2213Y-7.1425
X5.3213Y-7.1425
X5.4213Y-7.1425
X5.5213Y-7.1425
X5.6213Y-7.1425
X5.7213Y-7.1425
X8.0327Y-2.7185
X8.0327Y-2.8185
X8.0327Y-2.9185
X8.0327Y-3.0185
X8.0327Y-3.1185
X8.0327Y-3.2185
X8.0327Y-3.3185
X8.0327Y-3.4185
X8.0327Y-3.5185
X8.0327Y-3.6185
X8.0327Y-3.7185
X8.0327Y-3.8185
X8.0327Y-3.9185
X8.0327Y-4.0185
X8.0327Y-4.1185
X8.0327Y-4.2185
X8.0327Y-4.3185
X8.0327Y-4.4185
X8.0327Y-4.5185
X8.0327Y-4.6185
X8.1327Y-2.7185
X8.1327Y-2.8185
X8.1327Y-2.9185
X8.1327Y-3.0185
X8.1327Y-3.1185
X8.1327Y-3.2185
X8.1327Y-3.3185
X8.1327Y-3.4185
X8.1327Y-3.5185
X8.1327Y-3.6185
X8.1327Y-3.7185
X8.1327Y-3.8185
X8.1327Y-3.9185
X8.1327Y-4.0185
X8.1327Y-4.1185
X8.1327Y-4.2185
X8.1327Y-4.3185
X8.1327Y-4.4185
X8.1327Y-4.5185
X8.1327Y-4.6185
X6.0638Y-7.985
X6.1638Y-7.985
X6.2638Y-7.985
X6.3638Y-7.985
X6.4638Y-7.985
X6.5638Y-7.985
X6.6638Y-7.985
X6.7638Y-7.985
X6.8638Y-7.985
X6.9638Y-7.985
X7.0638Y-7.985
X7.1638Y-7.985
X7.2638Y-7.985
X7.3638Y-7.985
X7.4638Y-7.985
X7.5638Y-7.985
X7.6638Y-7.985
X7.7638Y-7.985
X7.8638Y-7.985
X7.9638Y-7.985
X3.8189Y-7.6228
X3.8189Y-7.7228
X3.9189Y-7.6228
X3.9189Y-7.7228
X4.0189Y-7.6228
X4.0189Y-7.7228
X4.1189Y-7.6228
X4.1189Y-7.7228
X4.2189Y-7.6228
X4.2189Y-7.7228
X4.3189Y-7.6228
X4.3189Y-7.7228
X4.4189Y-7.6228
X4.4189Y-7.7228
X4.5189Y-7.6228
X4.5189Y-7.7228
X4.6189Y-7.6228
X4.6189Y-7.7228
X4.7189Y-7.6228
X4.7189Y-7.7228
X4.8189Y-7.6228
X4.8189Y-7.7228
X4.9189Y-7.6228
X4.9189Y-7.7228
X5.0189Y-7.6228
X5.0189Y-7.7228
X5.1189Y-7.6228
X5.1189Y-7.7228
X5.2189Y-7.6228
X5.2189Y-7.7228
X5.3189Y-7.6228
X5.3189Y-7.7228
X5.4189Y-7.6228
X5.4189Y-7.7228
X5.5189Y-7.6228
X5.5189Y-7.7228
X5.6189Y-7.6228
X5.6189Y-7.7228
X5.7189Y-7.6228
X5.7189Y-7.7228
X6.4272Y-6.8102
X6.4272Y-6.9102
X6.5272Y-6.8102
X6.5272Y-6.9102
X6.6272Y-6.8102
X6.6272Y-6.9102
X6.7272Y-6.8102
X6.7272Y-6.9102
X6.8996Y-6.8102
X6.8996Y-6.9102
X6.9996Y-6.8102
X6.9996Y-6.9102
X7.0996Y-6.8102
X7.0996Y-6.9102
X7.1996Y-6.8102
X7.1996Y-6.9102
X7.4252Y-6.8102
X7.4252Y-6.9102
X7.5252Y-6.8102
X7.5252Y-6.9102
X7.6252Y-6.8102
X7.6252Y-6.9102
X7.7252Y-6.8102
X7.7252Y-6.9102
X6.5512Y-6.6504
X6.6512Y-6.6504
X6.7512Y-6.6504
X6.8512Y-6.6504
X6.9512Y-6.6504
X7.0512Y-6.6504
X7.1512Y-6.6504
X7.2512Y-6.6504
X7.3512Y-6.6504
X7.4512Y-6.6504
X7.5512Y-6.6504
X7.6512Y-6.6504
X5.4949Y-6.0681
X5.4949Y-6.1681
X5.5949Y-6.0681
X5.5949Y-6.1681
X5.6949Y-6.0681
X5.6949Y-6.1681
X5.7949Y-6.0681
X5.7949Y-6.1681
X5.9673Y-6.0681
X5.9673Y-6.1681
X6.0673Y-6.0681
X6.0673Y-6.1681
X6.1673Y-6.0681
X6.1673Y-6.1681
X6.2673Y-6.0681
X6.2673Y-6.1681
X4.1189Y-5.8996
X4.2189Y-5.8996
X4.3189Y-5.8996
X4.4189Y-5.8996
X4.5189Y-5.8996
X4.6189Y-5.8996
X4.7189Y-5.8996
X4.8189Y-5.8996
X4.0906Y-5.2512
X4.0906Y-5.3512
X4.1906Y-5.2512
X4.1906Y-5.3512
X4.2906Y-5.2512
X4.2906Y-5.3512
X4.3906Y-5.2512
X4.3906Y-5.3512
X4.4906Y-5.2512
X4.4906Y-5.3512
X4.5906Y-5.2512
X4.5906Y-5.3512
X4.6906Y-5.2512
X4.6906Y-5.3512
X4.7906Y-5.2512
X4.7906Y-5.3512
X4.8906Y-5.2512
X4.8906Y-5.3512
X4.9906Y-5.2512
X4.9906Y-5.3512
X5.0906Y-5.2512
X5.0906Y-5.3512
X5.1906Y-5.2512
X5.1906Y-5.3512
X5.2906Y-5.2512
X5.2906Y-5.3512
X5.3906Y-5.2512
X5.3906Y-5.3512
X5.4906Y-5.2512
X5.4906Y-5.3512
X5.5906Y-5.2512
X5.5906Y-5.3512
X5.6906Y-5.2512
X5.6906Y-5.3512
X5.7906Y-5.2512
X5.7906Y-5.3512
X5.8906Y-5.2512
X5.8906Y-5.3512
X5.9906Y-5.2512
X5.9906Y-5.3512
X6.5669Y-7.0756
X6.6669Y-7.0756
X6.7669Y-7.0756
X6.8669Y-7.0756
X6.9669Y-7.0756
X7.0669Y-7.0756
X7.1669Y-7.0756
X7.2669Y-7.0756
X7.3669Y-7.0756
X7.4669Y-7.0756
X7.5669Y-7.0756
X7.6669Y-7.0756
X6.2228Y-7.3984
X6.3228Y-7.3984
X6.4228Y-7.3984
X6.5228Y-7.3984
X6.6228Y-7.3984
X6.7228Y-7.3984
X6.8228Y-7.3984
X6.9228Y-7.3984
X7.0228Y-7.3984
X7.1228Y-7.3984
X7.2228Y-7.3984
X7.3228Y-7.3984
X7.4228Y-7.3984
X7.5228Y-7.3984
X7.6228Y-7.3984
X7.7228Y-7.3984
X7.8228Y-7.3984
X7.9228Y-7.3984
X8.0228Y-7.3984
X8.1228Y-7.3984
X3.8638Y-6.7917
X3.8638Y-6.8917
X3.9638Y-6.7917
X3.9638Y-6.8917
X4.0638Y-6.7917
X4.0638Y-6.8917
X4.1638Y-6.7917
X4.1638Y-6.8917
X4.2638Y-6.7917
X4.2638Y-6.8917
X4.3638Y-6.7917
X4.3638Y-6.8917
X4.4638Y-6.7917
X4.4638Y-6.8917
X4.5638Y-6.7917
X4.5638Y-6.8917
X4.6638Y-6.7917
X4.6638Y-6.8917
X4.7638Y-6.7917
X4.7638Y-6.8917
X4.8638Y-6.7917
X4.8638Y-6.8917
X4.9638Y-6.7917
X4.9638Y-6.8917
X5.0638Y-6.7917
X5.0638Y-6.8917
X5.1638Y-6.7917
X5.1638Y-6.8917
X5.2638Y-6.7917
X5.2638Y-6.8917
X5.3638Y-6.7917
X5.3638Y-6.8917
X5.4638Y-6.7917
X5.4638Y-6.8917
X5.5638Y-6.7917
X5.5638Y-6.8917
X5.6638Y-6.7917
X5.6638Y-6.8917
X5.7638Y-6.7917
X5.7638Y-6.8917
X5.5287Y-6.3276
X5.6287Y-6.3276
X5.7287Y-6.3276
X5.8287Y-6.3276
X5.9287Y-6.3276
X6.0287Y-6.3276
X6.1287Y-6.3276
X6.2287Y-6.3276
X3.8646Y-6.5677
X3.9646Y-6.5677
X4.0646Y-6.5677
X4.1646Y-6.5677
X4.2646Y-6.5677
X4.3646Y-6.5677
X4.4646Y-6.5677
X4.5646Y-6.5677
X4.6646Y-6.5677
X4.7646Y-6.5677
X4.8646Y-6.5677
X4.9646Y-6.5677
X5.0646Y-6.5677
X5.1646Y-6.5677
X5.2646Y-6.5677
X5.3646Y-6.5677
X5.4646Y-6.5677
X5.5646Y-6.5677
X5.6646Y-6.5677
X5.7646Y-6.5677
X6.6091Y-2.5709
X6.6091Y-2.6709
X6.7091Y-2.5709
X6.7091Y-2.6709
X6.2189Y-7.6205
X6.2189Y-7.7205
X6.3189Y-7.6205
X6.3189Y-7.7205
X6.4189Y-7.6205
X6.4189Y-7.7205
X6.5189Y-7.6205
X6.5189Y-7.7205
X6.6189Y-7.6205
X6.6189Y-7.7205
X6.7189Y-7.6205
X6.7189Y-7.7205
X6.8189Y-7.6205
X6.8189Y-7.7205
X6.9189Y-7.6205
X6.9189Y-7.7205
X7.0189Y-7.6205
X7.0189Y-7.7205
X7.1189Y-7.6205
X7.1189Y-7.7205
X7.2189Y-7.6205
X7.2189Y-7.7205
X7.3189Y-7.6205
X7.3189Y-7.7205
X7.4189Y-7.6205
X7.4189Y-7.7205
X7.5189Y-7.6205
X7.5189Y-7.7205
X7.6189Y-7.6205
X7.6189Y-7.7205
X7.7189Y-7.6205
X7.7189Y-7.7205
X7.8189Y-7.6205
X7.8189Y-7.7205
X7.9189Y-7.6205
X7.9189Y-7.7205
X8.0189Y-7.6205
X8.0189Y-7.7205
X8.1189Y-7.6205
X8.1189Y-7.7205
X6.9406Y-6.1228
X6.9406Y-6.2228
X7.0406Y-6.1228
X7.0406Y-6.2228
X7.1406Y-6.1228
X7.1406Y-6.2228
X7.2406Y-6.1228
X7.2406Y-6.2228
X7.413Y-6.1228
X7.413Y-6.2228
X7.513Y-6.1228
X7.513Y-6.2228
X7.613Y-6.1228
X7.613Y-6.2228
X7.713Y-6.1228
X7.713Y-6.2228
X6.9701Y-6.3701
X7.0701Y-6.3701
X7.1701Y-6.3701
X7.2701Y-6.3701
X7.3701Y-6.3701
X7.4701Y-6.3701
X7.5701Y-6.3701
X7.6701Y-6.3701
X3.8213Y-7.3984
X3.9213Y-7.3984
X4.0213Y-7.3984
X4.1213Y-7.3984
X4.2213Y-7.3984
X4.3213Y-7.3984
X4.4213Y-7.3984
X4.5213Y-7.3984
X4.6213Y-7.3984
X4.7213Y-7.3984
X4.8213Y-7.3984
X4.9213Y-7.3984
X5.0213Y-7.3984
X5.1213Y-7.3984
X5.2213Y-7.3984
X5.3213Y-7.3984
X5.4213Y-7.3984
X5.5213Y-7.3984
X5.6213Y-7.3984
X5.7213Y-7.3984
X6.9583Y-5.9646
X7.0583Y-5.9646
X7.1583Y-5.9646
X7.2583Y-5.9646
X7.3583Y-5.9646
X7.4583Y-5.9646
X7.5583Y-5.9646
X7.6583Y-5.9646
X3.963Y-7.985
X4.063Y-7.985
X4.163Y-7.985
X4.263Y-7.985
X4.363Y-7.985
X4.463Y-7.985
X4.563Y-7.985
X4.663Y-7.985
X4.763Y-7.985
X4.863Y-7.985
X4.963Y-7.985
X5.063Y-7.985
X5.163Y-7.985
X5.263Y-7.985
X5.363Y-7.985
X5.463Y-7.985
X5.563Y-7.985
X5.663Y-7.985
X5.763Y-7.985
X5.863Y-7.985
X7.564Y-2.7236
X7.564Y-2.8236
X7.564Y-2.9236
X7.564Y-3.0236
X7.564Y-3.1236
X7.564Y-3.2236
X7.564Y-3.3236
X7.564Y-3.4236
X7.564Y-3.5236
X7.564Y-3.6236
X7.564Y-3.7236
X7.564Y-3.8236
X7.564Y-3.9236
X7.564Y-4.0236
X7.564Y-4.1236
X7.564Y-4.2236
X7.564Y-4.3236
X7.564Y-4.4236
X7.564Y-4.5236
X7.564Y-4.6236
X7.664Y-2.7236
X7.664Y-2.8236
X7.664Y-2.9236
X7.664Y-3.0236
X7.664Y-3.1236
X7.664Y-3.2236
X7.664Y-3.3236
X7.664Y-3.4236
X7.664Y-3.5236
X7.664Y-3.6236
X7.664Y-3.7236
X7.664Y-3.8236
X7.664Y-3.9236
X7.664Y-4.0236
X7.664Y-4.1236
X7.664Y-4.2236
X7.664Y-4.3236
X7.664Y-4.4236
X7.664Y-4.5236
X7.664Y-4.6236
X4.0827Y-6.0512
X4.0827Y-6.1512
X4.1827Y-6.0512
X4.1827Y-6.1512
X4.2827Y-6.0512
X4.2827Y-6.1512
X4.3827Y-6.0512
X4.3827Y-6.1512
X4.5551Y-6.0512
X4.5551Y-6.1512
X4.6551Y-6.0512
X4.6551Y-6.1512
X4.7551Y-6.0512
X4.7551Y-6.1512
X4.8551Y-6.0512
X4.8551Y-6.1512
T7
X4.1101Y-1.6837
X4.1101Y-1.8022
X4.3071Y-1.9992
X4.5041Y-1.6837
X4.5041Y-1.8022
X4.7085Y-1.6837
X4.7085Y-1.8022
X4.9055Y-1.9992
X5.1025Y-1.6837
X5.1025Y-1.8022
T8
X4.1051Y-4.2799
X4.1059Y-4.478
X4.1071Y-3.8154
X4.1094Y-4.0161
X4.4177Y-4.4795
X4.4232Y-4.0165
X4.4244Y-4.2811
X4.4252Y-3.813
X6.8055Y-5.4413
X6.8118Y-5.1248
X7.0087Y-5.1248
X7.0102Y-5.4433
X7.2937Y-5.4398
X7.2957Y-5.126
X7.4913Y-5.4406
X7.4917Y-5.1232
T9
X3.6132Y-3.1144
X3.6132Y-3.39
X4.0384Y-3.1144
X4.0384Y-3.2522
X4.0384Y-3.39
X3.6093Y-2.4313
X3.6093Y-2.7069
X4.0344Y-2.4313
X4.0344Y-2.5691
X4.0344Y-2.7069
X4.3041Y-3.1144
X4.3041Y-3.39
X4.7293Y-3.1144
X4.7293Y-3.2522
X4.7293Y-3.39
X4.3002Y-2.4313
X4.3002Y-2.7069
X4.7254Y-2.4313
X4.7254Y-2.5691
X4.7254Y-2.7069
T11
X8.2346Y-5.8984
X3.6402Y-5.8984
X8.2346Y-7.989
X3.6323Y-7.989
X3.6299Y-5.389
X3.6299Y-1.7669
X8.2346Y-5.3898
X8.2346Y-1.7638
T3
G00X7.7441Y-1.6461
M15
G01X7.7441Y-1.6933
M16
G05
G00X8.0311Y-1.6461
M15
G01X8.0311Y-1.6933
M16
G05
T5
G00X4.1101Y-1.9854
M15
G01X4.1101Y-2.013
M16
G05
G00X4.2086Y-1.9854
M15
G01X4.2086Y-2.013
M16
G05
G00X4.2933Y-1.8022
M15
G01X4.3209Y-1.8022
M16
G05
G00X4.4056Y-1.9854
M15
G01X4.4056Y-2.013
M16
G05
G00X4.5041Y-1.9854
M15
G01X4.5041Y-2.013
M16
G05
G00X4.7085Y-1.9854
M15
G01X4.7085Y-2.013
M16
G05
G00X4.807Y-1.9854
M15
G01X4.807Y-2.013
M16
G05
G00X4.8917Y-1.8022
M15
G01X4.9193Y-1.8022
M16
G05
G00X5.004Y-1.9854
M15
G01X5.004Y-2.013
M16
G05
G00X5.1025Y-1.9854
M15
G01X5.1025Y-2.013
M16
G05
T10
G00X6.5921Y-2.0016
M15
G01X6.5921Y-2.0803
M16
G05
G00X6.8165Y-1.9228
M15
G01X6.7378Y-1.9228
M16
G05
G00X6.8165Y-2.1591
M15
G01X6.7378Y-2.1591
M16
G05
G00X6.124Y-2.0043
M15
G01X6.124Y-2.0831
M16
G05
G00X6.3484Y-1.9256
M15
G01X6.2697Y-1.9256
M16
G05
G00X6.3484Y-2.1618
M15
G01X6.2697Y-2.1618
M16
G05
G00X7.775Y-4.9882
M15
G01X7.8537Y-4.9882
M16
G05
G00X7.775Y-5.2244
M15
G01X7.8537Y-5.2244
M16
G05
G00X7.9994Y-5.1457
M15
G01X7.9994Y-5.0669
M16
G05
T0
M30
