G04 #@! TF.GenerationSoftware,KiCad,Pcbnew,5.1.7-a382d34a8~88~ubuntu20.04.1*
G04 #@! TF.CreationDate,2021-03-14T14:40:07-05:00*
G04 #@! TF.ProjectId,open-dash-daughterboard,6f70656e-2d64-4617-9368-2d6461756768,rev?*
G04 #@! TF.SameCoordinates,Original*
G04 #@! TF.FileFunction,Soldermask,Bot*
G04 #@! TF.FilePolarity,Negative*
%FSLAX46Y46*%
G04 Gerber Fmt 4.6, Leading zero omitted, Abs format (unit mm)*
G04 Created by KiCad (PCBNEW 5.1.7-a382d34a8~88~ubuntu20.04.1) date 2021-03-14 14:40:07*
%MOMM*%
%LPD*%
G01*
G04 APERTURE LIST*
%ADD10C,2.100000*%
%ADD11C,5.400000*%
%ADD12O,2.100000X2.100000*%
%ADD13O,1.400000X1.700000*%
%ADD14O,2.100000X3.300000*%
%ADD15C,2.800000*%
%ADD16C,3.000000*%
%ADD17C,1.924000*%
%ADD18O,2.200000X2.900000*%
%ADD19C,1.700000*%
%ADD20O,2.900000X2.200000*%
%ADD21C,2.400000*%
%ADD22C,1.400000*%
%ADD23C,1.200000*%
%ADD24C,1.000000*%
%ADD25C,1.900000*%
G04 APERTURE END LIST*
D10*
X204030000Y-72870000D03*
X204030000Y-75410000D03*
X204030000Y-77950000D03*
X204030000Y-80490000D03*
X204030000Y-83030000D03*
X204030000Y-85570000D03*
X204030000Y-88110000D03*
X204030000Y-90650000D03*
X204030000Y-93190000D03*
X204030000Y-95730000D03*
X204030000Y-98270000D03*
X204030000Y-100810000D03*
X204030000Y-103350000D03*
X204030000Y-105890000D03*
X204030000Y-108430000D03*
X204030000Y-110970000D03*
X204030000Y-113510000D03*
X204030000Y-116050000D03*
X204030000Y-118590000D03*
X204030000Y-121130000D03*
X206570000Y-72870000D03*
X206570000Y-75410000D03*
X206570000Y-77950000D03*
X206570000Y-80490000D03*
X206570000Y-83030000D03*
X206570000Y-85570000D03*
X206570000Y-88110000D03*
X206570000Y-90650000D03*
X206570000Y-93190000D03*
X206570000Y-95730000D03*
X206570000Y-98270000D03*
X206570000Y-100810000D03*
X206570000Y-103350000D03*
X206570000Y-105890000D03*
X206570000Y-108430000D03*
X206570000Y-110970000D03*
X206570000Y-113510000D03*
X206570000Y-116050000D03*
X206570000Y-118590000D03*
G36*
G01*
X207620000Y-120388823D02*
X207620000Y-121871177D01*
G75*
G02*
X207311177Y-122180000I-308823J0D01*
G01*
X205828823Y-122180000D01*
G75*
G02*
X205520000Y-121871177I0J308823D01*
G01*
X205520000Y-120388823D01*
G75*
G02*
X205828823Y-120080000I308823J0D01*
G01*
X207311177Y-120080000D01*
G75*
G02*
X207620000Y-120388823I0J-308823D01*
G01*
G37*
X192125000Y-73000000D03*
X192125000Y-75540000D03*
X192125000Y-78080000D03*
X192125000Y-80620000D03*
X192125000Y-83160000D03*
X192125000Y-85700000D03*
X192125000Y-88240000D03*
X192125000Y-90780000D03*
X192125000Y-93320000D03*
X192125000Y-95860000D03*
X192125000Y-98400000D03*
X192125000Y-100940000D03*
X192125000Y-103480000D03*
X192125000Y-106020000D03*
X192125000Y-108560000D03*
X192125000Y-111100000D03*
X192125000Y-113640000D03*
X192125000Y-116180000D03*
X192125000Y-118720000D03*
X192125000Y-121260000D03*
X194665000Y-73000000D03*
X194665000Y-75540000D03*
X194665000Y-78080000D03*
X194665000Y-80620000D03*
X194665000Y-83160000D03*
X194665000Y-85700000D03*
X194665000Y-88240000D03*
X194665000Y-90780000D03*
X194665000Y-93320000D03*
X194665000Y-95860000D03*
X194665000Y-98400000D03*
X194665000Y-100940000D03*
X194665000Y-103480000D03*
X194665000Y-106020000D03*
X194665000Y-108560000D03*
X194665000Y-111100000D03*
X194665000Y-113640000D03*
X194665000Y-116180000D03*
X194665000Y-118720000D03*
G36*
G01*
X195715000Y-120518823D02*
X195715000Y-122001177D01*
G75*
G02*
X195406177Y-122310000I-308823J0D01*
G01*
X193923823Y-122310000D01*
G75*
G02*
X193615000Y-122001177I0J308823D01*
G01*
X193615000Y-120518823D01*
G75*
G02*
X193923823Y-120210000I308823J0D01*
G01*
X195406177Y-120210000D01*
G75*
G02*
X195715000Y-120518823I0J-308823D01*
G01*
G37*
X146400000Y-172510000D03*
X143860000Y-172510000D03*
X141320000Y-172510000D03*
X138780000Y-172510000D03*
X136240000Y-172510000D03*
X133700000Y-172510000D03*
X131160000Y-172510000D03*
X128620000Y-172510000D03*
X126080000Y-172510000D03*
X123540000Y-172510000D03*
X121000000Y-172510000D03*
X118460000Y-172510000D03*
X115920000Y-172510000D03*
X113380000Y-172510000D03*
X110840000Y-172510000D03*
X108300000Y-172510000D03*
X105760000Y-172510000D03*
X103220000Y-172510000D03*
X100680000Y-172510000D03*
X98140000Y-172510000D03*
X146400000Y-175050000D03*
X143860000Y-175050000D03*
X141320000Y-175050000D03*
X138780000Y-175050000D03*
X136240000Y-175050000D03*
X133700000Y-175050000D03*
X131160000Y-175050000D03*
X128620000Y-175050000D03*
X126080000Y-175050000D03*
X123540000Y-175050000D03*
X121000000Y-175050000D03*
X118460000Y-175050000D03*
X115920000Y-175050000D03*
X113380000Y-175050000D03*
X110840000Y-175050000D03*
X108300000Y-175050000D03*
X105760000Y-175050000D03*
X103220000Y-175050000D03*
X100680000Y-175050000D03*
G36*
G01*
X98881177Y-176100000D02*
X97398823Y-176100000D01*
G75*
G02*
X97090000Y-175791177I0J308823D01*
G01*
X97090000Y-174308823D01*
G75*
G02*
X97398823Y-174000000I308823J0D01*
G01*
X98881177Y-174000000D01*
G75*
G02*
X99190000Y-174308823I0J-308823D01*
G01*
X99190000Y-175791177D01*
G75*
G02*
X98881177Y-176100000I-308823J0D01*
G01*
G37*
X206220000Y-193560000D03*
X203680000Y-193560000D03*
X201140000Y-193560000D03*
X198600000Y-193560000D03*
X196060000Y-193560000D03*
X193520000Y-193560000D03*
X190980000Y-193560000D03*
X188440000Y-193560000D03*
X185900000Y-193560000D03*
X183360000Y-193560000D03*
X180820000Y-193560000D03*
X178280000Y-193560000D03*
X175740000Y-193560000D03*
X173200000Y-193560000D03*
X170660000Y-193560000D03*
X168120000Y-193560000D03*
X165580000Y-193560000D03*
X163040000Y-193560000D03*
X160500000Y-193560000D03*
X157960000Y-193560000D03*
X206220000Y-196100000D03*
X203680000Y-196100000D03*
X201140000Y-196100000D03*
X198600000Y-196100000D03*
X196060000Y-196100000D03*
X193520000Y-196100000D03*
X190980000Y-196100000D03*
X188440000Y-196100000D03*
X185900000Y-196100000D03*
X183360000Y-196100000D03*
X180820000Y-196100000D03*
X178280000Y-196100000D03*
X175740000Y-196100000D03*
X173200000Y-196100000D03*
X170660000Y-196100000D03*
X168120000Y-196100000D03*
X165580000Y-196100000D03*
X163040000Y-196100000D03*
X160500000Y-196100000D03*
G36*
G01*
X158701177Y-197150000D02*
X157218823Y-197150000D01*
G75*
G02*
X156910000Y-196841177I0J308823D01*
G01*
X156910000Y-195358823D01*
G75*
G02*
X157218823Y-195050000I308823J0D01*
G01*
X158701177Y-195050000D01*
G75*
G02*
X159010000Y-195358823I0J-308823D01*
G01*
X159010000Y-196841177D01*
G75*
G02*
X158701177Y-197150000I-308823J0D01*
G01*
G37*
X145260000Y-193620000D03*
X142720000Y-193620000D03*
X140180000Y-193620000D03*
X137640000Y-193620000D03*
X135100000Y-193620000D03*
X132560000Y-193620000D03*
X130020000Y-193620000D03*
X127480000Y-193620000D03*
X124940000Y-193620000D03*
X122400000Y-193620000D03*
X119860000Y-193620000D03*
X117320000Y-193620000D03*
X114780000Y-193620000D03*
X112240000Y-193620000D03*
X109700000Y-193620000D03*
X107160000Y-193620000D03*
X104620000Y-193620000D03*
X102080000Y-193620000D03*
X99540000Y-193620000D03*
X97000000Y-193620000D03*
X145260000Y-196160000D03*
X142720000Y-196160000D03*
X140180000Y-196160000D03*
X137640000Y-196160000D03*
X135100000Y-196160000D03*
X132560000Y-196160000D03*
X130020000Y-196160000D03*
X127480000Y-196160000D03*
X124940000Y-196160000D03*
X122400000Y-196160000D03*
X119860000Y-196160000D03*
X117320000Y-196160000D03*
X114780000Y-196160000D03*
X112240000Y-196160000D03*
X109700000Y-196160000D03*
X107160000Y-196160000D03*
X104620000Y-196160000D03*
X102080000Y-196160000D03*
X99540000Y-196160000D03*
G36*
G01*
X97741177Y-197210000D02*
X96258823Y-197210000D01*
G75*
G02*
X95950000Y-196901177I0J308823D01*
G01*
X95950000Y-195418823D01*
G75*
G02*
X96258823Y-195110000I308823J0D01*
G01*
X97741177Y-195110000D01*
G75*
G02*
X98050000Y-195418823I0J-308823D01*
G01*
X98050000Y-196901177D01*
G75*
G02*
X97741177Y-197210000I-308823J0D01*
G01*
G37*
D11*
X92260000Y-202920000D03*
X209160000Y-149820000D03*
X92460000Y-149820000D03*
X209160000Y-202920000D03*
D12*
X194740000Y-179720000D03*
X192200000Y-179720000D03*
X189660000Y-179720000D03*
X187120000Y-179720000D03*
X184580000Y-179720000D03*
X182040000Y-179720000D03*
X179500000Y-179720000D03*
X176960000Y-179720000D03*
X174420000Y-179720000D03*
X171880000Y-179720000D03*
X169340000Y-179720000D03*
G36*
G01*
X167650000Y-180770000D02*
X165950000Y-180770000D01*
G75*
G02*
X165750000Y-180570000I0J200000D01*
G01*
X165750000Y-178870000D01*
G75*
G02*
X165950000Y-178670000I200000J0D01*
G01*
X167650000Y-178670000D01*
G75*
G02*
X167850000Y-178870000I0J-200000D01*
G01*
X167850000Y-180570000D01*
G75*
G02*
X167650000Y-180770000I-200000J0D01*
G01*
G37*
X188600000Y-175520000D03*
X191140000Y-172980000D03*
X196220000Y-175520000D03*
X188600000Y-172980000D03*
X193680000Y-175520000D03*
X196220000Y-172980000D03*
X191140000Y-175520000D03*
X193680000Y-172980000D03*
G36*
G01*
X162400000Y-171930000D02*
X164100000Y-171930000D01*
G75*
G02*
X164300000Y-172130000I0J-200000D01*
G01*
X164300000Y-173830000D01*
G75*
G02*
X164100000Y-174030000I-200000J0D01*
G01*
X162400000Y-174030000D01*
G75*
G02*
X162200000Y-173830000I0J200000D01*
G01*
X162200000Y-172130000D01*
G75*
G02*
X162400000Y-171930000I200000J0D01*
G01*
G37*
X163250000Y-175520000D03*
X165790000Y-172980000D03*
X165790000Y-175520000D03*
X168330000Y-172980000D03*
X168330000Y-175520000D03*
X170870000Y-172980000D03*
X170870000Y-175520000D03*
X175250000Y-172980000D03*
X175250000Y-175520000D03*
X177790000Y-172980000D03*
X177790000Y-175520000D03*
X180330000Y-172980000D03*
X180330000Y-175520000D03*
X182870000Y-172980000D03*
X182870000Y-175520000D03*
X194340000Y-168920000D03*
X191800000Y-168920000D03*
X189260000Y-168920000D03*
X186720000Y-168920000D03*
X184180000Y-168920000D03*
X181640000Y-168920000D03*
X179100000Y-168920000D03*
X176560000Y-168920000D03*
X174020000Y-168920000D03*
X171480000Y-168920000D03*
X168940000Y-168920000D03*
G36*
G01*
X167250000Y-169970000D02*
X165550000Y-169970000D01*
G75*
G02*
X165350000Y-169770000I0J200000D01*
G01*
X165350000Y-168070000D01*
G75*
G02*
X165550000Y-167870000I200000J0D01*
G01*
X167250000Y-167870000D01*
G75*
G02*
X167450000Y-168070000I0J-200000D01*
G01*
X167450000Y-169770000D01*
G75*
G02*
X167250000Y-169970000I-200000J0D01*
G01*
G37*
X146420000Y-166820000D03*
X143880000Y-166820000D03*
X141340000Y-166820000D03*
X138800000Y-166820000D03*
X136260000Y-166820000D03*
X133720000Y-166820000D03*
X131180000Y-166820000D03*
X128640000Y-166820000D03*
X126100000Y-166820000D03*
X123560000Y-166820000D03*
X121020000Y-166820000D03*
X118480000Y-166820000D03*
X115940000Y-166820000D03*
X113400000Y-166820000D03*
X110860000Y-166820000D03*
X108320000Y-166820000D03*
X105780000Y-166820000D03*
X103240000Y-166820000D03*
X100700000Y-166820000D03*
G36*
G01*
X99010000Y-167870000D02*
X97310000Y-167870000D01*
G75*
G02*
X97110000Y-167670000I0J200000D01*
G01*
X97110000Y-165970000D01*
G75*
G02*
X97310000Y-165770000I200000J0D01*
G01*
X99010000Y-165770000D01*
G75*
G02*
X99210000Y-165970000I0J-200000D01*
G01*
X99210000Y-167670000D01*
G75*
G02*
X99010000Y-167870000I-200000J0D01*
G01*
G37*
X145320000Y-181420000D03*
X142780000Y-181420000D03*
X140240000Y-181420000D03*
X137700000Y-181420000D03*
X135160000Y-181420000D03*
X132620000Y-181420000D03*
X130080000Y-181420000D03*
X127540000Y-181420000D03*
X125000000Y-181420000D03*
X122460000Y-181420000D03*
X119920000Y-181420000D03*
X117380000Y-181420000D03*
X114840000Y-181420000D03*
X112300000Y-181420000D03*
X109760000Y-181420000D03*
X107220000Y-181420000D03*
X104680000Y-181420000D03*
X102140000Y-181420000D03*
X99600000Y-181420000D03*
G36*
G01*
X97910000Y-182470000D02*
X96210000Y-182470000D01*
G75*
G02*
X96010000Y-182270000I0J200000D01*
G01*
X96010000Y-180570000D01*
G75*
G02*
X96210000Y-180370000I200000J0D01*
G01*
X97910000Y-180370000D01*
G75*
G02*
X98110000Y-180570000I0J-200000D01*
G01*
X98110000Y-182270000D01*
G75*
G02*
X97910000Y-182470000I-200000J0D01*
G01*
G37*
X194520000Y-151500000D03*
X191980000Y-151500000D03*
X189440000Y-151500000D03*
X186900000Y-151500000D03*
X184360000Y-151500000D03*
X181820000Y-151500000D03*
X179280000Y-151500000D03*
G36*
G01*
X177590000Y-152550000D02*
X175890000Y-152550000D01*
G75*
G02*
X175690000Y-152350000I0J200000D01*
G01*
X175690000Y-150650000D01*
G75*
G02*
X175890000Y-150450000I200000J0D01*
G01*
X177590000Y-150450000D01*
G75*
G02*
X177790000Y-150650000I0J-200000D01*
G01*
X177790000Y-152350000D01*
G75*
G02*
X177590000Y-152550000I-200000J0D01*
G01*
G37*
X176290000Y-155520000D03*
X176290000Y-158060000D03*
X178830000Y-155520000D03*
X178830000Y-158060000D03*
X181370000Y-155520000D03*
X181370000Y-158060000D03*
X183910000Y-155520000D03*
X183910000Y-158060000D03*
X188290000Y-155520000D03*
X188290000Y-158060000D03*
X190830000Y-155520000D03*
X190830000Y-158060000D03*
X193370000Y-155520000D03*
X193370000Y-158060000D03*
X195910000Y-155520000D03*
G36*
G01*
X196760000Y-159110000D02*
X195060000Y-159110000D01*
G75*
G02*
X194860000Y-158910000I0J200000D01*
G01*
X194860000Y-157210000D01*
G75*
G02*
X195060000Y-157010000I200000J0D01*
G01*
X196760000Y-157010000D01*
G75*
G02*
X196960000Y-157210000I0J-200000D01*
G01*
X196960000Y-158910000D01*
G75*
G02*
X196760000Y-159110000I-200000J0D01*
G01*
G37*
X194820000Y-161800000D03*
X192280000Y-161800000D03*
X189740000Y-161800000D03*
X187200000Y-161800000D03*
X184660000Y-161800000D03*
X182120000Y-161800000D03*
X179580000Y-161800000D03*
G36*
G01*
X177890000Y-162850000D02*
X176190000Y-162850000D01*
G75*
G02*
X175990000Y-162650000I0J200000D01*
G01*
X175990000Y-160950000D01*
G75*
G02*
X176190000Y-160750000I200000J0D01*
G01*
X177890000Y-160750000D01*
G75*
G02*
X178090000Y-160950000I0J-200000D01*
G01*
X178090000Y-162650000D01*
G75*
G02*
X177890000Y-162850000I-200000J0D01*
G01*
G37*
X202280000Y-202820000D03*
X199740000Y-202820000D03*
X197200000Y-202820000D03*
X194660000Y-202820000D03*
X192120000Y-202820000D03*
X189580000Y-202820000D03*
X187040000Y-202820000D03*
X184500000Y-202820000D03*
X181960000Y-202820000D03*
X179420000Y-202820000D03*
X176880000Y-202820000D03*
X174340000Y-202820000D03*
X171800000Y-202820000D03*
X169260000Y-202820000D03*
X166720000Y-202820000D03*
X164180000Y-202820000D03*
X161640000Y-202820000D03*
X159100000Y-202820000D03*
X156560000Y-202820000D03*
G36*
G01*
X154870000Y-203870000D02*
X153170000Y-203870000D01*
G75*
G02*
X152970000Y-203670000I0J200000D01*
G01*
X152970000Y-201970000D01*
G75*
G02*
X153170000Y-201770000I200000J0D01*
G01*
X154870000Y-201770000D01*
G75*
G02*
X155070000Y-201970000I0J-200000D01*
G01*
X155070000Y-203670000D01*
G75*
G02*
X154870000Y-203870000I-200000J0D01*
G01*
G37*
X206320000Y-187920000D03*
X203780000Y-187920000D03*
X201240000Y-187920000D03*
X198700000Y-187920000D03*
X196160000Y-187920000D03*
X193620000Y-187920000D03*
X191080000Y-187920000D03*
X188540000Y-187920000D03*
X186000000Y-187920000D03*
X183460000Y-187920000D03*
X180920000Y-187920000D03*
X178380000Y-187920000D03*
X175840000Y-187920000D03*
X173300000Y-187920000D03*
X170760000Y-187920000D03*
X168220000Y-187920000D03*
X165680000Y-187920000D03*
X163140000Y-187920000D03*
X160600000Y-187920000D03*
G36*
G01*
X158910000Y-188970000D02*
X157210000Y-188970000D01*
G75*
G02*
X157010000Y-188770000I0J200000D01*
G01*
X157010000Y-187070000D01*
G75*
G02*
X157210000Y-186870000I200000J0D01*
G01*
X158910000Y-186870000D01*
G75*
G02*
X159110000Y-187070000I0J-200000D01*
G01*
X159110000Y-188770000D01*
G75*
G02*
X158910000Y-188970000I-200000J0D01*
G01*
G37*
X122400000Y-149850000D03*
X119860000Y-149850000D03*
X117320000Y-149850000D03*
X114780000Y-149850000D03*
X112240000Y-149850000D03*
X109700000Y-149850000D03*
X107160000Y-149850000D03*
G36*
G01*
X105470000Y-150900000D02*
X103770000Y-150900000D01*
G75*
G02*
X103570000Y-150700000I0J200000D01*
G01*
X103570000Y-149000000D01*
G75*
G02*
X103770000Y-148800000I200000J0D01*
G01*
X105470000Y-148800000D01*
G75*
G02*
X105670000Y-149000000I0J-200000D01*
G01*
X105670000Y-150700000D01*
G75*
G02*
X105470000Y-150900000I-200000J0D01*
G01*
G37*
X103700000Y-153700000D03*
X103700000Y-156240000D03*
X106240000Y-153700000D03*
X106240000Y-156240000D03*
X108780000Y-153700000D03*
X108780000Y-156240000D03*
X111320000Y-153700000D03*
X111320000Y-156240000D03*
X115700000Y-153700000D03*
X115700000Y-156240000D03*
X118240000Y-153700000D03*
X118240000Y-156240000D03*
X120780000Y-153700000D03*
X120780000Y-156240000D03*
X123320000Y-153700000D03*
G36*
G01*
X124170000Y-157290000D02*
X122470000Y-157290000D01*
G75*
G02*
X122270000Y-157090000I0J200000D01*
G01*
X122270000Y-155390000D01*
G75*
G02*
X122470000Y-155190000I200000J0D01*
G01*
X124170000Y-155190000D01*
G75*
G02*
X124370000Y-155390000I0J-200000D01*
G01*
X124370000Y-157090000D01*
G75*
G02*
X124170000Y-157290000I-200000J0D01*
G01*
G37*
X122350000Y-159890000D03*
X119810000Y-159890000D03*
X117270000Y-159890000D03*
X114730000Y-159890000D03*
X112190000Y-159890000D03*
X109650000Y-159890000D03*
X107110000Y-159890000D03*
G36*
G01*
X105420000Y-160940000D02*
X103720000Y-160940000D01*
G75*
G02*
X103520000Y-160740000I0J200000D01*
G01*
X103520000Y-159040000D01*
G75*
G02*
X103720000Y-158840000I200000J0D01*
G01*
X105420000Y-158840000D01*
G75*
G02*
X105620000Y-159040000I0J-200000D01*
G01*
X105620000Y-160740000D01*
G75*
G02*
X105420000Y-160940000I-200000J0D01*
G01*
G37*
X145320000Y-187920000D03*
X142780000Y-187920000D03*
X140240000Y-187920000D03*
X137700000Y-187920000D03*
X135160000Y-187920000D03*
X132620000Y-187920000D03*
X130080000Y-187920000D03*
X127540000Y-187920000D03*
X125000000Y-187920000D03*
X122460000Y-187920000D03*
X119920000Y-187920000D03*
X117380000Y-187920000D03*
X114840000Y-187920000D03*
X112300000Y-187920000D03*
X109760000Y-187920000D03*
X107220000Y-187920000D03*
X104680000Y-187920000D03*
X102140000Y-187920000D03*
X99600000Y-187920000D03*
G36*
G01*
X97910000Y-188970000D02*
X96210000Y-188970000D01*
G75*
G02*
X96010000Y-188770000I0J200000D01*
G01*
X96010000Y-187070000D01*
G75*
G02*
X96210000Y-186870000I200000J0D01*
G01*
X97910000Y-186870000D01*
G75*
G02*
X98110000Y-187070000I0J-200000D01*
G01*
X98110000Y-188770000D01*
G75*
G02*
X97910000Y-188970000I-200000J0D01*
G01*
G37*
X148920000Y-202820000D03*
X146380000Y-202820000D03*
X143840000Y-202820000D03*
X141300000Y-202820000D03*
X138760000Y-202820000D03*
X136220000Y-202820000D03*
X133680000Y-202820000D03*
X131140000Y-202820000D03*
X128600000Y-202820000D03*
X126060000Y-202820000D03*
X123520000Y-202820000D03*
X120980000Y-202820000D03*
X118440000Y-202820000D03*
X115900000Y-202820000D03*
X113360000Y-202820000D03*
X110820000Y-202820000D03*
X108280000Y-202820000D03*
X105740000Y-202820000D03*
X103200000Y-202820000D03*
G36*
G01*
X101510000Y-203870000D02*
X99810000Y-203870000D01*
G75*
G02*
X99610000Y-203670000I0J200000D01*
G01*
X99610000Y-201970000D01*
G75*
G02*
X99810000Y-201770000I200000J0D01*
G01*
X101510000Y-201770000D01*
G75*
G02*
X101710000Y-201970000I0J-200000D01*
G01*
X101710000Y-203670000D01*
G75*
G02*
X101510000Y-203870000I-200000J0D01*
G01*
G37*
X158210000Y-149920000D03*
X155670000Y-149920000D03*
X153130000Y-149920000D03*
X150590000Y-149920000D03*
X148050000Y-149920000D03*
X145510000Y-149920000D03*
X142970000Y-149920000D03*
G36*
G01*
X141280000Y-150970000D02*
X139580000Y-150970000D01*
G75*
G02*
X139380000Y-150770000I0J200000D01*
G01*
X139380000Y-149070000D01*
G75*
G02*
X139580000Y-148870000I200000J0D01*
G01*
X141280000Y-148870000D01*
G75*
G02*
X141480000Y-149070000I0J-200000D01*
G01*
X141480000Y-150770000D01*
G75*
G02*
X141280000Y-150970000I-200000J0D01*
G01*
G37*
X139570000Y-154130000D03*
X139570000Y-156670000D03*
X142110000Y-154130000D03*
X142110000Y-156670000D03*
X144650000Y-154130000D03*
X144650000Y-156670000D03*
X147190000Y-154130000D03*
X147190000Y-156670000D03*
X151570000Y-154130000D03*
X151570000Y-156670000D03*
X154110000Y-154130000D03*
X154110000Y-156670000D03*
X156650000Y-154130000D03*
X156650000Y-156670000D03*
X159190000Y-154130000D03*
G36*
G01*
X160040000Y-157720000D02*
X158340000Y-157720000D01*
G75*
G02*
X158140000Y-157520000I0J200000D01*
G01*
X158140000Y-155820000D01*
G75*
G02*
X158340000Y-155620000I200000J0D01*
G01*
X160040000Y-155620000D01*
G75*
G02*
X160240000Y-155820000I0J-200000D01*
G01*
X160240000Y-157520000D01*
G75*
G02*
X160040000Y-157720000I-200000J0D01*
G01*
G37*
X158210000Y-160720000D03*
X155670000Y-160720000D03*
X153130000Y-160720000D03*
X150590000Y-160720000D03*
X148050000Y-160720000D03*
X145510000Y-160720000D03*
X142970000Y-160720000D03*
G36*
G01*
X141280000Y-161770000D02*
X139580000Y-161770000D01*
G75*
G02*
X139380000Y-161570000I0J200000D01*
G01*
X139380000Y-159870000D01*
G75*
G02*
X139580000Y-159670000I200000J0D01*
G01*
X141280000Y-159670000D01*
G75*
G02*
X141480000Y-159870000I0J-200000D01*
G01*
X141480000Y-161570000D01*
G75*
G02*
X141280000Y-161770000I-200000J0D01*
G01*
G37*
X194200000Y-49430000D03*
X194200000Y-51970000D03*
X191660000Y-49430000D03*
G36*
G01*
X192510000Y-53020000D02*
X190810000Y-53020000D01*
G75*
G02*
X190610000Y-52820000I0J200000D01*
G01*
X190610000Y-51120000D01*
G75*
G02*
X190810000Y-50920000I200000J0D01*
G01*
X192510000Y-50920000D01*
G75*
G02*
X192710000Y-51120000I0J-200000D01*
G01*
X192710000Y-52820000D01*
G75*
G02*
X192510000Y-53020000I-200000J0D01*
G01*
G37*
D13*
X198757400Y-51284600D03*
X201957800Y-51284600D03*
X201170400Y-50090800D03*
X199544800Y-50065400D03*
X200357600Y-51284600D03*
D14*
X196700000Y-46230000D03*
X203989800Y-46230000D03*
G36*
G01*
X170540000Y-56960000D02*
X173740000Y-56960000D01*
G75*
G02*
X174590000Y-57810000I0J-850000D01*
G01*
X174590000Y-59510000D01*
G75*
G02*
X173740000Y-60360000I-850000J0D01*
G01*
X170540000Y-60360000D01*
G75*
G02*
X169690000Y-59510000I0J850000D01*
G01*
X169690000Y-57810000D01*
G75*
G02*
X170540000Y-56960000I850000J0D01*
G01*
G37*
G36*
G01*
X170540000Y-50960000D02*
X173740000Y-50960000D01*
G75*
G02*
X174590000Y-51810000I0J-850000D01*
G01*
X174590000Y-53510000D01*
G75*
G02*
X173740000Y-54360000I-850000J0D01*
G01*
X170540000Y-54360000D01*
G75*
G02*
X169690000Y-53510000I0J850000D01*
G01*
X169690000Y-51810000D01*
G75*
G02*
X170540000Y-50960000I850000J0D01*
G01*
G37*
G36*
G01*
X166590000Y-53210000D02*
X168290000Y-53210000D01*
G75*
G02*
X169140000Y-54060000I0J-850000D01*
G01*
X169140000Y-57260000D01*
G75*
G02*
X168290000Y-58110000I-850000J0D01*
G01*
X166590000Y-58110000D01*
G75*
G02*
X165740000Y-57260000I0J850000D01*
G01*
X165740000Y-54060000D01*
G75*
G02*
X166590000Y-53210000I850000J0D01*
G01*
G37*
D10*
X103900000Y-139740000D03*
X106440000Y-139740000D03*
X108980000Y-139740000D03*
X111520000Y-139740000D03*
X114060000Y-139740000D03*
X116600000Y-139740000D03*
X119140000Y-139740000D03*
X121680000Y-139740000D03*
X124220000Y-139740000D03*
X126760000Y-139740000D03*
X129300000Y-139740000D03*
X131840000Y-139740000D03*
X134380000Y-139740000D03*
X136920000Y-139740000D03*
X139460000Y-139740000D03*
X142000000Y-139740000D03*
X144540000Y-139740000D03*
X147080000Y-139740000D03*
X149620000Y-139740000D03*
X152160000Y-139740000D03*
X103900000Y-137200000D03*
X106440000Y-137200000D03*
X108980000Y-137200000D03*
X111520000Y-137200000D03*
X114060000Y-137200000D03*
X116600000Y-137200000D03*
X119140000Y-137200000D03*
X121680000Y-137200000D03*
X124220000Y-137200000D03*
X126760000Y-137200000D03*
X129300000Y-137200000D03*
X131840000Y-137200000D03*
X134380000Y-137200000D03*
X136920000Y-137200000D03*
X139460000Y-137200000D03*
X142000000Y-137200000D03*
X144540000Y-137200000D03*
X147080000Y-137200000D03*
X149620000Y-137200000D03*
G36*
G01*
X151418823Y-136150000D02*
X152901177Y-136150000D01*
G75*
G02*
X153210000Y-136458823I0J-308823D01*
G01*
X153210000Y-137941177D01*
G75*
G02*
X152901177Y-138250000I-308823J0D01*
G01*
X151418823Y-138250000D01*
G75*
G02*
X151110000Y-137941177I0J308823D01*
G01*
X151110000Y-136458823D01*
G75*
G02*
X151418823Y-136150000I308823J0D01*
G01*
G37*
D11*
X209160000Y-48620000D03*
X209160000Y-140720000D03*
X92200000Y-48700000D03*
X92200000Y-140700000D03*
D15*
X102475001Y-69075001D03*
D16*
X102475001Y-72575001D03*
G36*
G01*
X101075001Y-66775001D02*
X101075001Y-64375001D01*
G75*
G02*
X101275001Y-64175001I200000J0D01*
G01*
X103675001Y-64175001D01*
G75*
G02*
X103875001Y-64375001I0J-200000D01*
G01*
X103875001Y-66775001D01*
G75*
G02*
X103675001Y-66975001I-200000J0D01*
G01*
X101275001Y-66975001D01*
G75*
G02*
X101075001Y-66775001I0J200000D01*
G01*
G37*
X91675001Y-72575001D03*
X91675001Y-65575001D03*
D15*
X120025001Y-69075001D03*
D16*
X120025001Y-72575001D03*
G36*
G01*
X118625001Y-66775001D02*
X118625001Y-64375001D01*
G75*
G02*
X118825001Y-64175001I200000J0D01*
G01*
X121225001Y-64175001D01*
G75*
G02*
X121425001Y-64375001I0J-200000D01*
G01*
X121425001Y-66775001D01*
G75*
G02*
X121225001Y-66975001I-200000J0D01*
G01*
X118825001Y-66975001D01*
G75*
G02*
X118625001Y-66775001I0J200000D01*
G01*
G37*
X109225001Y-72575001D03*
X109225001Y-65575001D03*
D12*
X167870000Y-69120000D03*
X170410000Y-69120000D03*
X167870000Y-71660000D03*
G36*
G01*
X171460000Y-70810000D02*
X171460000Y-72510000D01*
G75*
G02*
X171260000Y-72710000I-200000J0D01*
G01*
X169560000Y-72710000D01*
G75*
G02*
X169360000Y-72510000I0J200000D01*
G01*
X169360000Y-70810000D01*
G75*
G02*
X169560000Y-70610000I200000J0D01*
G01*
X171260000Y-70610000D01*
G75*
G02*
X171460000Y-70810000I0J-200000D01*
G01*
G37*
G36*
G01*
X158650000Y-57030000D02*
X161850000Y-57030000D01*
G75*
G02*
X162700000Y-57880000I0J-850000D01*
G01*
X162700000Y-59580000D01*
G75*
G02*
X161850000Y-60430000I-850000J0D01*
G01*
X158650000Y-60430000D01*
G75*
G02*
X157800000Y-59580000I0J850000D01*
G01*
X157800000Y-57880000D01*
G75*
G02*
X158650000Y-57030000I850000J0D01*
G01*
G37*
G36*
G01*
X158650000Y-51030000D02*
X161850000Y-51030000D01*
G75*
G02*
X162700000Y-51880000I0J-850000D01*
G01*
X162700000Y-53580000D01*
G75*
G02*
X161850000Y-54430000I-850000J0D01*
G01*
X158650000Y-54430000D01*
G75*
G02*
X157800000Y-53580000I0J850000D01*
G01*
X157800000Y-51880000D01*
G75*
G02*
X158650000Y-51030000I850000J0D01*
G01*
G37*
G36*
G01*
X154700000Y-53280000D02*
X156400000Y-53280000D01*
G75*
G02*
X157250000Y-54130000I0J-850000D01*
G01*
X157250000Y-57330000D01*
G75*
G02*
X156400000Y-58180000I-850000J0D01*
G01*
X154700000Y-58180000D01*
G75*
G02*
X153850000Y-57330000I0J850000D01*
G01*
X153850000Y-54130000D01*
G75*
G02*
X154700000Y-53280000I850000J0D01*
G01*
G37*
G36*
G01*
X200085000Y-132220000D02*
X196885000Y-132220000D01*
G75*
G02*
X196035000Y-131370000I0J850000D01*
G01*
X196035000Y-129670000D01*
G75*
G02*
X196885000Y-128820000I850000J0D01*
G01*
X200085000Y-128820000D01*
G75*
G02*
X200935000Y-129670000I0J-850000D01*
G01*
X200935000Y-131370000D01*
G75*
G02*
X200085000Y-132220000I-850000J0D01*
G01*
G37*
G36*
G01*
X200085000Y-138220000D02*
X196885000Y-138220000D01*
G75*
G02*
X196035000Y-137370000I0J850000D01*
G01*
X196035000Y-135670000D01*
G75*
G02*
X196885000Y-134820000I850000J0D01*
G01*
X200085000Y-134820000D01*
G75*
G02*
X200935000Y-135670000I0J-850000D01*
G01*
X200935000Y-137370000D01*
G75*
G02*
X200085000Y-138220000I-850000J0D01*
G01*
G37*
G36*
G01*
X204035000Y-135970000D02*
X202335000Y-135970000D01*
G75*
G02*
X201485000Y-135120000I0J850000D01*
G01*
X201485000Y-131920000D01*
G75*
G02*
X202335000Y-131070000I850000J0D01*
G01*
X204035000Y-131070000D01*
G75*
G02*
X204885000Y-131920000I0J-850000D01*
G01*
X204885000Y-135120000D01*
G75*
G02*
X204035000Y-135970000I-850000J0D01*
G01*
G37*
D17*
X91599500Y-120489600D03*
X91599500Y-118495700D03*
X91599500Y-110494700D03*
X91599500Y-124490100D03*
X91599500Y-114495200D03*
X91599500Y-122496200D03*
X91599500Y-112488600D03*
X91599500Y-116489100D03*
X91599500Y-104487600D03*
X91599500Y-126496700D03*
X91599500Y-106494200D03*
X91599500Y-108488100D03*
X95600000Y-109491400D03*
X95600000Y-107497500D03*
X95600000Y-103497000D03*
X95600000Y-105490900D03*
X95600000Y-111498000D03*
X95600000Y-117492400D03*
X95600000Y-115498500D03*
X95600000Y-113491900D03*
X95600000Y-119499000D03*
X95600000Y-121492900D03*
X95600000Y-123499500D03*
X95600000Y-125493400D03*
X95600000Y-127500000D03*
G36*
G01*
X91350000Y-58250000D02*
X89650000Y-58250000D01*
G75*
G02*
X89450000Y-58050000I0J200000D01*
G01*
X89450000Y-56350000D01*
G75*
G02*
X89650000Y-56150000I200000J0D01*
G01*
X91350000Y-56150000D01*
G75*
G02*
X91550000Y-56350000I0J-200000D01*
G01*
X91550000Y-58050000D01*
G75*
G02*
X91350000Y-58250000I-200000J0D01*
G01*
G37*
D12*
X93040000Y-57200000D03*
X95580000Y-57200000D03*
X98120000Y-57200000D03*
X100660000Y-57200000D03*
D18*
X127101900Y-54600000D03*
X122098100Y-54600000D03*
X119596200Y-54600000D03*
X129603800Y-54600000D03*
D19*
X124600000Y-54600000D03*
D20*
X124600000Y-49596200D03*
D19*
X129603800Y-49596200D03*
X119596200Y-49596200D03*
X119596200Y-46586300D03*
X129603800Y-46586300D03*
D18*
X111901900Y-54600000D03*
X106898100Y-54600000D03*
X104396200Y-54600000D03*
X114403800Y-54600000D03*
D19*
X109400000Y-54600000D03*
D20*
X109400000Y-49596200D03*
D19*
X114403800Y-49596200D03*
X104396200Y-49596200D03*
X104396200Y-46586300D03*
X114403800Y-46586300D03*
D15*
X102575001Y-86425001D03*
D16*
X102575001Y-89925001D03*
G36*
G01*
X101175001Y-84125001D02*
X101175001Y-81725001D01*
G75*
G02*
X101375001Y-81525001I200000J0D01*
G01*
X103775001Y-81525001D01*
G75*
G02*
X103975001Y-81725001I0J-200000D01*
G01*
X103975001Y-84125001D01*
G75*
G02*
X103775001Y-84325001I-200000J0D01*
G01*
X101375001Y-84325001D01*
G75*
G02*
X101175001Y-84125001I0J200000D01*
G01*
G37*
X91775001Y-89925001D03*
X91775001Y-82925001D03*
D15*
X120125001Y-86425001D03*
D16*
X120125001Y-89925001D03*
G36*
G01*
X118725001Y-84125001D02*
X118725001Y-81725001D01*
G75*
G02*
X118925001Y-81525001I200000J0D01*
G01*
X121325001Y-81525001D01*
G75*
G02*
X121525001Y-81725001I0J-200000D01*
G01*
X121525001Y-84125001D01*
G75*
G02*
X121325001Y-84325001I-200000J0D01*
G01*
X118925001Y-84325001D01*
G75*
G02*
X118725001Y-84125001I0J200000D01*
G01*
G37*
X109325001Y-89925001D03*
X109325001Y-82925001D03*
D21*
X178020000Y-133990000D03*
X173020000Y-133990000D03*
X185310000Y-134020000D03*
X190290000Y-133950000D03*
X104270000Y-112530000D03*
X104290000Y-117560000D03*
D22*
X115000000Y-120630000D03*
D23*
X121540000Y-105920000D03*
X120640000Y-105910000D03*
D21*
X104320000Y-100730000D03*
X104380000Y-105830000D03*
D22*
X150000000Y-61530000D03*
X143090000Y-55930000D03*
D23*
X181130000Y-92100000D03*
X184270000Y-92090000D03*
X187990000Y-106050000D03*
X175440000Y-120470000D03*
X184830000Y-120500000D03*
X187940000Y-120540000D03*
X206740000Y-135560000D03*
D22*
X122340000Y-121610000D03*
X120630000Y-121720000D03*
D24*
X168720000Y-73390000D03*
X187050000Y-126460000D03*
D23*
X184915879Y-105983783D03*
X186770000Y-99860000D03*
X177490000Y-101740000D03*
X172600000Y-106780000D03*
X169790000Y-106760000D03*
D24*
X175680000Y-109550000D03*
D23*
X178090000Y-120210000D03*
D24*
X170790000Y-115540000D03*
X187250000Y-111590000D03*
X187520000Y-117690000D03*
X183600000Y-87760000D03*
X171075994Y-126223462D03*
D23*
X184180000Y-97494979D03*
D22*
X166180000Y-62250000D03*
X166140000Y-63490000D03*
D21*
X172860000Y-142030000D03*
X178060000Y-142080000D03*
X185260000Y-141990000D03*
X190280000Y-142010000D03*
X112380000Y-112560000D03*
X112210000Y-117600000D03*
D22*
X142680000Y-125220000D03*
X142630000Y-122780000D03*
X149935596Y-120108283D03*
D24*
X156720000Y-127910000D03*
X155770000Y-128700000D03*
X149460000Y-128830000D03*
D23*
X125150000Y-93160000D03*
X134780000Y-93150000D03*
D21*
X112400000Y-100670000D03*
X112350000Y-105840000D03*
D25*
X182330000Y-49290000D03*
X183930000Y-49370000D03*
X185640000Y-49440000D03*
X182290000Y-51600000D03*
X185380000Y-51600000D03*
X135830000Y-53050000D03*
X135980000Y-54670000D03*
X135810000Y-56410000D03*
X138160000Y-52990000D03*
X138160000Y-54810000D03*
X138050000Y-56560000D03*
D23*
X143730000Y-75220000D03*
X136840000Y-75470000D03*
X130820000Y-79300000D03*
X125830000Y-79340000D03*
X125990000Y-69840000D03*
X130990000Y-69920000D03*
X126050000Y-87820000D03*
X130950000Y-87830000D03*
X93160000Y-129110000D03*
X92850000Y-134400000D03*
X173150000Y-121750000D03*
X179090000Y-93300000D03*
X175880000Y-93250000D03*
D25*
X123970000Y-114390000D03*
X125700000Y-114420000D03*
X122290000Y-114320000D03*
X122210000Y-116490000D03*
X123930000Y-116430000D03*
X125650000Y-116400000D03*
D24*
X139650000Y-118870000D03*
D23*
X149010000Y-96910000D03*
X149070000Y-102000000D03*
X143070000Y-101940000D03*
X143080000Y-96860000D03*
X144880000Y-94520000D03*
X160900000Y-75260000D03*
X157320000Y-75280000D03*
X174990000Y-105520000D03*
X168400000Y-89750000D03*
X168330000Y-83570000D03*
X174190000Y-77460000D03*
X174010000Y-102740000D03*
X184040000Y-80530000D03*
X182810000Y-72360000D03*
X184760000Y-72360000D03*
X200530000Y-55180000D03*
X208230000Y-53360000D03*
X208690000Y-56190000D03*
X208790000Y-58060000D03*
X177630000Y-80640000D03*
D24*
X138930000Y-107290000D03*
D23*
X208550000Y-131420000D03*
X167450000Y-101570000D03*
X163300000Y-100270000D03*
D24*
X150380000Y-128045010D03*
D23*
X98150000Y-102070000D03*
X94560000Y-100960000D03*
X90325010Y-98721398D03*
D22*
X130988371Y-120974436D03*
X112840000Y-124420000D03*
X116520000Y-124450000D03*
X124010000Y-121470000D03*
D24*
X102540000Y-117160000D03*
X202640000Y-61900000D03*
X203210000Y-64770000D03*
D25*
X181040000Y-67060000D03*
D24*
X194630000Y-56990000D03*
D23*
X204003315Y-55361333D03*
D24*
X180230000Y-76230000D03*
X180070000Y-83660000D03*
D23*
X173526294Y-89925010D03*
D24*
X157810000Y-101940000D03*
D23*
X182750000Y-107190000D03*
X183960000Y-117680000D03*
X184355837Y-102319990D03*
X182570000Y-121760000D03*
X179835033Y-121915033D03*
D24*
X174130000Y-124590000D03*
D23*
X179811878Y-89052802D03*
D24*
X143470000Y-47340000D03*
X153080000Y-46430000D03*
D23*
X182293283Y-127419991D03*
D24*
X156855010Y-103899352D03*
D23*
X167283631Y-108764979D03*
D24*
X183838787Y-112389975D03*
D23*
X166985161Y-113224839D03*
X175230000Y-114745010D03*
X177838879Y-105155837D03*
X173990000Y-111924957D03*
X145194990Y-111590000D03*
D24*
X189920000Y-63770000D03*
D23*
X178247721Y-98604979D03*
X179553439Y-107265010D03*
D24*
X157890000Y-94110000D03*
D22*
X182970000Y-64580000D03*
X183790000Y-63220000D03*
D23*
X149580000Y-82140000D03*
X149600000Y-83210000D03*
X150570000Y-82230000D03*
X150600000Y-83240000D03*
X148560000Y-82140000D03*
X148540000Y-83130000D03*
D24*
X175134979Y-66180000D03*
D22*
X177035010Y-67000000D03*
X133710000Y-126440000D03*
X133730000Y-125210000D03*
D24*
X162440000Y-136930000D03*
D22*
X155690691Y-125254990D03*
D23*
X166670000Y-117234948D03*
D24*
X164290000Y-121510000D03*
X169654968Y-135440000D03*
X166656709Y-129708482D03*
X162650000Y-127200000D03*
X170845055Y-122200000D03*
X161590000Y-121360000D03*
X203360000Y-59680000D03*
X204780000Y-57120000D03*
X181739999Y-78879999D03*
X184780000Y-83600000D03*
X140020000Y-88900000D03*
D23*
X190510000Y-65800000D03*
X193400000Y-62060000D03*
D22*
X173430000Y-68440000D03*
X150000000Y-118910000D03*
X155940000Y-121440000D03*
D24*
X146920000Y-130720000D03*
X153220000Y-130760000D03*
D23*
X134780000Y-100770000D03*
X125070000Y-100730000D03*
X135480000Y-79440000D03*
X135730000Y-87740000D03*
X165990000Y-97430000D03*
X167450000Y-98470000D03*
X169110000Y-96890000D03*
X166360000Y-103200000D03*
X143770000Y-76490000D03*
X137030000Y-77460000D03*
D24*
X137870000Y-102960000D03*
X157937191Y-97104052D03*
X156735010Y-99050000D03*
X135030000Y-71760000D03*
X167500000Y-76480000D03*
X176470000Y-60350000D03*
D22*
X136010000Y-126290000D03*
X135990000Y-123680000D03*
X136000000Y-124950000D03*
D24*
X166820883Y-122999729D03*
X161230000Y-135140000D03*
X164387949Y-137051450D03*
X167553637Y-120457195D03*
X165795799Y-131863772D03*
X162720000Y-131110000D03*
X168502334Y-138884990D03*
X169490000Y-136960000D03*
X165430000Y-121440000D03*
X163010011Y-121408614D03*
D22*
X166500000Y-60270000D03*
X174754979Y-71250000D03*
X187580000Y-67150000D03*
X189290000Y-70800000D03*
D24*
X95100000Y-99070000D03*
D23*
X94565021Y-114613138D03*
X186820000Y-97000000D03*
D24*
X199700000Y-103290000D03*
X184250000Y-78700000D03*
X168800000Y-128620000D03*
X167970215Y-125425886D03*
X210340000Y-107340000D03*
X168980000Y-130150000D03*
X167336631Y-126079471D03*
X174940000Y-108760000D03*
X200970000Y-99170000D03*
X201661726Y-109331519D03*
X138840000Y-86750000D03*
X147490000Y-88060000D03*
X157290000Y-86610000D03*
X164900000Y-85730000D03*
X177990000Y-78530000D03*
X191910000Y-67480000D03*
X180120000Y-113850000D03*
X198760000Y-103140000D03*
X185950000Y-98810000D03*
X161980000Y-105650000D03*
X152730000Y-105030000D03*
X192764454Y-126135237D03*
X163130000Y-132050000D03*
X183830000Y-127580000D03*
X195060000Y-131210000D03*
X193299025Y-125462613D03*
D23*
X150898544Y-123446776D03*
X149603074Y-122413262D03*
D24*
X161630000Y-127190000D03*
X161490000Y-125140000D03*
D23*
X160320000Y-102150000D03*
X158770000Y-101510000D03*
D24*
X163100000Y-78930000D03*
X161720000Y-80270000D03*
X160930000Y-79220000D03*
X165053467Y-78087476D03*
X162190000Y-138560000D03*
X165250000Y-138830000D03*
X143980000Y-85490000D03*
X145630000Y-86300000D03*
X165100000Y-88420000D03*
X174920000Y-87680000D03*
X184250000Y-88830000D03*
X156754990Y-89616140D03*
X137760000Y-80900000D03*
X139140000Y-79490000D03*
X157180000Y-77620000D03*
X161080000Y-76480000D03*
X199410000Y-67070000D03*
X197910000Y-66470000D03*
X194350000Y-60590000D03*
X195940000Y-63710000D03*
X199950000Y-64610000D03*
X197860000Y-63260000D03*
X136120000Y-97770000D03*
X137660000Y-88410000D03*
X137770000Y-82910000D03*
X140460000Y-82850000D03*
X142860000Y-93510000D03*
X144930000Y-90800000D03*
X154700000Y-78460000D03*
X156190000Y-74590000D03*
X130310000Y-72070000D03*
X130410000Y-75590000D03*
X135230000Y-81550000D03*
X146053529Y-87185010D03*
X161730000Y-84700000D03*
X165110000Y-84660000D03*
X175480000Y-75120000D03*
X177420000Y-62590000D03*
X93447326Y-104675043D03*
X102080000Y-101180000D03*
X140585010Y-85211599D03*
X146501925Y-85854990D03*
X99160000Y-87970000D03*
X100980000Y-88000000D03*
X173710000Y-118670000D03*
X178030000Y-117960000D03*
X180290000Y-116750000D03*
X169426544Y-120280067D03*
X172520000Y-118140000D03*
X168413204Y-118274979D03*
X152594957Y-112243615D03*
X155885021Y-112918118D03*
X155800705Y-109509148D03*
X152968561Y-109882696D03*
X178970000Y-114100000D03*
X178860000Y-111520000D03*
X179470000Y-105540000D03*
X180540000Y-102490000D03*
X162490000Y-90200000D03*
X176440000Y-88110000D03*
X164690000Y-89355010D03*
X174180000Y-88305010D03*
X158660000Y-96200000D03*
X161290000Y-96240000D03*
X155860600Y-111829385D03*
X152594957Y-111211879D03*
X161594990Y-90570000D03*
X164012062Y-93093668D03*
X161640000Y-88860000D03*
X163888913Y-88367189D03*
X161630000Y-87930000D03*
X164653239Y-87756356D03*
D23*
X146310000Y-119300000D03*
X146389165Y-116425010D03*
D24*
X161480000Y-86590000D03*
X164690872Y-86570000D03*
X154760000Y-100490000D03*
X162640000Y-98140000D03*
X187390000Y-97860000D03*
X198050000Y-97940000D03*
X143640000Y-98660000D03*
X146350000Y-97630000D03*
X155250000Y-95600000D03*
X182040000Y-95480000D03*
X187690000Y-93750000D03*
X201670000Y-93440000D03*
X163030000Y-95350000D03*
X125870000Y-65460000D03*
X131290000Y-65450000D03*
X139480000Y-89810000D03*
X135655010Y-74880000D03*
X135655010Y-72963380D03*
X138751524Y-87816714D03*
X146040000Y-113540000D03*
X137140000Y-102100000D03*
X134980000Y-98840000D03*
X163660000Y-126850000D03*
X152600000Y-118780000D03*
X163350000Y-125290000D03*
X198080000Y-53510000D03*
X186970000Y-125150000D03*
X187920000Y-123030000D03*
X174220000Y-123090000D03*
X175780000Y-122700000D03*
X187770000Y-102200000D03*
X188030713Y-104564990D03*
X185020000Y-108490000D03*
X183390000Y-108480000D03*
X172650000Y-104220000D03*
X175180000Y-104250000D03*
D23*
X181180000Y-90820000D03*
X178750000Y-90830000D03*
X129120000Y-178400000D03*
X103350000Y-178210000D03*
X129640000Y-177239990D03*
X160640000Y-177930000D03*
X123841888Y-182855475D03*
X95760000Y-178020000D03*
X98820000Y-185280000D03*
X103860000Y-185380000D03*
X116437084Y-184409017D03*
X101310000Y-184460000D03*
X115840000Y-189770000D03*
X97300000Y-183410000D03*
X106970000Y-186160021D03*
X118211376Y-186647200D03*
X100667510Y-99524043D03*
X92665010Y-102408823D03*
D24*
X154550000Y-109030000D03*
X149990000Y-107880000D03*
X155131379Y-108440345D03*
X150616807Y-107382877D03*
D23*
X105270000Y-58200000D03*
M02*
